G04 EAGLE Gerber RS-274X export*
G75*
%MOMM*%
%FSLAX34Y34*%
%LPD*%
%INTop Copper*%
%IPPOS*%
%AMOC8*
5,1,8,0,0,1.08239X$1,22.5*%
G01*
%ADD10C,0.150000*%
%ADD11R,1.361800X0.961800*%
%ADD12R,2.200000X0.600000*%
%ADD13C,1.638300*%
%ADD14R,0.961800X1.361800*%
%ADD15C,1.705100*%
%ADD16C,0.200000*%
%ADD17R,1.200000X1.200000*%
%ADD18C,0.254000*%
%ADD19C,0.756400*%

G36*
X33760Y10178D02*
X33760Y10178D01*
X33899Y10191D01*
X33918Y10198D01*
X33938Y10201D01*
X34067Y10252D01*
X34198Y10299D01*
X34215Y10310D01*
X34234Y10318D01*
X34346Y10399D01*
X34461Y10477D01*
X34475Y10493D01*
X34491Y10504D01*
X34580Y10612D01*
X34672Y10716D01*
X34681Y10734D01*
X34694Y10749D01*
X34753Y10875D01*
X34817Y10999D01*
X34821Y11019D01*
X34830Y11037D01*
X34856Y11173D01*
X34886Y11309D01*
X34886Y11330D01*
X34889Y11349D01*
X34881Y11488D01*
X34877Y11627D01*
X34871Y11647D01*
X34870Y11667D01*
X34827Y11799D01*
X34788Y11933D01*
X34778Y11950D01*
X34772Y11969D01*
X34697Y12087D01*
X34627Y12207D01*
X34608Y12228D01*
X34601Y12238D01*
X34586Y12252D01*
X34520Y12327D01*
X30897Y15951D01*
X30874Y15969D01*
X30855Y15991D01*
X30748Y16066D01*
X30646Y16146D01*
X30619Y16157D01*
X30595Y16174D01*
X30473Y16220D01*
X30354Y16272D01*
X30325Y16276D01*
X30297Y16287D01*
X30168Y16301D01*
X30040Y16322D01*
X30010Y16319D01*
X29981Y16322D01*
X29853Y16304D01*
X29723Y16292D01*
X29695Y16282D01*
X29666Y16278D01*
X29514Y16226D01*
X27399Y15350D01*
X23401Y15350D01*
X19707Y16880D01*
X16880Y19707D01*
X15350Y23401D01*
X15350Y27399D01*
X16880Y31093D01*
X19707Y33920D01*
X23401Y35450D01*
X27399Y35450D01*
X31093Y33920D01*
X33920Y31093D01*
X35450Y27399D01*
X35450Y23401D01*
X34574Y21286D01*
X34567Y21258D01*
X34553Y21231D01*
X34525Y21105D01*
X34490Y20979D01*
X34490Y20950D01*
X34483Y20921D01*
X34487Y20791D01*
X34485Y20661D01*
X34492Y20633D01*
X34493Y20603D01*
X34529Y20479D01*
X34559Y20352D01*
X34573Y20326D01*
X34581Y20298D01*
X34647Y20186D01*
X34708Y20071D01*
X34728Y20049D01*
X34743Y20024D01*
X34849Y19903D01*
X38886Y15866D01*
X38964Y15806D01*
X39036Y15738D01*
X39089Y15709D01*
X39137Y15672D01*
X39228Y15632D01*
X39315Y15584D01*
X39373Y15569D01*
X39429Y15545D01*
X39527Y15530D01*
X39623Y15505D01*
X39723Y15499D01*
X39743Y15495D01*
X39755Y15497D01*
X39783Y15495D01*
X41991Y15495D01*
X42129Y15512D01*
X42267Y15525D01*
X42286Y15532D01*
X42307Y15535D01*
X42436Y15586D01*
X42567Y15633D01*
X42583Y15644D01*
X42602Y15652D01*
X42715Y15733D01*
X42830Y15811D01*
X42843Y15827D01*
X42860Y15838D01*
X42948Y15946D01*
X43040Y16050D01*
X43049Y16068D01*
X43062Y16083D01*
X43121Y16209D01*
X43185Y16333D01*
X43189Y16353D01*
X43198Y16371D01*
X43224Y16507D01*
X43255Y16643D01*
X43254Y16664D01*
X43258Y16683D01*
X43249Y16822D01*
X43245Y16961D01*
X43239Y16981D01*
X43238Y17001D01*
X43195Y17133D01*
X43156Y17267D01*
X43146Y17284D01*
X43140Y17303D01*
X43066Y17421D01*
X42995Y17541D01*
X42976Y17562D01*
X42970Y17572D01*
X42955Y17586D01*
X42888Y17662D01*
X42359Y18191D01*
X41335Y19600D01*
X40545Y21152D01*
X40006Y22809D01*
X39998Y22861D01*
X49530Y22861D01*
X49648Y22876D01*
X49767Y22883D01*
X49805Y22896D01*
X49845Y22901D01*
X49956Y22944D01*
X50069Y22981D01*
X50103Y23003D01*
X50141Y23018D01*
X50237Y23088D01*
X50338Y23151D01*
X50366Y23181D01*
X50398Y23204D01*
X50474Y23296D01*
X50556Y23383D01*
X50575Y23418D01*
X50601Y23449D01*
X50652Y23557D01*
X50709Y23661D01*
X50720Y23701D01*
X50737Y23737D01*
X50759Y23854D01*
X50789Y23969D01*
X50793Y24030D01*
X50797Y24050D01*
X50795Y24070D01*
X50799Y24130D01*
X50799Y25401D01*
X50801Y25401D01*
X50801Y24130D01*
X50816Y24012D01*
X50823Y23893D01*
X50836Y23855D01*
X50841Y23814D01*
X50885Y23704D01*
X50921Y23591D01*
X50943Y23556D01*
X50958Y23519D01*
X51028Y23423D01*
X51091Y23322D01*
X51121Y23294D01*
X51145Y23261D01*
X51236Y23186D01*
X51323Y23104D01*
X51358Y23084D01*
X51390Y23059D01*
X51497Y23008D01*
X51602Y22950D01*
X51641Y22940D01*
X51677Y22923D01*
X51794Y22901D01*
X51909Y22871D01*
X51970Y22867D01*
X51990Y22863D01*
X52010Y22865D01*
X52070Y22861D01*
X61602Y22861D01*
X61594Y22809D01*
X61055Y21152D01*
X60265Y19600D01*
X59241Y18191D01*
X58712Y17662D01*
X58626Y17552D01*
X58538Y17445D01*
X58529Y17426D01*
X58517Y17410D01*
X58461Y17282D01*
X58402Y17157D01*
X58398Y17137D01*
X58390Y17118D01*
X58368Y16980D01*
X58342Y16844D01*
X58344Y16824D01*
X58340Y16804D01*
X58353Y16665D01*
X58362Y16527D01*
X58368Y16508D01*
X58370Y16488D01*
X58417Y16357D01*
X58460Y16225D01*
X58471Y16207D01*
X58478Y16188D01*
X58556Y16074D01*
X58630Y15956D01*
X58645Y15942D01*
X58656Y15925D01*
X58760Y15833D01*
X58862Y15738D01*
X58880Y15728D01*
X58895Y15715D01*
X59019Y15652D01*
X59140Y15584D01*
X59160Y15579D01*
X59178Y15570D01*
X59314Y15540D01*
X59448Y15505D01*
X59476Y15503D01*
X59488Y15500D01*
X59509Y15501D01*
X59609Y15495D01*
X90981Y15495D01*
X91112Y15511D01*
X91244Y15522D01*
X91270Y15531D01*
X91297Y15535D01*
X91420Y15583D01*
X91545Y15627D01*
X91567Y15642D01*
X91592Y15652D01*
X91700Y15729D01*
X91810Y15803D01*
X91828Y15823D01*
X91850Y15838D01*
X91934Y15940D01*
X92023Y16039D01*
X92035Y16063D01*
X92053Y16083D01*
X92109Y16203D01*
X92170Y16320D01*
X92177Y16347D01*
X92188Y16371D01*
X92213Y16501D01*
X92243Y16630D01*
X92243Y16657D01*
X92248Y16683D01*
X92240Y16815D01*
X92237Y16948D01*
X92230Y16974D01*
X92228Y17001D01*
X92187Y17127D01*
X92152Y17254D01*
X92135Y17289D01*
X92130Y17303D01*
X92119Y17322D01*
X92080Y17399D01*
X91801Y17883D01*
X91559Y18784D01*
X91559Y20751D01*
X100370Y20751D01*
X100488Y20766D01*
X100607Y20773D01*
X100645Y20785D01*
X100685Y20791D01*
X100796Y20834D01*
X100909Y20871D01*
X100943Y20893D01*
X100981Y20908D01*
X101077Y20977D01*
X101178Y21041D01*
X101206Y21071D01*
X101238Y21094D01*
X101314Y21186D01*
X101396Y21273D01*
X101415Y21308D01*
X101441Y21339D01*
X101492Y21447D01*
X101549Y21551D01*
X101559Y21591D01*
X101577Y21627D01*
X101599Y21744D01*
X101629Y21859D01*
X101633Y21919D01*
X101636Y21939D01*
X101635Y21960D01*
X101639Y22020D01*
X101639Y23211D01*
X102830Y23211D01*
X102948Y23226D01*
X103067Y23233D01*
X103105Y23246D01*
X103146Y23251D01*
X103256Y23295D01*
X103369Y23331D01*
X103404Y23353D01*
X103441Y23368D01*
X103537Y23438D01*
X103638Y23501D01*
X103666Y23531D01*
X103699Y23555D01*
X103775Y23646D01*
X103856Y23733D01*
X103876Y23768D01*
X103901Y23800D01*
X103952Y23907D01*
X104010Y24012D01*
X104020Y24051D01*
X104037Y24087D01*
X104059Y24204D01*
X104089Y24320D01*
X104093Y24380D01*
X104097Y24400D01*
X104095Y24420D01*
X104099Y24480D01*
X104099Y30791D01*
X108566Y30791D01*
X109467Y30549D01*
X110274Y30083D01*
X110946Y29411D01*
X111040Y29339D01*
X111129Y29260D01*
X111165Y29241D01*
X111197Y29216D01*
X111307Y29169D01*
X111412Y29115D01*
X111452Y29106D01*
X111489Y29090D01*
X111607Y29071D01*
X111723Y29045D01*
X111763Y29047D01*
X111803Y29040D01*
X111922Y29051D01*
X112041Y29055D01*
X112080Y29066D01*
X112120Y29070D01*
X112232Y29110D01*
X112346Y29143D01*
X112381Y29164D01*
X112419Y29178D01*
X112517Y29244D01*
X112620Y29305D01*
X112665Y29345D01*
X112682Y29356D01*
X112696Y29372D01*
X112741Y29411D01*
X113104Y29775D01*
X122697Y29775D01*
X122795Y29787D01*
X122894Y29790D01*
X122952Y29807D01*
X123012Y29815D01*
X123104Y29851D01*
X123199Y29879D01*
X123252Y29909D01*
X123308Y29932D01*
X123388Y29990D01*
X123473Y30040D01*
X123549Y30106D01*
X123565Y30118D01*
X123573Y30128D01*
X123594Y30146D01*
X125006Y31559D01*
X125091Y31668D01*
X125180Y31775D01*
X125189Y31794D01*
X125201Y31810D01*
X125256Y31937D01*
X125316Y32063D01*
X125319Y32083D01*
X125327Y32102D01*
X125349Y32240D01*
X125375Y32376D01*
X125374Y32396D01*
X125377Y32416D01*
X125364Y32555D01*
X125356Y32693D01*
X125349Y32712D01*
X125348Y32732D01*
X125300Y32864D01*
X125258Y32995D01*
X125247Y33013D01*
X125240Y33032D01*
X125162Y33147D01*
X125087Y33264D01*
X125073Y33278D01*
X125061Y33295D01*
X124957Y33387D01*
X124856Y33482D01*
X124838Y33492D01*
X124823Y33505D01*
X124699Y33569D01*
X124577Y33636D01*
X124558Y33641D01*
X124540Y33650D01*
X124404Y33680D01*
X124269Y33715D01*
X124241Y33717D01*
X124229Y33720D01*
X124209Y33719D01*
X124109Y33725D01*
X113104Y33725D01*
X112023Y34807D01*
X111928Y34880D01*
X111839Y34959D01*
X111803Y34977D01*
X111771Y35002D01*
X111662Y35049D01*
X111556Y35103D01*
X111517Y35112D01*
X111479Y35128D01*
X111362Y35147D01*
X111246Y35173D01*
X111205Y35172D01*
X111165Y35178D01*
X111047Y35167D01*
X110928Y35163D01*
X110889Y35152D01*
X110849Y35148D01*
X110736Y35108D01*
X110622Y35075D01*
X110588Y35054D01*
X110549Y35041D01*
X110451Y34974D01*
X110348Y34913D01*
X110303Y34874D01*
X110286Y34862D01*
X110273Y34847D01*
X110228Y34807D01*
X109146Y33725D01*
X94054Y33725D01*
X92575Y35204D01*
X92575Y45296D01*
X94054Y46775D01*
X109146Y46775D01*
X110228Y45693D01*
X110322Y45620D01*
X110411Y45541D01*
X110447Y45523D01*
X110479Y45498D01*
X110588Y45451D01*
X110694Y45397D01*
X110733Y45388D01*
X110771Y45372D01*
X110888Y45353D01*
X111004Y45327D01*
X111045Y45328D01*
X111085Y45322D01*
X111203Y45333D01*
X111322Y45337D01*
X111361Y45348D01*
X111401Y45352D01*
X111513Y45392D01*
X111628Y45425D01*
X111663Y45446D01*
X111701Y45459D01*
X111799Y45526D01*
X111902Y45587D01*
X111947Y45626D01*
X111964Y45638D01*
X111977Y45653D01*
X112023Y45693D01*
X113104Y46775D01*
X128196Y46775D01*
X129278Y45693D01*
X129372Y45620D01*
X129461Y45541D01*
X129497Y45523D01*
X129529Y45498D01*
X129638Y45451D01*
X129744Y45397D01*
X129783Y45388D01*
X129821Y45372D01*
X129938Y45353D01*
X130054Y45327D01*
X130095Y45328D01*
X130135Y45322D01*
X130253Y45333D01*
X130372Y45337D01*
X130411Y45348D01*
X130451Y45352D01*
X130563Y45392D01*
X130678Y45425D01*
X130713Y45446D01*
X130751Y45459D01*
X130849Y45526D01*
X130952Y45587D01*
X130997Y45626D01*
X131014Y45638D01*
X131027Y45653D01*
X131073Y45693D01*
X132154Y46775D01*
X147246Y46775D01*
X148328Y45693D01*
X148422Y45620D01*
X148511Y45541D01*
X148547Y45523D01*
X148579Y45498D01*
X148688Y45451D01*
X148794Y45397D01*
X148833Y45388D01*
X148871Y45372D01*
X148988Y45353D01*
X149104Y45327D01*
X149145Y45328D01*
X149185Y45322D01*
X149303Y45333D01*
X149422Y45337D01*
X149461Y45348D01*
X149501Y45352D01*
X149613Y45392D01*
X149728Y45425D01*
X149763Y45446D01*
X149801Y45459D01*
X149899Y45526D01*
X150002Y45587D01*
X150047Y45626D01*
X150064Y45638D01*
X150077Y45653D01*
X150123Y45693D01*
X151204Y46775D01*
X166296Y46775D01*
X167378Y45693D01*
X167472Y45620D01*
X167561Y45541D01*
X167597Y45523D01*
X167629Y45498D01*
X167738Y45451D01*
X167844Y45397D01*
X167883Y45388D01*
X167921Y45372D01*
X168038Y45353D01*
X168154Y45327D01*
X168195Y45328D01*
X168235Y45322D01*
X168353Y45333D01*
X168472Y45337D01*
X168511Y45348D01*
X168551Y45352D01*
X168663Y45392D01*
X168778Y45425D01*
X168813Y45446D01*
X168851Y45459D01*
X168949Y45526D01*
X169052Y45587D01*
X169097Y45626D01*
X169114Y45638D01*
X169127Y45653D01*
X169173Y45693D01*
X170254Y46775D01*
X185346Y46775D01*
X186825Y45296D01*
X186825Y35204D01*
X185346Y33725D01*
X173703Y33725D01*
X173605Y33713D01*
X173506Y33710D01*
X173448Y33693D01*
X173388Y33685D01*
X173296Y33649D01*
X173201Y33621D01*
X173148Y33591D01*
X173092Y33568D01*
X173012Y33510D01*
X172927Y33460D01*
X172851Y33394D01*
X172835Y33382D01*
X172827Y33372D01*
X172806Y33354D01*
X171394Y31941D01*
X171309Y31832D01*
X171220Y31725D01*
X171211Y31706D01*
X171199Y31690D01*
X171143Y31562D01*
X171084Y31437D01*
X171081Y31417D01*
X171073Y31398D01*
X171051Y31260D01*
X171025Y31124D01*
X171026Y31104D01*
X171023Y31084D01*
X171036Y30945D01*
X171044Y30807D01*
X171051Y30788D01*
X171052Y30768D01*
X171100Y30636D01*
X171142Y30505D01*
X171153Y30487D01*
X171160Y30468D01*
X171238Y30353D01*
X171313Y30236D01*
X171327Y30222D01*
X171339Y30205D01*
X171443Y30113D01*
X171544Y30018D01*
X171562Y30008D01*
X171577Y29995D01*
X171701Y29931D01*
X171823Y29864D01*
X171842Y29859D01*
X171860Y29850D01*
X171996Y29820D01*
X172131Y29785D01*
X172159Y29783D01*
X172171Y29780D01*
X172191Y29781D01*
X172291Y29775D01*
X185346Y29775D01*
X186825Y28296D01*
X186825Y18204D01*
X186282Y17661D01*
X186197Y17552D01*
X186108Y17445D01*
X186099Y17426D01*
X186087Y17410D01*
X186032Y17282D01*
X185973Y17157D01*
X185969Y17137D01*
X185961Y17118D01*
X185939Y16980D01*
X185913Y16844D01*
X185914Y16824D01*
X185911Y16804D01*
X185924Y16665D01*
X185933Y16527D01*
X185939Y16508D01*
X185941Y16488D01*
X185988Y16356D01*
X186031Y16225D01*
X186041Y16207D01*
X186048Y16188D01*
X186126Y16073D01*
X186201Y15956D01*
X186215Y15942D01*
X186227Y15925D01*
X186331Y15833D01*
X186432Y15738D01*
X186450Y15728D01*
X186465Y15715D01*
X186589Y15652D01*
X186711Y15584D01*
X186730Y15579D01*
X186748Y15570D01*
X186884Y15540D01*
X187019Y15505D01*
X187047Y15503D01*
X187059Y15500D01*
X187079Y15501D01*
X187179Y15495D01*
X198617Y15495D01*
X198715Y15507D01*
X198814Y15510D01*
X198872Y15527D01*
X198932Y15535D01*
X199024Y15571D01*
X199119Y15599D01*
X199172Y15629D01*
X199228Y15652D01*
X199308Y15710D01*
X199393Y15760D01*
X199469Y15826D01*
X199485Y15838D01*
X199493Y15848D01*
X199514Y15866D01*
X199944Y16297D01*
X200005Y16375D01*
X200073Y16447D01*
X200102Y16500D01*
X200139Y16548D01*
X200179Y16639D01*
X200227Y16726D01*
X200242Y16784D01*
X200266Y16840D01*
X200281Y16938D01*
X200306Y17034D01*
X200312Y17134D01*
X200316Y17154D01*
X200314Y17166D01*
X200316Y17194D01*
X200316Y26491D01*
X201238Y27412D01*
X201258Y27414D01*
X201277Y27421D01*
X201297Y27424D01*
X201426Y27475D01*
X201557Y27522D01*
X201574Y27533D01*
X201593Y27541D01*
X201705Y27622D01*
X201820Y27700D01*
X201834Y27716D01*
X201850Y27727D01*
X201939Y27835D01*
X202031Y27939D01*
X202040Y27957D01*
X202053Y27972D01*
X202112Y28098D01*
X202175Y28222D01*
X202180Y28242D01*
X202188Y28260D01*
X202215Y28397D01*
X202245Y28532D01*
X202244Y28553D01*
X202248Y28572D01*
X202240Y28711D01*
X202235Y28850D01*
X202230Y28870D01*
X202228Y28890D01*
X202186Y29022D01*
X202147Y29156D01*
X202137Y29173D01*
X202130Y29192D01*
X202056Y29310D01*
X201985Y29430D01*
X201967Y29451D01*
X201960Y29461D01*
X201945Y29475D01*
X201879Y29550D01*
X200875Y30554D01*
X200875Y45646D01*
X202354Y47125D01*
X212446Y47125D01*
X213925Y45646D01*
X213925Y30554D01*
X212320Y28949D01*
X212247Y28855D01*
X212168Y28766D01*
X212150Y28730D01*
X212125Y28698D01*
X212078Y28589D01*
X212024Y28483D01*
X212015Y28443D01*
X211999Y28406D01*
X211980Y28289D01*
X211954Y28173D01*
X211955Y28132D01*
X211949Y28092D01*
X211960Y27974D01*
X211964Y27855D01*
X211975Y27816D01*
X211979Y27776D01*
X212019Y27663D01*
X212052Y27549D01*
X212072Y27514D01*
X212086Y27476D01*
X212153Y27378D01*
X212213Y27275D01*
X212253Y27230D01*
X212265Y27213D01*
X212280Y27200D01*
X212320Y27154D01*
X212984Y26491D01*
X212984Y11430D01*
X212999Y11312D01*
X213006Y11193D01*
X213019Y11155D01*
X213024Y11114D01*
X213067Y11004D01*
X213104Y10891D01*
X213126Y10856D01*
X213141Y10819D01*
X213210Y10723D01*
X213274Y10622D01*
X213304Y10594D01*
X213327Y10561D01*
X213419Y10485D01*
X213506Y10404D01*
X213541Y10384D01*
X213572Y10359D01*
X213680Y10308D01*
X213784Y10250D01*
X213824Y10240D01*
X213860Y10223D01*
X213977Y10201D01*
X214092Y10171D01*
X214152Y10167D01*
X214172Y10163D01*
X214193Y10165D01*
X214253Y10161D01*
X216614Y10161D01*
X216739Y10177D01*
X216864Y10186D01*
X216896Y10196D01*
X216929Y10201D01*
X217046Y10247D01*
X217166Y10287D01*
X217194Y10305D01*
X217225Y10318D01*
X217327Y10391D01*
X217432Y10460D01*
X217455Y10485D01*
X217483Y10504D01*
X217563Y10601D01*
X217648Y10694D01*
X217664Y10723D01*
X217685Y10749D01*
X217739Y10863D01*
X217798Y10974D01*
X217807Y11007D01*
X217821Y11037D01*
X217844Y11160D01*
X217875Y11283D01*
X217874Y11316D01*
X217881Y11349D01*
X217873Y11475D01*
X217872Y11601D01*
X217862Y11649D01*
X217861Y11667D01*
X217854Y11687D01*
X217840Y11759D01*
X217800Y11907D01*
X217800Y16646D01*
X224015Y16646D01*
X224134Y16661D01*
X224252Y16669D01*
X224291Y16681D01*
X224331Y16686D01*
X224442Y16730D01*
X224555Y16767D01*
X224589Y16788D01*
X224627Y16803D01*
X224723Y16873D01*
X224823Y16937D01*
X224851Y16966D01*
X224884Y16990D01*
X224960Y17082D01*
X225041Y17168D01*
X225061Y17204D01*
X225087Y17235D01*
X225137Y17343D01*
X225147Y17359D01*
X225157Y17342D01*
X225172Y17304D01*
X225242Y17208D01*
X225306Y17107D01*
X225335Y17080D01*
X225359Y17047D01*
X225451Y16971D01*
X225538Y16889D01*
X225573Y16870D01*
X225604Y16844D01*
X225712Y16793D01*
X225816Y16736D01*
X225855Y16726D01*
X225892Y16709D01*
X226009Y16686D01*
X226124Y16656D01*
X226184Y16653D01*
X226204Y16649D01*
X226225Y16650D01*
X226285Y16646D01*
X232500Y16646D01*
X232500Y11907D01*
X232460Y11759D01*
X232443Y11634D01*
X232419Y11510D01*
X232421Y11477D01*
X232417Y11444D01*
X232431Y11318D01*
X232439Y11193D01*
X232449Y11161D01*
X232453Y11128D01*
X232498Y11010D01*
X232537Y10891D01*
X232555Y10862D01*
X232567Y10831D01*
X232640Y10728D01*
X232707Y10622D01*
X232732Y10599D01*
X232751Y10571D01*
X232847Y10490D01*
X232939Y10404D01*
X232968Y10388D01*
X232994Y10366D01*
X233107Y10311D01*
X233217Y10250D01*
X233250Y10242D01*
X233280Y10227D01*
X233404Y10202D01*
X233525Y10171D01*
X233574Y10168D01*
X233592Y10164D01*
X233614Y10165D01*
X233686Y10161D01*
X300531Y10161D01*
X300649Y10176D01*
X300768Y10183D01*
X300806Y10196D01*
X300847Y10201D01*
X300957Y10244D01*
X301070Y10281D01*
X301105Y10303D01*
X301142Y10318D01*
X301238Y10387D01*
X301339Y10451D01*
X301367Y10481D01*
X301400Y10504D01*
X301476Y10596D01*
X301557Y10683D01*
X301577Y10718D01*
X301602Y10749D01*
X301653Y10857D01*
X301711Y10961D01*
X301721Y11001D01*
X301738Y11037D01*
X301760Y11154D01*
X301790Y11269D01*
X301794Y11329D01*
X301798Y11349D01*
X301796Y11370D01*
X301800Y11430D01*
X301800Y13746D01*
X310015Y13746D01*
X310134Y13761D01*
X310252Y13769D01*
X310291Y13781D01*
X310331Y13786D01*
X310442Y13830D01*
X310555Y13867D01*
X310589Y13888D01*
X310627Y13903D01*
X310723Y13973D01*
X310823Y14037D01*
X310851Y14066D01*
X310884Y14090D01*
X310960Y14182D01*
X311041Y14268D01*
X311061Y14304D01*
X311087Y14335D01*
X311137Y14443D01*
X311147Y14459D01*
X311157Y14442D01*
X311172Y14404D01*
X311242Y14308D01*
X311306Y14207D01*
X311335Y14180D01*
X311359Y14147D01*
X311451Y14071D01*
X311538Y13989D01*
X311573Y13970D01*
X311604Y13944D01*
X311712Y13893D01*
X311816Y13836D01*
X311855Y13826D01*
X311892Y13809D01*
X312009Y13786D01*
X312124Y13756D01*
X312184Y13753D01*
X312204Y13749D01*
X312225Y13750D01*
X312285Y13746D01*
X320500Y13746D01*
X320500Y11430D01*
X320515Y11312D01*
X320522Y11193D01*
X320534Y11155D01*
X320540Y11114D01*
X320583Y11004D01*
X320620Y10891D01*
X320642Y10856D01*
X320657Y10819D01*
X320726Y10723D01*
X320790Y10622D01*
X320820Y10594D01*
X320843Y10561D01*
X320935Y10485D01*
X321022Y10404D01*
X321057Y10384D01*
X321088Y10359D01*
X321196Y10308D01*
X321300Y10250D01*
X321340Y10240D01*
X321376Y10223D01*
X321493Y10201D01*
X321608Y10171D01*
X321668Y10167D01*
X321688Y10163D01*
X321709Y10165D01*
X321769Y10161D01*
X338956Y10161D01*
X339074Y10176D01*
X339193Y10183D01*
X339231Y10196D01*
X339272Y10201D01*
X339382Y10244D01*
X339495Y10281D01*
X339530Y10303D01*
X339567Y10318D01*
X339663Y10387D01*
X339764Y10451D01*
X339792Y10481D01*
X339825Y10504D01*
X339901Y10596D01*
X339982Y10683D01*
X340002Y10718D01*
X340027Y10749D01*
X340078Y10857D01*
X340136Y10961D01*
X340146Y11001D01*
X340163Y11037D01*
X340185Y11154D01*
X340215Y11269D01*
X340219Y11329D01*
X340223Y11349D01*
X340221Y11370D01*
X340225Y11430D01*
X340225Y21946D01*
X341704Y23425D01*
X351297Y23425D01*
X351395Y23437D01*
X351494Y23440D01*
X351552Y23457D01*
X351612Y23465D01*
X351704Y23501D01*
X351799Y23529D01*
X351852Y23559D01*
X351908Y23582D01*
X351988Y23640D01*
X352073Y23690D01*
X352149Y23756D01*
X352165Y23768D01*
X352173Y23778D01*
X352194Y23796D01*
X353606Y25209D01*
X353691Y25318D01*
X353780Y25425D01*
X353789Y25444D01*
X353801Y25460D01*
X353856Y25587D01*
X353916Y25713D01*
X353919Y25733D01*
X353927Y25752D01*
X353949Y25890D01*
X353975Y26026D01*
X353974Y26046D01*
X353977Y26066D01*
X353964Y26205D01*
X353956Y26343D01*
X353949Y26362D01*
X353948Y26382D01*
X353900Y26514D01*
X353858Y26645D01*
X353847Y26663D01*
X353840Y26682D01*
X353762Y26797D01*
X353687Y26914D01*
X353673Y26928D01*
X353661Y26945D01*
X353557Y27037D01*
X353456Y27132D01*
X353438Y27142D01*
X353423Y27155D01*
X353299Y27219D01*
X353177Y27286D01*
X353158Y27291D01*
X353140Y27300D01*
X353004Y27330D01*
X352869Y27365D01*
X352841Y27367D01*
X352829Y27370D01*
X352809Y27369D01*
X352709Y27375D01*
X341704Y27375D01*
X340034Y29046D01*
X339987Y29110D01*
X339909Y29226D01*
X339893Y29239D01*
X339882Y29255D01*
X339774Y29344D01*
X339670Y29436D01*
X339652Y29445D01*
X339637Y29458D01*
X339511Y29517D01*
X339387Y29581D01*
X339367Y29585D01*
X339349Y29594D01*
X339212Y29620D01*
X339077Y29650D01*
X339056Y29650D01*
X339037Y29653D01*
X338898Y29645D01*
X338759Y29641D01*
X338739Y29635D01*
X338719Y29634D01*
X338587Y29591D01*
X338453Y29552D01*
X338436Y29542D01*
X338417Y29536D01*
X338299Y29461D01*
X338179Y29391D01*
X338158Y29372D01*
X338148Y29365D01*
X338134Y29351D01*
X338059Y29284D01*
X337641Y28866D01*
X322759Y28866D01*
X321650Y29975D01*
X321541Y30060D01*
X321434Y30149D01*
X321415Y30158D01*
X321399Y30170D01*
X321272Y30225D01*
X321146Y30285D01*
X321126Y30288D01*
X321107Y30297D01*
X320969Y30318D01*
X320833Y30344D01*
X320813Y30343D01*
X320793Y30346D01*
X320654Y30333D01*
X320516Y30325D01*
X320497Y30318D01*
X320477Y30317D01*
X320345Y30269D01*
X320214Y30227D01*
X320196Y30216D01*
X320177Y30209D01*
X320062Y30131D01*
X319945Y30056D01*
X319931Y30042D01*
X319914Y30030D01*
X319822Y29926D01*
X319727Y29825D01*
X319717Y29807D01*
X319704Y29792D01*
X319640Y29668D01*
X319573Y29546D01*
X319568Y29527D01*
X319559Y29509D01*
X319529Y29373D01*
X319494Y29238D01*
X319493Y29218D01*
X318591Y28316D01*
X303709Y28316D01*
X302816Y29209D01*
X302816Y30586D01*
X302801Y30704D01*
X302794Y30823D01*
X302781Y30861D01*
X302776Y30902D01*
X302733Y31012D01*
X302696Y31125D01*
X302674Y31160D01*
X302659Y31197D01*
X302590Y31293D01*
X302526Y31394D01*
X302496Y31422D01*
X302473Y31455D01*
X302381Y31530D01*
X302294Y31612D01*
X302259Y31632D01*
X302228Y31657D01*
X302120Y31708D01*
X302016Y31766D01*
X301976Y31776D01*
X301940Y31793D01*
X301823Y31815D01*
X301708Y31845D01*
X301648Y31849D01*
X301628Y31853D01*
X301607Y31851D01*
X301547Y31855D01*
X249942Y31855D01*
X247934Y33864D01*
X223641Y58156D01*
X223532Y58241D01*
X223425Y58330D01*
X223406Y58339D01*
X223390Y58351D01*
X223262Y58407D01*
X223137Y58466D01*
X223117Y58469D01*
X223098Y58477D01*
X222960Y58499D01*
X222824Y58525D01*
X222804Y58524D01*
X222784Y58527D01*
X222645Y58514D01*
X222507Y58506D01*
X222488Y58499D01*
X222468Y58498D01*
X222336Y58450D01*
X222205Y58408D01*
X222187Y58397D01*
X222168Y58390D01*
X222053Y58312D01*
X221936Y58237D01*
X221922Y58223D01*
X221905Y58211D01*
X221813Y58107D01*
X221718Y58006D01*
X221708Y57988D01*
X221695Y57973D01*
X221631Y57849D01*
X221564Y57727D01*
X221559Y57708D01*
X221550Y57690D01*
X221520Y57554D01*
X221485Y57419D01*
X221483Y57391D01*
X221480Y57379D01*
X221481Y57359D01*
X221475Y57259D01*
X221475Y56053D01*
X221487Y55955D01*
X221490Y55856D01*
X221507Y55798D01*
X221515Y55738D01*
X221551Y55646D01*
X221579Y55551D01*
X221609Y55498D01*
X221632Y55442D01*
X221690Y55362D01*
X221740Y55277D01*
X221806Y55201D01*
X221818Y55185D01*
X221828Y55177D01*
X221846Y55156D01*
X227195Y49808D01*
X227195Y48394D01*
X227210Y48276D01*
X227217Y48157D01*
X227230Y48119D01*
X227235Y48078D01*
X227278Y47968D01*
X227315Y47855D01*
X227337Y47820D01*
X227352Y47783D01*
X227421Y47687D01*
X227485Y47586D01*
X227515Y47558D01*
X227538Y47525D01*
X227630Y47449D01*
X227717Y47368D01*
X227752Y47348D01*
X227783Y47323D01*
X227891Y47272D01*
X227995Y47214D01*
X228035Y47204D01*
X228071Y47187D01*
X228188Y47165D01*
X228303Y47135D01*
X228363Y47131D01*
X228383Y47127D01*
X228404Y47129D01*
X228464Y47125D01*
X229446Y47125D01*
X230925Y45646D01*
X230925Y30554D01*
X230624Y30254D01*
X230547Y30154D01*
X230465Y30059D01*
X230450Y30029D01*
X230429Y30002D01*
X230379Y29887D01*
X230323Y29774D01*
X230316Y29742D01*
X230303Y29711D01*
X230283Y29586D01*
X230257Y29463D01*
X230258Y29430D01*
X230253Y29396D01*
X230265Y29271D01*
X230270Y29146D01*
X230280Y29113D01*
X230283Y29080D01*
X230325Y28962D01*
X230362Y28841D01*
X230379Y28812D01*
X230390Y28781D01*
X230461Y28677D01*
X230526Y28569D01*
X230550Y28545D01*
X230569Y28517D01*
X230663Y28434D01*
X230753Y28346D01*
X230794Y28319D01*
X230807Y28307D01*
X230827Y28297D01*
X230887Y28257D01*
X231519Y27892D01*
X231992Y27419D01*
X232327Y26840D01*
X232500Y26193D01*
X232500Y21454D01*
X226285Y21454D01*
X226166Y21439D01*
X226048Y21431D01*
X226009Y21419D01*
X225969Y21414D01*
X225858Y21370D01*
X225745Y21333D01*
X225711Y21312D01*
X225673Y21297D01*
X225577Y21227D01*
X225477Y21163D01*
X225449Y21134D01*
X225416Y21110D01*
X225340Y21018D01*
X225259Y20932D01*
X225239Y20896D01*
X225213Y20865D01*
X225163Y20757D01*
X225153Y20741D01*
X225143Y20758D01*
X225128Y20796D01*
X225058Y20892D01*
X224994Y20993D01*
X224965Y21020D01*
X224941Y21053D01*
X224849Y21129D01*
X224762Y21211D01*
X224727Y21230D01*
X224696Y21256D01*
X224588Y21307D01*
X224484Y21364D01*
X224445Y21374D01*
X224408Y21391D01*
X224291Y21414D01*
X224176Y21444D01*
X224116Y21447D01*
X224096Y21451D01*
X224075Y21450D01*
X224015Y21454D01*
X217800Y21454D01*
X217800Y26193D01*
X217973Y26840D01*
X218308Y27419D01*
X218762Y27873D01*
X218835Y27967D01*
X218913Y28056D01*
X218932Y28092D01*
X218957Y28124D01*
X219004Y28234D01*
X219058Y28339D01*
X219067Y28379D01*
X219083Y28416D01*
X219102Y28534D01*
X219128Y28650D01*
X219126Y28690D01*
X219133Y28730D01*
X219122Y28849D01*
X219118Y28968D01*
X219107Y29006D01*
X219103Y29047D01*
X219063Y29159D01*
X219030Y29273D01*
X219009Y29308D01*
X218995Y29346D01*
X218928Y29445D01*
X218868Y29547D01*
X218828Y29592D01*
X218817Y29609D01*
X218801Y29623D01*
X218762Y29668D01*
X217875Y30554D01*
X217875Y45646D01*
X219505Y47276D01*
X219520Y47282D01*
X219632Y47363D01*
X219747Y47441D01*
X219761Y47457D01*
X219777Y47468D01*
X219866Y47576D01*
X219958Y47680D01*
X219967Y47698D01*
X219980Y47713D01*
X220039Y47839D01*
X220103Y47963D01*
X220107Y47983D01*
X220116Y48001D01*
X220142Y48137D01*
X220172Y48273D01*
X220172Y48294D01*
X220175Y48313D01*
X220167Y48452D01*
X220163Y48591D01*
X220157Y48611D01*
X220156Y48631D01*
X220113Y48763D01*
X220074Y48897D01*
X220064Y48914D01*
X220058Y48933D01*
X219983Y49051D01*
X219913Y49171D01*
X219894Y49192D01*
X219887Y49202D01*
X219872Y49216D01*
X219806Y49291D01*
X216844Y52254D01*
X216766Y52314D01*
X216694Y52382D01*
X216641Y52411D01*
X216593Y52448D01*
X216502Y52488D01*
X216415Y52536D01*
X216357Y52551D01*
X216301Y52575D01*
X216203Y52590D01*
X216107Y52615D01*
X216007Y52621D01*
X215987Y52625D01*
X215975Y52623D01*
X215947Y52625D01*
X197318Y52625D01*
X196425Y53518D01*
X196425Y60782D01*
X197318Y61675D01*
X217059Y61675D01*
X217196Y61692D01*
X217335Y61705D01*
X217354Y61712D01*
X217374Y61715D01*
X217503Y61766D01*
X217634Y61813D01*
X217651Y61824D01*
X217670Y61832D01*
X217782Y61913D01*
X217897Y61991D01*
X217911Y62007D01*
X217927Y62018D01*
X218016Y62126D01*
X218108Y62230D01*
X218117Y62248D01*
X218130Y62263D01*
X218189Y62389D01*
X218253Y62513D01*
X218257Y62533D01*
X218266Y62551D01*
X218292Y62687D01*
X218322Y62823D01*
X218322Y62844D01*
X218325Y62863D01*
X218317Y63002D01*
X218313Y63141D01*
X218307Y63161D01*
X218306Y63181D01*
X218263Y63313D01*
X218224Y63447D01*
X218214Y63464D01*
X218208Y63483D01*
X218133Y63601D01*
X218063Y63721D01*
X218044Y63742D01*
X218037Y63752D01*
X218023Y63766D01*
X217956Y63841D01*
X216844Y64954D01*
X216766Y65014D01*
X216694Y65082D01*
X216641Y65111D01*
X216593Y65148D01*
X216502Y65188D01*
X216415Y65236D01*
X216357Y65251D01*
X216301Y65275D01*
X216203Y65290D01*
X216107Y65315D01*
X216007Y65321D01*
X215987Y65325D01*
X215975Y65323D01*
X215947Y65325D01*
X197318Y65325D01*
X196425Y66218D01*
X196425Y70029D01*
X196408Y70166D01*
X196395Y70305D01*
X196388Y70324D01*
X196385Y70344D01*
X196334Y70473D01*
X196287Y70604D01*
X196276Y70621D01*
X196268Y70640D01*
X196187Y70752D01*
X196109Y70867D01*
X196093Y70881D01*
X196082Y70897D01*
X195974Y70986D01*
X195870Y71078D01*
X195852Y71087D01*
X195837Y71100D01*
X195711Y71159D01*
X195587Y71223D01*
X195567Y71227D01*
X195549Y71236D01*
X195413Y71262D01*
X195277Y71292D01*
X195256Y71292D01*
X195237Y71295D01*
X195098Y71287D01*
X194959Y71283D01*
X194939Y71277D01*
X194919Y71276D01*
X194787Y71233D01*
X194653Y71194D01*
X194636Y71184D01*
X194617Y71178D01*
X194499Y71103D01*
X194379Y71033D01*
X194358Y71014D01*
X194348Y71007D01*
X194334Y70992D01*
X194259Y70926D01*
X191469Y68137D01*
X191409Y68059D01*
X191341Y67987D01*
X191312Y67934D01*
X191275Y67886D01*
X191235Y67795D01*
X191187Y67708D01*
X191172Y67650D01*
X191148Y67594D01*
X191133Y67496D01*
X191108Y67400D01*
X191102Y67300D01*
X191098Y67280D01*
X191100Y67268D01*
X191098Y67240D01*
X191098Y60726D01*
X187824Y57452D01*
X173576Y57452D01*
X171567Y59461D01*
X170178Y60851D01*
X170089Y60920D01*
X170006Y60995D01*
X169964Y61017D01*
X169927Y61045D01*
X169823Y61090D01*
X169724Y61142D01*
X169678Y61153D01*
X169635Y61172D01*
X169524Y61189D01*
X169414Y61215D01*
X169367Y61214D01*
X169321Y61222D01*
X169209Y61211D01*
X169096Y61209D01*
X169051Y61196D01*
X169004Y61192D01*
X168898Y61154D01*
X168790Y61124D01*
X168725Y61092D01*
X168705Y61084D01*
X168690Y61074D01*
X168646Y61052D01*
X167990Y60673D01*
X167343Y60500D01*
X164604Y60500D01*
X164604Y68715D01*
X164589Y68834D01*
X164581Y68952D01*
X164569Y68991D01*
X164564Y69031D01*
X164520Y69142D01*
X164483Y69255D01*
X164462Y69289D01*
X164447Y69327D01*
X164377Y69423D01*
X164313Y69523D01*
X164284Y69551D01*
X164260Y69584D01*
X164168Y69660D01*
X164082Y69741D01*
X164046Y69761D01*
X164015Y69787D01*
X163907Y69837D01*
X163803Y69895D01*
X163764Y69905D01*
X163727Y69922D01*
X163611Y69945D01*
X163495Y69974D01*
X163435Y69978D01*
X163415Y69982D01*
X163395Y69981D01*
X163335Y69985D01*
X162335Y69985D01*
X162335Y70985D01*
X162320Y71103D01*
X162312Y71221D01*
X162300Y71260D01*
X162295Y71300D01*
X162251Y71411D01*
X162214Y71524D01*
X162193Y71558D01*
X162178Y71596D01*
X162108Y71692D01*
X162044Y71793D01*
X162015Y71820D01*
X161991Y71853D01*
X161899Y71929D01*
X161812Y72011D01*
X161777Y72030D01*
X161746Y72056D01*
X161638Y72107D01*
X161534Y72164D01*
X161495Y72174D01*
X161458Y72191D01*
X161341Y72214D01*
X161226Y72244D01*
X161166Y72247D01*
X161146Y72251D01*
X161125Y72250D01*
X161065Y72254D01*
X154850Y72254D01*
X154850Y76202D01*
X154838Y76301D01*
X154835Y76400D01*
X154818Y76458D01*
X154810Y76518D01*
X154774Y76610D01*
X154746Y76705D01*
X154716Y76757D01*
X154693Y76814D01*
X154635Y76894D01*
X154585Y76979D01*
X154519Y77054D01*
X154507Y77071D01*
X154497Y77079D01*
X154479Y77100D01*
X145934Y85645D01*
X145856Y85705D01*
X145783Y85773D01*
X145730Y85802D01*
X145683Y85839D01*
X145592Y85879D01*
X145505Y85927D01*
X145446Y85942D01*
X145391Y85966D01*
X145293Y85981D01*
X145197Y86006D01*
X145097Y86012D01*
X145077Y86016D01*
X145064Y86014D01*
X145036Y86016D01*
X132259Y86016D01*
X131338Y86938D01*
X131336Y86958D01*
X131329Y86977D01*
X131326Y86997D01*
X131275Y87126D01*
X131228Y87257D01*
X131217Y87274D01*
X131209Y87293D01*
X131128Y87405D01*
X131050Y87520D01*
X131034Y87534D01*
X131023Y87550D01*
X130915Y87639D01*
X130811Y87731D01*
X130793Y87740D01*
X130778Y87753D01*
X130652Y87812D01*
X130528Y87875D01*
X130508Y87880D01*
X130490Y87888D01*
X130353Y87915D01*
X130218Y87945D01*
X130197Y87944D01*
X130178Y87948D01*
X130039Y87940D01*
X129900Y87935D01*
X129880Y87930D01*
X129860Y87928D01*
X129728Y87886D01*
X129594Y87847D01*
X129577Y87837D01*
X129558Y87830D01*
X129440Y87756D01*
X129320Y87685D01*
X129299Y87667D01*
X129289Y87660D01*
X129275Y87645D01*
X129200Y87579D01*
X128196Y86575D01*
X113104Y86575D01*
X111291Y88388D01*
X111182Y88473D01*
X111075Y88562D01*
X111056Y88571D01*
X111040Y88583D01*
X110912Y88638D01*
X110787Y88697D01*
X110767Y88701D01*
X110748Y88709D01*
X110610Y88731D01*
X110474Y88757D01*
X110454Y88756D01*
X110434Y88759D01*
X110295Y88746D01*
X110157Y88737D01*
X110138Y88731D01*
X110118Y88729D01*
X109986Y88682D01*
X109855Y88639D01*
X109837Y88629D01*
X109818Y88622D01*
X109703Y88544D01*
X109586Y88469D01*
X109572Y88455D01*
X109555Y88443D01*
X109463Y88339D01*
X109368Y88238D01*
X109358Y88220D01*
X109345Y88205D01*
X109281Y88081D01*
X109214Y87959D01*
X109209Y87940D01*
X109200Y87922D01*
X109170Y87786D01*
X109135Y87651D01*
X109133Y87623D01*
X109130Y87611D01*
X109131Y87591D01*
X109125Y87491D01*
X109125Y84468D01*
X108232Y83575D01*
X94968Y83575D01*
X94075Y84468D01*
X94075Y97732D01*
X94968Y98625D01*
X108232Y98625D01*
X109459Y97398D01*
X109568Y97313D01*
X109675Y97224D01*
X109694Y97215D01*
X109710Y97203D01*
X109838Y97147D01*
X109963Y97088D01*
X109983Y97085D01*
X110002Y97076D01*
X110140Y97055D01*
X110276Y97029D01*
X110296Y97030D01*
X110316Y97027D01*
X110455Y97040D01*
X110593Y97048D01*
X110612Y97055D01*
X110632Y97056D01*
X110764Y97104D01*
X110895Y97146D01*
X110913Y97157D01*
X110932Y97164D01*
X111047Y97242D01*
X111164Y97317D01*
X111178Y97331D01*
X111195Y97343D01*
X111287Y97447D01*
X111382Y97548D01*
X111392Y97566D01*
X111405Y97581D01*
X111469Y97705D01*
X111536Y97827D01*
X111541Y97846D01*
X111550Y97864D01*
X111580Y98000D01*
X111615Y98135D01*
X111615Y98136D01*
X113104Y99625D01*
X128196Y99625D01*
X129801Y98020D01*
X129895Y97947D01*
X129984Y97868D01*
X130020Y97850D01*
X130052Y97825D01*
X130161Y97778D01*
X130267Y97724D01*
X130307Y97715D01*
X130344Y97699D01*
X130462Y97680D01*
X130577Y97654D01*
X130618Y97655D01*
X130658Y97649D01*
X130776Y97660D01*
X130895Y97664D01*
X130934Y97675D01*
X130974Y97679D01*
X131086Y97719D01*
X131201Y97752D01*
X131236Y97772D01*
X131274Y97786D01*
X131372Y97853D01*
X131475Y97914D01*
X131520Y97953D01*
X131537Y97965D01*
X131550Y97980D01*
X131596Y98020D01*
X132259Y98684D01*
X147141Y98684D01*
X147712Y98112D01*
X147812Y98035D01*
X147907Y97953D01*
X147937Y97938D01*
X147964Y97917D01*
X148079Y97867D01*
X148192Y97811D01*
X148225Y97804D01*
X148256Y97791D01*
X148380Y97771D01*
X148503Y97745D01*
X148536Y97746D01*
X148570Y97741D01*
X148695Y97753D01*
X148820Y97758D01*
X148853Y97767D01*
X148886Y97771D01*
X149005Y97813D01*
X149125Y97849D01*
X149154Y97867D01*
X149186Y97878D01*
X149290Y97949D01*
X149397Y98014D01*
X149421Y98038D01*
X149449Y98057D01*
X149532Y98151D01*
X149620Y98241D01*
X149647Y98282D01*
X149659Y98295D01*
X149669Y98314D01*
X149709Y98375D01*
X149908Y98719D01*
X150381Y99192D01*
X150960Y99527D01*
X151607Y99700D01*
X156346Y99700D01*
X156346Y93485D01*
X156361Y93366D01*
X156369Y93248D01*
X156381Y93209D01*
X156386Y93169D01*
X156430Y93058D01*
X156467Y92945D01*
X156488Y92911D01*
X156503Y92873D01*
X156573Y92777D01*
X156637Y92677D01*
X156666Y92649D01*
X156690Y92616D01*
X156782Y92540D01*
X156868Y92459D01*
X156904Y92439D01*
X156935Y92413D01*
X157043Y92363D01*
X157059Y92353D01*
X157042Y92343D01*
X157004Y92328D01*
X156908Y92258D01*
X156807Y92194D01*
X156780Y92165D01*
X156747Y92141D01*
X156671Y92049D01*
X156589Y91962D01*
X156570Y91927D01*
X156544Y91896D01*
X156493Y91788D01*
X156436Y91684D01*
X156426Y91645D01*
X156409Y91608D01*
X156386Y91491D01*
X156356Y91376D01*
X156353Y91316D01*
X156349Y91296D01*
X156350Y91275D01*
X156346Y91215D01*
X156346Y84137D01*
X156340Y84124D01*
X156314Y83987D01*
X156283Y83852D01*
X156284Y83831D01*
X156280Y83812D01*
X156289Y83673D01*
X156293Y83534D01*
X156299Y83514D01*
X156300Y83494D01*
X156343Y83362D01*
X156382Y83228D01*
X156392Y83211D01*
X156398Y83192D01*
X156472Y83074D01*
X156543Y82954D01*
X156562Y82933D01*
X156568Y82923D01*
X156583Y82909D01*
X156650Y82833D01*
X156864Y82619D01*
X156942Y82559D01*
X157014Y82491D01*
X157067Y82462D01*
X157115Y82425D01*
X157206Y82385D01*
X157292Y82337D01*
X157351Y82322D01*
X157407Y82298D01*
X157505Y82283D01*
X157600Y82258D01*
X157701Y82252D01*
X157721Y82248D01*
X157733Y82250D01*
X157761Y82248D01*
X169324Y82248D01*
X173426Y78145D01*
X173520Y78072D01*
X173610Y77994D01*
X173646Y77975D01*
X173677Y77951D01*
X173787Y77903D01*
X173893Y77849D01*
X173932Y77840D01*
X173969Y77824D01*
X174087Y77805D01*
X174203Y77779D01*
X174243Y77781D01*
X174283Y77774D01*
X174402Y77786D01*
X174521Y77789D01*
X174560Y77800D01*
X174600Y77804D01*
X174712Y77844D01*
X174826Y77878D01*
X174861Y77898D01*
X174899Y77912D01*
X174998Y77979D01*
X175100Y78039D01*
X175146Y78079D01*
X175162Y78090D01*
X175176Y78106D01*
X175221Y78145D01*
X175259Y78184D01*
X176636Y78184D01*
X176754Y78199D01*
X176873Y78206D01*
X176911Y78219D01*
X176952Y78224D01*
X177062Y78267D01*
X177175Y78304D01*
X177210Y78326D01*
X177247Y78341D01*
X177343Y78410D01*
X177444Y78474D01*
X177472Y78504D01*
X177505Y78527D01*
X177581Y78619D01*
X177662Y78706D01*
X177682Y78741D01*
X177707Y78772D01*
X177758Y78880D01*
X177816Y78984D01*
X177826Y79024D01*
X177843Y79060D01*
X177865Y79177D01*
X177895Y79292D01*
X177899Y79352D01*
X177903Y79372D01*
X177901Y79393D01*
X177905Y79453D01*
X177905Y85306D01*
X177890Y85424D01*
X177883Y85543D01*
X177870Y85581D01*
X177865Y85622D01*
X177822Y85732D01*
X177785Y85845D01*
X177763Y85880D01*
X177748Y85917D01*
X177679Y86013D01*
X177615Y86114D01*
X177585Y86142D01*
X177562Y86175D01*
X177470Y86251D01*
X177383Y86332D01*
X177348Y86352D01*
X177317Y86377D01*
X177209Y86428D01*
X177105Y86486D01*
X177065Y86496D01*
X177029Y86513D01*
X176912Y86535D01*
X176797Y86565D01*
X176737Y86569D01*
X176717Y86573D01*
X176696Y86571D01*
X176636Y86575D01*
X170254Y86575D01*
X169954Y86876D01*
X169854Y86953D01*
X169759Y87035D01*
X169729Y87050D01*
X169702Y87071D01*
X169587Y87121D01*
X169474Y87177D01*
X169442Y87184D01*
X169411Y87197D01*
X169286Y87217D01*
X169163Y87243D01*
X169130Y87242D01*
X169096Y87247D01*
X168971Y87235D01*
X168846Y87230D01*
X168813Y87220D01*
X168780Y87217D01*
X168662Y87175D01*
X168541Y87138D01*
X168512Y87121D01*
X168481Y87110D01*
X168377Y87039D01*
X168269Y86974D01*
X168245Y86950D01*
X168217Y86931D01*
X168134Y86837D01*
X168046Y86747D01*
X168019Y86706D01*
X168007Y86693D01*
X167997Y86673D01*
X167957Y86613D01*
X167592Y85981D01*
X167119Y85508D01*
X166540Y85173D01*
X165893Y85000D01*
X161154Y85000D01*
X161154Y91215D01*
X161139Y91334D01*
X161131Y91452D01*
X161119Y91491D01*
X161114Y91531D01*
X161070Y91642D01*
X161033Y91755D01*
X161012Y91789D01*
X160997Y91827D01*
X160927Y91923D01*
X160863Y92023D01*
X160834Y92051D01*
X160810Y92084D01*
X160718Y92160D01*
X160632Y92241D01*
X160596Y92261D01*
X160565Y92287D01*
X160457Y92337D01*
X160441Y92347D01*
X160458Y92357D01*
X160496Y92372D01*
X160592Y92442D01*
X160693Y92506D01*
X160720Y92535D01*
X160753Y92559D01*
X160829Y92651D01*
X160911Y92738D01*
X160930Y92773D01*
X160956Y92804D01*
X161007Y92912D01*
X161064Y93016D01*
X161074Y93055D01*
X161091Y93092D01*
X161114Y93209D01*
X161144Y93324D01*
X161147Y93384D01*
X161151Y93404D01*
X161150Y93425D01*
X161154Y93485D01*
X161154Y99700D01*
X165893Y99700D01*
X166540Y99527D01*
X167119Y99192D01*
X167573Y98738D01*
X167667Y98665D01*
X167756Y98587D01*
X167792Y98568D01*
X167824Y98543D01*
X167934Y98496D01*
X168039Y98442D01*
X168079Y98433D01*
X168116Y98417D01*
X168234Y98398D01*
X168350Y98372D01*
X168390Y98374D01*
X168430Y98367D01*
X168549Y98378D01*
X168668Y98382D01*
X168706Y98393D01*
X168747Y98397D01*
X168859Y98437D01*
X168973Y98470D01*
X169008Y98491D01*
X169046Y98505D01*
X169145Y98572D01*
X169247Y98632D01*
X169292Y98672D01*
X169309Y98683D01*
X169323Y98699D01*
X169368Y98738D01*
X170254Y99625D01*
X185346Y99625D01*
X186825Y98146D01*
X186825Y97164D01*
X186840Y97046D01*
X186847Y96927D01*
X186860Y96889D01*
X186865Y96848D01*
X186908Y96738D01*
X186945Y96625D01*
X186967Y96590D01*
X186982Y96553D01*
X187051Y96457D01*
X187115Y96356D01*
X187145Y96328D01*
X187168Y96295D01*
X187260Y96219D01*
X187347Y96138D01*
X187382Y96118D01*
X187413Y96093D01*
X187521Y96042D01*
X187625Y95984D01*
X187665Y95974D01*
X187701Y95957D01*
X187818Y95935D01*
X187933Y95905D01*
X187993Y95901D01*
X188013Y95897D01*
X188034Y95899D01*
X188094Y95895D01*
X195156Y95895D01*
X195274Y95910D01*
X195393Y95917D01*
X195431Y95930D01*
X195472Y95935D01*
X195582Y95978D01*
X195695Y96015D01*
X195730Y96037D01*
X195767Y96052D01*
X195863Y96121D01*
X195964Y96185D01*
X195992Y96215D01*
X196025Y96238D01*
X196101Y96330D01*
X196182Y96417D01*
X196202Y96452D01*
X196227Y96483D01*
X196278Y96591D01*
X196336Y96695D01*
X196346Y96735D01*
X196363Y96771D01*
X196385Y96888D01*
X196415Y97003D01*
X196419Y97063D01*
X196423Y97083D01*
X196421Y97104D01*
X196425Y97164D01*
X196425Y98882D01*
X197318Y99775D01*
X220582Y99775D01*
X221475Y98882D01*
X221475Y91618D01*
X220582Y90725D01*
X208903Y90725D01*
X208805Y90713D01*
X208706Y90710D01*
X208648Y90693D01*
X208588Y90685D01*
X208496Y90649D01*
X208401Y90621D01*
X208348Y90591D01*
X208292Y90568D01*
X208212Y90510D01*
X208127Y90460D01*
X208051Y90394D01*
X208035Y90382D01*
X208027Y90372D01*
X208006Y90354D01*
X207958Y90305D01*
X188094Y90305D01*
X187976Y90290D01*
X187857Y90283D01*
X187819Y90270D01*
X187778Y90265D01*
X187668Y90222D01*
X187555Y90185D01*
X187520Y90163D01*
X187483Y90148D01*
X187387Y90079D01*
X187286Y90015D01*
X187258Y89985D01*
X187225Y89962D01*
X187149Y89870D01*
X187068Y89783D01*
X187048Y89748D01*
X187023Y89717D01*
X186972Y89609D01*
X186914Y89505D01*
X186904Y89465D01*
X186887Y89429D01*
X186865Y89312D01*
X186835Y89197D01*
X186831Y89137D01*
X186827Y89117D01*
X186829Y89096D01*
X186825Y89036D01*
X186825Y88054D01*
X185346Y86575D01*
X184764Y86575D01*
X184646Y86560D01*
X184527Y86553D01*
X184489Y86540D01*
X184448Y86535D01*
X184338Y86492D01*
X184225Y86455D01*
X184190Y86433D01*
X184153Y86418D01*
X184057Y86349D01*
X183956Y86285D01*
X183928Y86255D01*
X183895Y86232D01*
X183819Y86140D01*
X183738Y86053D01*
X183718Y86018D01*
X183693Y85987D01*
X183642Y85879D01*
X183584Y85775D01*
X183574Y85735D01*
X183557Y85699D01*
X183535Y85582D01*
X183505Y85467D01*
X183501Y85407D01*
X183497Y85387D01*
X183499Y85366D01*
X183495Y85306D01*
X183495Y79453D01*
X183510Y79335D01*
X183517Y79216D01*
X183530Y79178D01*
X183535Y79137D01*
X183578Y79027D01*
X183615Y78914D01*
X183637Y78879D01*
X183652Y78842D01*
X183721Y78746D01*
X183785Y78645D01*
X183815Y78617D01*
X183838Y78584D01*
X183930Y78508D01*
X184017Y78427D01*
X184052Y78407D01*
X184083Y78382D01*
X184191Y78331D01*
X184295Y78273D01*
X184335Y78263D01*
X184371Y78246D01*
X184488Y78224D01*
X184603Y78194D01*
X184663Y78190D01*
X184683Y78186D01*
X184704Y78188D01*
X184764Y78184D01*
X186141Y78184D01*
X187034Y77291D01*
X187034Y74670D01*
X187051Y74533D01*
X187064Y74394D01*
X187071Y74375D01*
X187074Y74355D01*
X187125Y74226D01*
X187172Y74095D01*
X187183Y74078D01*
X187191Y74059D01*
X187272Y73947D01*
X187350Y73832D01*
X187366Y73818D01*
X187377Y73802D01*
X187485Y73713D01*
X187589Y73621D01*
X187607Y73612D01*
X187622Y73599D01*
X187748Y73540D01*
X187872Y73476D01*
X187892Y73472D01*
X187910Y73463D01*
X188046Y73437D01*
X188182Y73407D01*
X188203Y73407D01*
X188222Y73404D01*
X188361Y73412D01*
X188500Y73416D01*
X188520Y73422D01*
X188540Y73423D01*
X188672Y73466D01*
X188806Y73505D01*
X188823Y73515D01*
X188842Y73521D01*
X188960Y73596D01*
X189080Y73666D01*
X189101Y73685D01*
X189111Y73692D01*
X189125Y73707D01*
X189200Y73773D01*
X196054Y80626D01*
X196114Y80704D01*
X196182Y80776D01*
X196211Y80829D01*
X196248Y80877D01*
X196288Y80968D01*
X196336Y81055D01*
X196351Y81113D01*
X196375Y81169D01*
X196390Y81267D01*
X196415Y81363D01*
X196421Y81463D01*
X196425Y81483D01*
X196423Y81495D01*
X196425Y81523D01*
X196425Y86182D01*
X197318Y87075D01*
X220582Y87075D01*
X221475Y86182D01*
X221475Y79755D01*
X221487Y79656D01*
X221490Y79557D01*
X221507Y79499D01*
X221515Y79439D01*
X221551Y79347D01*
X221579Y79252D01*
X221609Y79200D01*
X221632Y79143D01*
X221690Y79063D01*
X221740Y78978D01*
X221806Y78903D01*
X221818Y78886D01*
X221828Y78878D01*
X221846Y78857D01*
X225539Y75165D01*
X225539Y71653D01*
X225551Y71555D01*
X225554Y71456D01*
X225571Y71398D01*
X225579Y71338D01*
X225615Y71246D01*
X225643Y71151D01*
X225673Y71098D01*
X225696Y71042D01*
X225754Y70962D01*
X225804Y70877D01*
X225870Y70801D01*
X225882Y70785D01*
X225892Y70777D01*
X225910Y70756D01*
X254786Y41880D01*
X254864Y41820D01*
X254936Y41752D01*
X254989Y41723D01*
X255037Y41686D01*
X255128Y41646D01*
X255215Y41598D01*
X255273Y41583D01*
X255329Y41559D01*
X255427Y41544D01*
X255523Y41519D01*
X255623Y41513D01*
X255643Y41509D01*
X255655Y41511D01*
X255683Y41509D01*
X297961Y41509D01*
X298060Y41521D01*
X298159Y41524D01*
X298217Y41541D01*
X298277Y41549D01*
X298369Y41585D01*
X298464Y41613D01*
X298516Y41643D01*
X298573Y41666D01*
X298653Y41724D01*
X298738Y41774D01*
X298813Y41840D01*
X298830Y41852D01*
X298838Y41862D01*
X298859Y41880D01*
X302026Y45048D01*
X317070Y45048D01*
X317168Y45060D01*
X317267Y45063D01*
X317325Y45080D01*
X317385Y45088D01*
X317477Y45124D01*
X317572Y45152D01*
X317625Y45182D01*
X317681Y45205D01*
X317761Y45263D01*
X317846Y45313D01*
X317922Y45379D01*
X317938Y45391D01*
X317946Y45401D01*
X317967Y45419D01*
X321495Y48947D01*
X321555Y49025D01*
X321623Y49097D01*
X321652Y49150D01*
X321689Y49198D01*
X321729Y49289D01*
X321777Y49376D01*
X321792Y49434D01*
X321816Y49490D01*
X321831Y49588D01*
X321856Y49684D01*
X321862Y49784D01*
X321866Y49804D01*
X321864Y49816D01*
X321866Y49844D01*
X321866Y59141D01*
X322759Y60034D01*
X337641Y60034D01*
X338059Y59616D01*
X338168Y59531D01*
X338275Y59442D01*
X338294Y59433D01*
X338310Y59421D01*
X338438Y59365D01*
X338563Y59306D01*
X338583Y59303D01*
X338602Y59294D01*
X338740Y59273D01*
X338876Y59247D01*
X338896Y59248D01*
X338916Y59245D01*
X339055Y59258D01*
X339193Y59266D01*
X339212Y59273D01*
X339232Y59274D01*
X339363Y59322D01*
X339495Y59364D01*
X339513Y59375D01*
X339532Y59382D01*
X339646Y59460D01*
X339764Y59535D01*
X339778Y59549D01*
X339795Y59561D01*
X339887Y59665D01*
X339982Y59766D01*
X339992Y59784D01*
X340005Y59799D01*
X340033Y59854D01*
X341704Y61525D01*
X352709Y61525D01*
X352847Y61542D01*
X352985Y61555D01*
X353004Y61562D01*
X353024Y61565D01*
X353153Y61616D01*
X353284Y61663D01*
X353301Y61674D01*
X353320Y61682D01*
X353432Y61763D01*
X353547Y61841D01*
X353561Y61857D01*
X353577Y61868D01*
X353666Y61976D01*
X353758Y62080D01*
X353767Y62098D01*
X353780Y62113D01*
X353839Y62239D01*
X353903Y62363D01*
X353907Y62383D01*
X353916Y62401D01*
X353942Y62538D01*
X353972Y62673D01*
X353972Y62694D01*
X353975Y62713D01*
X353967Y62852D01*
X353963Y62991D01*
X353957Y63011D01*
X353956Y63031D01*
X353913Y63163D01*
X353874Y63297D01*
X353864Y63314D01*
X353858Y63333D01*
X353783Y63451D01*
X353713Y63571D01*
X353694Y63592D01*
X353687Y63602D01*
X353672Y63616D01*
X353606Y63691D01*
X352194Y65104D01*
X352116Y65164D01*
X352044Y65232D01*
X351991Y65261D01*
X351943Y65298D01*
X351852Y65338D01*
X351765Y65386D01*
X351707Y65401D01*
X351651Y65425D01*
X351553Y65440D01*
X351457Y65465D01*
X351357Y65471D01*
X351337Y65475D01*
X351325Y65473D01*
X351297Y65475D01*
X341704Y65475D01*
X340225Y66954D01*
X340225Y77046D01*
X341704Y78525D01*
X356796Y78525D01*
X357878Y77443D01*
X357972Y77370D01*
X358061Y77291D01*
X358097Y77273D01*
X358129Y77248D01*
X358238Y77201D01*
X358344Y77147D01*
X358383Y77138D01*
X358421Y77122D01*
X358538Y77103D01*
X358654Y77077D01*
X358695Y77078D01*
X358735Y77072D01*
X358853Y77083D01*
X358972Y77087D01*
X359011Y77098D01*
X359051Y77102D01*
X359163Y77142D01*
X359278Y77175D01*
X359313Y77196D01*
X359351Y77209D01*
X359449Y77276D01*
X359552Y77337D01*
X359597Y77376D01*
X359614Y77388D01*
X359627Y77403D01*
X359673Y77443D01*
X360754Y78525D01*
X375846Y78525D01*
X376850Y77521D01*
X376959Y77436D01*
X377066Y77347D01*
X377085Y77338D01*
X377101Y77326D01*
X377228Y77271D01*
X377354Y77212D01*
X377374Y77208D01*
X377393Y77200D01*
X377531Y77178D01*
X377667Y77152D01*
X377687Y77153D01*
X377707Y77150D01*
X377846Y77163D01*
X377984Y77172D01*
X378003Y77178D01*
X378023Y77180D01*
X378155Y77227D01*
X378286Y77270D01*
X378304Y77280D01*
X378323Y77287D01*
X378438Y77365D01*
X378555Y77440D01*
X378569Y77454D01*
X378586Y77466D01*
X378678Y77570D01*
X378773Y77671D01*
X378783Y77689D01*
X378796Y77704D01*
X378860Y77828D01*
X378927Y77950D01*
X378932Y77969D01*
X378941Y77987D01*
X378971Y78123D01*
X378979Y78153D01*
X379909Y79084D01*
X394791Y79084D01*
X395684Y78191D01*
X395684Y67309D01*
X394791Y66416D01*
X379909Y66416D01*
X379246Y67080D01*
X379151Y67153D01*
X379062Y67232D01*
X379026Y67250D01*
X378994Y67275D01*
X378885Y67322D01*
X378779Y67376D01*
X378740Y67385D01*
X378702Y67401D01*
X378585Y67420D01*
X378469Y67446D01*
X378428Y67445D01*
X378388Y67451D01*
X378270Y67440D01*
X378151Y67436D01*
X378112Y67425D01*
X378072Y67421D01*
X377960Y67381D01*
X377845Y67348D01*
X377811Y67328D01*
X377772Y67314D01*
X377674Y67247D01*
X377571Y67186D01*
X377526Y67147D01*
X377509Y67135D01*
X377496Y67120D01*
X377451Y67080D01*
X375846Y65475D01*
X362791Y65475D01*
X362653Y65458D01*
X362515Y65445D01*
X362496Y65438D01*
X362476Y65435D01*
X362347Y65384D01*
X362216Y65337D01*
X362199Y65326D01*
X362180Y65318D01*
X362068Y65237D01*
X361953Y65159D01*
X361939Y65143D01*
X361923Y65132D01*
X361834Y65024D01*
X361742Y64920D01*
X361733Y64902D01*
X361720Y64887D01*
X361661Y64761D01*
X361597Y64637D01*
X361593Y64617D01*
X361584Y64599D01*
X361558Y64462D01*
X361528Y64327D01*
X361528Y64306D01*
X361525Y64287D01*
X361533Y64148D01*
X361537Y64009D01*
X361543Y63989D01*
X361544Y63969D01*
X361587Y63837D01*
X361626Y63703D01*
X361636Y63686D01*
X361642Y63667D01*
X361717Y63549D01*
X361787Y63429D01*
X361806Y63408D01*
X361813Y63398D01*
X361828Y63384D01*
X361894Y63309D01*
X363306Y61896D01*
X363384Y61836D01*
X363456Y61768D01*
X363509Y61739D01*
X363557Y61702D01*
X363648Y61662D01*
X363735Y61614D01*
X363793Y61599D01*
X363849Y61575D01*
X363947Y61560D01*
X364043Y61535D01*
X364143Y61529D01*
X364163Y61525D01*
X364175Y61527D01*
X364203Y61525D01*
X375846Y61525D01*
X377451Y59920D01*
X377545Y59847D01*
X377634Y59768D01*
X377670Y59750D01*
X377702Y59725D01*
X377811Y59678D01*
X377917Y59624D01*
X377957Y59615D01*
X377994Y59599D01*
X378111Y59580D01*
X378227Y59554D01*
X378268Y59555D01*
X378308Y59549D01*
X378426Y59560D01*
X378545Y59564D01*
X378584Y59575D01*
X378624Y59579D01*
X378737Y59619D01*
X378851Y59652D01*
X378886Y59672D01*
X378924Y59686D01*
X379022Y59753D01*
X379125Y59813D01*
X379170Y59853D01*
X379187Y59865D01*
X379200Y59880D01*
X379246Y59920D01*
X379909Y60584D01*
X394791Y60584D01*
X395058Y60317D01*
X395136Y60256D01*
X395208Y60188D01*
X395261Y60159D01*
X395309Y60122D01*
X395400Y60082D01*
X395487Y60034D01*
X395545Y60019D01*
X395601Y59995D01*
X395699Y59980D01*
X395795Y59955D01*
X395895Y59949D01*
X395915Y59945D01*
X395927Y59947D01*
X395955Y59945D01*
X400701Y59945D01*
X400730Y59948D01*
X400760Y59946D01*
X400888Y59968D01*
X401017Y59985D01*
X401044Y59995D01*
X401073Y60000D01*
X401192Y60054D01*
X401312Y60102D01*
X401336Y60119D01*
X401363Y60131D01*
X401465Y60212D01*
X401570Y60288D01*
X401589Y60311D01*
X401612Y60330D01*
X401690Y60433D01*
X401773Y60533D01*
X401785Y60560D01*
X401803Y60584D01*
X401874Y60728D01*
X402671Y62654D01*
X405405Y65387D01*
X408976Y66866D01*
X429224Y66866D01*
X432795Y65387D01*
X435529Y62654D01*
X437008Y59083D01*
X437008Y55217D01*
X435529Y51646D01*
X432795Y48913D01*
X429224Y47434D01*
X408976Y47434D01*
X405405Y48913D01*
X402671Y51646D01*
X401874Y53572D01*
X401859Y53597D01*
X401850Y53625D01*
X401780Y53735D01*
X401716Y53848D01*
X401696Y53869D01*
X401680Y53894D01*
X401585Y53983D01*
X401495Y54076D01*
X401470Y54092D01*
X401448Y54112D01*
X401335Y54175D01*
X401224Y54243D01*
X401196Y54251D01*
X401170Y54266D01*
X401044Y54298D01*
X400920Y54336D01*
X400891Y54338D01*
X400862Y54345D01*
X400701Y54355D01*
X396953Y54355D01*
X396835Y54340D01*
X396716Y54333D01*
X396678Y54320D01*
X396637Y54315D01*
X396527Y54272D01*
X396414Y54235D01*
X396379Y54213D01*
X396342Y54198D01*
X396246Y54129D01*
X396145Y54065D01*
X396117Y54035D01*
X396084Y54012D01*
X396008Y53920D01*
X395927Y53833D01*
X395907Y53798D01*
X395882Y53767D01*
X395831Y53659D01*
X395773Y53555D01*
X395763Y53515D01*
X395746Y53479D01*
X395724Y53362D01*
X395694Y53247D01*
X395690Y53187D01*
X395686Y53167D01*
X395688Y53146D01*
X395684Y53086D01*
X395684Y48809D01*
X394791Y47916D01*
X379909Y47916D01*
X378988Y48838D01*
X378986Y48858D01*
X378979Y48877D01*
X378976Y48897D01*
X378925Y49026D01*
X378878Y49157D01*
X378867Y49174D01*
X378859Y49193D01*
X378778Y49305D01*
X378700Y49420D01*
X378684Y49434D01*
X378673Y49450D01*
X378565Y49539D01*
X378461Y49631D01*
X378443Y49640D01*
X378428Y49653D01*
X378302Y49712D01*
X378178Y49775D01*
X378158Y49780D01*
X378140Y49788D01*
X378003Y49815D01*
X377868Y49845D01*
X377847Y49844D01*
X377828Y49848D01*
X377689Y49840D01*
X377550Y49835D01*
X377530Y49830D01*
X377510Y49828D01*
X377378Y49786D01*
X377244Y49747D01*
X377227Y49737D01*
X377208Y49730D01*
X377090Y49656D01*
X376970Y49585D01*
X376949Y49567D01*
X376939Y49560D01*
X376925Y49545D01*
X376850Y49479D01*
X375846Y48475D01*
X360754Y48475D01*
X359673Y49557D01*
X359578Y49630D01*
X359489Y49709D01*
X359453Y49727D01*
X359421Y49752D01*
X359312Y49799D01*
X359206Y49853D01*
X359167Y49862D01*
X359129Y49878D01*
X359012Y49897D01*
X358896Y49923D01*
X358855Y49922D01*
X358815Y49928D01*
X358697Y49917D01*
X358578Y49913D01*
X358539Y49902D01*
X358499Y49898D01*
X358386Y49858D01*
X358272Y49825D01*
X358238Y49804D01*
X358199Y49791D01*
X358101Y49724D01*
X357998Y49663D01*
X357953Y49624D01*
X357936Y49612D01*
X357923Y49597D01*
X357878Y49557D01*
X356796Y48475D01*
X341704Y48475D01*
X340700Y49479D01*
X340591Y49564D01*
X340484Y49653D01*
X340465Y49662D01*
X340449Y49674D01*
X340322Y49729D01*
X340196Y49788D01*
X340176Y49792D01*
X340157Y49800D01*
X340019Y49822D01*
X339883Y49848D01*
X339863Y49847D01*
X339843Y49850D01*
X339704Y49837D01*
X339566Y49828D01*
X339547Y49822D01*
X339527Y49820D01*
X339395Y49773D01*
X339264Y49730D01*
X339246Y49720D01*
X339227Y49713D01*
X339112Y49635D01*
X338995Y49560D01*
X338981Y49546D01*
X338964Y49534D01*
X338872Y49430D01*
X338777Y49329D01*
X338767Y49311D01*
X338754Y49296D01*
X338690Y49172D01*
X338623Y49050D01*
X338618Y49031D01*
X338609Y49013D01*
X338579Y48877D01*
X338544Y48742D01*
X338542Y48714D01*
X338539Y48702D01*
X338540Y48682D01*
X338534Y48582D01*
X338534Y48259D01*
X337641Y47366D01*
X328344Y47366D01*
X328246Y47354D01*
X328147Y47351D01*
X328089Y47334D01*
X328029Y47326D01*
X327937Y47290D01*
X327842Y47262D01*
X327789Y47232D01*
X327733Y47209D01*
X327653Y47151D01*
X327568Y47101D01*
X327492Y47035D01*
X327476Y47023D01*
X327468Y47013D01*
X327447Y46995D01*
X324153Y43700D01*
X324068Y43591D01*
X323979Y43484D01*
X323970Y43465D01*
X323958Y43449D01*
X323902Y43321D01*
X323843Y43196D01*
X323840Y43176D01*
X323832Y43157D01*
X323810Y43019D01*
X323784Y42883D01*
X323785Y42863D01*
X323782Y42843D01*
X323795Y42704D01*
X323803Y42566D01*
X323810Y42547D01*
X323811Y42527D01*
X323859Y42395D01*
X323901Y42264D01*
X323912Y42246D01*
X323919Y42227D01*
X323997Y42112D01*
X324072Y41995D01*
X324086Y41981D01*
X324098Y41964D01*
X324202Y41872D01*
X324303Y41777D01*
X324321Y41767D01*
X324336Y41754D01*
X324460Y41690D01*
X324582Y41623D01*
X324601Y41618D01*
X324619Y41609D01*
X324755Y41579D01*
X324890Y41544D01*
X324918Y41542D01*
X324930Y41539D01*
X324950Y41540D01*
X325050Y41534D01*
X337641Y41534D01*
X338534Y40641D01*
X338534Y40318D01*
X338551Y40180D01*
X338564Y40042D01*
X338571Y40023D01*
X338574Y40003D01*
X338625Y39874D01*
X338672Y39743D01*
X338683Y39726D01*
X338691Y39707D01*
X338772Y39595D01*
X338850Y39480D01*
X338866Y39466D01*
X338877Y39450D01*
X338985Y39361D01*
X339089Y39269D01*
X339107Y39260D01*
X339122Y39247D01*
X339248Y39188D01*
X339372Y39125D01*
X339392Y39120D01*
X339410Y39112D01*
X339547Y39085D01*
X339682Y39055D01*
X339703Y39056D01*
X339722Y39052D01*
X339861Y39060D01*
X340000Y39065D01*
X340020Y39070D01*
X340040Y39072D01*
X340172Y39114D01*
X340306Y39153D01*
X340323Y39163D01*
X340342Y39170D01*
X340460Y39244D01*
X340580Y39315D01*
X340601Y39333D01*
X340611Y39340D01*
X340625Y39355D01*
X340700Y39421D01*
X341704Y40425D01*
X356796Y40425D01*
X357878Y39343D01*
X357972Y39270D01*
X358061Y39191D01*
X358097Y39173D01*
X358129Y39148D01*
X358238Y39101D01*
X358344Y39047D01*
X358383Y39038D01*
X358421Y39022D01*
X358538Y39003D01*
X358654Y38977D01*
X358695Y38978D01*
X358735Y38972D01*
X358853Y38983D01*
X358972Y38987D01*
X359011Y38998D01*
X359051Y39002D01*
X359163Y39042D01*
X359278Y39075D01*
X359313Y39096D01*
X359351Y39109D01*
X359449Y39176D01*
X359552Y39237D01*
X359597Y39276D01*
X359614Y39288D01*
X359627Y39303D01*
X359673Y39343D01*
X360754Y40425D01*
X375846Y40425D01*
X376850Y39421D01*
X376959Y39336D01*
X377066Y39247D01*
X377085Y39238D01*
X377101Y39226D01*
X377228Y39171D01*
X377354Y39112D01*
X377374Y39108D01*
X377393Y39100D01*
X377531Y39078D01*
X377667Y39052D01*
X377687Y39053D01*
X377707Y39050D01*
X377846Y39063D01*
X377984Y39072D01*
X378003Y39078D01*
X378023Y39080D01*
X378155Y39127D01*
X378286Y39170D01*
X378304Y39180D01*
X378323Y39187D01*
X378438Y39265D01*
X378555Y39340D01*
X378569Y39354D01*
X378586Y39366D01*
X378678Y39470D01*
X378773Y39571D01*
X378783Y39589D01*
X378796Y39604D01*
X378860Y39728D01*
X378927Y39850D01*
X378932Y39869D01*
X378941Y39887D01*
X378971Y40023D01*
X378979Y40053D01*
X379909Y40984D01*
X394791Y40984D01*
X395684Y40091D01*
X395684Y38714D01*
X395699Y38596D01*
X395706Y38477D01*
X395719Y38439D01*
X395724Y38398D01*
X395767Y38288D01*
X395804Y38175D01*
X395826Y38140D01*
X395841Y38103D01*
X395910Y38007D01*
X395974Y37906D01*
X396004Y37878D01*
X396027Y37845D01*
X396119Y37769D01*
X396206Y37688D01*
X396241Y37668D01*
X396272Y37643D01*
X396380Y37592D01*
X396484Y37534D01*
X396524Y37524D01*
X396560Y37507D01*
X396677Y37485D01*
X396792Y37455D01*
X396852Y37451D01*
X396872Y37447D01*
X396893Y37449D01*
X396953Y37445D01*
X398308Y37445D01*
X400106Y35646D01*
X400145Y35616D01*
X400179Y35579D01*
X400270Y35519D01*
X400357Y35451D01*
X400403Y35432D01*
X400444Y35404D01*
X400548Y35369D01*
X400649Y35325D01*
X400698Y35317D01*
X400745Y35301D01*
X400855Y35292D01*
X400963Y35275D01*
X401013Y35280D01*
X401062Y35276D01*
X401171Y35295D01*
X401280Y35305D01*
X401327Y35322D01*
X401376Y35330D01*
X401476Y35375D01*
X401579Y35413D01*
X401620Y35441D01*
X401666Y35461D01*
X401751Y35529D01*
X401842Y35591D01*
X401875Y35628D01*
X401914Y35659D01*
X401980Y35747D01*
X402053Y35830D01*
X402075Y35874D01*
X402105Y35914D01*
X402176Y36058D01*
X402671Y37254D01*
X405405Y39987D01*
X408976Y41466D01*
X429224Y41466D01*
X432795Y39987D01*
X435529Y37254D01*
X437008Y33683D01*
X437008Y29817D01*
X435529Y26246D01*
X432795Y23513D01*
X429224Y22034D01*
X408976Y22034D01*
X405405Y23513D01*
X402671Y26246D01*
X401874Y28172D01*
X401859Y28197D01*
X401850Y28225D01*
X401781Y28335D01*
X401716Y28448D01*
X401696Y28469D01*
X401680Y28494D01*
X401585Y28583D01*
X401495Y28676D01*
X401470Y28692D01*
X401448Y28712D01*
X401335Y28775D01*
X401224Y28843D01*
X401196Y28851D01*
X401170Y28866D01*
X401044Y28898D01*
X400920Y28936D01*
X400891Y28938D01*
X400862Y28945D01*
X400701Y28955D01*
X398892Y28955D01*
X397850Y29997D01*
X397741Y30082D01*
X397634Y30171D01*
X397615Y30180D01*
X397599Y30192D01*
X397472Y30247D01*
X397346Y30307D01*
X397326Y30310D01*
X397307Y30318D01*
X397169Y30340D01*
X397033Y30366D01*
X397013Y30365D01*
X396993Y30368D01*
X396854Y30355D01*
X396716Y30347D01*
X396697Y30340D01*
X396677Y30339D01*
X396545Y30291D01*
X396414Y30249D01*
X396396Y30238D01*
X396377Y30231D01*
X396262Y30153D01*
X396145Y30078D01*
X396131Y30064D01*
X396114Y30052D01*
X396022Y29948D01*
X395927Y29847D01*
X395917Y29829D01*
X395904Y29814D01*
X395840Y29690D01*
X395773Y29568D01*
X395768Y29549D01*
X395759Y29531D01*
X395729Y29395D01*
X395694Y29260D01*
X395692Y29232D01*
X395689Y29220D01*
X395690Y29215D01*
X394791Y28316D01*
X379909Y28316D01*
X379246Y28980D01*
X379151Y29053D01*
X379062Y29132D01*
X379026Y29150D01*
X378994Y29175D01*
X378885Y29222D01*
X378779Y29276D01*
X378740Y29285D01*
X378702Y29301D01*
X378585Y29320D01*
X378469Y29346D01*
X378428Y29345D01*
X378388Y29351D01*
X378270Y29340D01*
X378151Y29336D01*
X378112Y29325D01*
X378072Y29321D01*
X377960Y29281D01*
X377845Y29248D01*
X377811Y29228D01*
X377772Y29214D01*
X377674Y29147D01*
X377571Y29086D01*
X377526Y29047D01*
X377509Y29035D01*
X377496Y29020D01*
X377451Y28980D01*
X375846Y27375D01*
X364203Y27375D01*
X364105Y27363D01*
X364006Y27360D01*
X363948Y27343D01*
X363888Y27335D01*
X363796Y27299D01*
X363701Y27271D01*
X363648Y27241D01*
X363592Y27218D01*
X363512Y27160D01*
X363427Y27110D01*
X363351Y27044D01*
X363335Y27032D01*
X363327Y27022D01*
X363306Y27004D01*
X362910Y26608D01*
X362825Y26498D01*
X362736Y26391D01*
X362727Y26372D01*
X362715Y26356D01*
X362660Y26229D01*
X362600Y26103D01*
X362597Y26083D01*
X362589Y26064D01*
X362567Y25927D01*
X362541Y25790D01*
X362542Y25770D01*
X362539Y25750D01*
X362552Y25611D01*
X362560Y25473D01*
X362567Y25454D01*
X362568Y25434D01*
X362616Y25302D01*
X362658Y25171D01*
X362669Y25154D01*
X362676Y25134D01*
X362754Y25019D01*
X362829Y24902D01*
X362843Y24888D01*
X362855Y24871D01*
X362959Y24779D01*
X363060Y24684D01*
X363078Y24674D01*
X363093Y24661D01*
X363217Y24597D01*
X363339Y24530D01*
X363358Y24525D01*
X363376Y24516D01*
X363512Y24486D01*
X363647Y24451D01*
X363675Y24449D01*
X363687Y24446D01*
X363707Y24447D01*
X363807Y24441D01*
X365801Y24441D01*
X365801Y18130D01*
X365816Y18012D01*
X365823Y17893D01*
X365835Y17855D01*
X365841Y17815D01*
X365884Y17704D01*
X365921Y17591D01*
X365943Y17557D01*
X365958Y17519D01*
X366027Y17423D01*
X366091Y17322D01*
X366121Y17294D01*
X366144Y17262D01*
X366236Y17186D01*
X366323Y17104D01*
X366358Y17085D01*
X366389Y17059D01*
X366497Y17008D01*
X366601Y16951D01*
X366641Y16941D01*
X366677Y16923D01*
X366794Y16901D01*
X366909Y16871D01*
X366969Y16867D01*
X366989Y16864D01*
X367010Y16865D01*
X367070Y16861D01*
X368261Y16861D01*
X368261Y15670D01*
X368276Y15552D01*
X368283Y15433D01*
X368296Y15395D01*
X368301Y15354D01*
X368345Y15244D01*
X368381Y15131D01*
X368403Y15096D01*
X368418Y15059D01*
X368488Y14962D01*
X368551Y14862D01*
X368581Y14834D01*
X368605Y14801D01*
X368696Y14725D01*
X368783Y14644D01*
X368818Y14624D01*
X368850Y14599D01*
X368957Y14548D01*
X369062Y14490D01*
X369101Y14480D01*
X369137Y14463D01*
X369254Y14441D01*
X369370Y14411D01*
X369430Y14407D01*
X369450Y14403D01*
X369470Y14405D01*
X369530Y14401D01*
X378500Y14401D01*
X378567Y14308D01*
X378631Y14207D01*
X378661Y14180D01*
X378684Y14147D01*
X378776Y14071D01*
X378863Y13989D01*
X378898Y13970D01*
X378929Y13944D01*
X379037Y13893D01*
X379141Y13836D01*
X379181Y13826D01*
X379217Y13809D01*
X379334Y13786D01*
X379449Y13756D01*
X379509Y13753D01*
X379529Y13749D01*
X379550Y13750D01*
X379610Y13746D01*
X386215Y13746D01*
X386334Y13761D01*
X386452Y13769D01*
X386491Y13781D01*
X386531Y13786D01*
X386642Y13830D01*
X386755Y13867D01*
X386789Y13888D01*
X386827Y13903D01*
X386923Y13973D01*
X387023Y14037D01*
X387051Y14066D01*
X387084Y14090D01*
X387160Y14182D01*
X387241Y14268D01*
X387261Y14304D01*
X387287Y14335D01*
X387337Y14443D01*
X387347Y14459D01*
X387357Y14442D01*
X387372Y14404D01*
X387442Y14308D01*
X387506Y14207D01*
X387535Y14180D01*
X387559Y14147D01*
X387651Y14071D01*
X387738Y13989D01*
X387773Y13970D01*
X387804Y13944D01*
X387912Y13893D01*
X388016Y13836D01*
X388055Y13826D01*
X388092Y13809D01*
X388209Y13786D01*
X388324Y13756D01*
X388384Y13753D01*
X388404Y13749D01*
X388425Y13750D01*
X388485Y13746D01*
X396700Y13746D01*
X396700Y11430D01*
X396715Y11312D01*
X396722Y11193D01*
X396734Y11155D01*
X396740Y11114D01*
X396783Y11004D01*
X396820Y10891D01*
X396842Y10856D01*
X396857Y10819D01*
X396926Y10723D01*
X396990Y10622D01*
X397020Y10594D01*
X397043Y10561D01*
X397135Y10485D01*
X397222Y10404D01*
X397257Y10384D01*
X397288Y10359D01*
X397396Y10308D01*
X397500Y10250D01*
X397540Y10240D01*
X397576Y10223D01*
X397693Y10201D01*
X397808Y10171D01*
X397868Y10167D01*
X397888Y10163D01*
X397909Y10165D01*
X397969Y10161D01*
X444300Y10161D01*
X444418Y10176D01*
X444537Y10183D01*
X444575Y10196D01*
X444616Y10201D01*
X444726Y10244D01*
X444839Y10281D01*
X444874Y10303D01*
X444911Y10318D01*
X445007Y10387D01*
X445108Y10451D01*
X445136Y10481D01*
X445169Y10504D01*
X445245Y10596D01*
X445326Y10683D01*
X445346Y10718D01*
X445371Y10749D01*
X445422Y10857D01*
X445480Y10961D01*
X445490Y11001D01*
X445507Y11037D01*
X445529Y11154D01*
X445559Y11269D01*
X445563Y11329D01*
X445567Y11349D01*
X445565Y11370D01*
X445569Y11430D01*
X445569Y171450D01*
X445554Y171568D01*
X445547Y171687D01*
X445534Y171725D01*
X445529Y171766D01*
X445486Y171876D01*
X445449Y171989D01*
X445427Y172024D01*
X445412Y172061D01*
X445343Y172157D01*
X445279Y172258D01*
X445249Y172286D01*
X445226Y172319D01*
X445134Y172395D01*
X445047Y172476D01*
X445012Y172496D01*
X444981Y172521D01*
X444873Y172572D01*
X444769Y172630D01*
X444729Y172640D01*
X444693Y172657D01*
X444576Y172679D01*
X444461Y172709D01*
X444401Y172713D01*
X444381Y172717D01*
X444360Y172715D01*
X444300Y172719D01*
X11430Y172719D01*
X11312Y172704D01*
X11193Y172697D01*
X11155Y172684D01*
X11114Y172679D01*
X11004Y172636D01*
X10891Y172599D01*
X10856Y172577D01*
X10819Y172562D01*
X10723Y172492D01*
X10622Y172429D01*
X10594Y172399D01*
X10561Y172376D01*
X10485Y172284D01*
X10404Y172197D01*
X10384Y172162D01*
X10359Y172131D01*
X10308Y172023D01*
X10250Y171919D01*
X10240Y171879D01*
X10223Y171843D01*
X10201Y171726D01*
X10171Y171611D01*
X10167Y171550D01*
X10163Y171530D01*
X10165Y171510D01*
X10161Y171450D01*
X10161Y11430D01*
X10176Y11312D01*
X10183Y11193D01*
X10196Y11155D01*
X10201Y11114D01*
X10244Y11004D01*
X10281Y10891D01*
X10303Y10856D01*
X10318Y10819D01*
X10387Y10723D01*
X10451Y10622D01*
X10481Y10594D01*
X10504Y10561D01*
X10596Y10485D01*
X10683Y10404D01*
X10718Y10384D01*
X10749Y10359D01*
X10857Y10308D01*
X10961Y10250D01*
X11001Y10240D01*
X11037Y10223D01*
X11154Y10201D01*
X11269Y10171D01*
X11329Y10167D01*
X11349Y10163D01*
X11370Y10165D01*
X11430Y10161D01*
X33623Y10161D01*
X33760Y10178D01*
G37*
%LPC*%
G36*
X48801Y40750D02*
X48801Y40750D01*
X45107Y42280D01*
X42280Y45107D01*
X40750Y48801D01*
X40750Y52799D01*
X42280Y56493D01*
X45107Y59320D01*
X48801Y60850D01*
X52799Y60850D01*
X54914Y59974D01*
X54942Y59967D01*
X54969Y59953D01*
X55095Y59925D01*
X55221Y59890D01*
X55250Y59890D01*
X55279Y59883D01*
X55409Y59887D01*
X55539Y59885D01*
X55567Y59892D01*
X55597Y59893D01*
X55721Y59929D01*
X55848Y59959D01*
X55874Y59973D01*
X55902Y59981D01*
X56014Y60047D01*
X56129Y60108D01*
X56151Y60128D01*
X56176Y60143D01*
X56297Y60249D01*
X70590Y74542D01*
X70650Y74620D01*
X70718Y74692D01*
X70747Y74745D01*
X70784Y74793D01*
X70824Y74884D01*
X70872Y74971D01*
X70887Y75029D01*
X70911Y75085D01*
X70926Y75183D01*
X70951Y75279D01*
X70957Y75379D01*
X70961Y75399D01*
X70959Y75411D01*
X70961Y75439D01*
X70961Y99415D01*
X75123Y103576D01*
X75196Y103670D01*
X75274Y103760D01*
X75293Y103796D01*
X75317Y103827D01*
X75365Y103937D01*
X75419Y104043D01*
X75428Y104082D01*
X75444Y104119D01*
X75463Y104237D01*
X75489Y104353D01*
X75487Y104393D01*
X75494Y104433D01*
X75482Y104552D01*
X75479Y104671D01*
X75468Y104710D01*
X75464Y104750D01*
X75424Y104862D01*
X75390Y104976D01*
X75370Y105011D01*
X75356Y105049D01*
X75289Y105148D01*
X75229Y105250D01*
X75189Y105296D01*
X75178Y105312D01*
X75162Y105326D01*
X75123Y105371D01*
X75025Y105468D01*
X75025Y115147D01*
X75013Y115245D01*
X75010Y115344D01*
X74993Y115402D01*
X74985Y115462D01*
X74949Y115554D01*
X74921Y115649D01*
X74891Y115702D01*
X74868Y115758D01*
X74810Y115838D01*
X74760Y115923D01*
X74694Y115999D01*
X74682Y116015D01*
X74672Y116023D01*
X74654Y116044D01*
X67055Y123642D01*
X67055Y148336D01*
X67040Y148454D01*
X67033Y148573D01*
X67020Y148611D01*
X67015Y148652D01*
X66972Y148762D01*
X66935Y148875D01*
X66913Y148910D01*
X66898Y148947D01*
X66829Y149043D01*
X66765Y149144D01*
X66735Y149172D01*
X66712Y149205D01*
X66620Y149281D01*
X66533Y149362D01*
X66498Y149382D01*
X66467Y149407D01*
X66359Y149458D01*
X66255Y149516D01*
X66215Y149526D01*
X66179Y149543D01*
X66062Y149565D01*
X65947Y149595D01*
X65887Y149599D01*
X65867Y149603D01*
X65846Y149601D01*
X65786Y149605D01*
X61369Y149605D01*
X61340Y149602D01*
X61310Y149604D01*
X61182Y149582D01*
X61053Y149565D01*
X61026Y149555D01*
X60997Y149550D01*
X60878Y149496D01*
X60758Y149448D01*
X60734Y149431D01*
X60707Y149419D01*
X60605Y149338D01*
X60500Y149262D01*
X60481Y149239D01*
X60458Y149220D01*
X60380Y149117D01*
X60297Y149017D01*
X60285Y148990D01*
X60267Y148966D01*
X60196Y148822D01*
X59320Y146707D01*
X56493Y143880D01*
X52799Y142350D01*
X48801Y142350D01*
X45107Y143880D01*
X42280Y146707D01*
X40750Y150401D01*
X40750Y154399D01*
X42280Y158093D01*
X45107Y160920D01*
X48801Y162450D01*
X52799Y162450D01*
X56493Y160920D01*
X59320Y158093D01*
X60196Y155978D01*
X60211Y155953D01*
X60220Y155925D01*
X60289Y155815D01*
X60354Y155702D01*
X60374Y155681D01*
X60390Y155656D01*
X60485Y155567D01*
X60575Y155474D01*
X60600Y155458D01*
X60622Y155438D01*
X60735Y155375D01*
X60846Y155307D01*
X60874Y155299D01*
X60900Y155284D01*
X61026Y155252D01*
X61150Y155214D01*
X61179Y155212D01*
X61208Y155205D01*
X61369Y155195D01*
X78759Y155195D01*
X78857Y155207D01*
X78956Y155210D01*
X79014Y155227D01*
X79074Y155235D01*
X79166Y155271D01*
X79261Y155299D01*
X79313Y155329D01*
X79370Y155352D01*
X79450Y155410D01*
X79535Y155460D01*
X79610Y155526D01*
X79627Y155538D01*
X79635Y155548D01*
X79656Y155566D01*
X81354Y157265D01*
X96446Y157265D01*
X97925Y155786D01*
X97925Y145478D01*
X97920Y145468D01*
X97902Y145350D01*
X97876Y145234D01*
X97877Y145194D01*
X97871Y145154D01*
X97882Y145036D01*
X97885Y144916D01*
X97897Y144878D01*
X97900Y144838D01*
X97941Y144726D01*
X97974Y144611D01*
X97994Y144576D01*
X98008Y144538D01*
X98075Y144440D01*
X98135Y144337D01*
X98175Y144292D01*
X98186Y144275D01*
X98202Y144262D01*
X98242Y144216D01*
X99591Y142866D01*
X99670Y142806D01*
X99742Y142738D01*
X99795Y142709D01*
X99843Y142672D01*
X99934Y142632D01*
X100020Y142584D01*
X100079Y142569D01*
X100135Y142545D01*
X100232Y142530D01*
X100328Y142505D01*
X100428Y142499D01*
X100449Y142495D01*
X100461Y142497D01*
X100489Y142495D01*
X116639Y142495D01*
X116737Y142507D01*
X116836Y142510D01*
X116895Y142527D01*
X116955Y142535D01*
X117047Y142571D01*
X117142Y142599D01*
X117194Y142629D01*
X117250Y142652D01*
X117331Y142710D01*
X117416Y142760D01*
X117491Y142826D01*
X117508Y142838D01*
X117516Y142848D01*
X117537Y142866D01*
X127579Y152909D01*
X129406Y152909D01*
X129524Y152924D01*
X129643Y152931D01*
X129681Y152944D01*
X129722Y152949D01*
X129832Y152992D01*
X129945Y153029D01*
X129980Y153051D01*
X130017Y153066D01*
X130113Y153135D01*
X130214Y153199D01*
X130242Y153229D01*
X130275Y153252D01*
X130351Y153344D01*
X130432Y153431D01*
X130452Y153466D01*
X130477Y153497D01*
X130528Y153605D01*
X130586Y153709D01*
X130596Y153749D01*
X130613Y153785D01*
X130635Y153902D01*
X130665Y154017D01*
X130669Y154077D01*
X130673Y154097D01*
X130671Y154118D01*
X130675Y154178D01*
X130675Y159596D01*
X132154Y161075D01*
X147246Y161075D01*
X147546Y160774D01*
X147646Y160697D01*
X147741Y160615D01*
X147771Y160600D01*
X147798Y160579D01*
X147913Y160529D01*
X148026Y160473D01*
X148058Y160466D01*
X148089Y160453D01*
X148214Y160433D01*
X148337Y160407D01*
X148370Y160408D01*
X148404Y160403D01*
X148529Y160415D01*
X148654Y160420D01*
X148687Y160430D01*
X148720Y160433D01*
X148838Y160475D01*
X148959Y160512D01*
X148988Y160529D01*
X149019Y160540D01*
X149123Y160611D01*
X149231Y160676D01*
X149255Y160700D01*
X149283Y160719D01*
X149366Y160813D01*
X149454Y160903D01*
X149481Y160944D01*
X149493Y160957D01*
X149503Y160977D01*
X149543Y161037D01*
X149908Y161669D01*
X150381Y162142D01*
X150960Y162477D01*
X151607Y162650D01*
X156346Y162650D01*
X156346Y156435D01*
X156361Y156316D01*
X156369Y156198D01*
X156381Y156159D01*
X156386Y156119D01*
X156430Y156008D01*
X156467Y155895D01*
X156488Y155861D01*
X156503Y155823D01*
X156573Y155727D01*
X156637Y155627D01*
X156666Y155599D01*
X156690Y155566D01*
X156782Y155490D01*
X156868Y155409D01*
X156904Y155389D01*
X156935Y155363D01*
X157043Y155313D01*
X157147Y155255D01*
X157186Y155245D01*
X157223Y155228D01*
X157339Y155205D01*
X157455Y155176D01*
X157515Y155172D01*
X157535Y155168D01*
X157555Y155169D01*
X157615Y155165D01*
X158615Y155165D01*
X158615Y154165D01*
X158630Y154047D01*
X158638Y153929D01*
X158650Y153890D01*
X158655Y153850D01*
X158699Y153739D01*
X158736Y153626D01*
X158757Y153592D01*
X158772Y153554D01*
X158842Y153458D01*
X158906Y153357D01*
X158935Y153330D01*
X158959Y153297D01*
X159051Y153221D01*
X159138Y153139D01*
X159173Y153120D01*
X159204Y153094D01*
X159312Y153043D01*
X159416Y152986D01*
X159455Y152976D01*
X159492Y152959D01*
X159609Y152936D01*
X159724Y152906D01*
X159784Y152903D01*
X159804Y152899D01*
X159825Y152900D01*
X159885Y152896D01*
X176665Y152896D01*
X176784Y152911D01*
X176902Y152919D01*
X176941Y152931D01*
X176981Y152936D01*
X177092Y152980D01*
X177205Y153017D01*
X177239Y153038D01*
X177277Y153053D01*
X177373Y153123D01*
X177473Y153187D01*
X177501Y153216D01*
X177534Y153240D01*
X177610Y153332D01*
X177691Y153418D01*
X177711Y153454D01*
X177737Y153485D01*
X177787Y153593D01*
X177797Y153609D01*
X177807Y153592D01*
X177822Y153554D01*
X177892Y153458D01*
X177956Y153357D01*
X177985Y153330D01*
X178009Y153297D01*
X178101Y153221D01*
X178188Y153139D01*
X178223Y153120D01*
X178254Y153094D01*
X178362Y153043D01*
X178466Y152986D01*
X178505Y152976D01*
X178542Y152959D01*
X178659Y152936D01*
X178774Y152906D01*
X178834Y152903D01*
X178854Y152899D01*
X178875Y152900D01*
X178935Y152896D01*
X187150Y152896D01*
X187150Y150038D01*
X187162Y149939D01*
X187165Y149840D01*
X187182Y149782D01*
X187190Y149722D01*
X187226Y149630D01*
X187254Y149535D01*
X187284Y149483D01*
X187307Y149426D01*
X187365Y149346D01*
X187415Y149261D01*
X187482Y149185D01*
X187493Y149169D01*
X187503Y149161D01*
X187521Y149140D01*
X198415Y138246D01*
X198493Y138186D01*
X198566Y138118D01*
X198619Y138089D01*
X198666Y138052D01*
X198757Y138012D01*
X198844Y137964D01*
X198903Y137949D01*
X198958Y137925D01*
X199056Y137910D01*
X199152Y137885D01*
X199252Y137879D01*
X199272Y137875D01*
X199285Y137877D01*
X199313Y137875D01*
X220582Y137875D01*
X221475Y136982D01*
X221475Y131581D01*
X221492Y131444D01*
X221505Y131305D01*
X221512Y131286D01*
X221515Y131266D01*
X221566Y131137D01*
X221613Y131006D01*
X221624Y130989D01*
X221632Y130970D01*
X221713Y130858D01*
X221791Y130743D01*
X221807Y130729D01*
X221818Y130713D01*
X221926Y130624D01*
X222030Y130532D01*
X222048Y130523D01*
X222063Y130510D01*
X222189Y130451D01*
X222313Y130387D01*
X222333Y130383D01*
X222351Y130374D01*
X222487Y130348D01*
X222623Y130318D01*
X222644Y130318D01*
X222663Y130315D01*
X222802Y130323D01*
X222941Y130327D01*
X222961Y130333D01*
X222981Y130334D01*
X223113Y130377D01*
X223247Y130416D01*
X223264Y130426D01*
X223283Y130432D01*
X223401Y130507D01*
X223521Y130577D01*
X223542Y130596D01*
X223552Y130603D01*
X223566Y130617D01*
X223641Y130684D01*
X244954Y151996D01*
X245014Y152074D01*
X245082Y152146D01*
X245111Y152199D01*
X245148Y152247D01*
X245188Y152338D01*
X245236Y152425D01*
X245251Y152483D01*
X245275Y152539D01*
X245290Y152637D01*
X245315Y152733D01*
X245321Y152833D01*
X245325Y152853D01*
X245323Y152865D01*
X245325Y152893D01*
X245325Y159946D01*
X246804Y161425D01*
X256896Y161425D01*
X258375Y159946D01*
X258375Y144741D01*
X258392Y144603D01*
X258405Y144465D01*
X258412Y144446D01*
X258415Y144426D01*
X258466Y144297D01*
X258513Y144166D01*
X258524Y144149D01*
X258532Y144130D01*
X258613Y144018D01*
X258691Y143903D01*
X258707Y143889D01*
X258718Y143873D01*
X258826Y143784D01*
X258930Y143692D01*
X258948Y143683D01*
X258963Y143670D01*
X259089Y143611D01*
X259213Y143547D01*
X259233Y143543D01*
X259251Y143534D01*
X259388Y143508D01*
X259523Y143478D01*
X259544Y143478D01*
X259563Y143475D01*
X259702Y143483D01*
X259841Y143487D01*
X259861Y143493D01*
X259881Y143494D01*
X260013Y143537D01*
X260147Y143576D01*
X260164Y143586D01*
X260183Y143592D01*
X260301Y143667D01*
X260421Y143737D01*
X260442Y143756D01*
X260452Y143763D01*
X260466Y143778D01*
X260541Y143844D01*
X261954Y145256D01*
X262014Y145334D01*
X262082Y145406D01*
X262111Y145459D01*
X262148Y145507D01*
X262188Y145598D01*
X262236Y145685D01*
X262251Y145743D01*
X262275Y145799D01*
X262290Y145897D01*
X262315Y145993D01*
X262321Y146093D01*
X262325Y146113D01*
X262323Y146125D01*
X262325Y146153D01*
X262325Y159946D01*
X263804Y161425D01*
X273896Y161425D01*
X275375Y159946D01*
X275375Y144854D01*
X273896Y143375D01*
X268503Y143375D01*
X268405Y143363D01*
X268306Y143360D01*
X268248Y143343D01*
X268188Y143335D01*
X268096Y143299D01*
X268001Y143271D01*
X267948Y143241D01*
X267892Y143218D01*
X267812Y143160D01*
X267727Y143110D01*
X267651Y143044D01*
X267635Y143032D01*
X267627Y143022D01*
X267606Y143004D01*
X264644Y140041D01*
X264559Y139932D01*
X264470Y139825D01*
X264461Y139806D01*
X264449Y139790D01*
X264393Y139662D01*
X264334Y139537D01*
X264331Y139517D01*
X264323Y139498D01*
X264301Y139360D01*
X264275Y139224D01*
X264276Y139204D01*
X264273Y139184D01*
X264286Y139045D01*
X264294Y138907D01*
X264301Y138888D01*
X264302Y138868D01*
X264350Y138736D01*
X264392Y138605D01*
X264403Y138587D01*
X264410Y138568D01*
X264488Y138453D01*
X264563Y138336D01*
X264577Y138322D01*
X264589Y138305D01*
X264693Y138213D01*
X264794Y138118D01*
X264812Y138108D01*
X264827Y138095D01*
X264951Y138031D01*
X265073Y137964D01*
X265092Y137959D01*
X265110Y137950D01*
X265246Y137920D01*
X265381Y137885D01*
X265409Y137883D01*
X265421Y137880D01*
X265441Y137881D01*
X265541Y137875D01*
X272582Y137875D01*
X273475Y136982D01*
X273475Y129718D01*
X272582Y128825D01*
X265014Y128825D01*
X264896Y128810D01*
X264777Y128803D01*
X264739Y128790D01*
X264698Y128785D01*
X264588Y128742D01*
X264475Y128705D01*
X264440Y128683D01*
X264403Y128668D01*
X264307Y128599D01*
X264206Y128535D01*
X264178Y128505D01*
X264145Y128482D01*
X264069Y128390D01*
X263988Y128303D01*
X263968Y128268D01*
X263943Y128237D01*
X263892Y128129D01*
X263834Y128025D01*
X263824Y127985D01*
X263807Y127949D01*
X263785Y127832D01*
X263755Y127717D01*
X263751Y127657D01*
X263747Y127637D01*
X263749Y127616D01*
X263745Y127556D01*
X263745Y126444D01*
X263760Y126326D01*
X263767Y126207D01*
X263780Y126169D01*
X263785Y126128D01*
X263828Y126018D01*
X263865Y125905D01*
X263887Y125870D01*
X263902Y125833D01*
X263971Y125737D01*
X264035Y125636D01*
X264065Y125608D01*
X264088Y125575D01*
X264180Y125499D01*
X264267Y125418D01*
X264302Y125398D01*
X264333Y125373D01*
X264441Y125322D01*
X264545Y125264D01*
X264585Y125254D01*
X264621Y125237D01*
X264738Y125215D01*
X264853Y125185D01*
X264913Y125181D01*
X264933Y125177D01*
X264954Y125179D01*
X265014Y125175D01*
X272582Y125175D01*
X273475Y124282D01*
X273475Y117018D01*
X272582Y116125D01*
X249318Y116125D01*
X248425Y117018D01*
X248425Y124282D01*
X249318Y125175D01*
X256886Y125175D01*
X257004Y125190D01*
X257123Y125197D01*
X257161Y125210D01*
X257202Y125215D01*
X257312Y125258D01*
X257425Y125295D01*
X257460Y125317D01*
X257497Y125332D01*
X257593Y125401D01*
X257694Y125465D01*
X257722Y125495D01*
X257755Y125518D01*
X257831Y125610D01*
X257912Y125697D01*
X257932Y125732D01*
X257957Y125763D01*
X258008Y125871D01*
X258066Y125975D01*
X258076Y126015D01*
X258093Y126051D01*
X258115Y126168D01*
X258145Y126283D01*
X258149Y126343D01*
X258153Y126363D01*
X258151Y126384D01*
X258155Y126444D01*
X258155Y127556D01*
X258140Y127674D01*
X258133Y127793D01*
X258120Y127831D01*
X258115Y127872D01*
X258072Y127982D01*
X258035Y128095D01*
X258013Y128130D01*
X257998Y128167D01*
X257929Y128263D01*
X257865Y128364D01*
X257835Y128392D01*
X257812Y128425D01*
X257720Y128501D01*
X257633Y128582D01*
X257598Y128602D01*
X257567Y128627D01*
X257459Y128678D01*
X257355Y128736D01*
X257315Y128746D01*
X257279Y128763D01*
X257162Y128785D01*
X257047Y128815D01*
X256987Y128819D01*
X256967Y128823D01*
X256946Y128821D01*
X256886Y128825D01*
X249318Y128825D01*
X248425Y129718D01*
X248425Y136982D01*
X249318Y137875D01*
X256286Y137875D01*
X256404Y137890D01*
X256523Y137897D01*
X256561Y137910D01*
X256602Y137915D01*
X256712Y137958D01*
X256825Y137995D01*
X256860Y138017D01*
X256897Y138032D01*
X256993Y138101D01*
X257094Y138165D01*
X257122Y138195D01*
X257155Y138218D01*
X257231Y138310D01*
X257312Y138397D01*
X257332Y138432D01*
X257357Y138463D01*
X257408Y138571D01*
X257466Y138675D01*
X257476Y138715D01*
X257493Y138751D01*
X257515Y138868D01*
X257545Y138983D01*
X257549Y139043D01*
X257553Y139063D01*
X257551Y139084D01*
X257555Y139144D01*
X257555Y140858D01*
X257906Y141209D01*
X257991Y141318D01*
X258080Y141425D01*
X258089Y141444D01*
X258101Y141460D01*
X258157Y141588D01*
X258216Y141713D01*
X258219Y141733D01*
X258227Y141752D01*
X258249Y141890D01*
X258275Y142026D01*
X258274Y142046D01*
X258277Y142066D01*
X258264Y142205D01*
X258256Y142343D01*
X258249Y142362D01*
X258248Y142382D01*
X258200Y142513D01*
X258158Y142645D01*
X258147Y142663D01*
X258140Y142682D01*
X258062Y142796D01*
X257987Y142914D01*
X257973Y142928D01*
X257961Y142945D01*
X257857Y143037D01*
X257756Y143132D01*
X257738Y143142D01*
X257723Y143155D01*
X257599Y143218D01*
X257477Y143286D01*
X257458Y143291D01*
X257440Y143300D01*
X257304Y143330D01*
X257169Y143365D01*
X257141Y143367D01*
X257129Y143370D01*
X257109Y143369D01*
X257009Y143375D01*
X246804Y143375D01*
X246418Y143761D01*
X246324Y143834D01*
X246235Y143913D01*
X246199Y143931D01*
X246167Y143956D01*
X246058Y144003D01*
X245952Y144057D01*
X245912Y144066D01*
X245875Y144082D01*
X245757Y144101D01*
X245642Y144127D01*
X245601Y144126D01*
X245561Y144132D01*
X245443Y144121D01*
X245324Y144117D01*
X245285Y144106D01*
X245245Y144102D01*
X245132Y144062D01*
X245018Y144029D01*
X244983Y144009D01*
X244945Y143995D01*
X244847Y143928D01*
X244744Y143868D01*
X244699Y143828D01*
X244682Y143816D01*
X244669Y143801D01*
X244623Y143761D01*
X222215Y121353D01*
X222142Y121258D01*
X222063Y121169D01*
X222045Y121133D01*
X222020Y121101D01*
X221973Y120992D01*
X221918Y120886D01*
X221910Y120847D01*
X221894Y120809D01*
X221875Y120692D01*
X221849Y120576D01*
X221850Y120535D01*
X221844Y120495D01*
X221855Y120377D01*
X221858Y120258D01*
X221870Y120219D01*
X221874Y120179D01*
X221914Y120066D01*
X221947Y119952D01*
X221967Y119918D01*
X221981Y119879D01*
X222048Y119781D01*
X222108Y119678D01*
X222148Y119633D01*
X222160Y119616D01*
X222175Y119603D01*
X222215Y119558D01*
X242825Y98948D01*
X242825Y75495D01*
X242831Y75445D01*
X242829Y75396D01*
X242851Y75288D01*
X242865Y75179D01*
X242883Y75133D01*
X242893Y75084D01*
X242941Y74986D01*
X242982Y74884D01*
X243011Y74844D01*
X243033Y74799D01*
X243104Y74715D01*
X243168Y74626D01*
X243207Y74595D01*
X243239Y74557D01*
X243329Y74493D01*
X243413Y74423D01*
X243458Y74402D01*
X243499Y74374D01*
X243602Y74335D01*
X243701Y74288D01*
X243750Y74279D01*
X243796Y74261D01*
X243906Y74249D01*
X244013Y74228D01*
X244063Y74231D01*
X244112Y74226D01*
X244221Y74241D01*
X244331Y74248D01*
X244378Y74263D01*
X244427Y74270D01*
X244580Y74322D01*
X246594Y75157D01*
X248706Y75157D01*
X250360Y74471D01*
X250369Y74469D01*
X250377Y74464D01*
X250523Y74427D01*
X250667Y74387D01*
X250676Y74387D01*
X250685Y74385D01*
X250846Y74375D01*
X272582Y74375D01*
X273617Y73339D01*
X273632Y73303D01*
X273702Y73206D01*
X273765Y73106D01*
X273795Y73078D01*
X273818Y73045D01*
X273910Y72969D01*
X273997Y72888D01*
X274032Y72868D01*
X274063Y72843D01*
X274171Y72792D01*
X274275Y72734D01*
X274315Y72724D01*
X274351Y72707D01*
X274468Y72685D01*
X274583Y72655D01*
X274643Y72651D01*
X274663Y72647D01*
X274684Y72649D01*
X274744Y72645D01*
X281806Y72645D01*
X281924Y72660D01*
X282043Y72667D01*
X282081Y72680D01*
X282122Y72685D01*
X282232Y72728D01*
X282345Y72765D01*
X282380Y72787D01*
X282417Y72802D01*
X282513Y72871D01*
X282614Y72935D01*
X282642Y72965D01*
X282675Y72988D01*
X282751Y73080D01*
X282832Y73167D01*
X282852Y73202D01*
X282877Y73233D01*
X282928Y73341D01*
X282986Y73445D01*
X282996Y73485D01*
X283013Y73521D01*
X283035Y73638D01*
X283065Y73753D01*
X283069Y73813D01*
X283073Y73833D01*
X283071Y73854D01*
X283075Y73914D01*
X283075Y77046D01*
X283618Y77589D01*
X283703Y77698D01*
X283792Y77805D01*
X283801Y77824D01*
X283813Y77840D01*
X283868Y77968D01*
X283927Y78093D01*
X283931Y78113D01*
X283939Y78132D01*
X283961Y78270D01*
X283987Y78406D01*
X283986Y78426D01*
X283989Y78446D01*
X283976Y78584D01*
X283967Y78723D01*
X283961Y78742D01*
X283959Y78762D01*
X283912Y78894D01*
X283869Y79025D01*
X283859Y79043D01*
X283852Y79062D01*
X283774Y79177D01*
X283699Y79294D01*
X283685Y79308D01*
X283673Y79325D01*
X283569Y79417D01*
X283468Y79512D01*
X283450Y79522D01*
X283435Y79535D01*
X283311Y79598D01*
X283189Y79666D01*
X283170Y79671D01*
X283152Y79680D01*
X283016Y79710D01*
X282881Y79745D01*
X282853Y79747D01*
X282841Y79750D01*
X282821Y79749D01*
X282721Y79755D01*
X274744Y79755D01*
X274626Y79740D01*
X274507Y79733D01*
X274469Y79720D01*
X274428Y79715D01*
X274318Y79672D01*
X274205Y79635D01*
X274170Y79613D01*
X274133Y79598D01*
X274037Y79529D01*
X273936Y79465D01*
X273908Y79435D01*
X273875Y79412D01*
X273799Y79320D01*
X273718Y79233D01*
X273698Y79198D01*
X273673Y79167D01*
X273628Y79072D01*
X272582Y78025D01*
X249318Y78025D01*
X248425Y78918D01*
X248425Y86182D01*
X249318Y87075D01*
X272582Y87075D01*
X273617Y86039D01*
X273632Y86003D01*
X273701Y85907D01*
X273765Y85806D01*
X273795Y85778D01*
X273818Y85745D01*
X273910Y85669D01*
X273997Y85588D01*
X274032Y85568D01*
X274063Y85543D01*
X274171Y85492D01*
X274275Y85434D01*
X274315Y85424D01*
X274351Y85407D01*
X274468Y85385D01*
X274583Y85355D01*
X274643Y85351D01*
X274663Y85347D01*
X274684Y85349D01*
X274744Y85345D01*
X333597Y85345D01*
X333695Y85357D01*
X333794Y85360D01*
X333852Y85377D01*
X333912Y85385D01*
X334004Y85421D01*
X334099Y85449D01*
X334152Y85479D01*
X334208Y85502D01*
X334288Y85560D01*
X334373Y85610D01*
X334449Y85676D01*
X334465Y85688D01*
X334473Y85698D01*
X334494Y85716D01*
X365570Y116793D01*
X365643Y116887D01*
X365722Y116976D01*
X365740Y117012D01*
X365765Y117044D01*
X365812Y117153D01*
X365867Y117259D01*
X365875Y117298D01*
X365891Y117336D01*
X365910Y117453D01*
X365936Y117569D01*
X365935Y117610D01*
X365941Y117650D01*
X365930Y117768D01*
X365927Y117887D01*
X365915Y117926D01*
X365911Y117966D01*
X365871Y118079D01*
X365838Y118193D01*
X365818Y118228D01*
X365804Y118266D01*
X365737Y118364D01*
X365677Y118467D01*
X365637Y118512D01*
X365625Y118529D01*
X365610Y118542D01*
X365570Y118588D01*
X351694Y132464D01*
X351616Y132524D01*
X351544Y132592D01*
X351491Y132621D01*
X351443Y132658D01*
X351352Y132698D01*
X351265Y132746D01*
X351207Y132761D01*
X351151Y132785D01*
X351053Y132800D01*
X350957Y132825D01*
X350857Y132831D01*
X350837Y132835D01*
X350825Y132833D01*
X350797Y132835D01*
X346058Y132835D01*
X344725Y134168D01*
X344725Y143552D01*
X346058Y144885D01*
X352442Y144885D01*
X353775Y143552D01*
X353775Y138813D01*
X353787Y138715D01*
X353790Y138616D01*
X353807Y138558D01*
X353815Y138498D01*
X353851Y138406D01*
X353879Y138311D01*
X353909Y138258D01*
X353932Y138202D01*
X353990Y138122D01*
X354040Y138037D01*
X354106Y137961D01*
X354118Y137945D01*
X354128Y137937D01*
X354146Y137916D01*
X369809Y122254D01*
X369918Y122169D01*
X370025Y122080D01*
X370044Y122071D01*
X370060Y122059D01*
X370188Y122003D01*
X370313Y121944D01*
X370333Y121941D01*
X370352Y121933D01*
X370490Y121911D01*
X370626Y121885D01*
X370646Y121886D01*
X370666Y121883D01*
X370805Y121896D01*
X370943Y121904D01*
X370962Y121911D01*
X370982Y121912D01*
X371114Y121960D01*
X371245Y122002D01*
X371263Y122013D01*
X371282Y122020D01*
X371397Y122098D01*
X371514Y122173D01*
X371528Y122187D01*
X371545Y122199D01*
X371637Y122303D01*
X371732Y122404D01*
X371742Y122422D01*
X371755Y122437D01*
X371819Y122561D01*
X371886Y122683D01*
X371891Y122702D01*
X371900Y122720D01*
X371930Y122856D01*
X371965Y122991D01*
X371967Y123019D01*
X371970Y123031D01*
X371969Y123051D01*
X371975Y123151D01*
X371975Y123546D01*
X373454Y125025D01*
X388546Y125025D01*
X389754Y123816D01*
X389832Y123756D01*
X389904Y123688D01*
X389957Y123659D01*
X390005Y123622D01*
X390096Y123582D01*
X390183Y123534D01*
X390241Y123519D01*
X390297Y123495D01*
X390395Y123480D01*
X390491Y123455D01*
X390591Y123449D01*
X390611Y123445D01*
X390623Y123447D01*
X390651Y123445D01*
X400701Y123445D01*
X400730Y123448D01*
X400760Y123446D01*
X400888Y123468D01*
X401017Y123485D01*
X401044Y123495D01*
X401073Y123500D01*
X401192Y123554D01*
X401312Y123602D01*
X401336Y123619D01*
X401363Y123631D01*
X401465Y123712D01*
X401570Y123788D01*
X401589Y123811D01*
X401612Y123830D01*
X401690Y123933D01*
X401773Y124033D01*
X401785Y124060D01*
X401803Y124084D01*
X401874Y124228D01*
X402671Y126154D01*
X405405Y128887D01*
X408976Y130366D01*
X429224Y130366D01*
X432795Y128887D01*
X435529Y126154D01*
X437008Y122583D01*
X437008Y118717D01*
X435529Y115146D01*
X432795Y112413D01*
X429224Y110934D01*
X408976Y110934D01*
X405405Y112413D01*
X402671Y115146D01*
X401874Y117072D01*
X401859Y117097D01*
X401850Y117125D01*
X401781Y117235D01*
X401716Y117348D01*
X401696Y117369D01*
X401680Y117394D01*
X401585Y117483D01*
X401495Y117576D01*
X401470Y117592D01*
X401448Y117612D01*
X401335Y117675D01*
X401224Y117743D01*
X401196Y117751D01*
X401170Y117766D01*
X401044Y117798D01*
X400920Y117836D01*
X400891Y117838D01*
X400862Y117845D01*
X400701Y117855D01*
X391294Y117855D01*
X391176Y117840D01*
X391057Y117833D01*
X391019Y117820D01*
X390978Y117815D01*
X390868Y117772D01*
X390755Y117735D01*
X390720Y117713D01*
X390683Y117698D01*
X390587Y117629D01*
X390486Y117565D01*
X390458Y117535D01*
X390425Y117512D01*
X390349Y117420D01*
X390268Y117333D01*
X390248Y117298D01*
X390223Y117267D01*
X390172Y117159D01*
X390114Y117055D01*
X390104Y117015D01*
X390087Y116979D01*
X390065Y116862D01*
X390035Y116747D01*
X390031Y116687D01*
X390027Y116667D01*
X390029Y116646D01*
X390025Y116586D01*
X390025Y113454D01*
X388546Y111975D01*
X373454Y111975D01*
X371953Y113476D01*
X371859Y113549D01*
X371770Y113628D01*
X371734Y113646D01*
X371702Y113671D01*
X371593Y113718D01*
X371487Y113772D01*
X371447Y113781D01*
X371410Y113797D01*
X371293Y113816D01*
X371177Y113842D01*
X371136Y113841D01*
X371096Y113847D01*
X370978Y113836D01*
X370859Y113832D01*
X370820Y113821D01*
X370780Y113817D01*
X370667Y113777D01*
X370553Y113744D01*
X370518Y113724D01*
X370480Y113710D01*
X370382Y113643D01*
X370279Y113583D01*
X370234Y113543D01*
X370217Y113531D01*
X370204Y113516D01*
X370158Y113476D01*
X336438Y79755D01*
X301479Y79755D01*
X301341Y79738D01*
X301203Y79725D01*
X301184Y79718D01*
X301164Y79715D01*
X301035Y79664D01*
X300904Y79617D01*
X300887Y79606D01*
X300868Y79598D01*
X300756Y79517D01*
X300641Y79439D01*
X300627Y79423D01*
X300611Y79412D01*
X300522Y79304D01*
X300430Y79200D01*
X300421Y79182D01*
X300408Y79167D01*
X300349Y79041D01*
X300286Y78917D01*
X300281Y78897D01*
X300273Y78879D01*
X300246Y78742D01*
X300216Y78607D01*
X300217Y78586D01*
X300213Y78567D01*
X300221Y78428D01*
X300226Y78289D01*
X300231Y78269D01*
X300233Y78249D01*
X300275Y78117D01*
X300314Y77983D01*
X300324Y77966D01*
X300331Y77947D01*
X300405Y77829D01*
X300476Y77709D01*
X300494Y77688D01*
X300501Y77678D01*
X300516Y77664D01*
X300582Y77589D01*
X301125Y77046D01*
X301125Y66954D01*
X299646Y65475D01*
X284554Y65475D01*
X283346Y66684D01*
X283268Y66744D01*
X283196Y66812D01*
X283143Y66841D01*
X283095Y66878D01*
X283004Y66918D01*
X282917Y66966D01*
X282859Y66981D01*
X282803Y67005D01*
X282705Y67020D01*
X282609Y67045D01*
X282509Y67051D01*
X282489Y67055D01*
X282477Y67053D01*
X282449Y67055D01*
X274744Y67055D01*
X274626Y67040D01*
X274507Y67033D01*
X274469Y67020D01*
X274428Y67015D01*
X274318Y66972D01*
X274205Y66935D01*
X274170Y66913D01*
X274133Y66898D01*
X274037Y66829D01*
X273936Y66765D01*
X273908Y66735D01*
X273875Y66712D01*
X273799Y66620D01*
X273718Y66533D01*
X273698Y66498D01*
X273673Y66467D01*
X273628Y66372D01*
X272582Y65325D01*
X252841Y65325D01*
X252703Y65308D01*
X252565Y65295D01*
X252546Y65288D01*
X252526Y65285D01*
X252397Y65234D01*
X252266Y65187D01*
X252249Y65176D01*
X252230Y65168D01*
X252118Y65087D01*
X252003Y65009D01*
X251989Y64993D01*
X251973Y64982D01*
X251884Y64874D01*
X251792Y64770D01*
X251783Y64752D01*
X251770Y64737D01*
X251711Y64611D01*
X251647Y64487D01*
X251643Y64467D01*
X251634Y64449D01*
X251608Y64312D01*
X251578Y64177D01*
X251578Y64156D01*
X251575Y64137D01*
X251583Y63998D01*
X251587Y63859D01*
X251593Y63839D01*
X251594Y63819D01*
X251637Y63687D01*
X251676Y63553D01*
X251686Y63536D01*
X251692Y63517D01*
X251767Y63399D01*
X251837Y63279D01*
X251856Y63258D01*
X251863Y63248D01*
X251878Y63234D01*
X251944Y63159D01*
X253056Y62046D01*
X253134Y61986D01*
X253206Y61918D01*
X253259Y61889D01*
X253307Y61852D01*
X253398Y61812D01*
X253485Y61764D01*
X253543Y61749D01*
X253599Y61725D01*
X253697Y61710D01*
X253793Y61685D01*
X253893Y61679D01*
X253913Y61675D01*
X253925Y61677D01*
X253953Y61675D01*
X272582Y61675D01*
X273617Y60639D01*
X273632Y60603D01*
X273701Y60507D01*
X273765Y60406D01*
X273795Y60378D01*
X273818Y60345D01*
X273910Y60269D01*
X273997Y60188D01*
X274032Y60168D01*
X274063Y60143D01*
X274171Y60092D01*
X274275Y60034D01*
X274315Y60024D01*
X274351Y60007D01*
X274468Y59985D01*
X274583Y59955D01*
X274643Y59951D01*
X274663Y59947D01*
X274684Y59949D01*
X274744Y59945D01*
X282448Y59945D01*
X282547Y59957D01*
X282646Y59960D01*
X282704Y59977D01*
X282764Y59985D01*
X282856Y60021D01*
X282951Y60049D01*
X283003Y60079D01*
X283060Y60102D01*
X283140Y60160D01*
X283225Y60210D01*
X283301Y60276D01*
X283317Y60288D01*
X283325Y60298D01*
X283346Y60316D01*
X284554Y61525D01*
X299646Y61525D01*
X301125Y60046D01*
X301125Y49954D01*
X299646Y48475D01*
X284554Y48475D01*
X283075Y49954D01*
X283075Y53086D01*
X283060Y53204D01*
X283053Y53323D01*
X283040Y53361D01*
X283035Y53402D01*
X282992Y53512D01*
X282955Y53625D01*
X282933Y53660D01*
X282918Y53697D01*
X282849Y53793D01*
X282785Y53894D01*
X282755Y53922D01*
X282732Y53955D01*
X282640Y54031D01*
X282553Y54112D01*
X282518Y54132D01*
X282487Y54157D01*
X282379Y54208D01*
X282275Y54266D01*
X282235Y54276D01*
X282199Y54293D01*
X282082Y54315D01*
X281967Y54345D01*
X281907Y54349D01*
X281887Y54353D01*
X281866Y54351D01*
X281806Y54355D01*
X274744Y54355D01*
X274626Y54340D01*
X274507Y54333D01*
X274469Y54320D01*
X274428Y54315D01*
X274318Y54272D01*
X274205Y54235D01*
X274170Y54213D01*
X274133Y54198D01*
X274037Y54129D01*
X273936Y54065D01*
X273908Y54035D01*
X273875Y54012D01*
X273799Y53920D01*
X273718Y53833D01*
X273698Y53798D01*
X273673Y53767D01*
X273628Y53672D01*
X272582Y52625D01*
X249318Y52625D01*
X248425Y53518D01*
X248425Y58247D01*
X248413Y58345D01*
X248410Y58444D01*
X248393Y58502D01*
X248385Y58562D01*
X248349Y58654D01*
X248321Y58749D01*
X248291Y58802D01*
X248268Y58858D01*
X248210Y58938D01*
X248160Y59023D01*
X248094Y59099D01*
X248082Y59115D01*
X248072Y59123D01*
X248054Y59144D01*
X247090Y60108D01*
X247012Y60168D01*
X246940Y60236D01*
X246887Y60265D01*
X246839Y60302D01*
X246748Y60342D01*
X246661Y60390D01*
X246603Y60405D01*
X246547Y60429D01*
X246449Y60444D01*
X246353Y60469D01*
X246253Y60475D01*
X246233Y60479D01*
X246221Y60477D01*
X246193Y60479D01*
X243769Y60479D01*
X237235Y67013D01*
X237235Y96107D01*
X237223Y96205D01*
X237220Y96304D01*
X237203Y96362D01*
X237195Y96422D01*
X237159Y96514D01*
X237131Y96609D01*
X237101Y96662D01*
X237078Y96718D01*
X237020Y96798D01*
X236970Y96883D01*
X236904Y96959D01*
X236892Y96975D01*
X236882Y96983D01*
X236864Y97004D01*
X223641Y110226D01*
X223532Y110311D01*
X223425Y110400D01*
X223406Y110409D01*
X223390Y110421D01*
X223262Y110477D01*
X223137Y110536D01*
X223117Y110539D01*
X223098Y110547D01*
X222960Y110569D01*
X222824Y110595D01*
X222804Y110594D01*
X222784Y110597D01*
X222645Y110584D01*
X222507Y110576D01*
X222488Y110569D01*
X222468Y110568D01*
X222336Y110520D01*
X222205Y110478D01*
X222187Y110467D01*
X222168Y110460D01*
X222053Y110382D01*
X221936Y110307D01*
X221922Y110293D01*
X221905Y110281D01*
X221813Y110177D01*
X221718Y110076D01*
X221708Y110058D01*
X221695Y110043D01*
X221631Y109919D01*
X221564Y109797D01*
X221559Y109778D01*
X221550Y109760D01*
X221520Y109624D01*
X221485Y109489D01*
X221483Y109461D01*
X221480Y109449D01*
X221481Y109429D01*
X221475Y109329D01*
X221475Y104318D01*
X220582Y103425D01*
X197318Y103425D01*
X196425Y104318D01*
X196425Y108205D01*
X196413Y108304D01*
X196410Y108403D01*
X196393Y108461D01*
X196385Y108521D01*
X196349Y108613D01*
X196321Y108708D01*
X196291Y108760D01*
X196268Y108817D01*
X196210Y108897D01*
X196160Y108982D01*
X196094Y109057D01*
X196082Y109074D01*
X196072Y109082D01*
X196054Y109103D01*
X191091Y114065D01*
X191091Y119031D01*
X191079Y119129D01*
X191076Y119228D01*
X191059Y119286D01*
X191051Y119346D01*
X191015Y119438D01*
X190987Y119533D01*
X190957Y119586D01*
X190934Y119642D01*
X190876Y119722D01*
X190826Y119807D01*
X190760Y119883D01*
X190748Y119899D01*
X190738Y119907D01*
X190720Y119928D01*
X180553Y130095D01*
X180475Y130155D01*
X180403Y130223D01*
X180350Y130252D01*
X180302Y130289D01*
X180211Y130329D01*
X180124Y130377D01*
X180066Y130392D01*
X180010Y130416D01*
X179912Y130431D01*
X179816Y130456D01*
X179716Y130462D01*
X179696Y130466D01*
X179684Y130464D01*
X179656Y130466D01*
X170359Y130466D01*
X169172Y131653D01*
X169088Y131718D01*
X169038Y131766D01*
X169026Y131772D01*
X168989Y131805D01*
X168953Y131823D01*
X168921Y131848D01*
X168812Y131896D01*
X168706Y131950D01*
X168667Y131958D01*
X168629Y131974D01*
X168512Y131993D01*
X168396Y132019D01*
X168355Y132018D01*
X168315Y132024D01*
X168197Y132013D01*
X168078Y132010D01*
X168039Y131998D01*
X167999Y131995D01*
X167887Y131954D01*
X167772Y131921D01*
X167737Y131901D01*
X167699Y131887D01*
X167648Y131852D01*
X167645Y131850D01*
X167601Y131820D01*
X167498Y131760D01*
X167453Y131720D01*
X167436Y131708D01*
X167423Y131693D01*
X167394Y131668D01*
X167390Y131665D01*
X167388Y131663D01*
X167377Y131653D01*
X166191Y130466D01*
X151309Y130466D01*
X150388Y131388D01*
X150386Y131408D01*
X150379Y131427D01*
X150376Y131447D01*
X150325Y131576D01*
X150278Y131707D01*
X150267Y131724D01*
X150259Y131743D01*
X150178Y131855D01*
X150100Y131970D01*
X150084Y131984D01*
X150073Y132000D01*
X149965Y132089D01*
X149861Y132181D01*
X149843Y132190D01*
X149828Y132203D01*
X149702Y132262D01*
X149578Y132325D01*
X149558Y132330D01*
X149540Y132338D01*
X149403Y132365D01*
X149268Y132395D01*
X149247Y132394D01*
X149228Y132398D01*
X149089Y132390D01*
X148950Y132385D01*
X148930Y132380D01*
X148910Y132378D01*
X148778Y132336D01*
X148644Y132297D01*
X148627Y132287D01*
X148608Y132280D01*
X148490Y132206D01*
X148370Y132135D01*
X148349Y132117D01*
X148339Y132110D01*
X148325Y132095D01*
X148250Y132029D01*
X147246Y131025D01*
X132154Y131025D01*
X130675Y132504D01*
X130675Y138019D01*
X130658Y138156D01*
X130645Y138295D01*
X130638Y138314D01*
X130635Y138334D01*
X130584Y138463D01*
X130537Y138594D01*
X130526Y138611D01*
X130518Y138630D01*
X130437Y138742D01*
X130359Y138857D01*
X130343Y138871D01*
X130332Y138887D01*
X130224Y138976D01*
X130120Y139068D01*
X130102Y139077D01*
X130087Y139090D01*
X129961Y139149D01*
X129837Y139213D01*
X129817Y139217D01*
X129799Y139226D01*
X129663Y139252D01*
X129527Y139282D01*
X129506Y139282D01*
X129487Y139285D01*
X129348Y139277D01*
X129209Y139273D01*
X129189Y139267D01*
X129169Y139266D01*
X129037Y139223D01*
X128903Y139184D01*
X128886Y139174D01*
X128867Y139168D01*
X128749Y139093D01*
X128629Y139023D01*
X128608Y139004D01*
X128598Y138997D01*
X128584Y138982D01*
X128509Y138916D01*
X122546Y132954D01*
X120538Y130945D01*
X99194Y130945D01*
X99076Y130930D01*
X98957Y130923D01*
X98919Y130910D01*
X98878Y130905D01*
X98768Y130862D01*
X98655Y130825D01*
X98620Y130803D01*
X98583Y130788D01*
X98487Y130719D01*
X98386Y130655D01*
X98358Y130625D01*
X98325Y130602D01*
X98249Y130510D01*
X98168Y130423D01*
X98148Y130388D01*
X98123Y130357D01*
X98072Y130249D01*
X98014Y130145D01*
X98004Y130105D01*
X97987Y130069D01*
X97965Y129952D01*
X97935Y129837D01*
X97931Y129777D01*
X97927Y129757D01*
X97929Y129736D01*
X97925Y129676D01*
X97925Y128694D01*
X96446Y127215D01*
X90403Y127215D01*
X90265Y127198D01*
X90126Y127185D01*
X90107Y127178D01*
X90087Y127175D01*
X89958Y127124D01*
X89827Y127077D01*
X89810Y127066D01*
X89791Y127058D01*
X89679Y126977D01*
X89564Y126899D01*
X89550Y126883D01*
X89534Y126872D01*
X89445Y126764D01*
X89353Y126660D01*
X89344Y126642D01*
X89331Y126627D01*
X89272Y126501D01*
X89209Y126377D01*
X89204Y126357D01*
X89196Y126339D01*
X89169Y126202D01*
X89139Y126067D01*
X89140Y126046D01*
X89136Y126027D01*
X89145Y125888D01*
X89149Y125749D01*
X89154Y125729D01*
X89156Y125709D01*
X89198Y125577D01*
X89237Y125443D01*
X89247Y125426D01*
X89254Y125407D01*
X89328Y125289D01*
X89399Y125169D01*
X89417Y125148D01*
X89424Y125138D01*
X89439Y125124D01*
X89505Y125049D01*
X93681Y120873D01*
X93764Y120808D01*
X93842Y120737D01*
X93889Y120711D01*
X93932Y120678D01*
X94029Y120636D01*
X94122Y120586D01*
X94174Y120573D01*
X94224Y120552D01*
X94328Y120535D01*
X94431Y120510D01*
X94485Y120510D01*
X94538Y120502D01*
X94643Y120512D01*
X94749Y120513D01*
X94833Y120530D01*
X94854Y120532D01*
X94869Y120537D01*
X94907Y120545D01*
X95266Y120641D01*
X99061Y120641D01*
X99061Y113370D01*
X99076Y113252D01*
X99083Y113133D01*
X99096Y113095D01*
X99101Y113055D01*
X99144Y112944D01*
X99181Y112831D01*
X99203Y112796D01*
X99218Y112759D01*
X99288Y112663D01*
X99351Y112562D01*
X99381Y112534D01*
X99405Y112502D01*
X99496Y112426D01*
X99583Y112344D01*
X99618Y112325D01*
X99649Y112299D01*
X99757Y112248D01*
X99861Y112191D01*
X99901Y112180D01*
X99937Y112163D01*
X100054Y112141D01*
X100169Y112111D01*
X100230Y112107D01*
X100250Y112103D01*
X100270Y112105D01*
X100330Y112101D01*
X102870Y112101D01*
X102988Y112116D01*
X103107Y112123D01*
X103145Y112136D01*
X103185Y112141D01*
X103296Y112185D01*
X103409Y112221D01*
X103444Y112243D01*
X103481Y112258D01*
X103577Y112328D01*
X103678Y112391D01*
X103706Y112421D01*
X103738Y112445D01*
X103814Y112536D01*
X103896Y112623D01*
X103915Y112658D01*
X103941Y112690D01*
X103992Y112797D01*
X104049Y112901D01*
X104060Y112941D01*
X104077Y112977D01*
X104099Y113094D01*
X104129Y113209D01*
X104133Y113270D01*
X104137Y113290D01*
X104135Y113310D01*
X104139Y113370D01*
X104139Y120641D01*
X107934Y120641D01*
X108581Y120468D01*
X109160Y120133D01*
X109633Y119660D01*
X109968Y119081D01*
X110141Y118434D01*
X110141Y116725D01*
X110158Y116587D01*
X110171Y116449D01*
X110178Y116430D01*
X110181Y116410D01*
X110232Y116281D01*
X110279Y116150D01*
X110290Y116133D01*
X110298Y116114D01*
X110379Y116002D01*
X110457Y115887D01*
X110473Y115873D01*
X110484Y115857D01*
X110592Y115768D01*
X110696Y115676D01*
X110714Y115667D01*
X110729Y115654D01*
X110855Y115595D01*
X110979Y115532D01*
X110999Y115527D01*
X111017Y115519D01*
X111154Y115492D01*
X111289Y115462D01*
X111310Y115463D01*
X111329Y115459D01*
X111468Y115467D01*
X111607Y115472D01*
X111627Y115477D01*
X111647Y115479D01*
X111779Y115521D01*
X111913Y115560D01*
X111930Y115570D01*
X111949Y115577D01*
X112067Y115651D01*
X112187Y115722D01*
X112208Y115740D01*
X112218Y115747D01*
X112232Y115762D01*
X112307Y115828D01*
X113104Y116625D01*
X128196Y116625D01*
X129200Y115621D01*
X129309Y115536D01*
X129416Y115447D01*
X129435Y115438D01*
X129451Y115426D01*
X129578Y115371D01*
X129704Y115312D01*
X129724Y115308D01*
X129743Y115300D01*
X129881Y115278D01*
X130017Y115252D01*
X130037Y115253D01*
X130057Y115250D01*
X130196Y115263D01*
X130334Y115272D01*
X130353Y115278D01*
X130373Y115280D01*
X130505Y115327D01*
X130636Y115370D01*
X130654Y115380D01*
X130673Y115387D01*
X130788Y115465D01*
X130905Y115540D01*
X130919Y115554D01*
X130936Y115566D01*
X131028Y115670D01*
X131123Y115771D01*
X131133Y115789D01*
X131146Y115804D01*
X131210Y115928D01*
X131277Y116050D01*
X131282Y116069D01*
X131291Y116087D01*
X131321Y116223D01*
X131329Y116253D01*
X132259Y117184D01*
X147141Y117184D01*
X148327Y115997D01*
X148422Y115924D01*
X148511Y115845D01*
X148547Y115827D01*
X148579Y115802D01*
X148688Y115755D01*
X148794Y115700D01*
X148833Y115692D01*
X148871Y115676D01*
X148988Y115657D01*
X149104Y115631D01*
X149145Y115632D01*
X149185Y115626D01*
X149303Y115637D01*
X149422Y115640D01*
X149461Y115652D01*
X149501Y115655D01*
X149614Y115696D01*
X149728Y115729D01*
X149762Y115749D01*
X149801Y115763D01*
X149899Y115830D01*
X150002Y115890D01*
X150047Y115930D01*
X150064Y115942D01*
X150077Y115957D01*
X150122Y115997D01*
X151309Y117184D01*
X166191Y117184D01*
X167112Y116262D01*
X167114Y116242D01*
X167121Y116223D01*
X167124Y116203D01*
X167175Y116074D01*
X167222Y115943D01*
X167233Y115926D01*
X167241Y115907D01*
X167322Y115795D01*
X167400Y115680D01*
X167416Y115666D01*
X167427Y115650D01*
X167535Y115561D01*
X167639Y115469D01*
X167657Y115460D01*
X167672Y115447D01*
X167798Y115388D01*
X167922Y115325D01*
X167942Y115320D01*
X167960Y115312D01*
X168097Y115285D01*
X168232Y115255D01*
X168253Y115256D01*
X168272Y115252D01*
X168411Y115260D01*
X168550Y115265D01*
X168570Y115270D01*
X168590Y115272D01*
X168722Y115314D01*
X168856Y115353D01*
X168873Y115363D01*
X168892Y115370D01*
X169010Y115444D01*
X169130Y115515D01*
X169151Y115533D01*
X169161Y115540D01*
X169175Y115555D01*
X169250Y115621D01*
X170254Y116625D01*
X185346Y116625D01*
X186825Y115146D01*
X186825Y105054D01*
X185346Y103575D01*
X170254Y103575D01*
X168649Y105180D01*
X168555Y105253D01*
X168466Y105332D01*
X168430Y105350D01*
X168398Y105375D01*
X168289Y105422D01*
X168183Y105476D01*
X168143Y105485D01*
X168106Y105501D01*
X167989Y105520D01*
X167873Y105546D01*
X167832Y105545D01*
X167792Y105551D01*
X167674Y105540D01*
X167555Y105536D01*
X167516Y105525D01*
X167476Y105521D01*
X167363Y105481D01*
X167249Y105448D01*
X167214Y105428D01*
X167176Y105414D01*
X167078Y105347D01*
X166975Y105287D01*
X166930Y105247D01*
X166913Y105235D01*
X166900Y105220D01*
X166854Y105180D01*
X166191Y104516D01*
X151309Y104516D01*
X150122Y105703D01*
X150028Y105776D01*
X149939Y105855D01*
X149903Y105873D01*
X149871Y105898D01*
X149762Y105946D01*
X149656Y106000D01*
X149617Y106008D01*
X149579Y106024D01*
X149462Y106043D01*
X149346Y106069D01*
X149305Y106068D01*
X149265Y106074D01*
X149147Y106063D01*
X149028Y106060D01*
X148989Y106048D01*
X148949Y106045D01*
X148837Y106004D01*
X148722Y105971D01*
X148687Y105951D01*
X148649Y105937D01*
X148551Y105870D01*
X148448Y105810D01*
X148403Y105770D01*
X148386Y105758D01*
X148373Y105743D01*
X148327Y105703D01*
X147141Y104516D01*
X132259Y104516D01*
X131596Y105180D01*
X131502Y105253D01*
X131412Y105332D01*
X131376Y105350D01*
X131344Y105375D01*
X131235Y105422D01*
X131129Y105476D01*
X131090Y105485D01*
X131052Y105501D01*
X130935Y105520D01*
X130819Y105546D01*
X130778Y105545D01*
X130738Y105551D01*
X130620Y105540D01*
X130501Y105536D01*
X130462Y105525D01*
X130422Y105521D01*
X130310Y105481D01*
X130195Y105448D01*
X130161Y105428D01*
X130122Y105414D01*
X130024Y105347D01*
X129921Y105287D01*
X129876Y105247D01*
X129859Y105235D01*
X129846Y105220D01*
X129801Y105180D01*
X128196Y103575D01*
X113104Y103575D01*
X111720Y104959D01*
X111621Y105036D01*
X111526Y105119D01*
X111496Y105134D01*
X111469Y105154D01*
X111354Y105204D01*
X111241Y105260D01*
X111208Y105267D01*
X111177Y105281D01*
X111053Y105300D01*
X110930Y105327D01*
X110896Y105325D01*
X110863Y105330D01*
X110737Y105319D01*
X110612Y105314D01*
X110580Y105304D01*
X110546Y105301D01*
X110428Y105258D01*
X110308Y105222D01*
X110279Y105204D01*
X110247Y105193D01*
X110143Y105122D01*
X110035Y105057D01*
X110012Y105033D01*
X109984Y105014D01*
X109901Y104920D01*
X109813Y104830D01*
X109785Y104790D01*
X109773Y104776D01*
X109764Y104757D01*
X109723Y104696D01*
X109633Y104540D01*
X109160Y104067D01*
X108581Y103732D01*
X107934Y103559D01*
X104139Y103559D01*
X104139Y110830D01*
X104124Y110948D01*
X104117Y111067D01*
X104104Y111105D01*
X104099Y111145D01*
X104055Y111256D01*
X104019Y111369D01*
X103997Y111404D01*
X103982Y111441D01*
X103912Y111537D01*
X103849Y111638D01*
X103819Y111666D01*
X103795Y111698D01*
X103704Y111774D01*
X103617Y111856D01*
X103582Y111875D01*
X103550Y111901D01*
X103443Y111952D01*
X103339Y112009D01*
X103299Y112020D01*
X103263Y112037D01*
X103146Y112059D01*
X103031Y112089D01*
X102970Y112093D01*
X102950Y112097D01*
X102930Y112095D01*
X102870Y112099D01*
X100330Y112099D01*
X100212Y112084D01*
X100093Y112077D01*
X100055Y112064D01*
X100015Y112059D01*
X99904Y112015D01*
X99791Y111979D01*
X99756Y111957D01*
X99719Y111942D01*
X99623Y111872D01*
X99522Y111809D01*
X99494Y111779D01*
X99461Y111755D01*
X99386Y111664D01*
X99304Y111577D01*
X99284Y111542D01*
X99259Y111510D01*
X99208Y111403D01*
X99150Y111299D01*
X99140Y111259D01*
X99123Y111223D01*
X99101Y111106D01*
X99071Y110991D01*
X99067Y110930D01*
X99063Y110910D01*
X99065Y110890D01*
X99061Y110830D01*
X99061Y103559D01*
X95266Y103559D01*
X94907Y103655D01*
X94802Y103670D01*
X94699Y103693D01*
X94645Y103691D01*
X94592Y103699D01*
X94487Y103687D01*
X94381Y103683D01*
X94329Y103668D01*
X94276Y103662D01*
X94177Y103624D01*
X94075Y103595D01*
X94029Y103568D01*
X93979Y103548D01*
X93893Y103487D01*
X93801Y103433D01*
X93737Y103377D01*
X93719Y103364D01*
X93709Y103352D01*
X93681Y103327D01*
X92874Y102520D01*
X90696Y100342D01*
X90622Y100246D01*
X90542Y100156D01*
X90525Y100122D01*
X90501Y100091D01*
X90453Y99980D01*
X90398Y99872D01*
X90390Y99835D01*
X90375Y99799D01*
X90356Y99679D01*
X90330Y99562D01*
X90331Y99523D01*
X90325Y99485D01*
X90336Y99364D01*
X90340Y99244D01*
X90351Y99207D01*
X90355Y99168D01*
X90396Y99054D01*
X90429Y98939D01*
X90449Y98905D01*
X90462Y98869D01*
X90483Y98839D01*
X90500Y98805D01*
X90918Y98081D01*
X91091Y97434D01*
X91091Y93639D01*
X83820Y93639D01*
X83702Y93624D01*
X83583Y93617D01*
X83545Y93604D01*
X83505Y93599D01*
X83394Y93555D01*
X83281Y93519D01*
X83246Y93497D01*
X83209Y93482D01*
X83113Y93412D01*
X83012Y93349D01*
X82984Y93319D01*
X82952Y93295D01*
X82876Y93204D01*
X82794Y93117D01*
X82775Y93082D01*
X82749Y93050D01*
X82698Y92943D01*
X82641Y92839D01*
X82630Y92799D01*
X82613Y92763D01*
X82591Y92646D01*
X82561Y92531D01*
X82557Y92470D01*
X82553Y92450D01*
X82555Y92430D01*
X82551Y92370D01*
X82551Y91099D01*
X81280Y91099D01*
X81162Y91084D01*
X81043Y91077D01*
X81005Y91064D01*
X80965Y91059D01*
X80854Y91015D01*
X80741Y90979D01*
X80706Y90957D01*
X80669Y90942D01*
X80573Y90872D01*
X80472Y90809D01*
X80444Y90779D01*
X80411Y90755D01*
X80336Y90664D01*
X80254Y90577D01*
X80234Y90542D01*
X80209Y90510D01*
X80158Y90403D01*
X80100Y90299D01*
X80090Y90259D01*
X80073Y90223D01*
X80051Y90106D01*
X80021Y89991D01*
X80017Y89930D01*
X80013Y89910D01*
X80015Y89890D01*
X80011Y89830D01*
X80011Y82559D01*
X77820Y82559D01*
X77702Y82544D01*
X77583Y82537D01*
X77545Y82524D01*
X77504Y82519D01*
X77394Y82476D01*
X77281Y82439D01*
X77246Y82417D01*
X77209Y82402D01*
X77113Y82333D01*
X77012Y82269D01*
X76984Y82239D01*
X76951Y82216D01*
X76875Y82124D01*
X76794Y82037D01*
X76774Y82002D01*
X76749Y81971D01*
X76698Y81863D01*
X76640Y81759D01*
X76630Y81719D01*
X76613Y81683D01*
X76591Y81566D01*
X76561Y81451D01*
X76557Y81391D01*
X76553Y81371D01*
X76555Y81350D01*
X76551Y81290D01*
X76551Y74145D01*
X76557Y74095D01*
X76555Y74046D01*
X76577Y73938D01*
X76591Y73829D01*
X76609Y73783D01*
X76619Y73734D01*
X76667Y73635D01*
X76708Y73533D01*
X76737Y73493D01*
X76759Y73448D01*
X76830Y73365D01*
X76894Y73276D01*
X76933Y73244D01*
X76965Y73206D01*
X77055Y73143D01*
X77139Y73073D01*
X77184Y73052D01*
X77225Y73023D01*
X77328Y72984D01*
X77427Y72938D01*
X77476Y72928D01*
X77522Y72911D01*
X77632Y72898D01*
X77739Y72878D01*
X77789Y72881D01*
X77838Y72875D01*
X77947Y72891D01*
X78057Y72898D01*
X78104Y72913D01*
X78153Y72920D01*
X78306Y72972D01*
X80019Y73682D01*
X81904Y73682D01*
X82002Y73694D01*
X82101Y73697D01*
X82159Y73714D01*
X82219Y73722D01*
X82311Y73758D01*
X82406Y73786D01*
X82459Y73816D01*
X82515Y73839D01*
X82595Y73897D01*
X82680Y73947D01*
X82756Y74014D01*
X82772Y74026D01*
X82780Y74035D01*
X82801Y74054D01*
X84967Y76220D01*
X99939Y76220D01*
X100037Y76232D01*
X100136Y76235D01*
X100194Y76252D01*
X100255Y76260D01*
X100347Y76296D01*
X100442Y76323D01*
X100494Y76354D01*
X100550Y76377D01*
X100630Y76435D01*
X100716Y76485D01*
X100791Y76551D01*
X100808Y76563D01*
X100815Y76573D01*
X100837Y76591D01*
X102169Y77924D01*
X104119Y78732D01*
X106231Y78732D01*
X108181Y77924D01*
X109674Y76431D01*
X110482Y74481D01*
X110482Y72369D01*
X109674Y70419D01*
X108181Y68926D01*
X106231Y68118D01*
X104119Y68118D01*
X102169Y68926D01*
X100837Y70258D01*
X100758Y70319D01*
X100686Y70387D01*
X100633Y70416D01*
X100585Y70453D01*
X100494Y70493D01*
X100408Y70541D01*
X100349Y70556D01*
X100293Y70580D01*
X100195Y70595D01*
X100100Y70620D01*
X100000Y70626D01*
X99979Y70630D01*
X99967Y70628D01*
X99939Y70630D01*
X87808Y70630D01*
X87710Y70618D01*
X87611Y70615D01*
X87553Y70598D01*
X87493Y70590D01*
X87401Y70554D01*
X87306Y70526D01*
X87253Y70496D01*
X87197Y70473D01*
X87117Y70415D01*
X87032Y70365D01*
X86956Y70298D01*
X86940Y70286D01*
X86932Y70277D01*
X86911Y70258D01*
X86754Y70101D01*
X86693Y70023D01*
X86625Y69951D01*
X86596Y69898D01*
X86559Y69850D01*
X86519Y69759D01*
X86471Y69672D01*
X86456Y69614D01*
X86432Y69558D01*
X86417Y69460D01*
X86392Y69364D01*
X86386Y69264D01*
X86382Y69244D01*
X86384Y69232D01*
X86382Y69204D01*
X86382Y67319D01*
X85574Y65369D01*
X84081Y63876D01*
X82131Y63068D01*
X80019Y63068D01*
X78069Y63876D01*
X76576Y65369D01*
X75768Y67319D01*
X75768Y68752D01*
X75751Y68889D01*
X75738Y69028D01*
X75731Y69047D01*
X75728Y69067D01*
X75677Y69196D01*
X75630Y69327D01*
X75619Y69344D01*
X75611Y69363D01*
X75530Y69475D01*
X75452Y69591D01*
X75436Y69604D01*
X75425Y69620D01*
X75318Y69709D01*
X75213Y69801D01*
X75195Y69810D01*
X75180Y69823D01*
X75054Y69882D01*
X74930Y69946D01*
X74910Y69950D01*
X74892Y69959D01*
X74756Y69985D01*
X74620Y70015D01*
X74599Y70015D01*
X74580Y70018D01*
X74441Y70010D01*
X74302Y70006D01*
X74282Y70000D01*
X74262Y69999D01*
X74130Y69956D01*
X73996Y69917D01*
X73979Y69907D01*
X73960Y69901D01*
X73842Y69826D01*
X73722Y69756D01*
X73701Y69737D01*
X73691Y69731D01*
X73677Y69716D01*
X73602Y69649D01*
X60249Y56297D01*
X60231Y56274D01*
X60209Y56255D01*
X60134Y56148D01*
X60054Y56046D01*
X60043Y56019D01*
X60026Y55995D01*
X59980Y55873D01*
X59928Y55754D01*
X59924Y55725D01*
X59913Y55697D01*
X59899Y55568D01*
X59878Y55440D01*
X59881Y55410D01*
X59878Y55381D01*
X59896Y55253D01*
X59908Y55123D01*
X59918Y55095D01*
X59922Y55066D01*
X59974Y54914D01*
X60850Y52799D01*
X60850Y48801D01*
X59320Y45107D01*
X56493Y42280D01*
X52799Y40750D01*
X48801Y40750D01*
G37*
%LPD*%
%LPC*%
G36*
X304007Y97700D02*
X304007Y97700D01*
X303360Y97873D01*
X302781Y98208D01*
X302308Y98681D01*
X301943Y99313D01*
X301867Y99413D01*
X301796Y99517D01*
X301771Y99539D01*
X301751Y99566D01*
X301652Y99645D01*
X301558Y99728D01*
X301528Y99743D01*
X301502Y99764D01*
X301386Y99815D01*
X301275Y99872D01*
X301242Y99880D01*
X301211Y99893D01*
X301087Y99914D01*
X300964Y99942D01*
X300931Y99941D01*
X300898Y99946D01*
X300772Y99936D01*
X300647Y99932D01*
X300614Y99923D01*
X300581Y99920D01*
X300462Y99879D01*
X300341Y99844D01*
X300312Y99827D01*
X300280Y99816D01*
X300175Y99746D01*
X300067Y99682D01*
X300030Y99650D01*
X300015Y99640D01*
X300001Y99624D01*
X299946Y99576D01*
X299646Y99275D01*
X284554Y99275D01*
X283075Y100754D01*
X283075Y109299D01*
X283058Y109436D01*
X283045Y109575D01*
X283038Y109594D01*
X283035Y109614D01*
X282984Y109743D01*
X282937Y109874D01*
X282926Y109891D01*
X282918Y109910D01*
X282837Y110022D01*
X282759Y110137D01*
X282743Y110151D01*
X282732Y110167D01*
X282624Y110256D01*
X282520Y110348D01*
X282502Y110357D01*
X282487Y110370D01*
X282361Y110429D01*
X282237Y110493D01*
X282217Y110497D01*
X282199Y110506D01*
X282063Y110532D01*
X281927Y110562D01*
X281906Y110562D01*
X281887Y110565D01*
X281748Y110557D01*
X281609Y110553D01*
X281589Y110547D01*
X281569Y110546D01*
X281437Y110503D01*
X281303Y110464D01*
X281286Y110454D01*
X281267Y110448D01*
X281149Y110373D01*
X281029Y110303D01*
X281008Y110284D01*
X280998Y110277D01*
X280984Y110263D01*
X280909Y110196D01*
X277876Y107164D01*
X275868Y105155D01*
X274744Y105155D01*
X274626Y105140D01*
X274507Y105133D01*
X274469Y105120D01*
X274428Y105115D01*
X274318Y105072D01*
X274205Y105035D01*
X274170Y105013D01*
X274133Y104998D01*
X274037Y104929D01*
X273936Y104865D01*
X273908Y104835D01*
X273875Y104812D01*
X273799Y104720D01*
X273718Y104633D01*
X273698Y104598D01*
X273673Y104567D01*
X273628Y104472D01*
X272582Y103425D01*
X249318Y103425D01*
X248425Y104318D01*
X248425Y111582D01*
X249318Y112475D01*
X272582Y112475D01*
X273034Y112022D01*
X273128Y111949D01*
X273218Y111870D01*
X273254Y111852D01*
X273286Y111827D01*
X273395Y111780D01*
X273501Y111725D01*
X273540Y111717D01*
X273578Y111701D01*
X273695Y111682D01*
X273811Y111656D01*
X273852Y111657D01*
X273892Y111651D01*
X274010Y111662D01*
X274129Y111665D01*
X274168Y111677D01*
X274208Y111680D01*
X274320Y111721D01*
X274435Y111754D01*
X274470Y111774D01*
X274508Y111788D01*
X274606Y111855D01*
X274709Y111915D01*
X274754Y111955D01*
X274771Y111967D01*
X274784Y111982D01*
X274829Y112022D01*
X282704Y119896D01*
X282764Y119974D01*
X282832Y120046D01*
X282861Y120099D01*
X282898Y120147D01*
X282938Y120238D01*
X282986Y120325D01*
X283001Y120383D01*
X283025Y120439D01*
X283040Y120537D01*
X283065Y120633D01*
X283071Y120733D01*
X283075Y120753D01*
X283073Y120765D01*
X283075Y120793D01*
X283075Y127846D01*
X284554Y129325D01*
X299646Y129325D01*
X300650Y128321D01*
X300759Y128236D01*
X300866Y128147D01*
X300885Y128138D01*
X300901Y128126D01*
X301028Y128071D01*
X301154Y128012D01*
X301174Y128008D01*
X301193Y128000D01*
X301331Y127978D01*
X301467Y127952D01*
X301487Y127953D01*
X301507Y127950D01*
X301646Y127963D01*
X301784Y127972D01*
X301803Y127978D01*
X301823Y127980D01*
X301955Y128027D01*
X302086Y128070D01*
X302104Y128080D01*
X302123Y128087D01*
X302238Y128165D01*
X302355Y128240D01*
X302369Y128254D01*
X302386Y128266D01*
X302478Y128370D01*
X302573Y128471D01*
X302583Y128489D01*
X302596Y128504D01*
X302660Y128628D01*
X302727Y128750D01*
X302732Y128769D01*
X302741Y128787D01*
X302771Y128923D01*
X302779Y128953D01*
X303709Y129884D01*
X318591Y129884D01*
X319777Y128697D01*
X319872Y128624D01*
X319961Y128545D01*
X319997Y128527D01*
X320029Y128502D01*
X320138Y128455D01*
X320244Y128400D01*
X320283Y128392D01*
X320321Y128376D01*
X320438Y128357D01*
X320554Y128331D01*
X320595Y128332D01*
X320635Y128326D01*
X320753Y128337D01*
X320872Y128340D01*
X320911Y128352D01*
X320951Y128355D01*
X321064Y128396D01*
X321178Y128429D01*
X321212Y128449D01*
X321251Y128463D01*
X321349Y128530D01*
X321452Y128590D01*
X321497Y128630D01*
X321514Y128642D01*
X321527Y128657D01*
X321572Y128697D01*
X322759Y129884D01*
X337641Y129884D01*
X338534Y128991D01*
X338534Y118109D01*
X337641Y117216D01*
X322759Y117216D01*
X321572Y118403D01*
X321478Y118476D01*
X321389Y118555D01*
X321353Y118573D01*
X321321Y118598D01*
X321212Y118646D01*
X321106Y118700D01*
X321067Y118708D01*
X321029Y118724D01*
X320912Y118743D01*
X320796Y118769D01*
X320755Y118768D01*
X320715Y118774D01*
X320597Y118763D01*
X320478Y118760D01*
X320439Y118748D01*
X320399Y118745D01*
X320287Y118704D01*
X320172Y118671D01*
X320137Y118651D01*
X320099Y118637D01*
X320001Y118570D01*
X319898Y118510D01*
X319853Y118470D01*
X319836Y118458D01*
X319823Y118443D01*
X319777Y118403D01*
X318591Y117216D01*
X303709Y117216D01*
X303046Y117880D01*
X302952Y117953D01*
X302862Y118032D01*
X302826Y118050D01*
X302794Y118075D01*
X302685Y118122D01*
X302579Y118176D01*
X302540Y118185D01*
X302502Y118201D01*
X302385Y118220D01*
X302269Y118246D01*
X302228Y118245D01*
X302188Y118251D01*
X302070Y118240D01*
X301951Y118236D01*
X301912Y118225D01*
X301872Y118221D01*
X301760Y118181D01*
X301645Y118148D01*
X301611Y118128D01*
X301572Y118114D01*
X301474Y118047D01*
X301371Y117987D01*
X301326Y117947D01*
X301309Y117935D01*
X301296Y117920D01*
X301251Y117880D01*
X299646Y116275D01*
X287513Y116275D01*
X287415Y116263D01*
X287316Y116260D01*
X287258Y116243D01*
X287198Y116235D01*
X287106Y116199D01*
X287011Y116171D01*
X286958Y116141D01*
X286902Y116118D01*
X286822Y116060D01*
X286737Y116010D01*
X286661Y115944D01*
X286645Y115932D01*
X286637Y115922D01*
X286616Y115904D01*
X285204Y114491D01*
X285119Y114382D01*
X285030Y114275D01*
X285021Y114256D01*
X285009Y114240D01*
X284953Y114112D01*
X284894Y113987D01*
X284891Y113967D01*
X284883Y113948D01*
X284861Y113810D01*
X284835Y113674D01*
X284836Y113654D01*
X284833Y113634D01*
X284846Y113495D01*
X284854Y113357D01*
X284861Y113338D01*
X284862Y113318D01*
X284910Y113186D01*
X284952Y113055D01*
X284963Y113037D01*
X284970Y113018D01*
X285048Y112903D01*
X285123Y112786D01*
X285137Y112772D01*
X285149Y112755D01*
X285253Y112663D01*
X285354Y112568D01*
X285372Y112558D01*
X285387Y112545D01*
X285511Y112481D01*
X285633Y112414D01*
X285652Y112409D01*
X285670Y112400D01*
X285806Y112370D01*
X285941Y112335D01*
X285969Y112333D01*
X285981Y112330D01*
X286001Y112331D01*
X286101Y112325D01*
X288542Y112325D01*
X288551Y112326D01*
X288560Y112325D01*
X288709Y112346D01*
X288857Y112365D01*
X288866Y112368D01*
X288875Y112369D01*
X289028Y112421D01*
X291044Y113257D01*
X293156Y113257D01*
X295172Y112421D01*
X295181Y112419D01*
X295189Y112414D01*
X295335Y112377D01*
X295479Y112337D01*
X295488Y112337D01*
X295497Y112335D01*
X295658Y112325D01*
X299646Y112325D01*
X300532Y111438D01*
X300626Y111365D01*
X300716Y111287D01*
X300751Y111268D01*
X300783Y111243D01*
X300893Y111196D01*
X300999Y111142D01*
X301038Y111133D01*
X301075Y111117D01*
X301193Y111098D01*
X301309Y111072D01*
X301349Y111074D01*
X301389Y111067D01*
X301508Y111078D01*
X301627Y111082D01*
X301666Y111093D01*
X301706Y111097D01*
X301818Y111137D01*
X301932Y111170D01*
X301967Y111191D01*
X302005Y111205D01*
X302104Y111271D01*
X302206Y111332D01*
X302252Y111372D01*
X302268Y111383D01*
X302282Y111398D01*
X302327Y111438D01*
X302781Y111892D01*
X303360Y112227D01*
X304007Y112400D01*
X308746Y112400D01*
X308746Y106185D01*
X308761Y106066D01*
X308769Y105948D01*
X308781Y105909D01*
X308786Y105869D01*
X308830Y105758D01*
X308867Y105645D01*
X308888Y105611D01*
X308903Y105573D01*
X308973Y105477D01*
X309037Y105377D01*
X309066Y105349D01*
X309090Y105316D01*
X309182Y105240D01*
X309268Y105159D01*
X309304Y105139D01*
X309335Y105113D01*
X309443Y105063D01*
X309459Y105053D01*
X309442Y105043D01*
X309404Y105028D01*
X309308Y104958D01*
X309207Y104894D01*
X309180Y104865D01*
X309147Y104841D01*
X309071Y104749D01*
X308989Y104662D01*
X308970Y104627D01*
X308944Y104596D01*
X308893Y104488D01*
X308836Y104384D01*
X308826Y104345D01*
X308809Y104308D01*
X308786Y104191D01*
X308756Y104076D01*
X308753Y104016D01*
X308749Y103996D01*
X308750Y103975D01*
X308746Y103915D01*
X308746Y97700D01*
X304007Y97700D01*
G37*
%LPD*%
%LPC*%
G36*
X48801Y116950D02*
X48801Y116950D01*
X45107Y118480D01*
X42280Y121307D01*
X40750Y125001D01*
X40750Y128999D01*
X42280Y132693D01*
X45107Y135520D01*
X48801Y137050D01*
X52799Y137050D01*
X56493Y135520D01*
X59320Y132693D01*
X60850Y128999D01*
X60850Y125001D01*
X59320Y121307D01*
X56493Y118480D01*
X52799Y116950D01*
X48801Y116950D01*
G37*
%LPD*%
%LPC*%
G36*
X23401Y116950D02*
X23401Y116950D01*
X19707Y118480D01*
X16880Y121307D01*
X15350Y125001D01*
X15350Y128999D01*
X16880Y132693D01*
X19707Y135520D01*
X23401Y137050D01*
X27399Y137050D01*
X31093Y135520D01*
X33920Y132693D01*
X35450Y128999D01*
X35450Y125001D01*
X33920Y121307D01*
X31093Y118480D01*
X27399Y116950D01*
X23401Y116950D01*
G37*
%LPD*%
%LPC*%
G36*
X23401Y91550D02*
X23401Y91550D01*
X19707Y93080D01*
X16880Y95907D01*
X15350Y99601D01*
X15350Y103599D01*
X16880Y107293D01*
X19707Y110120D01*
X23401Y111650D01*
X27399Y111650D01*
X31093Y110120D01*
X33920Y107293D01*
X35450Y103599D01*
X35450Y99601D01*
X33920Y95907D01*
X31093Y93080D01*
X27399Y91550D01*
X23401Y91550D01*
G37*
%LPD*%
%LPC*%
G36*
X48801Y91550D02*
X48801Y91550D01*
X45107Y93080D01*
X42280Y95907D01*
X40750Y99601D01*
X40750Y103599D01*
X42280Y107293D01*
X45107Y110120D01*
X48801Y111650D01*
X52799Y111650D01*
X56493Y110120D01*
X59320Y107293D01*
X60850Y103599D01*
X60850Y99601D01*
X59320Y95907D01*
X56493Y93080D01*
X52799Y91550D01*
X48801Y91550D01*
G37*
%LPD*%
%LPC*%
G36*
X23401Y142350D02*
X23401Y142350D01*
X19707Y143880D01*
X16880Y146707D01*
X15350Y150401D01*
X15350Y154399D01*
X16880Y158093D01*
X19707Y160920D01*
X23401Y162450D01*
X27399Y162450D01*
X31093Y160920D01*
X33920Y158093D01*
X35450Y154399D01*
X35450Y150401D01*
X33920Y146707D01*
X31093Y143880D01*
X27399Y142350D01*
X23401Y142350D01*
G37*
%LPD*%
%LPC*%
G36*
X23401Y40750D02*
X23401Y40750D01*
X19707Y42280D01*
X16880Y45107D01*
X15350Y48801D01*
X15350Y52799D01*
X16880Y56493D01*
X19707Y59320D01*
X23401Y60850D01*
X27399Y60850D01*
X31093Y59320D01*
X33920Y56493D01*
X35450Y52799D01*
X35450Y48801D01*
X33920Y45107D01*
X31093Y42280D01*
X27399Y40750D01*
X23401Y40750D01*
G37*
%LPD*%
%LPC*%
G36*
X48801Y66150D02*
X48801Y66150D01*
X45107Y67680D01*
X42280Y70507D01*
X40750Y74201D01*
X40750Y78199D01*
X42280Y81893D01*
X45107Y84720D01*
X48801Y86250D01*
X52799Y86250D01*
X56493Y84720D01*
X59320Y81893D01*
X60850Y78199D01*
X60850Y74201D01*
X59320Y70507D01*
X56493Y67680D01*
X52799Y66150D01*
X48801Y66150D01*
G37*
%LPD*%
%LPC*%
G36*
X23401Y66150D02*
X23401Y66150D01*
X19707Y67680D01*
X16880Y70507D01*
X15350Y74201D01*
X15350Y78199D01*
X16880Y81893D01*
X19707Y84720D01*
X23401Y86250D01*
X27399Y86250D01*
X31093Y84720D01*
X33920Y81893D01*
X35450Y78199D01*
X35450Y74201D01*
X33920Y70507D01*
X31093Y67680D01*
X27399Y66150D01*
X23401Y66150D01*
G37*
%LPD*%
%LPC*%
G36*
X330414Y153443D02*
X330414Y153443D01*
X328464Y154251D01*
X326971Y155744D01*
X326163Y157694D01*
X326163Y159806D01*
X326971Y161756D01*
X328464Y163249D01*
X330414Y164057D01*
X332526Y164057D01*
X333470Y163665D01*
X333518Y163652D01*
X333563Y163631D01*
X333671Y163611D01*
X333777Y163581D01*
X333827Y163581D01*
X333876Y163571D01*
X333985Y163578D01*
X334095Y163576D01*
X334143Y163588D01*
X334193Y163591D01*
X334297Y163625D01*
X334404Y163651D01*
X334448Y163674D01*
X334495Y163689D01*
X334588Y163748D01*
X334685Y163799D01*
X334722Y163833D01*
X334764Y163859D01*
X334839Y163939D01*
X334921Y164013D01*
X334948Y164055D01*
X334982Y164091D01*
X335035Y164187D01*
X335095Y164279D01*
X335112Y164326D01*
X335136Y164369D01*
X335163Y164476D01*
X335199Y164580D01*
X335203Y164629D01*
X335215Y164677D01*
X335225Y164838D01*
X335225Y165552D01*
X336558Y166885D01*
X342942Y166885D01*
X344275Y165552D01*
X344275Y156168D01*
X342942Y154835D01*
X336527Y154835D01*
X336523Y154838D01*
X336487Y154857D01*
X336455Y154881D01*
X336346Y154929D01*
X336240Y154983D01*
X336200Y154992D01*
X336163Y155008D01*
X336046Y155026D01*
X335930Y155053D01*
X335889Y155051D01*
X335849Y155058D01*
X335731Y155047D01*
X335612Y155043D01*
X335573Y155032D01*
X335533Y155028D01*
X335421Y154988D01*
X335306Y154955D01*
X335271Y154934D01*
X335233Y154920D01*
X335135Y154854D01*
X335032Y154793D01*
X334987Y154753D01*
X334970Y154742D01*
X334957Y154727D01*
X334911Y154687D01*
X334476Y154251D01*
X332526Y153443D01*
X330414Y153443D01*
G37*
%LPD*%
%LPC*%
G36*
X421639Y148589D02*
X421639Y148589D01*
X421639Y156782D01*
X428136Y156782D01*
X429805Y156518D01*
X431411Y155996D01*
X432917Y155229D01*
X434283Y154236D01*
X435478Y153042D01*
X436470Y151675D01*
X437237Y150170D01*
X437751Y148589D01*
X421639Y148589D01*
G37*
%LPD*%
%LPC*%
G36*
X400449Y148589D02*
X400449Y148589D01*
X400963Y150170D01*
X401730Y151675D01*
X402722Y153042D01*
X403917Y154236D01*
X405283Y155229D01*
X406789Y155996D01*
X408395Y156518D01*
X410064Y156782D01*
X416561Y156782D01*
X416561Y148589D01*
X400449Y148589D01*
G37*
%LPD*%
%LPC*%
G36*
X421639Y135318D02*
X421639Y135318D01*
X421639Y143511D01*
X437751Y143511D01*
X437237Y141930D01*
X436470Y140425D01*
X435478Y139058D01*
X434283Y137864D01*
X432917Y136871D01*
X431411Y136104D01*
X429805Y135582D01*
X428136Y135318D01*
X421639Y135318D01*
G37*
%LPD*%
%LPC*%
G36*
X410064Y135318D02*
X410064Y135318D01*
X408395Y135582D01*
X406789Y136104D01*
X405283Y136871D01*
X403917Y137864D01*
X402722Y139058D01*
X401730Y140425D01*
X400963Y141930D01*
X400449Y143511D01*
X416561Y143511D01*
X416561Y135318D01*
X410064Y135318D01*
G37*
%LPD*%
%LPC*%
G36*
X377918Y18554D02*
X377918Y18554D01*
X377917Y18556D01*
X377880Y18669D01*
X377858Y18704D01*
X377843Y18741D01*
X377774Y18837D01*
X377710Y18938D01*
X377680Y18966D01*
X377657Y18999D01*
X377565Y19075D01*
X377478Y19156D01*
X377443Y19176D01*
X377412Y19201D01*
X377304Y19252D01*
X377200Y19310D01*
X377160Y19320D01*
X377124Y19337D01*
X377007Y19359D01*
X376892Y19389D01*
X376832Y19393D01*
X376812Y19397D01*
X376791Y19395D01*
X376731Y19399D01*
X370799Y19399D01*
X370799Y24441D01*
X375266Y24441D01*
X376167Y24199D01*
X376974Y23733D01*
X377490Y23217D01*
X377571Y23155D01*
X377633Y23096D01*
X377642Y23091D01*
X377662Y23073D01*
X377704Y23051D01*
X377741Y23023D01*
X377844Y22978D01*
X377944Y22926D01*
X377990Y22915D01*
X378033Y22896D01*
X378144Y22879D01*
X378253Y22853D01*
X378300Y22854D01*
X378347Y22846D01*
X378459Y22857D01*
X378571Y22859D01*
X378617Y22872D01*
X378664Y22876D01*
X378708Y22892D01*
X378716Y22893D01*
X378767Y22913D01*
X378769Y22914D01*
X378878Y22944D01*
X378943Y22976D01*
X378963Y22984D01*
X378978Y22994D01*
X379006Y23008D01*
X379012Y23010D01*
X379014Y23012D01*
X379022Y23016D01*
X379560Y23327D01*
X380207Y23500D01*
X384946Y23500D01*
X384946Y18554D01*
X377918Y18554D01*
G37*
%LPD*%
%LPC*%
G36*
X161154Y157704D02*
X161154Y157704D01*
X161154Y162650D01*
X165893Y162650D01*
X166540Y162477D01*
X167119Y162142D01*
X167377Y161884D01*
X167472Y161811D01*
X167561Y161732D01*
X167597Y161713D01*
X167629Y161689D01*
X167738Y161641D01*
X167844Y161587D01*
X167884Y161578D01*
X167921Y161562D01*
X168038Y161544D01*
X168154Y161518D01*
X168195Y161519D01*
X168235Y161513D01*
X168353Y161524D01*
X168472Y161527D01*
X168511Y161539D01*
X168551Y161542D01*
X168664Y161583D01*
X168778Y161616D01*
X168812Y161636D01*
X168851Y161650D01*
X168949Y161717D01*
X169052Y161777D01*
X169097Y161817D01*
X169114Y161828D01*
X169127Y161844D01*
X169172Y161884D01*
X169431Y162142D01*
X170010Y162477D01*
X170657Y162650D01*
X175396Y162650D01*
X175396Y157704D01*
X161154Y157704D01*
G37*
%LPD*%
%LPC*%
G36*
X313554Y107454D02*
X313554Y107454D01*
X313554Y112400D01*
X318293Y112400D01*
X318940Y112227D01*
X319519Y111892D01*
X319777Y111634D01*
X319872Y111561D01*
X319961Y111482D01*
X319997Y111463D01*
X320029Y111439D01*
X320138Y111391D01*
X320244Y111337D01*
X320284Y111328D01*
X320321Y111312D01*
X320438Y111294D01*
X320554Y111268D01*
X320595Y111269D01*
X320635Y111263D01*
X320753Y111274D01*
X320872Y111277D01*
X320911Y111289D01*
X320951Y111292D01*
X321064Y111333D01*
X321178Y111366D01*
X321212Y111386D01*
X321251Y111400D01*
X321349Y111467D01*
X321452Y111527D01*
X321497Y111567D01*
X321514Y111578D01*
X321527Y111594D01*
X321572Y111634D01*
X321831Y111892D01*
X322410Y112227D01*
X323057Y112400D01*
X327796Y112400D01*
X327796Y107454D01*
X313554Y107454D01*
G37*
%LPD*%
%LPC*%
G36*
X313554Y97700D02*
X313554Y97700D01*
X313554Y102646D01*
X327796Y102646D01*
X327796Y97700D01*
X323057Y97700D01*
X322410Y97873D01*
X321831Y98208D01*
X321572Y98466D01*
X321478Y98539D01*
X321389Y98618D01*
X321353Y98637D01*
X321321Y98661D01*
X321212Y98709D01*
X321106Y98763D01*
X321066Y98772D01*
X321029Y98788D01*
X320912Y98806D01*
X320796Y98832D01*
X320755Y98831D01*
X320715Y98838D01*
X320596Y98826D01*
X320478Y98823D01*
X320439Y98812D01*
X320399Y98808D01*
X320287Y98767D01*
X320172Y98734D01*
X320137Y98714D01*
X320099Y98700D01*
X320001Y98633D01*
X319898Y98573D01*
X319853Y98533D01*
X319836Y98522D01*
X319823Y98506D01*
X319777Y98466D01*
X319519Y98208D01*
X318940Y97873D01*
X318293Y97700D01*
X313554Y97700D01*
G37*
%LPD*%
%LPC*%
G36*
X262449Y96749D02*
X262449Y96749D01*
X262449Y100791D01*
X272284Y100791D01*
X272931Y100618D01*
X273510Y100283D01*
X273983Y99810D01*
X274318Y99231D01*
X274491Y98584D01*
X274491Y96749D01*
X262449Y96749D01*
G37*
%LPD*%
%LPC*%
G36*
X247409Y96749D02*
X247409Y96749D01*
X247409Y98584D01*
X247582Y99231D01*
X247917Y99810D01*
X248390Y100283D01*
X248969Y100618D01*
X249616Y100791D01*
X259451Y100791D01*
X259451Y96749D01*
X247409Y96749D01*
G37*
%LPD*%
%LPC*%
G36*
X262449Y93751D02*
X262449Y93751D01*
X274491Y93751D01*
X274491Y91916D01*
X274318Y91269D01*
X273983Y90690D01*
X273510Y90217D01*
X272931Y89882D01*
X272284Y89709D01*
X262449Y89709D01*
X262449Y93751D01*
G37*
%LPD*%
%LPC*%
G36*
X249616Y89709D02*
X249616Y89709D01*
X248969Y89882D01*
X248390Y90217D01*
X247917Y90690D01*
X247582Y91269D01*
X247409Y91916D01*
X247409Y93751D01*
X259451Y93751D01*
X259451Y89709D01*
X249616Y89709D01*
G37*
%LPD*%
%LPC*%
G36*
X53339Y27939D02*
X53339Y27939D01*
X53339Y36202D01*
X53391Y36194D01*
X55048Y35655D01*
X56600Y34865D01*
X58009Y33841D01*
X59241Y32609D01*
X60265Y31200D01*
X61055Y29648D01*
X61594Y27991D01*
X61602Y27939D01*
X53339Y27939D01*
G37*
%LPD*%
%LPC*%
G36*
X39998Y27939D02*
X39998Y27939D01*
X40006Y27991D01*
X40545Y29648D01*
X41335Y31200D01*
X42359Y32609D01*
X43591Y33841D01*
X45000Y34865D01*
X46552Y35655D01*
X48209Y36194D01*
X48261Y36202D01*
X48261Y27939D01*
X39998Y27939D01*
G37*
%LPD*%
%LPC*%
G36*
X383499Y137999D02*
X383499Y137999D01*
X383499Y143041D01*
X387966Y143041D01*
X388867Y142799D01*
X389674Y142333D01*
X390333Y141674D01*
X390799Y140867D01*
X391041Y139966D01*
X391041Y137999D01*
X383499Y137999D01*
G37*
%LPD*%
%LPC*%
G36*
X370959Y137999D02*
X370959Y137999D01*
X370959Y139966D01*
X371201Y140867D01*
X371667Y141674D01*
X372326Y142333D01*
X373133Y142799D01*
X374034Y143041D01*
X378501Y143041D01*
X378501Y137999D01*
X370959Y137999D01*
G37*
%LPD*%
%LPC*%
G36*
X91559Y25749D02*
X91559Y25749D01*
X91559Y27716D01*
X91801Y28617D01*
X92267Y29424D01*
X92926Y30083D01*
X93733Y30549D01*
X94634Y30791D01*
X99101Y30791D01*
X99101Y25749D01*
X91559Y25749D01*
G37*
%LPD*%
%LPC*%
G36*
X383499Y127959D02*
X383499Y127959D01*
X383499Y133001D01*
X391041Y133001D01*
X391041Y131034D01*
X390799Y130133D01*
X390333Y129326D01*
X389674Y128667D01*
X388867Y128201D01*
X387966Y127959D01*
X383499Y127959D01*
G37*
%LPD*%
%LPC*%
G36*
X374034Y127959D02*
X374034Y127959D01*
X373133Y128201D01*
X372326Y128667D01*
X371667Y129326D01*
X371201Y130133D01*
X370959Y131034D01*
X370959Y133001D01*
X378501Y133001D01*
X378501Y127959D01*
X374034Y127959D01*
G37*
%LPD*%
%LPC*%
G36*
X85089Y82559D02*
X85089Y82559D01*
X85089Y88561D01*
X91091Y88561D01*
X91091Y84766D01*
X90918Y84119D01*
X90583Y83540D01*
X90110Y83067D01*
X89531Y82732D01*
X88884Y82559D01*
X85089Y82559D01*
G37*
%LPD*%
%LPC*%
G36*
X389754Y18554D02*
X389754Y18554D01*
X389754Y23500D01*
X394493Y23500D01*
X395140Y23327D01*
X395719Y22992D01*
X396192Y22519D01*
X396527Y21940D01*
X396700Y21293D01*
X396700Y18554D01*
X389754Y18554D01*
G37*
%LPD*%
%LPC*%
G36*
X313554Y18554D02*
X313554Y18554D01*
X313554Y23500D01*
X318293Y23500D01*
X318940Y23327D01*
X319519Y22992D01*
X319992Y22519D01*
X320327Y21940D01*
X320500Y21293D01*
X320500Y18554D01*
X313554Y18554D01*
G37*
%LPD*%
%LPC*%
G36*
X180204Y157704D02*
X180204Y157704D01*
X180204Y162650D01*
X184943Y162650D01*
X185590Y162477D01*
X186169Y162142D01*
X186642Y161669D01*
X186977Y161090D01*
X187150Y160443D01*
X187150Y157704D01*
X180204Y157704D01*
G37*
%LPD*%
%LPC*%
G36*
X332604Y107454D02*
X332604Y107454D01*
X332604Y112400D01*
X337343Y112400D01*
X337990Y112227D01*
X338569Y111892D01*
X339042Y111419D01*
X339377Y110840D01*
X339550Y110193D01*
X339550Y107454D01*
X332604Y107454D01*
G37*
%LPD*%
%LPC*%
G36*
X301800Y18554D02*
X301800Y18554D01*
X301800Y21293D01*
X301973Y21940D01*
X302308Y22519D01*
X302781Y22992D01*
X303360Y23327D01*
X304007Y23500D01*
X308746Y23500D01*
X308746Y18554D01*
X301800Y18554D01*
G37*
%LPD*%
%LPC*%
G36*
X332604Y97700D02*
X332604Y97700D01*
X332604Y102646D01*
X339550Y102646D01*
X339550Y99907D01*
X339377Y99260D01*
X339042Y98681D01*
X338569Y98208D01*
X337990Y97873D01*
X337343Y97700D01*
X332604Y97700D01*
G37*
%LPD*%
%LPC*%
G36*
X157057Y60500D02*
X157057Y60500D01*
X156410Y60673D01*
X155831Y61008D01*
X155358Y61481D01*
X155023Y62060D01*
X154850Y62707D01*
X154850Y67446D01*
X159796Y67446D01*
X159796Y60500D01*
X157057Y60500D01*
G37*
%LPD*%
%LPC*%
G36*
X360249Y162359D02*
X360249Y162359D01*
X360249Y167901D01*
X361433Y167901D01*
X362270Y167676D01*
X363021Y167243D01*
X363633Y166631D01*
X364066Y165880D01*
X364291Y165043D01*
X364291Y162359D01*
X360249Y162359D01*
G37*
%LPD*%
%LPC*%
G36*
X360249Y153819D02*
X360249Y153819D01*
X360249Y159361D01*
X364291Y159361D01*
X364291Y156677D01*
X364066Y155840D01*
X363633Y155089D01*
X363021Y154477D01*
X362270Y154044D01*
X361433Y153819D01*
X360249Y153819D01*
G37*
%LPD*%
%LPC*%
G36*
X353209Y162359D02*
X353209Y162359D01*
X353209Y165043D01*
X353434Y165880D01*
X353867Y166631D01*
X354479Y167243D01*
X355230Y167676D01*
X356067Y167901D01*
X357251Y167901D01*
X357251Y162359D01*
X353209Y162359D01*
G37*
%LPD*%
%LPC*%
G36*
X356067Y153819D02*
X356067Y153819D01*
X355230Y154044D01*
X354479Y154477D01*
X353867Y155089D01*
X353434Y155840D01*
X353209Y156677D01*
X353209Y159361D01*
X357251Y159361D01*
X357251Y153819D01*
X356067Y153819D01*
G37*
%LPD*%
%LPC*%
G36*
X419099Y146049D02*
X419099Y146049D01*
X419099Y146051D01*
X419101Y146051D01*
X419101Y146049D01*
X419099Y146049D01*
G37*
%LPD*%
D10*
X347000Y142610D02*
X351500Y142610D01*
X351500Y135110D01*
X347000Y135110D01*
X347000Y142610D01*
X347000Y136535D02*
X351500Y136535D01*
X351500Y137960D02*
X347000Y137960D01*
X347000Y139385D02*
X351500Y139385D01*
X351500Y140810D02*
X347000Y140810D01*
X347000Y142235D02*
X351500Y142235D01*
X342000Y164610D02*
X337500Y164610D01*
X342000Y164610D02*
X342000Y157110D01*
X337500Y157110D01*
X337500Y164610D01*
X337500Y158535D02*
X342000Y158535D01*
X342000Y159960D02*
X337500Y159960D01*
X337500Y161385D02*
X342000Y161385D01*
X342000Y162810D02*
X337500Y162810D01*
X337500Y164235D02*
X342000Y164235D01*
X356500Y164610D02*
X361000Y164610D01*
X361000Y157110D01*
X356500Y157110D01*
X356500Y164610D01*
X356500Y158535D02*
X361000Y158535D01*
X361000Y159960D02*
X356500Y159960D01*
X356500Y161385D02*
X361000Y161385D01*
X361000Y162810D02*
X356500Y162810D01*
X356500Y164235D02*
X361000Y164235D01*
D11*
X158750Y92350D03*
X158750Y110850D03*
D12*
X208950Y120650D03*
X260950Y120650D03*
X208950Y133350D03*
X208950Y107950D03*
X208950Y95250D03*
X260950Y133350D03*
X260950Y107950D03*
X260950Y95250D03*
X208950Y69850D03*
X260950Y69850D03*
X208950Y82550D03*
X208950Y57150D03*
X260950Y82550D03*
X260950Y57150D03*
D13*
X410909Y31750D02*
X427292Y31750D01*
X427292Y57150D02*
X410909Y57150D01*
D11*
X387350Y54250D03*
X387350Y72750D03*
X387350Y16150D03*
X387350Y34650D03*
X330200Y35200D03*
X330200Y53700D03*
X139700Y92350D03*
X139700Y110850D03*
X311150Y16150D03*
X311150Y34650D03*
D14*
X162200Y69850D03*
X180700Y69850D03*
X225150Y19050D03*
X206650Y19050D03*
D11*
X330200Y105050D03*
X330200Y123550D03*
X311150Y105050D03*
X311150Y123550D03*
X158750Y155300D03*
X158750Y136800D03*
X177800Y155300D03*
X177800Y136800D03*
D15*
X25400Y152400D03*
X25400Y127000D03*
X25400Y101600D03*
X25400Y76200D03*
X25400Y50800D03*
X25400Y25400D03*
X50800Y25400D03*
X50800Y50800D03*
X50800Y76200D03*
X50800Y101600D03*
X50800Y127000D03*
X50800Y152400D03*
D13*
X410909Y120650D02*
X427292Y120650D01*
X427292Y146050D02*
X410909Y146050D01*
D16*
X95400Y137740D02*
X95400Y129740D01*
X82400Y129740D01*
X82400Y137740D01*
X95400Y137740D01*
X95400Y131640D02*
X82400Y131640D01*
X82400Y133540D02*
X95400Y133540D01*
X95400Y135440D02*
X82400Y135440D01*
X82400Y137340D02*
X95400Y137340D01*
X95400Y146740D02*
X95400Y154740D01*
X95400Y146740D02*
X82400Y146740D01*
X82400Y154740D01*
X95400Y154740D01*
X95400Y148640D02*
X82400Y148640D01*
X82400Y150540D02*
X95400Y150540D01*
X95400Y152440D02*
X82400Y152440D01*
X82400Y154340D02*
X95400Y154340D01*
X184300Y97100D02*
X184300Y89100D01*
X171300Y89100D01*
X171300Y97100D01*
X184300Y97100D01*
X184300Y91000D02*
X171300Y91000D01*
X171300Y92900D02*
X184300Y92900D01*
X184300Y94800D02*
X171300Y94800D01*
X171300Y96700D02*
X184300Y96700D01*
X184300Y106100D02*
X184300Y114100D01*
X184300Y106100D02*
X171300Y106100D01*
X171300Y114100D01*
X184300Y114100D01*
X184300Y108000D02*
X171300Y108000D01*
X171300Y109900D02*
X184300Y109900D01*
X184300Y111800D02*
X171300Y111800D01*
X171300Y113700D02*
X184300Y113700D01*
X133200Y150550D02*
X133200Y158550D01*
X146200Y158550D01*
X146200Y150550D01*
X133200Y150550D01*
X133200Y152450D02*
X146200Y152450D01*
X146200Y154350D02*
X133200Y154350D01*
X133200Y156250D02*
X146200Y156250D01*
X146200Y158150D02*
X133200Y158150D01*
X133200Y141550D02*
X133200Y133550D01*
X133200Y141550D02*
X146200Y141550D01*
X146200Y133550D01*
X133200Y133550D01*
X133200Y135450D02*
X146200Y135450D01*
X146200Y137350D02*
X133200Y137350D01*
X133200Y139250D02*
X146200Y139250D01*
X146200Y141150D02*
X133200Y141150D01*
X264850Y158900D02*
X272850Y158900D01*
X272850Y145900D01*
X264850Y145900D01*
X264850Y158900D01*
X264850Y147800D02*
X272850Y147800D01*
X272850Y149700D02*
X264850Y149700D01*
X264850Y151600D02*
X272850Y151600D01*
X272850Y153500D02*
X264850Y153500D01*
X264850Y155400D02*
X272850Y155400D01*
X272850Y157300D02*
X264850Y157300D01*
X255850Y158900D02*
X247850Y158900D01*
X255850Y158900D02*
X255850Y145900D01*
X247850Y145900D01*
X247850Y158900D01*
X247850Y147800D02*
X255850Y147800D01*
X255850Y149700D02*
X247850Y149700D01*
X247850Y151600D02*
X255850Y151600D01*
X255850Y153500D02*
X247850Y153500D01*
X247850Y155400D02*
X255850Y155400D01*
X255850Y157300D02*
X247850Y157300D01*
X298600Y109800D02*
X298600Y101800D01*
X285600Y101800D01*
X285600Y109800D01*
X298600Y109800D01*
X298600Y103700D02*
X285600Y103700D01*
X285600Y105600D02*
X298600Y105600D01*
X298600Y107500D02*
X285600Y107500D01*
X285600Y109400D02*
X298600Y109400D01*
X298600Y118800D02*
X298600Y126800D01*
X298600Y118800D02*
X285600Y118800D01*
X285600Y126800D01*
X298600Y126800D01*
X298600Y120700D02*
X285600Y120700D01*
X285600Y122600D02*
X298600Y122600D01*
X298600Y124500D02*
X285600Y124500D01*
X285600Y126400D02*
X298600Y126400D01*
X285600Y76000D02*
X285600Y68000D01*
X285600Y76000D02*
X298600Y76000D01*
X298600Y68000D01*
X285600Y68000D01*
X285600Y69900D02*
X298600Y69900D01*
X298600Y71800D02*
X285600Y71800D01*
X285600Y73700D02*
X298600Y73700D01*
X298600Y75600D02*
X285600Y75600D01*
X285600Y59000D02*
X285600Y51000D01*
X285600Y59000D02*
X298600Y59000D01*
X298600Y51000D01*
X285600Y51000D01*
X285600Y52900D02*
X298600Y52900D01*
X298600Y54800D02*
X285600Y54800D01*
X285600Y56700D02*
X298600Y56700D01*
X298600Y58600D02*
X285600Y58600D01*
X374500Y131500D02*
X374500Y139500D01*
X387500Y139500D01*
X387500Y131500D01*
X374500Y131500D01*
X374500Y133400D02*
X387500Y133400D01*
X387500Y135300D02*
X374500Y135300D01*
X374500Y137200D02*
X387500Y137200D01*
X387500Y139100D02*
X374500Y139100D01*
X374500Y122500D02*
X374500Y114500D01*
X374500Y122500D02*
X387500Y122500D01*
X387500Y114500D01*
X374500Y114500D01*
X374500Y116400D02*
X387500Y116400D01*
X387500Y118300D02*
X374500Y118300D01*
X374500Y120200D02*
X387500Y120200D01*
X387500Y122100D02*
X374500Y122100D01*
X184300Y27250D02*
X184300Y19250D01*
X171300Y19250D01*
X171300Y27250D01*
X184300Y27250D01*
X184300Y21150D02*
X171300Y21150D01*
X171300Y23050D02*
X184300Y23050D01*
X184300Y24950D02*
X171300Y24950D01*
X171300Y26850D02*
X184300Y26850D01*
X184300Y36250D02*
X184300Y44250D01*
X184300Y36250D02*
X171300Y36250D01*
X171300Y44250D01*
X184300Y44250D01*
X184300Y38150D02*
X171300Y38150D01*
X171300Y40050D02*
X184300Y40050D01*
X184300Y41950D02*
X171300Y41950D01*
X171300Y43850D02*
X184300Y43850D01*
X165250Y27250D02*
X165250Y19250D01*
X152250Y19250D01*
X152250Y27250D01*
X165250Y27250D01*
X165250Y21150D02*
X152250Y21150D01*
X152250Y23050D02*
X165250Y23050D01*
X165250Y24950D02*
X152250Y24950D01*
X152250Y26850D02*
X165250Y26850D01*
X165250Y36250D02*
X165250Y44250D01*
X165250Y36250D02*
X152250Y36250D01*
X152250Y44250D01*
X165250Y44250D01*
X165250Y38150D02*
X152250Y38150D01*
X152250Y40050D02*
X165250Y40050D01*
X165250Y41950D02*
X152250Y41950D01*
X152250Y43850D02*
X165250Y43850D01*
X146200Y27250D02*
X146200Y19250D01*
X133200Y19250D01*
X133200Y27250D01*
X146200Y27250D01*
X146200Y21150D02*
X133200Y21150D01*
X133200Y23050D02*
X146200Y23050D01*
X146200Y24950D02*
X133200Y24950D01*
X133200Y26850D02*
X146200Y26850D01*
X146200Y36250D02*
X146200Y44250D01*
X146200Y36250D02*
X133200Y36250D01*
X133200Y44250D01*
X146200Y44250D01*
X146200Y38150D02*
X133200Y38150D01*
X133200Y40050D02*
X146200Y40050D01*
X146200Y41950D02*
X133200Y41950D01*
X133200Y43850D02*
X146200Y43850D01*
X127150Y27250D02*
X127150Y19250D01*
X114150Y19250D01*
X114150Y27250D01*
X127150Y27250D01*
X127150Y21150D02*
X114150Y21150D01*
X114150Y23050D02*
X127150Y23050D01*
X127150Y24950D02*
X114150Y24950D01*
X114150Y26850D02*
X127150Y26850D01*
X127150Y36250D02*
X127150Y44250D01*
X127150Y36250D02*
X114150Y36250D01*
X114150Y44250D01*
X127150Y44250D01*
X127150Y38150D02*
X114150Y38150D01*
X114150Y40050D02*
X127150Y40050D01*
X127150Y41950D02*
X114150Y41950D01*
X114150Y43850D02*
X127150Y43850D01*
X108100Y27250D02*
X108100Y19250D01*
X95100Y19250D01*
X95100Y27250D01*
X108100Y27250D01*
X108100Y21150D02*
X95100Y21150D01*
X95100Y23050D02*
X108100Y23050D01*
X108100Y24950D02*
X95100Y24950D01*
X95100Y26850D02*
X108100Y26850D01*
X108100Y36250D02*
X108100Y44250D01*
X108100Y36250D02*
X95100Y36250D01*
X95100Y44250D01*
X108100Y44250D01*
X108100Y38150D02*
X95100Y38150D01*
X95100Y40050D02*
X108100Y40050D01*
X108100Y41950D02*
X95100Y41950D01*
X95100Y43850D02*
X108100Y43850D01*
X374800Y51000D02*
X374800Y59000D01*
X374800Y51000D02*
X361800Y51000D01*
X361800Y59000D01*
X374800Y59000D01*
X374800Y52900D02*
X361800Y52900D01*
X361800Y54800D02*
X374800Y54800D01*
X374800Y56700D02*
X361800Y56700D01*
X361800Y58600D02*
X374800Y58600D01*
X374800Y68000D02*
X374800Y76000D01*
X374800Y68000D02*
X361800Y68000D01*
X361800Y76000D01*
X374800Y76000D01*
X374800Y69900D02*
X361800Y69900D01*
X361800Y71800D02*
X374800Y71800D01*
X374800Y73700D02*
X361800Y73700D01*
X361800Y75600D02*
X374800Y75600D01*
X374800Y20900D02*
X374800Y12900D01*
X361800Y12900D01*
X361800Y20900D01*
X374800Y20900D01*
X374800Y14800D02*
X361800Y14800D01*
X361800Y16700D02*
X374800Y16700D01*
X374800Y18600D02*
X361800Y18600D01*
X361800Y20500D02*
X374800Y20500D01*
X374800Y29900D02*
X374800Y37900D01*
X374800Y29900D02*
X361800Y29900D01*
X361800Y37900D01*
X374800Y37900D01*
X374800Y31800D02*
X361800Y31800D01*
X361800Y33700D02*
X374800Y33700D01*
X374800Y35600D02*
X361800Y35600D01*
X361800Y37500D02*
X374800Y37500D01*
X342750Y37900D02*
X342750Y29900D01*
X342750Y37900D02*
X355750Y37900D01*
X355750Y29900D01*
X342750Y29900D01*
X342750Y31800D02*
X355750Y31800D01*
X355750Y33700D02*
X342750Y33700D01*
X342750Y35600D02*
X355750Y35600D01*
X355750Y37500D02*
X342750Y37500D01*
X342750Y20900D02*
X342750Y12900D01*
X342750Y20900D02*
X355750Y20900D01*
X355750Y12900D01*
X342750Y12900D01*
X342750Y14800D02*
X355750Y14800D01*
X355750Y16700D02*
X342750Y16700D01*
X342750Y18600D02*
X355750Y18600D01*
X355750Y20500D02*
X342750Y20500D01*
X355750Y51000D02*
X355750Y59000D01*
X355750Y51000D02*
X342750Y51000D01*
X342750Y59000D01*
X355750Y59000D01*
X355750Y52900D02*
X342750Y52900D01*
X342750Y54800D02*
X355750Y54800D01*
X355750Y56700D02*
X342750Y56700D01*
X342750Y58600D02*
X355750Y58600D01*
X355750Y68000D02*
X355750Y76000D01*
X355750Y68000D02*
X342750Y68000D01*
X342750Y76000D01*
X355750Y76000D01*
X355750Y69900D02*
X342750Y69900D01*
X342750Y71800D02*
X355750Y71800D01*
X355750Y73700D02*
X342750Y73700D01*
X342750Y75600D02*
X355750Y75600D01*
X228400Y44600D02*
X220400Y44600D01*
X228400Y44600D02*
X228400Y31600D01*
X220400Y31600D01*
X220400Y44600D01*
X220400Y33500D02*
X228400Y33500D01*
X228400Y35400D02*
X220400Y35400D01*
X220400Y37300D02*
X228400Y37300D01*
X228400Y39200D02*
X220400Y39200D01*
X220400Y41100D02*
X228400Y41100D01*
X228400Y43000D02*
X220400Y43000D01*
X211400Y44600D02*
X203400Y44600D01*
X211400Y44600D02*
X211400Y31600D01*
X203400Y31600D01*
X203400Y44600D01*
X203400Y33500D02*
X211400Y33500D01*
X211400Y35400D02*
X203400Y35400D01*
X203400Y37300D02*
X211400Y37300D01*
X211400Y39200D02*
X203400Y39200D01*
X203400Y41100D02*
X211400Y41100D01*
X211400Y43000D02*
X203400Y43000D01*
D17*
X101600Y112100D03*
X101600Y91100D03*
X82550Y91100D03*
X82550Y112100D03*
D16*
X127150Y97100D02*
X127150Y89100D01*
X114150Y89100D01*
X114150Y97100D01*
X127150Y97100D01*
X127150Y91000D02*
X114150Y91000D01*
X114150Y92900D02*
X127150Y92900D01*
X127150Y94800D02*
X114150Y94800D01*
X114150Y96700D02*
X127150Y96700D01*
X127150Y106100D02*
X127150Y114100D01*
X127150Y106100D02*
X114150Y106100D01*
X114150Y114100D01*
X127150Y114100D01*
X127150Y108000D02*
X114150Y108000D01*
X114150Y109900D02*
X127150Y109900D01*
X127150Y111800D02*
X114150Y111800D01*
X114150Y113700D02*
X127150Y113700D01*
D18*
X88900Y150740D02*
X84210Y150740D01*
X82550Y152400D01*
X69850Y152400D01*
X50800Y152400D01*
X69850Y152400D02*
X69850Y124800D01*
X82550Y112100D01*
X383150Y120650D02*
X419100Y120650D01*
X383150Y120650D02*
X381000Y118500D01*
X379730Y117230D01*
X370880Y117230D01*
X367880Y120230D01*
X370420Y117690D01*
X367880Y120230D02*
X349250Y138860D01*
X335280Y82550D02*
X260950Y82550D01*
X335280Y82550D02*
X370420Y117690D01*
X158750Y110850D02*
X139700Y110850D01*
X159500Y110100D02*
X177800Y110100D01*
X159500Y110100D02*
X158750Y110850D01*
X368300Y72000D02*
X386600Y72000D01*
X387350Y72750D01*
X121400Y110850D02*
X120650Y110100D01*
X121400Y110850D02*
X139700Y110850D01*
D19*
X121400Y110850D03*
X177800Y110100D03*
X331470Y158750D03*
D18*
X337640Y158750D02*
X339750Y160860D01*
X337640Y158750D02*
X331470Y158750D01*
D19*
X368300Y72000D03*
D18*
X289950Y57150D02*
X260950Y57150D01*
X289950Y57150D02*
X292100Y55000D01*
X251850Y152400D02*
X249310Y152400D01*
X217560Y120650D01*
X208950Y120650D01*
X254000Y57150D02*
X260950Y57150D01*
X254000Y57150D02*
X247876Y63274D01*
X244926Y63274D02*
X240030Y68170D01*
X240030Y97790D01*
X218440Y119380D01*
X210220Y119380D02*
X208950Y120650D01*
X244926Y63274D02*
X247876Y63274D01*
X218440Y119380D02*
X210220Y119380D01*
X260950Y120650D02*
X260950Y133350D01*
X268850Y148200D02*
X268850Y152400D01*
X268850Y148200D02*
X260350Y139700D01*
X260350Y133950D01*
X260950Y133350D01*
X158000Y137550D02*
X139700Y137550D01*
X158000Y137550D02*
X158750Y136800D01*
X177800Y136800D01*
X193886Y120714D01*
X193886Y115223D01*
X201159Y107950D01*
X208950Y107950D01*
D19*
X101600Y40250D03*
D18*
X120650Y40250D01*
X131690Y146050D02*
X186659Y146050D01*
X199359Y133350D02*
X208950Y133350D01*
X199359Y133350D02*
X186659Y146050D01*
X131690Y146050D02*
X119380Y133740D01*
X88900Y133740D01*
X180700Y90200D02*
X180700Y69850D01*
X180700Y90200D02*
X177800Y93100D01*
X206800Y93100D01*
X208950Y95250D01*
X390250Y57150D02*
X419100Y57150D01*
X390250Y57150D02*
X387350Y54250D01*
X369050Y54250D01*
X368300Y55000D01*
X367000Y54250D02*
X349250Y72000D01*
X367000Y54250D02*
X369050Y54250D01*
X366250Y33900D02*
X349250Y16900D01*
X366250Y33900D02*
X368300Y33900D01*
X386600Y33900D01*
X387350Y34650D01*
X397150Y34650D01*
X400050Y31750D01*
X419100Y31750D01*
X329650Y34650D02*
X311150Y34650D01*
X329650Y34650D02*
X330200Y35200D01*
X311150Y34650D02*
X251100Y34650D01*
X215900Y69850D01*
X208950Y69850D01*
X330400Y33900D02*
X349250Y33900D01*
X330400Y33900D02*
X329650Y34650D01*
X143181Y92350D02*
X139700Y92350D01*
X173097Y61884D02*
X174734Y60247D01*
X168166Y79453D02*
X156078Y79453D01*
X168166Y79453D02*
X173097Y74522D01*
X173097Y61884D01*
X201930Y82550D02*
X208950Y82550D01*
X156078Y79453D02*
X143181Y92350D01*
X330200Y53700D02*
X347950Y53700D01*
X349250Y55000D01*
X330200Y53700D02*
X318753Y42253D01*
X299645Y38714D02*
X254000Y38714D01*
X222744Y69970D01*
X222744Y74007D01*
X218440Y78311D02*
X218440Y80010D01*
X218440Y78311D02*
X222744Y74007D01*
X218440Y80010D02*
X215900Y82550D01*
X208950Y82550D01*
X303184Y42253D02*
X318753Y42253D01*
X303184Y42253D02*
X299645Y38714D01*
X188303Y61884D02*
X186666Y60247D01*
X188303Y61884D02*
X188303Y68923D01*
X201930Y82550D01*
X186666Y60247D02*
X174734Y60247D01*
X224400Y48650D02*
X224400Y38100D01*
X224400Y48650D02*
X215900Y57150D01*
X208950Y57150D01*
X260950Y69850D02*
X289950Y69850D01*
X292100Y72000D01*
X260950Y69850D02*
X247650Y69850D01*
D19*
X247650Y69850D03*
X177800Y23250D03*
D18*
X260950Y107950D02*
X274710Y107950D01*
X289560Y122800D02*
X292100Y122800D01*
X289560Y122800D02*
X274710Y107950D01*
X292100Y122800D02*
X310400Y122800D01*
X311150Y123550D01*
X329450Y122800D02*
X330200Y123550D01*
X329450Y122800D02*
X310400Y122800D01*
D19*
X81075Y68375D03*
D18*
X86125Y73425D01*
X105175Y73425D01*
D19*
X105175Y73425D03*
X292100Y107950D03*
D18*
X292100Y105800D01*
X82550Y141534D02*
X80829Y141534D01*
X82550Y141534D02*
X96972Y141534D01*
X98806Y139700D01*
X118323Y139700D02*
X128737Y150114D01*
X135264Y150114D02*
X139700Y154550D01*
X135264Y150114D02*
X128737Y150114D01*
X118323Y139700D02*
X98806Y139700D01*
X91344Y104943D02*
X89707Y103306D01*
X91344Y104943D02*
X91344Y119257D01*
X80829Y125946D02*
X78606Y128169D01*
X78606Y139312D01*
X80829Y141534D01*
X82550Y141534D01*
X73756Y98257D02*
X73756Y73756D01*
X73756Y98257D02*
X78805Y103306D01*
X89707Y103306D01*
X91344Y119257D02*
X84655Y125946D01*
X80829Y125946D01*
X73756Y73756D02*
X50800Y50800D01*
X120650Y23250D02*
X137650Y40250D01*
X139700Y40250D01*
D19*
X120650Y23250D03*
D18*
X138430Y20710D02*
X157970Y40250D01*
X158750Y40250D01*
D19*
X138430Y20710D03*
D18*
X158750Y23250D02*
X175750Y40250D01*
X177800Y40250D01*
D19*
X158750Y23250D03*
D18*
X38100Y12700D02*
X25400Y25400D01*
X200300Y12700D02*
X206650Y19050D01*
X200300Y12700D02*
X38100Y12700D01*
X207400Y19800D02*
X207400Y38100D01*
X207400Y19800D02*
X206650Y19050D01*
X120650Y93100D02*
X103600Y93100D01*
X101600Y91100D01*
M02*
