G04 EAGLE Gerber RS-274X export*
G75*
%MOMM*%
%FSLAX34Y34*%
%LPD*%
%INBottom Copper*%
%IPPOS*%
%AMOC8*
5,1,8,0,0,1.08239X$1,22.5*%
G01*
%ADD10C,1.638300*%
%ADD11C,1.705100*%
%ADD12C,0.254000*%
%ADD13C,0.756400*%


D10*
X410909Y31750D02*
X427292Y31750D01*
X427292Y57150D02*
X410909Y57150D01*
D11*
X25400Y152400D03*
X25400Y127000D03*
X25400Y101600D03*
X25400Y76200D03*
X25400Y50800D03*
X25400Y25400D03*
X50800Y25400D03*
X50800Y50800D03*
X50800Y76200D03*
X50800Y101600D03*
X50800Y127000D03*
X50800Y152400D03*
D10*
X410909Y120650D02*
X427292Y120650D01*
X427292Y146050D02*
X410909Y146050D01*
D12*
X38100Y139700D02*
X25400Y152400D01*
X92550Y139700D02*
X121400Y110850D01*
D13*
X121400Y110850D03*
D12*
X92550Y139700D02*
X38100Y139700D01*
D13*
X177800Y110100D03*
D12*
X226450Y158750D01*
X331470Y158750D01*
D13*
X331470Y158750D03*
X368300Y72000D03*
D12*
X331470Y108830D01*
X331470Y158750D01*
X38100Y38100D02*
X25400Y50800D01*
X38100Y38100D02*
X99450Y38100D01*
X101600Y40250D01*
D13*
X101600Y40250D03*
X247650Y69850D03*
D12*
X201050Y23250D01*
X177800Y23250D01*
D13*
X177800Y23250D03*
D12*
X73250Y76200D02*
X50800Y76200D01*
X73250Y76200D02*
X81075Y68375D01*
D13*
X81075Y68375D03*
X105175Y73425D03*
D12*
X180524Y29826D02*
X183036Y27314D01*
X196850Y27314D01*
X148774Y29826D02*
X105175Y73425D01*
X148774Y29826D02*
X180524Y29826D01*
D13*
X292100Y107950D03*
D12*
X244926Y76426D02*
X241074Y72574D01*
X285750Y107950D02*
X292100Y107950D01*
X285750Y107950D02*
X254226Y76426D01*
X244926Y76426D01*
X241074Y71538D02*
X196850Y27314D01*
X241074Y71538D02*
X241074Y72574D01*
X38100Y63500D02*
X25400Y76200D01*
D13*
X120650Y23250D03*
D12*
X108176Y35724D01*
X108176Y42974D01*
X78351Y61799D02*
X76650Y63500D01*
X89351Y61799D02*
X108176Y42974D01*
X89351Y61799D02*
X78351Y61799D01*
X76650Y63500D02*
X38100Y63500D01*
X38100Y88900D02*
X25400Y101600D01*
D13*
X138430Y20710D03*
D12*
X72390Y88900D02*
X38100Y88900D01*
X138430Y22860D02*
X138430Y20710D01*
X138430Y22860D02*
X72390Y88900D01*
X38100Y114300D02*
X25400Y127000D01*
X146050Y23250D02*
X158750Y23250D01*
X146050Y23250D02*
X55000Y114300D01*
D13*
X158750Y23250D03*
D12*
X55000Y114300D02*
X38100Y114300D01*
M02*
