M48
;GenerationSoftware,Autodesk,EAGLE,9.6.1*%
;CreationDate,2020-05-21T18:58:38Z*%
FMAT,2
ICI,OFF
METRIC,TZ,000.000
T3C0.350
T2C1.092
T1C1.105
%
G90
M71
T1
X2540Y15240
X2540Y12700
X2540Y10160
X2540Y7620
X2540Y5080
X2540Y2540
X5080Y2540
X5080Y5080
X5080Y7620
X5080Y10160
X5080Y12700
X5080Y15240
T2
X41910Y3175
X41910Y5715
X41910Y12065
X41910Y14605
T3
X12140Y11085
X17780Y11010
X33147Y15875
X36830Y7200
X10160Y4025
X24765Y6985
X17780Y2325
X8108Y6838
X10517Y7342
X29210Y10795
X12065Y2325
X13843Y2071
X15875Y2325
M30