G04 EAGLE Gerber RS-274X export*
G75*
%MOMM*%
%FSLAX34Y34*%
%LPD*%
%INSilkscreen Bottom*%
%IPPOS*%
%AMOC8*
5,1,8,0,0,1.08239X$1,22.5*%
G01*
%ADD10C,0.152400*%
%ADD11C,0.100000*%

G36*
X273835Y20909D02*
X273835Y20909D01*
X273839Y20910D01*
X273844Y20909D01*
X274604Y20924D01*
X275466Y20941D01*
X275471Y20942D01*
X275477Y20942D01*
X276340Y20977D01*
X276345Y20978D01*
X276351Y20977D01*
X277212Y21032D01*
X277870Y21073D01*
X277873Y21074D01*
X277878Y21074D01*
X278536Y21126D01*
X278539Y21127D01*
X278543Y21127D01*
X279201Y21189D01*
X279202Y21189D01*
X279601Y21228D01*
X279603Y21228D01*
X279605Y21228D01*
X280004Y21270D01*
X280006Y21270D01*
X280009Y21270D01*
X280408Y21316D01*
X281611Y21456D01*
X281618Y21458D01*
X281626Y21458D01*
X282826Y21634D01*
X282832Y21637D01*
X282840Y21637D01*
X284035Y21849D01*
X285398Y22091D01*
X285405Y22094D01*
X285415Y22095D01*
X286772Y22385D01*
X286779Y22388D01*
X286789Y22389D01*
X288136Y22727D01*
X289108Y22970D01*
X289113Y22973D01*
X289120Y22974D01*
X290089Y23243D01*
X290094Y23245D01*
X290101Y23246D01*
X291063Y23539D01*
X292591Y24006D01*
X292599Y24010D01*
X292610Y24012D01*
X294123Y24540D01*
X294131Y24545D01*
X294142Y24548D01*
X295636Y25138D01*
X296710Y25564D01*
X296716Y25568D01*
X296724Y25569D01*
X297789Y26027D01*
X297794Y26031D01*
X297802Y26033D01*
X298855Y26523D01*
X300029Y27069D01*
X300036Y27074D01*
X300044Y27076D01*
X301204Y27663D01*
X301210Y27667D01*
X301218Y27670D01*
X302364Y28297D01*
X303365Y28846D01*
X303370Y28850D01*
X303378Y28853D01*
X304368Y29433D01*
X304373Y29437D01*
X304380Y29440D01*
X305356Y30051D01*
X306399Y30704D01*
X306404Y30709D01*
X306412Y30712D01*
X307438Y31399D01*
X307443Y31404D01*
X307451Y31408D01*
X308459Y32130D01*
X309351Y32770D01*
X309355Y32774D01*
X309362Y32778D01*
X310240Y33443D01*
X310244Y33448D01*
X310251Y33452D01*
X311115Y34146D01*
X312065Y34908D01*
X312070Y34914D01*
X312077Y34918D01*
X313009Y35715D01*
X313013Y35721D01*
X313021Y35725D01*
X313933Y36556D01*
X313936Y36560D01*
X313942Y36564D01*
X316077Y38605D01*
X316126Y38676D01*
X316179Y38744D01*
X316183Y38757D01*
X316190Y38769D01*
X316196Y38795D01*
X316221Y38809D01*
X316261Y38821D01*
X316319Y38865D01*
X316357Y38887D01*
X316370Y38904D01*
X316393Y38922D01*
X318583Y41268D01*
X318586Y41273D01*
X318592Y41278D01*
X318995Y41734D01*
X318997Y41737D01*
X319000Y41739D01*
X319395Y42199D01*
X319397Y42202D01*
X319400Y42205D01*
X319788Y42671D01*
X320592Y43636D01*
X320595Y43642D01*
X320601Y43648D01*
X321371Y44633D01*
X321374Y44639D01*
X321380Y44646D01*
X322113Y45648D01*
X322746Y46514D01*
X322749Y46519D01*
X322754Y46525D01*
X323362Y47404D01*
X323364Y47410D01*
X323369Y47415D01*
X323951Y48307D01*
X324577Y49267D01*
X324579Y49273D01*
X324585Y49279D01*
X325180Y50253D01*
X325183Y50259D01*
X325188Y50266D01*
X325753Y51253D01*
X326412Y52405D01*
X326414Y52412D01*
X326420Y52419D01*
X327038Y53589D01*
X327041Y53596D01*
X327046Y53603D01*
X327623Y54788D01*
X328147Y55865D01*
X328149Y55871D01*
X328153Y55878D01*
X328643Y56968D01*
X328645Y56975D01*
X328649Y56982D01*
X329106Y58082D01*
X329493Y59017D01*
X329494Y59022D01*
X329497Y59029D01*
X329552Y59171D01*
X329552Y59172D01*
X329744Y59671D01*
X329860Y59971D01*
X329860Y59977D01*
X329864Y59983D01*
X330201Y60931D01*
X330613Y62088D01*
X330615Y62096D01*
X330619Y62103D01*
X330993Y63271D01*
X330994Y63278D01*
X330998Y63285D01*
X331335Y64460D01*
X331652Y65560D01*
X331653Y65567D01*
X331656Y65574D01*
X331940Y66682D01*
X331940Y66688D01*
X331944Y66696D01*
X332195Y67808D01*
X332426Y68829D01*
X332427Y68835D01*
X332429Y68842D01*
X332633Y69868D01*
X332633Y69873D01*
X332635Y69880D01*
X332813Y70910D01*
X333012Y72070D01*
X333012Y72077D01*
X333014Y72085D01*
X333180Y73250D01*
X333179Y73256D01*
X333182Y73264D01*
X333313Y74434D01*
X333445Y75610D01*
X333444Y75617D01*
X333446Y75625D01*
X333543Y76804D01*
X333542Y76811D01*
X333544Y76819D01*
X333606Y78001D01*
X333668Y79180D01*
X333667Y79187D01*
X333668Y79195D01*
X333696Y80376D01*
X333695Y80382D01*
X333696Y80390D01*
X333689Y81571D01*
X333689Y81572D01*
X333679Y82886D01*
X333678Y82893D01*
X333679Y82902D01*
X333627Y84214D01*
X333625Y84221D01*
X333626Y84230D01*
X333532Y85541D01*
X333443Y86773D01*
X333441Y86780D01*
X333442Y86788D01*
X333315Y88017D01*
X333313Y88024D01*
X333313Y88033D01*
X333147Y89258D01*
X332988Y90447D01*
X332985Y90454D01*
X332985Y90462D01*
X332790Y91647D01*
X332788Y91654D01*
X332787Y91662D01*
X332556Y92842D01*
X332298Y94152D01*
X332295Y94158D01*
X332295Y94168D01*
X331994Y95470D01*
X331991Y95477D01*
X331990Y95486D01*
X331645Y96779D01*
X331384Y97755D01*
X331381Y97760D01*
X331381Y97767D01*
X331095Y98738D01*
X331092Y98743D01*
X331091Y98750D01*
X330781Y99714D01*
X330454Y100728D01*
X330451Y100734D01*
X330449Y100741D01*
X330094Y101749D01*
X330091Y101754D01*
X330090Y101762D01*
X329707Y102761D01*
X329233Y103999D01*
X329229Y104005D01*
X329227Y104014D01*
X328710Y105240D01*
X328706Y105246D01*
X328703Y105255D01*
X328144Y106466D01*
X327691Y107444D01*
X327688Y107449D01*
X327686Y107456D01*
X327206Y108424D01*
X327202Y108429D01*
X327200Y108437D01*
X326692Y109395D01*
X326691Y109395D01*
X326158Y110399D01*
X326154Y110404D01*
X326151Y110412D01*
X325588Y111406D01*
X325583Y111411D01*
X325580Y111418D01*
X324986Y112399D01*
X324444Y113291D01*
X324440Y113295D01*
X324438Y113302D01*
X323871Y114184D01*
X323866Y114189D01*
X323863Y114196D01*
X323271Y115065D01*
X322600Y116049D01*
X322595Y116053D01*
X322592Y116061D01*
X321889Y117029D01*
X321883Y117034D01*
X321879Y117041D01*
X321143Y117992D01*
X320372Y118990D01*
X320366Y118994D01*
X320362Y119002D01*
X319556Y119980D01*
X319550Y119984D01*
X319545Y119992D01*
X318702Y120950D01*
X317858Y121910D01*
X317852Y121914D01*
X317847Y121922D01*
X316966Y122860D01*
X316960Y122864D01*
X316955Y122872D01*
X316038Y123788D01*
X314980Y124847D01*
X314973Y124851D01*
X314966Y124859D01*
X313879Y125869D01*
X313872Y125873D01*
X313866Y125881D01*
X312751Y126843D01*
X311853Y127619D01*
X311847Y127623D01*
X311841Y127629D01*
X310924Y128374D01*
X310918Y128377D01*
X310912Y128383D01*
X309979Y129097D01*
X308996Y129848D01*
X308990Y129851D01*
X308984Y129857D01*
X307982Y130575D01*
X307975Y130578D01*
X307969Y130584D01*
X306952Y131266D01*
X306072Y131857D01*
X306066Y131859D01*
X306060Y131865D01*
X305168Y132429D01*
X305162Y132431D01*
X305157Y132435D01*
X304252Y132975D01*
X303672Y133320D01*
X303668Y133321D01*
X303664Y133324D01*
X303080Y133659D01*
X303077Y133660D01*
X303074Y133663D01*
X302486Y133987D01*
X302485Y133987D01*
X301878Y134322D01*
X301874Y134323D01*
X301870Y134326D01*
X301259Y134649D01*
X301255Y134650D01*
X301251Y134653D01*
X300635Y134965D01*
X299732Y135422D01*
X299726Y135424D01*
X299720Y135428D01*
X298808Y135860D01*
X298802Y135861D01*
X298796Y135865D01*
X297876Y136274D01*
X297875Y136274D01*
X297073Y136629D01*
X297069Y136630D01*
X297063Y136633D01*
X296255Y136970D01*
X296251Y136971D01*
X296246Y136974D01*
X295431Y137294D01*
X294682Y137587D01*
X294677Y137588D01*
X294672Y137591D01*
X293918Y137869D01*
X293913Y137870D01*
X293908Y137872D01*
X293149Y138134D01*
X292206Y138459D01*
X292200Y138460D01*
X292194Y138463D01*
X291244Y138765D01*
X291239Y138766D01*
X291232Y138769D01*
X290278Y139046D01*
X290277Y139046D01*
X289413Y139297D01*
X289407Y139298D01*
X289402Y139300D01*
X288532Y139531D01*
X288527Y139532D01*
X288521Y139534D01*
X287648Y139745D01*
X286838Y139941D01*
X286833Y139941D01*
X286828Y139943D01*
X286014Y140122D01*
X286009Y140122D01*
X286004Y140125D01*
X285188Y140286D01*
X284201Y140482D01*
X284195Y140482D01*
X284188Y140484D01*
X283196Y140654D01*
X283190Y140654D01*
X283184Y140656D01*
X282189Y140802D01*
X280813Y141003D01*
X280805Y141003D01*
X280796Y141006D01*
X279412Y141159D01*
X279404Y141158D01*
X279395Y141160D01*
X278010Y141265D01*
X276864Y141352D01*
X276857Y141351D01*
X276849Y141353D01*
X275701Y141407D01*
X275694Y141406D01*
X275687Y141407D01*
X274537Y141428D01*
X273366Y141449D01*
X273359Y141448D01*
X273351Y141450D01*
X272178Y141437D01*
X272172Y141435D01*
X272164Y141436D01*
X270993Y141390D01*
X269913Y141347D01*
X269907Y141345D01*
X269899Y141346D01*
X268820Y141274D01*
X268814Y141272D01*
X268807Y141272D01*
X267730Y141171D01*
X266247Y141031D01*
X266239Y141028D01*
X266228Y141028D01*
X264750Y140833D01*
X264742Y140830D01*
X264732Y140830D01*
X263262Y140581D01*
X263261Y140581D01*
X262017Y140369D01*
X262010Y140366D01*
X262001Y140366D01*
X260763Y140114D01*
X260756Y140111D01*
X260747Y140111D01*
X259516Y139820D01*
X258583Y139600D01*
X258578Y139598D01*
X258571Y139597D01*
X257644Y139354D01*
X257639Y139352D01*
X257632Y139351D01*
X256709Y139085D01*
X255757Y138812D01*
X255752Y138809D01*
X255745Y138808D01*
X254798Y138510D01*
X254793Y138507D01*
X254786Y138506D01*
X253845Y138185D01*
X252673Y137783D01*
X252667Y137779D01*
X252658Y137778D01*
X251497Y137338D01*
X251491Y137335D01*
X251483Y137333D01*
X250333Y136856D01*
X249062Y136329D01*
X249055Y136325D01*
X249046Y136323D01*
X247788Y135750D01*
X247781Y135746D01*
X247772Y135743D01*
X246531Y135124D01*
X245408Y134564D01*
X245403Y134559D01*
X245395Y134557D01*
X244286Y133960D01*
X244280Y133955D01*
X244271Y133952D01*
X243178Y133317D01*
X242318Y132818D01*
X242314Y132814D01*
X242307Y132811D01*
X241457Y132287D01*
X241453Y132284D01*
X241447Y132281D01*
X240608Y131735D01*
X239469Y130995D01*
X239463Y130989D01*
X239454Y130985D01*
X238335Y130199D01*
X238330Y130194D01*
X238321Y130190D01*
X237223Y129363D01*
X236489Y128809D01*
X236485Y128806D01*
X236480Y128803D01*
X235755Y128231D01*
X235752Y128226D01*
X235746Y128223D01*
X235032Y127631D01*
X234409Y127115D01*
X234406Y127112D01*
X234401Y127109D01*
X233785Y126577D01*
X233782Y126573D01*
X233778Y126571D01*
X233170Y126025D01*
X232375Y125311D01*
X232371Y125306D01*
X232365Y125301D01*
X231586Y124561D01*
X231582Y124556D01*
X231577Y124552D01*
X230127Y123102D01*
X230124Y123098D01*
X230118Y123094D01*
X229452Y122395D01*
X229449Y122390D01*
X229444Y122386D01*
X228798Y121676D01*
X228293Y121121D01*
X228290Y121117D01*
X228286Y121113D01*
X227793Y120549D01*
X227791Y120545D01*
X227787Y120542D01*
X227307Y119972D01*
X226654Y119199D01*
X226651Y119194D01*
X226646Y119189D01*
X226016Y118402D01*
X226013Y118397D01*
X226008Y118392D01*
X225401Y117593D01*
X224955Y117005D01*
X224953Y117002D01*
X224950Y116998D01*
X224514Y116404D01*
X224513Y116400D01*
X224509Y116396D01*
X224086Y115796D01*
X223590Y115090D01*
X223588Y115085D01*
X223584Y115081D01*
X223104Y114367D01*
X223102Y114362D01*
X223098Y114358D01*
X222636Y113636D01*
X222124Y112838D01*
X222122Y112833D01*
X222118Y112828D01*
X221627Y112018D01*
X221626Y112014D01*
X221622Y112009D01*
X221151Y111191D01*
X221150Y111191D01*
X220625Y110277D01*
X220623Y110271D01*
X220618Y110265D01*
X220120Y109341D01*
X220118Y109335D01*
X220114Y109329D01*
X219641Y108395D01*
X219145Y107417D01*
X219144Y107411D01*
X219139Y107405D01*
X218673Y106416D01*
X218671Y106410D01*
X218667Y106403D01*
X218229Y105405D01*
X217751Y104315D01*
X217750Y104308D01*
X217745Y104301D01*
X217301Y103200D01*
X217300Y103193D01*
X217295Y103186D01*
X216886Y102074D01*
X216500Y101028D01*
X216499Y101022D01*
X216495Y101015D01*
X216139Y99960D01*
X216139Y99954D01*
X216135Y99947D01*
X215809Y98885D01*
X215809Y98884D01*
X215493Y97851D01*
X215492Y97845D01*
X215489Y97838D01*
X215201Y96797D01*
X215201Y96790D01*
X215198Y96784D01*
X214938Y95737D01*
X214694Y94753D01*
X214694Y94747D01*
X214691Y94740D01*
X214472Y93750D01*
X214472Y93745D01*
X214470Y93738D01*
X214276Y92744D01*
X214034Y91502D01*
X214034Y91495D01*
X214031Y91486D01*
X213830Y90237D01*
X213830Y90230D01*
X213827Y90222D01*
X213665Y88970D01*
X213528Y87917D01*
X213528Y87911D01*
X213526Y87904D01*
X213418Y86850D01*
X213419Y86844D01*
X213417Y86837D01*
X213337Y85780D01*
X213275Y84963D01*
X213275Y84959D01*
X213274Y84953D01*
X213228Y84135D01*
X213228Y84130D01*
X213227Y84124D01*
X213199Y83305D01*
X213162Y82248D01*
X213163Y82242D01*
X213162Y82235D01*
X213153Y81176D01*
X213154Y81170D01*
X213153Y81163D01*
X213171Y80105D01*
X213171Y80104D01*
X213187Y79211D01*
X213188Y79206D01*
X213187Y79200D01*
X213224Y78308D01*
X213224Y78306D01*
X213225Y78302D01*
X213224Y78297D01*
X213280Y77405D01*
X213280Y77404D01*
X213348Y76304D01*
X213350Y76298D01*
X213349Y76291D01*
X213448Y75190D01*
X213450Y75184D01*
X213450Y75176D01*
X213579Y74080D01*
X213689Y73143D01*
X213691Y73138D01*
X213691Y73131D01*
X213824Y72197D01*
X213825Y72192D01*
X213825Y72185D01*
X213981Y71254D01*
X213981Y71253D01*
X214195Y69962D01*
X214197Y69955D01*
X214198Y69946D01*
X214455Y68660D01*
X214458Y68653D01*
X214459Y68644D01*
X214758Y67365D01*
X215018Y66256D01*
X215020Y66251D01*
X215021Y66243D01*
X215313Y65140D01*
X215316Y65134D01*
X215317Y65126D01*
X215641Y64030D01*
X215969Y62921D01*
X215972Y62915D01*
X215973Y62907D01*
X216335Y61806D01*
X216338Y61800D01*
X216340Y61792D01*
X216733Y60700D01*
X217072Y59754D01*
X217075Y59749D01*
X217077Y59742D01*
X217442Y58804D01*
X217445Y58799D01*
X217447Y58791D01*
X217837Y57861D01*
X218253Y56867D01*
X218257Y56861D01*
X218259Y56853D01*
X218704Y55870D01*
X218707Y55865D01*
X218709Y55858D01*
X219182Y54883D01*
X219182Y54882D01*
X219668Y53879D01*
X219672Y53874D01*
X219675Y53867D01*
X220190Y52874D01*
X220194Y52869D01*
X220197Y52861D01*
X220743Y51881D01*
X221334Y50820D01*
X221339Y50815D01*
X221342Y50807D01*
X221968Y49760D01*
X221972Y49754D01*
X221976Y49747D01*
X222636Y48715D01*
X223270Y47725D01*
X223275Y47720D01*
X223278Y47712D01*
X223945Y46736D01*
X223950Y46731D01*
X223954Y46723D01*
X224653Y45764D01*
X225293Y44884D01*
X225297Y44880D01*
X225301Y44874D01*
X225967Y44008D01*
X225972Y44004D01*
X225976Y43997D01*
X226670Y43147D01*
X227294Y42381D01*
X227298Y42378D01*
X227302Y42372D01*
X227946Y41619D01*
X227951Y41616D01*
X227954Y41610D01*
X228622Y40869D01*
X229322Y40093D01*
X229327Y40089D01*
X229331Y40083D01*
X230055Y39320D01*
X230060Y39317D01*
X230064Y39311D01*
X231784Y37592D01*
X231790Y37587D01*
X231796Y37580D01*
X232792Y36650D01*
X232799Y36646D01*
X232804Y36640D01*
X233822Y35748D01*
X233823Y35748D01*
X234563Y35102D01*
X234568Y35100D01*
X234572Y35095D01*
X235324Y34469D01*
X235329Y34466D01*
X235334Y34461D01*
X236096Y33858D01*
X236097Y33858D01*
X236997Y33146D01*
X237003Y33143D01*
X237008Y33138D01*
X237924Y32455D01*
X237930Y32453D01*
X237936Y32447D01*
X238866Y31795D01*
X239801Y31139D01*
X239807Y31136D01*
X239813Y31131D01*
X240762Y30504D01*
X240768Y30501D01*
X240774Y30496D01*
X241737Y29900D01*
X242652Y29334D01*
X242657Y29331D01*
X242663Y29327D01*
X243590Y28787D01*
X243596Y28785D01*
X243602Y28780D01*
X244540Y28268D01*
X245257Y27876D01*
X245262Y27875D01*
X245266Y27872D01*
X245989Y27496D01*
X245993Y27495D01*
X245998Y27491D01*
X246726Y27131D01*
X246727Y27131D01*
X247693Y26653D01*
X247699Y26652D01*
X247705Y26648D01*
X248682Y26198D01*
X248688Y26197D01*
X248694Y26192D01*
X249679Y25770D01*
X249680Y25770D01*
X250351Y25483D01*
X250355Y25482D01*
X250359Y25480D01*
X251034Y25205D01*
X251038Y25205D01*
X251043Y25202D01*
X251722Y24940D01*
X252670Y24575D01*
X252676Y24574D01*
X252682Y24570D01*
X253639Y24229D01*
X253645Y24228D01*
X253651Y24225D01*
X254614Y23910D01*
X255564Y23598D01*
X255570Y23597D01*
X255577Y23594D01*
X256533Y23307D01*
X256539Y23307D01*
X256545Y23304D01*
X257507Y23042D01*
X258644Y22732D01*
X258651Y22731D01*
X258658Y22728D01*
X259803Y22452D01*
X259810Y22452D01*
X259818Y22449D01*
X260968Y22207D01*
X261872Y22017D01*
X261877Y22017D01*
X261883Y22015D01*
X262790Y21845D01*
X262796Y21845D01*
X262802Y21843D01*
X263712Y21696D01*
X264774Y21524D01*
X264780Y21524D01*
X264787Y21522D01*
X265854Y21378D01*
X265860Y21378D01*
X265867Y21376D01*
X266935Y21262D01*
X267866Y21161D01*
X267871Y21161D01*
X267878Y21160D01*
X268810Y21081D01*
X268815Y21082D01*
X268821Y21081D01*
X269755Y21024D01*
X270597Y20973D01*
X270602Y20973D01*
X270608Y20972D01*
X271451Y20939D01*
X271456Y20940D01*
X271461Y20939D01*
X272304Y20924D01*
X273064Y20909D01*
X273069Y20910D01*
X273074Y20909D01*
X273835Y20909D01*
G37*
%LPC*%
G36*
X272147Y25947D02*
X272147Y25947D01*
X271040Y25980D01*
X269873Y26014D01*
X268714Y26084D01*
X267551Y26190D01*
X266274Y26309D01*
X265007Y26468D01*
X263739Y26673D01*
X262976Y26795D01*
X262220Y26934D01*
X261462Y27088D01*
X261461Y27088D01*
X260488Y27287D01*
X259524Y27510D01*
X258562Y27760D01*
X258562Y27761D01*
X257600Y28011D01*
X256647Y28286D01*
X255697Y28588D01*
X254819Y28867D01*
X253951Y29168D01*
X253085Y29491D01*
X252366Y29760D01*
X251658Y30041D01*
X250948Y30340D01*
X250192Y30659D01*
X249445Y30994D01*
X248701Y31346D01*
X248055Y31653D01*
X247422Y31969D01*
X246787Y32302D01*
X246786Y32302D01*
X246178Y32619D01*
X245577Y32947D01*
X244980Y33288D01*
X244269Y33694D01*
X243572Y34113D01*
X242876Y34552D01*
X242234Y34958D01*
X241604Y35374D01*
X240976Y35806D01*
X240296Y36276D01*
X239630Y36758D01*
X238966Y37261D01*
X238429Y37668D01*
X237902Y38083D01*
X237375Y38513D01*
X236821Y38966D01*
X236277Y39426D01*
X235738Y39903D01*
X235125Y40443D01*
X234525Y40997D01*
X233930Y41568D01*
X233666Y41822D01*
X233402Y42081D01*
X232334Y43148D01*
X231562Y43969D01*
X230814Y44812D01*
X230442Y45231D01*
X230081Y45652D01*
X229723Y46079D01*
X229046Y46890D01*
X228399Y47710D01*
X227775Y48549D01*
X227775Y48550D01*
X227236Y49272D01*
X226720Y50002D01*
X226222Y50745D01*
X226221Y50745D01*
X226221Y50746D01*
X225789Y51389D01*
X225374Y52035D01*
X224971Y52693D01*
X224458Y53530D01*
X223974Y54368D01*
X223509Y55223D01*
X223108Y55964D01*
X222726Y56706D01*
X222361Y57460D01*
X222361Y57461D01*
X221906Y58394D01*
X221484Y59330D01*
X221086Y60283D01*
X220695Y61215D01*
X220333Y62151D01*
X219996Y63099D01*
X219585Y64252D01*
X219217Y65408D01*
X218884Y66581D01*
X218630Y67475D01*
X218401Y68366D01*
X218192Y69269D01*
X218049Y69888D01*
X217918Y70506D01*
X217796Y71128D01*
X217552Y72376D01*
X217353Y73622D01*
X217195Y74881D01*
X217195Y74882D01*
X217116Y75509D01*
X217048Y76132D01*
X216991Y76760D01*
X216991Y76761D01*
X216900Y77750D01*
X216836Y78735D01*
X216797Y79727D01*
X216764Y80602D01*
X216750Y81471D01*
X216757Y82347D01*
X216764Y83227D01*
X216792Y84102D01*
X216840Y84981D01*
X216919Y86441D01*
X217056Y87889D01*
X217249Y89339D01*
X217395Y90429D01*
X217571Y91508D01*
X217781Y92591D01*
X217781Y92592D01*
X217963Y93530D01*
X218167Y94458D01*
X218397Y95389D01*
X218618Y96281D01*
X218858Y97159D01*
X219123Y98042D01*
X219388Y98922D01*
X219673Y99792D01*
X219982Y100662D01*
X220376Y101771D01*
X220802Y102862D01*
X221268Y103949D01*
X221800Y105189D01*
X222373Y106407D01*
X222999Y107614D01*
X223429Y108446D01*
X223878Y109261D01*
X224352Y110074D01*
X224353Y110074D01*
X224638Y110564D01*
X224931Y111049D01*
X225232Y111531D01*
X225924Y112636D01*
X226652Y113716D01*
X227429Y114782D01*
X228006Y115574D01*
X228602Y116349D01*
X229226Y117117D01*
X229900Y117948D01*
X230597Y118758D01*
X231326Y119558D01*
X231914Y120203D01*
X232517Y120835D01*
X233965Y122283D01*
X234803Y123070D01*
X235662Y123831D01*
X236522Y124593D01*
X237394Y125317D01*
X238289Y126017D01*
X239554Y127006D01*
X240842Y127927D01*
X242168Y128792D01*
X243163Y129441D01*
X244166Y130051D01*
X245191Y130631D01*
X246205Y131204D01*
X247226Y131740D01*
X248266Y132245D01*
X249189Y132692D01*
X249060Y132517D01*
X249056Y132508D01*
X249047Y132498D01*
X248857Y132212D01*
X248756Y132062D01*
X248754Y132056D01*
X248749Y132051D01*
X248653Y131899D01*
X248651Y131893D01*
X248646Y131888D01*
X248555Y131735D01*
X248374Y131434D01*
X248371Y131423D01*
X248362Y131413D01*
X248198Y131105D01*
X248194Y131094D01*
X248186Y131081D01*
X248039Y130769D01*
X248039Y130768D01*
X238483Y110262D01*
X238391Y110065D01*
X238390Y110061D01*
X238387Y110058D01*
X238298Y109859D01*
X238297Y109854D01*
X238294Y109849D01*
X238210Y109652D01*
X238046Y109269D01*
X238045Y109262D01*
X238040Y109254D01*
X237891Y108871D01*
X237890Y108864D01*
X237885Y108855D01*
X237751Y108473D01*
X237654Y108199D01*
X237653Y108193D01*
X237650Y108187D01*
X237561Y107912D01*
X237561Y107906D01*
X237557Y107900D01*
X237477Y107625D01*
X237476Y107625D01*
X237353Y107204D01*
X237352Y107196D01*
X237348Y107186D01*
X237242Y106766D01*
X237241Y106757D01*
X237237Y106747D01*
X237149Y106327D01*
X237071Y105953D01*
X237071Y105945D01*
X237068Y105936D01*
X237003Y105563D01*
X237003Y105554D01*
X237000Y105544D01*
X236950Y105172D01*
X236950Y105171D01*
X236898Y104776D01*
X236898Y104768D01*
X236896Y104758D01*
X236858Y104365D01*
X236859Y104355D01*
X236856Y104344D01*
X236835Y103950D01*
X236806Y103429D01*
X236808Y103417D01*
X236805Y103402D01*
X236805Y102880D01*
X236807Y102869D01*
X236805Y102854D01*
X236832Y102333D01*
X236832Y102332D01*
X236861Y101773D01*
X236865Y101761D01*
X236864Y101745D01*
X236925Y101186D01*
X236929Y101174D01*
X236929Y101159D01*
X237021Y100601D01*
X237022Y100601D01*
X237097Y100148D01*
X237100Y100138D01*
X237101Y100125D01*
X237197Y99674D01*
X237201Y99665D01*
X237202Y99654D01*
X237318Y99201D01*
X237318Y99200D01*
X237435Y98750D01*
X237439Y98741D01*
X237441Y98730D01*
X237578Y98280D01*
X237583Y98271D01*
X237585Y98260D01*
X237743Y97809D01*
X237823Y97582D01*
X237826Y97578D01*
X237827Y97573D01*
X237912Y97345D01*
X237915Y97341D01*
X237916Y97334D01*
X238008Y97107D01*
X238202Y96621D01*
X238207Y96613D01*
X238210Y96602D01*
X238417Y96138D01*
X238423Y96131D01*
X238426Y96120D01*
X238645Y95677D01*
X238976Y95008D01*
X238985Y94996D01*
X238992Y94978D01*
X239353Y94360D01*
X239364Y94348D01*
X239372Y94330D01*
X239760Y93761D01*
X240206Y93109D01*
X240220Y93095D01*
X240233Y93073D01*
X240716Y92487D01*
X240733Y92473D01*
X240748Y92451D01*
X279008Y54192D01*
X279177Y54009D01*
X279341Y53816D01*
X279783Y53299D01*
X280119Y52793D01*
X280388Y52246D01*
X280656Y51699D01*
X280827Y51170D01*
X280925Y50591D01*
X280993Y50187D01*
X281020Y49800D01*
X281007Y49378D01*
X280995Y48979D01*
X280948Y48592D01*
X280863Y48176D01*
X280863Y48175D01*
X280717Y47471D01*
X280475Y46768D01*
X280116Y46012D01*
X280116Y46011D01*
X280115Y46010D01*
X277738Y40948D01*
X277594Y40645D01*
X277592Y40636D01*
X277586Y40626D01*
X277458Y40324D01*
X277456Y40315D01*
X277450Y40305D01*
X277338Y40007D01*
X277116Y39416D01*
X277112Y39395D01*
X277101Y39370D01*
X276945Y38793D01*
X276943Y38770D01*
X276934Y38742D01*
X276843Y38179D01*
X276749Y37598D01*
X276750Y37573D01*
X276743Y37541D01*
X276718Y36975D01*
X276722Y36949D01*
X276719Y36913D01*
X276763Y36362D01*
X276805Y35841D01*
X276813Y35816D01*
X276814Y35782D01*
X276917Y35275D01*
X276927Y35251D01*
X276933Y35216D01*
X277099Y34722D01*
X277232Y34325D01*
X277243Y34307D01*
X277250Y34281D01*
X277424Y33891D01*
X277436Y33875D01*
X277444Y33850D01*
X277658Y33470D01*
X278023Y32824D01*
X278043Y32800D01*
X278063Y32763D01*
X278543Y32142D01*
X278564Y32124D01*
X278585Y32095D01*
X283211Y27468D01*
X283224Y27460D01*
X283236Y27445D01*
X283493Y27220D01*
X283508Y27212D01*
X283523Y27196D01*
X283737Y27036D01*
X283409Y26968D01*
X282151Y26754D01*
X280789Y26521D01*
X279429Y26342D01*
X278056Y26210D01*
X276823Y26092D01*
X275594Y26016D01*
X274357Y25980D01*
X274356Y25980D01*
X273248Y25947D01*
X272147Y25947D01*
G37*
%LPD*%
%LPC*%
G36*
X289604Y28674D02*
X289604Y28674D01*
X289608Y28685D01*
X289617Y28697D01*
X289755Y28957D01*
X289757Y28966D01*
X289764Y28976D01*
X289900Y29261D01*
X289901Y29263D01*
X289902Y29265D01*
X305726Y63087D01*
X306201Y63922D01*
X306214Y63962D01*
X306236Y63997D01*
X306245Y64055D01*
X306263Y64111D01*
X306260Y64153D01*
X306266Y64194D01*
X306258Y64224D01*
X306411Y64552D01*
X309065Y70224D01*
X309065Y70225D01*
X309405Y70956D01*
X309408Y70968D01*
X309415Y70979D01*
X309708Y71701D01*
X309710Y71713D01*
X309717Y71725D01*
X309962Y72436D01*
X310146Y72966D01*
X310147Y72975D01*
X310153Y72986D01*
X310309Y73510D01*
X310310Y73520D01*
X310315Y73530D01*
X310445Y74048D01*
X310492Y74230D01*
X310492Y74234D01*
X310494Y74238D01*
X310536Y74418D01*
X310536Y74422D01*
X310538Y74425D01*
X310577Y74606D01*
X310578Y74607D01*
X310652Y74949D01*
X310652Y74956D01*
X310654Y74963D01*
X310718Y75302D01*
X310717Y75310D01*
X310720Y75319D01*
X310771Y75655D01*
X310820Y75973D01*
X310819Y75979D01*
X310822Y75987D01*
X310861Y76303D01*
X310860Y76312D01*
X310863Y76321D01*
X310890Y76636D01*
X310921Y76990D01*
X310920Y76998D01*
X310922Y77007D01*
X310941Y77360D01*
X310940Y77369D01*
X310942Y77380D01*
X310947Y77729D01*
X310947Y77730D01*
X310952Y78107D01*
X310951Y78115D01*
X310952Y78126D01*
X310943Y78499D01*
X310941Y78509D01*
X310942Y78521D01*
X310916Y78889D01*
X310896Y79197D01*
X310894Y79205D01*
X310894Y79215D01*
X310863Y79522D01*
X310860Y79530D01*
X310861Y79541D01*
X310818Y79843D01*
X310761Y80253D01*
X310757Y80263D01*
X310757Y80277D01*
X310680Y80682D01*
X310676Y80691D01*
X310675Y80704D01*
X310580Y81103D01*
X310525Y81335D01*
X310522Y81342D01*
X310521Y81352D01*
X310458Y81581D01*
X310456Y81586D01*
X310455Y81592D01*
X310388Y81821D01*
X310387Y81822D01*
X310387Y81824D01*
X310315Y82061D01*
X310312Y82066D01*
X310311Y82073D01*
X310233Y82309D01*
X310230Y82314D01*
X310228Y82322D01*
X310144Y82556D01*
X310056Y82797D01*
X310053Y82803D01*
X310052Y82810D01*
X309957Y83050D01*
X309953Y83056D01*
X309951Y83065D01*
X309849Y83302D01*
X309849Y83303D01*
X309695Y83660D01*
X309689Y83668D01*
X309686Y83679D01*
X309516Y84033D01*
X309510Y84041D01*
X309506Y84052D01*
X309319Y84402D01*
X309144Y84731D01*
X309138Y84738D01*
X309134Y84748D01*
X308943Y85073D01*
X308938Y85079D01*
X308934Y85088D01*
X308729Y85411D01*
X308728Y85412D01*
X308728Y85413D01*
X308594Y85622D01*
X308591Y85625D01*
X308589Y85630D01*
X308450Y85838D01*
X308446Y85842D01*
X308443Y85849D01*
X308297Y86056D01*
X308296Y86057D01*
X308135Y86284D01*
X308131Y86288D01*
X308128Y86294D01*
X307959Y86522D01*
X307956Y86525D01*
X307953Y86530D01*
X307777Y86756D01*
X307776Y86757D01*
X307585Y87002D01*
X307580Y87005D01*
X307577Y87011D01*
X307377Y87254D01*
X307372Y87258D01*
X307369Y87264D01*
X307160Y87504D01*
X307159Y87505D01*
X306857Y87851D01*
X306851Y87855D01*
X306846Y87862D01*
X306527Y88205D01*
X306521Y88210D01*
X306515Y88218D01*
X261042Y133692D01*
X261039Y133694D01*
X261036Y133697D01*
X260941Y133789D01*
X260939Y133790D01*
X260938Y133793D01*
X260842Y133883D01*
X260644Y134073D01*
X260638Y134076D01*
X260634Y134082D01*
X260435Y134261D01*
X260430Y134264D01*
X260424Y134271D01*
X260226Y134439D01*
X260073Y134570D01*
X260068Y134573D01*
X260062Y134579D01*
X259908Y134704D01*
X259903Y134706D01*
X259898Y134712D01*
X259744Y134829D01*
X259566Y134966D01*
X259560Y134970D01*
X259553Y134976D01*
X259375Y135104D01*
X259369Y135107D01*
X259363Y135112D01*
X259188Y135230D01*
X258934Y135403D01*
X258922Y135408D01*
X258911Y135418D01*
X258656Y135571D01*
X258646Y135574D01*
X258636Y135582D01*
X258384Y135718D01*
X258384Y135719D01*
X258151Y135844D01*
X258140Y135847D01*
X258129Y135855D01*
X258036Y135899D01*
X258695Y136081D01*
X259597Y136305D01*
X260508Y136508D01*
X261559Y136741D01*
X262608Y136943D01*
X263668Y137115D01*
X263669Y137115D01*
X264952Y137325D01*
X266232Y137487D01*
X267524Y137607D01*
X268746Y137719D01*
X269962Y137791D01*
X271187Y137825D01*
X272109Y137850D01*
X273026Y137852D01*
X273948Y137831D01*
X274763Y137813D01*
X275571Y137778D01*
X276383Y137725D01*
X277551Y137648D01*
X278709Y137535D01*
X279871Y137386D01*
X280980Y137244D01*
X282079Y137069D01*
X283178Y136860D01*
X283943Y136715D01*
X284701Y136555D01*
X285460Y136378D01*
X286503Y136135D01*
X287534Y135863D01*
X288564Y135560D01*
X289374Y135321D01*
X290175Y135065D01*
X290975Y134790D01*
X291911Y134467D01*
X292836Y134120D01*
X293757Y133746D01*
X294521Y133436D01*
X295276Y133110D01*
X296028Y132765D01*
X297214Y132222D01*
X298377Y131638D01*
X299531Y131007D01*
X300059Y130719D01*
X300581Y130423D01*
X301101Y130115D01*
X301911Y129638D01*
X302704Y129142D01*
X303494Y128621D01*
X304183Y128166D01*
X304858Y127697D01*
X305532Y127208D01*
X306014Y126858D01*
X306486Y126503D01*
X306960Y126136D01*
X307487Y125726D01*
X308006Y125308D01*
X308521Y124878D01*
X309148Y124355D01*
X309761Y123819D01*
X310370Y123264D01*
X310918Y122764D01*
X311456Y122254D01*
X311989Y121728D01*
X312080Y121638D01*
X312168Y121550D01*
X313157Y120562D01*
X314011Y119649D01*
X314833Y118710D01*
X315595Y117840D01*
X316319Y116960D01*
X317016Y116057D01*
X317016Y116056D01*
X317736Y115125D01*
X318417Y114183D01*
X319070Y113219D01*
X319715Y112267D01*
X320324Y111304D01*
X320903Y110323D01*
X321366Y109539D01*
X321805Y108753D01*
X322226Y107952D01*
X322781Y106899D01*
X323295Y105841D01*
X323777Y104762D01*
X324272Y103656D01*
X324727Y102545D01*
X325147Y101416D01*
X325535Y100369D01*
X325889Y99319D01*
X326214Y98256D01*
X326476Y97396D01*
X326715Y96536D01*
X326935Y95666D01*
X327226Y94512D01*
X327480Y93356D01*
X327697Y92188D01*
X327929Y90945D01*
X328116Y89705D01*
X328263Y88451D01*
X328383Y87426D01*
X328475Y86404D01*
X328538Y85374D01*
X328596Y84443D01*
X328630Y83518D01*
X328642Y82586D01*
X328656Y81444D01*
X328635Y80310D01*
X328579Y79169D01*
X328520Y77963D01*
X328424Y76768D01*
X328288Y75567D01*
X328180Y74611D01*
X328049Y73661D01*
X327891Y72711D01*
X327890Y72711D01*
X327678Y71430D01*
X327423Y70163D01*
X327122Y68897D01*
X326707Y67154D01*
X326212Y65437D01*
X325627Y63733D01*
X325204Y62497D01*
X324740Y61282D01*
X324229Y60074D01*
X323793Y59043D01*
X323328Y58030D01*
X322827Y57022D01*
X322827Y57021D01*
X322826Y57021D01*
X322018Y55392D01*
X321130Y53804D01*
X320153Y52245D01*
X320153Y52244D01*
X319454Y51128D01*
X318717Y50038D01*
X317932Y48964D01*
X317171Y47921D01*
X316374Y46905D01*
X315533Y45907D01*
X315533Y45906D01*
X314969Y45235D01*
X314389Y44579D01*
X313788Y43928D01*
X313787Y43928D01*
X311716Y41681D01*
X311678Y41618D01*
X311634Y41560D01*
X311629Y41541D01*
X311492Y41459D01*
X309423Y39692D01*
X309421Y39690D01*
X309419Y39689D01*
X308636Y39006D01*
X307844Y38353D01*
X307033Y37721D01*
X306134Y37021D01*
X305224Y36356D01*
X304293Y35717D01*
X303422Y35119D01*
X302544Y34553D01*
X301647Y34011D01*
X300766Y33477D01*
X299879Y32973D01*
X298976Y32493D01*
X297843Y31890D01*
X296701Y31331D01*
X295538Y30812D01*
X294357Y30285D01*
X293171Y29803D01*
X291965Y29363D01*
X290754Y28919D01*
X289539Y28522D01*
X289507Y28513D01*
X289604Y28674D01*
G37*
%LPD*%
G36*
X169106Y80939D02*
X169106Y80939D01*
X169111Y80940D01*
X169116Y80939D01*
X169820Y80960D01*
X170484Y80979D01*
X170488Y80980D01*
X170493Y80980D01*
X171140Y81011D01*
X171145Y81012D01*
X171150Y81012D01*
X171781Y81054D01*
X171781Y81055D01*
X171781Y81054D01*
X172364Y81095D01*
X172369Y81096D01*
X172374Y81095D01*
X172943Y81145D01*
X172947Y81147D01*
X172952Y81146D01*
X173508Y81206D01*
X174168Y81277D01*
X174173Y81279D01*
X174180Y81279D01*
X174821Y81363D01*
X174826Y81365D01*
X174833Y81365D01*
X175455Y81462D01*
X176131Y81567D01*
X176136Y81570D01*
X176144Y81570D01*
X176797Y81689D01*
X176802Y81692D01*
X176810Y81692D01*
X177443Y81826D01*
X177885Y81920D01*
X177890Y81921D01*
X177895Y81922D01*
X178328Y82023D01*
X178332Y82025D01*
X178337Y82025D01*
X178759Y82132D01*
X179330Y82276D01*
X179336Y82278D01*
X179343Y82279D01*
X179896Y82435D01*
X179902Y82438D01*
X179909Y82439D01*
X180443Y82607D01*
X180905Y82751D01*
X180910Y82753D01*
X180916Y82755D01*
X181365Y82906D01*
X181369Y82909D01*
X181376Y82911D01*
X181811Y83070D01*
X182235Y83225D01*
X182239Y83228D01*
X182246Y83229D01*
X182657Y83391D01*
X182662Y83394D01*
X182669Y83396D01*
X182842Y83469D01*
X183067Y83564D01*
X183512Y83752D01*
X183517Y83755D01*
X183525Y83757D01*
X183955Y83953D01*
X183960Y83956D01*
X183967Y83959D01*
X184383Y84162D01*
X184816Y84373D01*
X184821Y84377D01*
X184829Y84380D01*
X185246Y84599D01*
X185251Y84603D01*
X185258Y84605D01*
X185661Y84832D01*
X185929Y84983D01*
X185932Y84986D01*
X185937Y84987D01*
X186198Y85141D01*
X186202Y85144D01*
X186206Y85146D01*
X186461Y85302D01*
X186876Y85557D01*
X186881Y85562D01*
X186889Y85565D01*
X187286Y85827D01*
X187291Y85832D01*
X187299Y85836D01*
X187680Y86104D01*
X188007Y86335D01*
X188011Y86339D01*
X188017Y86342D01*
X188332Y86577D01*
X188336Y86582D01*
X188343Y86586D01*
X188645Y86825D01*
X188957Y87071D01*
X188962Y87076D01*
X188969Y87080D01*
X189268Y87331D01*
X189272Y87335D01*
X189278Y87339D01*
X189566Y87593D01*
X189957Y87939D01*
X189962Y87946D01*
X189971Y87952D01*
X190341Y88305D01*
X190345Y88312D01*
X190353Y88317D01*
X190702Y88674D01*
X190888Y88866D01*
X190891Y88870D01*
X190895Y88873D01*
X191075Y89065D01*
X191078Y89069D01*
X191082Y89072D01*
X191256Y89266D01*
X191483Y89518D01*
X191487Y89523D01*
X191492Y89527D01*
X191709Y89781D01*
X191711Y89785D01*
X191716Y89789D01*
X191924Y90044D01*
X191925Y90044D01*
X192202Y90383D01*
X192205Y90390D01*
X192212Y90396D01*
X192472Y90737D01*
X192475Y90744D01*
X192481Y90750D01*
X192726Y91093D01*
X192903Y91340D01*
X192905Y91345D01*
X192910Y91350D01*
X193079Y91599D01*
X193081Y91603D01*
X193084Y91607D01*
X193246Y91855D01*
X193385Y92070D01*
X193387Y92074D01*
X193391Y92078D01*
X193524Y92293D01*
X193526Y92297D01*
X193529Y92301D01*
X193657Y92515D01*
X193817Y92783D01*
X193819Y92788D01*
X193823Y92794D01*
X193975Y93061D01*
X193976Y93066D01*
X193980Y93071D01*
X194123Y93337D01*
X194308Y93682D01*
X194310Y93689D01*
X194315Y93695D01*
X194487Y94038D01*
X194489Y94045D01*
X194493Y94051D01*
X194651Y94390D01*
X194830Y94774D01*
X194832Y94781D01*
X194837Y94789D01*
X194999Y95169D01*
X195001Y95175D01*
X195005Y95182D01*
X195152Y95553D01*
X195152Y95554D01*
X195299Y95927D01*
X195300Y95934D01*
X195304Y95941D01*
X195436Y96306D01*
X195437Y96312D01*
X195440Y96319D01*
X195557Y96674D01*
X195557Y96675D01*
X195558Y96675D01*
X195686Y97065D01*
X195687Y97072D01*
X195690Y97080D01*
X195802Y97457D01*
X195802Y97464D01*
X195806Y97471D01*
X195901Y97834D01*
X195988Y98161D01*
X195988Y98167D01*
X195991Y98174D01*
X196065Y98488D01*
X196065Y98493D01*
X196068Y98500D01*
X196130Y98799D01*
X196200Y99130D01*
X196200Y99137D01*
X196203Y99145D01*
X196259Y99457D01*
X196259Y99464D01*
X196261Y99471D01*
X196304Y99761D01*
X196349Y100050D01*
X196348Y100057D01*
X196351Y100066D01*
X196383Y100334D01*
X196382Y100339D01*
X196384Y100346D01*
X196407Y100589D01*
X196407Y100590D01*
X196467Y101239D01*
X196465Y101263D01*
X196469Y101293D01*
X196462Y101771D01*
X196455Y101799D01*
X196456Y101839D01*
X196418Y102089D01*
X196412Y102102D01*
X196412Y102117D01*
X196378Y102195D01*
X196360Y102245D01*
X196366Y102250D01*
X196391Y102313D01*
X196424Y102372D01*
X196429Y102409D01*
X196440Y102435D01*
X196440Y102486D01*
X196448Y102537D01*
X196443Y102712D01*
X196447Y102944D01*
X196445Y102955D01*
X196447Y102967D01*
X196437Y103260D01*
X196432Y103425D01*
X196431Y103429D01*
X196432Y103433D01*
X196423Y103616D01*
X196421Y103623D01*
X196422Y103632D01*
X196406Y103828D01*
X196406Y103829D01*
X196406Y103831D01*
X196388Y104046D01*
X196386Y104052D01*
X196386Y104060D01*
X196360Y104294D01*
X196356Y104304D01*
X196356Y104318D01*
X196315Y104568D01*
X196284Y104760D01*
X196282Y104766D01*
X196282Y104774D01*
X196243Y104977D01*
X196240Y104985D01*
X196239Y104995D01*
X196190Y105208D01*
X196190Y105209D01*
X196190Y105210D01*
X196131Y105465D01*
X196127Y105473D01*
X196126Y105484D01*
X196053Y105752D01*
X196048Y105762D01*
X196046Y105775D01*
X195954Y106056D01*
X195900Y106223D01*
X195897Y106228D01*
X195895Y106236D01*
X195834Y106406D01*
X195831Y106412D01*
X195829Y106419D01*
X195761Y106594D01*
X195761Y106595D01*
X195659Y106856D01*
X195654Y106864D01*
X195651Y106875D01*
X195533Y107145D01*
X195528Y107153D01*
X195525Y107164D01*
X195388Y107443D01*
X195388Y107444D01*
X195387Y107446D01*
X195291Y107639D01*
X195288Y107643D01*
X195287Y107648D01*
X195183Y107846D01*
X195178Y107853D01*
X195174Y107862D01*
X195061Y108061D01*
X194952Y108254D01*
X194948Y108259D01*
X194945Y108267D01*
X194827Y108463D01*
X194822Y108468D01*
X194818Y108477D01*
X194689Y108675D01*
X194538Y108912D01*
X194532Y108919D01*
X194527Y108929D01*
X194358Y109173D01*
X194353Y109177D01*
X194349Y109184D01*
X194165Y109433D01*
X194068Y109565D01*
X194064Y109569D01*
X194061Y109574D01*
X193959Y109706D01*
X193957Y109708D01*
X193955Y109710D01*
X193849Y109845D01*
X193848Y109845D01*
X193848Y109846D01*
X193694Y110039D01*
X193689Y110043D01*
X193686Y110048D01*
X193522Y110244D01*
X193518Y110247D01*
X193515Y110252D01*
X193341Y110450D01*
X193341Y110451D01*
X193074Y110753D01*
X193068Y110758D01*
X193063Y110766D01*
X192773Y111073D01*
X192766Y111078D01*
X192760Y111086D01*
X192445Y111397D01*
X192195Y111643D01*
X192190Y111647D01*
X192185Y111653D01*
X191919Y111901D01*
X191914Y111905D01*
X191909Y111910D01*
X191626Y112161D01*
X191625Y112161D01*
X191403Y112359D01*
X191398Y112362D01*
X191394Y112366D01*
X191159Y112566D01*
X191155Y112569D01*
X191151Y112573D01*
X190905Y112774D01*
X190904Y112774D01*
X190601Y113021D01*
X190597Y113024D01*
X190592Y113028D01*
X190272Y113277D01*
X190267Y113279D01*
X190263Y113284D01*
X189925Y113535D01*
X189924Y113535D01*
X189924Y113536D01*
X189611Y113767D01*
X189607Y113769D01*
X189603Y113772D01*
X189275Y114006D01*
X189270Y114008D01*
X189266Y114013D01*
X188921Y114246D01*
X188618Y114452D01*
X188613Y114454D01*
X188609Y114458D01*
X188293Y114664D01*
X188290Y114665D01*
X188287Y114668D01*
X187957Y114875D01*
X187957Y114876D01*
X187603Y115098D01*
X187599Y115099D01*
X187596Y115102D01*
X187228Y115325D01*
X187224Y115327D01*
X187220Y115330D01*
X186836Y115554D01*
X186397Y115809D01*
X186393Y115810D01*
X186389Y115814D01*
X185929Y116070D01*
X185925Y116071D01*
X185922Y116074D01*
X185441Y116330D01*
X185440Y116331D01*
X185131Y116495D01*
X185129Y116496D01*
X185126Y116498D01*
X184808Y116662D01*
X184805Y116663D01*
X184803Y116665D01*
X184477Y116829D01*
X184243Y116947D01*
X184240Y116948D01*
X184238Y116949D01*
X184001Y117066D01*
X183999Y117066D01*
X183998Y117068D01*
X183755Y117185D01*
X183336Y117387D01*
X183334Y117388D01*
X183331Y117390D01*
X182898Y117592D01*
X182895Y117593D01*
X182892Y117595D01*
X182446Y117797D01*
X182111Y117948D01*
X182109Y117949D01*
X182107Y117950D01*
X181763Y118102D01*
X181761Y118102D01*
X181759Y118104D01*
X181409Y118254D01*
X181409Y118255D01*
X181006Y118429D01*
X181003Y118429D01*
X181000Y118431D01*
X180585Y118603D01*
X180584Y118604D01*
X180582Y118605D01*
X180158Y118778D01*
X180157Y118778D01*
X179885Y118889D01*
X179884Y118889D01*
X179882Y118890D01*
X179606Y119000D01*
X179605Y119000D01*
X179603Y119001D01*
X179323Y119111D01*
X179322Y119111D01*
X179165Y119172D01*
X179007Y119234D01*
X179005Y119234D01*
X179004Y119235D01*
X178845Y119296D01*
X178492Y119431D01*
X178484Y119432D01*
X178476Y119437D01*
X178120Y119559D01*
X178112Y119560D01*
X178103Y119564D01*
X177747Y119674D01*
X177746Y119674D01*
X177745Y119674D01*
X177566Y119729D01*
X177563Y119729D01*
X177560Y119730D01*
X177380Y119783D01*
X177376Y119783D01*
X177373Y119785D01*
X177192Y119834D01*
X177191Y119834D01*
X177189Y119835D01*
X176919Y119908D01*
X176914Y119908D01*
X176908Y119910D01*
X176638Y119976D01*
X176632Y119977D01*
X176626Y119979D01*
X176355Y120038D01*
X176102Y120094D01*
X176097Y120094D01*
X176092Y120096D01*
X175838Y120146D01*
X175833Y120146D01*
X175827Y120148D01*
X175572Y120192D01*
X175572Y120193D01*
X175306Y120239D01*
X175301Y120239D01*
X175295Y120241D01*
X175027Y120282D01*
X175023Y120282D01*
X175018Y120283D01*
X174751Y120319D01*
X174750Y120319D01*
X174363Y120370D01*
X174356Y120370D01*
X174348Y120372D01*
X173960Y120411D01*
X173954Y120411D01*
X173947Y120412D01*
X173559Y120442D01*
X173558Y120442D01*
X173257Y120464D01*
X173254Y120463D01*
X173249Y120464D01*
X172951Y120481D01*
X172945Y120480D01*
X172939Y120482D01*
X172639Y120492D01*
X172639Y120491D01*
X172639Y120492D01*
X172342Y120501D01*
X172337Y120500D01*
X172332Y120501D01*
X172035Y120505D01*
X172031Y120504D01*
X172025Y120505D01*
X171729Y120503D01*
X171493Y120503D01*
X171489Y120502D01*
X171484Y120503D01*
X171247Y120497D01*
X171245Y120497D01*
X171242Y120497D01*
X171005Y120490D01*
X171004Y120490D01*
X170735Y120480D01*
X170732Y120480D01*
X170728Y120480D01*
X170461Y120467D01*
X170458Y120466D01*
X170453Y120467D01*
X170186Y120449D01*
X169832Y120427D01*
X169827Y120426D01*
X169822Y120426D01*
X169469Y120397D01*
X169465Y120395D01*
X169459Y120396D01*
X169108Y120359D01*
X168867Y120334D01*
X168864Y120334D01*
X168860Y120334D01*
X168619Y120306D01*
X168617Y120305D01*
X168614Y120305D01*
X168374Y120274D01*
X167956Y120221D01*
X167951Y120219D01*
X167944Y120219D01*
X167528Y120157D01*
X167525Y120155D01*
X167520Y120155D01*
X167109Y120086D01*
X166729Y120022D01*
X166725Y120020D01*
X166720Y120020D01*
X166342Y119950D01*
X166339Y119948D01*
X166334Y119948D01*
X165962Y119872D01*
X165536Y119785D01*
X165532Y119783D01*
X165527Y119783D01*
X165109Y119690D01*
X165105Y119688D01*
X165100Y119687D01*
X164689Y119587D01*
X164245Y119481D01*
X164240Y119479D01*
X164234Y119478D01*
X163797Y119363D01*
X163794Y119362D01*
X163790Y119361D01*
X163363Y119243D01*
X162903Y119114D01*
X162900Y119112D01*
X162894Y119112D01*
X162447Y118978D01*
X162444Y118976D01*
X162440Y118976D01*
X162007Y118840D01*
X162006Y118840D01*
X161451Y118663D01*
X161447Y118661D01*
X161441Y118660D01*
X160911Y118480D01*
X160907Y118478D01*
X160902Y118477D01*
X160399Y118296D01*
X159900Y118117D01*
X159896Y118115D01*
X159891Y118114D01*
X159419Y117934D01*
X159416Y117932D01*
X159412Y117931D01*
X158970Y117756D01*
X158507Y117571D01*
X158504Y117569D01*
X158499Y117568D01*
X158071Y117390D01*
X158068Y117388D01*
X158064Y117387D01*
X157676Y117218D01*
X157262Y117037D01*
X157259Y117035D01*
X157254Y117034D01*
X156886Y116867D01*
X156883Y116865D01*
X156880Y116864D01*
X156562Y116714D01*
X156316Y116599D01*
X156314Y116597D01*
X156311Y116596D01*
X156095Y116491D01*
X156094Y116490D01*
X156092Y116490D01*
X155910Y116400D01*
X155460Y116177D01*
X155452Y116171D01*
X155441Y116167D01*
X155197Y116032D01*
X155152Y115994D01*
X155102Y115965D01*
X155077Y115931D01*
X155045Y115903D01*
X155019Y115851D01*
X154984Y115805D01*
X154975Y115763D01*
X154956Y115726D01*
X154952Y115668D01*
X154939Y115611D01*
X154946Y115569D01*
X154943Y115527D01*
X154962Y115472D01*
X154972Y115415D01*
X154995Y115379D01*
X155009Y115339D01*
X155047Y115297D01*
X155079Y115248D01*
X155114Y115224D01*
X155142Y115192D01*
X155195Y115168D01*
X155243Y115135D01*
X155284Y115127D01*
X155323Y115109D01*
X155381Y115107D01*
X155438Y115096D01*
X155486Y115104D01*
X155521Y115103D01*
X155561Y115116D01*
X155602Y115123D01*
X156614Y115476D01*
X158354Y115873D01*
X158619Y115933D01*
X158896Y115993D01*
X159192Y116055D01*
X159445Y116107D01*
X159710Y116160D01*
X159987Y116211D01*
X160257Y116260D01*
X160532Y116310D01*
X160819Y116357D01*
X160819Y116358D01*
X160820Y116358D01*
X161045Y116396D01*
X161274Y116432D01*
X161509Y116467D01*
X161510Y116467D01*
X161511Y116467D01*
X161715Y116498D01*
X161925Y116528D01*
X162137Y116556D01*
X162374Y116588D01*
X162618Y116620D01*
X162864Y116648D01*
X162865Y116649D01*
X163182Y116686D01*
X163504Y116721D01*
X163834Y116752D01*
X164089Y116777D01*
X164344Y116799D01*
X164609Y116819D01*
X164610Y116819D01*
X164928Y116844D01*
X165255Y116865D01*
X165585Y116883D01*
X165960Y116903D01*
X166337Y116918D01*
X166724Y116928D01*
X166725Y116928D01*
X167064Y116937D01*
X167401Y116942D01*
X167749Y116942D01*
X168022Y116941D01*
X168292Y116939D01*
X168568Y116933D01*
X168569Y116933D01*
X168570Y116933D01*
X169117Y116923D01*
X169667Y116900D01*
X170231Y116863D01*
X170232Y116863D01*
X170682Y116835D01*
X171132Y116798D01*
X171591Y116751D01*
X172177Y116692D01*
X172765Y116618D01*
X173362Y116527D01*
X173363Y116527D01*
X173801Y116459D01*
X174239Y116383D01*
X174684Y116296D01*
X175097Y116216D01*
X175508Y116127D01*
X175926Y116030D01*
X176373Y115925D01*
X176816Y115809D01*
X177267Y115683D01*
X177471Y115625D01*
X177471Y115624D01*
X177677Y115564D01*
X177883Y115500D01*
X177884Y115500D01*
X177885Y115500D01*
X178460Y115324D01*
X179019Y115146D01*
X179556Y114968D01*
X180020Y114813D01*
X180462Y114662D01*
X180896Y114506D01*
X180897Y114506D01*
X180898Y114505D01*
X181254Y114379D01*
X181596Y114253D01*
X181937Y114124D01*
X182274Y113996D01*
X182603Y113868D01*
X182925Y113739D01*
X182926Y113739D01*
X182927Y113738D01*
X183287Y113595D01*
X183632Y113452D01*
X183970Y113307D01*
X183971Y113307D01*
X183971Y113306D01*
X184329Y113154D01*
X184669Y113003D01*
X185005Y112849D01*
X185006Y112849D01*
X185006Y112848D01*
X185316Y112707D01*
X185617Y112565D01*
X185910Y112421D01*
X185911Y112421D01*
X185912Y112420D01*
X186140Y112310D01*
X186359Y112200D01*
X186580Y112087D01*
X186581Y112087D01*
X186581Y112086D01*
X186783Y111984D01*
X186974Y111883D01*
X187168Y111778D01*
X187169Y111778D01*
X187397Y111656D01*
X187617Y111533D01*
X187832Y111412D01*
X188038Y111293D01*
X188236Y111179D01*
X188428Y111061D01*
X188430Y111061D01*
X188431Y111059D01*
X188697Y110900D01*
X188950Y110743D01*
X189195Y110584D01*
X189196Y110584D01*
X189196Y110583D01*
X189409Y110446D01*
X189611Y110310D01*
X189812Y110172D01*
X189973Y110061D01*
X190122Y109955D01*
X190275Y109844D01*
X190450Y109716D01*
X190615Y109591D01*
X190779Y109464D01*
X190928Y109349D01*
X191066Y109238D01*
X191206Y109122D01*
X191207Y109122D01*
X191404Y108960D01*
X191588Y108804D01*
X191765Y108644D01*
X191890Y108532D01*
X192006Y108425D01*
X192124Y108314D01*
X192124Y108313D01*
X192277Y108169D01*
X192419Y108029D01*
X192558Y107886D01*
X192831Y107605D01*
X193073Y107334D01*
X193299Y107059D01*
X193433Y106896D01*
X193555Y106741D01*
X193672Y106583D01*
X193799Y106411D01*
X193915Y106245D01*
X194027Y106074D01*
X194028Y106073D01*
X194029Y106072D01*
X194124Y105929D01*
X194208Y105795D01*
X194292Y105652D01*
X194293Y105652D01*
X194380Y105503D01*
X194459Y105363D01*
X194534Y105219D01*
X194535Y105218D01*
X194536Y105216D01*
X194634Y105031D01*
X194719Y104854D01*
X194801Y104672D01*
X194859Y104540D01*
X194912Y104411D01*
X194963Y104283D01*
X195073Y104000D01*
X195160Y103737D01*
X195234Y103472D01*
X195336Y103109D01*
X195404Y102776D01*
X195455Y102448D01*
X195479Y102384D01*
X195494Y102318D01*
X195512Y102293D01*
X195507Y102288D01*
X195502Y102274D01*
X195492Y102263D01*
X195434Y102107D01*
X195414Y102006D01*
X195414Y102003D01*
X195413Y102000D01*
X195355Y101677D01*
X195208Y101194D01*
X195160Y101036D01*
X195104Y100869D01*
X195037Y100684D01*
X194947Y100437D01*
X194843Y100179D01*
X194714Y99896D01*
X194548Y99531D01*
X194352Y99155D01*
X194107Y98751D01*
X193968Y98523D01*
X193820Y98298D01*
X193652Y98065D01*
X193651Y98064D01*
X193650Y98063D01*
X193464Y97802D01*
X193265Y97547D01*
X193038Y97285D01*
X192800Y97009D01*
X192548Y96744D01*
X192264Y96476D01*
X192264Y96475D01*
X191977Y96204D01*
X191675Y95947D01*
X191336Y95690D01*
X191336Y95689D01*
X191006Y95439D01*
X190660Y95203D01*
X190275Y94972D01*
X189856Y94721D01*
X189416Y94489D01*
X188929Y94270D01*
X188329Y94000D01*
X187691Y93763D01*
X186978Y93557D01*
X186350Y93375D01*
X185690Y93224D01*
X184969Y93104D01*
X184359Y93003D01*
X183723Y92927D01*
X183041Y92877D01*
X182488Y92837D01*
X181919Y92814D01*
X181316Y92811D01*
X180666Y92809D01*
X179994Y92829D01*
X179282Y92875D01*
X178701Y92913D01*
X178105Y92967D01*
X177481Y93040D01*
X176884Y93110D01*
X176274Y93196D01*
X175636Y93300D01*
X175042Y93398D01*
X174438Y93510D01*
X173807Y93640D01*
X172994Y93807D01*
X172161Y94000D01*
X171288Y94224D01*
X170612Y94397D01*
X169923Y94587D01*
X169211Y94797D01*
X169210Y94797D01*
X167961Y95164D01*
X166659Y95585D01*
X165290Y96070D01*
X165290Y96071D01*
X164932Y96197D01*
X164580Y96322D01*
X164230Y96446D01*
X163533Y96693D01*
X162850Y96936D01*
X162850Y96937D01*
X162180Y97174D01*
X162179Y97174D01*
X161135Y97545D01*
X160122Y97905D01*
X160121Y97905D01*
X159137Y98252D01*
X158140Y98604D01*
X158140Y98605D01*
X157362Y98878D01*
X157361Y98878D01*
X157172Y98945D01*
X157171Y98945D01*
X157170Y98946D01*
X156230Y99273D01*
X155249Y99614D01*
X155248Y99614D01*
X155247Y99614D01*
X154296Y99942D01*
X154294Y99942D01*
X154293Y99942D01*
X153368Y100255D01*
X152272Y100625D01*
X152270Y100625D01*
X152268Y100626D01*
X151208Y100976D01*
X151206Y100976D01*
X151204Y100977D01*
X150174Y101306D01*
X149105Y101647D01*
X149103Y101647D01*
X149100Y101648D01*
X148065Y101966D01*
X148062Y101966D01*
X148058Y101968D01*
X147049Y102261D01*
X146268Y102488D01*
X146265Y102488D01*
X146263Y102490D01*
X145498Y102702D01*
X145495Y102703D01*
X145491Y102704D01*
X144739Y102902D01*
X144296Y103019D01*
X144294Y103019D01*
X144292Y103020D01*
X143854Y103131D01*
X143852Y103131D01*
X143850Y103132D01*
X143415Y103238D01*
X142713Y103409D01*
X142710Y103409D01*
X142705Y103411D01*
X142014Y103568D01*
X142010Y103568D01*
X142006Y103569D01*
X141321Y103713D01*
X140710Y103841D01*
X140706Y103841D01*
X140702Y103843D01*
X140096Y103959D01*
X140092Y103959D01*
X140088Y103961D01*
X139486Y104066D01*
X138810Y104183D01*
X138805Y104183D01*
X138800Y104185D01*
X138129Y104288D01*
X138124Y104288D01*
X138119Y104290D01*
X137450Y104378D01*
X136824Y104461D01*
X136819Y104461D01*
X136814Y104462D01*
X136190Y104532D01*
X136185Y104531D01*
X136179Y104533D01*
X135555Y104589D01*
X135051Y104634D01*
X135047Y104634D01*
X135042Y104635D01*
X134538Y104671D01*
X134533Y104671D01*
X134528Y104672D01*
X134024Y104698D01*
X133491Y104727D01*
X133487Y104726D01*
X133481Y104727D01*
X132946Y104746D01*
X132942Y104745D01*
X132937Y104746D01*
X132400Y104755D01*
X132399Y104755D01*
X131857Y104763D01*
X131853Y104762D01*
X131847Y104763D01*
X131302Y104760D01*
X131298Y104760D01*
X131293Y104760D01*
X130743Y104748D01*
X130304Y104738D01*
X130301Y104737D01*
X130296Y104737D01*
X129854Y104720D01*
X129851Y104719D01*
X129847Y104720D01*
X129401Y104696D01*
X128820Y104664D01*
X128815Y104663D01*
X128810Y104664D01*
X128222Y104621D01*
X128218Y104619D01*
X128212Y104620D01*
X127618Y104564D01*
X127617Y104564D01*
X127094Y104515D01*
X127091Y104514D01*
X127086Y104514D01*
X126558Y104456D01*
X126554Y104455D01*
X126550Y104455D01*
X126015Y104388D01*
X125492Y104321D01*
X125489Y104320D01*
X125485Y104320D01*
X124957Y104245D01*
X124954Y104244D01*
X124949Y104244D01*
X124414Y104159D01*
X123945Y104085D01*
X123942Y104084D01*
X123939Y104084D01*
X123463Y104004D01*
X123460Y104002D01*
X123457Y104002D01*
X122975Y103914D01*
X122349Y103798D01*
X122346Y103797D01*
X122342Y103797D01*
X121706Y103670D01*
X121703Y103668D01*
X121699Y103668D01*
X121051Y103529D01*
X120380Y103385D01*
X120376Y103383D01*
X120372Y103383D01*
X119688Y103225D01*
X119685Y103224D01*
X119682Y103223D01*
X118983Y103052D01*
X118982Y103052D01*
X118734Y102991D01*
X118733Y102990D01*
X118732Y102990D01*
X118486Y102929D01*
X118483Y102928D01*
X118480Y102927D01*
X118237Y102864D01*
X117801Y102752D01*
X117799Y102751D01*
X117796Y102750D01*
X117365Y102634D01*
X117363Y102633D01*
X117360Y102633D01*
X116936Y102513D01*
X116935Y102513D01*
X116543Y102403D01*
X116541Y102402D01*
X116538Y102402D01*
X116150Y102288D01*
X116148Y102287D01*
X116145Y102287D01*
X115761Y102171D01*
X115434Y102072D01*
X115432Y102071D01*
X115430Y102071D01*
X115105Y101969D01*
X115104Y101969D01*
X115102Y101968D01*
X114780Y101866D01*
X114779Y101866D01*
X114313Y101716D01*
X114311Y101715D01*
X114307Y101714D01*
X113848Y101561D01*
X113846Y101560D01*
X113843Y101559D01*
X113392Y101403D01*
X112837Y101210D01*
X112834Y101209D01*
X112830Y101208D01*
X112286Y101010D01*
X112284Y101009D01*
X112280Y101008D01*
X111747Y100806D01*
X111366Y100661D01*
X111364Y100660D01*
X111361Y100659D01*
X110986Y100512D01*
X110984Y100511D01*
X110981Y100511D01*
X110611Y100362D01*
X110610Y100361D01*
X110190Y100191D01*
X110188Y100190D01*
X110185Y100190D01*
X109771Y100017D01*
X109769Y100016D01*
X109766Y100015D01*
X109360Y99841D01*
X109052Y99709D01*
X109051Y99707D01*
X109048Y99707D01*
X108746Y99574D01*
X108745Y99573D01*
X108743Y99572D01*
X108444Y99438D01*
X107944Y99213D01*
X107941Y99211D01*
X107937Y99210D01*
X107449Y98982D01*
X107446Y98980D01*
X107442Y98979D01*
X106965Y98748D01*
X106526Y98535D01*
X106524Y98533D01*
X106520Y98532D01*
X106090Y98318D01*
X106088Y98316D01*
X106085Y98315D01*
X105666Y98099D01*
X105665Y98099D01*
X105273Y97896D01*
X105271Y97895D01*
X105268Y97894D01*
X104884Y97690D01*
X104882Y97689D01*
X104879Y97688D01*
X104503Y97483D01*
X104203Y97320D01*
X104201Y97318D01*
X104198Y97317D01*
X103903Y97153D01*
X103902Y97152D01*
X103900Y97151D01*
X103609Y96986D01*
X103608Y96986D01*
X103323Y96824D01*
X103322Y96823D01*
X103319Y96822D01*
X103039Y96660D01*
X103037Y96658D01*
X103035Y96657D01*
X102760Y96495D01*
X102452Y96314D01*
X102450Y96313D01*
X102448Y96311D01*
X102146Y96130D01*
X102145Y96128D01*
X102142Y96127D01*
X101847Y95946D01*
X101517Y95743D01*
X101516Y95741D01*
X101513Y95740D01*
X101191Y95537D01*
X101189Y95536D01*
X101187Y95535D01*
X100873Y95334D01*
X100873Y95333D01*
X100649Y95189D01*
X100648Y95188D01*
X100646Y95188D01*
X100427Y95044D01*
X100425Y95043D01*
X100423Y95042D01*
X100207Y94899D01*
X99883Y94684D01*
X99882Y94682D01*
X99879Y94681D01*
X99563Y94467D01*
X99562Y94466D01*
X99559Y94465D01*
X99253Y94254D01*
X99253Y94253D01*
X99252Y94253D01*
X98979Y94064D01*
X98978Y94062D01*
X98976Y94062D01*
X98709Y93874D01*
X98707Y93872D01*
X98705Y93871D01*
X98446Y93686D01*
X98168Y93486D01*
X98166Y93485D01*
X98164Y93484D01*
X97894Y93287D01*
X97892Y93285D01*
X97889Y93283D01*
X97626Y93087D01*
X97211Y92778D01*
X97208Y92776D01*
X97205Y92774D01*
X96808Y92470D01*
X96807Y92468D01*
X96804Y92467D01*
X96427Y92172D01*
X95934Y91785D01*
X95931Y91782D01*
X95927Y91780D01*
X95468Y91408D01*
X95466Y91406D01*
X95463Y91404D01*
X95038Y91052D01*
X95038Y91051D01*
X94740Y90803D01*
X94739Y90802D01*
X94737Y90801D01*
X94455Y90563D01*
X94454Y90562D01*
X94452Y90560D01*
X94187Y90333D01*
X93458Y89708D01*
X93455Y89704D01*
X93450Y89701D01*
X92848Y89162D01*
X92366Y88738D01*
X92344Y88709D01*
X92315Y88686D01*
X92284Y88630D01*
X92246Y88580D01*
X92237Y88544D01*
X92219Y88512D01*
X92212Y88449D01*
X92197Y88387D01*
X92202Y88351D01*
X92199Y88314D01*
X92217Y88253D01*
X92227Y88190D01*
X92246Y88159D01*
X92257Y88124D01*
X92298Y88075D01*
X92332Y88021D01*
X92362Y88000D01*
X92385Y87972D01*
X92442Y87943D01*
X92494Y87906D01*
X92530Y87899D01*
X92562Y87882D01*
X92626Y87878D01*
X92688Y87864D01*
X92724Y87871D01*
X92761Y87868D01*
X92839Y87892D01*
X92884Y87901D01*
X92901Y87911D01*
X92920Y87917D01*
X93141Y88028D01*
X93146Y88033D01*
X93155Y88035D01*
X93493Y88219D01*
X93942Y88455D01*
X93942Y88456D01*
X94295Y88642D01*
X94717Y88861D01*
X95202Y89105D01*
X95478Y89243D01*
X95773Y89389D01*
X96091Y89543D01*
X96528Y89754D01*
X97007Y89978D01*
X97521Y90210D01*
X97846Y90357D01*
X98187Y90507D01*
X98541Y90658D01*
X98542Y90658D01*
X99008Y90858D01*
X99498Y91060D01*
X100012Y91263D01*
X100013Y91263D01*
X100402Y91417D01*
X100800Y91570D01*
X101213Y91723D01*
X101585Y91860D01*
X101965Y91996D01*
X102357Y92131D01*
X102357Y92132D01*
X102925Y92328D01*
X103506Y92518D01*
X104111Y92705D01*
X104529Y92834D01*
X104954Y92960D01*
X105389Y93082D01*
X105390Y93082D01*
X105856Y93214D01*
X106325Y93339D01*
X106810Y93461D01*
X107257Y93574D01*
X107708Y93681D01*
X108169Y93784D01*
X108170Y93784D01*
X108795Y93924D01*
X109431Y94054D01*
X110084Y94173D01*
X110670Y94279D01*
X111262Y94377D01*
X111869Y94464D01*
X112459Y94549D01*
X113054Y94624D01*
X113660Y94688D01*
X114312Y94756D01*
X114972Y94812D01*
X115644Y94853D01*
X116379Y94899D01*
X117118Y94926D01*
X117873Y94934D01*
X118454Y94940D01*
X119034Y94935D01*
X119625Y94917D01*
X120203Y94900D01*
X120780Y94871D01*
X121368Y94829D01*
X121778Y94799D01*
X122187Y94763D01*
X122602Y94721D01*
X123192Y94661D01*
X123779Y94588D01*
X124376Y94500D01*
X124867Y94429D01*
X125354Y94348D01*
X125849Y94257D01*
X125850Y94256D01*
X126211Y94190D01*
X126567Y94119D01*
X126928Y94042D01*
X126929Y94042D01*
X127561Y93907D01*
X128191Y93756D01*
X128829Y93587D01*
X129468Y93417D01*
X130103Y93232D01*
X130748Y93026D01*
X131100Y92914D01*
X131454Y92798D01*
X131806Y92678D01*
X132585Y92414D01*
X133355Y92137D01*
X134126Y91846D01*
X134880Y91560D01*
X135628Y91265D01*
X136374Y90960D01*
X137260Y90598D01*
X138141Y90225D01*
X139018Y89844D01*
X139925Y89451D01*
X140828Y89050D01*
X141729Y88646D01*
X142781Y88176D01*
X143830Y87700D01*
X143832Y87700D01*
X143833Y87699D01*
X144881Y87231D01*
X145890Y86778D01*
X145891Y86778D01*
X146897Y86331D01*
X146900Y86330D01*
X146903Y86329D01*
X147911Y85894D01*
X148765Y85527D01*
X148767Y85527D01*
X148769Y85525D01*
X149623Y85167D01*
X149626Y85166D01*
X149629Y85164D01*
X150484Y84818D01*
X150950Y84630D01*
X150952Y84630D01*
X150954Y84629D01*
X151420Y84445D01*
X151422Y84445D01*
X151424Y84443D01*
X151892Y84264D01*
X152472Y84041D01*
X152475Y84041D01*
X152477Y84039D01*
X153058Y83823D01*
X153062Y83823D01*
X153065Y83820D01*
X153648Y83614D01*
X154244Y83402D01*
X154247Y83401D01*
X154251Y83400D01*
X154850Y83196D01*
X154854Y83195D01*
X154858Y83193D01*
X155459Y83001D01*
X156080Y82801D01*
X156084Y82801D01*
X156089Y82799D01*
X156712Y82611D01*
X156717Y82611D01*
X156722Y82608D01*
X157348Y82433D01*
X158070Y82231D01*
X158076Y82231D01*
X158081Y82228D01*
X158806Y82043D01*
X158813Y82043D01*
X158820Y82040D01*
X159549Y81874D01*
X160148Y81739D01*
X160153Y81738D01*
X160158Y81736D01*
X160760Y81613D01*
X160766Y81613D01*
X160773Y81611D01*
X161377Y81504D01*
X162014Y81390D01*
X162020Y81390D01*
X162027Y81388D01*
X162667Y81290D01*
X162673Y81290D01*
X162681Y81288D01*
X163326Y81208D01*
X163327Y81208D01*
X163653Y81168D01*
X163656Y81168D01*
X163659Y81167D01*
X163985Y81131D01*
X163989Y81132D01*
X163993Y81130D01*
X164322Y81099D01*
X164323Y81099D01*
X164982Y81037D01*
X164989Y81038D01*
X164997Y81036D01*
X165660Y80993D01*
X165667Y80994D01*
X165676Y80992D01*
X166345Y80971D01*
X166776Y80956D01*
X166779Y80957D01*
X166782Y80956D01*
X167208Y80947D01*
X167210Y80947D01*
X167212Y80947D01*
X167632Y80942D01*
X168374Y80933D01*
X168378Y80934D01*
X168384Y80933D01*
X169106Y80939D01*
G37*
G36*
X183805Y49252D02*
X183805Y49252D01*
X183809Y49252D01*
X183813Y49252D01*
X184205Y49260D01*
X184594Y49268D01*
X184598Y49269D01*
X184602Y49268D01*
X184979Y49281D01*
X184983Y49282D01*
X184988Y49282D01*
X185354Y49301D01*
X185706Y49320D01*
X185710Y49321D01*
X185715Y49321D01*
X186057Y49344D01*
X186062Y49346D01*
X186067Y49345D01*
X186399Y49375D01*
X186759Y49407D01*
X186763Y49408D01*
X186768Y49408D01*
X187116Y49445D01*
X187120Y49447D01*
X187126Y49446D01*
X187462Y49489D01*
X187894Y49545D01*
X187900Y49547D01*
X187907Y49547D01*
X188320Y49612D01*
X188326Y49614D01*
X188334Y49614D01*
X188728Y49687D01*
X189109Y49757D01*
X189115Y49759D01*
X189123Y49760D01*
X189487Y49838D01*
X189493Y49840D01*
X189501Y49841D01*
X189848Y49926D01*
X189849Y49926D01*
X190170Y50005D01*
X190176Y50008D01*
X190185Y50009D01*
X190493Y50094D01*
X190498Y50097D01*
X190506Y50098D01*
X190801Y50189D01*
X191078Y50274D01*
X191084Y50277D01*
X191092Y50279D01*
X191357Y50369D01*
X191362Y50372D01*
X191370Y50374D01*
X191624Y50468D01*
X191943Y50587D01*
X191950Y50592D01*
X191961Y50594D01*
X192262Y50720D01*
X192269Y50725D01*
X192280Y50728D01*
X192564Y50860D01*
X192806Y50972D01*
X192813Y50977D01*
X192822Y50980D01*
X193053Y51097D01*
X193059Y51101D01*
X193068Y51105D01*
X193287Y51225D01*
X193287Y51226D01*
X193502Y51345D01*
X193509Y51350D01*
X193518Y51354D01*
X193722Y51477D01*
X193729Y51482D01*
X193738Y51486D01*
X193932Y51613D01*
X194102Y51724D01*
X194108Y51729D01*
X194116Y51733D01*
X194278Y51846D01*
X194284Y51852D01*
X194292Y51856D01*
X194446Y51972D01*
X194447Y51973D01*
X194633Y52113D01*
X194639Y52120D01*
X194649Y52125D01*
X194824Y52269D01*
X194830Y52276D01*
X194839Y52282D01*
X195003Y52428D01*
X195153Y52561D01*
X195159Y52568D01*
X195168Y52574D01*
X195309Y52710D01*
X195314Y52717D01*
X195322Y52723D01*
X195455Y52861D01*
X195456Y52861D01*
X195456Y52862D01*
X195577Y52987D01*
X195581Y52993D01*
X195588Y52999D01*
X195702Y53126D01*
X195706Y53132D01*
X195713Y53139D01*
X195820Y53266D01*
X195915Y53379D01*
X195918Y53385D01*
X195924Y53390D01*
X196014Y53503D01*
X196017Y53510D01*
X196023Y53516D01*
X196108Y53630D01*
X196209Y53766D01*
X196212Y53774D01*
X196219Y53781D01*
X196313Y53919D01*
X196316Y53926D01*
X196323Y53933D01*
X196410Y54070D01*
X196410Y54071D01*
X196411Y54071D01*
X196478Y54176D01*
X196480Y54182D01*
X196484Y54187D01*
X196548Y54293D01*
X196550Y54299D01*
X196555Y54305D01*
X196615Y54411D01*
X196704Y54570D01*
X196707Y54578D01*
X196714Y54587D01*
X196795Y54746D01*
X196797Y54754D01*
X196803Y54763D01*
X196877Y54921D01*
X196961Y55101D01*
X196963Y55110D01*
X196969Y55120D01*
X197044Y55299D01*
X197045Y55308D01*
X197051Y55318D01*
X197117Y55496D01*
X197167Y55630D01*
X197168Y55637D01*
X197172Y55644D01*
X197217Y55778D01*
X197217Y55785D01*
X197221Y55793D01*
X197261Y55925D01*
X197302Y56059D01*
X197303Y56067D01*
X197307Y56075D01*
X197343Y56209D01*
X197344Y56215D01*
X197346Y56221D01*
X197379Y56353D01*
X197428Y56554D01*
X197428Y56564D01*
X197433Y56575D01*
X197473Y56772D01*
X197473Y56780D01*
X197476Y56790D01*
X197508Y56983D01*
X197535Y57149D01*
X197535Y57156D01*
X197537Y57165D01*
X197559Y57328D01*
X197558Y57334D01*
X197560Y57342D01*
X197577Y57501D01*
X197587Y57603D01*
X197587Y57608D01*
X197588Y57612D01*
X197597Y57713D01*
X197596Y57716D01*
X197597Y57720D01*
X197604Y57817D01*
X197620Y58049D01*
X197619Y58058D01*
X197621Y58070D01*
X197627Y58289D01*
X197626Y58296D01*
X197628Y58305D01*
X197627Y58508D01*
X197626Y58714D01*
X197625Y58722D01*
X197626Y58732D01*
X197619Y58922D01*
X197618Y58927D01*
X197619Y58932D01*
X197609Y59104D01*
X197609Y59105D01*
X197599Y59275D01*
X197597Y59281D01*
X197598Y59289D01*
X197585Y59440D01*
X197584Y59442D01*
X197584Y59444D01*
X197572Y59574D01*
X197572Y59575D01*
X197547Y59839D01*
X197544Y59847D01*
X197545Y59857D01*
X197528Y59983D01*
X197524Y60061D01*
X197519Y60155D01*
X197519Y60156D01*
X197481Y60233D01*
X197431Y60334D01*
X197342Y60412D01*
X197281Y60464D01*
X197189Y60494D01*
X197092Y60526D01*
X196990Y60517D01*
X196894Y60508D01*
X196804Y60460D01*
X196718Y60415D01*
X196652Y60334D01*
X196593Y60261D01*
X196593Y60260D01*
X196564Y60171D01*
X196542Y60102D01*
X196533Y60041D01*
X196518Y59942D01*
X196402Y59641D01*
X196402Y59640D01*
X196335Y59466D01*
X196248Y59272D01*
X196116Y59037D01*
X196006Y58841D01*
X195879Y58640D01*
X195712Y58414D01*
X195566Y58216D01*
X195403Y58019D01*
X195204Y57807D01*
X195064Y57658D01*
X194918Y57514D01*
X194749Y57362D01*
X194530Y57165D01*
X194294Y56973D01*
X194021Y56775D01*
X193753Y56581D01*
X193469Y56396D01*
X193145Y56207D01*
X192866Y56046D01*
X192577Y55893D01*
X192254Y55740D01*
X191961Y55601D01*
X191659Y55471D01*
X191327Y55341D01*
X191326Y55341D01*
X190957Y55197D01*
X190570Y55063D01*
X190149Y54934D01*
X189800Y54827D01*
X189439Y54727D01*
X189051Y54633D01*
X188568Y54515D01*
X188062Y54409D01*
X187516Y54314D01*
X186979Y54220D01*
X186423Y54141D01*
X185823Y54073D01*
X185310Y54016D01*
X184778Y53968D01*
X184216Y53933D01*
X184215Y53933D01*
X183686Y53898D01*
X183139Y53875D01*
X182565Y53862D01*
X182040Y53850D01*
X181498Y53847D01*
X180933Y53854D01*
X180184Y53865D01*
X179405Y53892D01*
X178582Y53939D01*
X178581Y53939D01*
X178427Y53948D01*
X178275Y53957D01*
X178119Y53967D01*
X178118Y53967D01*
X177698Y53992D01*
X177280Y54020D01*
X176851Y54053D01*
X176138Y54109D01*
X175419Y54178D01*
X174670Y54270D01*
X174669Y54270D01*
X174122Y54337D01*
X173569Y54416D01*
X172994Y54513D01*
X172419Y54609D01*
X171838Y54720D01*
X171231Y54852D01*
X171231Y54853D01*
X170766Y54954D01*
X170297Y55066D01*
X169809Y55192D01*
X169303Y55323D01*
X168789Y55468D01*
X168255Y55630D01*
X167858Y55750D01*
X167456Y55879D01*
X167040Y56020D01*
X167039Y56020D01*
X166544Y56187D01*
X166041Y56366D01*
X165520Y56562D01*
X165028Y56747D01*
X164526Y56946D01*
X164010Y57160D01*
X163605Y57328D01*
X163194Y57503D01*
X162771Y57691D01*
X162463Y57827D01*
X162157Y57966D01*
X161839Y58113D01*
X160696Y58642D01*
X159499Y59238D01*
X158227Y59917D01*
X158157Y59937D01*
X158090Y59966D01*
X158063Y59966D01*
X158036Y59973D01*
X157964Y59965D01*
X157892Y59965D01*
X157866Y59954D01*
X157839Y59951D01*
X157775Y59916D01*
X157709Y59887D01*
X157689Y59867D01*
X157665Y59854D01*
X157621Y59796D01*
X157571Y59744D01*
X157561Y59718D01*
X157544Y59697D01*
X157525Y59626D01*
X157499Y59558D01*
X157500Y59531D01*
X157493Y59504D01*
X157504Y59432D01*
X157506Y59360D01*
X157518Y59335D01*
X157522Y59307D01*
X157560Y59245D01*
X157590Y59179D01*
X157613Y59158D01*
X157625Y59137D01*
X157670Y59103D01*
X157710Y59064D01*
X158449Y58559D01*
X158456Y58556D01*
X158463Y58550D01*
X159402Y57952D01*
X159409Y57949D01*
X159415Y57944D01*
X160506Y57296D01*
X160507Y57296D01*
X160798Y57123D01*
X160800Y57122D01*
X160801Y57121D01*
X161104Y56945D01*
X161105Y56944D01*
X161107Y56943D01*
X161419Y56763D01*
X161420Y56763D01*
X161800Y56545D01*
X161802Y56545D01*
X161803Y56543D01*
X162198Y56321D01*
X162200Y56321D01*
X162202Y56319D01*
X162610Y56095D01*
X163130Y55809D01*
X163132Y55808D01*
X163134Y55806D01*
X163675Y55516D01*
X163678Y55515D01*
X163681Y55513D01*
X164240Y55222D01*
X164724Y54969D01*
X164727Y54969D01*
X164729Y54967D01*
X165227Y54714D01*
X165230Y54713D01*
X165232Y54711D01*
X165741Y54459D01*
X166171Y54246D01*
X166173Y54245D01*
X166175Y54244D01*
X166614Y54032D01*
X166616Y54031D01*
X166619Y54030D01*
X167063Y53820D01*
X167578Y53578D01*
X167580Y53577D01*
X167583Y53575D01*
X168106Y53336D01*
X168109Y53335D01*
X168112Y53333D01*
X168642Y53098D01*
X169147Y52875D01*
X169149Y52874D01*
X169152Y52872D01*
X169664Y52653D01*
X169667Y52652D01*
X169670Y52651D01*
X170185Y52437D01*
X170186Y52437D01*
X170692Y52228D01*
X170695Y52227D01*
X170698Y52225D01*
X171208Y52022D01*
X171211Y52022D01*
X171214Y52020D01*
X171727Y51823D01*
X172273Y51614D01*
X172276Y51614D01*
X172280Y51612D01*
X172829Y51411D01*
X172832Y51410D01*
X172837Y51408D01*
X173386Y51217D01*
X173987Y51009D01*
X173991Y51008D01*
X173996Y51006D01*
X174597Y50810D01*
X174602Y50809D01*
X174607Y50807D01*
X175208Y50625D01*
X175606Y50504D01*
X175609Y50504D01*
X175613Y50502D01*
X176010Y50388D01*
X176013Y50387D01*
X176017Y50386D01*
X176413Y50278D01*
X176414Y50278D01*
X176892Y50149D01*
X176896Y50148D01*
X176901Y50146D01*
X177377Y50027D01*
X177382Y50027D01*
X177387Y50025D01*
X177860Y49917D01*
X178290Y49820D01*
X178294Y49820D01*
X178299Y49818D01*
X178725Y49729D01*
X178730Y49729D01*
X178736Y49727D01*
X179158Y49650D01*
X179538Y49580D01*
X179543Y49580D01*
X179548Y49578D01*
X179925Y49517D01*
X179930Y49517D01*
X179936Y49515D01*
X180309Y49463D01*
X180756Y49401D01*
X180763Y49402D01*
X180770Y49400D01*
X181211Y49351D01*
X181218Y49351D01*
X181227Y49349D01*
X181660Y49314D01*
X181661Y49314D01*
X182096Y49280D01*
X182103Y49281D01*
X182112Y49279D01*
X182539Y49258D01*
X182548Y49260D01*
X182558Y49258D01*
X182977Y49253D01*
X183393Y49249D01*
X183397Y49250D01*
X183401Y49249D01*
X183805Y49252D01*
G37*
%LPC*%
G36*
X291277Y77556D02*
X291277Y77556D01*
X291205Y77558D01*
X291162Y77564D01*
X291090Y77583D01*
X290974Y77614D01*
X290885Y77652D01*
X290759Y77727D01*
X290595Y77825D01*
X290448Y77943D01*
X275078Y93313D01*
X274920Y93512D01*
X274779Y93741D01*
X274710Y93854D01*
X274657Y93955D01*
X274604Y94071D01*
X274489Y94327D01*
X274421Y94565D01*
X274380Y94849D01*
X274363Y94971D01*
X274354Y95085D01*
X274351Y95214D01*
X274347Y95376D01*
X274354Y95525D01*
X274372Y95695D01*
X274393Y95889D01*
X274426Y96073D01*
X274477Y96277D01*
X274477Y96279D01*
X274478Y96280D01*
X274521Y96457D01*
X274570Y96624D01*
X274635Y96807D01*
X274635Y96808D01*
X274636Y96810D01*
X274665Y96893D01*
X274696Y96975D01*
X274717Y97028D01*
X274789Y97158D01*
X274876Y97290D01*
X274984Y97428D01*
X275066Y97533D01*
X275144Y97622D01*
X275238Y97715D01*
X275239Y97717D01*
X275241Y97718D01*
X275291Y97769D01*
X275330Y97804D01*
X275379Y97844D01*
X275380Y97846D01*
X275383Y97848D01*
X275475Y97924D01*
X275544Y97969D01*
X275637Y98015D01*
X275767Y98080D01*
X275843Y98099D01*
X275971Y98101D01*
X275972Y98101D01*
X276081Y98103D01*
X276150Y98090D01*
X276273Y98045D01*
X276356Y98014D01*
X276418Y97984D01*
X276505Y97930D01*
X276598Y97872D01*
X276676Y97815D01*
X276772Y97734D01*
X276773Y97734D01*
X276836Y97680D01*
X276893Y97627D01*
X291990Y82531D01*
X292235Y82285D01*
X292413Y82055D01*
X292566Y81785D01*
X292566Y81784D01*
X292648Y81639D01*
X292709Y81511D01*
X292764Y81360D01*
X292766Y81358D01*
X292766Y81355D01*
X292823Y81205D01*
X292861Y81069D01*
X292892Y80905D01*
X292916Y80779D01*
X292932Y80668D01*
X292941Y80543D01*
X292941Y80542D01*
X292941Y80540D01*
X292952Y80394D01*
X292953Y80260D01*
X292944Y80103D01*
X292934Y79916D01*
X292911Y79740D01*
X292872Y79542D01*
X292839Y79376D01*
X292799Y79217D01*
X292746Y79041D01*
X292703Y78903D01*
X292656Y78767D01*
X292612Y78654D01*
X292558Y78556D01*
X292491Y78451D01*
X292428Y78364D01*
X292150Y78066D01*
X292106Y77995D01*
X292010Y77926D01*
X291822Y77739D01*
X291713Y77660D01*
X291619Y77614D01*
X291486Y77580D01*
X291406Y77559D01*
X291359Y77554D01*
X291277Y77556D01*
G37*
%LPD*%
G36*
X223197Y124412D02*
X223197Y124412D01*
X223255Y124410D01*
X223295Y124425D01*
X223337Y124430D01*
X223387Y124459D01*
X223441Y124480D01*
X223472Y124509D01*
X223509Y124531D01*
X223553Y124586D01*
X223585Y124617D01*
X223594Y124638D01*
X223612Y124661D01*
X223758Y124923D01*
X223768Y124955D01*
X223791Y124996D01*
X223907Y125316D01*
X223911Y125346D01*
X223926Y125384D01*
X224002Y125748D01*
X224002Y125749D01*
X224042Y125943D01*
X224042Y125957D01*
X224048Y125974D01*
X224077Y126180D01*
X224076Y126195D01*
X224081Y126212D01*
X224097Y126429D01*
X224113Y126638D01*
X224112Y126651D01*
X224115Y126667D01*
X224119Y126885D01*
X224116Y126897D01*
X224118Y126913D01*
X224110Y127138D01*
X224110Y127139D01*
X224101Y127361D01*
X224098Y127372D01*
X224099Y127387D01*
X224078Y127615D01*
X224074Y127628D01*
X224075Y127644D01*
X224039Y127879D01*
X223999Y128148D01*
X223994Y128160D01*
X223994Y128177D01*
X223935Y128454D01*
X223930Y128467D01*
X223928Y128484D01*
X223851Y128766D01*
X223850Y128766D01*
X223850Y128767D01*
X223790Y128986D01*
X223785Y128995D01*
X223783Y129008D01*
X223711Y129230D01*
X223705Y129239D01*
X223703Y129252D01*
X223618Y129476D01*
X223618Y129477D01*
X223520Y129733D01*
X223514Y129743D01*
X223511Y129756D01*
X223397Y130015D01*
X223389Y130025D01*
X223385Y130041D01*
X223253Y130299D01*
X223147Y130508D01*
X223141Y130515D01*
X223137Y130526D01*
X223020Y130736D01*
X223013Y130743D01*
X223008Y130755D01*
X222879Y130963D01*
X222696Y131257D01*
X222687Y131267D01*
X222679Y131283D01*
X222472Y131576D01*
X222461Y131585D01*
X222453Y131601D01*
X222219Y131890D01*
X221991Y132172D01*
X221981Y132181D01*
X221973Y132194D01*
X221720Y132473D01*
X221709Y132481D01*
X221699Y132494D01*
X221420Y132768D01*
X221208Y132975D01*
X221200Y132981D01*
X221192Y132990D01*
X220965Y133194D01*
X220956Y133199D01*
X220948Y133209D01*
X220705Y133408D01*
X220475Y133597D01*
X220467Y133602D01*
X220459Y133610D01*
X220215Y133795D01*
X220207Y133799D01*
X220199Y133806D01*
X219940Y133987D01*
X219705Y134150D01*
X219698Y134153D01*
X219690Y134160D01*
X219443Y134319D01*
X219436Y134321D01*
X219429Y134328D01*
X219169Y134482D01*
X218910Y134637D01*
X218903Y134639D01*
X218896Y134645D01*
X218624Y134795D01*
X218617Y134797D01*
X218609Y134803D01*
X218324Y134948D01*
X218092Y135066D01*
X218086Y135068D01*
X218080Y135072D01*
X217839Y135186D01*
X217833Y135188D01*
X217827Y135192D01*
X217577Y135302D01*
X217381Y135389D01*
X217376Y135390D01*
X217371Y135393D01*
X217169Y135478D01*
X217165Y135479D01*
X217161Y135481D01*
X216953Y135563D01*
X216953Y135564D01*
X216735Y135650D01*
X216730Y135651D01*
X216725Y135654D01*
X216500Y135738D01*
X216495Y135739D01*
X216490Y135742D01*
X216258Y135822D01*
X215910Y135943D01*
X215895Y135945D01*
X215878Y135953D01*
X215515Y136053D01*
X215502Y136054D01*
X215487Y136060D01*
X215111Y136141D01*
X214707Y136228D01*
X214693Y136228D01*
X214677Y136233D01*
X214258Y136297D01*
X214246Y136297D01*
X214233Y136301D01*
X213803Y136345D01*
X213301Y136396D01*
X213288Y136395D01*
X213273Y136399D01*
X212755Y136423D01*
X212745Y136421D01*
X212732Y136424D01*
X212202Y136424D01*
X211794Y136424D01*
X211786Y136423D01*
X211777Y136424D01*
X211362Y136410D01*
X211356Y136408D01*
X211348Y136409D01*
X210929Y136383D01*
X210928Y136383D01*
X210407Y136350D01*
X210399Y136348D01*
X210389Y136348D01*
X209860Y136296D01*
X209854Y136294D01*
X209846Y136294D01*
X209313Y136226D01*
X209312Y136226D01*
X208816Y136162D01*
X208810Y136160D01*
X208802Y136160D01*
X208303Y136082D01*
X208298Y136080D01*
X208292Y136080D01*
X207792Y135990D01*
X207352Y135911D01*
X207348Y135909D01*
X207342Y135909D01*
X206903Y135821D01*
X206899Y135820D01*
X206894Y135819D01*
X206456Y135723D01*
X205947Y135612D01*
X205942Y135610D01*
X205937Y135610D01*
X205429Y135488D01*
X205426Y135487D01*
X205421Y135486D01*
X204919Y135357D01*
X204370Y135216D01*
X204366Y135214D01*
X204361Y135213D01*
X203820Y135063D01*
X203816Y135061D01*
X203812Y135061D01*
X203282Y134905D01*
X202768Y134753D01*
X202765Y134752D01*
X202760Y134751D01*
X202257Y134594D01*
X202255Y134593D01*
X202251Y134592D01*
X201763Y134433D01*
X201311Y134285D01*
X201309Y134284D01*
X201306Y134283D01*
X200866Y134134D01*
X200864Y134133D01*
X200861Y134132D01*
X200437Y133983D01*
X200034Y133841D01*
X200032Y133840D01*
X200029Y133840D01*
X199640Y133698D01*
X199638Y133697D01*
X199636Y133697D01*
X199263Y133558D01*
X198871Y133411D01*
X198869Y133410D01*
X198866Y133410D01*
X198492Y133266D01*
X198491Y133265D01*
X198488Y133264D01*
X198136Y133126D01*
X197698Y132953D01*
X197696Y132952D01*
X197693Y132951D01*
X197289Y132786D01*
X197287Y132785D01*
X197285Y132784D01*
X196921Y132632D01*
X195873Y132195D01*
X195865Y132189D01*
X195855Y132186D01*
X195139Y131853D01*
X195136Y131851D01*
X195131Y131849D01*
X194895Y131734D01*
X194842Y131693D01*
X194784Y131660D01*
X194764Y131633D01*
X194738Y131613D01*
X194705Y131555D01*
X194664Y131501D01*
X194656Y131469D01*
X194640Y131440D01*
X194632Y131373D01*
X194616Y131308D01*
X194621Y131275D01*
X194617Y131243D01*
X194636Y131178D01*
X194646Y131112D01*
X194664Y131084D01*
X194673Y131052D01*
X194716Y131000D01*
X194751Y130943D01*
X194779Y130924D01*
X194799Y130898D01*
X194859Y130867D01*
X194914Y130828D01*
X194946Y130821D01*
X194976Y130806D01*
X195043Y130801D01*
X195108Y130787D01*
X195146Y130792D01*
X195174Y130790D01*
X195223Y130804D01*
X195273Y130812D01*
X195799Y130988D01*
X196356Y131150D01*
X196956Y131304D01*
X197015Y131318D01*
X197075Y131334D01*
X197132Y131347D01*
X197134Y131348D01*
X197136Y131348D01*
X197482Y131435D01*
X197838Y131517D01*
X198202Y131595D01*
X198578Y131675D01*
X198956Y131750D01*
X199350Y131822D01*
X199824Y131908D01*
X200306Y131987D01*
X200799Y132061D01*
X201372Y132145D01*
X201954Y132221D01*
X202544Y132287D01*
X202997Y132338D01*
X203458Y132383D01*
X203916Y132422D01*
X204390Y132463D01*
X204862Y132496D01*
X205336Y132524D01*
X205918Y132558D01*
X206492Y132582D01*
X207064Y132596D01*
X207517Y132606D01*
X207958Y132611D01*
X208399Y132609D01*
X208866Y132607D01*
X209320Y132598D01*
X209771Y132581D01*
X210164Y132566D01*
X210547Y132546D01*
X210923Y132520D01*
X211302Y132494D01*
X211668Y132462D01*
X212026Y132424D01*
X212027Y132424D01*
X212272Y132398D01*
X212508Y132370D01*
X212740Y132338D01*
X212741Y132338D01*
X212996Y132304D01*
X213241Y132266D01*
X213483Y132225D01*
X213721Y132185D01*
X213948Y132141D01*
X214172Y132094D01*
X214438Y132037D01*
X214683Y131978D01*
X214925Y131911D01*
X215106Y131862D01*
X215272Y131812D01*
X215438Y131757D01*
X215505Y131734D01*
X215567Y131713D01*
X215634Y131688D01*
X215635Y131688D01*
X215636Y131688D01*
X215865Y131606D01*
X216083Y131523D01*
X216298Y131437D01*
X216299Y131437D01*
X216300Y131437D01*
X216516Y131352D01*
X216719Y131267D01*
X216920Y131179D01*
X216921Y131179D01*
X216921Y131178D01*
X217089Y131105D01*
X217254Y131030D01*
X217412Y130955D01*
X217598Y130867D01*
X217771Y130782D01*
X217943Y130692D01*
X218129Y130595D01*
X218302Y130501D01*
X218473Y130404D01*
X218655Y130299D01*
X218827Y130196D01*
X218994Y130090D01*
X219090Y130029D01*
X219181Y129969D01*
X219272Y129908D01*
X219425Y129805D01*
X219565Y129705D01*
X219705Y129601D01*
X219855Y129489D01*
X219994Y129380D01*
X220131Y129267D01*
X220277Y129145D01*
X220409Y129029D01*
X220540Y128907D01*
X220679Y128777D01*
X220804Y128653D01*
X220925Y128525D01*
X221073Y128368D01*
X221203Y128219D01*
X221326Y128065D01*
X221439Y127924D01*
X221537Y127792D01*
X221632Y127654D01*
X221729Y127512D01*
X221811Y127382D01*
X221891Y127246D01*
X221976Y127099D01*
X222048Y126964D01*
X222116Y126823D01*
X222209Y126631D01*
X222283Y126456D01*
X222348Y126277D01*
X222408Y126115D01*
X222453Y125969D01*
X222494Y125820D01*
X222533Y125678D01*
X222562Y125550D01*
X222588Y125424D01*
X222634Y125198D01*
X222660Y125004D01*
X222681Y124841D01*
X222694Y124800D01*
X222698Y124758D01*
X222726Y124707D01*
X222744Y124652D01*
X222773Y124620D01*
X222793Y124583D01*
X222838Y124547D01*
X222876Y124504D01*
X222915Y124485D01*
X222948Y124459D01*
X223004Y124443D01*
X223056Y124418D01*
X223099Y124416D01*
X223140Y124405D01*
X223197Y124412D01*
G37*
G36*
X211587Y31931D02*
X211587Y31931D01*
X211597Y31930D01*
X211941Y31940D01*
X211951Y31942D01*
X211965Y31941D01*
X212290Y31966D01*
X212291Y31966D01*
X212496Y31982D01*
X212501Y31983D01*
X212509Y31983D01*
X212708Y32004D01*
X212714Y32005D01*
X212722Y32005D01*
X212916Y32031D01*
X212917Y32031D01*
X213197Y32068D01*
X213205Y32071D01*
X213217Y32071D01*
X213486Y32119D01*
X213495Y32122D01*
X213507Y32123D01*
X213765Y32179D01*
X213765Y32180D01*
X213942Y32219D01*
X213948Y32221D01*
X213956Y32222D01*
X214127Y32265D01*
X214133Y32268D01*
X214141Y32269D01*
X214307Y32316D01*
X214482Y32365D01*
X214488Y32369D01*
X214497Y32370D01*
X214666Y32424D01*
X214673Y32428D01*
X214682Y32429D01*
X214845Y32487D01*
X215071Y32567D01*
X215080Y32573D01*
X215093Y32576D01*
X215309Y32664D01*
X215317Y32670D01*
X215329Y32673D01*
X215536Y32769D01*
X215690Y32840D01*
X215697Y32845D01*
X215706Y32848D01*
X215856Y32923D01*
X215863Y32928D01*
X215872Y32932D01*
X216017Y33011D01*
X216168Y33094D01*
X216174Y33100D01*
X216183Y33103D01*
X216328Y33190D01*
X216334Y33195D01*
X216343Y33199D01*
X216483Y33290D01*
X216628Y33384D01*
X216634Y33390D01*
X216644Y33394D01*
X216784Y33493D01*
X216789Y33499D01*
X216798Y33504D01*
X216932Y33605D01*
X216933Y33606D01*
X217048Y33693D01*
X217053Y33699D01*
X217060Y33703D01*
X217171Y33793D01*
X217176Y33798D01*
X217183Y33803D01*
X217289Y33895D01*
X217468Y34049D01*
X217476Y34059D01*
X217488Y34067D01*
X217656Y34228D01*
X217662Y34237D01*
X217673Y34246D01*
X217829Y34412D01*
X217988Y34580D01*
X217994Y34590D01*
X218005Y34599D01*
X218153Y34773D01*
X218159Y34782D01*
X218168Y34791D01*
X218307Y34970D01*
X218307Y34971D01*
X218481Y35195D01*
X218487Y35208D01*
X218499Y35220D01*
X218657Y35452D01*
X218661Y35463D01*
X218671Y35474D01*
X218814Y35710D01*
X218970Y35967D01*
X218974Y35980D01*
X218984Y35994D01*
X219123Y36256D01*
X219126Y36267D01*
X219134Y36279D01*
X219256Y36544D01*
X219381Y36813D01*
X219384Y36825D01*
X219391Y36838D01*
X219499Y37109D01*
X219501Y37120D01*
X219508Y37131D01*
X219601Y37401D01*
X219687Y37650D01*
X219688Y37660D01*
X219694Y37672D01*
X219768Y37921D01*
X219769Y37930D01*
X219773Y37940D01*
X219835Y38185D01*
X219898Y38434D01*
X219898Y38443D01*
X219902Y38453D01*
X219954Y38697D01*
X219954Y38705D01*
X219957Y38715D01*
X219998Y38952D01*
X220039Y39186D01*
X220039Y39195D01*
X220042Y39205D01*
X220072Y39432D01*
X220072Y39440D01*
X220074Y39449D01*
X220096Y39667D01*
X220096Y39668D01*
X220112Y39825D01*
X220111Y39831D01*
X220113Y39838D01*
X220124Y39990D01*
X220124Y39996D01*
X220125Y40003D01*
X220132Y40149D01*
X220132Y40150D01*
X220140Y40333D01*
X220139Y40340D01*
X220141Y40348D01*
X220144Y40522D01*
X220142Y40530D01*
X220144Y40539D01*
X220141Y40702D01*
X220139Y40790D01*
X220139Y40794D01*
X220139Y40798D01*
X220137Y40884D01*
X220135Y40889D01*
X220136Y40895D01*
X220132Y40975D01*
X220111Y41377D01*
X220104Y41403D01*
X220103Y41439D01*
X220047Y41752D01*
X220033Y41787D01*
X220023Y41840D01*
X219953Y42026D01*
X219931Y42060D01*
X219917Y42100D01*
X219878Y42144D01*
X219847Y42194D01*
X219813Y42217D01*
X219785Y42248D01*
X219732Y42274D01*
X219683Y42307D01*
X219643Y42316D01*
X219606Y42333D01*
X219547Y42336D01*
X219489Y42348D01*
X219448Y42340D01*
X219407Y42342D01*
X219352Y42321D01*
X219294Y42310D01*
X219259Y42286D01*
X219221Y42272D01*
X219178Y42231D01*
X219129Y42198D01*
X219107Y42163D01*
X219077Y42135D01*
X219045Y42068D01*
X219021Y42031D01*
X219017Y42010D01*
X219005Y41985D01*
X218969Y41856D01*
X218969Y41851D01*
X218966Y41846D01*
X218930Y41707D01*
X218888Y41556D01*
X218844Y41396D01*
X218798Y41234D01*
X218740Y41058D01*
X218682Y40883D01*
X218619Y40708D01*
X218541Y40521D01*
X218476Y40369D01*
X218409Y40223D01*
X218326Y40067D01*
X218326Y40066D01*
X218219Y39863D01*
X218104Y39670D01*
X217958Y39463D01*
X217830Y39280D01*
X217694Y39108D01*
X217529Y38925D01*
X217362Y38740D01*
X217186Y38566D01*
X216975Y38385D01*
X216799Y38233D01*
X216616Y38091D01*
X216404Y37944D01*
X216241Y37831D01*
X216075Y37724D01*
X215889Y37615D01*
X215703Y37506D01*
X215514Y37403D01*
X215304Y37299D01*
X215055Y37175D01*
X214796Y37059D01*
X214508Y36944D01*
X214209Y36824D01*
X213896Y36712D01*
X213553Y36604D01*
X213234Y36503D01*
X212901Y36410D01*
X212541Y36321D01*
X212071Y36205D01*
X211573Y36101D01*
X211029Y36009D01*
X210671Y35948D01*
X210302Y35894D01*
X209909Y35845D01*
X209721Y35821D01*
X209534Y35800D01*
X209345Y35780D01*
X209052Y35751D01*
X208760Y35726D01*
X208466Y35705D01*
X208133Y35682D01*
X207806Y35665D01*
X207472Y35654D01*
X207205Y35644D01*
X206943Y35638D01*
X206676Y35635D01*
X206275Y35630D01*
X205877Y35633D01*
X205479Y35642D01*
X205104Y35650D01*
X204733Y35664D01*
X204361Y35682D01*
X203836Y35708D01*
X203320Y35744D01*
X202810Y35788D01*
X202370Y35826D01*
X201944Y35868D01*
X201519Y35915D01*
X201097Y35962D01*
X200687Y36014D01*
X200283Y36068D01*
X199818Y36132D01*
X199372Y36198D01*
X198940Y36267D01*
X198551Y36330D01*
X198179Y36394D01*
X197819Y36459D01*
X197477Y36521D01*
X197150Y36583D01*
X196837Y36645D01*
X194673Y37073D01*
X193280Y37472D01*
X193203Y37478D01*
X193128Y37492D01*
X193105Y37486D01*
X193081Y37488D01*
X193009Y37464D01*
X192934Y37446D01*
X192915Y37432D01*
X192893Y37425D01*
X192835Y37374D01*
X192773Y37329D01*
X192761Y37309D01*
X192744Y37293D01*
X192711Y37224D01*
X192671Y37158D01*
X192668Y37135D01*
X192658Y37114D01*
X192654Y37037D01*
X192644Y36962D01*
X192650Y36939D01*
X192649Y36915D01*
X192675Y36843D01*
X192695Y36769D01*
X192710Y36751D01*
X192718Y36729D01*
X192771Y36673D01*
X192818Y36613D01*
X192840Y36599D01*
X192854Y36584D01*
X192909Y36558D01*
X192961Y36527D01*
X193720Y36231D01*
X193726Y36230D01*
X193734Y36226D01*
X194973Y35785D01*
X195464Y35610D01*
X195465Y35610D01*
X195467Y35609D01*
X195917Y35452D01*
X196032Y35412D01*
X196035Y35411D01*
X196037Y35410D01*
X196661Y35199D01*
X197033Y35074D01*
X197034Y35074D01*
X197036Y35073D01*
X197429Y34943D01*
X197430Y34942D01*
X197431Y34942D01*
X197841Y34809D01*
X198198Y34692D01*
X198200Y34692D01*
X198201Y34691D01*
X198571Y34573D01*
X198572Y34573D01*
X198573Y34573D01*
X198954Y34453D01*
X199260Y34357D01*
X199261Y34357D01*
X199262Y34356D01*
X199574Y34260D01*
X199575Y34260D01*
X199577Y34260D01*
X199895Y34163D01*
X200178Y34078D01*
X200179Y34077D01*
X200181Y34077D01*
X200468Y33992D01*
X200469Y33992D01*
X200470Y33991D01*
X200761Y33906D01*
X201083Y33813D01*
X201084Y33813D01*
X201085Y33812D01*
X201411Y33719D01*
X201413Y33719D01*
X201414Y33718D01*
X201743Y33627D01*
X202138Y33516D01*
X202140Y33516D01*
X202143Y33515D01*
X202543Y33407D01*
X202545Y33407D01*
X202547Y33406D01*
X202949Y33301D01*
X203241Y33224D01*
X203243Y33224D01*
X203244Y33224D01*
X203538Y33149D01*
X203540Y33149D01*
X203542Y33148D01*
X203835Y33076D01*
X204131Y33003D01*
X204133Y33003D01*
X204135Y33002D01*
X204431Y32931D01*
X204433Y32931D01*
X204435Y32930D01*
X204730Y32862D01*
X204731Y32862D01*
X205059Y32786D01*
X205061Y32786D01*
X205062Y32785D01*
X205389Y32712D01*
X205392Y32712D01*
X205395Y32711D01*
X205720Y32642D01*
X205721Y32642D01*
X206057Y32571D01*
X206059Y32571D01*
X206061Y32571D01*
X206396Y32503D01*
X206399Y32503D01*
X206402Y32502D01*
X206733Y32440D01*
X206734Y32440D01*
X207074Y32376D01*
X207077Y32376D01*
X207080Y32375D01*
X207416Y32316D01*
X207419Y32316D01*
X207423Y32315D01*
X207756Y32262D01*
X208091Y32208D01*
X208095Y32208D01*
X208099Y32207D01*
X208431Y32158D01*
X208435Y32159D01*
X208439Y32157D01*
X208765Y32116D01*
X208765Y32115D01*
X209079Y32075D01*
X209083Y32076D01*
X209087Y32074D01*
X209396Y32040D01*
X209401Y32041D01*
X209406Y32039D01*
X209708Y32012D01*
X210017Y31984D01*
X210022Y31985D01*
X210028Y31983D01*
X210331Y31963D01*
X210336Y31963D01*
X210342Y31962D01*
X210636Y31949D01*
X210828Y31941D01*
X210832Y31941D01*
X210837Y31940D01*
X211026Y31935D01*
X211030Y31936D01*
X211035Y31935D01*
X211219Y31933D01*
X211220Y31933D01*
X211578Y31930D01*
X211587Y31931D01*
G37*
D10*
X405638Y153162D02*
X405638Y169418D01*
X405638Y163999D02*
X401122Y163999D01*
X401018Y163997D01*
X400915Y163991D01*
X400811Y163981D01*
X400708Y163967D01*
X400606Y163949D01*
X400505Y163928D01*
X400404Y163902D01*
X400305Y163873D01*
X400206Y163840D01*
X400109Y163803D01*
X400014Y163762D01*
X399920Y163718D01*
X399828Y163670D01*
X399738Y163619D01*
X399649Y163564D01*
X399563Y163506D01*
X399480Y163444D01*
X399398Y163380D01*
X399320Y163312D01*
X399244Y163242D01*
X399170Y163169D01*
X399100Y163092D01*
X399032Y163014D01*
X398968Y162932D01*
X398906Y162849D01*
X398848Y162763D01*
X398793Y162674D01*
X398742Y162584D01*
X398694Y162492D01*
X398650Y162398D01*
X398609Y162303D01*
X398572Y162206D01*
X398539Y162107D01*
X398510Y162008D01*
X398484Y161907D01*
X398463Y161806D01*
X398445Y161704D01*
X398431Y161601D01*
X398421Y161497D01*
X398415Y161394D01*
X398413Y161290D01*
X398413Y153162D01*
X392867Y163999D02*
X387449Y163999D01*
X391061Y169418D02*
X391061Y155871D01*
X391059Y155770D01*
X391053Y155669D01*
X391044Y155568D01*
X391031Y155467D01*
X391014Y155367D01*
X390993Y155268D01*
X390969Y155170D01*
X390941Y155073D01*
X390909Y154976D01*
X390874Y154881D01*
X390835Y154788D01*
X390793Y154696D01*
X390747Y154605D01*
X390698Y154516D01*
X390646Y154430D01*
X390590Y154345D01*
X390532Y154262D01*
X390470Y154182D01*
X390405Y154104D01*
X390338Y154028D01*
X390268Y153955D01*
X390195Y153885D01*
X390119Y153818D01*
X390041Y153753D01*
X389961Y153691D01*
X389878Y153633D01*
X389793Y153577D01*
X389707Y153525D01*
X389618Y153476D01*
X389527Y153430D01*
X389435Y153388D01*
X389342Y153349D01*
X389247Y153314D01*
X389150Y153282D01*
X389053Y153254D01*
X388955Y153230D01*
X388856Y153209D01*
X388756Y153192D01*
X388655Y153179D01*
X388554Y153170D01*
X388453Y153164D01*
X388352Y153162D01*
X387449Y153162D01*
X382967Y163999D02*
X377549Y163999D01*
X381161Y169418D02*
X381161Y155871D01*
X381159Y155770D01*
X381153Y155669D01*
X381144Y155568D01*
X381131Y155467D01*
X381114Y155367D01*
X381093Y155268D01*
X381069Y155170D01*
X381041Y155073D01*
X381009Y154976D01*
X380974Y154881D01*
X380935Y154788D01*
X380893Y154696D01*
X380847Y154605D01*
X380798Y154516D01*
X380746Y154430D01*
X380690Y154345D01*
X380632Y154262D01*
X380570Y154182D01*
X380505Y154104D01*
X380438Y154028D01*
X380368Y153955D01*
X380295Y153885D01*
X380219Y153818D01*
X380141Y153753D01*
X380061Y153691D01*
X379978Y153633D01*
X379893Y153577D01*
X379807Y153525D01*
X379718Y153476D01*
X379627Y153430D01*
X379535Y153388D01*
X379442Y153349D01*
X379347Y153314D01*
X379250Y153282D01*
X379153Y153254D01*
X379055Y153230D01*
X378956Y153209D01*
X378856Y153192D01*
X378755Y153179D01*
X378654Y153170D01*
X378553Y153164D01*
X378452Y153162D01*
X377549Y153162D01*
X371176Y147743D02*
X371176Y163999D01*
X366661Y163999D01*
X366557Y163997D01*
X366454Y163991D01*
X366350Y163981D01*
X366247Y163967D01*
X366145Y163949D01*
X366044Y163928D01*
X365943Y163902D01*
X365844Y163873D01*
X365745Y163840D01*
X365648Y163803D01*
X365553Y163762D01*
X365459Y163718D01*
X365367Y163670D01*
X365277Y163619D01*
X365188Y163564D01*
X365102Y163506D01*
X365019Y163444D01*
X364937Y163380D01*
X364859Y163312D01*
X364783Y163242D01*
X364709Y163169D01*
X364639Y163092D01*
X364571Y163014D01*
X364507Y162932D01*
X364445Y162849D01*
X364387Y162763D01*
X364332Y162674D01*
X364281Y162584D01*
X364233Y162492D01*
X364189Y162398D01*
X364148Y162303D01*
X364111Y162206D01*
X364078Y162107D01*
X364049Y162008D01*
X364023Y161907D01*
X364002Y161806D01*
X363984Y161704D01*
X363970Y161601D01*
X363960Y161497D01*
X363954Y161394D01*
X363952Y161290D01*
X363951Y161290D02*
X363951Y155871D01*
X363952Y155871D02*
X363954Y155770D01*
X363960Y155669D01*
X363969Y155568D01*
X363982Y155467D01*
X363999Y155367D01*
X364020Y155268D01*
X364044Y155170D01*
X364072Y155073D01*
X364104Y154976D01*
X364139Y154881D01*
X364178Y154788D01*
X364220Y154696D01*
X364266Y154605D01*
X364315Y154516D01*
X364367Y154430D01*
X364423Y154345D01*
X364481Y154262D01*
X364543Y154182D01*
X364608Y154104D01*
X364675Y154028D01*
X364745Y153955D01*
X364818Y153885D01*
X364894Y153818D01*
X364972Y153753D01*
X365052Y153691D01*
X365135Y153633D01*
X365220Y153577D01*
X365307Y153525D01*
X365395Y153476D01*
X365486Y153430D01*
X365578Y153388D01*
X365671Y153349D01*
X365766Y153314D01*
X365863Y153282D01*
X365960Y153254D01*
X366058Y153230D01*
X366157Y153209D01*
X366257Y153192D01*
X366358Y153179D01*
X366459Y153170D01*
X366560Y153164D01*
X366661Y153162D01*
X371176Y153162D01*
X356348Y159484D02*
X351832Y157678D01*
X356348Y159484D02*
X356436Y159521D01*
X356522Y159562D01*
X356607Y159606D01*
X356690Y159654D01*
X356770Y159705D01*
X356849Y159759D01*
X356925Y159817D01*
X356999Y159877D01*
X357071Y159941D01*
X357139Y160007D01*
X357205Y160077D01*
X357268Y160148D01*
X357329Y160223D01*
X357386Y160299D01*
X357439Y160378D01*
X357490Y160459D01*
X357537Y160542D01*
X357581Y160627D01*
X357621Y160714D01*
X357658Y160802D01*
X357691Y160892D01*
X357721Y160983D01*
X357746Y161075D01*
X357768Y161168D01*
X357786Y161262D01*
X357801Y161356D01*
X357811Y161451D01*
X357817Y161547D01*
X357820Y161642D01*
X357819Y161738D01*
X357813Y161833D01*
X357804Y161929D01*
X357791Y162023D01*
X357775Y162117D01*
X357754Y162211D01*
X357729Y162303D01*
X357701Y162394D01*
X357669Y162484D01*
X357634Y162573D01*
X357595Y162660D01*
X357552Y162746D01*
X357506Y162830D01*
X357456Y162911D01*
X357404Y162991D01*
X357348Y163069D01*
X357288Y163144D01*
X357226Y163216D01*
X357161Y163286D01*
X357093Y163354D01*
X357023Y163418D01*
X356950Y163480D01*
X356874Y163538D01*
X356796Y163594D01*
X356716Y163646D01*
X356634Y163695D01*
X356550Y163740D01*
X356464Y163782D01*
X356377Y163821D01*
X356288Y163856D01*
X356197Y163887D01*
X356106Y163914D01*
X356013Y163938D01*
X355920Y163958D01*
X355826Y163974D01*
X355731Y163986D01*
X355636Y163995D01*
X355540Y163999D01*
X355445Y164000D01*
X355198Y163993D01*
X354952Y163981D01*
X354706Y163963D01*
X354460Y163938D01*
X354216Y163908D01*
X353972Y163872D01*
X353729Y163831D01*
X353487Y163783D01*
X353246Y163729D01*
X353007Y163670D01*
X352769Y163605D01*
X352533Y163534D01*
X352298Y163458D01*
X352065Y163376D01*
X351835Y163288D01*
X351607Y163195D01*
X351380Y163097D01*
X351832Y157677D02*
X351744Y157640D01*
X351658Y157599D01*
X351573Y157555D01*
X351490Y157507D01*
X351410Y157456D01*
X351331Y157402D01*
X351255Y157344D01*
X351181Y157284D01*
X351109Y157220D01*
X351041Y157154D01*
X350975Y157084D01*
X350912Y157013D01*
X350851Y156938D01*
X350794Y156862D01*
X350741Y156783D01*
X350690Y156702D01*
X350643Y156619D01*
X350599Y156534D01*
X350559Y156447D01*
X350522Y156359D01*
X350489Y156269D01*
X350459Y156178D01*
X350434Y156086D01*
X350412Y155993D01*
X350394Y155899D01*
X350379Y155805D01*
X350369Y155710D01*
X350363Y155614D01*
X350360Y155519D01*
X350361Y155423D01*
X350367Y155328D01*
X350376Y155232D01*
X350389Y155138D01*
X350405Y155044D01*
X350426Y154950D01*
X350451Y154858D01*
X350479Y154767D01*
X350511Y154677D01*
X350546Y154588D01*
X350585Y154501D01*
X350628Y154415D01*
X350674Y154331D01*
X350724Y154250D01*
X350776Y154170D01*
X350832Y154092D01*
X350892Y154017D01*
X350954Y153945D01*
X351019Y153875D01*
X351087Y153807D01*
X351157Y153743D01*
X351230Y153681D01*
X351306Y153623D01*
X351384Y153567D01*
X351464Y153515D01*
X351546Y153466D01*
X351630Y153421D01*
X351716Y153379D01*
X351803Y153340D01*
X351892Y153305D01*
X351983Y153274D01*
X352074Y153247D01*
X352167Y153223D01*
X352260Y153203D01*
X352354Y153187D01*
X352449Y153175D01*
X352544Y153166D01*
X352640Y153162D01*
X352735Y153161D01*
X352736Y153162D02*
X353098Y153171D01*
X353460Y153189D01*
X353821Y153216D01*
X354181Y153251D01*
X354541Y153294D01*
X354900Y153346D01*
X355257Y153407D01*
X355612Y153476D01*
X355966Y153553D01*
X356318Y153639D01*
X356668Y153733D01*
X357016Y153836D01*
X357361Y153946D01*
X357703Y154065D01*
X344121Y154517D02*
X344121Y155420D01*
X343218Y155420D01*
X343218Y154517D01*
X344121Y154517D01*
X344121Y161742D02*
X344121Y162645D01*
X343218Y162645D01*
X343218Y161742D01*
X344121Y161742D01*
X337382Y151356D02*
X330157Y171224D01*
X317652Y171224D02*
X324877Y151356D01*
X304699Y153162D02*
X304699Y169418D01*
X304699Y153162D02*
X309215Y153162D01*
X309316Y153164D01*
X309417Y153170D01*
X309518Y153179D01*
X309619Y153192D01*
X309719Y153209D01*
X309818Y153230D01*
X309916Y153254D01*
X310013Y153282D01*
X310110Y153314D01*
X310205Y153349D01*
X310298Y153388D01*
X310390Y153430D01*
X310481Y153476D01*
X310570Y153525D01*
X310656Y153577D01*
X310741Y153633D01*
X310824Y153691D01*
X310904Y153753D01*
X310982Y153818D01*
X311058Y153885D01*
X311131Y153955D01*
X311201Y154028D01*
X311268Y154104D01*
X311333Y154182D01*
X311395Y154262D01*
X311453Y154345D01*
X311509Y154430D01*
X311561Y154516D01*
X311610Y154605D01*
X311656Y154696D01*
X311698Y154788D01*
X311737Y154881D01*
X311772Y154976D01*
X311804Y155073D01*
X311832Y155170D01*
X311856Y155268D01*
X311877Y155367D01*
X311894Y155467D01*
X311907Y155568D01*
X311916Y155669D01*
X311922Y155770D01*
X311924Y155871D01*
X311924Y161290D01*
X311922Y161391D01*
X311916Y161492D01*
X311907Y161593D01*
X311894Y161694D01*
X311877Y161794D01*
X311856Y161893D01*
X311832Y161991D01*
X311804Y162088D01*
X311772Y162185D01*
X311737Y162280D01*
X311698Y162373D01*
X311656Y162465D01*
X311610Y162556D01*
X311561Y162645D01*
X311509Y162731D01*
X311453Y162816D01*
X311395Y162899D01*
X311333Y162979D01*
X311268Y163057D01*
X311201Y163133D01*
X311131Y163206D01*
X311058Y163276D01*
X310982Y163343D01*
X310904Y163408D01*
X310824Y163470D01*
X310741Y163528D01*
X310656Y163584D01*
X310570Y163636D01*
X310481Y163685D01*
X310390Y163731D01*
X310298Y163773D01*
X310205Y163812D01*
X310110Y163847D01*
X310013Y163879D01*
X309916Y163907D01*
X309818Y163931D01*
X309719Y163952D01*
X309619Y163969D01*
X309518Y163982D01*
X309417Y163991D01*
X309316Y163997D01*
X309215Y163999D01*
X304699Y163999D01*
X297783Y160387D02*
X297783Y156774D01*
X297782Y160387D02*
X297780Y160506D01*
X297774Y160626D01*
X297764Y160745D01*
X297750Y160863D01*
X297733Y160982D01*
X297711Y161099D01*
X297686Y161216D01*
X297656Y161331D01*
X297623Y161446D01*
X297586Y161560D01*
X297546Y161672D01*
X297501Y161783D01*
X297453Y161892D01*
X297402Y162000D01*
X297347Y162106D01*
X297288Y162210D01*
X297226Y162312D01*
X297161Y162412D01*
X297092Y162510D01*
X297020Y162606D01*
X296945Y162699D01*
X296868Y162789D01*
X296787Y162877D01*
X296703Y162962D01*
X296616Y163044D01*
X296527Y163124D01*
X296435Y163200D01*
X296341Y163274D01*
X296244Y163344D01*
X296146Y163411D01*
X296045Y163475D01*
X295941Y163535D01*
X295836Y163592D01*
X295729Y163645D01*
X295621Y163695D01*
X295511Y163741D01*
X295399Y163783D01*
X295286Y163822D01*
X295172Y163857D01*
X295057Y163888D01*
X294940Y163916D01*
X294823Y163939D01*
X294706Y163959D01*
X294587Y163975D01*
X294468Y163987D01*
X294349Y163995D01*
X294230Y163999D01*
X294110Y163999D01*
X293991Y163995D01*
X293872Y163987D01*
X293753Y163975D01*
X293634Y163959D01*
X293517Y163939D01*
X293400Y163916D01*
X293283Y163888D01*
X293168Y163857D01*
X293054Y163822D01*
X292941Y163783D01*
X292829Y163741D01*
X292719Y163695D01*
X292611Y163645D01*
X292504Y163592D01*
X292399Y163535D01*
X292295Y163475D01*
X292194Y163411D01*
X292096Y163344D01*
X291999Y163274D01*
X291905Y163200D01*
X291813Y163124D01*
X291724Y163044D01*
X291637Y162962D01*
X291553Y162877D01*
X291472Y162789D01*
X291395Y162699D01*
X291320Y162606D01*
X291248Y162510D01*
X291179Y162412D01*
X291114Y162312D01*
X291052Y162210D01*
X290993Y162106D01*
X290938Y162000D01*
X290887Y161892D01*
X290839Y161783D01*
X290794Y161672D01*
X290754Y161560D01*
X290717Y161446D01*
X290684Y161331D01*
X290654Y161216D01*
X290629Y161099D01*
X290607Y160982D01*
X290590Y160863D01*
X290576Y160745D01*
X290566Y160626D01*
X290560Y160506D01*
X290558Y160387D01*
X290558Y156774D01*
X290560Y156655D01*
X290566Y156535D01*
X290576Y156416D01*
X290590Y156298D01*
X290607Y156179D01*
X290629Y156062D01*
X290654Y155945D01*
X290684Y155830D01*
X290717Y155715D01*
X290754Y155601D01*
X290794Y155489D01*
X290839Y155378D01*
X290887Y155269D01*
X290938Y155161D01*
X290993Y155055D01*
X291052Y154951D01*
X291114Y154849D01*
X291179Y154749D01*
X291248Y154651D01*
X291320Y154555D01*
X291395Y154462D01*
X291472Y154372D01*
X291553Y154284D01*
X291637Y154199D01*
X291724Y154117D01*
X291813Y154037D01*
X291905Y153961D01*
X291999Y153887D01*
X292096Y153817D01*
X292194Y153750D01*
X292295Y153686D01*
X292399Y153626D01*
X292504Y153569D01*
X292611Y153516D01*
X292719Y153466D01*
X292829Y153420D01*
X292941Y153378D01*
X293054Y153339D01*
X293168Y153304D01*
X293283Y153273D01*
X293400Y153245D01*
X293517Y153222D01*
X293634Y153202D01*
X293753Y153186D01*
X293872Y153174D01*
X293991Y153166D01*
X294110Y153162D01*
X294230Y153162D01*
X294349Y153166D01*
X294468Y153174D01*
X294587Y153186D01*
X294706Y153202D01*
X294823Y153222D01*
X294940Y153245D01*
X295057Y153273D01*
X295172Y153304D01*
X295286Y153339D01*
X295399Y153378D01*
X295511Y153420D01*
X295621Y153466D01*
X295729Y153516D01*
X295836Y153569D01*
X295941Y153626D01*
X296045Y153686D01*
X296146Y153750D01*
X296244Y153817D01*
X296341Y153887D01*
X296435Y153961D01*
X296527Y154037D01*
X296616Y154117D01*
X296703Y154199D01*
X296787Y154284D01*
X296868Y154372D01*
X296945Y154462D01*
X297020Y154555D01*
X297092Y154651D01*
X297161Y154749D01*
X297226Y154849D01*
X297288Y154951D01*
X297347Y155055D01*
X297402Y155161D01*
X297453Y155269D01*
X297501Y155378D01*
X297546Y155489D01*
X297586Y155601D01*
X297623Y155715D01*
X297656Y155830D01*
X297686Y155945D01*
X297711Y156062D01*
X297733Y156179D01*
X297750Y156298D01*
X297764Y156416D01*
X297774Y156535D01*
X297780Y156655D01*
X297782Y156774D01*
X281509Y153162D02*
X277896Y153162D01*
X281509Y153162D02*
X281610Y153164D01*
X281711Y153170D01*
X281812Y153179D01*
X281913Y153192D01*
X282013Y153209D01*
X282112Y153230D01*
X282210Y153254D01*
X282307Y153282D01*
X282404Y153314D01*
X282499Y153349D01*
X282592Y153388D01*
X282684Y153430D01*
X282775Y153476D01*
X282864Y153525D01*
X282950Y153577D01*
X283035Y153633D01*
X283118Y153691D01*
X283198Y153753D01*
X283276Y153818D01*
X283352Y153885D01*
X283425Y153955D01*
X283495Y154028D01*
X283562Y154104D01*
X283627Y154182D01*
X283689Y154262D01*
X283747Y154345D01*
X283803Y154430D01*
X283855Y154516D01*
X283904Y154605D01*
X283950Y154696D01*
X283992Y154788D01*
X284031Y154881D01*
X284066Y154976D01*
X284098Y155073D01*
X284126Y155170D01*
X284150Y155268D01*
X284171Y155367D01*
X284188Y155467D01*
X284201Y155568D01*
X284210Y155669D01*
X284216Y155770D01*
X284218Y155871D01*
X284218Y161290D01*
X284216Y161391D01*
X284210Y161492D01*
X284201Y161593D01*
X284188Y161694D01*
X284171Y161794D01*
X284150Y161893D01*
X284126Y161991D01*
X284098Y162088D01*
X284066Y162185D01*
X284031Y162280D01*
X283992Y162373D01*
X283950Y162465D01*
X283904Y162556D01*
X283855Y162645D01*
X283803Y162731D01*
X283747Y162816D01*
X283689Y162899D01*
X283627Y162979D01*
X283562Y163057D01*
X283495Y163133D01*
X283425Y163206D01*
X283352Y163276D01*
X283276Y163343D01*
X283198Y163408D01*
X283118Y163470D01*
X283035Y163528D01*
X282950Y163584D01*
X282864Y163636D01*
X282775Y163685D01*
X282684Y163731D01*
X282592Y163773D01*
X282499Y163812D01*
X282404Y163847D01*
X282307Y163879D01*
X282210Y163907D01*
X282112Y163931D01*
X282013Y163952D01*
X281913Y163969D01*
X281812Y163982D01*
X281711Y163991D01*
X281610Y163997D01*
X281509Y163999D01*
X277896Y163999D01*
X270897Y159484D02*
X266382Y157678D01*
X270897Y159484D02*
X270985Y159521D01*
X271071Y159562D01*
X271156Y159606D01*
X271239Y159654D01*
X271319Y159705D01*
X271398Y159759D01*
X271474Y159817D01*
X271548Y159877D01*
X271620Y159941D01*
X271688Y160007D01*
X271754Y160077D01*
X271817Y160148D01*
X271878Y160223D01*
X271935Y160299D01*
X271988Y160378D01*
X272039Y160459D01*
X272086Y160542D01*
X272130Y160627D01*
X272170Y160714D01*
X272207Y160802D01*
X272240Y160892D01*
X272270Y160983D01*
X272295Y161075D01*
X272317Y161168D01*
X272335Y161262D01*
X272350Y161356D01*
X272360Y161451D01*
X272366Y161547D01*
X272369Y161642D01*
X272368Y161738D01*
X272362Y161833D01*
X272353Y161929D01*
X272340Y162023D01*
X272324Y162117D01*
X272303Y162211D01*
X272278Y162303D01*
X272250Y162394D01*
X272218Y162484D01*
X272183Y162573D01*
X272144Y162660D01*
X272101Y162746D01*
X272055Y162830D01*
X272005Y162911D01*
X271953Y162991D01*
X271897Y163069D01*
X271837Y163144D01*
X271775Y163216D01*
X271710Y163286D01*
X271642Y163354D01*
X271572Y163418D01*
X271499Y163480D01*
X271423Y163538D01*
X271345Y163594D01*
X271265Y163646D01*
X271183Y163695D01*
X271099Y163740D01*
X271013Y163782D01*
X270926Y163821D01*
X270837Y163856D01*
X270746Y163887D01*
X270655Y163914D01*
X270562Y163938D01*
X270469Y163958D01*
X270375Y163974D01*
X270280Y163986D01*
X270185Y163995D01*
X270089Y163999D01*
X269994Y164000D01*
X269747Y163993D01*
X269501Y163981D01*
X269255Y163963D01*
X269009Y163938D01*
X268765Y163908D01*
X268521Y163872D01*
X268278Y163831D01*
X268036Y163783D01*
X267795Y163729D01*
X267556Y163670D01*
X267318Y163605D01*
X267082Y163534D01*
X266847Y163458D01*
X266614Y163376D01*
X266384Y163288D01*
X266156Y163195D01*
X265929Y163097D01*
X266381Y157677D02*
X266293Y157640D01*
X266207Y157599D01*
X266122Y157555D01*
X266039Y157507D01*
X265959Y157456D01*
X265880Y157402D01*
X265804Y157344D01*
X265730Y157284D01*
X265658Y157220D01*
X265590Y157154D01*
X265524Y157084D01*
X265461Y157013D01*
X265400Y156938D01*
X265343Y156862D01*
X265290Y156783D01*
X265239Y156702D01*
X265192Y156619D01*
X265148Y156534D01*
X265108Y156447D01*
X265071Y156359D01*
X265038Y156269D01*
X265008Y156178D01*
X264983Y156086D01*
X264961Y155993D01*
X264943Y155899D01*
X264928Y155805D01*
X264918Y155710D01*
X264912Y155614D01*
X264909Y155519D01*
X264910Y155423D01*
X264916Y155328D01*
X264925Y155232D01*
X264938Y155138D01*
X264954Y155044D01*
X264975Y154950D01*
X265000Y154858D01*
X265028Y154767D01*
X265060Y154677D01*
X265095Y154588D01*
X265134Y154501D01*
X265177Y154415D01*
X265223Y154331D01*
X265273Y154250D01*
X265325Y154170D01*
X265381Y154092D01*
X265441Y154017D01*
X265503Y153945D01*
X265568Y153875D01*
X265636Y153807D01*
X265706Y153743D01*
X265779Y153681D01*
X265855Y153623D01*
X265933Y153567D01*
X266013Y153515D01*
X266095Y153466D01*
X266179Y153421D01*
X266265Y153379D01*
X266352Y153340D01*
X266441Y153305D01*
X266532Y153274D01*
X266623Y153247D01*
X266716Y153223D01*
X266809Y153203D01*
X266903Y153187D01*
X266998Y153175D01*
X267093Y153166D01*
X267189Y153162D01*
X267284Y153161D01*
X267285Y153162D02*
X267647Y153171D01*
X268009Y153189D01*
X268370Y153216D01*
X268730Y153251D01*
X269090Y153294D01*
X269449Y153346D01*
X269806Y153407D01*
X270161Y153476D01*
X270515Y153553D01*
X270867Y153639D01*
X271217Y153733D01*
X271565Y153836D01*
X271910Y153946D01*
X272252Y154065D01*
X259191Y154065D02*
X259191Y153162D01*
X259191Y154065D02*
X258288Y154065D01*
X258288Y153162D01*
X259191Y153162D01*
X251858Y147743D02*
X251858Y163999D01*
X247342Y163999D01*
X247238Y163997D01*
X247135Y163991D01*
X247031Y163981D01*
X246928Y163967D01*
X246826Y163949D01*
X246725Y163928D01*
X246624Y163902D01*
X246525Y163873D01*
X246426Y163840D01*
X246329Y163803D01*
X246234Y163762D01*
X246140Y163718D01*
X246048Y163670D01*
X245958Y163619D01*
X245869Y163564D01*
X245783Y163506D01*
X245700Y163444D01*
X245618Y163380D01*
X245540Y163312D01*
X245464Y163242D01*
X245390Y163169D01*
X245320Y163092D01*
X245252Y163014D01*
X245188Y162932D01*
X245126Y162849D01*
X245068Y162763D01*
X245013Y162674D01*
X244962Y162584D01*
X244914Y162492D01*
X244870Y162398D01*
X244829Y162303D01*
X244792Y162206D01*
X244759Y162107D01*
X244730Y162008D01*
X244704Y161907D01*
X244683Y161806D01*
X244665Y161704D01*
X244651Y161601D01*
X244641Y161497D01*
X244635Y161394D01*
X244633Y161290D01*
X244633Y155871D01*
X244635Y155770D01*
X244641Y155669D01*
X244650Y155568D01*
X244663Y155467D01*
X244680Y155367D01*
X244701Y155268D01*
X244725Y155170D01*
X244753Y155073D01*
X244785Y154976D01*
X244820Y154881D01*
X244859Y154788D01*
X244901Y154696D01*
X244947Y154605D01*
X244996Y154516D01*
X245048Y154430D01*
X245104Y154345D01*
X245162Y154262D01*
X245224Y154182D01*
X245289Y154104D01*
X245356Y154028D01*
X245426Y153955D01*
X245499Y153885D01*
X245575Y153818D01*
X245653Y153753D01*
X245733Y153691D01*
X245816Y153633D01*
X245901Y153577D01*
X245988Y153525D01*
X246076Y153476D01*
X246167Y153430D01*
X246259Y153388D01*
X246352Y153349D01*
X246447Y153314D01*
X246544Y153282D01*
X246641Y153254D01*
X246739Y153230D01*
X246838Y153209D01*
X246938Y153192D01*
X247039Y153179D01*
X247140Y153170D01*
X247241Y153164D01*
X247342Y153162D01*
X251858Y153162D01*
X238905Y147743D02*
X237099Y147743D01*
X231680Y163999D01*
X238905Y163999D02*
X235293Y153162D01*
X225273Y153162D02*
X225273Y163999D01*
X219855Y163999D01*
X219855Y162193D01*
X214937Y160387D02*
X214937Y156774D01*
X214937Y160387D02*
X214935Y160506D01*
X214929Y160626D01*
X214919Y160745D01*
X214905Y160863D01*
X214888Y160982D01*
X214866Y161099D01*
X214841Y161216D01*
X214811Y161331D01*
X214778Y161446D01*
X214741Y161560D01*
X214701Y161672D01*
X214656Y161783D01*
X214608Y161892D01*
X214557Y162000D01*
X214502Y162106D01*
X214443Y162210D01*
X214381Y162312D01*
X214316Y162412D01*
X214247Y162510D01*
X214175Y162606D01*
X214100Y162699D01*
X214023Y162789D01*
X213942Y162877D01*
X213858Y162962D01*
X213771Y163044D01*
X213682Y163124D01*
X213590Y163200D01*
X213496Y163274D01*
X213399Y163344D01*
X213301Y163411D01*
X213200Y163475D01*
X213096Y163535D01*
X212991Y163592D01*
X212884Y163645D01*
X212776Y163695D01*
X212666Y163741D01*
X212554Y163783D01*
X212441Y163822D01*
X212327Y163857D01*
X212212Y163888D01*
X212095Y163916D01*
X211978Y163939D01*
X211861Y163959D01*
X211742Y163975D01*
X211623Y163987D01*
X211504Y163995D01*
X211385Y163999D01*
X211265Y163999D01*
X211146Y163995D01*
X211027Y163987D01*
X210908Y163975D01*
X210789Y163959D01*
X210672Y163939D01*
X210555Y163916D01*
X210438Y163888D01*
X210323Y163857D01*
X210209Y163822D01*
X210096Y163783D01*
X209984Y163741D01*
X209874Y163695D01*
X209766Y163645D01*
X209659Y163592D01*
X209554Y163535D01*
X209450Y163475D01*
X209349Y163411D01*
X209251Y163344D01*
X209154Y163274D01*
X209060Y163200D01*
X208968Y163124D01*
X208879Y163044D01*
X208792Y162962D01*
X208708Y162877D01*
X208627Y162789D01*
X208550Y162699D01*
X208475Y162606D01*
X208403Y162510D01*
X208334Y162412D01*
X208269Y162312D01*
X208207Y162210D01*
X208148Y162106D01*
X208093Y162000D01*
X208042Y161892D01*
X207994Y161783D01*
X207949Y161672D01*
X207909Y161560D01*
X207872Y161446D01*
X207839Y161331D01*
X207809Y161216D01*
X207784Y161099D01*
X207762Y160982D01*
X207745Y160863D01*
X207731Y160745D01*
X207721Y160626D01*
X207715Y160506D01*
X207713Y160387D01*
X207712Y160387D02*
X207712Y156774D01*
X207713Y156774D02*
X207715Y156655D01*
X207721Y156535D01*
X207731Y156416D01*
X207745Y156298D01*
X207762Y156179D01*
X207784Y156062D01*
X207809Y155945D01*
X207839Y155830D01*
X207872Y155715D01*
X207909Y155601D01*
X207949Y155489D01*
X207994Y155378D01*
X208042Y155269D01*
X208093Y155161D01*
X208148Y155055D01*
X208207Y154951D01*
X208269Y154849D01*
X208334Y154749D01*
X208403Y154651D01*
X208475Y154555D01*
X208550Y154462D01*
X208627Y154372D01*
X208708Y154284D01*
X208792Y154199D01*
X208879Y154117D01*
X208968Y154037D01*
X209060Y153961D01*
X209154Y153887D01*
X209251Y153817D01*
X209349Y153750D01*
X209450Y153686D01*
X209554Y153626D01*
X209659Y153569D01*
X209766Y153516D01*
X209874Y153466D01*
X209984Y153420D01*
X210096Y153378D01*
X210209Y153339D01*
X210323Y153304D01*
X210438Y153273D01*
X210555Y153245D01*
X210672Y153222D01*
X210789Y153202D01*
X210908Y153186D01*
X211027Y153174D01*
X211146Y153166D01*
X211265Y153162D01*
X211385Y153162D01*
X211504Y153166D01*
X211623Y153174D01*
X211742Y153186D01*
X211861Y153202D01*
X211978Y153222D01*
X212095Y153245D01*
X212212Y153273D01*
X212327Y153304D01*
X212441Y153339D01*
X212554Y153378D01*
X212666Y153420D01*
X212776Y153466D01*
X212884Y153516D01*
X212991Y153569D01*
X213096Y153626D01*
X213200Y153686D01*
X213301Y153750D01*
X213399Y153817D01*
X213496Y153887D01*
X213590Y153961D01*
X213682Y154037D01*
X213771Y154117D01*
X213858Y154199D01*
X213942Y154284D01*
X214023Y154372D01*
X214100Y154462D01*
X214175Y154555D01*
X214247Y154651D01*
X214316Y154749D01*
X214381Y154849D01*
X214443Y154951D01*
X214502Y155055D01*
X214557Y155161D01*
X214608Y155269D01*
X214656Y155378D01*
X214701Y155489D01*
X214741Y155601D01*
X214778Y155715D01*
X214811Y155830D01*
X214841Y155945D01*
X214866Y156062D01*
X214888Y156179D01*
X214905Y156298D01*
X214919Y156416D01*
X214929Y156535D01*
X214935Y156655D01*
X214937Y156774D01*
X200796Y153162D02*
X200796Y169418D01*
X200796Y153162D02*
X196280Y153162D01*
X196176Y153164D01*
X196073Y153170D01*
X195969Y153180D01*
X195866Y153194D01*
X195764Y153212D01*
X195663Y153233D01*
X195562Y153259D01*
X195463Y153288D01*
X195364Y153321D01*
X195267Y153358D01*
X195172Y153399D01*
X195078Y153443D01*
X194986Y153491D01*
X194896Y153542D01*
X194807Y153597D01*
X194721Y153655D01*
X194638Y153717D01*
X194556Y153781D01*
X194478Y153849D01*
X194402Y153919D01*
X194328Y153992D01*
X194258Y154069D01*
X194190Y154147D01*
X194126Y154229D01*
X194064Y154312D01*
X194006Y154398D01*
X193951Y154487D01*
X193900Y154577D01*
X193852Y154669D01*
X193808Y154763D01*
X193767Y154858D01*
X193730Y154955D01*
X193697Y155054D01*
X193668Y155153D01*
X193642Y155254D01*
X193621Y155355D01*
X193603Y155457D01*
X193589Y155560D01*
X193579Y155664D01*
X193573Y155767D01*
X193571Y155871D01*
X193571Y161290D01*
X193573Y161391D01*
X193579Y161492D01*
X193588Y161593D01*
X193601Y161694D01*
X193618Y161794D01*
X193639Y161893D01*
X193663Y161991D01*
X193691Y162088D01*
X193723Y162185D01*
X193758Y162280D01*
X193797Y162373D01*
X193839Y162465D01*
X193885Y162556D01*
X193934Y162645D01*
X193986Y162731D01*
X194042Y162816D01*
X194100Y162899D01*
X194162Y162979D01*
X194227Y163057D01*
X194294Y163133D01*
X194364Y163206D01*
X194437Y163276D01*
X194513Y163343D01*
X194591Y163408D01*
X194671Y163470D01*
X194754Y163528D01*
X194839Y163584D01*
X194926Y163636D01*
X195014Y163685D01*
X195105Y163731D01*
X195197Y163773D01*
X195290Y163812D01*
X195385Y163847D01*
X195482Y163879D01*
X195579Y163907D01*
X195677Y163931D01*
X195776Y163952D01*
X195876Y163969D01*
X195977Y163982D01*
X196078Y163991D01*
X196179Y163997D01*
X196280Y163999D01*
X200796Y163999D01*
X184235Y159484D02*
X180171Y159484D01*
X184235Y159484D02*
X184347Y159482D01*
X184458Y159476D01*
X184569Y159466D01*
X184680Y159453D01*
X184790Y159435D01*
X184899Y159413D01*
X185008Y159388D01*
X185116Y159359D01*
X185222Y159326D01*
X185328Y159289D01*
X185432Y159249D01*
X185534Y159205D01*
X185635Y159157D01*
X185734Y159106D01*
X185832Y159051D01*
X185927Y158993D01*
X186020Y158932D01*
X186111Y158867D01*
X186200Y158799D01*
X186286Y158728D01*
X186369Y158655D01*
X186450Y158578D01*
X186529Y158498D01*
X186604Y158416D01*
X186676Y158331D01*
X186746Y158244D01*
X186812Y158154D01*
X186875Y158062D01*
X186935Y157967D01*
X186991Y157871D01*
X187044Y157773D01*
X187093Y157673D01*
X187139Y157571D01*
X187181Y157468D01*
X187220Y157363D01*
X187255Y157257D01*
X187286Y157150D01*
X187313Y157042D01*
X187337Y156933D01*
X187356Y156823D01*
X187372Y156713D01*
X187384Y156602D01*
X187392Y156490D01*
X187396Y156379D01*
X187396Y156267D01*
X187392Y156156D01*
X187384Y156044D01*
X187372Y155933D01*
X187356Y155823D01*
X187337Y155713D01*
X187313Y155604D01*
X187286Y155496D01*
X187255Y155389D01*
X187220Y155283D01*
X187181Y155178D01*
X187139Y155075D01*
X187093Y154973D01*
X187044Y154873D01*
X186991Y154775D01*
X186935Y154679D01*
X186875Y154584D01*
X186812Y154492D01*
X186746Y154402D01*
X186676Y154315D01*
X186604Y154230D01*
X186529Y154148D01*
X186450Y154068D01*
X186369Y153991D01*
X186286Y153918D01*
X186200Y153847D01*
X186111Y153779D01*
X186020Y153714D01*
X185927Y153653D01*
X185832Y153595D01*
X185734Y153540D01*
X185635Y153489D01*
X185534Y153441D01*
X185432Y153397D01*
X185328Y153357D01*
X185222Y153320D01*
X185116Y153287D01*
X185008Y153258D01*
X184899Y153233D01*
X184790Y153211D01*
X184680Y153193D01*
X184569Y153180D01*
X184458Y153170D01*
X184347Y153164D01*
X184235Y153162D01*
X180171Y153162D01*
X180171Y161290D01*
X180173Y161391D01*
X180179Y161492D01*
X180188Y161593D01*
X180201Y161694D01*
X180218Y161794D01*
X180239Y161893D01*
X180263Y161991D01*
X180291Y162088D01*
X180323Y162185D01*
X180358Y162280D01*
X180397Y162373D01*
X180439Y162465D01*
X180485Y162556D01*
X180534Y162645D01*
X180586Y162731D01*
X180642Y162816D01*
X180700Y162899D01*
X180762Y162979D01*
X180827Y163057D01*
X180894Y163133D01*
X180964Y163206D01*
X181037Y163276D01*
X181113Y163343D01*
X181191Y163408D01*
X181271Y163470D01*
X181354Y163528D01*
X181439Y163584D01*
X181526Y163636D01*
X181614Y163685D01*
X181705Y163731D01*
X181797Y163773D01*
X181890Y163812D01*
X181985Y163847D01*
X182082Y163879D01*
X182179Y163907D01*
X182277Y163931D01*
X182376Y163952D01*
X182476Y163969D01*
X182577Y163982D01*
X182678Y163991D01*
X182779Y163997D01*
X182880Y163999D01*
X186492Y163999D01*
X173017Y169418D02*
X173017Y155871D01*
X173015Y155770D01*
X173009Y155669D01*
X173000Y155568D01*
X172987Y155467D01*
X172970Y155367D01*
X172949Y155268D01*
X172925Y155170D01*
X172897Y155073D01*
X172865Y154976D01*
X172830Y154881D01*
X172791Y154788D01*
X172749Y154696D01*
X172703Y154605D01*
X172654Y154516D01*
X172602Y154430D01*
X172546Y154345D01*
X172488Y154262D01*
X172426Y154182D01*
X172361Y154104D01*
X172294Y154028D01*
X172224Y153955D01*
X172151Y153885D01*
X172075Y153818D01*
X171997Y153753D01*
X171917Y153691D01*
X171834Y153633D01*
X171749Y153577D01*
X171663Y153525D01*
X171574Y153476D01*
X171483Y153430D01*
X171391Y153388D01*
X171298Y153349D01*
X171203Y153314D01*
X171106Y153282D01*
X171009Y153254D01*
X170911Y153230D01*
X170812Y153209D01*
X170712Y153192D01*
X170611Y153179D01*
X170510Y153170D01*
X170409Y153164D01*
X170308Y153162D01*
X164681Y155871D02*
X164681Y169418D01*
X164680Y155871D02*
X164678Y155770D01*
X164672Y155669D01*
X164663Y155568D01*
X164650Y155467D01*
X164633Y155367D01*
X164612Y155268D01*
X164588Y155170D01*
X164560Y155073D01*
X164528Y154976D01*
X164493Y154881D01*
X164454Y154788D01*
X164412Y154696D01*
X164366Y154605D01*
X164317Y154516D01*
X164265Y154430D01*
X164209Y154345D01*
X164151Y154262D01*
X164089Y154182D01*
X164024Y154104D01*
X163957Y154028D01*
X163887Y153955D01*
X163814Y153885D01*
X163738Y153818D01*
X163660Y153753D01*
X163580Y153691D01*
X163497Y153633D01*
X163412Y153577D01*
X163326Y153525D01*
X163237Y153476D01*
X163146Y153430D01*
X163054Y153388D01*
X162961Y153349D01*
X162866Y153314D01*
X162769Y153282D01*
X162672Y153254D01*
X162574Y153230D01*
X162475Y153209D01*
X162375Y153192D01*
X162274Y153179D01*
X162173Y153170D01*
X162072Y153164D01*
X161971Y153162D01*
X155986Y147743D02*
X155986Y163999D01*
X151471Y163999D01*
X151367Y163997D01*
X151264Y163991D01*
X151160Y163981D01*
X151057Y163967D01*
X150955Y163949D01*
X150854Y163928D01*
X150753Y163902D01*
X150654Y163873D01*
X150555Y163840D01*
X150458Y163803D01*
X150363Y163762D01*
X150269Y163718D01*
X150177Y163670D01*
X150087Y163619D01*
X149998Y163564D01*
X149912Y163506D01*
X149829Y163444D01*
X149747Y163380D01*
X149669Y163312D01*
X149593Y163242D01*
X149519Y163169D01*
X149449Y163092D01*
X149381Y163014D01*
X149317Y162932D01*
X149255Y162849D01*
X149197Y162763D01*
X149142Y162674D01*
X149091Y162584D01*
X149043Y162492D01*
X148999Y162398D01*
X148958Y162303D01*
X148921Y162206D01*
X148888Y162107D01*
X148859Y162008D01*
X148833Y161907D01*
X148812Y161806D01*
X148794Y161704D01*
X148780Y161601D01*
X148770Y161497D01*
X148764Y161394D01*
X148762Y161290D01*
X148762Y155871D01*
X148764Y155770D01*
X148770Y155669D01*
X148779Y155568D01*
X148792Y155467D01*
X148809Y155367D01*
X148830Y155268D01*
X148854Y155170D01*
X148882Y155073D01*
X148914Y154976D01*
X148949Y154881D01*
X148988Y154788D01*
X149030Y154696D01*
X149076Y154605D01*
X149125Y154516D01*
X149177Y154430D01*
X149233Y154345D01*
X149291Y154262D01*
X149353Y154182D01*
X149418Y154104D01*
X149485Y154028D01*
X149555Y153955D01*
X149628Y153885D01*
X149704Y153818D01*
X149782Y153753D01*
X149862Y153691D01*
X149945Y153633D01*
X150030Y153577D01*
X150117Y153525D01*
X150205Y153476D01*
X150296Y153430D01*
X150388Y153388D01*
X150481Y153349D01*
X150576Y153314D01*
X150673Y153282D01*
X150770Y153254D01*
X150868Y153230D01*
X150967Y153209D01*
X151067Y153192D01*
X151168Y153179D01*
X151269Y153170D01*
X151370Y153164D01*
X151471Y153162D01*
X155986Y153162D01*
X139786Y153162D02*
X136173Y153162D01*
X139786Y153162D02*
X139887Y153164D01*
X139988Y153170D01*
X140089Y153179D01*
X140190Y153192D01*
X140290Y153209D01*
X140389Y153230D01*
X140487Y153254D01*
X140584Y153282D01*
X140681Y153314D01*
X140776Y153349D01*
X140869Y153388D01*
X140961Y153430D01*
X141052Y153476D01*
X141141Y153525D01*
X141227Y153577D01*
X141312Y153633D01*
X141395Y153691D01*
X141475Y153753D01*
X141553Y153818D01*
X141629Y153885D01*
X141702Y153955D01*
X141772Y154028D01*
X141839Y154104D01*
X141904Y154182D01*
X141966Y154262D01*
X142024Y154345D01*
X142080Y154430D01*
X142132Y154516D01*
X142181Y154605D01*
X142227Y154696D01*
X142269Y154788D01*
X142308Y154881D01*
X142343Y154976D01*
X142375Y155073D01*
X142403Y155170D01*
X142427Y155268D01*
X142448Y155367D01*
X142465Y155467D01*
X142478Y155568D01*
X142487Y155669D01*
X142493Y155770D01*
X142495Y155871D01*
X142495Y161290D01*
X142493Y161391D01*
X142487Y161492D01*
X142478Y161593D01*
X142465Y161694D01*
X142448Y161794D01*
X142427Y161893D01*
X142403Y161991D01*
X142375Y162088D01*
X142343Y162185D01*
X142308Y162280D01*
X142269Y162373D01*
X142227Y162465D01*
X142181Y162556D01*
X142132Y162645D01*
X142080Y162731D01*
X142024Y162816D01*
X141966Y162899D01*
X141904Y162979D01*
X141839Y163057D01*
X141772Y163133D01*
X141702Y163206D01*
X141629Y163276D01*
X141553Y163343D01*
X141475Y163408D01*
X141395Y163470D01*
X141312Y163528D01*
X141227Y163584D01*
X141141Y163636D01*
X141052Y163685D01*
X140961Y163731D01*
X140869Y163773D01*
X140776Y163812D01*
X140681Y163847D01*
X140584Y163879D01*
X140487Y163907D01*
X140389Y163931D01*
X140290Y163952D01*
X140190Y163969D01*
X140089Y163982D01*
X139988Y163991D01*
X139887Y163997D01*
X139786Y163999D01*
X136173Y163999D01*
X129934Y169418D02*
X129934Y153162D01*
X125419Y153162D01*
X125315Y153164D01*
X125212Y153170D01*
X125108Y153180D01*
X125005Y153194D01*
X124903Y153212D01*
X124802Y153233D01*
X124701Y153259D01*
X124602Y153288D01*
X124503Y153321D01*
X124406Y153358D01*
X124311Y153399D01*
X124217Y153443D01*
X124125Y153491D01*
X124035Y153542D01*
X123946Y153597D01*
X123860Y153655D01*
X123777Y153717D01*
X123695Y153781D01*
X123617Y153849D01*
X123541Y153919D01*
X123467Y153992D01*
X123397Y154069D01*
X123329Y154147D01*
X123265Y154229D01*
X123203Y154312D01*
X123145Y154398D01*
X123090Y154487D01*
X123039Y154577D01*
X122991Y154669D01*
X122947Y154763D01*
X122906Y154858D01*
X122869Y154955D01*
X122836Y155054D01*
X122807Y155153D01*
X122781Y155254D01*
X122760Y155355D01*
X122742Y155457D01*
X122728Y155560D01*
X122718Y155664D01*
X122712Y155767D01*
X122710Y155871D01*
X122710Y161290D01*
X122712Y161391D01*
X122718Y161492D01*
X122727Y161593D01*
X122740Y161694D01*
X122757Y161794D01*
X122778Y161893D01*
X122802Y161991D01*
X122830Y162088D01*
X122862Y162185D01*
X122897Y162280D01*
X122936Y162373D01*
X122978Y162465D01*
X123024Y162556D01*
X123073Y162645D01*
X123125Y162731D01*
X123181Y162816D01*
X123239Y162899D01*
X123301Y162979D01*
X123366Y163057D01*
X123433Y163133D01*
X123503Y163206D01*
X123576Y163276D01*
X123652Y163343D01*
X123730Y163408D01*
X123810Y163470D01*
X123893Y163528D01*
X123978Y163584D01*
X124065Y163636D01*
X124153Y163685D01*
X124244Y163731D01*
X124336Y163773D01*
X124429Y163812D01*
X124524Y163847D01*
X124621Y163879D01*
X124718Y163907D01*
X124816Y163931D01*
X124915Y163952D01*
X125015Y163969D01*
X125116Y163982D01*
X125217Y163991D01*
X125318Y163997D01*
X125419Y163999D01*
X129934Y163999D01*
X115106Y159484D02*
X110590Y157678D01*
X115106Y159484D02*
X115194Y159521D01*
X115280Y159562D01*
X115365Y159606D01*
X115448Y159654D01*
X115528Y159705D01*
X115607Y159759D01*
X115683Y159817D01*
X115757Y159877D01*
X115829Y159941D01*
X115897Y160007D01*
X115963Y160077D01*
X116026Y160148D01*
X116087Y160223D01*
X116144Y160299D01*
X116197Y160378D01*
X116248Y160459D01*
X116295Y160542D01*
X116339Y160627D01*
X116379Y160714D01*
X116416Y160802D01*
X116449Y160892D01*
X116479Y160983D01*
X116504Y161075D01*
X116526Y161168D01*
X116544Y161262D01*
X116559Y161356D01*
X116569Y161451D01*
X116575Y161547D01*
X116578Y161642D01*
X116577Y161738D01*
X116571Y161833D01*
X116562Y161929D01*
X116549Y162023D01*
X116533Y162117D01*
X116512Y162211D01*
X116487Y162303D01*
X116459Y162394D01*
X116427Y162484D01*
X116392Y162573D01*
X116353Y162660D01*
X116310Y162746D01*
X116264Y162830D01*
X116214Y162911D01*
X116162Y162991D01*
X116106Y163069D01*
X116046Y163144D01*
X115984Y163216D01*
X115919Y163286D01*
X115851Y163354D01*
X115781Y163418D01*
X115708Y163480D01*
X115632Y163538D01*
X115554Y163594D01*
X115474Y163646D01*
X115392Y163695D01*
X115308Y163740D01*
X115222Y163782D01*
X115135Y163821D01*
X115046Y163856D01*
X114955Y163887D01*
X114864Y163914D01*
X114771Y163938D01*
X114678Y163958D01*
X114584Y163974D01*
X114489Y163986D01*
X114394Y163995D01*
X114298Y163999D01*
X114203Y164000D01*
X113956Y163993D01*
X113710Y163981D01*
X113464Y163963D01*
X113218Y163938D01*
X112974Y163908D01*
X112730Y163872D01*
X112487Y163831D01*
X112245Y163783D01*
X112004Y163729D01*
X111765Y163670D01*
X111527Y163605D01*
X111291Y163534D01*
X111056Y163458D01*
X110823Y163376D01*
X110593Y163288D01*
X110365Y163195D01*
X110138Y163097D01*
X110590Y157677D02*
X110502Y157640D01*
X110416Y157599D01*
X110331Y157555D01*
X110248Y157507D01*
X110168Y157456D01*
X110089Y157402D01*
X110013Y157344D01*
X109939Y157284D01*
X109867Y157220D01*
X109799Y157154D01*
X109733Y157084D01*
X109670Y157013D01*
X109609Y156938D01*
X109552Y156862D01*
X109499Y156783D01*
X109448Y156702D01*
X109401Y156619D01*
X109357Y156534D01*
X109317Y156447D01*
X109280Y156359D01*
X109247Y156269D01*
X109217Y156178D01*
X109192Y156086D01*
X109170Y155993D01*
X109152Y155899D01*
X109137Y155805D01*
X109127Y155710D01*
X109121Y155614D01*
X109118Y155519D01*
X109119Y155423D01*
X109125Y155328D01*
X109134Y155232D01*
X109147Y155138D01*
X109163Y155044D01*
X109184Y154950D01*
X109209Y154858D01*
X109237Y154767D01*
X109269Y154677D01*
X109304Y154588D01*
X109343Y154501D01*
X109386Y154415D01*
X109432Y154331D01*
X109482Y154250D01*
X109534Y154170D01*
X109590Y154092D01*
X109650Y154017D01*
X109712Y153945D01*
X109777Y153875D01*
X109845Y153807D01*
X109915Y153743D01*
X109988Y153681D01*
X110064Y153623D01*
X110142Y153567D01*
X110222Y153515D01*
X110304Y153466D01*
X110388Y153421D01*
X110474Y153379D01*
X110561Y153340D01*
X110650Y153305D01*
X110741Y153274D01*
X110832Y153247D01*
X110925Y153223D01*
X111018Y153203D01*
X111112Y153187D01*
X111207Y153175D01*
X111302Y153166D01*
X111398Y153162D01*
X111493Y153161D01*
X111494Y153162D02*
X111856Y153171D01*
X112218Y153189D01*
X112579Y153216D01*
X112939Y153251D01*
X113299Y153294D01*
X113658Y153346D01*
X114015Y153407D01*
X114370Y153476D01*
X114724Y153553D01*
X115076Y153639D01*
X115426Y153733D01*
X115774Y153836D01*
X116119Y153946D01*
X116461Y154065D01*
X103400Y154065D02*
X103400Y153162D01*
X103400Y154065D02*
X102497Y154065D01*
X102497Y153162D01*
X103400Y153162D01*
X93934Y153162D02*
X90322Y153162D01*
X93934Y153162D02*
X94035Y153164D01*
X94136Y153170D01*
X94237Y153179D01*
X94338Y153192D01*
X94438Y153209D01*
X94537Y153230D01*
X94635Y153254D01*
X94732Y153282D01*
X94829Y153314D01*
X94924Y153349D01*
X95017Y153388D01*
X95109Y153430D01*
X95200Y153476D01*
X95288Y153525D01*
X95375Y153577D01*
X95460Y153633D01*
X95543Y153691D01*
X95623Y153753D01*
X95701Y153818D01*
X95777Y153885D01*
X95850Y153955D01*
X95920Y154028D01*
X95987Y154104D01*
X96052Y154182D01*
X96114Y154262D01*
X96172Y154345D01*
X96228Y154430D01*
X96280Y154516D01*
X96329Y154605D01*
X96375Y154696D01*
X96417Y154788D01*
X96456Y154881D01*
X96491Y154976D01*
X96523Y155073D01*
X96551Y155170D01*
X96575Y155268D01*
X96596Y155367D01*
X96613Y155467D01*
X96626Y155568D01*
X96635Y155669D01*
X96641Y155770D01*
X96643Y155871D01*
X96643Y161290D01*
X96641Y161391D01*
X96635Y161492D01*
X96626Y161593D01*
X96613Y161694D01*
X96596Y161794D01*
X96575Y161893D01*
X96551Y161991D01*
X96523Y162088D01*
X96491Y162185D01*
X96456Y162280D01*
X96417Y162373D01*
X96375Y162465D01*
X96329Y162556D01*
X96280Y162645D01*
X96228Y162731D01*
X96172Y162816D01*
X96114Y162899D01*
X96052Y162979D01*
X95987Y163057D01*
X95920Y163133D01*
X95850Y163206D01*
X95777Y163276D01*
X95701Y163343D01*
X95623Y163408D01*
X95543Y163470D01*
X95460Y163528D01*
X95375Y163584D01*
X95289Y163636D01*
X95200Y163685D01*
X95109Y163731D01*
X95017Y163773D01*
X94924Y163812D01*
X94829Y163847D01*
X94732Y163879D01*
X94635Y163907D01*
X94537Y163931D01*
X94438Y163952D01*
X94338Y163969D01*
X94237Y163982D01*
X94136Y163991D01*
X94035Y163997D01*
X93934Y163999D01*
X90322Y163999D01*
X84677Y160387D02*
X84677Y156774D01*
X84677Y160387D02*
X84675Y160506D01*
X84669Y160626D01*
X84659Y160745D01*
X84645Y160863D01*
X84628Y160982D01*
X84606Y161099D01*
X84581Y161216D01*
X84551Y161331D01*
X84518Y161446D01*
X84481Y161560D01*
X84441Y161672D01*
X84396Y161783D01*
X84348Y161892D01*
X84297Y162000D01*
X84242Y162106D01*
X84183Y162210D01*
X84121Y162312D01*
X84056Y162412D01*
X83987Y162510D01*
X83915Y162606D01*
X83840Y162699D01*
X83763Y162789D01*
X83682Y162877D01*
X83598Y162962D01*
X83511Y163044D01*
X83422Y163124D01*
X83330Y163200D01*
X83236Y163274D01*
X83139Y163344D01*
X83041Y163411D01*
X82940Y163475D01*
X82836Y163535D01*
X82731Y163592D01*
X82624Y163645D01*
X82516Y163695D01*
X82406Y163741D01*
X82294Y163783D01*
X82181Y163822D01*
X82067Y163857D01*
X81952Y163888D01*
X81835Y163916D01*
X81718Y163939D01*
X81601Y163959D01*
X81482Y163975D01*
X81363Y163987D01*
X81244Y163995D01*
X81125Y163999D01*
X81005Y163999D01*
X80886Y163995D01*
X80767Y163987D01*
X80648Y163975D01*
X80529Y163959D01*
X80412Y163939D01*
X80295Y163916D01*
X80178Y163888D01*
X80063Y163857D01*
X79949Y163822D01*
X79836Y163783D01*
X79724Y163741D01*
X79614Y163695D01*
X79506Y163645D01*
X79399Y163592D01*
X79294Y163535D01*
X79190Y163475D01*
X79089Y163411D01*
X78991Y163344D01*
X78894Y163274D01*
X78800Y163200D01*
X78708Y163124D01*
X78619Y163044D01*
X78532Y162962D01*
X78448Y162877D01*
X78367Y162789D01*
X78290Y162699D01*
X78215Y162606D01*
X78143Y162510D01*
X78074Y162412D01*
X78009Y162312D01*
X77947Y162210D01*
X77888Y162106D01*
X77833Y162000D01*
X77782Y161892D01*
X77734Y161783D01*
X77689Y161672D01*
X77649Y161560D01*
X77612Y161446D01*
X77579Y161331D01*
X77549Y161216D01*
X77524Y161099D01*
X77502Y160982D01*
X77485Y160863D01*
X77471Y160745D01*
X77461Y160626D01*
X77455Y160506D01*
X77453Y160387D01*
X77452Y160387D02*
X77452Y156774D01*
X77453Y156774D02*
X77455Y156655D01*
X77461Y156535D01*
X77471Y156416D01*
X77485Y156298D01*
X77502Y156179D01*
X77524Y156062D01*
X77549Y155945D01*
X77579Y155830D01*
X77612Y155715D01*
X77649Y155601D01*
X77689Y155489D01*
X77734Y155378D01*
X77782Y155269D01*
X77833Y155161D01*
X77888Y155055D01*
X77947Y154951D01*
X78009Y154849D01*
X78074Y154749D01*
X78143Y154651D01*
X78215Y154555D01*
X78290Y154462D01*
X78367Y154372D01*
X78448Y154284D01*
X78532Y154199D01*
X78619Y154117D01*
X78708Y154037D01*
X78800Y153961D01*
X78894Y153887D01*
X78991Y153817D01*
X79089Y153750D01*
X79190Y153686D01*
X79294Y153626D01*
X79399Y153569D01*
X79506Y153516D01*
X79614Y153466D01*
X79724Y153420D01*
X79836Y153378D01*
X79949Y153339D01*
X80063Y153304D01*
X80178Y153273D01*
X80295Y153245D01*
X80412Y153222D01*
X80529Y153202D01*
X80648Y153186D01*
X80767Y153174D01*
X80886Y153166D01*
X81005Y153162D01*
X81125Y153162D01*
X81244Y153166D01*
X81363Y153174D01*
X81482Y153186D01*
X81601Y153202D01*
X81718Y153222D01*
X81835Y153245D01*
X81952Y153273D01*
X82067Y153304D01*
X82181Y153339D01*
X82294Y153378D01*
X82406Y153420D01*
X82516Y153466D01*
X82624Y153516D01*
X82731Y153569D01*
X82836Y153626D01*
X82940Y153686D01*
X83041Y153750D01*
X83139Y153817D01*
X83236Y153887D01*
X83330Y153961D01*
X83422Y154037D01*
X83511Y154117D01*
X83598Y154199D01*
X83682Y154284D01*
X83763Y154372D01*
X83840Y154462D01*
X83915Y154555D01*
X83987Y154651D01*
X84056Y154749D01*
X84121Y154849D01*
X84183Y154951D01*
X84242Y155055D01*
X84297Y155161D01*
X84348Y155269D01*
X84396Y155378D01*
X84441Y155489D01*
X84481Y155601D01*
X84518Y155715D01*
X84551Y155830D01*
X84581Y155945D01*
X84606Y156062D01*
X84628Y156179D01*
X84645Y156298D01*
X84659Y156416D01*
X84669Y156535D01*
X84675Y156655D01*
X84677Y156774D01*
X70331Y153162D02*
X70331Y163999D01*
X62203Y163999D01*
X62102Y163997D01*
X62001Y163991D01*
X61900Y163982D01*
X61799Y163969D01*
X61699Y163952D01*
X61600Y163931D01*
X61502Y163907D01*
X61405Y163879D01*
X61308Y163847D01*
X61213Y163812D01*
X61120Y163773D01*
X61028Y163731D01*
X60937Y163685D01*
X60849Y163636D01*
X60762Y163584D01*
X60677Y163528D01*
X60594Y163470D01*
X60514Y163408D01*
X60436Y163343D01*
X60360Y163276D01*
X60287Y163206D01*
X60217Y163133D01*
X60150Y163057D01*
X60085Y162979D01*
X60023Y162899D01*
X59965Y162816D01*
X59909Y162731D01*
X59857Y162645D01*
X59808Y162556D01*
X59762Y162465D01*
X59720Y162373D01*
X59681Y162280D01*
X59646Y162185D01*
X59614Y162088D01*
X59586Y161991D01*
X59562Y161893D01*
X59541Y161794D01*
X59524Y161694D01*
X59511Y161593D01*
X59502Y161492D01*
X59496Y161391D01*
X59494Y161290D01*
X59494Y153162D01*
X64912Y153162D02*
X64912Y163999D01*
D11*
X261294Y15293D02*
X262061Y15161D01*
X262830Y15042D01*
X263599Y14936D01*
X264077Y14871D01*
X264555Y14810D01*
X265033Y14755D01*
X265506Y14700D01*
X265978Y14651D01*
X266452Y14606D01*
X266985Y14556D01*
X267520Y14512D01*
X268054Y14475D01*
X268631Y14435D01*
X269207Y14402D01*
X269784Y14376D01*
X270369Y14350D01*
X270954Y14332D01*
X271540Y14321D01*
X272114Y14310D01*
X272687Y14307D01*
X273261Y14311D01*
X273873Y14315D01*
X274485Y14327D01*
X275097Y14349D01*
X275578Y14365D01*
X276060Y14386D01*
X276541Y14413D01*
X277023Y14440D01*
X277505Y14472D01*
X277987Y14509D01*
X278897Y14579D01*
X279807Y14668D01*
X280715Y14775D01*
X281402Y14856D01*
X282089Y14948D01*
X282774Y15050D01*
X283502Y15159D01*
X284229Y15280D01*
X284953Y15412D01*
X285606Y15532D01*
X286256Y15661D01*
X286906Y15800D01*
X287550Y15938D01*
X288193Y16086D01*
X288834Y16243D01*
X289477Y16401D01*
X290118Y16568D01*
X290757Y16744D01*
X291530Y16958D01*
X292300Y17186D01*
X293067Y17428D01*
X293646Y17611D01*
X294223Y17802D01*
X294798Y18001D01*
X295288Y18170D01*
X295776Y18345D01*
X296263Y18527D01*
X296702Y18690D01*
X297140Y18858D01*
X297576Y19031D01*
X298191Y19275D01*
X298803Y19528D01*
X299411Y19790D01*
X300013Y20050D01*
X300611Y20318D01*
X301206Y20596D01*
X301816Y20881D01*
X302422Y21175D01*
X303025Y21479D01*
X303568Y21753D01*
X304109Y22035D01*
X304646Y22325D01*
X305229Y22639D01*
X305808Y22962D01*
X306384Y23295D01*
X306893Y23590D01*
X307399Y23892D01*
X307903Y24201D01*
X308453Y24539D01*
X308999Y24886D01*
X309541Y25241D01*
X310029Y25560D01*
X310513Y25887D01*
X310994Y26220D01*
X311431Y26523D01*
X311864Y26831D01*
X312294Y27144D01*
X312703Y27442D01*
X313109Y27745D01*
X313512Y28053D01*
X313865Y28323D01*
X314216Y28596D01*
X314564Y28874D01*
X314920Y29157D01*
X315273Y29444D01*
X315625Y29736D01*
X316119Y30146D01*
X316609Y30564D01*
X317094Y30990D01*
X317505Y31352D01*
X317912Y31718D01*
X318316Y32091D01*
X318696Y32442D01*
X319074Y32799D01*
X319448Y33160D01*
X319729Y33432D01*
X320008Y33707D01*
X320285Y33984D01*
X320760Y34459D01*
X321226Y34938D01*
X321683Y35424D01*
X321911Y35665D01*
X322137Y35908D01*
X322361Y36152D01*
X322696Y36518D01*
X323025Y36887D01*
X323351Y37257D01*
X323670Y37622D01*
X323985Y37990D01*
X324296Y38360D01*
X324649Y38782D01*
X324996Y39206D01*
X325337Y39633D01*
X325674Y40055D01*
X326006Y40480D01*
X326331Y40909D01*
X326665Y41349D01*
X326993Y41792D01*
X327316Y42238D01*
X327672Y42731D01*
X328021Y43229D01*
X328362Y43730D01*
X328721Y44257D01*
X329072Y44789D01*
X329415Y45324D01*
X329699Y45767D01*
X329977Y46213D01*
X330249Y46661D01*
X330571Y47193D01*
X330886Y47727D01*
X331192Y48265D01*
X331480Y48771D01*
X331761Y49280D01*
X332035Y49791D01*
X332272Y50234D01*
X332504Y50680D01*
X332731Y51127D01*
X332977Y51613D01*
X333217Y52102D01*
X333451Y52593D01*
X333647Y53004D01*
X333839Y53417D01*
X334026Y53831D01*
X334234Y54293D01*
X334438Y54758D01*
X334635Y55224D01*
X334833Y55691D01*
X335026Y56161D01*
X335213Y56632D01*
X335416Y57140D01*
X335611Y57651D01*
X335800Y58162D01*
X336016Y58745D01*
X336222Y59329D01*
X336420Y59916D01*
X336595Y60433D01*
X336763Y60951D01*
X336925Y61471D01*
X337115Y62083D01*
X337297Y62697D01*
X337469Y63314D01*
X337621Y63856D01*
X337766Y64400D01*
X337904Y64945D01*
X338042Y65491D01*
X338173Y66038D01*
X338298Y66586D01*
X338432Y67178D01*
X338558Y67772D01*
X338676Y68367D01*
X338778Y68881D01*
X338873Y69396D01*
X338963Y69911D01*
X339065Y70499D01*
X339159Y71088D01*
X339246Y71677D01*
X339339Y72309D01*
X339422Y72943D01*
X339497Y73577D01*
X339576Y74241D01*
X339644Y74908D01*
X339703Y75574D01*
X339756Y76178D01*
X339801Y76782D01*
X339837Y77387D01*
X339868Y77901D01*
X339894Y78415D01*
X339913Y78930D01*
X339929Y79332D01*
X339940Y79734D01*
X339948Y80135D01*
X339958Y80610D01*
X339962Y81084D01*
X339961Y81559D01*
X339961Y82024D01*
X339955Y82490D01*
X339945Y82955D01*
X339934Y83470D01*
X339917Y83986D01*
X339894Y84501D01*
X339877Y84886D01*
X339856Y85271D01*
X339832Y85656D01*
X339806Y86089D01*
X339775Y86522D01*
X339740Y86955D01*
X339713Y87284D01*
X339683Y87613D01*
X339652Y87941D01*
X339626Y88212D01*
X339598Y88483D01*
X339569Y88754D01*
X339538Y89039D01*
X339505Y89325D01*
X339470Y89611D01*
X339421Y90022D01*
X339367Y90433D01*
X339309Y90844D01*
X339259Y91207D01*
X339205Y91569D01*
X339149Y91932D01*
X339085Y92339D01*
X339017Y92746D01*
X338946Y93153D01*
X338883Y93509D01*
X338818Y93865D01*
X338750Y94220D01*
X338690Y94529D01*
X338629Y94837D01*
X338565Y95145D01*
X338504Y95442D01*
X338440Y95738D01*
X338375Y96034D01*
X338304Y96358D01*
X338230Y96681D01*
X338154Y97003D01*
X338070Y97358D01*
X337983Y97710D01*
X337894Y98063D01*
X337815Y98375D01*
X337733Y98686D01*
X337650Y98997D01*
X337557Y99342D01*
X337462Y99686D01*
X337364Y100029D01*
X337267Y100367D01*
X337167Y100705D01*
X337065Y101042D01*
X336951Y101416D01*
X336834Y101789D01*
X336714Y102162D01*
X336597Y102525D01*
X336477Y102887D01*
X336354Y103249D01*
X336299Y103409D01*
X336244Y103569D01*
X336188Y103728D01*
X336081Y104032D01*
X335973Y104335D01*
X335862Y104637D01*
X335745Y104956D01*
X335626Y105273D01*
X335505Y105590D01*
X335378Y105920D01*
X335248Y106249D01*
X335116Y106578D01*
X334962Y106964D01*
X334803Y107349D01*
X334640Y107732D01*
X334483Y108103D01*
X334322Y108474D01*
X334157Y108843D01*
X334020Y109151D01*
X333880Y109459D01*
X333738Y109765D01*
X333590Y110084D01*
X333439Y110402D01*
X333286Y110719D01*
X333098Y111109D01*
X332906Y111497D01*
X332709Y111885D01*
X332560Y112179D01*
X332408Y112472D01*
X332254Y112764D01*
X332175Y112914D01*
X332096Y113064D01*
X332015Y113214D01*
X331846Y113531D01*
X331673Y113846D01*
X331498Y114160D01*
X331298Y114519D01*
X331094Y114877D01*
X330887Y115233D01*
X330726Y115510D01*
X330563Y115786D01*
X330397Y116061D01*
X330228Y116342D01*
X330056Y116623D01*
X329882Y116903D01*
X329686Y117220D01*
X329485Y117536D01*
X329283Y117850D01*
X329104Y118129D01*
X328922Y118405D01*
X328738Y118682D01*
X328524Y119003D01*
X328306Y119323D01*
X328086Y119642D01*
X327877Y119945D01*
X327665Y120246D01*
X327450Y120545D01*
X327280Y120784D01*
X327107Y121022D01*
X326932Y121258D01*
X326763Y121488D01*
X326592Y121716D01*
X326420Y121944D01*
X326258Y122159D01*
X326094Y122374D01*
X325928Y122587D01*
X325735Y122837D01*
X325539Y123085D01*
X325342Y123333D01*
X325156Y123564D01*
X324970Y123795D01*
X324781Y124025D01*
X324575Y124277D01*
X324367Y124527D01*
X324156Y124777D01*
X323980Y124986D01*
X323801Y125194D01*
X323622Y125401D01*
X323449Y125601D01*
X323275Y125800D01*
X323099Y125998D01*
X322981Y126131D01*
X322862Y126264D01*
X322743Y126397D01*
X322612Y126542D01*
X322481Y126687D01*
X322348Y126831D01*
X322126Y127073D01*
X321901Y127315D01*
X321675Y127555D01*
X321484Y127758D01*
X321290Y127960D01*
X321095Y128162D01*
X320957Y128305D01*
X320817Y128448D01*
X320677Y128591D01*
X320547Y128723D01*
X320417Y128854D01*
X320285Y128985D01*
X319958Y129313D01*
X319628Y129636D01*
X319296Y129955D01*
X319038Y130203D01*
X318778Y130449D01*
X318517Y130692D01*
X318291Y130901D01*
X318065Y131109D01*
X317838Y131315D01*
X317581Y131547D01*
X317324Y131777D01*
X317065Y132004D01*
X316721Y132306D01*
X316375Y132604D01*
X316026Y132898D01*
X315770Y133114D01*
X315512Y133328D01*
X315254Y133539D01*
X315000Y133747D01*
X314746Y133952D01*
X314490Y134154D01*
X314200Y134386D01*
X313907Y134614D01*
X313613Y134839D01*
X313355Y135037D01*
X313096Y135233D01*
X312836Y135427D01*
X312563Y135631D01*
X312287Y135832D01*
X312010Y136031D01*
X311749Y136220D01*
X311487Y136406D01*
X311223Y136590D01*
X311037Y136721D01*
X310849Y136851D01*
X310661Y136979D01*
X310399Y137158D01*
X310136Y137336D01*
X309872Y137511D01*
X309612Y137683D01*
X309352Y137854D01*
X309090Y138022D01*
X308838Y138184D01*
X308586Y138345D01*
X308332Y138503D01*
X308082Y138659D01*
X307830Y138814D01*
X307578Y138966D01*
X307315Y139126D01*
X307051Y139283D01*
X306786Y139439D01*
X306493Y139612D01*
X306198Y139782D01*
X305902Y139950D01*
X305632Y140103D01*
X305361Y140254D01*
X305089Y140403D01*
X304816Y140554D01*
X304541Y140702D01*
X304265Y140848D01*
X303948Y141017D01*
X303629Y141182D01*
X303309Y141346D01*
X302958Y141525D01*
X302606Y141700D01*
X302253Y141873D01*
X301923Y142035D01*
X301590Y142193D01*
X301258Y142349D01*
X300960Y142488D01*
X300661Y142625D01*
X300361Y142760D01*
X300016Y142916D01*
X299669Y143068D01*
X299321Y143217D01*
X298947Y143378D01*
X298571Y143535D01*
X298195Y143689D01*
X297848Y143830D01*
X297500Y143968D01*
X297151Y144104D01*
X296811Y144236D01*
X296469Y144366D01*
X296127Y144492D01*
X295801Y144613D01*
X295473Y144731D01*
X295144Y144847D01*
X294909Y144930D01*
X294673Y145012D01*
X294437Y145092D01*
X294067Y145217D01*
X293697Y145339D01*
X293326Y145458D01*
X293034Y145551D01*
X292742Y145643D01*
X292449Y145732D01*
X292126Y145831D01*
X291802Y145927D01*
X291478Y146021D01*
X291230Y146092D01*
X290982Y146162D01*
X290733Y146231D01*
X290373Y146330D01*
X290012Y146427D01*
X289650Y146520D01*
X289183Y146641D01*
X288716Y146757D01*
X288247Y146867D01*
X287944Y146938D01*
X287641Y147007D01*
X287337Y147074D01*
X286882Y147175D01*
X286425Y147271D01*
X285967Y147362D01*
X285358Y147484D01*
X284746Y147596D01*
X284133Y147701D01*
X283614Y147789D01*
X283094Y147871D01*
X282574Y147948D01*
X281943Y148040D01*
X281311Y148123D01*
X280679Y148198D01*
X280245Y148249D01*
X279809Y148296D01*
X279373Y148339D01*
X278903Y148385D01*
X278433Y148426D01*
X277962Y148462D01*
X277621Y148488D01*
X277280Y148512D01*
X276939Y148533D01*
X276526Y148558D01*
X276113Y148580D01*
X275699Y148597D01*
X275164Y148621D01*
X274628Y148638D01*
X274093Y148648D01*
X273564Y148658D01*
X273036Y148662D01*
X272507Y148660D01*
X272052Y148658D01*
X271596Y148652D01*
X271140Y148641D01*
X270685Y148630D01*
X270229Y148614D01*
X269774Y148594D01*
X269338Y148574D01*
X268901Y148551D01*
X268465Y148523D01*
X268162Y148503D01*
X267859Y148482D01*
X267556Y148458D01*
X266923Y148409D01*
X266291Y148351D01*
X265659Y148284D01*
X265220Y148238D01*
X264782Y148187D01*
X264344Y148132D01*
X263872Y148072D01*
X263400Y148007D01*
X262929Y147938D01*
X262176Y147827D01*
X261759Y147833D01*
X261275Y147822D01*
X260730Y147795D01*
X260435Y147780D01*
X260122Y147760D01*
X259792Y147736D01*
X259270Y147697D01*
X258705Y147647D01*
X258102Y147586D01*
X257527Y147527D01*
X256916Y147458D01*
X256273Y147380D01*
X255609Y147299D01*
X254909Y147207D01*
X254179Y147106D01*
X253585Y147024D01*
X252970Y146935D01*
X252337Y146840D01*
X251608Y146730D01*
X250855Y146613D01*
X250080Y146488D01*
X249177Y146342D01*
X248244Y146185D01*
X247285Y146019D01*
X246283Y145845D01*
X245254Y145661D01*
X244201Y145466D01*
X243228Y145287D01*
X242234Y145099D01*
X241224Y144902D01*
X240345Y144732D01*
X239453Y144555D01*
X238551Y144372D01*
X236944Y144047D01*
X235306Y143704D01*
X233652Y143345D01*
X232325Y143057D01*
X230988Y142760D01*
X229647Y142454D01*
X228264Y142138D01*
X226879Y141813D01*
X225498Y141480D01*
X224689Y141285D01*
X223881Y141087D01*
X223076Y140886D01*
X222321Y140698D01*
X221568Y140507D01*
X220819Y140315D01*
X220067Y140121D01*
X219319Y139926D01*
X218576Y139728D01*
X217984Y139571D01*
X217396Y139412D01*
X216812Y139253D01*
X216369Y139131D01*
X215929Y139010D01*
X215492Y138888D01*
X215046Y138763D01*
X214603Y138638D01*
X214163Y138512D01*
X213845Y138421D01*
X213530Y138331D01*
X213216Y138240D01*
X212952Y138163D01*
X212690Y138086D01*
X212429Y138010D01*
X212185Y137938D01*
X211942Y137865D01*
X211700Y137793D01*
X211475Y137726D01*
X211252Y137659D01*
X211029Y137592D01*
X210740Y137504D01*
X210453Y137417D01*
X210168Y137329D01*
X209947Y137261D01*
X209727Y137193D01*
X209509Y137125D01*
X209292Y137057D01*
X209077Y136990D01*
X208863Y136921D01*
X208515Y136811D01*
X208171Y136701D01*
X207831Y136590D01*
X207518Y136489D01*
X207209Y136387D01*
X206903Y136285D01*
X206721Y136225D01*
X206541Y136165D01*
X206362Y136104D01*
X206183Y136044D01*
X206006Y135983D01*
X205829Y135923D01*
X205651Y135862D01*
X205475Y135801D01*
X205299Y135740D01*
X205076Y135663D01*
X204855Y135586D01*
X204636Y135508D01*
X204405Y135427D01*
X204177Y135345D01*
X203951Y135263D01*
X203700Y135173D01*
X203453Y135083D01*
X203209Y134993D01*
X202983Y134909D01*
X202760Y134825D01*
X202539Y134742D01*
X202411Y134693D01*
X202283Y134644D01*
X202157Y134596D01*
X201956Y134518D01*
X201757Y134441D01*
X201561Y134364D01*
X201361Y134285D01*
X201164Y134206D01*
X200969Y134127D01*
X200686Y134013D01*
X200408Y133899D01*
X200135Y133785D01*
X199850Y133665D01*
X199571Y133546D01*
X199299Y133427D01*
X199102Y133341D01*
X198908Y133254D01*
X198718Y133168D01*
X198555Y133094D01*
X198394Y133021D01*
X198236Y132947D01*
X198097Y132882D01*
X197960Y132817D01*
X197825Y132753D01*
X197672Y132680D01*
X197521Y132606D01*
X197374Y132533D01*
X197180Y132437D01*
X196990Y132341D01*
X196805Y132245D01*
X196565Y132120D01*
X196333Y131995D01*
X196110Y131872D01*
X195756Y131675D01*
X195424Y131480D01*
X195114Y131286D01*
X195443Y131295D01*
X195901Y131332D01*
X196459Y131382D01*
X196766Y131410D01*
X197103Y131442D01*
X197467Y131476D01*
X197840Y131512D01*
X198240Y131549D01*
X198662Y131587D01*
X199045Y131622D01*
X199445Y131657D01*
X199860Y131690D01*
X200292Y131725D01*
X200738Y131759D01*
X201196Y131789D01*
X201622Y131817D01*
X202057Y131842D01*
X202498Y131863D01*
X203035Y131888D01*
X203580Y131907D01*
X204127Y131918D01*
X204642Y131927D01*
X205159Y131929D01*
X205672Y131920D01*
X206083Y131913D01*
X206491Y131900D01*
X206895Y131879D01*
X207177Y131864D01*
X207457Y131846D01*
X207733Y131824D01*
X208001Y131803D01*
X208265Y131777D01*
X208526Y131748D01*
X208746Y131723D01*
X208965Y131695D01*
X209179Y131664D01*
X209460Y131623D01*
X209735Y131576D01*
X210003Y131524D01*
X210236Y131479D01*
X210464Y131429D01*
X210686Y131374D01*
X210967Y131305D01*
X211240Y131228D01*
X211501Y131143D01*
X211678Y131085D01*
X211850Y131023D01*
X212017Y130958D01*
X212194Y130888D01*
X212365Y130813D01*
X212530Y130734D01*
X212678Y130663D01*
X212821Y130587D01*
X212958Y130508D01*
X213123Y130412D01*
X213278Y130310D01*
X213425Y130203D01*
X213565Y130099D01*
X213697Y129990D01*
X213820Y129875D01*
X213947Y129756D01*
X214065Y129630D01*
X214172Y129498D01*
X214265Y129381D01*
X214351Y129259D01*
X214427Y129132D01*
X214514Y128987D01*
X214590Y128835D01*
X214654Y128676D01*
X214728Y128490D01*
X214786Y128295D01*
X214826Y128090D01*
X214856Y127938D01*
X214876Y127781D01*
X214886Y127619D01*
X214894Y127499D01*
X214896Y127376D01*
X214893Y127249D01*
X214885Y126964D01*
X214857Y126692D01*
X214810Y126435D01*
X214772Y126232D01*
X214723Y126037D01*
X214663Y125850D01*
X214617Y125707D01*
X214565Y125569D01*
X214507Y125435D01*
X214453Y125310D01*
X214393Y125189D01*
X214328Y125071D01*
X214256Y124940D01*
X214178Y124813D01*
X214093Y124691D01*
X213982Y124529D01*
X213860Y124376D01*
X213730Y124229D01*
X213637Y124126D01*
X213540Y124026D01*
X213438Y123930D01*
X213285Y123784D01*
X213121Y123645D01*
X212948Y123515D01*
X212783Y123391D01*
X212611Y123273D01*
X212431Y123161D01*
X212195Y123015D01*
X211947Y122879D01*
X211689Y122752D01*
X211392Y122607D01*
X211082Y122474D01*
X210761Y122353D01*
X210383Y122209D01*
X209988Y122080D01*
X209584Y121964D01*
X209148Y121838D01*
X208699Y121726D01*
X208245Y121626D01*
X207585Y121481D01*
X206912Y121358D01*
X206245Y121249D01*
X205743Y121167D01*
X205244Y121093D01*
X204757Y121022D01*
X204216Y120943D01*
X203689Y120868D01*
X203187Y120791D01*
X202763Y120727D01*
X202280Y120697D01*
X201744Y120695D01*
X201300Y120693D01*
X200819Y120710D01*
X200305Y120744D01*
X199988Y120764D01*
X199658Y120791D01*
X199316Y120822D01*
X198848Y120864D01*
X198357Y120917D01*
X197845Y120975D01*
X196908Y121083D01*
X195903Y121214D01*
X194840Y121354D01*
X194232Y121434D01*
X193605Y121517D01*
X192962Y121601D01*
X192320Y121684D01*
X191661Y121767D01*
X190988Y121848D01*
X190094Y121955D01*
X189175Y122057D01*
X188236Y122150D01*
X187692Y122203D01*
X187143Y122253D01*
X186587Y122298D01*
X186027Y122343D01*
X185461Y122384D01*
X184889Y122418D01*
X184253Y122455D01*
X183612Y122486D01*
X182966Y122507D01*
X182448Y122524D01*
X181927Y122535D01*
X181404Y122539D01*
X180951Y122542D01*
X180496Y122540D01*
X180040Y122532D01*
X179655Y122526D01*
X179269Y122516D01*
X178883Y122500D01*
X178484Y122485D01*
X178084Y122464D01*
X177685Y122439D01*
X177371Y122419D01*
X177057Y122396D01*
X176743Y122370D01*
X176406Y122342D01*
X176069Y122309D01*
X175732Y122273D01*
X175532Y122251D01*
X175333Y122228D01*
X175134Y122204D01*
X174677Y122147D01*
X174229Y122088D01*
X173790Y122026D01*
X173451Y121978D01*
X173118Y121929D01*
X172790Y121878D01*
X172282Y121799D01*
X171787Y121717D01*
X171305Y121631D01*
X170863Y121552D01*
X170430Y121471D01*
X170009Y121387D01*
X169548Y121295D01*
X169099Y121200D01*
X168662Y121103D01*
X168180Y120996D01*
X167713Y120886D01*
X167259Y120773D01*
X166884Y120680D01*
X166518Y120585D01*
X166163Y120488D01*
X165841Y120401D01*
X165527Y120312D01*
X165220Y120223D01*
X164881Y120124D01*
X164552Y120024D01*
X164232Y119923D01*
X163922Y119825D01*
X163621Y119727D01*
X163329Y119628D01*
X163015Y119522D01*
X162711Y119415D01*
X162417Y119308D01*
X162064Y119180D01*
X161725Y119051D01*
X161400Y118923D01*
X161106Y118806D01*
X160823Y118690D01*
X160550Y118575D01*
X160290Y118464D01*
X160040Y118354D01*
X159799Y118246D01*
X159551Y118133D01*
X159314Y118022D01*
X159086Y117912D01*
X158788Y117768D01*
X158507Y117627D01*
X158244Y117488D01*
X158010Y117366D01*
X157789Y117246D01*
X157582Y117130D01*
X157317Y116981D01*
X157074Y116838D01*
X156852Y116703D01*
X156639Y116572D01*
X156446Y116449D01*
X156270Y116333D01*
X156026Y116172D01*
X155817Y116026D01*
X155644Y115899D01*
X155469Y115770D01*
X155329Y115660D01*
X155221Y115573D01*
X155039Y115425D01*
X154952Y115342D01*
X155349Y115474D01*
X156056Y115653D01*
X156186Y115687D01*
X156326Y115721D01*
X156477Y115756D01*
X156677Y115804D01*
X156896Y115853D01*
X157131Y115903D01*
X157373Y115954D01*
X157633Y116006D01*
X157908Y116058D01*
X158208Y116113D01*
X158526Y116169D01*
X158862Y116221D01*
X159083Y116256D01*
X159312Y116289D01*
X159547Y116320D01*
X159893Y116367D01*
X160254Y116409D01*
X160629Y116447D01*
X160940Y116478D01*
X161261Y116506D01*
X161591Y116529D01*
X162050Y116561D01*
X162525Y116584D01*
X163013Y116596D01*
X163385Y116604D01*
X163763Y116606D01*
X164148Y116600D01*
X164591Y116594D01*
X165042Y116577D01*
X165499Y116548D01*
X165924Y116521D01*
X166355Y116484D01*
X166789Y116435D01*
X167143Y116396D01*
X167500Y116349D01*
X167859Y116293D01*
X168211Y116238D01*
X168566Y116175D01*
X168921Y116103D01*
X169276Y116032D01*
X169632Y115952D01*
X169989Y115862D01*
X170269Y115792D01*
X170550Y115717D01*
X170831Y115635D01*
X171128Y115547D01*
X171427Y115453D01*
X171725Y115352D01*
X172007Y115256D01*
X172290Y115153D01*
X172573Y115043D01*
X172893Y114918D01*
X173212Y114784D01*
X173530Y114641D01*
X173747Y114543D01*
X173963Y114441D01*
X174179Y114335D01*
X174344Y114253D01*
X174510Y114168D01*
X174675Y114081D01*
X174943Y113939D01*
X175210Y113789D01*
X175475Y113633D01*
X175695Y113502D01*
X175915Y113366D01*
X176133Y113225D01*
X176386Y113061D01*
X176637Y112889D01*
X176887Y112710D01*
X176976Y112647D01*
X177064Y112582D01*
X177152Y112517D01*
X177362Y112360D01*
X177571Y112196D01*
X177777Y112023D01*
X177950Y111879D01*
X178120Y111730D01*
X178287Y111576D01*
X178421Y111454D01*
X178552Y111329D01*
X178682Y111201D01*
X178812Y111073D01*
X178939Y110943D01*
X179064Y110810D01*
X179177Y110692D01*
X179287Y110571D01*
X179394Y110448D01*
X179469Y110363D01*
X179542Y110278D01*
X179615Y110192D01*
X179714Y110073D01*
X179812Y109953D01*
X179907Y109832D01*
X180001Y109712D01*
X180092Y109591D01*
X180182Y109469D01*
X180278Y109338D01*
X180372Y109204D01*
X180463Y109070D01*
X180570Y108910D01*
X180673Y108749D01*
X180771Y108588D01*
X180840Y108473D01*
X180906Y108357D01*
X180970Y108242D01*
X181031Y108132D01*
X181090Y108022D01*
X181146Y107911D01*
X181211Y107783D01*
X181272Y107654D01*
X181330Y107525D01*
X181390Y107392D01*
X181445Y107259D01*
X181497Y107125D01*
X181548Y106991D01*
X181596Y106858D01*
X181639Y106724D01*
X181679Y106599D01*
X181716Y106473D01*
X181748Y106348D01*
X181792Y106177D01*
X181829Y106006D01*
X181858Y105836D01*
X181881Y105699D01*
X181898Y105562D01*
X181910Y105426D01*
X181922Y105296D01*
X181928Y105166D01*
X181929Y105037D01*
X181929Y104916D01*
X181925Y104797D01*
X181916Y104679D01*
X181906Y104547D01*
X181889Y104415D01*
X181866Y104285D01*
X181847Y104180D01*
X181824Y104075D01*
X181795Y103971D01*
X181771Y103878D01*
X181742Y103786D01*
X181709Y103696D01*
X181662Y103562D01*
X181606Y103432D01*
X181542Y103304D01*
X181496Y103211D01*
X181445Y103121D01*
X181390Y103031D01*
X181175Y102678D01*
X180944Y102341D01*
X180697Y102021D01*
X180602Y101898D01*
X180505Y101777D01*
X180405Y101658D01*
X180291Y101523D01*
X180174Y101390D01*
X180055Y101261D01*
X179889Y101083D01*
X179718Y100910D01*
X179541Y100744D01*
X179417Y100628D01*
X179290Y100516D01*
X179161Y100406D01*
X179019Y100286D01*
X178873Y100169D01*
X178724Y100056D01*
X178568Y99938D01*
X178408Y99824D01*
X178245Y99714D01*
X178050Y99584D01*
X177850Y99459D01*
X177645Y99341D01*
X177478Y99244D01*
X177307Y99152D01*
X177132Y99063D01*
X176861Y98925D01*
X176580Y98796D01*
X176290Y98677D01*
X175947Y98537D01*
X175592Y98410D01*
X175223Y98297D01*
X174991Y98225D01*
X174754Y98159D01*
X174511Y98098D01*
X174268Y98037D01*
X174019Y97982D01*
X173765Y97931D01*
X173546Y97889D01*
X173324Y97850D01*
X173096Y97815D01*
X172836Y97776D01*
X172571Y97741D01*
X172300Y97712D01*
X171794Y97658D01*
X171268Y97622D01*
X170722Y97607D01*
X170315Y97595D01*
X169898Y97594D01*
X169470Y97604D01*
X169016Y97615D01*
X168551Y97637D01*
X168073Y97673D01*
X167545Y97711D01*
X167002Y97764D01*
X166443Y97834D01*
X165895Y97901D01*
X165331Y97984D01*
X164753Y98081D01*
X164176Y98178D01*
X163584Y98290D01*
X162975Y98417D01*
X162327Y98552D01*
X161661Y98704D01*
X160977Y98873D01*
X160451Y99003D01*
X159913Y99144D01*
X159365Y99295D01*
X158836Y99440D01*
X158298Y99595D01*
X157749Y99760D01*
X157103Y99954D01*
X156442Y100161D01*
X155766Y100382D01*
X155323Y100528D01*
X154873Y100679D01*
X154417Y100836D01*
X154061Y100959D01*
X153701Y101085D01*
X153338Y101214D01*
X152939Y101357D01*
X152542Y101495D01*
X152148Y101630D01*
X151729Y101773D01*
X151311Y101911D01*
X150895Y102046D01*
X150585Y102147D01*
X150276Y102245D01*
X149968Y102341D01*
X149532Y102476D01*
X149099Y102607D01*
X148668Y102733D01*
X148284Y102845D01*
X147901Y102953D01*
X147521Y103058D01*
X146994Y103203D01*
X146469Y103342D01*
X145949Y103473D01*
X145354Y103622D01*
X144764Y103762D01*
X144178Y103893D01*
X143771Y103984D01*
X143366Y104070D01*
X142962Y104152D01*
X142629Y104220D01*
X142296Y104285D01*
X141965Y104347D01*
X141606Y104415D01*
X141248Y104479D01*
X140890Y104539D01*
X140524Y104601D01*
X140158Y104659D01*
X139793Y104714D01*
X139435Y104768D01*
X139078Y104818D01*
X138722Y104864D01*
X138160Y104939D01*
X137601Y105004D01*
X137045Y105061D01*
X136710Y105095D01*
X136375Y105126D01*
X136042Y105154D01*
X135507Y105199D01*
X134975Y105236D01*
X134444Y105265D01*
X133969Y105291D01*
X133494Y105311D01*
X133021Y105325D01*
X132543Y105338D01*
X132067Y105345D01*
X131592Y105346D01*
X131203Y105347D01*
X130815Y105343D01*
X130428Y105335D01*
X129893Y105324D01*
X129359Y105306D01*
X128827Y105279D01*
X128321Y105253D01*
X127817Y105220D01*
X127314Y105181D01*
X126870Y105145D01*
X126427Y105105D01*
X125985Y105059D01*
X125717Y105031D01*
X125449Y105001D01*
X125181Y104969D01*
X124847Y104930D01*
X124514Y104887D01*
X124182Y104841D01*
X123832Y104793D01*
X123483Y104742D01*
X123134Y104687D01*
X122744Y104625D01*
X122354Y104559D01*
X121964Y104490D01*
X121251Y104362D01*
X120538Y104220D01*
X119826Y104065D01*
X119132Y103913D01*
X118438Y103749D01*
X117743Y103572D01*
X117336Y103468D01*
X116928Y103360D01*
X116520Y103248D01*
X116160Y103149D01*
X115800Y103046D01*
X115440Y102939D01*
X115099Y102839D01*
X114758Y102737D01*
X114417Y102631D01*
X113932Y102480D01*
X113446Y102323D01*
X112959Y102161D01*
X112628Y102050D01*
X112296Y101936D01*
X111964Y101820D01*
X111536Y101670D01*
X111114Y101516D01*
X110698Y101357D01*
X110282Y101198D01*
X109873Y101034D01*
X109469Y100866D01*
X109129Y100724D01*
X108793Y100580D01*
X108462Y100432D01*
X108077Y100261D01*
X107699Y100088D01*
X107328Y99911D01*
X106903Y99708D01*
X106485Y99501D01*
X106076Y99292D01*
X105610Y99052D01*
X105155Y98809D01*
X104711Y98562D01*
X104131Y98240D01*
X103570Y97913D01*
X103027Y97583D01*
X102678Y97371D01*
X102338Y97158D01*
X102005Y96943D01*
X101637Y96707D01*
X101279Y96470D01*
X100929Y96233D01*
X100726Y96095D01*
X100526Y95957D01*
X100329Y95818D01*
X100025Y95605D01*
X99728Y95392D01*
X99440Y95180D01*
X99205Y95007D01*
X98975Y94835D01*
X98750Y94663D01*
X98523Y94490D01*
X98302Y94318D01*
X98086Y94148D01*
X97836Y93951D01*
X97594Y93756D01*
X97358Y93563D01*
X97132Y93378D01*
X96913Y93195D01*
X96700Y93014D01*
X96496Y92841D01*
X96299Y92671D01*
X96107Y92503D01*
X95890Y92313D01*
X95680Y92126D01*
X95479Y91942D01*
X95273Y91755D01*
X95076Y91573D01*
X94886Y91395D01*
X94635Y91159D01*
X94397Y90931D01*
X94174Y90712D01*
X93947Y90489D01*
X93735Y90275D01*
X93536Y90073D01*
X93355Y89886D01*
X93185Y89709D01*
X93028Y89542D01*
X92888Y89395D01*
X92760Y89256D01*
X92640Y89125D01*
X92512Y88985D01*
X92395Y88855D01*
X92290Y88736D01*
X92172Y88602D01*
X92068Y88482D01*
X91979Y88378D01*
X91714Y88068D01*
X91580Y87895D01*
X92078Y87982D01*
X92960Y88121D01*
X93233Y88165D01*
X93542Y88213D01*
X93885Y88266D01*
X94356Y88338D01*
X94891Y88418D01*
X95480Y88504D01*
X96200Y88609D01*
X97001Y88721D01*
X97869Y88837D01*
X98702Y88949D01*
X99597Y89064D01*
X100538Y89177D01*
X101328Y89273D01*
X102151Y89367D01*
X102998Y89459D01*
X103859Y89552D01*
X104746Y89642D01*
X105651Y89726D01*
X106840Y89837D01*
X108060Y89938D01*
X109289Y90022D01*
X110156Y90082D01*
X111028Y90134D01*
X111897Y90176D01*
X112886Y90224D01*
X113872Y90259D01*
X114844Y90279D01*
X115593Y90294D01*
X116334Y90299D01*
X117063Y90294D01*
X117703Y90290D01*
X118333Y90277D01*
X118951Y90255D01*
X119556Y90233D01*
X120149Y90202D01*
X120726Y90162D01*
X121277Y90124D01*
X121814Y90077D01*
X122334Y90020D01*
X122688Y89981D01*
X123035Y89938D01*
X123373Y89890D01*
X123752Y89836D01*
X124121Y89777D01*
X124477Y89711D01*
X125025Y89610D01*
X125557Y89505D01*
X126073Y89395D01*
X126582Y89287D01*
X127077Y89175D01*
X127558Y89059D01*
X128401Y88856D01*
X129202Y88641D01*
X129967Y88416D01*
X130549Y88244D01*
X131110Y88065D01*
X131652Y87880D01*
X132135Y87715D01*
X132603Y87545D01*
X133057Y87370D01*
X133491Y87203D01*
X133911Y87031D01*
X134320Y86856D01*
X134728Y86681D01*
X135125Y86501D01*
X135511Y86317D01*
X135857Y86153D01*
X136195Y85985D01*
X136525Y85814D01*
X137066Y85534D01*
X137585Y85247D01*
X138088Y84952D01*
X138551Y84680D01*
X138998Y84403D01*
X139435Y84119D01*
X139961Y83776D01*
X140472Y83426D01*
X140970Y83068D01*
X141493Y82691D01*
X142003Y82306D01*
X142507Y81914D01*
X143120Y81436D01*
X143725Y80946D01*
X144330Y80447D01*
X145118Y79796D01*
X145907Y79129D01*
X146721Y78450D01*
X147210Y78042D01*
X147708Y77629D01*
X148221Y77212D01*
X148500Y76984D01*
X148784Y76756D01*
X149073Y76527D01*
X149456Y76223D01*
X149848Y75917D01*
X150250Y75610D01*
X150635Y75317D01*
X151029Y75023D01*
X151435Y74727D01*
X151804Y74458D01*
X152183Y74188D01*
X152573Y73918D01*
X152851Y73725D01*
X153135Y73532D01*
X153425Y73339D01*
X153708Y73150D01*
X153997Y72961D01*
X154292Y72771D01*
X154582Y72586D01*
X154877Y72400D01*
X155179Y72213D01*
X155549Y71985D01*
X155929Y71756D01*
X156319Y71528D01*
X156678Y71317D01*
X157045Y71107D01*
X157422Y70897D01*
X157735Y70722D01*
X158055Y70546D01*
X158382Y70372D01*
X158728Y70187D01*
X159081Y70002D01*
X159442Y69818D01*
X159722Y69674D01*
X160006Y69532D01*
X160296Y69390D01*
X160709Y69186D01*
X161133Y68983D01*
X161568Y68780D01*
X161873Y68637D01*
X162182Y68495D01*
X162497Y68352D01*
X162803Y68215D01*
X163113Y68078D01*
X163428Y67940D01*
X163642Y67847D01*
X163859Y67754D01*
X164078Y67661D01*
X164198Y67611D01*
X164318Y67561D01*
X164438Y67510D01*
X164633Y67429D01*
X164832Y67350D01*
X165033Y67275D01*
X165200Y67212D01*
X165369Y67150D01*
X165541Y67090D01*
X165766Y67012D01*
X165994Y66937D01*
X166225Y66865D01*
X166360Y66823D01*
X166495Y66782D01*
X166632Y66742D01*
X166814Y66689D01*
X166997Y66638D01*
X167181Y66588D01*
X167343Y66544D01*
X167505Y66502D01*
X167668Y66461D01*
X167832Y66419D01*
X167996Y66379D01*
X168162Y66339D01*
X168390Y66285D01*
X168619Y66233D01*
X168849Y66183D01*
X169160Y66114D01*
X169472Y66050D01*
X169785Y65988D01*
X170178Y65911D01*
X170573Y65838D01*
X170968Y65768D01*
X171382Y65695D01*
X171797Y65625D01*
X172211Y65557D01*
X172745Y65469D01*
X173277Y65386D01*
X173805Y65303D01*
X174418Y65207D01*
X175024Y65112D01*
X175619Y65014D01*
X175865Y64974D01*
X176108Y64933D01*
X176349Y64892D01*
X176583Y64851D01*
X176816Y64810D01*
X177046Y64767D01*
X177385Y64704D01*
X177718Y64640D01*
X178046Y64572D01*
X178304Y64519D01*
X178559Y64464D01*
X178809Y64406D01*
X179033Y64354D01*
X179253Y64300D01*
X179469Y64244D01*
X179748Y64172D01*
X180021Y64096D01*
X180286Y64016D01*
X180465Y63962D01*
X180640Y63906D01*
X180812Y63848D01*
X180953Y63799D01*
X181091Y63750D01*
X181227Y63699D01*
X181353Y63652D01*
X181477Y63604D01*
X181598Y63554D01*
X181710Y63508D01*
X181820Y63461D01*
X181928Y63412D01*
X182015Y63373D01*
X182100Y63333D01*
X182184Y63293D01*
X182276Y63248D01*
X182366Y63202D01*
X182455Y63155D01*
X182549Y63105D01*
X182642Y63054D01*
X182733Y63001D01*
X182833Y62944D01*
X182930Y62884D01*
X183025Y62824D01*
X183142Y62748D01*
X183255Y62670D01*
X183365Y62589D01*
X183458Y62522D01*
X183548Y62452D01*
X183634Y62380D01*
X183704Y62323D01*
X183772Y62264D01*
X183837Y62203D01*
X183920Y62127D01*
X184000Y62049D01*
X184076Y61968D01*
X184145Y61896D01*
X184211Y61822D01*
X184274Y61746D01*
X184334Y61675D01*
X184392Y61602D01*
X184446Y61527D01*
X184503Y61449D01*
X184557Y61370D01*
X184609Y61290D01*
X184658Y61213D01*
X184705Y61135D01*
X184749Y61054D01*
X184808Y60946D01*
X184863Y60834D01*
X184913Y60719D01*
X184963Y60603D01*
X185009Y60484D01*
X185050Y60361D01*
X185088Y60245D01*
X185123Y60127D01*
X185152Y60004D01*
X185181Y59886D01*
X185205Y59764D01*
X185225Y59639D01*
X185254Y59457D01*
X185271Y59281D01*
X185275Y59110D01*
X185281Y58904D01*
X185269Y58707D01*
X185240Y58518D01*
X185226Y58424D01*
X185207Y58333D01*
X185185Y58244D01*
X185158Y58138D01*
X185126Y58036D01*
X185089Y57936D01*
X185060Y57860D01*
X185028Y57785D01*
X184993Y57711D01*
X184956Y57632D01*
X184914Y57555D01*
X184869Y57479D01*
X184818Y57393D01*
X184762Y57308D01*
X184701Y57226D01*
X184652Y57160D01*
X184599Y57095D01*
X184544Y57031D01*
X184489Y56968D01*
X184432Y56907D01*
X184371Y56847D01*
X184292Y56769D01*
X184209Y56694D01*
X184120Y56621D01*
X184026Y56543D01*
X183927Y56469D01*
X183823Y56397D01*
X183718Y56325D01*
X183608Y56255D01*
X183492Y56189D01*
X183383Y56126D01*
X183269Y56065D01*
X183150Y56007D01*
X183024Y55946D01*
X182892Y55886D01*
X182755Y55830D01*
X182626Y55777D01*
X182493Y55727D01*
X182355Y55679D01*
X182237Y55638D01*
X182116Y55599D01*
X181992Y55562D01*
X181812Y55508D01*
X181625Y55458D01*
X181433Y55412D01*
X181192Y55354D01*
X180941Y55303D01*
X180681Y55257D01*
X180428Y55213D01*
X180167Y55174D01*
X179897Y55142D01*
X179604Y55106D01*
X179302Y55077D01*
X178990Y55055D01*
X178713Y55035D01*
X178429Y55020D01*
X178138Y55011D01*
X177853Y55002D01*
X177562Y54999D01*
X177265Y55000D01*
X176964Y55001D01*
X176656Y55007D01*
X176343Y55018D01*
X176020Y55030D01*
X175691Y55047D01*
X175356Y55070D01*
X175019Y55092D01*
X174677Y55120D01*
X174329Y55154D01*
X173947Y55190D01*
X173559Y55233D01*
X173164Y55283D01*
X172906Y55315D01*
X172645Y55350D01*
X172381Y55388D01*
X172086Y55431D01*
X171788Y55477D01*
X171487Y55527D01*
X171113Y55588D01*
X170735Y55654D01*
X170353Y55726D01*
X169962Y55800D01*
X169567Y55879D01*
X169168Y55963D01*
X168819Y56037D01*
X168467Y56114D01*
X168113Y56197D01*
X167806Y56268D01*
X167498Y56342D01*
X167187Y56419D01*
X166969Y56474D01*
X166749Y56530D01*
X166528Y56588D01*
X166272Y56655D01*
X166015Y56724D01*
X165757Y56794D01*
X165525Y56858D01*
X165292Y56924D01*
X165060Y56991D01*
X164781Y57071D01*
X164501Y57154D01*
X164220Y57239D01*
X163931Y57327D01*
X163640Y57417D01*
X163349Y57510D01*
X163069Y57599D01*
X162788Y57690D01*
X162507Y57784D01*
X162312Y57849D01*
X162117Y57916D01*
X161921Y57983D01*
X161727Y58050D01*
X161533Y58118D01*
X161339Y58187D01*
X161108Y58268D01*
X160877Y58351D01*
X160646Y58436D01*
X160336Y58550D01*
X160026Y58666D01*
X159716Y58785D01*
X159438Y58892D01*
X159159Y59001D01*
X158880Y59113D01*
X158719Y59177D01*
X158558Y59242D01*
X158397Y59308D01*
X158262Y59364D01*
X158127Y59420D01*
X157992Y59476D01*
X158196Y59257D01*
X158413Y59034D01*
X158640Y58808D01*
X158786Y58663D01*
X158936Y58517D01*
X159091Y58370D01*
X159261Y58209D01*
X159436Y58047D01*
X159616Y57883D01*
X159779Y57735D01*
X159947Y57585D01*
X160118Y57435D01*
X160289Y57286D01*
X160464Y57135D01*
X160643Y56984D01*
X160835Y56824D01*
X161031Y56662D01*
X161231Y56499D01*
X161457Y56315D01*
X161689Y56130D01*
X161926Y55945D01*
X162187Y55740D01*
X162455Y55534D01*
X162729Y55328D01*
X163006Y55120D01*
X163289Y54911D01*
X163578Y54702D01*
X163891Y54476D01*
X164210Y54249D01*
X164536Y54023D01*
X164830Y53819D01*
X165130Y53615D01*
X165434Y53411D01*
X165708Y53228D01*
X165986Y53044D01*
X166268Y52862D01*
X166612Y52639D01*
X166962Y52417D01*
X167316Y52196D01*
X167664Y51980D01*
X168016Y51765D01*
X168373Y51551D01*
X168737Y51333D01*
X169106Y51116D01*
X169478Y50901D01*
X169753Y50743D01*
X170030Y50585D01*
X170310Y50429D01*
X170645Y50242D01*
X170982Y50056D01*
X171323Y49873D01*
X171781Y49626D01*
X172244Y49383D01*
X172710Y49144D01*
X173045Y48973D01*
X173381Y48803D01*
X173719Y48637D01*
X174021Y48488D01*
X174324Y48342D01*
X174628Y48197D01*
X174900Y48068D01*
X175173Y47941D01*
X175447Y47815D01*
X175793Y47656D01*
X176140Y47500D01*
X176488Y47347D01*
X176820Y47201D01*
X177152Y47058D01*
X177486Y46918D01*
X177872Y46756D01*
X178259Y46598D01*
X178646Y46444D01*
X179030Y46292D01*
X179414Y46145D01*
X179798Y46001D01*
X180126Y45879D01*
X180455Y45760D01*
X180783Y45644D01*
X181141Y45518D01*
X181498Y45397D01*
X181854Y45280D01*
X182128Y45190D01*
X182402Y45103D01*
X182675Y45018D01*
X182956Y44931D01*
X183236Y44847D01*
X183516Y44767D01*
X183840Y44673D01*
X184163Y44584D01*
X184485Y44498D01*
X184812Y44412D01*
X185137Y44330D01*
X185461Y44253D01*
X185785Y44176D01*
X186107Y44103D01*
X186427Y44035D01*
X186744Y43969D01*
X187059Y43906D01*
X187372Y43849D01*
X187644Y43799D01*
X187915Y43753D01*
X188184Y43711D01*
X188392Y43678D01*
X188600Y43648D01*
X188806Y43620D01*
X188958Y43600D01*
X189110Y43580D01*
X189262Y43563D01*
X189515Y43532D01*
X189767Y43506D01*
X190018Y43484D01*
X190311Y43457D01*
X190602Y43436D01*
X190891Y43420D01*
X191091Y43409D01*
X191290Y43401D01*
X191488Y43395D01*
X191666Y43390D01*
X191843Y43387D01*
X192019Y43386D01*
X192181Y43386D01*
X192343Y43387D01*
X192504Y43391D01*
X192802Y43397D01*
X193096Y43410D01*
X193386Y43430D01*
X193629Y43446D01*
X193868Y43467D01*
X194105Y43494D01*
X194440Y43531D01*
X194770Y43567D01*
X195094Y43603D01*
X195437Y43640D01*
X195774Y43676D01*
X196104Y43712D01*
X196272Y43730D01*
X196439Y43748D01*
X196604Y43765D01*
X196778Y43784D01*
X196951Y43802D01*
X197122Y43820D01*
X197481Y43858D01*
X197833Y43894D01*
X198177Y43928D01*
X198492Y43959D01*
X198800Y43990D01*
X199103Y44019D01*
X199462Y44053D01*
X199812Y44085D01*
X200153Y44115D01*
X200478Y44144D01*
X200795Y44170D01*
X201105Y44195D01*
X201353Y44215D01*
X201597Y44234D01*
X201837Y44250D01*
X202162Y44273D01*
X202478Y44294D01*
X202786Y44311D01*
X202981Y44323D01*
X203173Y44333D01*
X203362Y44342D01*
X203589Y44353D01*
X203811Y44362D01*
X204029Y44369D01*
X204210Y44375D01*
X204388Y44380D01*
X204562Y44384D01*
X204682Y44387D01*
X204800Y44388D01*
X204917Y44390D01*
X205053Y44391D01*
X205188Y44392D01*
X205320Y44392D01*
X205496Y44391D01*
X205668Y44390D01*
X205836Y44387D01*
X205981Y44384D01*
X206123Y44380D01*
X206262Y44375D01*
X206408Y44370D01*
X206551Y44363D01*
X206691Y44355D01*
X206790Y44350D01*
X206888Y44344D01*
X206984Y44337D01*
X207111Y44328D01*
X207235Y44317D01*
X207357Y44306D01*
X207460Y44296D01*
X207561Y44285D01*
X207660Y44273D01*
X207791Y44258D01*
X207918Y44242D01*
X208043Y44224D01*
X208200Y44201D01*
X208352Y44176D01*
X208499Y44148D01*
X208620Y44125D01*
X208738Y44101D01*
X208852Y44075D01*
X208970Y44048D01*
X209084Y44019D01*
X209195Y43989D01*
X209318Y43955D01*
X209437Y43919D01*
X209553Y43880D01*
X209647Y43849D01*
X209739Y43815D01*
X209828Y43781D01*
X209925Y43743D01*
X210019Y43703D01*
X210110Y43662D01*
X210187Y43627D01*
X210261Y43590D01*
X210333Y43553D01*
X210416Y43510D01*
X210496Y43465D01*
X210573Y43418D01*
X210674Y43358D01*
X210770Y43294D01*
X210862Y43227D01*
X210932Y43176D01*
X211000Y43123D01*
X211065Y43069D01*
X211154Y42994D01*
X211238Y42915D01*
X211318Y42834D01*
X211393Y42757D01*
X211463Y42678D01*
X211529Y42596D01*
X211604Y42503D01*
X211674Y42407D01*
X211739Y42306D01*
X211809Y42198D01*
X211874Y42086D01*
X211934Y41968D01*
X211982Y41874D01*
X212026Y41778D01*
X212067Y41677D01*
X212120Y41549D01*
X212167Y41424D01*
X212208Y41301D01*
X212249Y41179D01*
X212285Y41059D01*
X212315Y40942D01*
X212349Y40811D01*
X212376Y40682D01*
X212396Y40557D01*
X212412Y40459D01*
X212424Y40364D01*
X212432Y40270D01*
X212439Y40197D01*
X212443Y40125D01*
X212445Y40054D01*
X212447Y39974D01*
X212446Y39896D01*
X212441Y39820D01*
X212437Y39742D01*
X212430Y39667D01*
X212420Y39592D01*
X212407Y39486D01*
X212387Y39383D01*
X212361Y39282D01*
X212341Y39204D01*
X212317Y39127D01*
X212290Y39053D01*
X212264Y38977D01*
X212233Y38904D01*
X212199Y38832D01*
X212168Y38765D01*
X212133Y38699D01*
X212096Y38635D01*
X212054Y38562D01*
X212008Y38491D01*
X211958Y38421D01*
X211920Y38367D01*
X211879Y38315D01*
X211837Y38263D01*
X211783Y38198D01*
X211726Y38135D01*
X211665Y38073D01*
X211612Y38019D01*
X211556Y37966D01*
X211498Y37914D01*
X211404Y37831D01*
X211305Y37752D01*
X211200Y37675D01*
X211114Y37613D01*
X211025Y37554D01*
X210932Y37496D01*
X210841Y37440D01*
X210747Y37386D01*
X210651Y37335D01*
X210529Y37269D01*
X210403Y37207D01*
X210272Y37148D01*
X210010Y37030D01*
X209729Y36924D01*
X209431Y36829D01*
X209230Y36765D01*
X209020Y36705D01*
X208805Y36650D01*
X208688Y36621D01*
X208569Y36592D01*
X208448Y36565D01*
X208200Y36510D01*
X207943Y36460D01*
X207680Y36416D01*
X207394Y36367D01*
X207099Y36325D01*
X206798Y36289D01*
X206565Y36261D01*
X206327Y36236D01*
X206086Y36215D01*
X205809Y36190D01*
X205527Y36169D01*
X205242Y36152D01*
X204951Y36136D01*
X204656Y36123D01*
X204359Y36114D01*
X204047Y36104D01*
X203733Y36099D01*
X203419Y36097D01*
X203227Y36097D01*
X203036Y36097D01*
X202844Y36099D01*
X202585Y36101D01*
X202326Y36105D01*
X202068Y36112D01*
X201752Y36120D01*
X201437Y36132D01*
X201125Y36145D01*
X200714Y36164D01*
X200307Y36186D01*
X199907Y36212D01*
X199486Y36240D01*
X199072Y36272D01*
X198671Y36306D01*
X198299Y36337D01*
X197936Y36371D01*
X197588Y36406D01*
X197171Y36448D01*
X196773Y36492D01*
X196398Y36536D01*
X196012Y36581D01*
X195651Y36626D01*
X195320Y36670D01*
X194897Y36726D01*
X194523Y36778D01*
X194210Y36824D01*
X193536Y36924D01*
X193142Y36992D01*
X193782Y36700D01*
X194964Y36182D01*
X195445Y35971D01*
X196016Y35723D01*
X196669Y35442D01*
X197281Y35179D01*
X197965Y34887D01*
X198717Y34570D01*
X199412Y34277D01*
X200165Y33961D01*
X200972Y33628D01*
X201986Y33208D01*
X203084Y32760D01*
X204259Y32287D01*
X205140Y31931D01*
X206064Y31563D01*
X207027Y31183D01*
X207942Y30823D01*
X208892Y30452D01*
X209874Y30074D01*
X210457Y29850D01*
X211052Y29622D01*
X211657Y29393D01*
X212348Y29131D01*
X213053Y28866D01*
X213770Y28599D01*
X214566Y28303D01*
X215378Y28003D01*
X216205Y27701D01*
X216987Y27416D01*
X217782Y27129D01*
X218590Y26841D01*
X219203Y26622D01*
X219823Y26403D01*
X220449Y26183D01*
X221115Y25949D01*
X221789Y25715D01*
X222470Y25480D01*
X223307Y25192D01*
X224154Y24905D01*
X225011Y24618D01*
X225811Y24350D01*
X226620Y24082D01*
X227436Y23815D01*
X228147Y23583D01*
X228863Y23352D01*
X229583Y23122D01*
X230522Y22823D01*
X231469Y22525D01*
X232423Y22231D01*
X233172Y22000D01*
X233926Y21771D01*
X234684Y21545D01*
X235519Y21295D01*
X236358Y21048D01*
X237201Y20805D01*
X237966Y20584D01*
X238735Y20366D01*
X239505Y20151D01*
X240207Y19955D01*
X240910Y19762D01*
X241614Y19573D01*
X242308Y19385D01*
X243004Y19201D01*
X243700Y19020D01*
X244434Y18830D01*
X245170Y18643D01*
X245905Y18460D01*
X246615Y18284D01*
X247326Y18111D01*
X248037Y17942D01*
X248699Y17784D01*
X249362Y17630D01*
X250024Y17480D01*
X250566Y17357D01*
X251108Y17236D01*
X251649Y17119D01*
X252192Y17000D01*
X252734Y16885D01*
X253275Y16772D01*
X253914Y16640D01*
X254552Y16510D01*
X255188Y16386D01*
X255841Y16258D01*
X256492Y16135D01*
X257141Y16016D01*
X257890Y15879D01*
X258636Y15748D01*
X259379Y15624D01*
X261294Y15293D01*
X264686Y142667D02*
X265185Y142761D01*
X264686Y142667D02*
X263872Y142539D01*
X262802Y142344D01*
X262318Y142256D01*
X261781Y142156D01*
X261196Y142037D01*
X260839Y141965D01*
X260466Y141888D01*
X260075Y141802D01*
X259652Y141711D01*
X259210Y141611D01*
X258750Y141502D01*
X258283Y141391D01*
X257798Y141272D01*
X257297Y141142D01*
X256665Y140979D01*
X256006Y140800D01*
X255324Y140603D01*
X254717Y140428D01*
X254093Y140239D01*
X253452Y140035D01*
X252915Y139863D01*
X252368Y139682D01*
X251810Y139488D01*
X251119Y139249D01*
X250413Y138992D01*
X249694Y138716D01*
X249252Y138547D01*
X248805Y138370D01*
X248354Y138186D01*
X247850Y137980D01*
X247340Y137765D01*
X246826Y137540D01*
X246221Y137275D01*
X245610Y136997D01*
X244994Y136704D01*
X244408Y136426D01*
X243817Y136134D01*
X243223Y135829D01*
X242814Y135619D01*
X242404Y135403D01*
X241993Y135180D01*
X241426Y134873D01*
X240856Y134553D01*
X240285Y134220D01*
X239845Y133963D01*
X239404Y133698D01*
X238962Y133425D01*
X238582Y133191D01*
X238202Y132950D01*
X237822Y132703D01*
X237370Y132409D01*
X236917Y132106D01*
X236464Y131794D01*
X236058Y131514D01*
X235653Y131227D01*
X235249Y130933D01*
X235012Y130761D01*
X234775Y130586D01*
X234539Y130408D01*
X234225Y130172D01*
X233911Y129931D01*
X233598Y129686D01*
X233293Y129447D01*
X232989Y129204D01*
X232686Y128956D01*
X232378Y128704D01*
X232071Y128448D01*
X231765Y128187D01*
X231554Y128007D01*
X231343Y127824D01*
X231133Y127640D01*
X230839Y127382D01*
X230547Y127119D01*
X230255Y126851D01*
X229820Y126452D01*
X229388Y126043D01*
X228959Y125624D01*
X228707Y125378D01*
X228456Y125128D01*
X228207Y124875D01*
X227894Y124557D01*
X227582Y124233D01*
X227272Y123903D01*
X226894Y123500D01*
X226519Y123088D01*
X226147Y122667D01*
X225741Y122209D01*
X225340Y121740D01*
X224943Y121260D01*
X224514Y120741D01*
X224090Y120209D01*
X223672Y119665D01*
X223320Y119205D01*
X222972Y118737D01*
X222628Y118260D01*
X222279Y117773D01*
X221934Y117278D01*
X221594Y116772D01*
X221281Y116306D01*
X220972Y115832D01*
X220667Y115349D01*
X220356Y114856D01*
X220050Y114354D01*
X219749Y113843D01*
X219401Y113253D01*
X219060Y112650D01*
X218726Y112036D01*
X218404Y111442D01*
X218088Y110837D01*
X217778Y110219D01*
X217466Y109594D01*
X217160Y108957D01*
X216863Y108307D01*
X216507Y107532D01*
X216162Y106739D01*
X215830Y105929D01*
X215471Y105057D01*
X215126Y104162D01*
X214795Y103247D01*
X214481Y102378D01*
X214180Y101490D01*
X213892Y100583D01*
X213685Y99928D01*
X213485Y99264D01*
X213292Y98589D01*
X213051Y97744D01*
X212822Y96884D01*
X212605Y96007D01*
X212407Y95209D01*
X212219Y94398D01*
X212042Y93572D01*
X211864Y92742D01*
X211697Y91897D01*
X211541Y91039D01*
X211368Y90092D01*
X211209Y89129D01*
X211064Y88147D01*
X210925Y87201D01*
X210798Y86237D01*
X210684Y85257D01*
X210655Y84516D01*
X210636Y83782D01*
X210626Y83057D01*
X210616Y82256D01*
X210618Y81465D01*
X210633Y80684D01*
X210651Y79666D01*
X210689Y78666D01*
X210747Y77682D01*
X210783Y77067D01*
X210827Y76459D01*
X210878Y75857D01*
X210963Y74865D01*
X211067Y73890D01*
X211190Y72932D01*
X211286Y72182D01*
X211394Y71443D01*
X211513Y70714D01*
X211624Y70036D01*
X211744Y69368D01*
X211873Y68708D01*
X212008Y68019D01*
X212154Y67340D01*
X212309Y66670D01*
X212481Y65926D01*
X212665Y65193D01*
X212861Y64473D01*
X213008Y63930D01*
X213162Y63393D01*
X213322Y62863D01*
X213497Y62279D01*
X213681Y61703D01*
X213872Y61135D01*
X214095Y60469D01*
X214328Y59814D01*
X214571Y59168D01*
X214799Y58564D01*
X215034Y57969D01*
X215277Y57382D01*
X215508Y56827D01*
X215746Y56279D01*
X215990Y55740D01*
X216257Y55151D01*
X216531Y54573D01*
X216812Y54004D01*
X217044Y53537D01*
X217280Y53076D01*
X217521Y52622D01*
X217844Y52011D01*
X218176Y51411D01*
X218516Y50822D01*
X218781Y50364D01*
X219050Y49912D01*
X219324Y49467D01*
X219639Y48956D01*
X219959Y48454D01*
X220286Y47960D01*
X220586Y47504D01*
X220891Y47056D01*
X221200Y46616D01*
X221485Y46211D01*
X221772Y45811D01*
X222064Y45418D01*
X222366Y45010D01*
X222672Y44609D01*
X222982Y44214D01*
X223271Y43843D01*
X223564Y43478D01*
X223860Y43118D01*
X224159Y42754D01*
X224462Y42395D01*
X224767Y42042D01*
X225056Y41706D01*
X225348Y41376D01*
X225641Y41051D01*
X226009Y40643D01*
X226381Y40243D01*
X226756Y39851D01*
X227086Y39505D01*
X227419Y39165D01*
X227754Y38830D01*
X228132Y38452D01*
X228512Y38082D01*
X228895Y37719D01*
X229242Y37389D01*
X229591Y37065D01*
X229941Y36747D01*
X230276Y36443D01*
X230612Y36144D01*
X230949Y35851D01*
X231366Y35489D01*
X231783Y35136D01*
X232201Y34791D01*
X232696Y34383D01*
X233191Y33985D01*
X233687Y33600D01*
X234072Y33301D01*
X234456Y33008D01*
X234840Y32723D01*
X235309Y32374D01*
X235777Y32035D01*
X236243Y31705D01*
X236645Y31422D01*
X237046Y31146D01*
X237445Y30877D01*
X237846Y30607D01*
X238244Y30343D01*
X238641Y30087D01*
X239021Y29843D01*
X239398Y29604D01*
X239773Y29372D01*
X240114Y29161D01*
X240453Y28956D01*
X240789Y28755D01*
X241209Y28505D01*
X241625Y28263D01*
X242037Y28029D01*
X242377Y27835D01*
X242715Y27647D01*
X243049Y27464D01*
X243486Y27224D01*
X243917Y26993D01*
X244342Y26772D01*
X244750Y26559D01*
X245152Y26353D01*
X245548Y26156D01*
X245937Y25962D01*
X246319Y25776D01*
X246695Y25597D01*
X247121Y25393D01*
X247539Y25199D01*
X247946Y25014D01*
X248321Y24844D01*
X248688Y24682D01*
X249044Y24527D01*
X249421Y24364D01*
X249786Y24210D01*
X250140Y24063D01*
X250426Y23945D01*
X250704Y23832D01*
X250975Y23724D01*
X251284Y23601D01*
X251582Y23485D01*
X251869Y23376D01*
X252164Y23263D01*
X252448Y23157D01*
X252719Y23058D01*
X252958Y22971D01*
X253187Y22889D01*
X253406Y22812D01*
X253767Y22685D01*
X254100Y22573D01*
X254401Y22473D01*
X254723Y22367D01*
X255010Y22276D01*
X255259Y22200D01*
X255992Y21974D01*
X256397Y21872D01*
X255990Y21817D01*
X255205Y21777D01*
X254949Y21764D01*
X254653Y21752D01*
X254317Y21745D01*
X253856Y21734D01*
X253322Y21731D01*
X252717Y21741D01*
X252227Y21750D01*
X251690Y21767D01*
X251109Y21796D01*
X250662Y21819D01*
X250189Y21849D01*
X249690Y21888D01*
X249375Y21912D01*
X249050Y21940D01*
X248714Y21972D01*
X248097Y22030D01*
X247446Y22101D01*
X246762Y22187D01*
X246187Y22260D01*
X245588Y22344D01*
X244966Y22439D01*
X244346Y22535D01*
X243703Y22643D01*
X243037Y22764D01*
X242342Y22890D01*
X241623Y23032D01*
X240879Y23189D01*
X240249Y23323D01*
X239602Y23468D01*
X238939Y23626D01*
X238352Y23766D01*
X237751Y23916D01*
X237138Y24076D01*
X236553Y24229D01*
X235956Y24392D01*
X235347Y24565D01*
X234642Y24765D01*
X233922Y24980D01*
X233187Y25209D01*
X232486Y25428D01*
X231772Y25660D01*
X231044Y25906D01*
X230451Y26106D01*
X229850Y26316D01*
X229240Y26535D01*
X228460Y26816D01*
X227666Y27113D01*
X226859Y27426D01*
X226233Y27669D01*
X225599Y27923D01*
X224958Y28187D01*
X224306Y28454D01*
X223647Y28733D01*
X222979Y29022D01*
X222443Y29255D01*
X221902Y29495D01*
X221356Y29742D01*
X220985Y29910D01*
X220611Y30082D01*
X220236Y30257D01*
X219800Y30460D01*
X219362Y30667D01*
X218920Y30880D01*
X218425Y31118D01*
X217927Y31362D01*
X217424Y31613D01*
X217045Y31801D01*
X216664Y31994D01*
X216281Y32189D01*
X216195Y32233D01*
X216108Y32277D01*
X216022Y32322D01*
X216202Y32473D01*
X216416Y32651D01*
X216654Y32856D01*
X216801Y32984D01*
X216958Y33122D01*
X217120Y33272D01*
X217306Y33442D01*
X217498Y33627D01*
X217694Y33825D01*
X217842Y33974D01*
X217991Y34132D01*
X218140Y34297D01*
X218278Y34450D01*
X218415Y34609D01*
X218551Y34775D01*
X218656Y34904D01*
X218760Y35037D01*
X218863Y35175D01*
X218965Y35311D01*
X219066Y35451D01*
X219164Y35596D01*
X219278Y35765D01*
X219389Y35939D01*
X219496Y36119D01*
X219592Y36282D01*
X219685Y36450D01*
X219774Y36621D01*
X219850Y36769D01*
X219923Y36920D01*
X219992Y37075D01*
X220068Y37244D01*
X220140Y37418D01*
X220206Y37596D01*
X220252Y37719D01*
X220295Y37843D01*
X220335Y37970D01*
X220404Y38183D01*
X220464Y38401D01*
X220516Y38624D01*
X220559Y38810D01*
X220597Y39000D01*
X220627Y39194D01*
X220660Y39403D01*
X220686Y39616D01*
X220703Y39834D01*
X220721Y40066D01*
X220729Y40303D01*
X220727Y40545D01*
X220726Y40692D01*
X220722Y40840D01*
X220713Y40990D01*
X220703Y41152D01*
X220689Y41315D01*
X220670Y41481D01*
X220650Y41657D01*
X220624Y41836D01*
X220592Y42017D01*
X220564Y42181D01*
X220530Y42347D01*
X220492Y42515D01*
X220453Y42688D01*
X220408Y42864D01*
X220357Y43042D01*
X220307Y43218D01*
X220251Y43397D01*
X220190Y43578D01*
X220125Y43769D01*
X220053Y43964D01*
X219975Y44160D01*
X219900Y44348D01*
X219820Y44539D01*
X219732Y44731D01*
X219653Y44907D01*
X219567Y45085D01*
X219477Y45264D01*
X219382Y45452D01*
X219280Y45643D01*
X219173Y45836D01*
X219047Y46062D01*
X218912Y46290D01*
X218768Y46522D01*
X218641Y46728D01*
X218507Y46935D01*
X218365Y47145D01*
X218298Y47244D01*
X218229Y47343D01*
X218159Y47443D01*
X218027Y47632D01*
X217892Y47813D01*
X217755Y47985D01*
X217617Y48157D01*
X217478Y48322D01*
X217336Y48478D01*
X217241Y48584D01*
X217145Y48686D01*
X217048Y48785D01*
X216954Y48881D01*
X216858Y48973D01*
X216762Y49063D01*
X216644Y49172D01*
X216526Y49277D01*
X216405Y49377D01*
X216200Y49548D01*
X215990Y49706D01*
X215777Y49850D01*
X215634Y49947D01*
X215490Y50037D01*
X215343Y50123D01*
X215134Y50244D01*
X214922Y50355D01*
X214707Y50454D01*
X214556Y50524D01*
X214404Y50588D01*
X214251Y50646D01*
X214119Y50697D01*
X213985Y50744D01*
X213851Y50787D01*
X213660Y50849D01*
X213466Y50903D01*
X213271Y50950D01*
X213090Y50994D01*
X212907Y51031D01*
X212723Y51062D01*
X212429Y51113D01*
X212132Y51148D01*
X211830Y51171D01*
X211485Y51197D01*
X211134Y51206D01*
X210778Y51199D01*
X210540Y51194D01*
X210299Y51182D01*
X210056Y51164D01*
X209763Y51143D01*
X209467Y51112D01*
X209167Y51073D01*
X208795Y51025D01*
X208417Y50963D01*
X208035Y50891D01*
X207643Y50817D01*
X207247Y50732D01*
X206846Y50638D01*
X206450Y50545D01*
X206049Y50443D01*
X205644Y50333D01*
X205098Y50186D01*
X204543Y50025D01*
X203982Y49856D01*
X203390Y49678D01*
X202790Y49491D01*
X202182Y49301D01*
X201544Y49101D01*
X200898Y48897D01*
X200246Y48696D01*
X199829Y48567D01*
X199409Y48440D01*
X198986Y48316D01*
X198662Y48221D01*
X198337Y48128D01*
X198011Y48037D01*
X197670Y47942D01*
X197328Y47849D01*
X196985Y47761D01*
X196639Y47671D01*
X196292Y47585D01*
X195943Y47505D01*
X195620Y47429D01*
X195296Y47358D01*
X194970Y47291D01*
X194642Y47223D01*
X194314Y47161D01*
X193984Y47104D01*
X193605Y47038D01*
X193226Y46979D01*
X192845Y46929D01*
X192516Y46886D01*
X192187Y46848D01*
X191856Y46818D01*
X191552Y46789D01*
X191247Y46767D01*
X190941Y46751D01*
X190690Y46738D01*
X190439Y46729D01*
X190188Y46725D01*
X189868Y46719D01*
X189547Y46722D01*
X189226Y46732D01*
X188948Y46741D01*
X188668Y46756D01*
X188389Y46777D01*
X188153Y46795D01*
X187917Y46819D01*
X187681Y46846D01*
X187422Y46876D01*
X187162Y46913D01*
X186903Y46956D01*
X186680Y46992D01*
X186457Y47033D01*
X186234Y47079D01*
X185990Y47130D01*
X185746Y47186D01*
X185501Y47249D01*
X185229Y47318D01*
X184957Y47395D01*
X184684Y47480D01*
X184350Y47585D01*
X184015Y47701D01*
X183680Y47829D01*
X183452Y47918D01*
X183223Y48012D01*
X182995Y48112D01*
X182778Y48207D01*
X182562Y48307D01*
X182345Y48413D01*
X182140Y48514D01*
X181935Y48620D01*
X181730Y48731D01*
X181507Y48852D01*
X181285Y48979D01*
X181062Y49112D01*
X181530Y49019D01*
X182024Y48944D01*
X182539Y48888D01*
X182935Y48845D01*
X183343Y48814D01*
X183759Y48796D01*
X184052Y48783D01*
X184350Y48776D01*
X184651Y48775D01*
X184963Y48774D01*
X185279Y48780D01*
X185597Y48793D01*
X185951Y48807D01*
X186309Y48830D01*
X186668Y48862D01*
X187031Y48894D01*
X187396Y48935D01*
X187762Y48986D01*
X188036Y49024D01*
X188311Y49068D01*
X188584Y49117D01*
X188995Y49190D01*
X189403Y49276D01*
X189807Y49374D01*
X190097Y49445D01*
X190384Y49522D01*
X190669Y49606D01*
X190994Y49702D01*
X191316Y49806D01*
X191631Y49920D01*
X191891Y50014D01*
X192147Y50114D01*
X192399Y50220D01*
X192538Y50279D01*
X192675Y50339D01*
X192811Y50401D01*
X193047Y50509D01*
X193278Y50623D01*
X193505Y50743D01*
X193717Y50855D01*
X193925Y50973D01*
X194128Y51096D01*
X194302Y51201D01*
X194472Y51310D01*
X194638Y51423D01*
X194831Y51554D01*
X195018Y51691D01*
X195199Y51832D01*
X195392Y51983D01*
X195578Y52140D01*
X195757Y52304D01*
X196006Y52532D01*
X196241Y52772D01*
X196460Y53024D01*
X196646Y53239D01*
X196821Y53463D01*
X196982Y53695D01*
X197149Y53936D01*
X197302Y54186D01*
X197441Y54445D01*
X197547Y54644D01*
X197644Y54849D01*
X197733Y55059D01*
X197838Y55309D01*
X197929Y55567D01*
X198008Y55833D01*
X198074Y56058D01*
X198131Y56290D01*
X198177Y56529D01*
X198224Y56769D01*
X198260Y57015D01*
X198285Y57268D01*
X198310Y57510D01*
X198323Y57758D01*
X198327Y58012D01*
X198330Y58290D01*
X198321Y58576D01*
X198299Y58868D01*
X198280Y59124D01*
X198250Y59386D01*
X198209Y59653D01*
X198163Y59959D01*
X198102Y60273D01*
X198027Y60594D01*
X197962Y60870D01*
X197887Y61152D01*
X197800Y61440D01*
X197694Y61794D01*
X197570Y62157D01*
X197429Y62529D01*
X197375Y62671D01*
X197318Y62815D01*
X197259Y62960D01*
X197182Y63148D01*
X197098Y63331D01*
X197009Y63508D01*
X196919Y63685D01*
X196824Y63857D01*
X196722Y64022D01*
X196665Y64116D01*
X196606Y64208D01*
X196545Y64298D01*
X196459Y64427D01*
X196368Y64552D01*
X196275Y64673D01*
X196144Y64843D01*
X196006Y65007D01*
X195862Y65164D01*
X195735Y65302D01*
X195604Y65435D01*
X195468Y65563D01*
X195360Y65665D01*
X195248Y65764D01*
X195134Y65860D01*
X194942Y66022D01*
X194742Y66176D01*
X194533Y66322D01*
X194334Y66463D01*
X194128Y66596D01*
X193914Y66722D01*
X193700Y66848D01*
X193480Y66968D01*
X193254Y67082D01*
X193042Y67188D01*
X192825Y67288D01*
X192603Y67383D01*
X192328Y67501D01*
X192046Y67610D01*
X191756Y67712D01*
X191558Y67783D01*
X191356Y67850D01*
X191151Y67913D01*
X190931Y67980D01*
X190708Y68045D01*
X190482Y68105D01*
X190154Y68192D01*
X189819Y68272D01*
X189478Y68345D01*
X189210Y68403D01*
X188938Y68456D01*
X188662Y68505D01*
X188364Y68558D01*
X188062Y68607D01*
X187757Y68651D01*
X187520Y68686D01*
X187281Y68718D01*
X187040Y68748D01*
X186743Y68784D01*
X186443Y68817D01*
X186141Y68847D01*
X185847Y68875D01*
X185551Y68901D01*
X185253Y68924D01*
X184854Y68955D01*
X184452Y68982D01*
X184048Y69003D01*
X183693Y69023D01*
X183337Y69039D01*
X182979Y69052D01*
X182471Y69071D01*
X181961Y69085D01*
X181451Y69095D01*
X181049Y69103D01*
X180649Y69109D01*
X180248Y69112D01*
X179731Y69118D01*
X179215Y69120D01*
X178703Y69121D01*
X178073Y69122D01*
X177449Y69122D01*
X176834Y69123D01*
X176337Y69124D01*
X175846Y69125D01*
X175363Y69130D01*
X175033Y69132D01*
X174707Y69136D01*
X174385Y69142D01*
X173946Y69149D01*
X173515Y69160D01*
X173094Y69175D01*
X172729Y69187D01*
X172370Y69203D01*
X172021Y69223D01*
X171720Y69240D01*
X171424Y69259D01*
X171136Y69283D01*
X170875Y69304D01*
X170619Y69327D01*
X170370Y69354D01*
X170097Y69384D01*
X169832Y69418D01*
X169574Y69455D01*
X169311Y69495D01*
X169055Y69538D01*
X168808Y69587D01*
X168605Y69627D01*
X168407Y69670D01*
X168216Y69718D01*
X167963Y69780D01*
X167722Y69850D01*
X167492Y69926D01*
X166880Y70130D01*
X166291Y70316D01*
X165714Y70494D01*
X165328Y70614D01*
X164946Y70729D01*
X164569Y70845D01*
X164098Y70988D01*
X163633Y71132D01*
X163167Y71280D01*
X162859Y71379D01*
X162551Y71480D01*
X162241Y71585D01*
X161829Y71724D01*
X161414Y71872D01*
X160992Y72030D01*
X160654Y72158D01*
X160311Y72293D01*
X159963Y72437D01*
X159593Y72591D01*
X159218Y72755D01*
X158833Y72932D01*
X158474Y73097D01*
X158107Y73274D01*
X157732Y73465D01*
X157412Y73628D01*
X157084Y73800D01*
X156749Y73984D01*
X156376Y74188D01*
X155993Y74406D01*
X155600Y74641D01*
X155293Y74823D01*
X154979Y75015D01*
X154658Y75217D01*
X154331Y75422D01*
X153996Y75639D01*
X153652Y75867D01*
X153328Y76083D01*
X152996Y76309D01*
X152655Y76547D01*
X152380Y76739D01*
X152099Y76938D01*
X151811Y77146D01*
X151488Y77379D01*
X151158Y77622D01*
X150820Y77876D01*
X150439Y78161D01*
X150049Y78459D01*
X149648Y78771D01*
X149206Y79114D01*
X148752Y79475D01*
X148283Y79854D01*
X147851Y80203D01*
X147408Y80568D01*
X146952Y80948D01*
X146422Y81391D01*
X145875Y81855D01*
X145311Y82343D01*
X144891Y82705D01*
X144462Y83079D01*
X144023Y83467D01*
X143633Y83812D01*
X143234Y84167D01*
X142828Y84533D01*
X142508Y84821D01*
X142182Y85115D01*
X141852Y85417D01*
X141601Y85646D01*
X141347Y85879D01*
X141089Y86116D01*
X141562Y85876D01*
X142054Y85630D01*
X142566Y85382D01*
X142829Y85254D01*
X143098Y85126D01*
X143370Y84997D01*
X143783Y84802D01*
X144207Y84606D01*
X144639Y84410D01*
X145101Y84201D01*
X145572Y83992D01*
X146052Y83785D01*
X146519Y83583D01*
X146994Y83383D01*
X147476Y83184D01*
X147883Y83017D01*
X148295Y82850D01*
X148712Y82687D01*
X149004Y82572D01*
X149298Y82458D01*
X149593Y82347D01*
X150022Y82184D01*
X150454Y82024D01*
X150889Y81868D01*
X151265Y81732D01*
X151643Y81599D01*
X152023Y81470D01*
X152497Y81308D01*
X152972Y81151D01*
X153449Y81000D01*
X153881Y80863D01*
X154314Y80730D01*
X154747Y80603D01*
X155230Y80461D01*
X155713Y80325D01*
X156196Y80196D01*
X156556Y80100D01*
X156916Y80009D01*
X157274Y79921D01*
X157702Y79817D01*
X158129Y79719D01*
X158553Y79627D01*
X158870Y79560D01*
X159185Y79496D01*
X159498Y79436D01*
X159734Y79390D01*
X159969Y79348D01*
X160203Y79307D01*
X160399Y79273D01*
X160593Y79241D01*
X160788Y79210D01*
X161018Y79174D01*
X161247Y79141D01*
X161475Y79110D01*
X161997Y79039D01*
X162561Y78960D01*
X163162Y78882D01*
X163477Y78841D01*
X163803Y78801D01*
X164138Y78761D01*
X164654Y78700D01*
X165193Y78641D01*
X165752Y78589D01*
X166237Y78543D01*
X166738Y78503D01*
X167252Y78470D01*
X167793Y78435D01*
X168350Y78408D01*
X168920Y78392D01*
X169475Y78376D01*
X170043Y78371D01*
X170622Y78378D01*
X171077Y78383D01*
X171538Y78397D01*
X172006Y78420D01*
X172431Y78441D01*
X172860Y78470D01*
X173294Y78507D01*
X173921Y78560D01*
X174556Y78632D01*
X175199Y78724D01*
X175745Y78801D01*
X176296Y78894D01*
X176852Y79004D01*
X177327Y79098D01*
X177806Y79204D01*
X178287Y79322D01*
X178764Y79441D01*
X179243Y79572D01*
X179724Y79717D01*
X180207Y79863D01*
X180691Y80024D01*
X181177Y80199D01*
X181614Y80358D01*
X182053Y80528D01*
X182492Y80712D01*
X182833Y80855D01*
X183174Y81006D01*
X183515Y81165D01*
X183917Y81353D01*
X184318Y81552D01*
X184719Y81763D01*
X185145Y81988D01*
X185571Y82226D01*
X185996Y82479D01*
X186374Y82705D01*
X186751Y82941D01*
X187127Y83190D01*
X187513Y83445D01*
X187898Y83713D01*
X188282Y83994D01*
X188650Y84264D01*
X189016Y84545D01*
X189381Y84839D01*
X189706Y85102D01*
X190030Y85374D01*
X190353Y85658D01*
X190665Y85931D01*
X190975Y86215D01*
X191283Y86508D01*
X191554Y86765D01*
X191824Y87030D01*
X192092Y87303D01*
X192353Y87570D01*
X192613Y87844D01*
X192873Y88126D01*
X193145Y88422D01*
X193415Y88727D01*
X193684Y89041D01*
X193874Y89262D01*
X194062Y89488D01*
X194250Y89718D01*
X194606Y90154D01*
X194940Y90587D01*
X195253Y91018D01*
X195580Y91468D01*
X195883Y91915D01*
X196166Y92361D01*
X196374Y92690D01*
X196570Y93017D01*
X196755Y93342D01*
X196954Y93693D01*
X197139Y94042D01*
X197310Y94389D01*
X197468Y94708D01*
X197615Y95027D01*
X197750Y95343D01*
X197876Y95636D01*
X197992Y95927D01*
X198099Y96217D01*
X198217Y96541D01*
X198325Y96863D01*
X198421Y97183D01*
X198505Y97464D01*
X198581Y97743D01*
X198648Y98020D01*
X198707Y98265D01*
X198759Y98508D01*
X198805Y98749D01*
X198860Y99044D01*
X198906Y99337D01*
X198943Y99628D01*
X198988Y99988D01*
X199019Y100346D01*
X199036Y100701D01*
X199046Y100920D01*
X199051Y101139D01*
X199051Y101356D01*
X199050Y101642D01*
X199041Y101926D01*
X199023Y102208D01*
X199012Y102377D01*
X198997Y102547D01*
X198979Y102715D01*
X198942Y103076D01*
X198889Y103435D01*
X198823Y103789D01*
X198766Y104088D01*
X198700Y104385D01*
X198624Y104679D01*
X198567Y104897D01*
X198505Y105114D01*
X198438Y105329D01*
X198342Y105632D01*
X198237Y105933D01*
X198121Y106231D01*
X197994Y106555D01*
X197856Y106875D01*
X197705Y107192D01*
X197544Y107531D01*
X197370Y107865D01*
X197183Y108195D01*
X197067Y108400D01*
X196946Y108604D01*
X196819Y108805D01*
X196651Y109075D01*
X196473Y109341D01*
X196287Y109605D01*
X196119Y109842D01*
X195945Y110076D01*
X195764Y110308D01*
X195573Y110553D01*
X195374Y110796D01*
X195168Y111035D01*
X194950Y111289D01*
X194723Y111539D01*
X194488Y111785D01*
X194259Y112027D01*
X194021Y112266D01*
X193777Y112501D01*
X193485Y112781D01*
X193183Y113056D01*
X192871Y113327D01*
X192593Y113569D01*
X192306Y113806D01*
X192012Y114040D01*
X191741Y114256D01*
X191463Y114468D01*
X191179Y114677D01*
X190825Y114936D01*
X190462Y115190D01*
X190089Y115439D01*
X189810Y115626D01*
X189525Y115810D01*
X189235Y115990D01*
X188953Y116166D01*
X188666Y116339D01*
X188374Y116509D01*
X188058Y116692D01*
X187737Y116873D01*
X187409Y117049D01*
X187047Y117245D01*
X186678Y117436D01*
X186304Y117623D01*
X185938Y117805D01*
X185566Y117983D01*
X185189Y118156D01*
X184949Y118267D01*
X184707Y118375D01*
X184463Y118481D01*
X184229Y118583D01*
X183994Y118683D01*
X183758Y118782D01*
X183478Y118898D01*
X183195Y119012D01*
X182910Y119123D01*
X182700Y119206D01*
X182489Y119286D01*
X182276Y119366D01*
X181891Y119509D01*
X181503Y119648D01*
X181110Y119783D01*
X180845Y119874D01*
X180578Y119963D01*
X180310Y120049D01*
X180079Y120124D01*
X179848Y120197D01*
X179615Y120268D01*
X180308Y120300D01*
X180983Y120308D01*
X181644Y120295D01*
X182064Y120287D01*
X182477Y120271D01*
X182886Y120247D01*
X183228Y120227D01*
X183565Y120201D01*
X183900Y120170D01*
X184382Y120126D01*
X184857Y120072D01*
X185324Y120008D01*
X185804Y119943D01*
X186277Y119867D01*
X186743Y119783D01*
X187135Y119712D01*
X187523Y119635D01*
X187906Y119553D01*
X188338Y119460D01*
X188764Y119361D01*
X189185Y119256D01*
X189608Y119151D01*
X190026Y119040D01*
X190440Y118924D01*
X190995Y118770D01*
X191543Y118606D01*
X192084Y118437D01*
X192491Y118311D01*
X192895Y118181D01*
X193296Y118048D01*
X193691Y117918D01*
X194083Y117787D01*
X194474Y117653D01*
X194924Y117500D01*
X195371Y117346D01*
X195818Y117191D01*
X196185Y117064D01*
X196551Y116937D01*
X196918Y116811D01*
X197400Y116645D01*
X197882Y116481D01*
X198365Y116321D01*
X198684Y116215D01*
X199005Y116111D01*
X199325Y116009D01*
X199593Y115924D01*
X199861Y115841D01*
X200130Y115759D01*
X200381Y115683D01*
X200632Y115608D01*
X200884Y115536D01*
X201118Y115468D01*
X201353Y115402D01*
X201589Y115338D01*
X202006Y115226D01*
X202425Y115118D01*
X202848Y115018D01*
X203142Y114948D01*
X203438Y114882D01*
X203736Y114819D01*
X204002Y114763D01*
X204271Y114710D01*
X204541Y114660D01*
X205087Y114560D01*
X205640Y114473D01*
X206203Y114402D01*
X206701Y114339D01*
X207207Y114289D01*
X207720Y114254D01*
X208041Y114231D01*
X208365Y114215D01*
X208692Y114204D01*
X209112Y114190D01*
X209537Y114186D01*
X209967Y114192D01*
X210261Y114196D01*
X210558Y114206D01*
X210858Y114221D01*
X211073Y114231D01*
X211290Y114244D01*
X211509Y114260D01*
X211985Y114295D01*
X212472Y114355D01*
X212966Y114440D01*
X213344Y114505D01*
X213725Y114584D01*
X214108Y114677D01*
X214557Y114786D01*
X215007Y114915D01*
X215457Y115062D01*
X215794Y115173D01*
X216129Y115293D01*
X216464Y115425D01*
X216846Y115575D01*
X217226Y115739D01*
X217602Y115915D01*
X217957Y116082D01*
X218308Y116262D01*
X218653Y116453D01*
X218947Y116615D01*
X219236Y116786D01*
X219520Y116964D01*
X219809Y117146D01*
X220091Y117335D01*
X220367Y117533D01*
X220607Y117705D01*
X220841Y117883D01*
X221069Y118066D01*
X221291Y118244D01*
X221508Y118428D01*
X221718Y118618D01*
X221878Y118762D01*
X222035Y118909D01*
X222188Y119060D01*
X222389Y119257D01*
X222582Y119460D01*
X222769Y119667D01*
X222898Y119811D01*
X223023Y119958D01*
X223146Y120106D01*
X223295Y120288D01*
X223439Y120474D01*
X223577Y120664D01*
X223697Y120828D01*
X223812Y120995D01*
X223923Y121165D01*
X224013Y121302D01*
X224100Y121442D01*
X224183Y121583D01*
X224271Y121731D01*
X224356Y121881D01*
X224437Y122034D01*
X224548Y122244D01*
X224653Y122457D01*
X224750Y122675D01*
X224842Y122880D01*
X224928Y123088D01*
X225006Y123300D01*
X225100Y123551D01*
X225183Y123806D01*
X225257Y124065D01*
X225310Y124255D01*
X225359Y124446D01*
X225401Y124641D01*
X225450Y124864D01*
X225492Y125091D01*
X225526Y125321D01*
X225561Y125561D01*
X225588Y125804D01*
X225606Y126051D01*
X225624Y126294D01*
X225633Y126540D01*
X225634Y126789D01*
X225634Y126905D01*
X225632Y127023D01*
X225629Y127141D01*
X225625Y127245D01*
X225620Y127351D01*
X225614Y127456D01*
X225590Y127842D01*
X225540Y128213D01*
X225467Y128569D01*
X225432Y128744D01*
X225391Y128916D01*
X225345Y129084D01*
X225251Y129433D01*
X225134Y129766D01*
X225000Y130085D01*
X224918Y130281D01*
X224829Y130470D01*
X224734Y130655D01*
X224622Y130874D01*
X224501Y131086D01*
X224373Y131291D01*
X224253Y131483D01*
X224126Y131668D01*
X223994Y131847D01*
X223842Y132054D01*
X223683Y132253D01*
X223519Y132443D01*
X223380Y132604D01*
X223238Y132759D01*
X223093Y132908D01*
X222973Y133032D01*
X222851Y133151D01*
X222727Y133267D01*
X222553Y133430D01*
X222376Y133586D01*
X222196Y133735D01*
X222052Y133856D01*
X221906Y133972D01*
X221760Y134083D01*
X221586Y134216D01*
X221412Y134342D01*
X221238Y134462D01*
X221092Y134563D01*
X220947Y134659D01*
X220803Y134751D01*
X220616Y134870D01*
X220433Y134981D01*
X220253Y135085D01*
X220072Y135191D01*
X219894Y135288D01*
X219723Y135379D01*
X219471Y135512D01*
X219232Y135630D01*
X219013Y135732D01*
X218853Y135806D01*
X218703Y135873D01*
X218566Y135931D01*
X218318Y136037D01*
X218112Y136117D01*
X217962Y136172D01*
X217784Y136238D01*
X217684Y136269D01*
X218266Y136414D01*
X219305Y136663D01*
X219581Y136729D01*
X219888Y136802D01*
X220225Y136881D01*
X220792Y137015D01*
X221442Y137167D01*
X222166Y137334D01*
X222795Y137479D01*
X223479Y137635D01*
X224211Y137800D01*
X224970Y137970D01*
X225780Y138150D01*
X226634Y138336D01*
X227351Y138493D01*
X228099Y138655D01*
X228872Y138819D01*
X229639Y138982D01*
X230431Y139148D01*
X231244Y139316D01*
X232004Y139472D01*
X232781Y139629D01*
X233573Y139787D01*
X234273Y139927D01*
X234984Y140066D01*
X235704Y140204D01*
X236428Y140344D01*
X237161Y140482D01*
X237899Y140619D01*
X238429Y140717D01*
X238963Y140814D01*
X239498Y140910D01*
X239995Y140999D01*
X240493Y141086D01*
X240992Y141172D01*
X241582Y141275D01*
X242172Y141375D01*
X242763Y141473D01*
X243217Y141548D01*
X243671Y141622D01*
X244124Y141694D01*
X244610Y141772D01*
X245096Y141847D01*
X245580Y141921D01*
X246064Y141995D01*
X246545Y142066D01*
X247025Y142135D01*
X247520Y142206D01*
X248013Y142276D01*
X248502Y142342D01*
X249025Y142412D01*
X249543Y142480D01*
X250058Y142544D01*
X250592Y142611D01*
X251120Y142674D01*
X251642Y142733D01*
X252196Y142795D01*
X252742Y142853D01*
X253281Y142906D01*
X253662Y142943D01*
X254038Y142978D01*
X254409Y143010D01*
X254746Y143039D01*
X255079Y143066D01*
X255408Y143090D01*
X255700Y143112D01*
X255989Y143132D01*
X256275Y143151D01*
X256536Y143168D01*
X256795Y143183D01*
X257051Y143197D01*
X257419Y143217D01*
X257781Y143233D01*
X258136Y143246D01*
X258430Y143256D01*
X258719Y143264D01*
X259004Y143270D01*
X259247Y143274D01*
X259487Y143277D01*
X259723Y143278D01*
X260111Y143280D01*
X260489Y143277D01*
X260856Y143268D01*
X261222Y143259D01*
X261577Y143245D01*
X261921Y143225D01*
X262273Y143204D01*
X262613Y143178D01*
X262940Y143145D01*
X263284Y143111D01*
X263612Y143069D01*
X263926Y143021D01*
X264380Y142950D01*
X264801Y142864D01*
X265185Y142761D01*
M02*
