G04 EAGLE Gerber RS-274X export*
G75*
%MOMM*%
%FSLAX34Y34*%
%LPD*%
%INSilkscreen Top*%
%IPPOS*%
%AMOC8*
5,1,8,0,0,1.08239X$1,22.5*%
G01*
%ADD10C,0.152400*%
%ADD11C,0.076200*%
%ADD12C,0.120000*%
%ADD13C,0.101600*%
%ADD14C,0.203200*%
%ADD15C,0.254000*%
%ADD16C,0.500000*%
%ADD17C,0.050800*%
%ADD18R,0.150000X0.300000*%
%ADD19R,0.300000X0.300000*%

G36*
X554092Y161684D02*
X554092Y161684D01*
X554117Y161685D01*
X554156Y161711D01*
X554198Y161729D01*
X554213Y161750D01*
X554234Y161764D01*
X554252Y161807D01*
X554278Y161845D01*
X554284Y161882D01*
X554289Y161894D01*
X554288Y161903D01*
X554291Y161925D01*
X554291Y171450D01*
X554278Y171494D01*
X554275Y171541D01*
X554259Y171561D01*
X554252Y171585D01*
X554217Y171616D01*
X554189Y171653D01*
X554166Y171662D01*
X554147Y171679D01*
X554101Y171686D01*
X554058Y171703D01*
X554020Y171699D01*
X554007Y171701D01*
X553998Y171698D01*
X553977Y171696D01*
X534928Y166934D01*
X534919Y166929D01*
X534910Y166928D01*
X534859Y166894D01*
X534806Y166863D01*
X534801Y166854D01*
X534793Y166849D01*
X534769Y166792D01*
X534741Y166738D01*
X534742Y166728D01*
X534738Y166719D01*
X534747Y166659D01*
X534753Y166597D01*
X534758Y166590D01*
X534760Y166580D01*
X534801Y166534D01*
X534838Y166485D01*
X534847Y166482D01*
X534853Y166474D01*
X534928Y166442D01*
X553977Y161679D01*
X554023Y161681D01*
X554069Y161674D01*
X554092Y161684D01*
G37*
G36*
X554092Y72784D02*
X554092Y72784D01*
X554117Y72785D01*
X554156Y72811D01*
X554198Y72829D01*
X554213Y72850D01*
X554234Y72864D01*
X554252Y72907D01*
X554278Y72945D01*
X554284Y72982D01*
X554289Y72994D01*
X554288Y73003D01*
X554291Y73025D01*
X554291Y82550D01*
X554278Y82594D01*
X554275Y82641D01*
X554259Y82661D01*
X554252Y82685D01*
X554217Y82716D01*
X554189Y82753D01*
X554166Y82762D01*
X554147Y82779D01*
X554101Y82786D01*
X554058Y82803D01*
X554020Y82799D01*
X554007Y82801D01*
X553998Y82798D01*
X553977Y82796D01*
X534928Y78034D01*
X534919Y78029D01*
X534910Y78028D01*
X534859Y77994D01*
X534806Y77963D01*
X534801Y77954D01*
X534793Y77949D01*
X534769Y77892D01*
X534741Y77838D01*
X534742Y77828D01*
X534738Y77819D01*
X534747Y77759D01*
X534753Y77697D01*
X534758Y77690D01*
X534760Y77680D01*
X534801Y77634D01*
X534838Y77585D01*
X534847Y77582D01*
X534853Y77574D01*
X534928Y77542D01*
X553977Y72779D01*
X554023Y72781D01*
X554069Y72774D01*
X554092Y72784D01*
G37*
D10*
X363474Y151384D02*
X363474Y143256D01*
X357886Y143256D01*
X335026Y143256D02*
X335026Y151384D01*
X335026Y143256D02*
X340614Y143256D01*
D11*
X332916Y144852D02*
X325550Y144852D01*
X325550Y146898D01*
X325551Y146898D02*
X325553Y146987D01*
X325559Y147076D01*
X325569Y147165D01*
X325582Y147253D01*
X325599Y147341D01*
X325621Y147428D01*
X325646Y147513D01*
X325674Y147598D01*
X325707Y147681D01*
X325743Y147763D01*
X325782Y147843D01*
X325825Y147921D01*
X325871Y147997D01*
X325921Y148072D01*
X325974Y148144D01*
X326030Y148213D01*
X326089Y148280D01*
X326150Y148345D01*
X326215Y148406D01*
X326282Y148465D01*
X326351Y148521D01*
X326423Y148574D01*
X326498Y148624D01*
X326574Y148670D01*
X326652Y148713D01*
X326732Y148752D01*
X326814Y148788D01*
X326897Y148821D01*
X326982Y148849D01*
X327067Y148874D01*
X327154Y148896D01*
X327242Y148913D01*
X327330Y148926D01*
X327419Y148936D01*
X327508Y148942D01*
X327597Y148944D01*
X330870Y148944D01*
X330959Y148942D01*
X331048Y148936D01*
X331137Y148926D01*
X331225Y148913D01*
X331313Y148896D01*
X331400Y148874D01*
X331485Y148849D01*
X331570Y148821D01*
X331653Y148788D01*
X331735Y148752D01*
X331815Y148713D01*
X331893Y148670D01*
X331969Y148624D01*
X332044Y148574D01*
X332116Y148521D01*
X332185Y148465D01*
X332252Y148406D01*
X332317Y148345D01*
X332378Y148280D01*
X332437Y148213D01*
X332493Y148144D01*
X332546Y148072D01*
X332596Y147997D01*
X332642Y147921D01*
X332685Y147843D01*
X332724Y147763D01*
X332760Y147681D01*
X332793Y147598D01*
X332821Y147513D01*
X332846Y147428D01*
X332868Y147341D01*
X332885Y147253D01*
X332898Y147165D01*
X332908Y147076D01*
X332914Y146987D01*
X332916Y146898D01*
X332916Y144852D01*
X327187Y152411D02*
X325550Y154457D01*
X332916Y154457D01*
X332916Y152411D02*
X332916Y156503D01*
D12*
X165000Y111600D02*
X165000Y91600D01*
X152500Y91600D02*
X152500Y111600D01*
D13*
X154976Y78456D02*
X156556Y78456D01*
X154976Y78456D02*
X154898Y78458D01*
X154821Y78464D01*
X154744Y78473D01*
X154668Y78486D01*
X154592Y78503D01*
X154517Y78524D01*
X154444Y78548D01*
X154371Y78576D01*
X154300Y78608D01*
X154231Y78643D01*
X154164Y78681D01*
X154098Y78722D01*
X154035Y78767D01*
X153974Y78815D01*
X153915Y78865D01*
X153859Y78919D01*
X153805Y78975D01*
X153755Y79034D01*
X153707Y79095D01*
X153662Y79158D01*
X153621Y79224D01*
X153583Y79291D01*
X153548Y79360D01*
X153516Y79431D01*
X153488Y79504D01*
X153464Y79577D01*
X153443Y79652D01*
X153426Y79728D01*
X153413Y79804D01*
X153404Y79881D01*
X153398Y79958D01*
X153396Y80036D01*
X153395Y80036D02*
X153395Y83987D01*
X153396Y83987D02*
X153398Y84065D01*
X153404Y84142D01*
X153413Y84219D01*
X153426Y84295D01*
X153443Y84371D01*
X153464Y84446D01*
X153488Y84519D01*
X153516Y84592D01*
X153548Y84663D01*
X153583Y84732D01*
X153621Y84799D01*
X153662Y84865D01*
X153707Y84928D01*
X153755Y84989D01*
X153805Y85048D01*
X153859Y85104D01*
X153915Y85158D01*
X153974Y85208D01*
X154035Y85256D01*
X154098Y85301D01*
X154164Y85342D01*
X154231Y85380D01*
X154300Y85415D01*
X154371Y85447D01*
X154444Y85475D01*
X154517Y85499D01*
X154592Y85520D01*
X154668Y85537D01*
X154744Y85550D01*
X154821Y85559D01*
X154898Y85565D01*
X154976Y85567D01*
X154976Y85568D02*
X156556Y85568D01*
X159519Y83987D02*
X161494Y85568D01*
X161494Y78456D01*
X159519Y78456D02*
X163470Y78456D01*
D14*
X215950Y52200D02*
X215950Y138300D01*
X220950Y138300D01*
X253950Y138300D01*
X220950Y138300D02*
X220950Y52200D01*
X253950Y52200D01*
X220950Y52200D02*
X215950Y52200D01*
X253950Y52200D02*
X253950Y138300D01*
X242570Y138430D02*
X242568Y138272D01*
X242562Y138113D01*
X242552Y137955D01*
X242538Y137798D01*
X242521Y137640D01*
X242499Y137484D01*
X242474Y137327D01*
X242444Y137172D01*
X242411Y137017D01*
X242374Y136863D01*
X242333Y136710D01*
X242288Y136558D01*
X242239Y136408D01*
X242187Y136258D01*
X242131Y136110D01*
X242071Y135963D01*
X242008Y135818D01*
X241941Y135675D01*
X241871Y135533D01*
X241797Y135393D01*
X241719Y135255D01*
X241638Y135119D01*
X241554Y134985D01*
X241467Y134853D01*
X241376Y134723D01*
X241282Y134596D01*
X241185Y134471D01*
X241084Y134348D01*
X240981Y134228D01*
X240875Y134111D01*
X240766Y133996D01*
X240654Y133884D01*
X240539Y133775D01*
X240422Y133669D01*
X240302Y133566D01*
X240179Y133465D01*
X240054Y133368D01*
X239927Y133274D01*
X239797Y133183D01*
X239665Y133096D01*
X239531Y133012D01*
X239395Y132931D01*
X239257Y132853D01*
X239117Y132779D01*
X238975Y132709D01*
X238832Y132642D01*
X238687Y132579D01*
X238540Y132519D01*
X238392Y132463D01*
X238242Y132411D01*
X238092Y132362D01*
X237940Y132317D01*
X237787Y132276D01*
X237633Y132239D01*
X237478Y132206D01*
X237323Y132176D01*
X237166Y132151D01*
X237010Y132129D01*
X236852Y132112D01*
X236695Y132098D01*
X236537Y132088D01*
X236378Y132082D01*
X236220Y132080D01*
X236062Y132082D01*
X235903Y132088D01*
X235745Y132098D01*
X235588Y132112D01*
X235430Y132129D01*
X235274Y132151D01*
X235117Y132176D01*
X234962Y132206D01*
X234807Y132239D01*
X234653Y132276D01*
X234500Y132317D01*
X234348Y132362D01*
X234198Y132411D01*
X234048Y132463D01*
X233900Y132519D01*
X233753Y132579D01*
X233608Y132642D01*
X233465Y132709D01*
X233323Y132779D01*
X233183Y132853D01*
X233045Y132931D01*
X232909Y133012D01*
X232775Y133096D01*
X232643Y133183D01*
X232513Y133274D01*
X232386Y133368D01*
X232261Y133465D01*
X232138Y133566D01*
X232018Y133669D01*
X231901Y133775D01*
X231786Y133884D01*
X231674Y133996D01*
X231565Y134111D01*
X231459Y134228D01*
X231356Y134348D01*
X231255Y134471D01*
X231158Y134596D01*
X231064Y134723D01*
X230973Y134853D01*
X230886Y134985D01*
X230802Y135119D01*
X230721Y135255D01*
X230643Y135393D01*
X230569Y135533D01*
X230499Y135675D01*
X230432Y135818D01*
X230369Y135963D01*
X230309Y136110D01*
X230253Y136258D01*
X230201Y136408D01*
X230152Y136558D01*
X230107Y136710D01*
X230066Y136863D01*
X230029Y137017D01*
X229996Y137172D01*
X229966Y137327D01*
X229941Y137484D01*
X229919Y137640D01*
X229902Y137798D01*
X229888Y137955D01*
X229878Y138113D01*
X229872Y138272D01*
X229870Y138430D01*
D11*
X217871Y143395D02*
X217871Y148715D01*
X217871Y143395D02*
X217873Y143306D01*
X217879Y143217D01*
X217889Y143128D01*
X217902Y143040D01*
X217919Y142952D01*
X217941Y142865D01*
X217966Y142780D01*
X217994Y142695D01*
X218027Y142612D01*
X218063Y142530D01*
X218102Y142450D01*
X218145Y142372D01*
X218191Y142296D01*
X218241Y142221D01*
X218294Y142149D01*
X218350Y142080D01*
X218409Y142013D01*
X218470Y141948D01*
X218535Y141887D01*
X218602Y141828D01*
X218671Y141772D01*
X218743Y141719D01*
X218818Y141669D01*
X218894Y141623D01*
X218972Y141580D01*
X219052Y141541D01*
X219134Y141505D01*
X219217Y141472D01*
X219302Y141444D01*
X219387Y141419D01*
X219474Y141397D01*
X219562Y141380D01*
X219650Y141367D01*
X219739Y141357D01*
X219828Y141351D01*
X219917Y141349D01*
X220006Y141351D01*
X220095Y141357D01*
X220184Y141367D01*
X220272Y141380D01*
X220360Y141397D01*
X220447Y141419D01*
X220532Y141444D01*
X220617Y141472D01*
X220700Y141505D01*
X220782Y141541D01*
X220862Y141580D01*
X220940Y141623D01*
X221016Y141669D01*
X221091Y141719D01*
X221163Y141772D01*
X221232Y141828D01*
X221299Y141887D01*
X221364Y141948D01*
X221425Y142013D01*
X221484Y142080D01*
X221540Y142149D01*
X221593Y142221D01*
X221643Y142296D01*
X221689Y142372D01*
X221732Y142450D01*
X221771Y142530D01*
X221807Y142612D01*
X221840Y142695D01*
X221868Y142780D01*
X221893Y142865D01*
X221915Y142952D01*
X221932Y143040D01*
X221945Y143128D01*
X221955Y143217D01*
X221961Y143306D01*
X221963Y143395D01*
X221963Y148715D01*
X225430Y147078D02*
X227476Y148715D01*
X227476Y141349D01*
X225430Y141349D02*
X229522Y141349D01*
D15*
X554038Y84138D02*
X554038Y4762D01*
X520700Y57150D02*
X463550Y57150D01*
X463550Y31750D01*
X520700Y31750D01*
X520700Y84138D02*
X554038Y84138D01*
X520700Y84138D02*
X520700Y76200D01*
X520700Y57150D01*
X520700Y31750D02*
X520700Y12700D01*
X520700Y4762D01*
X554038Y4762D01*
X527050Y76200D02*
X520700Y76200D01*
X527050Y76200D02*
X527357Y76196D01*
X527664Y76185D01*
X527970Y76167D01*
X528276Y76141D01*
X528581Y76107D01*
X528885Y76067D01*
X529188Y76019D01*
X529490Y75963D01*
X529790Y75901D01*
X530089Y75831D01*
X530386Y75754D01*
X530682Y75670D01*
X530975Y75578D01*
X531265Y75480D01*
X531553Y75375D01*
X531839Y75262D01*
X532122Y75143D01*
X532402Y75017D01*
X532679Y74885D01*
X532952Y74745D01*
X533222Y74599D01*
X533488Y74447D01*
X533751Y74288D01*
X534010Y74123D01*
X534264Y73952D01*
X534515Y73775D01*
X534761Y73591D01*
X535003Y73402D01*
X535239Y73207D01*
X535472Y73006D01*
X535699Y72800D01*
X535921Y72588D01*
X536138Y72371D01*
X536350Y72149D01*
X536556Y71922D01*
X536757Y71689D01*
X536952Y71453D01*
X537141Y71211D01*
X537325Y70965D01*
X537502Y70714D01*
X537673Y70460D01*
X537838Y70201D01*
X537997Y69938D01*
X538149Y69672D01*
X538295Y69402D01*
X538435Y69129D01*
X538567Y68852D01*
X538693Y68572D01*
X538812Y68289D01*
X538925Y68003D01*
X539030Y67715D01*
X539128Y67425D01*
X539220Y67132D01*
X539304Y66836D01*
X539381Y66539D01*
X539451Y66240D01*
X539513Y65940D01*
X539569Y65638D01*
X539617Y65335D01*
X539657Y65031D01*
X539691Y64726D01*
X539717Y64420D01*
X539735Y64114D01*
X539746Y63807D01*
X539750Y63500D01*
X539750Y25400D01*
X539746Y25093D01*
X539735Y24786D01*
X539717Y24480D01*
X539691Y24174D01*
X539657Y23869D01*
X539617Y23565D01*
X539569Y23262D01*
X539513Y22960D01*
X539451Y22660D01*
X539381Y22361D01*
X539304Y22064D01*
X539220Y21768D01*
X539128Y21475D01*
X539030Y21185D01*
X538925Y20897D01*
X538812Y20611D01*
X538693Y20328D01*
X538567Y20048D01*
X538435Y19771D01*
X538295Y19498D01*
X538149Y19228D01*
X537997Y18962D01*
X537838Y18699D01*
X537673Y18440D01*
X537502Y18186D01*
X537325Y17935D01*
X537141Y17689D01*
X536952Y17447D01*
X536757Y17211D01*
X536556Y16978D01*
X536350Y16751D01*
X536138Y16529D01*
X535921Y16312D01*
X535699Y16100D01*
X535472Y15894D01*
X535239Y15693D01*
X535003Y15498D01*
X534761Y15309D01*
X534515Y15125D01*
X534264Y14948D01*
X534010Y14777D01*
X533751Y14612D01*
X533488Y14453D01*
X533222Y14301D01*
X532952Y14155D01*
X532679Y14015D01*
X532402Y13883D01*
X532122Y13757D01*
X531839Y13638D01*
X531553Y13525D01*
X531265Y13420D01*
X530975Y13322D01*
X530682Y13230D01*
X530386Y13146D01*
X530089Y13069D01*
X529790Y12999D01*
X529490Y12937D01*
X529188Y12881D01*
X528885Y12833D01*
X528581Y12793D01*
X528276Y12759D01*
X527970Y12733D01*
X527664Y12715D01*
X527357Y12704D01*
X527050Y12700D01*
X520700Y12700D01*
X520700Y84138D02*
X438150Y84138D01*
X438150Y4762D01*
X520700Y4762D01*
D13*
X406785Y77348D02*
X406785Y89032D01*
X410031Y89032D01*
X410144Y89030D01*
X410257Y89024D01*
X410370Y89014D01*
X410483Y89000D01*
X410595Y88983D01*
X410706Y88961D01*
X410816Y88936D01*
X410926Y88906D01*
X411034Y88873D01*
X411141Y88836D01*
X411247Y88796D01*
X411351Y88751D01*
X411454Y88703D01*
X411555Y88652D01*
X411654Y88597D01*
X411751Y88539D01*
X411846Y88477D01*
X411939Y88412D01*
X412029Y88344D01*
X412117Y88273D01*
X412203Y88198D01*
X412286Y88121D01*
X412366Y88041D01*
X412443Y87958D01*
X412518Y87872D01*
X412589Y87784D01*
X412657Y87694D01*
X412722Y87601D01*
X412784Y87506D01*
X412842Y87409D01*
X412897Y87310D01*
X412948Y87209D01*
X412996Y87106D01*
X413041Y87002D01*
X413081Y86896D01*
X413118Y86789D01*
X413151Y86681D01*
X413181Y86571D01*
X413206Y86461D01*
X413228Y86350D01*
X413245Y86238D01*
X413259Y86125D01*
X413269Y86012D01*
X413275Y85899D01*
X413277Y85786D01*
X413275Y85673D01*
X413269Y85560D01*
X413259Y85447D01*
X413245Y85334D01*
X413228Y85222D01*
X413206Y85111D01*
X413181Y85001D01*
X413151Y84891D01*
X413118Y84783D01*
X413081Y84676D01*
X413041Y84570D01*
X412996Y84466D01*
X412948Y84363D01*
X412897Y84262D01*
X412842Y84163D01*
X412784Y84066D01*
X412722Y83971D01*
X412657Y83878D01*
X412589Y83788D01*
X412518Y83700D01*
X412443Y83614D01*
X412366Y83531D01*
X412286Y83451D01*
X412203Y83374D01*
X412117Y83299D01*
X412029Y83228D01*
X411939Y83160D01*
X411846Y83095D01*
X411751Y83033D01*
X411654Y82975D01*
X411555Y82920D01*
X411454Y82869D01*
X411351Y82821D01*
X411247Y82776D01*
X411141Y82736D01*
X411034Y82699D01*
X410926Y82666D01*
X410816Y82636D01*
X410706Y82611D01*
X410595Y82589D01*
X410483Y82572D01*
X410370Y82558D01*
X410257Y82548D01*
X410144Y82542D01*
X410031Y82540D01*
X410031Y82541D02*
X406785Y82541D01*
X420149Y77348D02*
X420149Y89032D01*
X423394Y89032D02*
X416903Y89032D01*
X427571Y86435D02*
X430817Y89032D01*
X430817Y77348D01*
X434062Y77348D02*
X427571Y77348D01*
D12*
X393600Y73500D02*
X393600Y53500D01*
X381100Y53500D02*
X381100Y73500D01*
D13*
X384316Y79995D02*
X385896Y79995D01*
X384316Y79996D02*
X384238Y79998D01*
X384161Y80004D01*
X384084Y80013D01*
X384008Y80026D01*
X383932Y80043D01*
X383857Y80064D01*
X383784Y80088D01*
X383711Y80116D01*
X383640Y80148D01*
X383571Y80183D01*
X383504Y80221D01*
X383438Y80262D01*
X383375Y80307D01*
X383314Y80355D01*
X383255Y80405D01*
X383199Y80459D01*
X383145Y80515D01*
X383095Y80574D01*
X383047Y80635D01*
X383002Y80698D01*
X382961Y80764D01*
X382923Y80831D01*
X382888Y80900D01*
X382856Y80971D01*
X382828Y81044D01*
X382804Y81117D01*
X382783Y81192D01*
X382766Y81268D01*
X382753Y81344D01*
X382744Y81421D01*
X382738Y81498D01*
X382736Y81576D01*
X382735Y81576D02*
X382735Y85527D01*
X382736Y85527D02*
X382738Y85605D01*
X382744Y85682D01*
X382753Y85759D01*
X382766Y85835D01*
X382783Y85911D01*
X382804Y85986D01*
X382828Y86059D01*
X382856Y86132D01*
X382888Y86203D01*
X382923Y86272D01*
X382961Y86339D01*
X383002Y86405D01*
X383047Y86468D01*
X383095Y86529D01*
X383145Y86588D01*
X383199Y86644D01*
X383255Y86698D01*
X383314Y86748D01*
X383375Y86796D01*
X383438Y86841D01*
X383504Y86882D01*
X383571Y86920D01*
X383640Y86955D01*
X383711Y86987D01*
X383784Y87015D01*
X383857Y87039D01*
X383932Y87060D01*
X384008Y87077D01*
X384084Y87090D01*
X384161Y87099D01*
X384238Y87105D01*
X384316Y87107D01*
X385896Y87107D01*
X391032Y87107D02*
X391114Y87105D01*
X391196Y87099D01*
X391278Y87090D01*
X391359Y87077D01*
X391439Y87060D01*
X391519Y87039D01*
X391597Y87015D01*
X391674Y86987D01*
X391750Y86956D01*
X391825Y86921D01*
X391897Y86882D01*
X391968Y86841D01*
X392037Y86796D01*
X392103Y86748D01*
X392168Y86697D01*
X392230Y86643D01*
X392289Y86586D01*
X392346Y86527D01*
X392400Y86465D01*
X392451Y86400D01*
X392499Y86334D01*
X392544Y86265D01*
X392585Y86194D01*
X392624Y86122D01*
X392659Y86047D01*
X392690Y85971D01*
X392718Y85894D01*
X392742Y85816D01*
X392763Y85736D01*
X392780Y85656D01*
X392793Y85575D01*
X392802Y85493D01*
X392808Y85411D01*
X392810Y85329D01*
X391032Y87107D02*
X390939Y87105D01*
X390847Y87099D01*
X390755Y87090D01*
X390663Y87077D01*
X390572Y87060D01*
X390482Y87040D01*
X390392Y87016D01*
X390304Y86988D01*
X390216Y86956D01*
X390131Y86922D01*
X390046Y86883D01*
X389964Y86842D01*
X389883Y86797D01*
X389803Y86748D01*
X389726Y86697D01*
X389651Y86643D01*
X389579Y86585D01*
X389509Y86525D01*
X389441Y86461D01*
X389376Y86396D01*
X389313Y86327D01*
X389254Y86256D01*
X389197Y86183D01*
X389143Y86107D01*
X389093Y86030D01*
X389045Y85950D01*
X389001Y85869D01*
X388961Y85785D01*
X388923Y85701D01*
X388889Y85614D01*
X388859Y85527D01*
X392217Y83946D02*
X392278Y84007D01*
X392336Y84070D01*
X392391Y84136D01*
X392444Y84204D01*
X392493Y84275D01*
X392538Y84347D01*
X392581Y84422D01*
X392620Y84498D01*
X392656Y84577D01*
X392688Y84656D01*
X392716Y84737D01*
X392741Y84820D01*
X392762Y84903D01*
X392779Y84987D01*
X392793Y85072D01*
X392802Y85157D01*
X392808Y85243D01*
X392810Y85329D01*
X392217Y83946D02*
X388859Y79995D01*
X392810Y79995D01*
D12*
X393600Y35400D02*
X393600Y15400D01*
X381100Y15400D02*
X381100Y35400D01*
D13*
X384322Y2017D02*
X385903Y2017D01*
X384322Y2018D02*
X384244Y2020D01*
X384167Y2026D01*
X384090Y2035D01*
X384014Y2048D01*
X383938Y2065D01*
X383863Y2086D01*
X383790Y2110D01*
X383717Y2138D01*
X383646Y2170D01*
X383577Y2205D01*
X383510Y2243D01*
X383444Y2284D01*
X383381Y2329D01*
X383320Y2377D01*
X383261Y2427D01*
X383205Y2481D01*
X383151Y2537D01*
X383101Y2596D01*
X383053Y2657D01*
X383008Y2720D01*
X382967Y2786D01*
X382929Y2853D01*
X382894Y2922D01*
X382862Y2993D01*
X382834Y3066D01*
X382810Y3139D01*
X382789Y3214D01*
X382772Y3290D01*
X382759Y3366D01*
X382750Y3443D01*
X382744Y3520D01*
X382742Y3598D01*
X382742Y7549D01*
X382743Y7549D02*
X382745Y7627D01*
X382751Y7704D01*
X382760Y7781D01*
X382773Y7857D01*
X382790Y7933D01*
X382811Y8008D01*
X382835Y8081D01*
X382863Y8154D01*
X382895Y8225D01*
X382930Y8294D01*
X382968Y8361D01*
X383009Y8427D01*
X383054Y8490D01*
X383102Y8551D01*
X383152Y8610D01*
X383206Y8666D01*
X383262Y8720D01*
X383321Y8770D01*
X383382Y8818D01*
X383445Y8863D01*
X383511Y8904D01*
X383578Y8942D01*
X383647Y8977D01*
X383718Y9009D01*
X383791Y9037D01*
X383864Y9061D01*
X383939Y9082D01*
X384015Y9099D01*
X384091Y9112D01*
X384168Y9121D01*
X384245Y9127D01*
X384323Y9129D01*
X384322Y9129D02*
X385903Y9129D01*
X390446Y9129D02*
X388865Y3598D01*
X392816Y3598D01*
X391631Y5178D02*
X391631Y2017D01*
D12*
X336450Y34450D02*
X336450Y54450D01*
X323950Y54450D02*
X323950Y34450D01*
D11*
X324415Y21305D02*
X325601Y21305D01*
X324415Y21305D02*
X324349Y21307D01*
X324282Y21312D01*
X324217Y21322D01*
X324151Y21335D01*
X324087Y21351D01*
X324024Y21371D01*
X323962Y21395D01*
X323901Y21422D01*
X323842Y21453D01*
X323785Y21487D01*
X323729Y21524D01*
X323676Y21564D01*
X323625Y21606D01*
X323577Y21652D01*
X323531Y21700D01*
X323489Y21751D01*
X323449Y21804D01*
X323412Y21860D01*
X323378Y21917D01*
X323347Y21976D01*
X323320Y22037D01*
X323296Y22099D01*
X323276Y22162D01*
X323260Y22226D01*
X323247Y22292D01*
X323237Y22357D01*
X323232Y22424D01*
X323230Y22490D01*
X323230Y25454D01*
X323232Y25520D01*
X323237Y25587D01*
X323247Y25652D01*
X323260Y25718D01*
X323276Y25782D01*
X323296Y25845D01*
X323320Y25907D01*
X323347Y25968D01*
X323378Y26027D01*
X323412Y26084D01*
X323449Y26140D01*
X323489Y26193D01*
X323531Y26244D01*
X323577Y26292D01*
X323625Y26338D01*
X323676Y26380D01*
X323729Y26420D01*
X323785Y26457D01*
X323842Y26491D01*
X323901Y26522D01*
X323961Y26549D01*
X324024Y26572D01*
X324087Y26593D01*
X324151Y26609D01*
X324216Y26622D01*
X324282Y26632D01*
X324349Y26637D01*
X324415Y26639D01*
X325601Y26639D01*
X327822Y25454D02*
X329304Y26639D01*
X329304Y21305D01*
X327822Y21305D02*
X330786Y21305D01*
X333309Y24268D02*
X335087Y24268D01*
X335153Y24266D01*
X335220Y24261D01*
X335285Y24251D01*
X335351Y24238D01*
X335415Y24222D01*
X335478Y24202D01*
X335540Y24178D01*
X335601Y24151D01*
X335660Y24120D01*
X335717Y24086D01*
X335773Y24049D01*
X335826Y24009D01*
X335877Y23967D01*
X335925Y23921D01*
X335971Y23873D01*
X336013Y23822D01*
X336053Y23769D01*
X336090Y23713D01*
X336124Y23656D01*
X336155Y23597D01*
X336182Y23536D01*
X336206Y23474D01*
X336226Y23411D01*
X336242Y23347D01*
X336255Y23281D01*
X336265Y23216D01*
X336270Y23149D01*
X336272Y23083D01*
X336272Y22787D01*
X336270Y22711D01*
X336264Y22635D01*
X336254Y22559D01*
X336241Y22484D01*
X336223Y22410D01*
X336202Y22336D01*
X336177Y22264D01*
X336148Y22194D01*
X336116Y22124D01*
X336080Y22057D01*
X336040Y21992D01*
X335998Y21928D01*
X335952Y21867D01*
X335903Y21809D01*
X335851Y21753D01*
X335797Y21699D01*
X335739Y21649D01*
X335680Y21602D01*
X335617Y21557D01*
X335553Y21516D01*
X335487Y21479D01*
X335418Y21445D01*
X335348Y21414D01*
X335277Y21387D01*
X335204Y21364D01*
X335130Y21345D01*
X335056Y21329D01*
X334980Y21317D01*
X334904Y21309D01*
X334828Y21305D01*
X334752Y21305D01*
X334676Y21309D01*
X334600Y21317D01*
X334524Y21329D01*
X334450Y21345D01*
X334376Y21364D01*
X334303Y21387D01*
X334232Y21414D01*
X334162Y21445D01*
X334093Y21479D01*
X334027Y21516D01*
X333963Y21557D01*
X333900Y21602D01*
X333841Y21649D01*
X333783Y21699D01*
X333729Y21753D01*
X333677Y21809D01*
X333628Y21867D01*
X333582Y21928D01*
X333540Y21992D01*
X333500Y22057D01*
X333464Y22124D01*
X333432Y22194D01*
X333403Y22264D01*
X333378Y22336D01*
X333357Y22410D01*
X333339Y22484D01*
X333326Y22559D01*
X333316Y22635D01*
X333310Y22711D01*
X333308Y22787D01*
X333309Y22787D02*
X333309Y24268D01*
X333308Y24268D02*
X333310Y24363D01*
X333316Y24459D01*
X333325Y24554D01*
X333339Y24648D01*
X333356Y24742D01*
X333377Y24835D01*
X333402Y24928D01*
X333430Y25019D01*
X333462Y25109D01*
X333498Y25197D01*
X333537Y25284D01*
X333580Y25370D01*
X333626Y25453D01*
X333675Y25535D01*
X333728Y25615D01*
X333784Y25692D01*
X333842Y25768D01*
X333904Y25840D01*
X333969Y25910D01*
X334037Y25978D01*
X334107Y26043D01*
X334179Y26105D01*
X334255Y26163D01*
X334332Y26219D01*
X334412Y26272D01*
X334493Y26321D01*
X334577Y26367D01*
X334663Y26410D01*
X334750Y26449D01*
X334838Y26485D01*
X334928Y26517D01*
X335019Y26545D01*
X335112Y26570D01*
X335205Y26591D01*
X335299Y26608D01*
X335393Y26622D01*
X335488Y26631D01*
X335583Y26637D01*
X335679Y26639D01*
D12*
X145950Y91600D02*
X145950Y111600D01*
X133450Y111600D02*
X133450Y91600D01*
D11*
X135058Y80039D02*
X136243Y80039D01*
X135058Y80039D02*
X134992Y80041D01*
X134925Y80046D01*
X134860Y80056D01*
X134794Y80069D01*
X134730Y80085D01*
X134667Y80105D01*
X134605Y80129D01*
X134544Y80156D01*
X134485Y80187D01*
X134428Y80221D01*
X134372Y80258D01*
X134319Y80298D01*
X134268Y80340D01*
X134220Y80386D01*
X134174Y80434D01*
X134132Y80485D01*
X134092Y80538D01*
X134055Y80594D01*
X134021Y80651D01*
X133990Y80710D01*
X133963Y80771D01*
X133939Y80833D01*
X133919Y80896D01*
X133903Y80960D01*
X133890Y81026D01*
X133880Y81091D01*
X133875Y81158D01*
X133873Y81224D01*
X133872Y81224D02*
X133872Y84187D01*
X133873Y84187D02*
X133875Y84253D01*
X133880Y84320D01*
X133890Y84385D01*
X133903Y84451D01*
X133919Y84515D01*
X133939Y84578D01*
X133963Y84640D01*
X133990Y84701D01*
X134021Y84760D01*
X134055Y84817D01*
X134092Y84873D01*
X134132Y84926D01*
X134174Y84977D01*
X134220Y85025D01*
X134268Y85071D01*
X134319Y85113D01*
X134372Y85153D01*
X134428Y85190D01*
X134485Y85224D01*
X134544Y85255D01*
X134604Y85282D01*
X134667Y85305D01*
X134730Y85326D01*
X134794Y85342D01*
X134859Y85355D01*
X134925Y85365D01*
X134992Y85370D01*
X135058Y85372D01*
X135058Y85373D02*
X136243Y85373D01*
X138465Y84187D02*
X139946Y85373D01*
X139946Y80039D01*
X138465Y80039D02*
X141428Y80039D01*
X143951Y84780D02*
X143951Y85373D01*
X146914Y85373D01*
X145433Y80039D01*
D12*
X317400Y35400D02*
X317400Y15400D01*
X304900Y15400D02*
X304900Y35400D01*
D11*
X305717Y4512D02*
X306903Y4512D01*
X305717Y4512D02*
X305651Y4514D01*
X305584Y4519D01*
X305519Y4529D01*
X305453Y4542D01*
X305389Y4558D01*
X305326Y4578D01*
X305264Y4602D01*
X305203Y4629D01*
X305144Y4660D01*
X305087Y4694D01*
X305031Y4731D01*
X304978Y4771D01*
X304927Y4813D01*
X304879Y4859D01*
X304833Y4907D01*
X304791Y4958D01*
X304751Y5011D01*
X304714Y5067D01*
X304680Y5124D01*
X304649Y5183D01*
X304622Y5244D01*
X304598Y5306D01*
X304578Y5369D01*
X304562Y5433D01*
X304549Y5499D01*
X304539Y5564D01*
X304534Y5631D01*
X304532Y5697D01*
X304532Y8661D01*
X304534Y8727D01*
X304539Y8794D01*
X304549Y8859D01*
X304562Y8925D01*
X304578Y8989D01*
X304598Y9052D01*
X304622Y9114D01*
X304649Y9175D01*
X304680Y9234D01*
X304714Y9291D01*
X304751Y9347D01*
X304791Y9400D01*
X304833Y9451D01*
X304879Y9499D01*
X304927Y9545D01*
X304978Y9587D01*
X305031Y9627D01*
X305087Y9664D01*
X305144Y9698D01*
X305203Y9729D01*
X305263Y9756D01*
X305326Y9779D01*
X305389Y9800D01*
X305453Y9816D01*
X305518Y9829D01*
X305584Y9839D01*
X305651Y9844D01*
X305717Y9846D01*
X306903Y9846D01*
X309125Y8661D02*
X310606Y9846D01*
X310606Y4512D01*
X309125Y4512D02*
X312088Y4512D01*
X314611Y5994D02*
X314613Y6070D01*
X314619Y6146D01*
X314629Y6222D01*
X314642Y6297D01*
X314660Y6371D01*
X314681Y6445D01*
X314706Y6517D01*
X314735Y6587D01*
X314767Y6657D01*
X314803Y6724D01*
X314843Y6789D01*
X314885Y6853D01*
X314931Y6914D01*
X314980Y6972D01*
X315032Y7028D01*
X315086Y7082D01*
X315144Y7132D01*
X315203Y7179D01*
X315266Y7224D01*
X315330Y7265D01*
X315396Y7302D01*
X315465Y7336D01*
X315535Y7367D01*
X315606Y7394D01*
X315679Y7417D01*
X315753Y7436D01*
X315827Y7452D01*
X315903Y7464D01*
X315979Y7472D01*
X316055Y7476D01*
X316131Y7476D01*
X316207Y7472D01*
X316283Y7464D01*
X316359Y7452D01*
X316433Y7436D01*
X316507Y7417D01*
X316580Y7394D01*
X316651Y7367D01*
X316721Y7336D01*
X316790Y7302D01*
X316856Y7265D01*
X316920Y7224D01*
X316983Y7179D01*
X317042Y7132D01*
X317100Y7082D01*
X317154Y7028D01*
X317206Y6972D01*
X317255Y6914D01*
X317301Y6853D01*
X317343Y6789D01*
X317383Y6724D01*
X317419Y6657D01*
X317451Y6587D01*
X317480Y6517D01*
X317505Y6445D01*
X317526Y6371D01*
X317544Y6297D01*
X317557Y6222D01*
X317567Y6146D01*
X317573Y6070D01*
X317575Y5994D01*
X317573Y5918D01*
X317567Y5842D01*
X317557Y5766D01*
X317544Y5691D01*
X317526Y5617D01*
X317505Y5543D01*
X317480Y5471D01*
X317451Y5401D01*
X317419Y5331D01*
X317383Y5264D01*
X317343Y5199D01*
X317301Y5135D01*
X317255Y5074D01*
X317206Y5016D01*
X317154Y4960D01*
X317100Y4906D01*
X317042Y4856D01*
X316983Y4809D01*
X316920Y4764D01*
X316856Y4723D01*
X316790Y4686D01*
X316721Y4652D01*
X316651Y4621D01*
X316580Y4594D01*
X316507Y4571D01*
X316433Y4552D01*
X316359Y4536D01*
X316283Y4524D01*
X316207Y4516D01*
X316131Y4512D01*
X316055Y4512D01*
X315979Y4516D01*
X315903Y4524D01*
X315827Y4536D01*
X315753Y4552D01*
X315679Y4571D01*
X315606Y4594D01*
X315535Y4621D01*
X315465Y4652D01*
X315396Y4686D01*
X315330Y4723D01*
X315266Y4764D01*
X315203Y4809D01*
X315144Y4856D01*
X315086Y4906D01*
X315032Y4960D01*
X314980Y5016D01*
X314931Y5074D01*
X314885Y5135D01*
X314843Y5199D01*
X314803Y5264D01*
X314767Y5331D01*
X314735Y5401D01*
X314706Y5471D01*
X314681Y5543D01*
X314660Y5617D01*
X314642Y5691D01*
X314629Y5766D01*
X314619Y5842D01*
X314613Y5918D01*
X314611Y5994D01*
X314908Y8661D02*
X314910Y8729D01*
X314916Y8796D01*
X314925Y8863D01*
X314939Y8929D01*
X314956Y8995D01*
X314977Y9059D01*
X315001Y9122D01*
X315030Y9184D01*
X315061Y9244D01*
X315096Y9302D01*
X315134Y9358D01*
X315176Y9411D01*
X315220Y9462D01*
X315267Y9511D01*
X315317Y9557D01*
X315369Y9599D01*
X315424Y9639D01*
X315481Y9676D01*
X315540Y9709D01*
X315601Y9739D01*
X315663Y9765D01*
X315727Y9788D01*
X315792Y9807D01*
X315858Y9822D01*
X315924Y9834D01*
X315992Y9842D01*
X316059Y9846D01*
X316127Y9846D01*
X316194Y9842D01*
X316262Y9834D01*
X316328Y9822D01*
X316394Y9807D01*
X316459Y9788D01*
X316523Y9765D01*
X316585Y9739D01*
X316646Y9709D01*
X316705Y9676D01*
X316762Y9639D01*
X316817Y9599D01*
X316869Y9557D01*
X316919Y9511D01*
X316966Y9462D01*
X317010Y9411D01*
X317052Y9358D01*
X317090Y9302D01*
X317125Y9244D01*
X317156Y9184D01*
X317185Y9122D01*
X317209Y9059D01*
X317230Y8995D01*
X317247Y8929D01*
X317261Y8863D01*
X317270Y8796D01*
X317276Y8729D01*
X317278Y8661D01*
X317276Y8593D01*
X317270Y8526D01*
X317261Y8459D01*
X317247Y8393D01*
X317230Y8327D01*
X317209Y8263D01*
X317185Y8200D01*
X317156Y8138D01*
X317125Y8078D01*
X317090Y8020D01*
X317052Y7964D01*
X317010Y7911D01*
X316966Y7860D01*
X316919Y7811D01*
X316869Y7765D01*
X316817Y7723D01*
X316762Y7683D01*
X316705Y7646D01*
X316646Y7613D01*
X316585Y7583D01*
X316523Y7557D01*
X316459Y7534D01*
X316394Y7515D01*
X316328Y7500D01*
X316262Y7488D01*
X316194Y7480D01*
X316127Y7476D01*
X316059Y7476D01*
X315992Y7480D01*
X315924Y7488D01*
X315858Y7500D01*
X315792Y7515D01*
X315727Y7534D01*
X315663Y7557D01*
X315601Y7583D01*
X315540Y7613D01*
X315481Y7646D01*
X315424Y7683D01*
X315369Y7723D01*
X315317Y7765D01*
X315267Y7811D01*
X315220Y7860D01*
X315176Y7911D01*
X315134Y7964D01*
X315096Y8020D01*
X315061Y8078D01*
X315030Y8138D01*
X315001Y8200D01*
X314977Y8263D01*
X314956Y8327D01*
X314939Y8393D01*
X314925Y8459D01*
X314916Y8526D01*
X314910Y8593D01*
X314908Y8661D01*
D12*
X181450Y63600D02*
X161450Y63600D01*
X161450Y76100D02*
X181450Y76100D01*
D11*
X155413Y66017D02*
X155413Y64832D01*
X155412Y64832D02*
X155410Y64766D01*
X155405Y64699D01*
X155395Y64634D01*
X155382Y64568D01*
X155366Y64504D01*
X155346Y64441D01*
X155322Y64379D01*
X155295Y64318D01*
X155264Y64259D01*
X155230Y64202D01*
X155193Y64146D01*
X155153Y64093D01*
X155111Y64042D01*
X155065Y63994D01*
X155017Y63948D01*
X154966Y63906D01*
X154913Y63866D01*
X154857Y63829D01*
X154800Y63795D01*
X154741Y63764D01*
X154680Y63737D01*
X154618Y63713D01*
X154555Y63693D01*
X154491Y63677D01*
X154425Y63664D01*
X154360Y63654D01*
X154293Y63649D01*
X154227Y63647D01*
X154227Y63646D02*
X151264Y63646D01*
X151264Y63647D02*
X151198Y63649D01*
X151131Y63654D01*
X151066Y63664D01*
X151000Y63677D01*
X150936Y63693D01*
X150873Y63713D01*
X150811Y63737D01*
X150750Y63764D01*
X150691Y63795D01*
X150634Y63829D01*
X150578Y63866D01*
X150525Y63906D01*
X150474Y63948D01*
X150426Y63994D01*
X150380Y64042D01*
X150338Y64093D01*
X150298Y64146D01*
X150261Y64202D01*
X150227Y64259D01*
X150196Y64318D01*
X150169Y64378D01*
X150146Y64441D01*
X150125Y64504D01*
X150109Y64568D01*
X150096Y64633D01*
X150086Y64699D01*
X150081Y64765D01*
X150079Y64832D01*
X150079Y66017D01*
X151264Y68239D02*
X150079Y69721D01*
X155413Y69721D01*
X155413Y71202D02*
X155413Y68239D01*
X153042Y74911D02*
X153042Y76689D01*
X153042Y74911D02*
X153040Y74845D01*
X153035Y74778D01*
X153025Y74713D01*
X153012Y74647D01*
X152996Y74583D01*
X152976Y74520D01*
X152952Y74458D01*
X152925Y74397D01*
X152894Y74338D01*
X152860Y74281D01*
X152823Y74225D01*
X152783Y74172D01*
X152741Y74121D01*
X152695Y74073D01*
X152647Y74027D01*
X152596Y73985D01*
X152543Y73945D01*
X152487Y73908D01*
X152430Y73874D01*
X152371Y73843D01*
X152310Y73816D01*
X152248Y73792D01*
X152185Y73772D01*
X152121Y73756D01*
X152055Y73743D01*
X151990Y73733D01*
X151923Y73728D01*
X151857Y73726D01*
X151857Y73725D02*
X151560Y73725D01*
X151484Y73727D01*
X151408Y73733D01*
X151332Y73743D01*
X151257Y73756D01*
X151183Y73774D01*
X151109Y73795D01*
X151037Y73820D01*
X150967Y73849D01*
X150897Y73881D01*
X150830Y73917D01*
X150765Y73957D01*
X150701Y73999D01*
X150640Y74045D01*
X150582Y74094D01*
X150526Y74146D01*
X150472Y74200D01*
X150422Y74258D01*
X150375Y74317D01*
X150330Y74380D01*
X150289Y74444D01*
X150252Y74510D01*
X150218Y74579D01*
X150187Y74649D01*
X150160Y74720D01*
X150137Y74793D01*
X150118Y74867D01*
X150102Y74941D01*
X150090Y75017D01*
X150082Y75093D01*
X150078Y75169D01*
X150078Y75245D01*
X150082Y75321D01*
X150090Y75397D01*
X150102Y75473D01*
X150118Y75547D01*
X150137Y75621D01*
X150160Y75694D01*
X150187Y75765D01*
X150218Y75835D01*
X150252Y75904D01*
X150289Y75970D01*
X150330Y76034D01*
X150375Y76097D01*
X150422Y76156D01*
X150472Y76214D01*
X150526Y76268D01*
X150582Y76320D01*
X150640Y76369D01*
X150701Y76415D01*
X150765Y76457D01*
X150830Y76497D01*
X150897Y76533D01*
X150967Y76565D01*
X151037Y76594D01*
X151109Y76619D01*
X151183Y76640D01*
X151257Y76658D01*
X151332Y76671D01*
X151408Y76681D01*
X151484Y76687D01*
X151560Y76689D01*
X153042Y76689D01*
X153137Y76687D01*
X153233Y76681D01*
X153328Y76672D01*
X153422Y76658D01*
X153516Y76641D01*
X153609Y76620D01*
X153702Y76595D01*
X153793Y76567D01*
X153883Y76535D01*
X153971Y76499D01*
X154058Y76460D01*
X154144Y76417D01*
X154228Y76371D01*
X154309Y76322D01*
X154389Y76269D01*
X154466Y76213D01*
X154542Y76155D01*
X154614Y76093D01*
X154684Y76028D01*
X154752Y75960D01*
X154817Y75890D01*
X154879Y75818D01*
X154937Y75742D01*
X154993Y75665D01*
X155046Y75585D01*
X155095Y75504D01*
X155141Y75420D01*
X155184Y75334D01*
X155223Y75247D01*
X155259Y75159D01*
X155291Y75069D01*
X155319Y74978D01*
X155344Y74885D01*
X155365Y74792D01*
X155382Y74698D01*
X155396Y74604D01*
X155405Y74509D01*
X155411Y74413D01*
X155413Y74318D01*
D12*
X205900Y25300D02*
X225900Y25300D01*
X225900Y12800D02*
X205900Y12800D01*
D11*
X236928Y13714D02*
X236928Y14900D01*
X236927Y13714D02*
X236925Y13648D01*
X236920Y13581D01*
X236910Y13516D01*
X236897Y13450D01*
X236881Y13386D01*
X236861Y13323D01*
X236837Y13261D01*
X236810Y13200D01*
X236779Y13141D01*
X236745Y13084D01*
X236708Y13028D01*
X236668Y12975D01*
X236626Y12924D01*
X236580Y12876D01*
X236532Y12830D01*
X236481Y12788D01*
X236428Y12748D01*
X236372Y12711D01*
X236315Y12677D01*
X236256Y12646D01*
X236195Y12619D01*
X236133Y12595D01*
X236070Y12575D01*
X236006Y12559D01*
X235940Y12546D01*
X235875Y12536D01*
X235808Y12531D01*
X235742Y12529D01*
X232779Y12529D01*
X232713Y12531D01*
X232646Y12536D01*
X232581Y12546D01*
X232515Y12559D01*
X232451Y12575D01*
X232388Y12595D01*
X232326Y12619D01*
X232265Y12646D01*
X232206Y12677D01*
X232149Y12711D01*
X232093Y12748D01*
X232040Y12788D01*
X231989Y12830D01*
X231941Y12876D01*
X231895Y12924D01*
X231853Y12975D01*
X231813Y13028D01*
X231776Y13084D01*
X231742Y13141D01*
X231711Y13200D01*
X231684Y13260D01*
X231661Y13323D01*
X231640Y13386D01*
X231624Y13450D01*
X231611Y13515D01*
X231601Y13581D01*
X231596Y13647D01*
X231594Y13714D01*
X231594Y14900D01*
X231593Y18751D02*
X231595Y18823D01*
X231601Y18895D01*
X231611Y18967D01*
X231624Y19038D01*
X231642Y19108D01*
X231663Y19177D01*
X231688Y19245D01*
X231716Y19311D01*
X231748Y19376D01*
X231784Y19439D01*
X231823Y19500D01*
X231865Y19558D01*
X231910Y19615D01*
X231959Y19668D01*
X232010Y19719D01*
X232063Y19768D01*
X232120Y19813D01*
X232178Y19855D01*
X232239Y19894D01*
X232302Y19930D01*
X232367Y19962D01*
X232433Y19990D01*
X232501Y20015D01*
X232570Y20036D01*
X232640Y20054D01*
X232711Y20067D01*
X232783Y20077D01*
X232855Y20083D01*
X232927Y20085D01*
X231594Y18751D02*
X231596Y18671D01*
X231601Y18592D01*
X231611Y18512D01*
X231624Y18434D01*
X231640Y18356D01*
X231660Y18279D01*
X231684Y18202D01*
X231712Y18127D01*
X231742Y18054D01*
X231776Y17982D01*
X231814Y17911D01*
X231855Y17843D01*
X231899Y17776D01*
X231945Y17711D01*
X231995Y17649D01*
X232048Y17589D01*
X232104Y17532D01*
X232162Y17477D01*
X232222Y17425D01*
X232285Y17376D01*
X232350Y17330D01*
X232417Y17287D01*
X232487Y17247D01*
X232557Y17211D01*
X232630Y17177D01*
X232704Y17148D01*
X232779Y17121D01*
X233964Y19640D02*
X233913Y19691D01*
X233859Y19739D01*
X233803Y19785D01*
X233744Y19828D01*
X233684Y19868D01*
X233621Y19904D01*
X233557Y19938D01*
X233491Y19968D01*
X233424Y19995D01*
X233355Y20018D01*
X233286Y20038D01*
X233215Y20055D01*
X233144Y20068D01*
X233072Y20077D01*
X232999Y20082D01*
X232927Y20084D01*
X233964Y19640D02*
X236928Y17121D01*
X236928Y20085D01*
X234261Y22607D02*
X234136Y22609D01*
X234012Y22614D01*
X233888Y22623D01*
X233764Y22635D01*
X233640Y22651D01*
X233517Y22670D01*
X233394Y22693D01*
X233273Y22720D01*
X233152Y22749D01*
X233031Y22782D01*
X232912Y22819D01*
X232794Y22859D01*
X232677Y22902D01*
X232562Y22949D01*
X232447Y22999D01*
X232335Y23052D01*
X232274Y23075D01*
X232215Y23101D01*
X232157Y23131D01*
X232102Y23164D01*
X232048Y23201D01*
X231997Y23240D01*
X231948Y23282D01*
X231902Y23328D01*
X231858Y23376D01*
X231817Y23426D01*
X231780Y23479D01*
X231745Y23533D01*
X231714Y23590D01*
X231686Y23649D01*
X231662Y23709D01*
X231641Y23770D01*
X231624Y23832D01*
X231611Y23896D01*
X231602Y23960D01*
X231596Y24024D01*
X231594Y24089D01*
X231596Y24154D01*
X231602Y24218D01*
X231611Y24282D01*
X231624Y24346D01*
X231641Y24408D01*
X231662Y24469D01*
X231686Y24529D01*
X231714Y24588D01*
X231745Y24645D01*
X231780Y24699D01*
X231817Y24752D01*
X231858Y24802D01*
X231902Y24850D01*
X231948Y24896D01*
X231997Y24938D01*
X232048Y24977D01*
X232102Y25014D01*
X232157Y25047D01*
X232215Y25077D01*
X232274Y25103D01*
X232335Y25126D01*
X232447Y25179D01*
X232562Y25229D01*
X232677Y25276D01*
X232794Y25319D01*
X232912Y25359D01*
X233031Y25396D01*
X233152Y25429D01*
X233273Y25458D01*
X233394Y25485D01*
X233517Y25508D01*
X233640Y25527D01*
X233764Y25543D01*
X233888Y25555D01*
X234012Y25564D01*
X234136Y25569D01*
X234261Y25571D01*
X234261Y22607D02*
X234386Y22609D01*
X234510Y22614D01*
X234634Y22623D01*
X234758Y22635D01*
X234882Y22651D01*
X235005Y22670D01*
X235128Y22693D01*
X235249Y22720D01*
X235370Y22749D01*
X235491Y22782D01*
X235610Y22819D01*
X235728Y22859D01*
X235845Y22902D01*
X235960Y22949D01*
X236075Y22999D01*
X236187Y23052D01*
X236186Y23052D02*
X236247Y23075D01*
X236306Y23101D01*
X236364Y23131D01*
X236419Y23164D01*
X236473Y23201D01*
X236524Y23240D01*
X236573Y23282D01*
X236619Y23328D01*
X236663Y23376D01*
X236704Y23426D01*
X236741Y23479D01*
X236776Y23533D01*
X236807Y23590D01*
X236835Y23649D01*
X236859Y23709D01*
X236880Y23770D01*
X236897Y23832D01*
X236910Y23896D01*
X236919Y23960D01*
X236925Y24024D01*
X236927Y24089D01*
X236187Y25126D02*
X236075Y25179D01*
X235960Y25229D01*
X235845Y25276D01*
X235728Y25319D01*
X235610Y25359D01*
X235491Y25396D01*
X235370Y25429D01*
X235249Y25458D01*
X235128Y25485D01*
X235005Y25508D01*
X234882Y25527D01*
X234758Y25543D01*
X234634Y25555D01*
X234510Y25564D01*
X234386Y25569D01*
X234261Y25571D01*
X236186Y25126D02*
X236247Y25103D01*
X236306Y25077D01*
X236364Y25047D01*
X236419Y25014D01*
X236473Y24977D01*
X236524Y24938D01*
X236573Y24896D01*
X236619Y24850D01*
X236663Y24802D01*
X236704Y24752D01*
X236741Y24699D01*
X236776Y24645D01*
X236807Y24588D01*
X236835Y24529D01*
X236859Y24469D01*
X236880Y24408D01*
X236897Y24346D01*
X236910Y24282D01*
X236919Y24218D01*
X236925Y24154D01*
X236927Y24089D01*
X235742Y22904D02*
X232779Y25275D01*
D12*
X336450Y104300D02*
X336450Y124300D01*
X323950Y124300D02*
X323950Y104300D01*
D11*
X325182Y130655D02*
X326367Y130655D01*
X325182Y130655D02*
X325116Y130657D01*
X325049Y130662D01*
X324984Y130672D01*
X324918Y130685D01*
X324854Y130701D01*
X324791Y130721D01*
X324729Y130745D01*
X324668Y130772D01*
X324609Y130803D01*
X324552Y130837D01*
X324496Y130874D01*
X324443Y130914D01*
X324392Y130956D01*
X324344Y131002D01*
X324298Y131050D01*
X324256Y131101D01*
X324216Y131154D01*
X324179Y131210D01*
X324145Y131267D01*
X324114Y131326D01*
X324087Y131387D01*
X324063Y131449D01*
X324043Y131512D01*
X324027Y131576D01*
X324014Y131642D01*
X324004Y131707D01*
X323999Y131774D01*
X323997Y131840D01*
X323996Y131840D02*
X323996Y134804D01*
X323997Y134804D02*
X323999Y134870D01*
X324004Y134937D01*
X324014Y135002D01*
X324027Y135068D01*
X324043Y135132D01*
X324063Y135195D01*
X324087Y135257D01*
X324114Y135318D01*
X324145Y135377D01*
X324179Y135434D01*
X324216Y135490D01*
X324256Y135543D01*
X324298Y135594D01*
X324344Y135642D01*
X324392Y135688D01*
X324443Y135730D01*
X324496Y135770D01*
X324552Y135807D01*
X324609Y135841D01*
X324668Y135872D01*
X324728Y135899D01*
X324791Y135922D01*
X324854Y135943D01*
X324918Y135959D01*
X324983Y135972D01*
X325049Y135982D01*
X325116Y135987D01*
X325182Y135989D01*
X326367Y135989D01*
X330219Y135989D02*
X330291Y135987D01*
X330363Y135981D01*
X330435Y135971D01*
X330506Y135958D01*
X330576Y135940D01*
X330645Y135919D01*
X330713Y135894D01*
X330779Y135866D01*
X330844Y135834D01*
X330907Y135798D01*
X330968Y135759D01*
X331026Y135717D01*
X331083Y135672D01*
X331136Y135623D01*
X331187Y135572D01*
X331236Y135519D01*
X331281Y135462D01*
X331323Y135404D01*
X331362Y135343D01*
X331398Y135280D01*
X331430Y135215D01*
X331458Y135149D01*
X331483Y135081D01*
X331504Y135012D01*
X331522Y134942D01*
X331535Y134871D01*
X331545Y134799D01*
X331551Y134727D01*
X331553Y134655D01*
X330219Y135989D02*
X330139Y135987D01*
X330060Y135982D01*
X329980Y135972D01*
X329902Y135959D01*
X329824Y135943D01*
X329746Y135923D01*
X329670Y135899D01*
X329595Y135871D01*
X329522Y135841D01*
X329450Y135807D01*
X329379Y135769D01*
X329311Y135728D01*
X329244Y135684D01*
X329179Y135638D01*
X329117Y135588D01*
X329057Y135535D01*
X329000Y135479D01*
X328945Y135421D01*
X328893Y135361D01*
X328844Y135298D01*
X328798Y135233D01*
X328755Y135166D01*
X328715Y135097D01*
X328679Y135026D01*
X328645Y134953D01*
X328616Y134879D01*
X328589Y134804D01*
X331108Y133618D02*
X331159Y133669D01*
X331207Y133723D01*
X331253Y133779D01*
X331296Y133838D01*
X331336Y133898D01*
X331372Y133961D01*
X331406Y134025D01*
X331436Y134091D01*
X331463Y134158D01*
X331486Y134227D01*
X331506Y134296D01*
X331523Y134367D01*
X331536Y134438D01*
X331545Y134510D01*
X331550Y134583D01*
X331552Y134655D01*
X331108Y133618D02*
X328589Y130655D01*
X331552Y130655D01*
X334075Y134804D02*
X335557Y135989D01*
X335557Y130655D01*
X334075Y130655D02*
X337039Y130655D01*
D12*
X317400Y124300D02*
X317400Y104300D01*
X304900Y104300D02*
X304900Y124300D01*
D11*
X306767Y130973D02*
X307952Y130973D01*
X306767Y130973D02*
X306701Y130975D01*
X306634Y130980D01*
X306569Y130990D01*
X306503Y131003D01*
X306439Y131019D01*
X306376Y131039D01*
X306314Y131063D01*
X306253Y131090D01*
X306194Y131121D01*
X306137Y131155D01*
X306081Y131192D01*
X306028Y131232D01*
X305977Y131274D01*
X305929Y131320D01*
X305883Y131368D01*
X305841Y131419D01*
X305801Y131472D01*
X305764Y131528D01*
X305730Y131585D01*
X305699Y131644D01*
X305672Y131705D01*
X305648Y131767D01*
X305628Y131830D01*
X305612Y131894D01*
X305599Y131960D01*
X305589Y132025D01*
X305584Y132092D01*
X305582Y132158D01*
X305581Y132158D02*
X305581Y135121D01*
X305582Y135121D02*
X305584Y135187D01*
X305589Y135254D01*
X305599Y135319D01*
X305612Y135385D01*
X305628Y135449D01*
X305648Y135512D01*
X305672Y135574D01*
X305699Y135635D01*
X305730Y135694D01*
X305764Y135751D01*
X305801Y135807D01*
X305841Y135860D01*
X305883Y135911D01*
X305929Y135959D01*
X305977Y136005D01*
X306028Y136047D01*
X306081Y136087D01*
X306137Y136124D01*
X306194Y136158D01*
X306253Y136189D01*
X306313Y136216D01*
X306376Y136239D01*
X306439Y136260D01*
X306503Y136276D01*
X306568Y136289D01*
X306634Y136299D01*
X306701Y136304D01*
X306767Y136306D01*
X306767Y136307D02*
X307952Y136307D01*
X311804Y136307D02*
X311876Y136305D01*
X311948Y136299D01*
X312020Y136289D01*
X312091Y136276D01*
X312161Y136258D01*
X312230Y136237D01*
X312298Y136212D01*
X312364Y136184D01*
X312429Y136152D01*
X312492Y136116D01*
X312553Y136077D01*
X312611Y136035D01*
X312668Y135990D01*
X312721Y135941D01*
X312772Y135890D01*
X312821Y135837D01*
X312866Y135780D01*
X312908Y135722D01*
X312947Y135661D01*
X312983Y135598D01*
X313015Y135533D01*
X313043Y135467D01*
X313068Y135399D01*
X313089Y135330D01*
X313107Y135260D01*
X313120Y135189D01*
X313130Y135117D01*
X313136Y135045D01*
X313138Y134973D01*
X311804Y136306D02*
X311724Y136304D01*
X311645Y136299D01*
X311565Y136289D01*
X311487Y136276D01*
X311409Y136260D01*
X311331Y136240D01*
X311255Y136216D01*
X311180Y136188D01*
X311107Y136158D01*
X311035Y136124D01*
X310964Y136086D01*
X310896Y136045D01*
X310829Y136001D01*
X310764Y135955D01*
X310702Y135905D01*
X310642Y135852D01*
X310585Y135796D01*
X310530Y135738D01*
X310478Y135678D01*
X310429Y135615D01*
X310383Y135550D01*
X310340Y135483D01*
X310300Y135414D01*
X310264Y135343D01*
X310230Y135270D01*
X310201Y135196D01*
X310174Y135121D01*
X312693Y133936D02*
X312744Y133987D01*
X312792Y134041D01*
X312838Y134097D01*
X312881Y134156D01*
X312921Y134216D01*
X312957Y134279D01*
X312991Y134343D01*
X313021Y134409D01*
X313048Y134476D01*
X313071Y134545D01*
X313091Y134614D01*
X313108Y134685D01*
X313121Y134756D01*
X313130Y134828D01*
X313135Y134901D01*
X313137Y134973D01*
X312693Y133936D02*
X310174Y130973D01*
X313137Y130973D01*
X317290Y136307D02*
X317362Y136305D01*
X317434Y136299D01*
X317506Y136289D01*
X317577Y136276D01*
X317647Y136258D01*
X317716Y136237D01*
X317784Y136212D01*
X317850Y136184D01*
X317915Y136152D01*
X317978Y136116D01*
X318039Y136077D01*
X318097Y136035D01*
X318154Y135990D01*
X318207Y135941D01*
X318258Y135890D01*
X318307Y135837D01*
X318352Y135780D01*
X318394Y135722D01*
X318433Y135661D01*
X318469Y135598D01*
X318501Y135533D01*
X318529Y135467D01*
X318554Y135399D01*
X318575Y135330D01*
X318593Y135260D01*
X318606Y135189D01*
X318616Y135117D01*
X318622Y135045D01*
X318624Y134973D01*
X317290Y136306D02*
X317210Y136304D01*
X317131Y136299D01*
X317051Y136289D01*
X316973Y136276D01*
X316895Y136260D01*
X316817Y136240D01*
X316741Y136216D01*
X316666Y136188D01*
X316593Y136158D01*
X316521Y136124D01*
X316450Y136086D01*
X316382Y136045D01*
X316315Y136001D01*
X316250Y135955D01*
X316188Y135905D01*
X316128Y135852D01*
X316071Y135796D01*
X316016Y135738D01*
X315964Y135678D01*
X315915Y135615D01*
X315869Y135550D01*
X315826Y135483D01*
X315786Y135414D01*
X315750Y135343D01*
X315716Y135270D01*
X315687Y135196D01*
X315660Y135121D01*
X318179Y133936D02*
X318230Y133987D01*
X318278Y134041D01*
X318324Y134097D01*
X318367Y134156D01*
X318407Y134216D01*
X318443Y134279D01*
X318477Y134343D01*
X318507Y134409D01*
X318534Y134476D01*
X318557Y134545D01*
X318577Y134614D01*
X318594Y134685D01*
X318607Y134756D01*
X318616Y134828D01*
X318621Y134901D01*
X318623Y134973D01*
X318179Y133936D02*
X315660Y130973D01*
X318624Y130973D01*
D12*
X152500Y136050D02*
X152500Y156050D01*
X165000Y156050D02*
X165000Y136050D01*
D11*
X154917Y125949D02*
X153732Y125949D01*
X153666Y125951D01*
X153599Y125956D01*
X153534Y125966D01*
X153468Y125979D01*
X153404Y125995D01*
X153341Y126015D01*
X153279Y126039D01*
X153218Y126066D01*
X153159Y126097D01*
X153102Y126131D01*
X153046Y126168D01*
X152993Y126208D01*
X152942Y126250D01*
X152894Y126296D01*
X152848Y126344D01*
X152806Y126395D01*
X152766Y126448D01*
X152729Y126504D01*
X152695Y126561D01*
X152664Y126620D01*
X152637Y126681D01*
X152613Y126743D01*
X152593Y126806D01*
X152577Y126870D01*
X152564Y126936D01*
X152554Y127001D01*
X152549Y127068D01*
X152547Y127134D01*
X152546Y127134D02*
X152546Y130097D01*
X152547Y130097D02*
X152549Y130163D01*
X152554Y130230D01*
X152564Y130295D01*
X152577Y130361D01*
X152593Y130425D01*
X152613Y130488D01*
X152637Y130550D01*
X152664Y130611D01*
X152695Y130670D01*
X152729Y130727D01*
X152766Y130783D01*
X152806Y130836D01*
X152848Y130887D01*
X152894Y130935D01*
X152942Y130981D01*
X152993Y131023D01*
X153046Y131063D01*
X153102Y131100D01*
X153159Y131134D01*
X153218Y131165D01*
X153278Y131192D01*
X153341Y131215D01*
X153404Y131236D01*
X153468Y131252D01*
X153533Y131265D01*
X153599Y131275D01*
X153666Y131280D01*
X153732Y131282D01*
X153732Y131283D02*
X154917Y131283D01*
X158769Y131283D02*
X158841Y131281D01*
X158913Y131275D01*
X158985Y131265D01*
X159056Y131252D01*
X159126Y131234D01*
X159195Y131213D01*
X159263Y131188D01*
X159329Y131160D01*
X159394Y131128D01*
X159457Y131092D01*
X159518Y131053D01*
X159576Y131011D01*
X159633Y130966D01*
X159686Y130917D01*
X159737Y130866D01*
X159786Y130813D01*
X159831Y130756D01*
X159873Y130698D01*
X159912Y130637D01*
X159948Y130574D01*
X159980Y130509D01*
X160008Y130443D01*
X160033Y130375D01*
X160054Y130306D01*
X160072Y130236D01*
X160085Y130165D01*
X160095Y130093D01*
X160101Y130021D01*
X160103Y129949D01*
X158769Y131282D02*
X158689Y131280D01*
X158610Y131275D01*
X158530Y131265D01*
X158452Y131252D01*
X158374Y131236D01*
X158296Y131216D01*
X158220Y131192D01*
X158145Y131164D01*
X158072Y131134D01*
X158000Y131100D01*
X157929Y131062D01*
X157861Y131021D01*
X157794Y130977D01*
X157729Y130931D01*
X157667Y130881D01*
X157607Y130828D01*
X157550Y130772D01*
X157495Y130714D01*
X157443Y130654D01*
X157394Y130591D01*
X157348Y130526D01*
X157305Y130459D01*
X157265Y130390D01*
X157229Y130319D01*
X157195Y130246D01*
X157166Y130172D01*
X157139Y130097D01*
X159658Y128912D02*
X159709Y128963D01*
X159757Y129017D01*
X159803Y129073D01*
X159846Y129132D01*
X159886Y129192D01*
X159922Y129255D01*
X159956Y129319D01*
X159986Y129385D01*
X160013Y129452D01*
X160036Y129521D01*
X160056Y129590D01*
X160073Y129661D01*
X160086Y129732D01*
X160095Y129804D01*
X160100Y129877D01*
X160102Y129949D01*
X159658Y128912D02*
X157139Y125949D01*
X160102Y125949D01*
X162625Y125949D02*
X164107Y125949D01*
X164107Y125948D02*
X164183Y125950D01*
X164259Y125956D01*
X164335Y125966D01*
X164410Y125979D01*
X164484Y125997D01*
X164558Y126018D01*
X164630Y126043D01*
X164700Y126072D01*
X164770Y126104D01*
X164837Y126140D01*
X164902Y126180D01*
X164966Y126222D01*
X165027Y126268D01*
X165085Y126317D01*
X165141Y126369D01*
X165195Y126423D01*
X165245Y126481D01*
X165292Y126540D01*
X165337Y126603D01*
X165378Y126667D01*
X165415Y126733D01*
X165449Y126802D01*
X165480Y126872D01*
X165507Y126943D01*
X165530Y127016D01*
X165549Y127090D01*
X165565Y127164D01*
X165577Y127240D01*
X165585Y127316D01*
X165589Y127392D01*
X165589Y127468D01*
X165585Y127544D01*
X165577Y127620D01*
X165565Y127696D01*
X165549Y127770D01*
X165530Y127844D01*
X165507Y127917D01*
X165480Y127988D01*
X165449Y128058D01*
X165415Y128127D01*
X165378Y128193D01*
X165337Y128257D01*
X165292Y128320D01*
X165245Y128379D01*
X165195Y128437D01*
X165141Y128491D01*
X165085Y128543D01*
X165027Y128592D01*
X164966Y128638D01*
X164902Y128680D01*
X164837Y128720D01*
X164770Y128756D01*
X164700Y128788D01*
X164630Y128817D01*
X164558Y128842D01*
X164484Y128863D01*
X164410Y128881D01*
X164335Y128894D01*
X164259Y128904D01*
X164183Y128910D01*
X164107Y128912D01*
X164403Y131283D02*
X162625Y131283D01*
X164403Y131282D02*
X164471Y131280D01*
X164538Y131274D01*
X164605Y131265D01*
X164671Y131251D01*
X164737Y131234D01*
X164801Y131213D01*
X164864Y131189D01*
X164926Y131160D01*
X164986Y131129D01*
X165044Y131094D01*
X165100Y131056D01*
X165153Y131014D01*
X165204Y130970D01*
X165253Y130923D01*
X165299Y130873D01*
X165341Y130821D01*
X165381Y130766D01*
X165418Y130709D01*
X165451Y130650D01*
X165481Y130589D01*
X165507Y130527D01*
X165530Y130463D01*
X165549Y130398D01*
X165564Y130332D01*
X165576Y130266D01*
X165584Y130198D01*
X165588Y130131D01*
X165588Y130063D01*
X165584Y129996D01*
X165576Y129928D01*
X165564Y129862D01*
X165549Y129796D01*
X165530Y129731D01*
X165507Y129667D01*
X165481Y129605D01*
X165451Y129544D01*
X165418Y129485D01*
X165381Y129428D01*
X165341Y129373D01*
X165299Y129321D01*
X165253Y129271D01*
X165204Y129224D01*
X165153Y129180D01*
X165100Y129138D01*
X165044Y129100D01*
X164986Y129065D01*
X164926Y129034D01*
X164864Y129005D01*
X164801Y128981D01*
X164737Y128960D01*
X164671Y128943D01*
X164605Y128929D01*
X164538Y128920D01*
X164471Y128914D01*
X164403Y128912D01*
X163218Y128912D01*
D12*
X171550Y136050D02*
X171550Y156050D01*
X184050Y156050D02*
X184050Y136050D01*
D11*
X173332Y125631D02*
X172147Y125631D01*
X172081Y125633D01*
X172014Y125638D01*
X171949Y125648D01*
X171883Y125661D01*
X171819Y125677D01*
X171756Y125697D01*
X171694Y125721D01*
X171633Y125748D01*
X171574Y125779D01*
X171517Y125813D01*
X171461Y125850D01*
X171408Y125890D01*
X171357Y125932D01*
X171309Y125978D01*
X171263Y126026D01*
X171221Y126077D01*
X171181Y126130D01*
X171144Y126186D01*
X171110Y126243D01*
X171079Y126302D01*
X171052Y126363D01*
X171028Y126425D01*
X171008Y126488D01*
X170992Y126552D01*
X170979Y126618D01*
X170969Y126683D01*
X170964Y126750D01*
X170962Y126816D01*
X170961Y126816D02*
X170961Y129780D01*
X170962Y129780D02*
X170964Y129846D01*
X170969Y129913D01*
X170979Y129978D01*
X170992Y130044D01*
X171008Y130108D01*
X171028Y130171D01*
X171052Y130233D01*
X171079Y130294D01*
X171110Y130353D01*
X171144Y130410D01*
X171181Y130466D01*
X171221Y130519D01*
X171263Y130570D01*
X171309Y130618D01*
X171357Y130664D01*
X171408Y130706D01*
X171461Y130746D01*
X171517Y130783D01*
X171574Y130817D01*
X171633Y130848D01*
X171693Y130875D01*
X171756Y130898D01*
X171819Y130919D01*
X171883Y130935D01*
X171948Y130948D01*
X172014Y130958D01*
X172081Y130963D01*
X172147Y130965D01*
X173332Y130965D01*
X177184Y130965D02*
X177256Y130963D01*
X177328Y130957D01*
X177400Y130947D01*
X177471Y130934D01*
X177541Y130916D01*
X177610Y130895D01*
X177678Y130870D01*
X177744Y130842D01*
X177809Y130810D01*
X177872Y130774D01*
X177933Y130735D01*
X177991Y130693D01*
X178048Y130648D01*
X178101Y130599D01*
X178152Y130548D01*
X178201Y130495D01*
X178246Y130438D01*
X178288Y130380D01*
X178327Y130319D01*
X178363Y130256D01*
X178395Y130191D01*
X178423Y130125D01*
X178448Y130057D01*
X178469Y129988D01*
X178487Y129918D01*
X178500Y129847D01*
X178510Y129775D01*
X178516Y129703D01*
X178518Y129631D01*
X177184Y130965D02*
X177104Y130963D01*
X177025Y130958D01*
X176945Y130948D01*
X176867Y130935D01*
X176789Y130919D01*
X176711Y130899D01*
X176635Y130875D01*
X176560Y130847D01*
X176487Y130817D01*
X176415Y130783D01*
X176344Y130745D01*
X176276Y130704D01*
X176209Y130660D01*
X176144Y130614D01*
X176082Y130564D01*
X176022Y130511D01*
X175965Y130455D01*
X175910Y130397D01*
X175858Y130337D01*
X175809Y130274D01*
X175763Y130209D01*
X175720Y130142D01*
X175680Y130073D01*
X175644Y130002D01*
X175610Y129929D01*
X175581Y129855D01*
X175554Y129780D01*
X178073Y128594D02*
X178124Y128645D01*
X178172Y128699D01*
X178218Y128755D01*
X178261Y128814D01*
X178301Y128874D01*
X178337Y128937D01*
X178371Y129001D01*
X178401Y129067D01*
X178428Y129134D01*
X178451Y129203D01*
X178471Y129272D01*
X178488Y129343D01*
X178501Y129414D01*
X178510Y129486D01*
X178515Y129559D01*
X178517Y129631D01*
X178073Y128594D02*
X175554Y125631D01*
X178517Y125631D01*
X181040Y126816D02*
X182226Y130965D01*
X181040Y126816D02*
X184004Y126816D01*
X183115Y125631D02*
X183115Y128002D01*
D16*
X25400Y165965D03*
D12*
X-63400Y165100D02*
X-63400Y12700D01*
X-63400Y165100D02*
X10200Y165100D01*
X10200Y12700D01*
X-63400Y12700D01*
D13*
X28083Y135765D02*
X37171Y135765D01*
X37270Y135763D01*
X37370Y135757D01*
X37469Y135748D01*
X37567Y135735D01*
X37665Y135718D01*
X37763Y135697D01*
X37859Y135672D01*
X37954Y135644D01*
X38048Y135612D01*
X38141Y135577D01*
X38233Y135538D01*
X38323Y135495D01*
X38411Y135450D01*
X38498Y135400D01*
X38582Y135348D01*
X38665Y135292D01*
X38745Y135234D01*
X38823Y135172D01*
X38898Y135107D01*
X38971Y135039D01*
X39041Y134969D01*
X39109Y134896D01*
X39174Y134821D01*
X39236Y134743D01*
X39294Y134663D01*
X39350Y134580D01*
X39402Y134496D01*
X39452Y134409D01*
X39497Y134321D01*
X39540Y134231D01*
X39579Y134139D01*
X39614Y134046D01*
X39646Y133952D01*
X39674Y133857D01*
X39699Y133761D01*
X39720Y133663D01*
X39737Y133565D01*
X39750Y133467D01*
X39759Y133368D01*
X39765Y133268D01*
X39767Y133169D01*
X39767Y131870D01*
X30679Y141038D02*
X28083Y144284D01*
X39767Y144284D01*
X39767Y141038D02*
X39767Y147530D01*
D15*
X554038Y173038D02*
X554038Y93662D01*
X520700Y146050D02*
X463550Y146050D01*
X463550Y120650D01*
X520700Y120650D01*
X520700Y173038D02*
X554038Y173038D01*
X520700Y173038D02*
X520700Y165100D01*
X520700Y146050D01*
X520700Y120650D02*
X520700Y101600D01*
X520700Y93662D01*
X554038Y93662D01*
X527050Y165100D02*
X520700Y165100D01*
X527050Y165100D02*
X527357Y165096D01*
X527664Y165085D01*
X527970Y165067D01*
X528276Y165041D01*
X528581Y165007D01*
X528885Y164967D01*
X529188Y164919D01*
X529490Y164863D01*
X529790Y164801D01*
X530089Y164731D01*
X530386Y164654D01*
X530682Y164570D01*
X530975Y164478D01*
X531265Y164380D01*
X531553Y164275D01*
X531839Y164162D01*
X532122Y164043D01*
X532402Y163917D01*
X532679Y163785D01*
X532952Y163645D01*
X533222Y163499D01*
X533488Y163347D01*
X533751Y163188D01*
X534010Y163023D01*
X534264Y162852D01*
X534515Y162675D01*
X534761Y162491D01*
X535003Y162302D01*
X535239Y162107D01*
X535472Y161906D01*
X535699Y161700D01*
X535921Y161488D01*
X536138Y161271D01*
X536350Y161049D01*
X536556Y160822D01*
X536757Y160589D01*
X536952Y160353D01*
X537141Y160111D01*
X537325Y159865D01*
X537502Y159614D01*
X537673Y159360D01*
X537838Y159101D01*
X537997Y158838D01*
X538149Y158572D01*
X538295Y158302D01*
X538435Y158029D01*
X538567Y157752D01*
X538693Y157472D01*
X538812Y157189D01*
X538925Y156903D01*
X539030Y156615D01*
X539128Y156325D01*
X539220Y156032D01*
X539304Y155736D01*
X539381Y155439D01*
X539451Y155140D01*
X539513Y154840D01*
X539569Y154538D01*
X539617Y154235D01*
X539657Y153931D01*
X539691Y153626D01*
X539717Y153320D01*
X539735Y153014D01*
X539746Y152707D01*
X539750Y152400D01*
X539750Y114300D01*
X539746Y113993D01*
X539735Y113686D01*
X539717Y113380D01*
X539691Y113074D01*
X539657Y112769D01*
X539617Y112465D01*
X539569Y112162D01*
X539513Y111860D01*
X539451Y111560D01*
X539381Y111261D01*
X539304Y110964D01*
X539220Y110668D01*
X539128Y110375D01*
X539030Y110085D01*
X538925Y109797D01*
X538812Y109511D01*
X538693Y109228D01*
X538567Y108948D01*
X538435Y108671D01*
X538295Y108398D01*
X538149Y108128D01*
X537997Y107862D01*
X537838Y107599D01*
X537673Y107340D01*
X537502Y107086D01*
X537325Y106835D01*
X537141Y106589D01*
X536952Y106347D01*
X536757Y106111D01*
X536556Y105878D01*
X536350Y105651D01*
X536138Y105429D01*
X535921Y105212D01*
X535699Y105000D01*
X535472Y104794D01*
X535239Y104593D01*
X535003Y104398D01*
X534761Y104209D01*
X534515Y104025D01*
X534264Y103848D01*
X534010Y103677D01*
X533751Y103512D01*
X533488Y103353D01*
X533222Y103201D01*
X532952Y103055D01*
X532679Y102915D01*
X532402Y102783D01*
X532122Y102657D01*
X531839Y102538D01*
X531553Y102425D01*
X531265Y102320D01*
X530975Y102222D01*
X530682Y102130D01*
X530386Y102046D01*
X530089Y101969D01*
X529790Y101899D01*
X529490Y101837D01*
X529188Y101781D01*
X528885Y101733D01*
X528581Y101693D01*
X528276Y101659D01*
X527970Y101633D01*
X527664Y101615D01*
X527357Y101604D01*
X527050Y101600D01*
X520700Y101600D01*
X520700Y173038D02*
X438150Y173038D01*
X438150Y93662D01*
X520700Y93662D01*
D10*
X408178Y156972D02*
X397002Y156972D01*
X397002Y160076D01*
X397004Y160187D01*
X397010Y160297D01*
X397020Y160408D01*
X397034Y160518D01*
X397051Y160627D01*
X397073Y160736D01*
X397098Y160844D01*
X397128Y160950D01*
X397161Y161056D01*
X397198Y161161D01*
X397238Y161264D01*
X397283Y161365D01*
X397330Y161465D01*
X397382Y161564D01*
X397437Y161660D01*
X397495Y161754D01*
X397556Y161846D01*
X397621Y161936D01*
X397689Y162024D01*
X397760Y162109D01*
X397834Y162191D01*
X397911Y162271D01*
X397991Y162348D01*
X398073Y162422D01*
X398158Y162493D01*
X398246Y162561D01*
X398336Y162626D01*
X398428Y162687D01*
X398522Y162745D01*
X398618Y162800D01*
X398717Y162852D01*
X398817Y162899D01*
X398918Y162944D01*
X399021Y162984D01*
X399126Y163021D01*
X399232Y163054D01*
X399338Y163084D01*
X399446Y163109D01*
X399555Y163131D01*
X399664Y163148D01*
X399774Y163162D01*
X399885Y163172D01*
X399995Y163178D01*
X400106Y163180D01*
X400217Y163178D01*
X400327Y163172D01*
X400438Y163162D01*
X400548Y163148D01*
X400657Y163131D01*
X400766Y163109D01*
X400874Y163084D01*
X400980Y163054D01*
X401086Y163021D01*
X401191Y162984D01*
X401294Y162944D01*
X401395Y162899D01*
X401495Y162852D01*
X401594Y162800D01*
X401690Y162745D01*
X401784Y162687D01*
X401876Y162626D01*
X401966Y162561D01*
X402054Y162493D01*
X402139Y162422D01*
X402221Y162348D01*
X402301Y162271D01*
X402378Y162191D01*
X402452Y162109D01*
X402523Y162024D01*
X402591Y161936D01*
X402656Y161846D01*
X402717Y161754D01*
X402775Y161660D01*
X402830Y161564D01*
X402882Y161465D01*
X402929Y161365D01*
X402974Y161264D01*
X403014Y161161D01*
X403051Y161056D01*
X403084Y160950D01*
X403114Y160844D01*
X403139Y160736D01*
X403161Y160627D01*
X403178Y160518D01*
X403192Y160408D01*
X403202Y160297D01*
X403208Y160187D01*
X403210Y160076D01*
X403211Y160076D02*
X403211Y156972D01*
X397002Y167428D02*
X397002Y173637D01*
X408178Y167428D01*
X408178Y173637D01*
X82550Y146340D02*
X82550Y138140D01*
X95250Y138140D02*
X95250Y146340D01*
D13*
X78232Y128878D02*
X71120Y128878D01*
X71120Y130854D01*
X71122Y130941D01*
X71128Y131029D01*
X71137Y131116D01*
X71151Y131202D01*
X71168Y131288D01*
X71189Y131372D01*
X71214Y131456D01*
X71243Y131539D01*
X71275Y131620D01*
X71310Y131700D01*
X71349Y131778D01*
X71392Y131855D01*
X71438Y131929D01*
X71487Y132001D01*
X71539Y132071D01*
X71595Y132139D01*
X71653Y132204D01*
X71714Y132267D01*
X71778Y132326D01*
X71845Y132383D01*
X71913Y132437D01*
X71985Y132488D01*
X72058Y132535D01*
X72133Y132580D01*
X72211Y132621D01*
X72290Y132658D01*
X72370Y132692D01*
X72452Y132722D01*
X72535Y132749D01*
X72620Y132772D01*
X72705Y132791D01*
X72791Y132806D01*
X72878Y132818D01*
X72965Y132826D01*
X73052Y132830D01*
X73140Y132830D01*
X73227Y132826D01*
X73314Y132818D01*
X73401Y132806D01*
X73487Y132791D01*
X73572Y132772D01*
X73657Y132749D01*
X73740Y132722D01*
X73822Y132692D01*
X73902Y132658D01*
X73981Y132621D01*
X74059Y132580D01*
X74134Y132535D01*
X74207Y132488D01*
X74279Y132437D01*
X74347Y132383D01*
X74414Y132326D01*
X74478Y132267D01*
X74539Y132204D01*
X74597Y132139D01*
X74653Y132071D01*
X74705Y132001D01*
X74754Y131929D01*
X74800Y131855D01*
X74843Y131778D01*
X74882Y131700D01*
X74917Y131620D01*
X74949Y131539D01*
X74978Y131456D01*
X75003Y131372D01*
X75024Y131288D01*
X75041Y131202D01*
X75055Y131116D01*
X75064Y131029D01*
X75070Y130941D01*
X75072Y130854D01*
X75071Y130854D02*
X75071Y128878D01*
X75071Y131249D02*
X78232Y132829D01*
X72700Y136133D02*
X71120Y138108D01*
X78232Y138108D01*
X78232Y136133D02*
X78232Y140084D01*
X74676Y143448D02*
X74528Y143450D01*
X74381Y143455D01*
X74233Y143465D01*
X74086Y143478D01*
X73939Y143494D01*
X73793Y143515D01*
X73648Y143539D01*
X73502Y143567D01*
X73358Y143598D01*
X73215Y143633D01*
X73072Y143672D01*
X72931Y143714D01*
X72790Y143760D01*
X72651Y143809D01*
X72513Y143862D01*
X72376Y143918D01*
X72241Y143978D01*
X72108Y144041D01*
X72037Y144067D01*
X71968Y144097D01*
X71900Y144131D01*
X71834Y144168D01*
X71770Y144208D01*
X71708Y144252D01*
X71649Y144298D01*
X71592Y144348D01*
X71538Y144401D01*
X71486Y144456D01*
X71438Y144514D01*
X71392Y144574D01*
X71350Y144637D01*
X71311Y144702D01*
X71275Y144768D01*
X71243Y144837D01*
X71215Y144906D01*
X71190Y144978D01*
X71169Y145050D01*
X71151Y145124D01*
X71138Y145198D01*
X71128Y145273D01*
X71122Y145348D01*
X71120Y145424D01*
X71122Y145500D01*
X71128Y145575D01*
X71138Y145650D01*
X71151Y145724D01*
X71169Y145798D01*
X71190Y145870D01*
X71215Y145942D01*
X71243Y146011D01*
X71275Y146080D01*
X71311Y146146D01*
X71350Y146211D01*
X71392Y146274D01*
X71438Y146334D01*
X71486Y146392D01*
X71538Y146447D01*
X71592Y146500D01*
X71649Y146550D01*
X71708Y146596D01*
X71770Y146640D01*
X71834Y146680D01*
X71900Y146717D01*
X71968Y146751D01*
X72037Y146781D01*
X72108Y146807D01*
X72108Y146806D02*
X72241Y146869D01*
X72376Y146929D01*
X72513Y146985D01*
X72651Y147038D01*
X72790Y147087D01*
X72931Y147133D01*
X73072Y147175D01*
X73215Y147214D01*
X73358Y147249D01*
X73502Y147280D01*
X73648Y147308D01*
X73793Y147332D01*
X73939Y147353D01*
X74086Y147369D01*
X74233Y147382D01*
X74381Y147392D01*
X74528Y147397D01*
X74676Y147399D01*
X74676Y143448D02*
X74824Y143450D01*
X74971Y143455D01*
X75119Y143465D01*
X75266Y143478D01*
X75413Y143494D01*
X75559Y143515D01*
X75704Y143539D01*
X75850Y143567D01*
X75994Y143598D01*
X76137Y143633D01*
X76280Y143672D01*
X76421Y143714D01*
X76562Y143760D01*
X76701Y143809D01*
X76839Y143862D01*
X76976Y143918D01*
X77111Y143978D01*
X77244Y144041D01*
X77315Y144067D01*
X77384Y144097D01*
X77452Y144131D01*
X77518Y144168D01*
X77582Y144208D01*
X77644Y144252D01*
X77703Y144298D01*
X77760Y144348D01*
X77814Y144401D01*
X77866Y144456D01*
X77914Y144514D01*
X77960Y144574D01*
X78002Y144637D01*
X78041Y144702D01*
X78077Y144768D01*
X78109Y144837D01*
X78137Y144907D01*
X78162Y144978D01*
X78183Y145050D01*
X78201Y145124D01*
X78214Y145198D01*
X78224Y145273D01*
X78230Y145348D01*
X78232Y145424D01*
X77244Y146806D02*
X77111Y146869D01*
X76976Y146929D01*
X76839Y146985D01*
X76701Y147038D01*
X76562Y147087D01*
X76421Y147133D01*
X76280Y147175D01*
X76137Y147214D01*
X75994Y147249D01*
X75850Y147280D01*
X75704Y147308D01*
X75559Y147332D01*
X75413Y147353D01*
X75266Y147369D01*
X75119Y147382D01*
X74971Y147392D01*
X74824Y147397D01*
X74676Y147399D01*
X77244Y146807D02*
X77315Y146781D01*
X77384Y146751D01*
X77452Y146717D01*
X77518Y146680D01*
X77582Y146640D01*
X77644Y146596D01*
X77703Y146550D01*
X77760Y146500D01*
X77814Y146447D01*
X77866Y146392D01*
X77914Y146334D01*
X77960Y146274D01*
X78002Y146211D01*
X78041Y146146D01*
X78077Y146080D01*
X78109Y146011D01*
X78137Y145941D01*
X78162Y145870D01*
X78183Y145798D01*
X78201Y145724D01*
X78214Y145650D01*
X78224Y145575D01*
X78230Y145500D01*
X78232Y145424D01*
X76652Y143843D02*
X72700Y147004D01*
X99568Y130207D02*
X101148Y128231D01*
X99568Y130207D02*
X106680Y130207D01*
X106680Y132182D02*
X106680Y128231D01*
X103124Y135546D02*
X102976Y135548D01*
X102829Y135553D01*
X102681Y135563D01*
X102534Y135576D01*
X102387Y135592D01*
X102241Y135613D01*
X102096Y135637D01*
X101950Y135665D01*
X101806Y135696D01*
X101663Y135731D01*
X101520Y135770D01*
X101379Y135812D01*
X101238Y135858D01*
X101099Y135907D01*
X100961Y135960D01*
X100824Y136016D01*
X100689Y136076D01*
X100556Y136139D01*
X100485Y136165D01*
X100416Y136195D01*
X100348Y136229D01*
X100282Y136266D01*
X100218Y136306D01*
X100156Y136350D01*
X100097Y136396D01*
X100040Y136446D01*
X99986Y136499D01*
X99934Y136554D01*
X99886Y136612D01*
X99840Y136672D01*
X99798Y136735D01*
X99759Y136800D01*
X99723Y136866D01*
X99691Y136935D01*
X99663Y137004D01*
X99638Y137076D01*
X99617Y137148D01*
X99599Y137222D01*
X99586Y137296D01*
X99576Y137371D01*
X99570Y137446D01*
X99568Y137522D01*
X99570Y137598D01*
X99576Y137673D01*
X99586Y137748D01*
X99599Y137822D01*
X99617Y137896D01*
X99638Y137968D01*
X99663Y138040D01*
X99691Y138109D01*
X99723Y138178D01*
X99759Y138244D01*
X99798Y138309D01*
X99840Y138372D01*
X99886Y138432D01*
X99934Y138490D01*
X99986Y138545D01*
X100040Y138598D01*
X100097Y138648D01*
X100156Y138694D01*
X100218Y138738D01*
X100282Y138778D01*
X100348Y138815D01*
X100416Y138849D01*
X100485Y138879D01*
X100556Y138905D01*
X100556Y138904D02*
X100689Y138967D01*
X100824Y139027D01*
X100961Y139083D01*
X101099Y139136D01*
X101238Y139185D01*
X101379Y139231D01*
X101520Y139273D01*
X101663Y139312D01*
X101806Y139347D01*
X101950Y139378D01*
X102096Y139406D01*
X102241Y139430D01*
X102387Y139451D01*
X102534Y139467D01*
X102681Y139480D01*
X102829Y139490D01*
X102976Y139495D01*
X103124Y139497D01*
X103124Y135546D02*
X103272Y135548D01*
X103419Y135553D01*
X103567Y135563D01*
X103714Y135576D01*
X103861Y135592D01*
X104007Y135613D01*
X104152Y135637D01*
X104298Y135665D01*
X104442Y135696D01*
X104585Y135731D01*
X104728Y135770D01*
X104869Y135812D01*
X105010Y135858D01*
X105149Y135907D01*
X105287Y135960D01*
X105424Y136016D01*
X105559Y136076D01*
X105692Y136139D01*
X105763Y136165D01*
X105832Y136195D01*
X105900Y136229D01*
X105966Y136266D01*
X106030Y136306D01*
X106092Y136350D01*
X106151Y136396D01*
X106208Y136446D01*
X106262Y136499D01*
X106314Y136554D01*
X106362Y136612D01*
X106408Y136672D01*
X106450Y136735D01*
X106489Y136800D01*
X106525Y136866D01*
X106557Y136935D01*
X106585Y137005D01*
X106610Y137076D01*
X106631Y137148D01*
X106649Y137222D01*
X106662Y137296D01*
X106672Y137371D01*
X106678Y137446D01*
X106680Y137522D01*
X105692Y138904D02*
X105559Y138967D01*
X105424Y139027D01*
X105287Y139083D01*
X105149Y139136D01*
X105010Y139185D01*
X104869Y139231D01*
X104728Y139273D01*
X104585Y139312D01*
X104442Y139347D01*
X104298Y139378D01*
X104152Y139406D01*
X104007Y139430D01*
X103861Y139451D01*
X103714Y139467D01*
X103567Y139480D01*
X103419Y139490D01*
X103272Y139495D01*
X103124Y139497D01*
X105692Y138905D02*
X105763Y138879D01*
X105832Y138849D01*
X105900Y138815D01*
X105966Y138778D01*
X106030Y138738D01*
X106092Y138694D01*
X106151Y138648D01*
X106208Y138598D01*
X106262Y138545D01*
X106314Y138490D01*
X106362Y138432D01*
X106408Y138372D01*
X106450Y138309D01*
X106489Y138244D01*
X106525Y138178D01*
X106557Y138109D01*
X106585Y138039D01*
X106610Y137968D01*
X106631Y137896D01*
X106649Y137822D01*
X106662Y137748D01*
X106672Y137673D01*
X106678Y137598D01*
X106680Y137522D01*
X105100Y135941D02*
X101148Y139102D01*
X103124Y142861D02*
X102976Y142863D01*
X102829Y142868D01*
X102681Y142878D01*
X102534Y142891D01*
X102387Y142907D01*
X102241Y142928D01*
X102096Y142952D01*
X101950Y142980D01*
X101806Y143011D01*
X101663Y143046D01*
X101520Y143085D01*
X101379Y143127D01*
X101238Y143173D01*
X101099Y143222D01*
X100961Y143275D01*
X100824Y143331D01*
X100689Y143391D01*
X100556Y143454D01*
X100485Y143480D01*
X100416Y143510D01*
X100348Y143544D01*
X100282Y143581D01*
X100218Y143621D01*
X100156Y143665D01*
X100097Y143711D01*
X100040Y143761D01*
X99986Y143814D01*
X99934Y143869D01*
X99886Y143927D01*
X99840Y143987D01*
X99798Y144050D01*
X99759Y144115D01*
X99723Y144181D01*
X99691Y144250D01*
X99663Y144319D01*
X99638Y144391D01*
X99617Y144463D01*
X99599Y144537D01*
X99586Y144611D01*
X99576Y144686D01*
X99570Y144761D01*
X99568Y144837D01*
X99570Y144913D01*
X99576Y144988D01*
X99586Y145063D01*
X99599Y145137D01*
X99617Y145211D01*
X99638Y145283D01*
X99663Y145355D01*
X99691Y145424D01*
X99723Y145493D01*
X99759Y145559D01*
X99798Y145624D01*
X99840Y145687D01*
X99886Y145747D01*
X99934Y145805D01*
X99986Y145860D01*
X100040Y145913D01*
X100097Y145963D01*
X100156Y146009D01*
X100218Y146053D01*
X100282Y146093D01*
X100348Y146130D01*
X100416Y146164D01*
X100485Y146194D01*
X100556Y146220D01*
X100689Y146283D01*
X100824Y146343D01*
X100961Y146399D01*
X101099Y146452D01*
X101238Y146501D01*
X101379Y146547D01*
X101520Y146589D01*
X101663Y146628D01*
X101806Y146663D01*
X101950Y146694D01*
X102096Y146722D01*
X102241Y146746D01*
X102387Y146767D01*
X102534Y146783D01*
X102681Y146796D01*
X102829Y146806D01*
X102976Y146811D01*
X103124Y146813D01*
X103124Y142862D02*
X103272Y142864D01*
X103419Y142869D01*
X103567Y142879D01*
X103714Y142892D01*
X103861Y142908D01*
X104007Y142929D01*
X104152Y142953D01*
X104298Y142981D01*
X104442Y143012D01*
X104585Y143047D01*
X104728Y143086D01*
X104869Y143128D01*
X105010Y143174D01*
X105149Y143223D01*
X105287Y143276D01*
X105424Y143332D01*
X105559Y143392D01*
X105692Y143455D01*
X105692Y143454D02*
X105763Y143480D01*
X105832Y143510D01*
X105900Y143544D01*
X105966Y143581D01*
X106030Y143621D01*
X106092Y143665D01*
X106151Y143711D01*
X106208Y143761D01*
X106262Y143814D01*
X106314Y143869D01*
X106362Y143927D01*
X106408Y143987D01*
X106450Y144050D01*
X106489Y144115D01*
X106525Y144181D01*
X106557Y144250D01*
X106585Y144320D01*
X106610Y144391D01*
X106631Y144463D01*
X106649Y144537D01*
X106662Y144611D01*
X106672Y144686D01*
X106678Y144761D01*
X106680Y144837D01*
X105692Y146220D02*
X105559Y146283D01*
X105424Y146343D01*
X105287Y146399D01*
X105149Y146452D01*
X105010Y146501D01*
X104869Y146547D01*
X104728Y146589D01*
X104585Y146628D01*
X104442Y146663D01*
X104298Y146694D01*
X104152Y146722D01*
X104007Y146746D01*
X103861Y146767D01*
X103714Y146783D01*
X103567Y146796D01*
X103419Y146806D01*
X103272Y146811D01*
X103124Y146813D01*
X105692Y146220D02*
X105763Y146194D01*
X105832Y146164D01*
X105900Y146130D01*
X105966Y146093D01*
X106030Y146053D01*
X106092Y146009D01*
X106151Y145963D01*
X106208Y145913D01*
X106262Y145860D01*
X106314Y145805D01*
X106362Y145747D01*
X106408Y145687D01*
X106450Y145624D01*
X106489Y145559D01*
X106525Y145493D01*
X106557Y145424D01*
X106585Y145354D01*
X106610Y145283D01*
X106631Y145211D01*
X106649Y145137D01*
X106662Y145063D01*
X106672Y144988D01*
X106678Y144913D01*
X106680Y144837D01*
X105100Y143257D02*
X101148Y146418D01*
X99568Y150481D02*
X106680Y150481D01*
X99568Y150481D02*
X99568Y152456D01*
X99570Y152543D01*
X99576Y152631D01*
X99585Y152718D01*
X99599Y152804D01*
X99616Y152890D01*
X99637Y152974D01*
X99662Y153058D01*
X99691Y153141D01*
X99723Y153222D01*
X99758Y153302D01*
X99797Y153380D01*
X99840Y153457D01*
X99886Y153531D01*
X99935Y153603D01*
X99987Y153673D01*
X100043Y153741D01*
X100101Y153806D01*
X100162Y153869D01*
X100226Y153928D01*
X100293Y153985D01*
X100361Y154039D01*
X100433Y154090D01*
X100506Y154137D01*
X100581Y154182D01*
X100659Y154223D01*
X100738Y154260D01*
X100818Y154294D01*
X100900Y154324D01*
X100983Y154351D01*
X101068Y154374D01*
X101153Y154393D01*
X101239Y154408D01*
X101326Y154420D01*
X101413Y154428D01*
X101500Y154432D01*
X101588Y154432D01*
X101675Y154428D01*
X101762Y154420D01*
X101849Y154408D01*
X101935Y154393D01*
X102020Y154374D01*
X102105Y154351D01*
X102188Y154324D01*
X102270Y154294D01*
X102350Y154260D01*
X102429Y154223D01*
X102507Y154182D01*
X102582Y154137D01*
X102655Y154090D01*
X102727Y154039D01*
X102795Y153985D01*
X102862Y153928D01*
X102926Y153869D01*
X102987Y153806D01*
X103045Y153741D01*
X103101Y153673D01*
X103153Y153603D01*
X103202Y153531D01*
X103248Y153457D01*
X103291Y153380D01*
X103330Y153302D01*
X103365Y153222D01*
X103397Y153141D01*
X103426Y153058D01*
X103451Y152974D01*
X103472Y152890D01*
X103489Y152804D01*
X103503Y152718D01*
X103512Y152631D01*
X103518Y152543D01*
X103520Y152456D01*
X103519Y152456D02*
X103519Y150481D01*
X103519Y152852D02*
X106680Y154432D01*
D10*
X171450Y105700D02*
X171450Y97500D01*
X184150Y97500D02*
X184150Y105700D01*
D11*
X171048Y85979D02*
X171048Y80645D01*
X171048Y85979D02*
X172530Y85979D01*
X172606Y85977D01*
X172682Y85971D01*
X172758Y85961D01*
X172833Y85948D01*
X172907Y85930D01*
X172981Y85909D01*
X173053Y85884D01*
X173123Y85855D01*
X173193Y85823D01*
X173260Y85787D01*
X173325Y85747D01*
X173389Y85705D01*
X173450Y85659D01*
X173508Y85610D01*
X173564Y85558D01*
X173618Y85504D01*
X173668Y85446D01*
X173715Y85387D01*
X173760Y85324D01*
X173801Y85260D01*
X173838Y85194D01*
X173872Y85125D01*
X173903Y85055D01*
X173930Y84984D01*
X173953Y84911D01*
X173972Y84837D01*
X173988Y84763D01*
X174000Y84687D01*
X174008Y84611D01*
X174012Y84535D01*
X174012Y84459D01*
X174008Y84383D01*
X174000Y84307D01*
X173988Y84231D01*
X173972Y84157D01*
X173953Y84083D01*
X173930Y84010D01*
X173903Y83939D01*
X173872Y83869D01*
X173838Y83800D01*
X173801Y83734D01*
X173760Y83670D01*
X173715Y83607D01*
X173668Y83548D01*
X173618Y83490D01*
X173564Y83436D01*
X173508Y83384D01*
X173450Y83335D01*
X173389Y83289D01*
X173325Y83247D01*
X173260Y83207D01*
X173193Y83171D01*
X173123Y83139D01*
X173053Y83110D01*
X172981Y83085D01*
X172907Y83064D01*
X172833Y83046D01*
X172758Y83033D01*
X172682Y83023D01*
X172606Y83017D01*
X172530Y83015D01*
X172530Y83016D02*
X171048Y83016D01*
X172826Y83016D02*
X174012Y80645D01*
X176489Y84794D02*
X177971Y85979D01*
X177971Y80645D01*
X176489Y80645D02*
X179453Y80645D01*
X183606Y85979D02*
X183678Y85977D01*
X183750Y85971D01*
X183822Y85961D01*
X183893Y85948D01*
X183963Y85930D01*
X184032Y85909D01*
X184100Y85884D01*
X184166Y85856D01*
X184231Y85824D01*
X184294Y85788D01*
X184355Y85749D01*
X184413Y85707D01*
X184470Y85662D01*
X184523Y85613D01*
X184574Y85562D01*
X184623Y85509D01*
X184668Y85452D01*
X184710Y85394D01*
X184749Y85333D01*
X184785Y85270D01*
X184817Y85205D01*
X184845Y85139D01*
X184870Y85071D01*
X184891Y85002D01*
X184909Y84932D01*
X184922Y84861D01*
X184932Y84789D01*
X184938Y84717D01*
X184940Y84645D01*
X183606Y85979D02*
X183526Y85977D01*
X183447Y85972D01*
X183367Y85962D01*
X183289Y85949D01*
X183211Y85933D01*
X183133Y85913D01*
X183057Y85889D01*
X182982Y85861D01*
X182909Y85831D01*
X182837Y85797D01*
X182766Y85759D01*
X182698Y85718D01*
X182631Y85674D01*
X182566Y85628D01*
X182504Y85578D01*
X182444Y85525D01*
X182387Y85469D01*
X182332Y85411D01*
X182280Y85351D01*
X182231Y85288D01*
X182185Y85223D01*
X182142Y85156D01*
X182102Y85087D01*
X182066Y85016D01*
X182032Y84943D01*
X182003Y84869D01*
X181976Y84794D01*
X184495Y83608D02*
X184546Y83659D01*
X184594Y83713D01*
X184640Y83769D01*
X184683Y83828D01*
X184723Y83888D01*
X184759Y83951D01*
X184793Y84015D01*
X184823Y84081D01*
X184850Y84148D01*
X184873Y84217D01*
X184893Y84286D01*
X184910Y84357D01*
X184923Y84428D01*
X184932Y84500D01*
X184937Y84573D01*
X184939Y84645D01*
X184495Y83608D02*
X181976Y80645D01*
X184939Y80645D01*
D17*
X171704Y118590D02*
X172692Y119380D01*
X172692Y115824D01*
X171704Y115824D02*
X173680Y115824D01*
X175362Y117602D02*
X175364Y117704D01*
X175369Y117806D01*
X175378Y117908D01*
X175390Y118010D01*
X175406Y118111D01*
X175426Y118211D01*
X175449Y118311D01*
X175475Y118409D01*
X175505Y118507D01*
X175539Y118604D01*
X175575Y118699D01*
X175615Y118793D01*
X175658Y118886D01*
X175677Y118936D01*
X175699Y118984D01*
X175726Y119031D01*
X175755Y119075D01*
X175788Y119117D01*
X175823Y119157D01*
X175862Y119194D01*
X175903Y119228D01*
X175946Y119259D01*
X175992Y119287D01*
X176039Y119311D01*
X176088Y119332D01*
X176139Y119349D01*
X176190Y119363D01*
X176243Y119372D01*
X176296Y119378D01*
X176349Y119380D01*
X176402Y119378D01*
X176455Y119372D01*
X176508Y119363D01*
X176559Y119349D01*
X176610Y119332D01*
X176659Y119311D01*
X176706Y119287D01*
X176752Y119259D01*
X176795Y119228D01*
X176836Y119194D01*
X176875Y119157D01*
X176910Y119117D01*
X176943Y119075D01*
X176973Y119031D01*
X176999Y118984D01*
X177021Y118936D01*
X177040Y118886D01*
X177041Y118886D02*
X177084Y118793D01*
X177124Y118699D01*
X177160Y118604D01*
X177194Y118507D01*
X177224Y118409D01*
X177250Y118311D01*
X177273Y118211D01*
X177293Y118111D01*
X177309Y118010D01*
X177321Y117908D01*
X177330Y117806D01*
X177335Y117704D01*
X177337Y117602D01*
X175361Y117602D02*
X175363Y117500D01*
X175368Y117398D01*
X175377Y117296D01*
X175389Y117194D01*
X175405Y117093D01*
X175425Y116993D01*
X175448Y116893D01*
X175474Y116794D01*
X175504Y116697D01*
X175538Y116600D01*
X175574Y116505D01*
X175614Y116410D01*
X175657Y116318D01*
X175658Y116318D02*
X175677Y116268D01*
X175699Y116220D01*
X175726Y116173D01*
X175755Y116129D01*
X175788Y116087D01*
X175823Y116047D01*
X175862Y116010D01*
X175903Y115976D01*
X175946Y115945D01*
X175992Y115917D01*
X176039Y115893D01*
X176088Y115872D01*
X176139Y115855D01*
X176190Y115841D01*
X176243Y115832D01*
X176296Y115826D01*
X176349Y115824D01*
X177041Y116318D02*
X177084Y116410D01*
X177124Y116505D01*
X177160Y116600D01*
X177194Y116697D01*
X177224Y116794D01*
X177250Y116893D01*
X177273Y116993D01*
X177293Y117093D01*
X177309Y117194D01*
X177321Y117296D01*
X177330Y117398D01*
X177335Y117500D01*
X177337Y117602D01*
X177040Y116318D02*
X177021Y116268D01*
X176999Y116220D01*
X176972Y116173D01*
X176943Y116129D01*
X176910Y116087D01*
X176875Y116047D01*
X176836Y116010D01*
X176795Y115976D01*
X176752Y115945D01*
X176706Y115917D01*
X176659Y115893D01*
X176610Y115872D01*
X176559Y115855D01*
X176508Y115841D01*
X176455Y115832D01*
X176402Y115826D01*
X176349Y115824D01*
X175559Y116614D02*
X177140Y118590D01*
X179020Y117602D02*
X179022Y117704D01*
X179027Y117806D01*
X179036Y117908D01*
X179048Y118010D01*
X179064Y118111D01*
X179084Y118211D01*
X179107Y118311D01*
X179133Y118409D01*
X179163Y118507D01*
X179197Y118604D01*
X179233Y118699D01*
X179273Y118793D01*
X179316Y118886D01*
X179335Y118936D01*
X179357Y118984D01*
X179384Y119031D01*
X179413Y119075D01*
X179446Y119117D01*
X179481Y119157D01*
X179520Y119194D01*
X179561Y119228D01*
X179604Y119259D01*
X179650Y119287D01*
X179697Y119311D01*
X179746Y119332D01*
X179797Y119349D01*
X179848Y119363D01*
X179901Y119372D01*
X179954Y119378D01*
X180007Y119380D01*
X180060Y119378D01*
X180113Y119372D01*
X180166Y119363D01*
X180217Y119349D01*
X180268Y119332D01*
X180317Y119311D01*
X180364Y119287D01*
X180410Y119259D01*
X180453Y119228D01*
X180494Y119194D01*
X180533Y119157D01*
X180568Y119117D01*
X180601Y119075D01*
X180631Y119031D01*
X180657Y118984D01*
X180679Y118936D01*
X180698Y118886D01*
X180741Y118793D01*
X180781Y118699D01*
X180817Y118604D01*
X180851Y118507D01*
X180881Y118409D01*
X180907Y118311D01*
X180930Y118211D01*
X180950Y118111D01*
X180966Y118010D01*
X180978Y117908D01*
X180987Y117806D01*
X180992Y117704D01*
X180994Y117602D01*
X179019Y117602D02*
X179021Y117500D01*
X179026Y117398D01*
X179035Y117296D01*
X179047Y117194D01*
X179063Y117093D01*
X179083Y116993D01*
X179106Y116893D01*
X179132Y116794D01*
X179162Y116697D01*
X179196Y116600D01*
X179232Y116505D01*
X179272Y116410D01*
X179315Y116318D01*
X179316Y116318D02*
X179335Y116268D01*
X179357Y116220D01*
X179384Y116173D01*
X179413Y116129D01*
X179446Y116087D01*
X179481Y116047D01*
X179520Y116010D01*
X179561Y115976D01*
X179604Y115945D01*
X179650Y115917D01*
X179697Y115893D01*
X179746Y115872D01*
X179797Y115855D01*
X179848Y115841D01*
X179901Y115832D01*
X179954Y115826D01*
X180007Y115824D01*
X180699Y116318D02*
X180742Y116410D01*
X180782Y116505D01*
X180818Y116600D01*
X180852Y116697D01*
X180882Y116794D01*
X180908Y116893D01*
X180931Y116993D01*
X180951Y117093D01*
X180967Y117194D01*
X180979Y117296D01*
X180988Y117398D01*
X180993Y117500D01*
X180995Y117602D01*
X180698Y116318D02*
X180679Y116268D01*
X180657Y116220D01*
X180630Y116173D01*
X180601Y116129D01*
X180568Y116087D01*
X180533Y116047D01*
X180494Y116010D01*
X180453Y115976D01*
X180410Y115945D01*
X180364Y115917D01*
X180317Y115893D01*
X180268Y115872D01*
X180217Y115855D01*
X180166Y115841D01*
X180113Y115832D01*
X180060Y115826D01*
X180007Y115824D01*
X179217Y116614D02*
X180797Y118590D01*
X182829Y119380D02*
X182829Y115824D01*
X182829Y119380D02*
X183817Y119380D01*
X183879Y119378D01*
X183941Y119372D01*
X184002Y119362D01*
X184063Y119349D01*
X184122Y119332D01*
X184181Y119311D01*
X184238Y119286D01*
X184293Y119258D01*
X184346Y119226D01*
X184398Y119191D01*
X184447Y119153D01*
X184493Y119112D01*
X184537Y119068D01*
X184578Y119022D01*
X184616Y118973D01*
X184651Y118921D01*
X184683Y118868D01*
X184711Y118813D01*
X184736Y118756D01*
X184757Y118697D01*
X184774Y118638D01*
X184787Y118577D01*
X184797Y118516D01*
X184803Y118454D01*
X184805Y118392D01*
X184803Y118330D01*
X184797Y118268D01*
X184787Y118207D01*
X184774Y118146D01*
X184757Y118087D01*
X184736Y118028D01*
X184711Y117971D01*
X184683Y117916D01*
X184651Y117863D01*
X184616Y117811D01*
X184578Y117762D01*
X184537Y117716D01*
X184493Y117672D01*
X184447Y117631D01*
X184398Y117593D01*
X184346Y117558D01*
X184293Y117526D01*
X184238Y117498D01*
X184181Y117473D01*
X184122Y117452D01*
X184063Y117435D01*
X184002Y117422D01*
X183941Y117412D01*
X183879Y117406D01*
X183817Y117404D01*
X182829Y117404D01*
X184014Y117404D02*
X184804Y115824D01*
D10*
X146050Y141950D02*
X146050Y150150D01*
X133350Y150150D02*
X133350Y141950D01*
D13*
X134236Y131572D02*
X134236Y124460D01*
X134236Y131572D02*
X136212Y131572D01*
X136299Y131570D01*
X136387Y131564D01*
X136474Y131555D01*
X136560Y131541D01*
X136646Y131524D01*
X136730Y131503D01*
X136814Y131478D01*
X136897Y131449D01*
X136978Y131417D01*
X137058Y131382D01*
X137136Y131343D01*
X137213Y131300D01*
X137287Y131254D01*
X137359Y131205D01*
X137429Y131153D01*
X137497Y131097D01*
X137562Y131039D01*
X137625Y130978D01*
X137684Y130914D01*
X137741Y130847D01*
X137795Y130779D01*
X137846Y130707D01*
X137893Y130634D01*
X137938Y130559D01*
X137979Y130481D01*
X138016Y130402D01*
X138050Y130322D01*
X138080Y130240D01*
X138107Y130157D01*
X138130Y130072D01*
X138149Y129987D01*
X138164Y129901D01*
X138176Y129814D01*
X138184Y129727D01*
X138188Y129640D01*
X138188Y129552D01*
X138184Y129465D01*
X138176Y129378D01*
X138164Y129291D01*
X138149Y129205D01*
X138130Y129120D01*
X138107Y129035D01*
X138080Y128952D01*
X138050Y128870D01*
X138016Y128790D01*
X137979Y128711D01*
X137938Y128633D01*
X137893Y128558D01*
X137846Y128485D01*
X137795Y128413D01*
X137741Y128345D01*
X137684Y128278D01*
X137625Y128214D01*
X137562Y128153D01*
X137497Y128095D01*
X137429Y128039D01*
X137359Y127987D01*
X137287Y127938D01*
X137213Y127892D01*
X137136Y127849D01*
X137058Y127810D01*
X136978Y127775D01*
X136897Y127743D01*
X136814Y127714D01*
X136730Y127689D01*
X136646Y127668D01*
X136560Y127651D01*
X136474Y127637D01*
X136387Y127628D01*
X136299Y127622D01*
X136212Y127620D01*
X136212Y127621D02*
X134236Y127621D01*
X136607Y127621D02*
X138187Y124460D01*
X143071Y127621D02*
X145442Y127621D01*
X143071Y127621D02*
X142993Y127623D01*
X142916Y127629D01*
X142839Y127638D01*
X142763Y127651D01*
X142687Y127668D01*
X142612Y127689D01*
X142539Y127713D01*
X142466Y127741D01*
X142395Y127773D01*
X142326Y127808D01*
X142259Y127846D01*
X142193Y127887D01*
X142130Y127932D01*
X142069Y127980D01*
X142010Y128030D01*
X141954Y128084D01*
X141900Y128140D01*
X141850Y128199D01*
X141802Y128260D01*
X141757Y128323D01*
X141716Y128389D01*
X141678Y128456D01*
X141643Y128525D01*
X141611Y128596D01*
X141583Y128669D01*
X141559Y128742D01*
X141538Y128817D01*
X141521Y128893D01*
X141508Y128969D01*
X141499Y129046D01*
X141493Y129123D01*
X141491Y129201D01*
X141491Y129596D01*
X141490Y129596D02*
X141492Y129683D01*
X141498Y129771D01*
X141507Y129858D01*
X141521Y129944D01*
X141538Y130030D01*
X141559Y130114D01*
X141584Y130198D01*
X141613Y130281D01*
X141645Y130362D01*
X141680Y130442D01*
X141719Y130520D01*
X141762Y130597D01*
X141808Y130671D01*
X141857Y130743D01*
X141909Y130813D01*
X141965Y130881D01*
X142023Y130946D01*
X142084Y131009D01*
X142148Y131068D01*
X142215Y131125D01*
X142283Y131179D01*
X142355Y131230D01*
X142428Y131277D01*
X142503Y131322D01*
X142581Y131363D01*
X142660Y131400D01*
X142740Y131434D01*
X142822Y131464D01*
X142905Y131491D01*
X142990Y131514D01*
X143075Y131533D01*
X143161Y131548D01*
X143248Y131560D01*
X143335Y131568D01*
X143422Y131572D01*
X143510Y131572D01*
X143597Y131568D01*
X143684Y131560D01*
X143771Y131548D01*
X143857Y131533D01*
X143942Y131514D01*
X144027Y131491D01*
X144110Y131464D01*
X144192Y131434D01*
X144272Y131400D01*
X144351Y131363D01*
X144429Y131322D01*
X144504Y131277D01*
X144577Y131230D01*
X144649Y131179D01*
X144717Y131125D01*
X144784Y131068D01*
X144848Y131009D01*
X144909Y130946D01*
X144967Y130881D01*
X145023Y130813D01*
X145075Y130743D01*
X145124Y130671D01*
X145170Y130597D01*
X145213Y130520D01*
X145252Y130442D01*
X145287Y130362D01*
X145319Y130281D01*
X145348Y130198D01*
X145373Y130114D01*
X145394Y130030D01*
X145411Y129944D01*
X145425Y129858D01*
X145434Y129771D01*
X145440Y129683D01*
X145442Y129596D01*
X145442Y127621D01*
X145440Y127511D01*
X145434Y127400D01*
X145425Y127291D01*
X145411Y127181D01*
X145394Y127072D01*
X145373Y126964D01*
X145348Y126856D01*
X145320Y126750D01*
X145287Y126644D01*
X145251Y126540D01*
X145212Y126437D01*
X145169Y126335D01*
X145122Y126235D01*
X145072Y126137D01*
X145019Y126040D01*
X144962Y125946D01*
X144902Y125853D01*
X144838Y125763D01*
X144772Y125675D01*
X144702Y125589D01*
X144630Y125506D01*
X144555Y125425D01*
X144477Y125347D01*
X144396Y125272D01*
X144313Y125200D01*
X144227Y125130D01*
X144139Y125064D01*
X144049Y125000D01*
X143956Y124940D01*
X143861Y124883D01*
X143765Y124830D01*
X143667Y124780D01*
X143567Y124733D01*
X143465Y124690D01*
X143362Y124651D01*
X143258Y124615D01*
X143152Y124582D01*
X143046Y124554D01*
X142938Y124529D01*
X142830Y124508D01*
X142721Y124491D01*
X142611Y124477D01*
X142502Y124468D01*
X142391Y124462D01*
X142281Y124460D01*
D11*
X132461Y165820D02*
X133943Y167005D01*
X133943Y161671D01*
X135424Y161671D02*
X132461Y161671D01*
X137947Y164338D02*
X137949Y164463D01*
X137954Y164587D01*
X137963Y164711D01*
X137975Y164835D01*
X137991Y164959D01*
X138010Y165082D01*
X138033Y165205D01*
X138060Y165327D01*
X138089Y165448D01*
X138122Y165568D01*
X138159Y165687D01*
X138199Y165805D01*
X138242Y165922D01*
X138289Y166037D01*
X138339Y166152D01*
X138392Y166264D01*
X138415Y166325D01*
X138441Y166384D01*
X138471Y166442D01*
X138504Y166497D01*
X138541Y166551D01*
X138580Y166602D01*
X138622Y166651D01*
X138668Y166697D01*
X138716Y166741D01*
X138766Y166782D01*
X138819Y166819D01*
X138873Y166854D01*
X138930Y166885D01*
X138989Y166913D01*
X139049Y166937D01*
X139110Y166958D01*
X139172Y166975D01*
X139236Y166988D01*
X139300Y166997D01*
X139364Y167003D01*
X139429Y167005D01*
X139494Y167003D01*
X139558Y166997D01*
X139622Y166988D01*
X139686Y166975D01*
X139748Y166958D01*
X139809Y166937D01*
X139869Y166913D01*
X139928Y166885D01*
X139985Y166854D01*
X140039Y166819D01*
X140092Y166782D01*
X140142Y166741D01*
X140190Y166697D01*
X140236Y166651D01*
X140278Y166602D01*
X140317Y166551D01*
X140354Y166497D01*
X140387Y166442D01*
X140417Y166384D01*
X140443Y166325D01*
X140466Y166264D01*
X140519Y166152D01*
X140569Y166037D01*
X140616Y165922D01*
X140659Y165805D01*
X140699Y165687D01*
X140736Y165568D01*
X140769Y165448D01*
X140798Y165327D01*
X140825Y165205D01*
X140848Y165082D01*
X140867Y164959D01*
X140883Y164835D01*
X140895Y164711D01*
X140904Y164587D01*
X140909Y164463D01*
X140911Y164338D01*
X137947Y164338D02*
X137949Y164213D01*
X137954Y164089D01*
X137963Y163965D01*
X137975Y163841D01*
X137991Y163717D01*
X138010Y163594D01*
X138033Y163471D01*
X138060Y163350D01*
X138089Y163229D01*
X138122Y163108D01*
X138159Y162989D01*
X138199Y162871D01*
X138242Y162754D01*
X138289Y162639D01*
X138339Y162524D01*
X138392Y162412D01*
X138415Y162351D01*
X138441Y162292D01*
X138471Y162234D01*
X138504Y162179D01*
X138541Y162125D01*
X138580Y162074D01*
X138622Y162025D01*
X138668Y161979D01*
X138716Y161935D01*
X138766Y161894D01*
X138819Y161857D01*
X138873Y161822D01*
X138930Y161791D01*
X138989Y161763D01*
X139049Y161739D01*
X139110Y161718D01*
X139172Y161701D01*
X139236Y161688D01*
X139300Y161679D01*
X139364Y161673D01*
X139429Y161671D01*
X140466Y162412D02*
X140519Y162524D01*
X140569Y162639D01*
X140616Y162754D01*
X140659Y162871D01*
X140699Y162989D01*
X140736Y163108D01*
X140769Y163229D01*
X140798Y163350D01*
X140825Y163471D01*
X140848Y163594D01*
X140867Y163717D01*
X140883Y163841D01*
X140895Y163965D01*
X140904Y164089D01*
X140909Y164213D01*
X140911Y164338D01*
X140466Y162412D02*
X140443Y162351D01*
X140417Y162292D01*
X140387Y162234D01*
X140354Y162179D01*
X140317Y162125D01*
X140278Y162074D01*
X140236Y162025D01*
X140190Y161979D01*
X140142Y161935D01*
X140092Y161894D01*
X140039Y161857D01*
X139985Y161822D01*
X139928Y161791D01*
X139869Y161763D01*
X139809Y161739D01*
X139748Y161718D01*
X139686Y161701D01*
X139622Y161688D01*
X139558Y161679D01*
X139494Y161673D01*
X139429Y161671D01*
X138244Y162856D02*
X140614Y165820D01*
X143721Y167005D02*
X143721Y161671D01*
X143721Y163745D02*
X146684Y167005D01*
X144906Y164931D02*
X146684Y161671D01*
D10*
X256250Y146050D02*
X264450Y146050D01*
X264450Y158750D02*
X256250Y158750D01*
D13*
X276098Y146936D02*
X283210Y146936D01*
X276098Y146936D02*
X276098Y148912D01*
X276100Y148999D01*
X276106Y149087D01*
X276115Y149174D01*
X276129Y149260D01*
X276146Y149346D01*
X276167Y149430D01*
X276192Y149514D01*
X276221Y149597D01*
X276253Y149678D01*
X276288Y149758D01*
X276327Y149836D01*
X276370Y149913D01*
X276416Y149987D01*
X276465Y150059D01*
X276517Y150129D01*
X276573Y150197D01*
X276631Y150262D01*
X276692Y150325D01*
X276756Y150384D01*
X276823Y150441D01*
X276891Y150495D01*
X276963Y150546D01*
X277036Y150593D01*
X277111Y150638D01*
X277189Y150679D01*
X277268Y150716D01*
X277348Y150750D01*
X277430Y150780D01*
X277513Y150807D01*
X277598Y150830D01*
X277683Y150849D01*
X277769Y150864D01*
X277856Y150876D01*
X277943Y150884D01*
X278030Y150888D01*
X278118Y150888D01*
X278205Y150884D01*
X278292Y150876D01*
X278379Y150864D01*
X278465Y150849D01*
X278550Y150830D01*
X278635Y150807D01*
X278718Y150780D01*
X278800Y150750D01*
X278880Y150716D01*
X278959Y150679D01*
X279037Y150638D01*
X279112Y150593D01*
X279185Y150546D01*
X279257Y150495D01*
X279325Y150441D01*
X279392Y150384D01*
X279456Y150325D01*
X279517Y150262D01*
X279575Y150197D01*
X279631Y150129D01*
X279683Y150059D01*
X279732Y149987D01*
X279778Y149913D01*
X279821Y149836D01*
X279860Y149758D01*
X279895Y149678D01*
X279927Y149597D01*
X279956Y149514D01*
X279981Y149430D01*
X280002Y149346D01*
X280019Y149260D01*
X280033Y149174D01*
X280042Y149087D01*
X280048Y148999D01*
X280050Y148912D01*
X280049Y148912D02*
X280049Y146936D01*
X280049Y149307D02*
X283210Y150887D01*
X281234Y154190D02*
X281147Y154192D01*
X281059Y154198D01*
X280972Y154207D01*
X280886Y154221D01*
X280800Y154238D01*
X280716Y154259D01*
X280632Y154284D01*
X280549Y154313D01*
X280468Y154345D01*
X280388Y154380D01*
X280310Y154419D01*
X280233Y154462D01*
X280159Y154508D01*
X280087Y154557D01*
X280017Y154609D01*
X279949Y154665D01*
X279884Y154723D01*
X279821Y154784D01*
X279762Y154848D01*
X279705Y154915D01*
X279651Y154983D01*
X279600Y155055D01*
X279553Y155128D01*
X279508Y155203D01*
X279467Y155281D01*
X279430Y155360D01*
X279396Y155440D01*
X279366Y155522D01*
X279339Y155605D01*
X279316Y155690D01*
X279297Y155775D01*
X279282Y155861D01*
X279270Y155948D01*
X279262Y156035D01*
X279258Y156122D01*
X279258Y156210D01*
X279262Y156297D01*
X279270Y156384D01*
X279282Y156471D01*
X279297Y156557D01*
X279316Y156642D01*
X279339Y156727D01*
X279366Y156810D01*
X279396Y156892D01*
X279430Y156972D01*
X279467Y157051D01*
X279508Y157129D01*
X279553Y157204D01*
X279600Y157277D01*
X279651Y157349D01*
X279705Y157417D01*
X279762Y157484D01*
X279821Y157548D01*
X279884Y157609D01*
X279949Y157667D01*
X280017Y157723D01*
X280087Y157775D01*
X280159Y157824D01*
X280233Y157870D01*
X280310Y157913D01*
X280388Y157952D01*
X280468Y157987D01*
X280549Y158019D01*
X280632Y158048D01*
X280716Y158073D01*
X280800Y158094D01*
X280886Y158111D01*
X280972Y158125D01*
X281059Y158134D01*
X281147Y158140D01*
X281234Y158142D01*
X281321Y158140D01*
X281409Y158134D01*
X281496Y158125D01*
X281582Y158111D01*
X281668Y158094D01*
X281752Y158073D01*
X281836Y158048D01*
X281919Y158019D01*
X282000Y157987D01*
X282080Y157952D01*
X282158Y157913D01*
X282235Y157870D01*
X282309Y157824D01*
X282381Y157775D01*
X282451Y157723D01*
X282519Y157667D01*
X282584Y157609D01*
X282647Y157548D01*
X282706Y157484D01*
X282763Y157417D01*
X282817Y157349D01*
X282868Y157277D01*
X282915Y157204D01*
X282960Y157129D01*
X283001Y157051D01*
X283038Y156972D01*
X283072Y156892D01*
X283102Y156810D01*
X283129Y156727D01*
X283152Y156642D01*
X283171Y156557D01*
X283186Y156471D01*
X283198Y156384D01*
X283206Y156297D01*
X283210Y156210D01*
X283210Y156122D01*
X283206Y156035D01*
X283198Y155948D01*
X283186Y155861D01*
X283171Y155775D01*
X283152Y155690D01*
X283129Y155605D01*
X283102Y155522D01*
X283072Y155440D01*
X283038Y155360D01*
X283001Y155281D01*
X282960Y155203D01*
X282915Y155128D01*
X282868Y155055D01*
X282817Y154983D01*
X282763Y154915D01*
X282706Y154848D01*
X282647Y154784D01*
X282584Y154723D01*
X282519Y154665D01*
X282451Y154609D01*
X282381Y154557D01*
X282309Y154508D01*
X282235Y154462D01*
X282158Y154419D01*
X282080Y154380D01*
X282000Y154345D01*
X281919Y154313D01*
X281836Y154284D01*
X281752Y154259D01*
X281668Y154238D01*
X281582Y154221D01*
X281496Y154207D01*
X281409Y154198D01*
X281321Y154192D01*
X281234Y154190D01*
X277678Y154586D02*
X277599Y154588D01*
X277521Y154594D01*
X277443Y154604D01*
X277365Y154617D01*
X277288Y154635D01*
X277212Y154656D01*
X277138Y154681D01*
X277064Y154710D01*
X276992Y154742D01*
X276922Y154778D01*
X276854Y154818D01*
X276788Y154861D01*
X276724Y154907D01*
X276662Y154956D01*
X276603Y155008D01*
X276547Y155063D01*
X276493Y155121D01*
X276443Y155181D01*
X276395Y155244D01*
X276351Y155309D01*
X276310Y155376D01*
X276272Y155445D01*
X276238Y155516D01*
X276207Y155589D01*
X276180Y155663D01*
X276157Y155738D01*
X276138Y155814D01*
X276122Y155892D01*
X276110Y155970D01*
X276102Y156048D01*
X276098Y156127D01*
X276098Y156205D01*
X276102Y156284D01*
X276110Y156362D01*
X276122Y156440D01*
X276138Y156518D01*
X276157Y156594D01*
X276180Y156669D01*
X276207Y156743D01*
X276238Y156816D01*
X276272Y156887D01*
X276310Y156956D01*
X276351Y157023D01*
X276395Y157088D01*
X276443Y157151D01*
X276493Y157211D01*
X276547Y157269D01*
X276603Y157324D01*
X276662Y157376D01*
X276724Y157425D01*
X276788Y157471D01*
X276854Y157514D01*
X276922Y157554D01*
X276992Y157590D01*
X277064Y157622D01*
X277138Y157651D01*
X277212Y157676D01*
X277288Y157697D01*
X277365Y157715D01*
X277443Y157728D01*
X277521Y157738D01*
X277599Y157744D01*
X277678Y157746D01*
X277757Y157744D01*
X277835Y157738D01*
X277913Y157728D01*
X277991Y157715D01*
X278068Y157697D01*
X278144Y157676D01*
X278218Y157651D01*
X278292Y157622D01*
X278364Y157590D01*
X278434Y157554D01*
X278502Y157514D01*
X278568Y157471D01*
X278632Y157425D01*
X278694Y157376D01*
X278753Y157324D01*
X278809Y157269D01*
X278863Y157211D01*
X278913Y157151D01*
X278961Y157088D01*
X279005Y157023D01*
X279046Y156956D01*
X279084Y156887D01*
X279118Y156816D01*
X279149Y156743D01*
X279176Y156669D01*
X279199Y156594D01*
X279218Y156518D01*
X279234Y156440D01*
X279246Y156362D01*
X279254Y156284D01*
X279258Y156205D01*
X279258Y156127D01*
X279254Y156048D01*
X279246Y155970D01*
X279234Y155892D01*
X279218Y155814D01*
X279199Y155738D01*
X279176Y155663D01*
X279149Y155589D01*
X279118Y155516D01*
X279084Y155445D01*
X279046Y155376D01*
X279005Y155309D01*
X278961Y155244D01*
X278913Y155181D01*
X278863Y155121D01*
X278809Y155063D01*
X278753Y155008D01*
X278694Y154956D01*
X278632Y154907D01*
X278568Y154861D01*
X278502Y154818D01*
X278434Y154778D01*
X278364Y154742D01*
X278292Y154710D01*
X278218Y154681D01*
X278144Y154656D01*
X278068Y154635D01*
X277991Y154617D01*
X277913Y154604D01*
X277835Y154594D01*
X277757Y154588D01*
X277678Y154586D01*
X237800Y146558D02*
X236220Y148534D01*
X243332Y148534D01*
X243332Y150509D02*
X243332Y146558D01*
X243332Y154210D02*
X236220Y154210D01*
X240171Y156580D01*
X236220Y158951D01*
X243332Y158951D01*
D10*
X285750Y118400D02*
X285750Y110200D01*
X298450Y110200D02*
X298450Y118400D01*
D13*
X286358Y130048D02*
X286358Y137160D01*
X288334Y137160D01*
X288421Y137158D01*
X288509Y137152D01*
X288596Y137143D01*
X288682Y137129D01*
X288768Y137112D01*
X288852Y137091D01*
X288936Y137066D01*
X289019Y137037D01*
X289100Y137005D01*
X289180Y136970D01*
X289258Y136931D01*
X289335Y136888D01*
X289409Y136842D01*
X289481Y136793D01*
X289551Y136741D01*
X289619Y136685D01*
X289684Y136627D01*
X289747Y136566D01*
X289806Y136502D01*
X289863Y136435D01*
X289917Y136367D01*
X289968Y136295D01*
X290015Y136222D01*
X290060Y136147D01*
X290101Y136069D01*
X290138Y135990D01*
X290172Y135910D01*
X290202Y135828D01*
X290229Y135745D01*
X290252Y135660D01*
X290271Y135575D01*
X290286Y135489D01*
X290298Y135402D01*
X290306Y135315D01*
X290310Y135228D01*
X290310Y135140D01*
X290306Y135053D01*
X290298Y134966D01*
X290286Y134879D01*
X290271Y134793D01*
X290252Y134708D01*
X290229Y134623D01*
X290202Y134540D01*
X290172Y134458D01*
X290138Y134378D01*
X290101Y134299D01*
X290060Y134221D01*
X290015Y134146D01*
X289968Y134073D01*
X289917Y134001D01*
X289863Y133933D01*
X289806Y133866D01*
X289747Y133802D01*
X289684Y133741D01*
X289619Y133683D01*
X289551Y133627D01*
X289481Y133575D01*
X289409Y133526D01*
X289335Y133480D01*
X289258Y133437D01*
X289180Y133398D01*
X289100Y133363D01*
X289019Y133331D01*
X288936Y133302D01*
X288852Y133277D01*
X288768Y133256D01*
X288682Y133239D01*
X288596Y133225D01*
X288509Y133216D01*
X288421Y133210D01*
X288334Y133208D01*
X288334Y133209D02*
X286358Y133209D01*
X288729Y133209D02*
X290309Y130048D01*
X293613Y130048D02*
X295984Y130048D01*
X296062Y130050D01*
X296139Y130056D01*
X296216Y130065D01*
X296292Y130078D01*
X296368Y130095D01*
X296443Y130116D01*
X296516Y130140D01*
X296589Y130168D01*
X296660Y130200D01*
X296729Y130235D01*
X296796Y130273D01*
X296862Y130314D01*
X296925Y130359D01*
X296986Y130407D01*
X297045Y130457D01*
X297101Y130511D01*
X297155Y130567D01*
X297205Y130626D01*
X297253Y130687D01*
X297298Y130750D01*
X297339Y130816D01*
X297377Y130883D01*
X297412Y130952D01*
X297444Y131023D01*
X297472Y131096D01*
X297496Y131169D01*
X297517Y131244D01*
X297534Y131320D01*
X297547Y131396D01*
X297556Y131473D01*
X297562Y131550D01*
X297564Y131628D01*
X297564Y132419D01*
X297562Y132497D01*
X297556Y132574D01*
X297547Y132651D01*
X297534Y132727D01*
X297517Y132803D01*
X297496Y132878D01*
X297472Y132951D01*
X297444Y133024D01*
X297412Y133095D01*
X297377Y133164D01*
X297339Y133231D01*
X297298Y133297D01*
X297253Y133360D01*
X297205Y133421D01*
X297155Y133480D01*
X297101Y133536D01*
X297045Y133590D01*
X296986Y133640D01*
X296925Y133688D01*
X296862Y133733D01*
X296796Y133774D01*
X296729Y133812D01*
X296660Y133847D01*
X296589Y133879D01*
X296516Y133907D01*
X296443Y133931D01*
X296368Y133952D01*
X296292Y133969D01*
X296216Y133982D01*
X296139Y133991D01*
X296062Y133997D01*
X295984Y133999D01*
X293613Y133999D01*
X293613Y137160D01*
X297564Y137160D01*
D11*
X286598Y98679D02*
X285116Y97494D01*
X286598Y98679D02*
X286598Y93345D01*
X288079Y93345D02*
X285116Y93345D01*
X290602Y96012D02*
X290604Y96137D01*
X290609Y96261D01*
X290618Y96385D01*
X290630Y96509D01*
X290646Y96633D01*
X290665Y96756D01*
X290688Y96879D01*
X290715Y97001D01*
X290744Y97122D01*
X290777Y97242D01*
X290814Y97361D01*
X290854Y97479D01*
X290897Y97596D01*
X290944Y97711D01*
X290994Y97826D01*
X291047Y97938D01*
X291070Y97999D01*
X291096Y98058D01*
X291126Y98116D01*
X291159Y98171D01*
X291196Y98225D01*
X291235Y98276D01*
X291277Y98325D01*
X291323Y98371D01*
X291371Y98415D01*
X291421Y98456D01*
X291474Y98493D01*
X291528Y98528D01*
X291585Y98559D01*
X291644Y98587D01*
X291704Y98611D01*
X291765Y98632D01*
X291827Y98649D01*
X291891Y98662D01*
X291955Y98671D01*
X292019Y98677D01*
X292084Y98679D01*
X292149Y98677D01*
X292213Y98671D01*
X292277Y98662D01*
X292341Y98649D01*
X292403Y98632D01*
X292464Y98611D01*
X292524Y98587D01*
X292583Y98559D01*
X292640Y98528D01*
X292694Y98493D01*
X292747Y98456D01*
X292797Y98415D01*
X292845Y98371D01*
X292891Y98325D01*
X292933Y98276D01*
X292972Y98225D01*
X293009Y98171D01*
X293042Y98116D01*
X293072Y98058D01*
X293098Y97999D01*
X293121Y97938D01*
X293174Y97826D01*
X293224Y97711D01*
X293271Y97596D01*
X293314Y97479D01*
X293354Y97361D01*
X293391Y97242D01*
X293424Y97122D01*
X293453Y97001D01*
X293480Y96879D01*
X293503Y96756D01*
X293522Y96633D01*
X293538Y96509D01*
X293550Y96385D01*
X293559Y96261D01*
X293564Y96137D01*
X293566Y96012D01*
X290602Y96012D02*
X290604Y95887D01*
X290609Y95763D01*
X290618Y95639D01*
X290630Y95515D01*
X290646Y95391D01*
X290665Y95268D01*
X290688Y95145D01*
X290715Y95024D01*
X290744Y94903D01*
X290777Y94782D01*
X290814Y94663D01*
X290854Y94545D01*
X290897Y94428D01*
X290944Y94313D01*
X290994Y94198D01*
X291047Y94086D01*
X291070Y94025D01*
X291096Y93966D01*
X291126Y93908D01*
X291159Y93853D01*
X291196Y93799D01*
X291235Y93748D01*
X291277Y93699D01*
X291323Y93653D01*
X291371Y93609D01*
X291421Y93568D01*
X291474Y93531D01*
X291528Y93496D01*
X291585Y93465D01*
X291644Y93437D01*
X291704Y93413D01*
X291765Y93392D01*
X291827Y93375D01*
X291891Y93362D01*
X291955Y93353D01*
X292019Y93347D01*
X292084Y93345D01*
X293121Y94086D02*
X293174Y94198D01*
X293224Y94313D01*
X293271Y94428D01*
X293314Y94545D01*
X293354Y94663D01*
X293391Y94782D01*
X293424Y94903D01*
X293453Y95024D01*
X293480Y95145D01*
X293503Y95268D01*
X293522Y95391D01*
X293538Y95515D01*
X293550Y95639D01*
X293559Y95763D01*
X293564Y95887D01*
X293566Y96012D01*
X293121Y94086D02*
X293098Y94025D01*
X293072Y93966D01*
X293042Y93908D01*
X293009Y93853D01*
X292972Y93799D01*
X292933Y93748D01*
X292891Y93699D01*
X292845Y93653D01*
X292797Y93609D01*
X292747Y93568D01*
X292694Y93531D01*
X292640Y93496D01*
X292583Y93465D01*
X292524Y93437D01*
X292464Y93413D01*
X292403Y93392D01*
X292341Y93375D01*
X292277Y93362D01*
X292213Y93353D01*
X292149Y93347D01*
X292084Y93345D01*
X290899Y94530D02*
X293269Y97494D01*
X296376Y98679D02*
X296376Y93345D01*
X296376Y95419D02*
X299339Y98679D01*
X297561Y96605D02*
X299339Y93345D01*
D10*
X298450Y67600D02*
X298450Y59400D01*
X285750Y59400D02*
X285750Y67600D01*
D13*
X286636Y47752D02*
X286636Y40640D01*
X286636Y47752D02*
X288612Y47752D01*
X288699Y47750D01*
X288787Y47744D01*
X288874Y47735D01*
X288960Y47721D01*
X289046Y47704D01*
X289130Y47683D01*
X289214Y47658D01*
X289297Y47629D01*
X289378Y47597D01*
X289458Y47562D01*
X289536Y47523D01*
X289613Y47480D01*
X289687Y47434D01*
X289759Y47385D01*
X289829Y47333D01*
X289897Y47277D01*
X289962Y47219D01*
X290025Y47158D01*
X290084Y47094D01*
X290141Y47027D01*
X290195Y46959D01*
X290246Y46887D01*
X290293Y46814D01*
X290338Y46739D01*
X290379Y46661D01*
X290416Y46582D01*
X290450Y46502D01*
X290480Y46420D01*
X290507Y46337D01*
X290530Y46252D01*
X290549Y46167D01*
X290564Y46081D01*
X290576Y45994D01*
X290584Y45907D01*
X290588Y45820D01*
X290588Y45732D01*
X290584Y45645D01*
X290576Y45558D01*
X290564Y45471D01*
X290549Y45385D01*
X290530Y45300D01*
X290507Y45215D01*
X290480Y45132D01*
X290450Y45050D01*
X290416Y44970D01*
X290379Y44891D01*
X290338Y44813D01*
X290293Y44738D01*
X290246Y44665D01*
X290195Y44593D01*
X290141Y44525D01*
X290084Y44458D01*
X290025Y44394D01*
X289962Y44333D01*
X289897Y44275D01*
X289829Y44219D01*
X289759Y44167D01*
X289687Y44118D01*
X289613Y44072D01*
X289536Y44029D01*
X289458Y43990D01*
X289378Y43955D01*
X289297Y43923D01*
X289214Y43894D01*
X289130Y43869D01*
X289046Y43848D01*
X288960Y43831D01*
X288874Y43817D01*
X288787Y43808D01*
X288699Y43802D01*
X288612Y43800D01*
X288612Y43801D02*
X286636Y43801D01*
X289007Y43801D02*
X290587Y40640D01*
X293891Y44591D02*
X296262Y44591D01*
X296340Y44589D01*
X296417Y44583D01*
X296494Y44574D01*
X296570Y44561D01*
X296646Y44544D01*
X296721Y44523D01*
X296794Y44499D01*
X296867Y44471D01*
X296938Y44439D01*
X297007Y44404D01*
X297074Y44366D01*
X297140Y44325D01*
X297203Y44280D01*
X297264Y44232D01*
X297323Y44182D01*
X297379Y44128D01*
X297433Y44072D01*
X297483Y44013D01*
X297531Y43952D01*
X297576Y43889D01*
X297617Y43823D01*
X297655Y43756D01*
X297690Y43687D01*
X297722Y43616D01*
X297750Y43543D01*
X297774Y43470D01*
X297795Y43395D01*
X297812Y43319D01*
X297825Y43243D01*
X297834Y43166D01*
X297840Y43089D01*
X297842Y43011D01*
X297842Y42616D01*
X297840Y42529D01*
X297834Y42441D01*
X297825Y42354D01*
X297811Y42268D01*
X297794Y42182D01*
X297773Y42098D01*
X297748Y42014D01*
X297719Y41931D01*
X297687Y41850D01*
X297652Y41770D01*
X297613Y41692D01*
X297570Y41615D01*
X297524Y41541D01*
X297475Y41469D01*
X297423Y41399D01*
X297367Y41331D01*
X297309Y41266D01*
X297248Y41203D01*
X297184Y41144D01*
X297117Y41087D01*
X297049Y41033D01*
X296977Y40982D01*
X296904Y40935D01*
X296829Y40890D01*
X296751Y40849D01*
X296672Y40812D01*
X296592Y40778D01*
X296510Y40748D01*
X296427Y40721D01*
X296342Y40698D01*
X296257Y40679D01*
X296171Y40664D01*
X296084Y40652D01*
X295997Y40644D01*
X295910Y40640D01*
X295822Y40640D01*
X295735Y40644D01*
X295648Y40652D01*
X295561Y40664D01*
X295475Y40679D01*
X295390Y40698D01*
X295305Y40721D01*
X295222Y40748D01*
X295140Y40778D01*
X295060Y40812D01*
X294981Y40849D01*
X294903Y40890D01*
X294828Y40935D01*
X294755Y40982D01*
X294683Y41033D01*
X294615Y41087D01*
X294548Y41144D01*
X294484Y41203D01*
X294423Y41266D01*
X294365Y41331D01*
X294309Y41399D01*
X294257Y41469D01*
X294208Y41541D01*
X294162Y41615D01*
X294119Y41692D01*
X294080Y41770D01*
X294045Y41850D01*
X294013Y41931D01*
X293984Y42014D01*
X293959Y42098D01*
X293938Y42182D01*
X293921Y42268D01*
X293907Y42354D01*
X293898Y42441D01*
X293892Y42529D01*
X293890Y42616D01*
X293891Y42616D02*
X293891Y44591D01*
X293893Y44701D01*
X293899Y44811D01*
X293908Y44921D01*
X293922Y45031D01*
X293939Y45140D01*
X293960Y45248D01*
X293985Y45356D01*
X294013Y45462D01*
X294046Y45568D01*
X294082Y45672D01*
X294121Y45775D01*
X294164Y45877D01*
X294211Y45977D01*
X294261Y46075D01*
X294314Y46171D01*
X294371Y46266D01*
X294431Y46359D01*
X294495Y46449D01*
X294561Y46537D01*
X294631Y46623D01*
X294703Y46706D01*
X294778Y46787D01*
X294856Y46865D01*
X294937Y46940D01*
X295020Y47012D01*
X295106Y47082D01*
X295194Y47148D01*
X295284Y47212D01*
X295377Y47272D01*
X295471Y47328D01*
X295568Y47382D01*
X295666Y47432D01*
X295766Y47479D01*
X295868Y47522D01*
X295971Y47561D01*
X296075Y47597D01*
X296181Y47630D01*
X296287Y47658D01*
X296395Y47683D01*
X296503Y47704D01*
X296612Y47721D01*
X296722Y47735D01*
X296831Y47744D01*
X296942Y47750D01*
X297052Y47752D01*
D11*
X284861Y83270D02*
X286343Y84455D01*
X286343Y79121D01*
X287824Y79121D02*
X284861Y79121D01*
X290347Y81788D02*
X290349Y81913D01*
X290354Y82037D01*
X290363Y82161D01*
X290375Y82285D01*
X290391Y82409D01*
X290410Y82532D01*
X290433Y82655D01*
X290460Y82777D01*
X290489Y82898D01*
X290522Y83018D01*
X290559Y83137D01*
X290599Y83255D01*
X290642Y83372D01*
X290689Y83487D01*
X290739Y83602D01*
X290792Y83714D01*
X290815Y83775D01*
X290841Y83834D01*
X290871Y83892D01*
X290904Y83947D01*
X290941Y84001D01*
X290980Y84052D01*
X291022Y84101D01*
X291068Y84147D01*
X291116Y84191D01*
X291166Y84232D01*
X291219Y84269D01*
X291273Y84304D01*
X291330Y84335D01*
X291389Y84363D01*
X291449Y84387D01*
X291510Y84408D01*
X291572Y84425D01*
X291636Y84438D01*
X291700Y84447D01*
X291764Y84453D01*
X291829Y84455D01*
X291894Y84453D01*
X291958Y84447D01*
X292022Y84438D01*
X292086Y84425D01*
X292148Y84408D01*
X292209Y84387D01*
X292269Y84363D01*
X292328Y84335D01*
X292385Y84304D01*
X292439Y84269D01*
X292492Y84232D01*
X292542Y84191D01*
X292590Y84147D01*
X292636Y84101D01*
X292678Y84052D01*
X292717Y84001D01*
X292754Y83947D01*
X292787Y83892D01*
X292817Y83834D01*
X292843Y83775D01*
X292866Y83714D01*
X292919Y83602D01*
X292969Y83487D01*
X293016Y83372D01*
X293059Y83255D01*
X293099Y83137D01*
X293136Y83018D01*
X293169Y82898D01*
X293198Y82777D01*
X293225Y82655D01*
X293248Y82532D01*
X293267Y82409D01*
X293283Y82285D01*
X293295Y82161D01*
X293304Y82037D01*
X293309Y81913D01*
X293311Y81788D01*
X290347Y81788D02*
X290349Y81663D01*
X290354Y81539D01*
X290363Y81415D01*
X290375Y81291D01*
X290391Y81167D01*
X290410Y81044D01*
X290433Y80921D01*
X290460Y80800D01*
X290489Y80679D01*
X290522Y80558D01*
X290559Y80439D01*
X290599Y80321D01*
X290642Y80204D01*
X290689Y80089D01*
X290739Y79974D01*
X290792Y79862D01*
X290815Y79801D01*
X290841Y79742D01*
X290871Y79684D01*
X290904Y79629D01*
X290941Y79575D01*
X290980Y79524D01*
X291022Y79475D01*
X291068Y79429D01*
X291116Y79385D01*
X291166Y79344D01*
X291219Y79307D01*
X291273Y79272D01*
X291330Y79241D01*
X291389Y79213D01*
X291449Y79189D01*
X291510Y79168D01*
X291572Y79151D01*
X291636Y79138D01*
X291700Y79129D01*
X291764Y79123D01*
X291829Y79121D01*
X292866Y79862D02*
X292919Y79974D01*
X292969Y80089D01*
X293016Y80204D01*
X293059Y80321D01*
X293099Y80439D01*
X293136Y80558D01*
X293169Y80679D01*
X293198Y80800D01*
X293225Y80921D01*
X293248Y81044D01*
X293267Y81167D01*
X293283Y81291D01*
X293295Y81415D01*
X293304Y81539D01*
X293309Y81663D01*
X293311Y81788D01*
X292866Y79862D02*
X292843Y79801D01*
X292817Y79742D01*
X292787Y79684D01*
X292754Y79629D01*
X292717Y79575D01*
X292678Y79524D01*
X292636Y79475D01*
X292590Y79429D01*
X292542Y79385D01*
X292492Y79344D01*
X292439Y79307D01*
X292385Y79272D01*
X292328Y79241D01*
X292269Y79213D01*
X292209Y79189D01*
X292148Y79168D01*
X292086Y79151D01*
X292022Y79138D01*
X291958Y79129D01*
X291894Y79123D01*
X291829Y79121D01*
X290644Y80306D02*
X293014Y83270D01*
X296121Y84455D02*
X296121Y79121D01*
X296121Y81195D02*
X299084Y84455D01*
X297306Y82381D02*
X299084Y79121D01*
D10*
X387350Y122900D02*
X387350Y131100D01*
X374650Y131100D02*
X374650Y122900D01*
D13*
X373988Y144018D02*
X373988Y151130D01*
X375964Y151130D01*
X376051Y151128D01*
X376139Y151122D01*
X376226Y151113D01*
X376312Y151099D01*
X376398Y151082D01*
X376482Y151061D01*
X376566Y151036D01*
X376649Y151007D01*
X376730Y150975D01*
X376810Y150940D01*
X376888Y150901D01*
X376965Y150858D01*
X377039Y150812D01*
X377111Y150763D01*
X377181Y150711D01*
X377249Y150655D01*
X377314Y150597D01*
X377377Y150536D01*
X377436Y150472D01*
X377493Y150405D01*
X377547Y150337D01*
X377598Y150265D01*
X377645Y150192D01*
X377690Y150117D01*
X377731Y150039D01*
X377768Y149960D01*
X377802Y149880D01*
X377832Y149798D01*
X377859Y149715D01*
X377882Y149630D01*
X377901Y149545D01*
X377916Y149459D01*
X377928Y149372D01*
X377936Y149285D01*
X377940Y149198D01*
X377940Y149110D01*
X377936Y149023D01*
X377928Y148936D01*
X377916Y148849D01*
X377901Y148763D01*
X377882Y148678D01*
X377859Y148593D01*
X377832Y148510D01*
X377802Y148428D01*
X377768Y148348D01*
X377731Y148269D01*
X377690Y148191D01*
X377645Y148116D01*
X377598Y148043D01*
X377547Y147971D01*
X377493Y147903D01*
X377436Y147836D01*
X377377Y147772D01*
X377314Y147711D01*
X377249Y147653D01*
X377181Y147597D01*
X377111Y147545D01*
X377039Y147496D01*
X376965Y147450D01*
X376888Y147407D01*
X376810Y147368D01*
X376730Y147333D01*
X376649Y147301D01*
X376566Y147272D01*
X376482Y147247D01*
X376398Y147226D01*
X376312Y147209D01*
X376226Y147195D01*
X376139Y147186D01*
X376051Y147180D01*
X375964Y147178D01*
X375964Y147179D02*
X373988Y147179D01*
X376359Y147179D02*
X377939Y144018D01*
X383416Y151130D02*
X383498Y151128D01*
X383580Y151122D01*
X383662Y151113D01*
X383743Y151100D01*
X383823Y151083D01*
X383903Y151062D01*
X383981Y151038D01*
X384058Y151010D01*
X384134Y150979D01*
X384209Y150944D01*
X384281Y150905D01*
X384352Y150864D01*
X384421Y150819D01*
X384487Y150771D01*
X384552Y150720D01*
X384614Y150666D01*
X384673Y150609D01*
X384730Y150550D01*
X384784Y150488D01*
X384835Y150423D01*
X384883Y150357D01*
X384928Y150288D01*
X384969Y150217D01*
X385008Y150145D01*
X385043Y150070D01*
X385074Y149994D01*
X385102Y149917D01*
X385126Y149839D01*
X385147Y149759D01*
X385164Y149679D01*
X385177Y149598D01*
X385186Y149516D01*
X385192Y149434D01*
X385194Y149352D01*
X383416Y151130D02*
X383323Y151128D01*
X383231Y151122D01*
X383139Y151113D01*
X383047Y151100D01*
X382956Y151083D01*
X382866Y151063D01*
X382776Y151039D01*
X382688Y151011D01*
X382600Y150979D01*
X382515Y150945D01*
X382430Y150906D01*
X382348Y150865D01*
X382267Y150820D01*
X382187Y150771D01*
X382110Y150720D01*
X382035Y150666D01*
X381963Y150608D01*
X381893Y150548D01*
X381825Y150484D01*
X381760Y150419D01*
X381697Y150350D01*
X381638Y150279D01*
X381581Y150206D01*
X381527Y150130D01*
X381477Y150053D01*
X381429Y149973D01*
X381385Y149892D01*
X381345Y149808D01*
X381307Y149724D01*
X381273Y149637D01*
X381243Y149550D01*
X384601Y147969D02*
X384662Y148030D01*
X384720Y148093D01*
X384775Y148159D01*
X384828Y148227D01*
X384877Y148298D01*
X384922Y148370D01*
X384965Y148445D01*
X385004Y148521D01*
X385040Y148600D01*
X385072Y148679D01*
X385100Y148760D01*
X385125Y148843D01*
X385146Y148926D01*
X385163Y149010D01*
X385177Y149095D01*
X385186Y149180D01*
X385192Y149266D01*
X385194Y149352D01*
X384601Y147969D02*
X381243Y144018D01*
X385194Y144018D01*
X376425Y109982D02*
X374449Y108402D01*
X376425Y109982D02*
X376425Y102870D01*
X378400Y102870D02*
X374449Y102870D01*
X382101Y102870D02*
X382101Y109982D01*
X384471Y106031D01*
X386842Y109982D01*
X386842Y102870D01*
D10*
X171450Y35850D02*
X171450Y27650D01*
X184150Y27650D02*
X184150Y35850D01*
D13*
X172336Y16002D02*
X172336Y8890D01*
X172336Y16002D02*
X174312Y16002D01*
X174399Y16000D01*
X174487Y15994D01*
X174574Y15985D01*
X174660Y15971D01*
X174746Y15954D01*
X174830Y15933D01*
X174914Y15908D01*
X174997Y15879D01*
X175078Y15847D01*
X175158Y15812D01*
X175236Y15773D01*
X175313Y15730D01*
X175387Y15684D01*
X175459Y15635D01*
X175529Y15583D01*
X175597Y15527D01*
X175662Y15469D01*
X175725Y15408D01*
X175784Y15344D01*
X175841Y15277D01*
X175895Y15209D01*
X175946Y15137D01*
X175993Y15064D01*
X176038Y14989D01*
X176079Y14911D01*
X176116Y14832D01*
X176150Y14752D01*
X176180Y14670D01*
X176207Y14587D01*
X176230Y14502D01*
X176249Y14417D01*
X176264Y14331D01*
X176276Y14244D01*
X176284Y14157D01*
X176288Y14070D01*
X176288Y13982D01*
X176284Y13895D01*
X176276Y13808D01*
X176264Y13721D01*
X176249Y13635D01*
X176230Y13550D01*
X176207Y13465D01*
X176180Y13382D01*
X176150Y13300D01*
X176116Y13220D01*
X176079Y13141D01*
X176038Y13063D01*
X175993Y12988D01*
X175946Y12915D01*
X175895Y12843D01*
X175841Y12775D01*
X175784Y12708D01*
X175725Y12644D01*
X175662Y12583D01*
X175597Y12525D01*
X175529Y12469D01*
X175459Y12417D01*
X175387Y12368D01*
X175313Y12322D01*
X175236Y12279D01*
X175158Y12240D01*
X175078Y12205D01*
X174997Y12173D01*
X174914Y12144D01*
X174830Y12119D01*
X174746Y12098D01*
X174660Y12081D01*
X174574Y12067D01*
X174487Y12058D01*
X174399Y12052D01*
X174312Y12050D01*
X174312Y12051D02*
X172336Y12051D01*
X174707Y12051D02*
X176287Y8890D01*
X179591Y14422D02*
X181566Y16002D01*
X181566Y8890D01*
X179591Y8890D02*
X183542Y8890D01*
X171958Y53030D02*
X173934Y54610D01*
X173934Y47498D01*
X175909Y47498D02*
X171958Y47498D01*
X179656Y47498D02*
X179656Y54610D01*
X183607Y54610D02*
X179656Y50264D01*
X181236Y51844D02*
X183607Y47498D01*
D10*
X152400Y35850D02*
X152400Y27650D01*
X165100Y27650D02*
X165100Y35850D01*
D13*
X153286Y16002D02*
X153286Y8890D01*
X153286Y16002D02*
X155262Y16002D01*
X155349Y16000D01*
X155437Y15994D01*
X155524Y15985D01*
X155610Y15971D01*
X155696Y15954D01*
X155780Y15933D01*
X155864Y15908D01*
X155947Y15879D01*
X156028Y15847D01*
X156108Y15812D01*
X156186Y15773D01*
X156263Y15730D01*
X156337Y15684D01*
X156409Y15635D01*
X156479Y15583D01*
X156547Y15527D01*
X156612Y15469D01*
X156675Y15408D01*
X156734Y15344D01*
X156791Y15277D01*
X156845Y15209D01*
X156896Y15137D01*
X156943Y15064D01*
X156988Y14989D01*
X157029Y14911D01*
X157066Y14832D01*
X157100Y14752D01*
X157130Y14670D01*
X157157Y14587D01*
X157180Y14502D01*
X157199Y14417D01*
X157214Y14331D01*
X157226Y14244D01*
X157234Y14157D01*
X157238Y14070D01*
X157238Y13982D01*
X157234Y13895D01*
X157226Y13808D01*
X157214Y13721D01*
X157199Y13635D01*
X157180Y13550D01*
X157157Y13465D01*
X157130Y13382D01*
X157100Y13300D01*
X157066Y13220D01*
X157029Y13141D01*
X156988Y13063D01*
X156943Y12988D01*
X156896Y12915D01*
X156845Y12843D01*
X156791Y12775D01*
X156734Y12708D01*
X156675Y12644D01*
X156612Y12583D01*
X156547Y12525D01*
X156479Y12469D01*
X156409Y12417D01*
X156337Y12368D01*
X156263Y12322D01*
X156186Y12279D01*
X156108Y12240D01*
X156028Y12205D01*
X155947Y12173D01*
X155864Y12144D01*
X155780Y12119D01*
X155696Y12098D01*
X155610Y12081D01*
X155524Y12067D01*
X155437Y12058D01*
X155349Y12052D01*
X155262Y12050D01*
X155262Y12051D02*
X153286Y12051D01*
X155657Y12051D02*
X157237Y8890D01*
X160541Y8890D02*
X162516Y8890D01*
X162603Y8892D01*
X162691Y8898D01*
X162778Y8907D01*
X162864Y8921D01*
X162950Y8938D01*
X163034Y8959D01*
X163118Y8984D01*
X163201Y9013D01*
X163282Y9045D01*
X163362Y9080D01*
X163440Y9119D01*
X163517Y9162D01*
X163591Y9208D01*
X163663Y9257D01*
X163733Y9309D01*
X163801Y9365D01*
X163866Y9423D01*
X163929Y9484D01*
X163988Y9548D01*
X164045Y9615D01*
X164099Y9683D01*
X164150Y9755D01*
X164197Y9828D01*
X164242Y9903D01*
X164283Y9981D01*
X164320Y10060D01*
X164354Y10140D01*
X164384Y10222D01*
X164411Y10305D01*
X164434Y10390D01*
X164453Y10475D01*
X164468Y10561D01*
X164480Y10648D01*
X164488Y10735D01*
X164492Y10822D01*
X164492Y10910D01*
X164488Y10997D01*
X164480Y11084D01*
X164468Y11171D01*
X164453Y11257D01*
X164434Y11342D01*
X164411Y11427D01*
X164384Y11510D01*
X164354Y11592D01*
X164320Y11672D01*
X164283Y11751D01*
X164242Y11829D01*
X164197Y11904D01*
X164150Y11977D01*
X164099Y12049D01*
X164045Y12117D01*
X163988Y12184D01*
X163929Y12248D01*
X163866Y12309D01*
X163801Y12367D01*
X163733Y12423D01*
X163663Y12475D01*
X163591Y12524D01*
X163517Y12570D01*
X163440Y12613D01*
X163362Y12652D01*
X163282Y12687D01*
X163201Y12719D01*
X163118Y12748D01*
X163034Y12773D01*
X162950Y12794D01*
X162864Y12811D01*
X162778Y12825D01*
X162691Y12834D01*
X162603Y12840D01*
X162516Y12842D01*
X162912Y16002D02*
X160541Y16002D01*
X162912Y16002D02*
X162991Y16000D01*
X163069Y15994D01*
X163147Y15984D01*
X163225Y15971D01*
X163302Y15953D01*
X163378Y15932D01*
X163452Y15907D01*
X163526Y15878D01*
X163598Y15846D01*
X163668Y15810D01*
X163736Y15770D01*
X163802Y15727D01*
X163866Y15681D01*
X163928Y15632D01*
X163987Y15580D01*
X164043Y15525D01*
X164097Y15467D01*
X164147Y15407D01*
X164195Y15344D01*
X164239Y15279D01*
X164280Y15212D01*
X164318Y15143D01*
X164352Y15072D01*
X164383Y14999D01*
X164410Y14925D01*
X164433Y14850D01*
X164452Y14774D01*
X164468Y14696D01*
X164480Y14618D01*
X164488Y14540D01*
X164492Y14461D01*
X164492Y14383D01*
X164488Y14304D01*
X164480Y14226D01*
X164468Y14148D01*
X164452Y14070D01*
X164433Y13994D01*
X164410Y13919D01*
X164383Y13845D01*
X164352Y13772D01*
X164318Y13701D01*
X164280Y13632D01*
X164239Y13565D01*
X164195Y13500D01*
X164147Y13437D01*
X164097Y13377D01*
X164043Y13319D01*
X163987Y13264D01*
X163928Y13212D01*
X163866Y13163D01*
X163802Y13117D01*
X163736Y13074D01*
X163668Y13034D01*
X163598Y12998D01*
X163526Y12966D01*
X163452Y12937D01*
X163378Y12912D01*
X163302Y12891D01*
X163225Y12873D01*
X163147Y12860D01*
X163069Y12850D01*
X162991Y12844D01*
X162912Y12842D01*
X162912Y12841D02*
X161331Y12841D01*
X154178Y53030D02*
X156154Y54610D01*
X156154Y47498D01*
X158129Y47498D02*
X154178Y47498D01*
X161876Y47498D02*
X161876Y54610D01*
X165827Y54610D02*
X161876Y50264D01*
X163456Y51844D02*
X165827Y47498D01*
D10*
X133350Y35850D02*
X133350Y27650D01*
X146050Y27650D02*
X146050Y35850D01*
D13*
X132966Y16002D02*
X132966Y8890D01*
X132966Y16002D02*
X134942Y16002D01*
X135029Y16000D01*
X135117Y15994D01*
X135204Y15985D01*
X135290Y15971D01*
X135376Y15954D01*
X135460Y15933D01*
X135544Y15908D01*
X135627Y15879D01*
X135708Y15847D01*
X135788Y15812D01*
X135866Y15773D01*
X135943Y15730D01*
X136017Y15684D01*
X136089Y15635D01*
X136159Y15583D01*
X136227Y15527D01*
X136292Y15469D01*
X136355Y15408D01*
X136414Y15344D01*
X136471Y15277D01*
X136525Y15209D01*
X136576Y15137D01*
X136623Y15064D01*
X136668Y14989D01*
X136709Y14911D01*
X136746Y14832D01*
X136780Y14752D01*
X136810Y14670D01*
X136837Y14587D01*
X136860Y14502D01*
X136879Y14417D01*
X136894Y14331D01*
X136906Y14244D01*
X136914Y14157D01*
X136918Y14070D01*
X136918Y13982D01*
X136914Y13895D01*
X136906Y13808D01*
X136894Y13721D01*
X136879Y13635D01*
X136860Y13550D01*
X136837Y13465D01*
X136810Y13382D01*
X136780Y13300D01*
X136746Y13220D01*
X136709Y13141D01*
X136668Y13063D01*
X136623Y12988D01*
X136576Y12915D01*
X136525Y12843D01*
X136471Y12775D01*
X136414Y12708D01*
X136355Y12644D01*
X136292Y12583D01*
X136227Y12525D01*
X136159Y12469D01*
X136089Y12417D01*
X136017Y12368D01*
X135943Y12322D01*
X135866Y12279D01*
X135788Y12240D01*
X135708Y12205D01*
X135627Y12173D01*
X135544Y12144D01*
X135460Y12119D01*
X135376Y12098D01*
X135290Y12081D01*
X135204Y12067D01*
X135117Y12058D01*
X135029Y12052D01*
X134942Y12050D01*
X134942Y12051D02*
X132966Y12051D01*
X135337Y12051D02*
X136917Y8890D01*
X140221Y10470D02*
X141801Y16002D01*
X140221Y10470D02*
X144172Y10470D01*
X142987Y12051D02*
X142987Y8890D01*
X133858Y53030D02*
X135834Y54610D01*
X135834Y47498D01*
X137809Y47498D02*
X133858Y47498D01*
X141556Y47498D02*
X141556Y54610D01*
X145507Y54610D02*
X141556Y50264D01*
X143136Y51844D02*
X145507Y47498D01*
D10*
X114300Y35850D02*
X114300Y27650D01*
X127000Y27650D02*
X127000Y35850D01*
D13*
X113916Y16002D02*
X113916Y8890D01*
X113916Y16002D02*
X115892Y16002D01*
X115979Y16000D01*
X116067Y15994D01*
X116154Y15985D01*
X116240Y15971D01*
X116326Y15954D01*
X116410Y15933D01*
X116494Y15908D01*
X116577Y15879D01*
X116658Y15847D01*
X116738Y15812D01*
X116816Y15773D01*
X116893Y15730D01*
X116967Y15684D01*
X117039Y15635D01*
X117109Y15583D01*
X117177Y15527D01*
X117242Y15469D01*
X117305Y15408D01*
X117364Y15344D01*
X117421Y15277D01*
X117475Y15209D01*
X117526Y15137D01*
X117573Y15064D01*
X117618Y14989D01*
X117659Y14911D01*
X117696Y14832D01*
X117730Y14752D01*
X117760Y14670D01*
X117787Y14587D01*
X117810Y14502D01*
X117829Y14417D01*
X117844Y14331D01*
X117856Y14244D01*
X117864Y14157D01*
X117868Y14070D01*
X117868Y13982D01*
X117864Y13895D01*
X117856Y13808D01*
X117844Y13721D01*
X117829Y13635D01*
X117810Y13550D01*
X117787Y13465D01*
X117760Y13382D01*
X117730Y13300D01*
X117696Y13220D01*
X117659Y13141D01*
X117618Y13063D01*
X117573Y12988D01*
X117526Y12915D01*
X117475Y12843D01*
X117421Y12775D01*
X117364Y12708D01*
X117305Y12644D01*
X117242Y12583D01*
X117177Y12525D01*
X117109Y12469D01*
X117039Y12417D01*
X116967Y12368D01*
X116893Y12322D01*
X116816Y12279D01*
X116738Y12240D01*
X116658Y12205D01*
X116577Y12173D01*
X116494Y12144D01*
X116410Y12119D01*
X116326Y12098D01*
X116240Y12081D01*
X116154Y12067D01*
X116067Y12058D01*
X115979Y12052D01*
X115892Y12050D01*
X115892Y12051D02*
X113916Y12051D01*
X116287Y12051D02*
X117867Y8890D01*
X121171Y15212D02*
X121171Y16002D01*
X125122Y16002D01*
X123146Y8890D01*
X116078Y53030D02*
X118054Y54610D01*
X118054Y47498D01*
X120029Y47498D02*
X116078Y47498D01*
X123776Y47498D02*
X123776Y54610D01*
X127727Y54610D02*
X123776Y50264D01*
X125356Y51844D02*
X127727Y47498D01*
D10*
X95250Y35850D02*
X95250Y27650D01*
X107950Y27650D02*
X107950Y35850D01*
D13*
X90091Y16002D02*
X90091Y8890D01*
X90091Y16002D02*
X92066Y16002D01*
X92153Y16000D01*
X92241Y15994D01*
X92328Y15985D01*
X92414Y15971D01*
X92500Y15954D01*
X92584Y15933D01*
X92668Y15908D01*
X92751Y15879D01*
X92832Y15847D01*
X92912Y15812D01*
X92990Y15773D01*
X93067Y15730D01*
X93141Y15684D01*
X93213Y15635D01*
X93283Y15583D01*
X93351Y15527D01*
X93416Y15469D01*
X93479Y15408D01*
X93538Y15344D01*
X93595Y15277D01*
X93649Y15209D01*
X93700Y15137D01*
X93747Y15064D01*
X93792Y14989D01*
X93833Y14911D01*
X93870Y14832D01*
X93904Y14752D01*
X93934Y14670D01*
X93961Y14587D01*
X93984Y14502D01*
X94003Y14417D01*
X94018Y14331D01*
X94030Y14244D01*
X94038Y14157D01*
X94042Y14070D01*
X94042Y13982D01*
X94038Y13895D01*
X94030Y13808D01*
X94018Y13721D01*
X94003Y13635D01*
X93984Y13550D01*
X93961Y13465D01*
X93934Y13382D01*
X93904Y13300D01*
X93870Y13220D01*
X93833Y13141D01*
X93792Y13063D01*
X93747Y12988D01*
X93700Y12915D01*
X93649Y12843D01*
X93595Y12775D01*
X93538Y12708D01*
X93479Y12644D01*
X93416Y12583D01*
X93351Y12525D01*
X93283Y12469D01*
X93213Y12417D01*
X93141Y12368D01*
X93067Y12322D01*
X92990Y12279D01*
X92912Y12240D01*
X92832Y12205D01*
X92751Y12173D01*
X92668Y12144D01*
X92584Y12119D01*
X92500Y12098D01*
X92414Y12081D01*
X92328Y12067D01*
X92241Y12058D01*
X92153Y12052D01*
X92066Y12050D01*
X92066Y12051D02*
X90091Y12051D01*
X92462Y12051D02*
X94042Y8890D01*
X97346Y14422D02*
X99321Y16002D01*
X99321Y8890D01*
X97346Y8890D02*
X101297Y8890D01*
X104661Y14422D02*
X106636Y16002D01*
X106636Y8890D01*
X104661Y8890D02*
X108612Y8890D01*
X85400Y27178D02*
X83820Y29154D01*
X90932Y29154D01*
X90932Y31129D02*
X90932Y27178D01*
X90932Y34876D02*
X83820Y34876D01*
X83820Y38827D02*
X88166Y34876D01*
X86586Y36456D02*
X90932Y38827D01*
D10*
X361950Y59400D02*
X361950Y67600D01*
X374650Y67600D02*
X374650Y59400D01*
D11*
X361161Y79121D02*
X361161Y84455D01*
X362643Y84455D01*
X362719Y84453D01*
X362795Y84447D01*
X362871Y84437D01*
X362946Y84424D01*
X363020Y84406D01*
X363094Y84385D01*
X363166Y84360D01*
X363236Y84331D01*
X363306Y84299D01*
X363373Y84263D01*
X363438Y84223D01*
X363502Y84181D01*
X363563Y84135D01*
X363621Y84086D01*
X363677Y84034D01*
X363731Y83980D01*
X363781Y83922D01*
X363828Y83863D01*
X363873Y83800D01*
X363914Y83736D01*
X363951Y83670D01*
X363985Y83601D01*
X364016Y83531D01*
X364043Y83460D01*
X364066Y83387D01*
X364085Y83313D01*
X364101Y83239D01*
X364113Y83163D01*
X364121Y83087D01*
X364125Y83011D01*
X364125Y82935D01*
X364121Y82859D01*
X364113Y82783D01*
X364101Y82707D01*
X364085Y82633D01*
X364066Y82559D01*
X364043Y82486D01*
X364016Y82415D01*
X363985Y82345D01*
X363951Y82276D01*
X363914Y82210D01*
X363873Y82146D01*
X363828Y82083D01*
X363781Y82024D01*
X363731Y81966D01*
X363677Y81912D01*
X363621Y81860D01*
X363563Y81811D01*
X363502Y81765D01*
X363438Y81723D01*
X363373Y81683D01*
X363306Y81647D01*
X363236Y81615D01*
X363166Y81586D01*
X363094Y81561D01*
X363020Y81540D01*
X362946Y81522D01*
X362871Y81509D01*
X362795Y81499D01*
X362719Y81493D01*
X362643Y81491D01*
X362643Y81492D02*
X361161Y81492D01*
X362939Y81492D02*
X364124Y79121D01*
X366602Y83270D02*
X368084Y84455D01*
X368084Y79121D01*
X369565Y79121D02*
X366602Y79121D01*
X372088Y79121D02*
X373570Y79121D01*
X373646Y79123D01*
X373722Y79129D01*
X373798Y79139D01*
X373873Y79152D01*
X373947Y79170D01*
X374021Y79191D01*
X374093Y79216D01*
X374163Y79245D01*
X374233Y79277D01*
X374300Y79313D01*
X374365Y79353D01*
X374429Y79395D01*
X374490Y79441D01*
X374548Y79490D01*
X374604Y79542D01*
X374658Y79596D01*
X374708Y79654D01*
X374755Y79713D01*
X374800Y79776D01*
X374841Y79840D01*
X374878Y79906D01*
X374912Y79975D01*
X374943Y80045D01*
X374970Y80116D01*
X374993Y80189D01*
X375012Y80263D01*
X375028Y80337D01*
X375040Y80413D01*
X375048Y80489D01*
X375052Y80565D01*
X375052Y80641D01*
X375048Y80717D01*
X375040Y80793D01*
X375028Y80869D01*
X375012Y80943D01*
X374993Y81017D01*
X374970Y81090D01*
X374943Y81161D01*
X374912Y81231D01*
X374878Y81300D01*
X374841Y81366D01*
X374800Y81430D01*
X374755Y81493D01*
X374708Y81552D01*
X374658Y81610D01*
X374604Y81664D01*
X374548Y81716D01*
X374490Y81765D01*
X374429Y81811D01*
X374365Y81853D01*
X374300Y81893D01*
X374233Y81929D01*
X374163Y81961D01*
X374093Y81990D01*
X374021Y82015D01*
X373947Y82036D01*
X373873Y82054D01*
X373798Y82067D01*
X373722Y82077D01*
X373646Y82083D01*
X373570Y82085D01*
X373866Y84455D02*
X372088Y84455D01*
X373866Y84455D02*
X373934Y84453D01*
X374001Y84447D01*
X374068Y84438D01*
X374134Y84424D01*
X374200Y84407D01*
X374264Y84386D01*
X374327Y84362D01*
X374389Y84333D01*
X374449Y84302D01*
X374507Y84267D01*
X374563Y84229D01*
X374616Y84187D01*
X374667Y84143D01*
X374716Y84096D01*
X374762Y84046D01*
X374804Y83994D01*
X374844Y83939D01*
X374881Y83882D01*
X374914Y83823D01*
X374944Y83762D01*
X374970Y83700D01*
X374993Y83636D01*
X375012Y83571D01*
X375027Y83505D01*
X375039Y83439D01*
X375047Y83371D01*
X375051Y83304D01*
X375051Y83236D01*
X375047Y83169D01*
X375039Y83101D01*
X375027Y83035D01*
X375012Y82969D01*
X374993Y82904D01*
X374970Y82840D01*
X374944Y82778D01*
X374914Y82717D01*
X374881Y82658D01*
X374844Y82601D01*
X374804Y82546D01*
X374762Y82494D01*
X374716Y82444D01*
X374667Y82397D01*
X374616Y82353D01*
X374563Y82311D01*
X374507Y82273D01*
X374449Y82238D01*
X374389Y82207D01*
X374327Y82178D01*
X374264Y82154D01*
X374200Y82133D01*
X374134Y82116D01*
X374068Y82102D01*
X374001Y82093D01*
X373934Y82087D01*
X373866Y82085D01*
X373866Y82084D02*
X372681Y82084D01*
X366205Y58497D02*
X366133Y58495D01*
X366061Y58489D01*
X365989Y58479D01*
X365918Y58466D01*
X365848Y58448D01*
X365779Y58427D01*
X365711Y58402D01*
X365645Y58374D01*
X365580Y58342D01*
X365517Y58306D01*
X365456Y58267D01*
X365398Y58225D01*
X365341Y58180D01*
X365288Y58131D01*
X365237Y58080D01*
X365188Y58027D01*
X365143Y57970D01*
X365101Y57912D01*
X365062Y57851D01*
X365026Y57788D01*
X364994Y57723D01*
X364966Y57657D01*
X364941Y57589D01*
X364920Y57520D01*
X364902Y57450D01*
X364889Y57379D01*
X364879Y57307D01*
X364873Y57235D01*
X364871Y57163D01*
X364873Y57083D01*
X364878Y57004D01*
X364888Y56924D01*
X364901Y56846D01*
X364917Y56768D01*
X364937Y56691D01*
X364961Y56614D01*
X364989Y56539D01*
X365019Y56466D01*
X365053Y56394D01*
X365091Y56323D01*
X365132Y56255D01*
X365176Y56188D01*
X365222Y56123D01*
X365272Y56061D01*
X365325Y56001D01*
X365381Y55944D01*
X365439Y55889D01*
X365499Y55837D01*
X365562Y55788D01*
X365627Y55742D01*
X365694Y55699D01*
X365764Y55659D01*
X365834Y55623D01*
X365907Y55589D01*
X365981Y55560D01*
X366056Y55533D01*
X367242Y58052D02*
X367191Y58103D01*
X367137Y58151D01*
X367081Y58197D01*
X367022Y58240D01*
X366962Y58280D01*
X366899Y58316D01*
X366835Y58350D01*
X366769Y58380D01*
X366702Y58407D01*
X366633Y58430D01*
X366564Y58450D01*
X366493Y58467D01*
X366422Y58480D01*
X366350Y58489D01*
X366277Y58494D01*
X366205Y58496D01*
X367242Y58052D02*
X370205Y55533D01*
X370205Y58496D01*
X370205Y61306D02*
X364871Y61306D01*
X364871Y64270D02*
X368131Y61306D01*
X366945Y62492D02*
X370205Y64270D01*
X366205Y69469D02*
X366133Y69467D01*
X366061Y69461D01*
X365989Y69451D01*
X365918Y69438D01*
X365848Y69420D01*
X365779Y69399D01*
X365711Y69374D01*
X365645Y69346D01*
X365580Y69314D01*
X365517Y69278D01*
X365456Y69239D01*
X365398Y69197D01*
X365341Y69152D01*
X365288Y69103D01*
X365237Y69052D01*
X365188Y68999D01*
X365143Y68942D01*
X365101Y68884D01*
X365062Y68823D01*
X365026Y68760D01*
X364994Y68695D01*
X364966Y68629D01*
X364941Y68561D01*
X364920Y68492D01*
X364902Y68422D01*
X364889Y68351D01*
X364879Y68279D01*
X364873Y68207D01*
X364871Y68135D01*
X364873Y68055D01*
X364878Y67976D01*
X364888Y67896D01*
X364901Y67818D01*
X364917Y67740D01*
X364937Y67663D01*
X364961Y67586D01*
X364989Y67511D01*
X365019Y67438D01*
X365053Y67366D01*
X365091Y67295D01*
X365132Y67227D01*
X365176Y67160D01*
X365222Y67095D01*
X365272Y67033D01*
X365325Y66973D01*
X365381Y66916D01*
X365439Y66861D01*
X365499Y66809D01*
X365562Y66760D01*
X365627Y66714D01*
X365694Y66671D01*
X365764Y66631D01*
X365834Y66595D01*
X365907Y66561D01*
X365981Y66532D01*
X366056Y66505D01*
X367242Y69025D02*
X367191Y69076D01*
X367137Y69124D01*
X367081Y69170D01*
X367022Y69213D01*
X366962Y69253D01*
X366899Y69289D01*
X366835Y69323D01*
X366769Y69353D01*
X366702Y69380D01*
X366633Y69403D01*
X366564Y69423D01*
X366493Y69440D01*
X366422Y69453D01*
X366350Y69462D01*
X366277Y69467D01*
X366205Y69469D01*
X367242Y69025D02*
X370205Y66506D01*
X370205Y69469D01*
D10*
X361950Y29500D02*
X361950Y21300D01*
X374650Y21300D02*
X374650Y29500D01*
D11*
X361548Y8509D02*
X361548Y3175D01*
X361548Y8509D02*
X363030Y8509D01*
X363106Y8507D01*
X363182Y8501D01*
X363258Y8491D01*
X363333Y8478D01*
X363407Y8460D01*
X363481Y8439D01*
X363553Y8414D01*
X363623Y8385D01*
X363693Y8353D01*
X363760Y8317D01*
X363825Y8277D01*
X363889Y8235D01*
X363950Y8189D01*
X364008Y8140D01*
X364064Y8088D01*
X364118Y8034D01*
X364168Y7976D01*
X364215Y7917D01*
X364260Y7854D01*
X364301Y7790D01*
X364338Y7724D01*
X364372Y7655D01*
X364403Y7585D01*
X364430Y7514D01*
X364453Y7441D01*
X364472Y7367D01*
X364488Y7293D01*
X364500Y7217D01*
X364508Y7141D01*
X364512Y7065D01*
X364512Y6989D01*
X364508Y6913D01*
X364500Y6837D01*
X364488Y6761D01*
X364472Y6687D01*
X364453Y6613D01*
X364430Y6540D01*
X364403Y6469D01*
X364372Y6399D01*
X364338Y6330D01*
X364301Y6264D01*
X364260Y6200D01*
X364215Y6137D01*
X364168Y6078D01*
X364118Y6020D01*
X364064Y5966D01*
X364008Y5914D01*
X363950Y5865D01*
X363889Y5819D01*
X363825Y5777D01*
X363760Y5737D01*
X363693Y5701D01*
X363623Y5669D01*
X363553Y5640D01*
X363481Y5615D01*
X363407Y5594D01*
X363333Y5576D01*
X363258Y5563D01*
X363182Y5553D01*
X363106Y5547D01*
X363030Y5545D01*
X363030Y5546D02*
X361548Y5546D01*
X363326Y5546D02*
X364512Y3175D01*
X366989Y7324D02*
X368471Y8509D01*
X368471Y3175D01*
X366989Y3175D02*
X369953Y3175D01*
X372476Y4360D02*
X373661Y8509D01*
X372476Y4360D02*
X375439Y4360D01*
X374550Y3175D02*
X374550Y5546D01*
X365295Y46291D02*
X365293Y46363D01*
X365287Y46435D01*
X365277Y46507D01*
X365264Y46578D01*
X365246Y46648D01*
X365225Y46717D01*
X365200Y46785D01*
X365172Y46851D01*
X365140Y46916D01*
X365104Y46979D01*
X365065Y47040D01*
X365023Y47098D01*
X364978Y47155D01*
X364929Y47208D01*
X364878Y47259D01*
X364825Y47308D01*
X364768Y47353D01*
X364710Y47395D01*
X364649Y47434D01*
X364586Y47470D01*
X364521Y47502D01*
X364455Y47530D01*
X364387Y47555D01*
X364318Y47576D01*
X364248Y47594D01*
X364177Y47607D01*
X364105Y47617D01*
X364033Y47623D01*
X363961Y47625D01*
X363881Y47623D01*
X363802Y47618D01*
X363722Y47608D01*
X363644Y47595D01*
X363566Y47579D01*
X363488Y47559D01*
X363412Y47535D01*
X363337Y47507D01*
X363264Y47477D01*
X363192Y47443D01*
X363121Y47405D01*
X363053Y47364D01*
X362986Y47320D01*
X362921Y47274D01*
X362859Y47224D01*
X362799Y47171D01*
X362742Y47115D01*
X362687Y47057D01*
X362635Y46997D01*
X362586Y46934D01*
X362540Y46869D01*
X362497Y46802D01*
X362457Y46733D01*
X362421Y46662D01*
X362387Y46589D01*
X362358Y46515D01*
X362331Y46440D01*
X364850Y45254D02*
X364901Y45305D01*
X364949Y45359D01*
X364995Y45415D01*
X365038Y45474D01*
X365078Y45534D01*
X365114Y45597D01*
X365148Y45661D01*
X365178Y45727D01*
X365205Y45794D01*
X365228Y45863D01*
X365248Y45932D01*
X365265Y46003D01*
X365278Y46074D01*
X365287Y46146D01*
X365292Y46219D01*
X365294Y46291D01*
X364850Y45254D02*
X362331Y42291D01*
X365294Y42291D01*
X368104Y42291D02*
X368104Y47625D01*
X371068Y47625D02*
X368104Y44365D01*
X369290Y45551D02*
X371068Y42291D01*
X376268Y46291D02*
X376266Y46363D01*
X376260Y46435D01*
X376250Y46507D01*
X376237Y46578D01*
X376219Y46648D01*
X376198Y46717D01*
X376173Y46785D01*
X376145Y46851D01*
X376113Y46916D01*
X376077Y46979D01*
X376038Y47040D01*
X375996Y47098D01*
X375951Y47155D01*
X375902Y47208D01*
X375851Y47259D01*
X375798Y47308D01*
X375741Y47353D01*
X375683Y47395D01*
X375622Y47434D01*
X375559Y47470D01*
X375494Y47502D01*
X375428Y47530D01*
X375360Y47555D01*
X375291Y47576D01*
X375221Y47594D01*
X375150Y47607D01*
X375078Y47617D01*
X375006Y47623D01*
X374934Y47625D01*
X374854Y47623D01*
X374775Y47618D01*
X374695Y47608D01*
X374617Y47595D01*
X374539Y47579D01*
X374461Y47559D01*
X374385Y47535D01*
X374310Y47507D01*
X374237Y47477D01*
X374165Y47443D01*
X374094Y47405D01*
X374026Y47364D01*
X373959Y47320D01*
X373894Y47274D01*
X373832Y47224D01*
X373772Y47171D01*
X373715Y47115D01*
X373660Y47057D01*
X373608Y46997D01*
X373559Y46934D01*
X373513Y46869D01*
X373470Y46802D01*
X373430Y46733D01*
X373394Y46662D01*
X373360Y46589D01*
X373331Y46515D01*
X373304Y46440D01*
X375823Y45254D02*
X375874Y45305D01*
X375922Y45359D01*
X375968Y45415D01*
X376011Y45474D01*
X376051Y45534D01*
X376087Y45597D01*
X376121Y45661D01*
X376151Y45727D01*
X376178Y45794D01*
X376201Y45863D01*
X376221Y45932D01*
X376238Y46003D01*
X376251Y46074D01*
X376260Y46146D01*
X376265Y46219D01*
X376267Y46291D01*
X375823Y45254D02*
X373304Y42291D01*
X376267Y42291D01*
D10*
X355600Y29500D02*
X355600Y21300D01*
X342900Y21300D02*
X342900Y29500D01*
D11*
X342498Y9779D02*
X342498Y4445D01*
X342498Y9779D02*
X343980Y9779D01*
X344056Y9777D01*
X344132Y9771D01*
X344208Y9761D01*
X344283Y9748D01*
X344357Y9730D01*
X344431Y9709D01*
X344503Y9684D01*
X344573Y9655D01*
X344643Y9623D01*
X344710Y9587D01*
X344775Y9547D01*
X344839Y9505D01*
X344900Y9459D01*
X344958Y9410D01*
X345014Y9358D01*
X345068Y9304D01*
X345118Y9246D01*
X345165Y9187D01*
X345210Y9124D01*
X345251Y9060D01*
X345288Y8994D01*
X345322Y8925D01*
X345353Y8855D01*
X345380Y8784D01*
X345403Y8711D01*
X345422Y8637D01*
X345438Y8563D01*
X345450Y8487D01*
X345458Y8411D01*
X345462Y8335D01*
X345462Y8259D01*
X345458Y8183D01*
X345450Y8107D01*
X345438Y8031D01*
X345422Y7957D01*
X345403Y7883D01*
X345380Y7810D01*
X345353Y7739D01*
X345322Y7669D01*
X345288Y7600D01*
X345251Y7534D01*
X345210Y7470D01*
X345165Y7407D01*
X345118Y7348D01*
X345068Y7290D01*
X345014Y7236D01*
X344958Y7184D01*
X344900Y7135D01*
X344839Y7089D01*
X344775Y7047D01*
X344710Y7007D01*
X344643Y6971D01*
X344573Y6939D01*
X344503Y6910D01*
X344431Y6885D01*
X344357Y6864D01*
X344283Y6846D01*
X344208Y6833D01*
X344132Y6823D01*
X344056Y6817D01*
X343980Y6815D01*
X343980Y6816D02*
X342498Y6816D01*
X344276Y6816D02*
X345462Y4445D01*
X347939Y8594D02*
X349421Y9779D01*
X349421Y4445D01*
X347939Y4445D02*
X350903Y4445D01*
X353426Y4445D02*
X355204Y4445D01*
X355270Y4447D01*
X355337Y4452D01*
X355402Y4462D01*
X355468Y4475D01*
X355532Y4491D01*
X355595Y4511D01*
X355657Y4535D01*
X355718Y4562D01*
X355777Y4593D01*
X355834Y4627D01*
X355890Y4664D01*
X355943Y4704D01*
X355994Y4746D01*
X356042Y4792D01*
X356088Y4840D01*
X356130Y4891D01*
X356170Y4944D01*
X356207Y5000D01*
X356241Y5057D01*
X356272Y5116D01*
X356299Y5177D01*
X356323Y5239D01*
X356343Y5302D01*
X356359Y5366D01*
X356372Y5432D01*
X356382Y5497D01*
X356387Y5564D01*
X356389Y5630D01*
X356389Y6223D01*
X356387Y6289D01*
X356382Y6356D01*
X356372Y6421D01*
X356359Y6487D01*
X356343Y6551D01*
X356323Y6614D01*
X356299Y6676D01*
X356272Y6737D01*
X356241Y6796D01*
X356207Y6853D01*
X356170Y6909D01*
X356130Y6962D01*
X356088Y7013D01*
X356042Y7061D01*
X355994Y7107D01*
X355943Y7149D01*
X355890Y7189D01*
X355834Y7226D01*
X355777Y7260D01*
X355718Y7291D01*
X355657Y7318D01*
X355595Y7342D01*
X355532Y7362D01*
X355468Y7378D01*
X355402Y7391D01*
X355337Y7401D01*
X355270Y7406D01*
X355204Y7408D01*
X353426Y7408D01*
X353426Y9779D01*
X356389Y9779D01*
X342011Y45170D02*
X343493Y46355D01*
X343493Y41021D01*
X344974Y41021D02*
X342011Y41021D01*
X347497Y43688D02*
X347499Y43813D01*
X347504Y43937D01*
X347513Y44061D01*
X347525Y44185D01*
X347541Y44309D01*
X347560Y44432D01*
X347583Y44555D01*
X347610Y44677D01*
X347639Y44798D01*
X347672Y44918D01*
X347709Y45037D01*
X347749Y45155D01*
X347792Y45272D01*
X347839Y45387D01*
X347889Y45502D01*
X347942Y45614D01*
X347965Y45675D01*
X347991Y45734D01*
X348021Y45792D01*
X348054Y45847D01*
X348091Y45901D01*
X348130Y45952D01*
X348172Y46001D01*
X348218Y46047D01*
X348266Y46091D01*
X348316Y46132D01*
X348369Y46169D01*
X348423Y46204D01*
X348480Y46235D01*
X348539Y46263D01*
X348599Y46287D01*
X348660Y46308D01*
X348722Y46325D01*
X348786Y46338D01*
X348850Y46347D01*
X348914Y46353D01*
X348979Y46355D01*
X349044Y46353D01*
X349108Y46347D01*
X349172Y46338D01*
X349236Y46325D01*
X349298Y46308D01*
X349359Y46287D01*
X349419Y46263D01*
X349478Y46235D01*
X349535Y46204D01*
X349589Y46169D01*
X349642Y46132D01*
X349692Y46091D01*
X349740Y46047D01*
X349786Y46001D01*
X349828Y45952D01*
X349867Y45901D01*
X349904Y45847D01*
X349937Y45792D01*
X349967Y45734D01*
X349993Y45675D01*
X350016Y45614D01*
X350069Y45502D01*
X350119Y45387D01*
X350166Y45272D01*
X350209Y45155D01*
X350249Y45037D01*
X350286Y44918D01*
X350319Y44798D01*
X350348Y44677D01*
X350375Y44555D01*
X350398Y44432D01*
X350417Y44309D01*
X350433Y44185D01*
X350445Y44061D01*
X350454Y43937D01*
X350459Y43813D01*
X350461Y43688D01*
X347497Y43688D02*
X347499Y43563D01*
X347504Y43439D01*
X347513Y43315D01*
X347525Y43191D01*
X347541Y43067D01*
X347560Y42944D01*
X347583Y42821D01*
X347610Y42700D01*
X347639Y42579D01*
X347672Y42458D01*
X347709Y42339D01*
X347749Y42221D01*
X347792Y42104D01*
X347839Y41989D01*
X347889Y41874D01*
X347942Y41762D01*
X347965Y41701D01*
X347991Y41642D01*
X348021Y41584D01*
X348054Y41529D01*
X348091Y41475D01*
X348130Y41424D01*
X348172Y41375D01*
X348218Y41329D01*
X348266Y41285D01*
X348316Y41244D01*
X348369Y41207D01*
X348423Y41172D01*
X348480Y41141D01*
X348539Y41113D01*
X348599Y41089D01*
X348660Y41068D01*
X348722Y41051D01*
X348786Y41038D01*
X348850Y41029D01*
X348914Y41023D01*
X348979Y41021D01*
X350016Y41762D02*
X350069Y41874D01*
X350119Y41989D01*
X350166Y42104D01*
X350209Y42221D01*
X350249Y42339D01*
X350286Y42458D01*
X350319Y42579D01*
X350348Y42700D01*
X350375Y42821D01*
X350398Y42944D01*
X350417Y43067D01*
X350433Y43191D01*
X350445Y43315D01*
X350454Y43439D01*
X350459Y43563D01*
X350461Y43688D01*
X350016Y41762D02*
X349993Y41701D01*
X349967Y41642D01*
X349937Y41584D01*
X349904Y41529D01*
X349867Y41475D01*
X349828Y41424D01*
X349786Y41375D01*
X349740Y41329D01*
X349692Y41285D01*
X349642Y41244D01*
X349589Y41207D01*
X349535Y41172D01*
X349478Y41141D01*
X349419Y41113D01*
X349359Y41089D01*
X349298Y41068D01*
X349236Y41051D01*
X349172Y41038D01*
X349108Y41029D01*
X349044Y41023D01*
X348979Y41021D01*
X347794Y42206D02*
X350164Y45170D01*
X353271Y46355D02*
X353271Y41021D01*
X353271Y43095D02*
X356234Y46355D01*
X354456Y44281D02*
X356234Y41021D01*
D10*
X342900Y59400D02*
X342900Y67600D01*
X355600Y67600D02*
X355600Y59400D01*
D11*
X342111Y79121D02*
X342111Y84455D01*
X343593Y84455D01*
X343669Y84453D01*
X343745Y84447D01*
X343821Y84437D01*
X343896Y84424D01*
X343970Y84406D01*
X344044Y84385D01*
X344116Y84360D01*
X344186Y84331D01*
X344256Y84299D01*
X344323Y84263D01*
X344388Y84223D01*
X344452Y84181D01*
X344513Y84135D01*
X344571Y84086D01*
X344627Y84034D01*
X344681Y83980D01*
X344731Y83922D01*
X344778Y83863D01*
X344823Y83800D01*
X344864Y83736D01*
X344901Y83670D01*
X344935Y83601D01*
X344966Y83531D01*
X344993Y83460D01*
X345016Y83387D01*
X345035Y83313D01*
X345051Y83239D01*
X345063Y83163D01*
X345071Y83087D01*
X345075Y83011D01*
X345075Y82935D01*
X345071Y82859D01*
X345063Y82783D01*
X345051Y82707D01*
X345035Y82633D01*
X345016Y82559D01*
X344993Y82486D01*
X344966Y82415D01*
X344935Y82345D01*
X344901Y82276D01*
X344864Y82210D01*
X344823Y82146D01*
X344778Y82083D01*
X344731Y82024D01*
X344681Y81966D01*
X344627Y81912D01*
X344571Y81860D01*
X344513Y81811D01*
X344452Y81765D01*
X344388Y81723D01*
X344323Y81683D01*
X344256Y81647D01*
X344186Y81615D01*
X344116Y81586D01*
X344044Y81561D01*
X343970Y81540D01*
X343896Y81522D01*
X343821Y81509D01*
X343745Y81499D01*
X343669Y81493D01*
X343593Y81491D01*
X343593Y81492D02*
X342111Y81492D01*
X343889Y81492D02*
X345074Y79121D01*
X347552Y83270D02*
X349034Y84455D01*
X349034Y79121D01*
X350515Y79121D02*
X347552Y79121D01*
X353038Y82084D02*
X354816Y82084D01*
X354882Y82082D01*
X354949Y82077D01*
X355014Y82067D01*
X355080Y82054D01*
X355144Y82038D01*
X355207Y82018D01*
X355269Y81994D01*
X355330Y81967D01*
X355389Y81936D01*
X355446Y81902D01*
X355502Y81865D01*
X355555Y81825D01*
X355606Y81783D01*
X355654Y81737D01*
X355700Y81689D01*
X355742Y81638D01*
X355782Y81585D01*
X355819Y81529D01*
X355853Y81472D01*
X355884Y81413D01*
X355911Y81352D01*
X355935Y81290D01*
X355955Y81227D01*
X355971Y81163D01*
X355984Y81097D01*
X355994Y81032D01*
X355999Y80965D01*
X356001Y80899D01*
X356002Y80899D02*
X356002Y80603D01*
X356000Y80527D01*
X355994Y80451D01*
X355984Y80375D01*
X355971Y80300D01*
X355953Y80226D01*
X355932Y80152D01*
X355907Y80080D01*
X355878Y80010D01*
X355846Y79940D01*
X355810Y79873D01*
X355770Y79808D01*
X355728Y79744D01*
X355682Y79683D01*
X355633Y79625D01*
X355581Y79569D01*
X355527Y79515D01*
X355469Y79465D01*
X355410Y79418D01*
X355347Y79373D01*
X355283Y79332D01*
X355217Y79295D01*
X355148Y79261D01*
X355078Y79230D01*
X355007Y79203D01*
X354934Y79180D01*
X354860Y79161D01*
X354786Y79145D01*
X354710Y79133D01*
X354634Y79125D01*
X354558Y79121D01*
X354482Y79121D01*
X354406Y79125D01*
X354330Y79133D01*
X354254Y79145D01*
X354180Y79161D01*
X354106Y79180D01*
X354033Y79203D01*
X353962Y79230D01*
X353892Y79261D01*
X353823Y79295D01*
X353757Y79332D01*
X353693Y79373D01*
X353630Y79418D01*
X353571Y79465D01*
X353513Y79515D01*
X353459Y79569D01*
X353407Y79625D01*
X353358Y79683D01*
X353312Y79744D01*
X353270Y79808D01*
X353230Y79873D01*
X353194Y79940D01*
X353162Y80010D01*
X353133Y80080D01*
X353108Y80152D01*
X353087Y80226D01*
X353069Y80300D01*
X353056Y80375D01*
X353046Y80451D01*
X353040Y80527D01*
X353038Y80603D01*
X353038Y82084D01*
X353040Y82179D01*
X353046Y82275D01*
X353055Y82370D01*
X353069Y82464D01*
X353086Y82558D01*
X353107Y82651D01*
X353132Y82744D01*
X353160Y82835D01*
X353192Y82925D01*
X353228Y83013D01*
X353267Y83100D01*
X353310Y83186D01*
X353356Y83269D01*
X353405Y83351D01*
X353458Y83431D01*
X353514Y83508D01*
X353572Y83584D01*
X353634Y83656D01*
X353699Y83726D01*
X353767Y83794D01*
X353837Y83859D01*
X353909Y83921D01*
X353985Y83979D01*
X354062Y84035D01*
X354142Y84088D01*
X354223Y84137D01*
X354307Y84183D01*
X354393Y84226D01*
X354480Y84265D01*
X354568Y84301D01*
X354658Y84333D01*
X354749Y84361D01*
X354842Y84386D01*
X354935Y84407D01*
X355029Y84424D01*
X355123Y84438D01*
X355218Y84447D01*
X355313Y84453D01*
X355409Y84455D01*
X346075Y59013D02*
X347260Y57531D01*
X346075Y59013D02*
X351409Y59013D01*
X351409Y60494D02*
X351409Y57531D01*
X348742Y63017D02*
X348617Y63019D01*
X348493Y63024D01*
X348369Y63033D01*
X348245Y63045D01*
X348121Y63061D01*
X347998Y63080D01*
X347875Y63103D01*
X347754Y63130D01*
X347633Y63159D01*
X347512Y63192D01*
X347393Y63229D01*
X347275Y63269D01*
X347158Y63312D01*
X347043Y63359D01*
X346928Y63409D01*
X346816Y63462D01*
X346755Y63485D01*
X346696Y63511D01*
X346638Y63541D01*
X346583Y63574D01*
X346529Y63611D01*
X346478Y63650D01*
X346429Y63692D01*
X346383Y63738D01*
X346339Y63786D01*
X346298Y63836D01*
X346261Y63889D01*
X346226Y63943D01*
X346195Y64000D01*
X346167Y64059D01*
X346143Y64119D01*
X346122Y64180D01*
X346105Y64242D01*
X346092Y64306D01*
X346083Y64370D01*
X346077Y64434D01*
X346075Y64499D01*
X346077Y64564D01*
X346083Y64628D01*
X346092Y64692D01*
X346105Y64756D01*
X346122Y64818D01*
X346143Y64879D01*
X346167Y64939D01*
X346195Y64998D01*
X346226Y65055D01*
X346261Y65109D01*
X346298Y65162D01*
X346339Y65212D01*
X346383Y65260D01*
X346429Y65306D01*
X346478Y65348D01*
X346529Y65387D01*
X346583Y65424D01*
X346638Y65457D01*
X346696Y65487D01*
X346755Y65513D01*
X346816Y65536D01*
X346928Y65589D01*
X347043Y65639D01*
X347158Y65686D01*
X347275Y65729D01*
X347393Y65769D01*
X347512Y65806D01*
X347633Y65839D01*
X347754Y65868D01*
X347875Y65895D01*
X347998Y65918D01*
X348121Y65937D01*
X348245Y65953D01*
X348369Y65965D01*
X348493Y65974D01*
X348617Y65979D01*
X348742Y65981D01*
X348742Y63017D02*
X348867Y63019D01*
X348991Y63024D01*
X349115Y63033D01*
X349239Y63045D01*
X349363Y63061D01*
X349486Y63080D01*
X349609Y63103D01*
X349730Y63130D01*
X349851Y63159D01*
X349972Y63192D01*
X350091Y63229D01*
X350209Y63269D01*
X350326Y63312D01*
X350441Y63359D01*
X350556Y63409D01*
X350668Y63462D01*
X350729Y63485D01*
X350788Y63511D01*
X350846Y63541D01*
X350901Y63574D01*
X350955Y63611D01*
X351006Y63650D01*
X351055Y63692D01*
X351101Y63738D01*
X351145Y63786D01*
X351186Y63836D01*
X351223Y63889D01*
X351258Y63943D01*
X351289Y64000D01*
X351317Y64059D01*
X351341Y64119D01*
X351362Y64180D01*
X351379Y64242D01*
X351392Y64306D01*
X351401Y64370D01*
X351407Y64434D01*
X351409Y64499D01*
X350668Y65536D02*
X350556Y65589D01*
X350441Y65639D01*
X350326Y65686D01*
X350209Y65729D01*
X350091Y65769D01*
X349972Y65806D01*
X349851Y65839D01*
X349730Y65868D01*
X349609Y65895D01*
X349486Y65918D01*
X349363Y65937D01*
X349239Y65953D01*
X349115Y65965D01*
X348991Y65974D01*
X348867Y65979D01*
X348742Y65981D01*
X350668Y65536D02*
X350729Y65513D01*
X350788Y65487D01*
X350846Y65457D01*
X350901Y65424D01*
X350955Y65387D01*
X351006Y65348D01*
X351055Y65306D01*
X351101Y65260D01*
X351145Y65212D01*
X351186Y65162D01*
X351223Y65109D01*
X351258Y65055D01*
X351289Y64998D01*
X351317Y64939D01*
X351341Y64879D01*
X351362Y64818D01*
X351379Y64756D01*
X351392Y64692D01*
X351401Y64628D01*
X351407Y64564D01*
X351409Y64499D01*
X350224Y63314D02*
X347260Y65684D01*
X346075Y68791D02*
X351409Y68791D01*
X349335Y68791D02*
X346075Y71754D01*
X348149Y69976D02*
X351409Y71754D01*
D10*
X220000Y31750D02*
X211800Y31750D01*
X211800Y44450D02*
X220000Y44450D01*
D11*
X231521Y31348D02*
X236855Y31348D01*
X231521Y31348D02*
X231521Y32830D01*
X231523Y32906D01*
X231529Y32982D01*
X231539Y33058D01*
X231552Y33133D01*
X231570Y33207D01*
X231591Y33281D01*
X231616Y33353D01*
X231645Y33423D01*
X231677Y33493D01*
X231713Y33560D01*
X231753Y33625D01*
X231795Y33689D01*
X231841Y33750D01*
X231890Y33808D01*
X231942Y33864D01*
X231996Y33918D01*
X232054Y33968D01*
X232113Y34015D01*
X232176Y34060D01*
X232240Y34101D01*
X232306Y34138D01*
X232375Y34172D01*
X232445Y34203D01*
X232516Y34230D01*
X232589Y34253D01*
X232663Y34272D01*
X232737Y34288D01*
X232813Y34300D01*
X232889Y34308D01*
X232965Y34312D01*
X233041Y34312D01*
X233117Y34308D01*
X233193Y34300D01*
X233269Y34288D01*
X233343Y34272D01*
X233417Y34253D01*
X233490Y34230D01*
X233561Y34203D01*
X233631Y34172D01*
X233700Y34138D01*
X233766Y34101D01*
X233830Y34060D01*
X233893Y34015D01*
X233952Y33968D01*
X234010Y33918D01*
X234064Y33864D01*
X234116Y33808D01*
X234165Y33750D01*
X234211Y33689D01*
X234253Y33625D01*
X234293Y33560D01*
X234329Y33493D01*
X234361Y33423D01*
X234390Y33353D01*
X234415Y33281D01*
X234436Y33207D01*
X234454Y33133D01*
X234467Y33058D01*
X234477Y32982D01*
X234483Y32906D01*
X234485Y32830D01*
X234484Y32830D02*
X234484Y31348D01*
X234484Y33126D02*
X236855Y34312D01*
X232706Y36789D02*
X231521Y38271D01*
X236855Y38271D01*
X236855Y36789D02*
X236855Y39753D01*
X232114Y42276D02*
X231521Y42276D01*
X231521Y45239D01*
X236855Y43757D01*
X195876Y30768D02*
X194691Y32250D01*
X200025Y32250D01*
X200025Y30768D02*
X200025Y33732D01*
X197358Y36254D02*
X197233Y36256D01*
X197109Y36261D01*
X196985Y36270D01*
X196861Y36282D01*
X196737Y36298D01*
X196614Y36317D01*
X196491Y36340D01*
X196370Y36367D01*
X196249Y36396D01*
X196128Y36429D01*
X196009Y36466D01*
X195891Y36506D01*
X195774Y36549D01*
X195659Y36596D01*
X195544Y36646D01*
X195432Y36699D01*
X195371Y36722D01*
X195312Y36748D01*
X195254Y36778D01*
X195199Y36811D01*
X195145Y36848D01*
X195094Y36887D01*
X195045Y36929D01*
X194999Y36975D01*
X194955Y37023D01*
X194914Y37073D01*
X194877Y37126D01*
X194842Y37180D01*
X194811Y37237D01*
X194783Y37296D01*
X194759Y37356D01*
X194738Y37417D01*
X194721Y37479D01*
X194708Y37543D01*
X194699Y37607D01*
X194693Y37671D01*
X194691Y37736D01*
X194693Y37801D01*
X194699Y37865D01*
X194708Y37929D01*
X194721Y37993D01*
X194738Y38055D01*
X194759Y38116D01*
X194783Y38176D01*
X194811Y38235D01*
X194842Y38292D01*
X194877Y38346D01*
X194914Y38399D01*
X194955Y38449D01*
X194999Y38497D01*
X195045Y38543D01*
X195094Y38585D01*
X195145Y38624D01*
X195199Y38661D01*
X195254Y38694D01*
X195312Y38724D01*
X195371Y38750D01*
X195432Y38773D01*
X195544Y38826D01*
X195659Y38876D01*
X195774Y38923D01*
X195891Y38966D01*
X196009Y39006D01*
X196128Y39043D01*
X196249Y39076D01*
X196370Y39105D01*
X196491Y39132D01*
X196614Y39155D01*
X196737Y39174D01*
X196861Y39190D01*
X196985Y39202D01*
X197109Y39211D01*
X197233Y39216D01*
X197358Y39218D01*
X197358Y36254D02*
X197483Y36256D01*
X197607Y36261D01*
X197731Y36270D01*
X197855Y36282D01*
X197979Y36298D01*
X198102Y36317D01*
X198225Y36340D01*
X198346Y36367D01*
X198467Y36396D01*
X198588Y36429D01*
X198707Y36466D01*
X198825Y36506D01*
X198942Y36549D01*
X199057Y36596D01*
X199172Y36646D01*
X199284Y36699D01*
X199345Y36722D01*
X199404Y36748D01*
X199462Y36778D01*
X199517Y36811D01*
X199571Y36848D01*
X199622Y36887D01*
X199671Y36929D01*
X199717Y36975D01*
X199761Y37023D01*
X199802Y37073D01*
X199839Y37126D01*
X199874Y37180D01*
X199905Y37237D01*
X199933Y37296D01*
X199957Y37356D01*
X199978Y37417D01*
X199995Y37479D01*
X200008Y37543D01*
X200017Y37607D01*
X200023Y37671D01*
X200025Y37736D01*
X199284Y38773D02*
X199172Y38826D01*
X199057Y38876D01*
X198942Y38923D01*
X198825Y38966D01*
X198707Y39006D01*
X198588Y39043D01*
X198467Y39076D01*
X198346Y39105D01*
X198225Y39132D01*
X198102Y39155D01*
X197979Y39174D01*
X197855Y39190D01*
X197731Y39202D01*
X197607Y39211D01*
X197483Y39216D01*
X197358Y39218D01*
X199284Y38773D02*
X199345Y38750D01*
X199404Y38724D01*
X199462Y38694D01*
X199517Y38661D01*
X199571Y38624D01*
X199622Y38585D01*
X199671Y38543D01*
X199717Y38497D01*
X199761Y38449D01*
X199802Y38399D01*
X199839Y38346D01*
X199874Y38292D01*
X199905Y38235D01*
X199933Y38176D01*
X199957Y38116D01*
X199978Y38055D01*
X199995Y37993D01*
X200008Y37929D01*
X200017Y37865D01*
X200023Y37801D01*
X200025Y37736D01*
X198840Y36551D02*
X195876Y38922D01*
X197358Y41741D02*
X197233Y41743D01*
X197109Y41748D01*
X196985Y41757D01*
X196861Y41769D01*
X196737Y41785D01*
X196614Y41804D01*
X196491Y41827D01*
X196370Y41854D01*
X196249Y41883D01*
X196128Y41916D01*
X196009Y41953D01*
X195891Y41993D01*
X195774Y42036D01*
X195659Y42083D01*
X195544Y42133D01*
X195432Y42186D01*
X195371Y42209D01*
X195312Y42235D01*
X195254Y42265D01*
X195199Y42298D01*
X195145Y42335D01*
X195094Y42374D01*
X195045Y42416D01*
X194999Y42462D01*
X194955Y42510D01*
X194914Y42560D01*
X194877Y42613D01*
X194842Y42667D01*
X194811Y42724D01*
X194783Y42783D01*
X194759Y42843D01*
X194738Y42904D01*
X194721Y42966D01*
X194708Y43030D01*
X194699Y43094D01*
X194693Y43158D01*
X194691Y43223D01*
X194693Y43288D01*
X194699Y43352D01*
X194708Y43416D01*
X194721Y43480D01*
X194738Y43542D01*
X194759Y43603D01*
X194783Y43663D01*
X194811Y43722D01*
X194842Y43779D01*
X194877Y43833D01*
X194914Y43886D01*
X194955Y43936D01*
X194999Y43984D01*
X195045Y44030D01*
X195094Y44072D01*
X195145Y44111D01*
X195199Y44148D01*
X195254Y44181D01*
X195312Y44211D01*
X195371Y44237D01*
X195432Y44260D01*
X195544Y44313D01*
X195659Y44363D01*
X195774Y44410D01*
X195891Y44453D01*
X196009Y44493D01*
X196128Y44530D01*
X196249Y44563D01*
X196370Y44592D01*
X196491Y44619D01*
X196614Y44642D01*
X196737Y44661D01*
X196861Y44677D01*
X196985Y44689D01*
X197109Y44698D01*
X197233Y44703D01*
X197358Y44705D01*
X197358Y41741D02*
X197483Y41743D01*
X197607Y41748D01*
X197731Y41757D01*
X197855Y41769D01*
X197979Y41785D01*
X198102Y41804D01*
X198225Y41827D01*
X198346Y41854D01*
X198467Y41883D01*
X198588Y41916D01*
X198707Y41953D01*
X198825Y41993D01*
X198942Y42036D01*
X199057Y42083D01*
X199172Y42133D01*
X199284Y42186D01*
X199345Y42209D01*
X199404Y42235D01*
X199462Y42265D01*
X199517Y42298D01*
X199571Y42335D01*
X199622Y42374D01*
X199671Y42416D01*
X199717Y42462D01*
X199761Y42510D01*
X199802Y42560D01*
X199839Y42613D01*
X199874Y42667D01*
X199905Y42724D01*
X199933Y42783D01*
X199957Y42843D01*
X199978Y42904D01*
X199995Y42966D01*
X200008Y43030D01*
X200017Y43094D01*
X200023Y43158D01*
X200025Y43223D01*
X199284Y44260D02*
X199172Y44313D01*
X199057Y44363D01*
X198942Y44410D01*
X198825Y44453D01*
X198707Y44493D01*
X198588Y44530D01*
X198467Y44563D01*
X198346Y44592D01*
X198225Y44619D01*
X198102Y44642D01*
X197979Y44661D01*
X197855Y44677D01*
X197731Y44689D01*
X197607Y44698D01*
X197483Y44703D01*
X197358Y44705D01*
X199284Y44260D02*
X199345Y44237D01*
X199404Y44211D01*
X199462Y44181D01*
X199517Y44148D01*
X199571Y44111D01*
X199622Y44072D01*
X199671Y44030D01*
X199717Y43984D01*
X199761Y43936D01*
X199802Y43886D01*
X199839Y43833D01*
X199874Y43779D01*
X199905Y43722D01*
X199933Y43663D01*
X199957Y43603D01*
X199978Y43542D01*
X199995Y43480D01*
X200008Y43416D01*
X200017Y43352D01*
X200023Y43288D01*
X200025Y43223D01*
X198840Y42037D02*
X195876Y44408D01*
X194691Y47456D02*
X200025Y47456D01*
X194691Y47456D02*
X194691Y48937D01*
X194693Y49013D01*
X194699Y49089D01*
X194709Y49165D01*
X194722Y49240D01*
X194740Y49314D01*
X194761Y49388D01*
X194786Y49460D01*
X194815Y49530D01*
X194847Y49600D01*
X194883Y49667D01*
X194923Y49732D01*
X194965Y49796D01*
X195011Y49857D01*
X195060Y49915D01*
X195112Y49971D01*
X195166Y50025D01*
X195224Y50075D01*
X195283Y50122D01*
X195346Y50167D01*
X195410Y50208D01*
X195476Y50245D01*
X195545Y50279D01*
X195615Y50310D01*
X195686Y50337D01*
X195759Y50360D01*
X195833Y50379D01*
X195907Y50395D01*
X195983Y50407D01*
X196059Y50415D01*
X196135Y50419D01*
X196211Y50419D01*
X196287Y50415D01*
X196363Y50407D01*
X196439Y50395D01*
X196513Y50379D01*
X196587Y50360D01*
X196660Y50337D01*
X196731Y50310D01*
X196801Y50279D01*
X196870Y50245D01*
X196936Y50208D01*
X197000Y50167D01*
X197063Y50122D01*
X197122Y50075D01*
X197180Y50025D01*
X197234Y49971D01*
X197286Y49915D01*
X197335Y49857D01*
X197381Y49796D01*
X197423Y49732D01*
X197463Y49667D01*
X197499Y49600D01*
X197531Y49530D01*
X197560Y49460D01*
X197585Y49388D01*
X197606Y49314D01*
X197624Y49240D01*
X197637Y49165D01*
X197647Y49089D01*
X197653Y49013D01*
X197655Y48937D01*
X197654Y48937D02*
X197654Y47456D01*
X197654Y49234D02*
X200025Y50419D01*
D18*
X95600Y103100D03*
X107600Y103100D03*
D19*
X101600Y103100D03*
D13*
X107442Y49739D02*
X95758Y49739D01*
X95758Y52984D01*
X95760Y53097D01*
X95766Y53210D01*
X95776Y53323D01*
X95790Y53436D01*
X95807Y53548D01*
X95829Y53659D01*
X95854Y53769D01*
X95884Y53879D01*
X95917Y53987D01*
X95954Y54094D01*
X95994Y54200D01*
X96039Y54304D01*
X96087Y54407D01*
X96138Y54508D01*
X96193Y54607D01*
X96251Y54704D01*
X96313Y54799D01*
X96378Y54892D01*
X96446Y54982D01*
X96517Y55070D01*
X96592Y55156D01*
X96669Y55239D01*
X96749Y55319D01*
X96832Y55396D01*
X96918Y55471D01*
X97006Y55542D01*
X97096Y55610D01*
X97189Y55675D01*
X97284Y55737D01*
X97381Y55795D01*
X97480Y55850D01*
X97581Y55901D01*
X97684Y55949D01*
X97788Y55994D01*
X97894Y56034D01*
X98001Y56071D01*
X98109Y56104D01*
X98219Y56134D01*
X98329Y56159D01*
X98440Y56181D01*
X98552Y56198D01*
X98665Y56212D01*
X98778Y56222D01*
X98891Y56228D01*
X99004Y56230D01*
X99117Y56228D01*
X99230Y56222D01*
X99343Y56212D01*
X99456Y56198D01*
X99568Y56181D01*
X99679Y56159D01*
X99789Y56134D01*
X99899Y56104D01*
X100007Y56071D01*
X100114Y56034D01*
X100220Y55994D01*
X100324Y55949D01*
X100427Y55901D01*
X100528Y55850D01*
X100627Y55795D01*
X100724Y55737D01*
X100819Y55675D01*
X100912Y55610D01*
X101002Y55542D01*
X101090Y55471D01*
X101176Y55396D01*
X101259Y55319D01*
X101339Y55239D01*
X101416Y55156D01*
X101491Y55070D01*
X101562Y54982D01*
X101630Y54892D01*
X101695Y54799D01*
X101757Y54704D01*
X101815Y54607D01*
X101870Y54508D01*
X101921Y54407D01*
X101969Y54304D01*
X102014Y54200D01*
X102054Y54094D01*
X102091Y53987D01*
X102124Y53879D01*
X102154Y53769D01*
X102179Y53659D01*
X102201Y53548D01*
X102218Y53436D01*
X102232Y53323D01*
X102242Y53210D01*
X102248Y53097D01*
X102250Y52984D01*
X102249Y52984D02*
X102249Y49739D01*
X95758Y60195D02*
X107442Y62791D01*
X99653Y65388D01*
X107442Y67984D01*
X95758Y70581D01*
X95758Y75551D02*
X107442Y75551D01*
X95758Y75551D02*
X95758Y78796D01*
X95760Y78909D01*
X95766Y79022D01*
X95776Y79135D01*
X95790Y79248D01*
X95807Y79360D01*
X95829Y79471D01*
X95854Y79581D01*
X95884Y79691D01*
X95917Y79799D01*
X95954Y79906D01*
X95994Y80012D01*
X96039Y80116D01*
X96087Y80219D01*
X96138Y80320D01*
X96193Y80419D01*
X96251Y80516D01*
X96313Y80611D01*
X96378Y80704D01*
X96446Y80794D01*
X96517Y80882D01*
X96592Y80968D01*
X96669Y81051D01*
X96749Y81131D01*
X96832Y81208D01*
X96918Y81283D01*
X97006Y81354D01*
X97096Y81422D01*
X97189Y81487D01*
X97284Y81549D01*
X97381Y81607D01*
X97480Y81662D01*
X97581Y81713D01*
X97684Y81761D01*
X97788Y81806D01*
X97894Y81846D01*
X98001Y81883D01*
X98109Y81916D01*
X98219Y81946D01*
X98329Y81971D01*
X98440Y81993D01*
X98552Y82010D01*
X98665Y82024D01*
X98778Y82034D01*
X98891Y82040D01*
X99004Y82042D01*
X99117Y82040D01*
X99230Y82034D01*
X99343Y82024D01*
X99456Y82010D01*
X99568Y81993D01*
X99679Y81971D01*
X99789Y81946D01*
X99899Y81916D01*
X100007Y81883D01*
X100114Y81846D01*
X100220Y81806D01*
X100324Y81761D01*
X100427Y81713D01*
X100528Y81662D01*
X100627Y81607D01*
X100724Y81549D01*
X100819Y81487D01*
X100912Y81422D01*
X101002Y81354D01*
X101090Y81283D01*
X101176Y81208D01*
X101259Y81131D01*
X101339Y81051D01*
X101416Y80968D01*
X101491Y80882D01*
X101562Y80794D01*
X101630Y80704D01*
X101695Y80611D01*
X101757Y80516D01*
X101815Y80419D01*
X101870Y80320D01*
X101921Y80219D01*
X101969Y80116D01*
X102014Y80012D01*
X102054Y79906D01*
X102091Y79799D01*
X102124Y79691D01*
X102154Y79581D01*
X102179Y79471D01*
X102201Y79360D01*
X102218Y79248D01*
X102232Y79135D01*
X102242Y79022D01*
X102248Y78909D01*
X102250Y78796D01*
X102249Y78796D02*
X102249Y75551D01*
X102249Y79446D02*
X107442Y82042D01*
D18*
X88550Y100100D03*
X76550Y100100D03*
D19*
X82550Y100100D03*
D13*
X88392Y47809D02*
X76708Y47809D01*
X76708Y51054D02*
X76708Y44563D01*
X76708Y55686D02*
X88392Y55686D01*
X76708Y55686D02*
X76708Y58931D01*
X76710Y59044D01*
X76716Y59157D01*
X76726Y59270D01*
X76740Y59383D01*
X76757Y59495D01*
X76779Y59606D01*
X76804Y59716D01*
X76834Y59826D01*
X76867Y59934D01*
X76904Y60041D01*
X76944Y60147D01*
X76989Y60251D01*
X77037Y60354D01*
X77088Y60455D01*
X77143Y60554D01*
X77201Y60651D01*
X77263Y60746D01*
X77328Y60839D01*
X77396Y60929D01*
X77467Y61017D01*
X77542Y61103D01*
X77619Y61186D01*
X77699Y61266D01*
X77782Y61343D01*
X77868Y61418D01*
X77956Y61489D01*
X78046Y61557D01*
X78139Y61622D01*
X78234Y61684D01*
X78331Y61742D01*
X78430Y61797D01*
X78531Y61848D01*
X78634Y61896D01*
X78738Y61941D01*
X78844Y61981D01*
X78951Y62018D01*
X79059Y62051D01*
X79169Y62081D01*
X79279Y62106D01*
X79390Y62128D01*
X79502Y62145D01*
X79615Y62159D01*
X79728Y62169D01*
X79841Y62175D01*
X79954Y62177D01*
X80067Y62175D01*
X80180Y62169D01*
X80293Y62159D01*
X80406Y62145D01*
X80518Y62128D01*
X80629Y62106D01*
X80739Y62081D01*
X80849Y62051D01*
X80957Y62018D01*
X81064Y61981D01*
X81170Y61941D01*
X81274Y61896D01*
X81377Y61848D01*
X81478Y61797D01*
X81577Y61742D01*
X81674Y61684D01*
X81769Y61622D01*
X81862Y61557D01*
X81952Y61489D01*
X82040Y61418D01*
X82126Y61343D01*
X82209Y61266D01*
X82289Y61186D01*
X82366Y61103D01*
X82441Y61017D01*
X82512Y60929D01*
X82580Y60839D01*
X82645Y60746D01*
X82707Y60651D01*
X82765Y60554D01*
X82820Y60455D01*
X82871Y60354D01*
X82919Y60251D01*
X82964Y60147D01*
X83004Y60041D01*
X83041Y59934D01*
X83074Y59826D01*
X83104Y59716D01*
X83129Y59606D01*
X83151Y59495D01*
X83168Y59383D01*
X83182Y59270D01*
X83192Y59157D01*
X83198Y59044D01*
X83200Y58931D01*
X83199Y58931D02*
X83199Y55686D01*
X83199Y59580D02*
X88392Y62177D01*
X88392Y68001D02*
X76708Y68001D01*
X88392Y66703D02*
X88392Y69300D01*
X76708Y69300D02*
X76708Y66703D01*
X81901Y78825D02*
X81901Y80772D01*
X88392Y80772D01*
X88392Y76877D01*
X88390Y76778D01*
X88384Y76678D01*
X88375Y76579D01*
X88362Y76481D01*
X88345Y76383D01*
X88324Y76285D01*
X88299Y76189D01*
X88271Y76094D01*
X88239Y76000D01*
X88204Y75907D01*
X88165Y75815D01*
X88122Y75725D01*
X88077Y75637D01*
X88027Y75550D01*
X87975Y75466D01*
X87919Y75383D01*
X87861Y75303D01*
X87799Y75225D01*
X87734Y75150D01*
X87666Y75077D01*
X87596Y75007D01*
X87523Y74939D01*
X87448Y74874D01*
X87370Y74812D01*
X87290Y74754D01*
X87207Y74698D01*
X87123Y74646D01*
X87036Y74596D01*
X86948Y74551D01*
X86858Y74508D01*
X86766Y74469D01*
X86673Y74434D01*
X86579Y74402D01*
X86484Y74374D01*
X86388Y74349D01*
X86290Y74328D01*
X86192Y74311D01*
X86094Y74298D01*
X85995Y74289D01*
X85895Y74283D01*
X85796Y74281D01*
X79304Y74281D01*
X79304Y74280D02*
X79205Y74282D01*
X79105Y74288D01*
X79006Y74297D01*
X78908Y74310D01*
X78810Y74328D01*
X78712Y74348D01*
X78616Y74373D01*
X78520Y74401D01*
X78426Y74433D01*
X78333Y74468D01*
X78242Y74507D01*
X78152Y74550D01*
X78063Y74595D01*
X77977Y74645D01*
X77892Y74697D01*
X77810Y74753D01*
X77730Y74812D01*
X77652Y74873D01*
X77576Y74938D01*
X77503Y75006D01*
X77433Y75076D01*
X77365Y75149D01*
X77300Y75225D01*
X77239Y75303D01*
X77180Y75383D01*
X77124Y75465D01*
X77072Y75550D01*
X77023Y75636D01*
X76977Y75725D01*
X76934Y75815D01*
X76895Y75906D01*
X76860Y75999D01*
X76828Y76093D01*
X76800Y76189D01*
X76775Y76285D01*
X76755Y76383D01*
X76737Y76481D01*
X76724Y76579D01*
X76715Y76678D01*
X76709Y76777D01*
X76707Y76877D01*
X76708Y76877D02*
X76708Y80772D01*
D10*
X114300Y97500D02*
X114300Y105700D01*
X127000Y105700D02*
X127000Y97500D01*
D11*
X113898Y84709D02*
X113898Y79375D01*
X113898Y84709D02*
X115380Y84709D01*
X115456Y84707D01*
X115532Y84701D01*
X115608Y84691D01*
X115683Y84678D01*
X115757Y84660D01*
X115831Y84639D01*
X115903Y84614D01*
X115973Y84585D01*
X116043Y84553D01*
X116110Y84517D01*
X116175Y84477D01*
X116239Y84435D01*
X116300Y84389D01*
X116358Y84340D01*
X116414Y84288D01*
X116468Y84234D01*
X116518Y84176D01*
X116565Y84117D01*
X116610Y84054D01*
X116651Y83990D01*
X116688Y83924D01*
X116722Y83855D01*
X116753Y83785D01*
X116780Y83714D01*
X116803Y83641D01*
X116822Y83567D01*
X116838Y83493D01*
X116850Y83417D01*
X116858Y83341D01*
X116862Y83265D01*
X116862Y83189D01*
X116858Y83113D01*
X116850Y83037D01*
X116838Y82961D01*
X116822Y82887D01*
X116803Y82813D01*
X116780Y82740D01*
X116753Y82669D01*
X116722Y82599D01*
X116688Y82530D01*
X116651Y82464D01*
X116610Y82400D01*
X116565Y82337D01*
X116518Y82278D01*
X116468Y82220D01*
X116414Y82166D01*
X116358Y82114D01*
X116300Y82065D01*
X116239Y82019D01*
X116175Y81977D01*
X116110Y81937D01*
X116043Y81901D01*
X115973Y81869D01*
X115903Y81840D01*
X115831Y81815D01*
X115757Y81794D01*
X115683Y81776D01*
X115608Y81763D01*
X115532Y81753D01*
X115456Y81747D01*
X115380Y81745D01*
X115380Y81746D02*
X113898Y81746D01*
X115676Y81746D02*
X116862Y79375D01*
X119339Y83524D02*
X120821Y84709D01*
X120821Y79375D01*
X119339Y79375D02*
X122303Y79375D01*
X126011Y81746D02*
X127789Y81746D01*
X126011Y81746D02*
X125945Y81748D01*
X125878Y81753D01*
X125813Y81763D01*
X125747Y81776D01*
X125683Y81792D01*
X125620Y81813D01*
X125558Y81836D01*
X125497Y81863D01*
X125438Y81894D01*
X125381Y81928D01*
X125325Y81965D01*
X125272Y82005D01*
X125221Y82047D01*
X125173Y82093D01*
X125127Y82141D01*
X125085Y82192D01*
X125045Y82245D01*
X125008Y82301D01*
X124974Y82358D01*
X124943Y82417D01*
X124916Y82478D01*
X124892Y82540D01*
X124872Y82603D01*
X124856Y82667D01*
X124843Y82733D01*
X124833Y82798D01*
X124828Y82865D01*
X124826Y82931D01*
X124826Y83227D01*
X124825Y83227D02*
X124827Y83303D01*
X124833Y83379D01*
X124843Y83455D01*
X124856Y83530D01*
X124874Y83604D01*
X124895Y83678D01*
X124920Y83750D01*
X124949Y83820D01*
X124981Y83890D01*
X125017Y83957D01*
X125057Y84022D01*
X125099Y84086D01*
X125145Y84147D01*
X125194Y84205D01*
X125246Y84261D01*
X125300Y84315D01*
X125358Y84365D01*
X125417Y84412D01*
X125480Y84457D01*
X125544Y84498D01*
X125610Y84535D01*
X125679Y84569D01*
X125749Y84600D01*
X125820Y84627D01*
X125893Y84650D01*
X125967Y84669D01*
X126041Y84685D01*
X126117Y84697D01*
X126193Y84705D01*
X126269Y84709D01*
X126345Y84709D01*
X126421Y84705D01*
X126497Y84697D01*
X126573Y84685D01*
X126647Y84669D01*
X126721Y84650D01*
X126794Y84627D01*
X126865Y84600D01*
X126935Y84569D01*
X127004Y84535D01*
X127070Y84498D01*
X127134Y84457D01*
X127197Y84412D01*
X127256Y84365D01*
X127314Y84315D01*
X127368Y84261D01*
X127420Y84205D01*
X127469Y84147D01*
X127515Y84086D01*
X127557Y84022D01*
X127597Y83957D01*
X127633Y83890D01*
X127665Y83820D01*
X127694Y83750D01*
X127719Y83678D01*
X127740Y83604D01*
X127758Y83530D01*
X127771Y83455D01*
X127781Y83379D01*
X127787Y83303D01*
X127789Y83227D01*
X127789Y81746D01*
X127787Y81651D01*
X127781Y81555D01*
X127772Y81460D01*
X127758Y81366D01*
X127741Y81272D01*
X127720Y81179D01*
X127695Y81086D01*
X127667Y80995D01*
X127635Y80905D01*
X127599Y80817D01*
X127560Y80730D01*
X127517Y80644D01*
X127471Y80561D01*
X127422Y80479D01*
X127369Y80399D01*
X127313Y80322D01*
X127255Y80246D01*
X127193Y80174D01*
X127128Y80104D01*
X127060Y80036D01*
X126990Y79971D01*
X126918Y79909D01*
X126842Y79851D01*
X126765Y79795D01*
X126685Y79742D01*
X126604Y79693D01*
X126520Y79647D01*
X126434Y79604D01*
X126347Y79565D01*
X126259Y79529D01*
X126169Y79497D01*
X126078Y79469D01*
X125985Y79444D01*
X125892Y79423D01*
X125798Y79406D01*
X125704Y79392D01*
X125609Y79383D01*
X125514Y79377D01*
X125418Y79375D01*
X113411Y118406D02*
X114596Y122555D01*
X113411Y118406D02*
X116374Y118406D01*
X115485Y117221D02*
X115485Y119592D01*
X119184Y117221D02*
X119184Y122555D01*
X122148Y122555D02*
X119184Y119295D01*
X120370Y120481D02*
X122148Y117221D01*
X124384Y121962D02*
X124384Y122555D01*
X127347Y122555D01*
X125865Y117221D01*
M02*
