G04 EAGLE Gerber RS-274X export*
G75*
%MOMM*%
%FSLAX34Y34*%
%LPD*%
%INBottom Copper*%
%IPPOS*%
%AMOC8*
5,1,8,0,0,1.08239X$1,22.5*%
G01*
%ADD10P,1.429621X8X112.500000*%
%ADD11C,1.320800*%
%ADD12C,1.638300*%
%ADD13P,1.429621X8X292.500000*%
%ADD14P,1.429621X8X22.500000*%
%ADD15C,1.705100*%
%ADD16P,1.429621X8X202.500000*%
%ADD17C,1.441000*%
%ADD18C,1.676400*%
%ADD19C,0.152400*%
%ADD20C,0.508000*%
%ADD21C,0.756400*%

G36*
X863621Y10163D02*
X863621Y10163D01*
X863683Y10163D01*
X865506Y10283D01*
X865550Y10291D01*
X865594Y10292D01*
X865752Y10323D01*
X869275Y11267D01*
X869354Y11300D01*
X869436Y11323D01*
X869559Y11383D01*
X869569Y11388D01*
X869573Y11390D01*
X869581Y11394D01*
X872739Y13218D01*
X872807Y13269D01*
X872881Y13313D01*
X872984Y13403D01*
X872992Y13410D01*
X872995Y13413D01*
X873002Y13419D01*
X875581Y15998D01*
X875633Y16066D01*
X875693Y16127D01*
X875769Y16241D01*
X875776Y16249D01*
X875777Y16254D01*
X875782Y16261D01*
X877606Y19419D01*
X877639Y19498D01*
X877681Y19573D01*
X877725Y19702D01*
X877729Y19712D01*
X877730Y19717D01*
X877733Y19725D01*
X878677Y23248D01*
X878683Y23292D01*
X878696Y23334D01*
X878717Y23494D01*
X878837Y25317D01*
X878835Y25338D01*
X878839Y25400D01*
X878839Y469900D01*
X878837Y469921D01*
X878837Y469983D01*
X878717Y471806D01*
X878709Y471850D01*
X878708Y471894D01*
X878677Y472052D01*
X877733Y475575D01*
X877700Y475654D01*
X877677Y475736D01*
X877617Y475859D01*
X877612Y475869D01*
X877610Y475873D01*
X877606Y475881D01*
X875782Y479039D01*
X875731Y479107D01*
X875687Y479181D01*
X875597Y479284D01*
X875590Y479292D01*
X875587Y479295D01*
X875581Y479302D01*
X873002Y481881D01*
X872934Y481933D01*
X872873Y481993D01*
X872759Y482069D01*
X872751Y482076D01*
X872746Y482077D01*
X872739Y482082D01*
X869581Y483906D01*
X869502Y483939D01*
X869427Y483981D01*
X869298Y484025D01*
X869288Y484029D01*
X869283Y484030D01*
X869275Y484033D01*
X865752Y484977D01*
X865708Y484983D01*
X865666Y484996D01*
X865506Y485017D01*
X863683Y485137D01*
X863662Y485135D01*
X863600Y485139D01*
X25400Y485139D01*
X25379Y485137D01*
X25317Y485137D01*
X23494Y485017D01*
X23450Y485009D01*
X23406Y485008D01*
X23248Y484977D01*
X19725Y484033D01*
X19646Y484000D01*
X19564Y483977D01*
X19441Y483917D01*
X19431Y483912D01*
X19427Y483910D01*
X19419Y483906D01*
X16261Y482082D01*
X16193Y482031D01*
X16119Y481987D01*
X16016Y481897D01*
X16008Y481890D01*
X16005Y481887D01*
X15998Y481881D01*
X13419Y479302D01*
X13367Y479234D01*
X13307Y479173D01*
X13231Y479059D01*
X13224Y479051D01*
X13223Y479046D01*
X13218Y479039D01*
X11394Y475881D01*
X11361Y475802D01*
X11319Y475727D01*
X11275Y475598D01*
X11271Y475588D01*
X11270Y475583D01*
X11267Y475575D01*
X10323Y472052D01*
X10318Y472008D01*
X10304Y471966D01*
X10283Y471806D01*
X10163Y469983D01*
X10165Y469962D01*
X10161Y469900D01*
X10161Y25400D01*
X10163Y25379D01*
X10163Y25317D01*
X10283Y23494D01*
X10291Y23450D01*
X10292Y23406D01*
X10323Y23248D01*
X11267Y19725D01*
X11300Y19646D01*
X11323Y19564D01*
X11383Y19441D01*
X11388Y19431D01*
X11390Y19427D01*
X11394Y19419D01*
X13218Y16261D01*
X13269Y16193D01*
X13313Y16119D01*
X13403Y16016D01*
X13410Y16008D01*
X13413Y16005D01*
X13419Y15998D01*
X15998Y13419D01*
X16066Y13367D01*
X16127Y13307D01*
X16241Y13231D01*
X16249Y13224D01*
X16253Y13223D01*
X16261Y13218D01*
X19419Y11394D01*
X19498Y11361D01*
X19573Y11319D01*
X19702Y11275D01*
X19712Y11271D01*
X19717Y11270D01*
X19725Y11267D01*
X23248Y10323D01*
X23292Y10317D01*
X23334Y10304D01*
X23494Y10283D01*
X25317Y10163D01*
X25338Y10165D01*
X25400Y10161D01*
X863600Y10161D01*
X863621Y10163D01*
G37*
%LPC*%
G36*
X200609Y61120D02*
X200609Y61120D01*
X197400Y62449D01*
X194944Y64905D01*
X193615Y68114D01*
X193615Y71586D01*
X194944Y74795D01*
X197400Y77251D01*
X200609Y78580D01*
X214520Y78580D01*
X214618Y78592D01*
X214717Y78595D01*
X214775Y78612D01*
X214836Y78620D01*
X214928Y78656D01*
X215023Y78684D01*
X215075Y78714D01*
X215131Y78737D01*
X215211Y78795D01*
X215297Y78845D01*
X215372Y78911D01*
X215389Y78923D01*
X215396Y78933D01*
X215418Y78951D01*
X221653Y85187D01*
X221696Y85242D01*
X221746Y85290D01*
X221793Y85367D01*
X221848Y85438D01*
X221875Y85502D01*
X221912Y85561D01*
X221938Y85647D01*
X221974Y85730D01*
X221985Y85799D01*
X222005Y85865D01*
X222010Y85955D01*
X222024Y86044D01*
X222017Y86114D01*
X222021Y86183D01*
X222002Y86271D01*
X221994Y86360D01*
X221970Y86426D01*
X221956Y86495D01*
X221917Y86575D01*
X221886Y86660D01*
X221847Y86717D01*
X221817Y86780D01*
X221758Y86849D01*
X221708Y86923D01*
X221656Y86969D01*
X221610Y87022D01*
X221537Y87074D01*
X221469Y87133D01*
X221407Y87165D01*
X221350Y87205D01*
X221266Y87237D01*
X221186Y87278D01*
X221118Y87293D01*
X221053Y87318D01*
X220963Y87328D01*
X220876Y87348D01*
X220806Y87346D01*
X220737Y87353D01*
X220648Y87341D01*
X220558Y87338D01*
X220491Y87319D01*
X220422Y87309D01*
X220270Y87257D01*
X218491Y86520D01*
X200609Y86520D01*
X197400Y87849D01*
X194944Y90305D01*
X193615Y93514D01*
X193615Y96986D01*
X194944Y100195D01*
X197400Y102651D01*
X200609Y103980D01*
X218491Y103980D01*
X221700Y102651D01*
X224156Y100195D01*
X225485Y96986D01*
X225485Y93514D01*
X224748Y91735D01*
X224730Y91668D01*
X224702Y91604D01*
X224688Y91515D01*
X224664Y91429D01*
X224663Y91359D01*
X224652Y91290D01*
X224661Y91201D01*
X224659Y91111D01*
X224676Y91043D01*
X224682Y90973D01*
X224712Y90889D01*
X224733Y90802D01*
X224766Y90740D01*
X224790Y90674D01*
X224840Y90600D01*
X224882Y90520D01*
X224929Y90469D01*
X224968Y90411D01*
X225036Y90351D01*
X225096Y90285D01*
X225154Y90247D01*
X225207Y90201D01*
X225287Y90160D01*
X225362Y90110D01*
X225428Y90088D01*
X225490Y90056D01*
X225578Y90036D01*
X225663Y90007D01*
X225732Y90002D01*
X225800Y89986D01*
X225890Y89989D01*
X225980Y89982D01*
X226048Y89994D01*
X226118Y89996D01*
X226204Y90021D01*
X226293Y90036D01*
X226357Y90065D01*
X226424Y90084D01*
X226501Y90130D01*
X226583Y90167D01*
X226637Y90210D01*
X226698Y90246D01*
X226818Y90352D01*
X253278Y116811D01*
X253338Y116890D01*
X253406Y116962D01*
X253435Y117015D01*
X253472Y117063D01*
X253512Y117154D01*
X253560Y117240D01*
X253575Y117299D01*
X253599Y117355D01*
X253614Y117453D01*
X253639Y117548D01*
X253645Y117648D01*
X253649Y117669D01*
X253647Y117681D01*
X253649Y117709D01*
X253649Y241586D01*
X253643Y241636D01*
X253645Y241685D01*
X253623Y241793D01*
X253609Y241902D01*
X253591Y241948D01*
X253581Y241997D01*
X253533Y242095D01*
X253492Y242197D01*
X253463Y242238D01*
X253441Y242282D01*
X253370Y242366D01*
X253306Y242455D01*
X253267Y242487D01*
X253235Y242524D01*
X253145Y242587D01*
X253061Y242658D01*
X253016Y242679D01*
X252975Y242707D01*
X252872Y242746D01*
X252773Y242793D01*
X252724Y242802D01*
X252678Y242820D01*
X252568Y242832D01*
X252461Y242853D01*
X252411Y242850D01*
X252362Y242855D01*
X252253Y242840D01*
X252143Y242833D01*
X252096Y242818D01*
X252047Y242811D01*
X251894Y242759D01*
X250924Y242357D01*
X248812Y242357D01*
X246862Y243165D01*
X245369Y244657D01*
X244561Y246608D01*
X244561Y248734D01*
X244584Y248836D01*
X244619Y248962D01*
X244619Y248991D01*
X244626Y249020D01*
X244622Y249150D01*
X244624Y249280D01*
X244617Y249308D01*
X244616Y249338D01*
X244580Y249463D01*
X244549Y249589D01*
X244536Y249615D01*
X244527Y249643D01*
X244462Y249755D01*
X244401Y249870D01*
X244381Y249892D01*
X244366Y249917D01*
X244260Y250038D01*
X237876Y256422D01*
X237798Y256482D01*
X237726Y256550D01*
X237673Y256579D01*
X237625Y256616D01*
X237534Y256656D01*
X237447Y256704D01*
X237389Y256719D01*
X237333Y256743D01*
X237235Y256758D01*
X237139Y256783D01*
X237039Y256789D01*
X237019Y256793D01*
X237007Y256791D01*
X236979Y256793D01*
X223022Y256793D01*
X222884Y256776D01*
X222745Y256763D01*
X222726Y256756D01*
X222706Y256753D01*
X222577Y256702D01*
X222446Y256655D01*
X222429Y256644D01*
X222410Y256636D01*
X222298Y256555D01*
X222183Y256477D01*
X222170Y256461D01*
X222153Y256450D01*
X222064Y256342D01*
X221972Y256238D01*
X221963Y256220D01*
X221950Y256205D01*
X221891Y256079D01*
X221828Y255955D01*
X221823Y255935D01*
X221815Y255917D01*
X221789Y255781D01*
X221758Y255645D01*
X221759Y255624D01*
X221755Y255605D01*
X221764Y255466D01*
X221768Y255327D01*
X221773Y255307D01*
X221775Y255287D01*
X221818Y255155D01*
X221856Y255021D01*
X221867Y255004D01*
X221873Y254985D01*
X221947Y254867D01*
X222018Y254747D01*
X222036Y254726D01*
X222043Y254716D01*
X222058Y254702D01*
X222124Y254627D01*
X224156Y252595D01*
X225485Y249386D01*
X225485Y245914D01*
X224156Y242705D01*
X221700Y240249D01*
X218491Y238920D01*
X200609Y238920D01*
X197400Y240249D01*
X194944Y242705D01*
X193615Y245914D01*
X193615Y249386D01*
X194944Y252595D01*
X196976Y254627D01*
X197061Y254736D01*
X197150Y254843D01*
X197158Y254862D01*
X197171Y254878D01*
X197226Y255006D01*
X197285Y255131D01*
X197289Y255151D01*
X197297Y255170D01*
X197319Y255307D01*
X197345Y255444D01*
X197344Y255464D01*
X197347Y255484D01*
X197334Y255623D01*
X197325Y255761D01*
X197319Y255780D01*
X197317Y255800D01*
X197270Y255932D01*
X197227Y256063D01*
X197216Y256081D01*
X197210Y256100D01*
X197131Y256215D01*
X197057Y256332D01*
X197042Y256346D01*
X197031Y256363D01*
X196927Y256455D01*
X196825Y256550D01*
X196808Y256560D01*
X196793Y256573D01*
X196668Y256637D01*
X196547Y256704D01*
X196527Y256709D01*
X196509Y256718D01*
X196373Y256748D01*
X196239Y256783D01*
X196211Y256785D01*
X196199Y256788D01*
X196179Y256787D01*
X196078Y256793D01*
X154874Y256793D01*
X154776Y256781D01*
X154677Y256778D01*
X154619Y256761D01*
X154559Y256753D01*
X154466Y256717D01*
X154371Y256689D01*
X154319Y256659D01*
X154263Y256636D01*
X154183Y256578D01*
X154097Y256528D01*
X154022Y256462D01*
X154006Y256450D01*
X153998Y256440D01*
X153977Y256422D01*
X88256Y190701D01*
X88196Y190623D01*
X88128Y190551D01*
X88099Y190498D01*
X88062Y190450D01*
X88022Y190359D01*
X87974Y190273D01*
X87959Y190214D01*
X87935Y190158D01*
X87920Y190060D01*
X87895Y189965D01*
X87889Y189865D01*
X87885Y189844D01*
X87887Y189832D01*
X87885Y189804D01*
X87885Y156540D01*
X87813Y156468D01*
X87740Y156374D01*
X87661Y156285D01*
X87643Y156249D01*
X87618Y156217D01*
X87571Y156108D01*
X87517Y156002D01*
X87508Y155962D01*
X87492Y155925D01*
X87473Y155808D01*
X87447Y155692D01*
X87448Y155651D01*
X87442Y155611D01*
X87453Y155492D01*
X87457Y155374D01*
X87468Y155335D01*
X87472Y155295D01*
X87512Y155182D01*
X87545Y155068D01*
X87566Y155033D01*
X87579Y154995D01*
X87646Y154897D01*
X87707Y154794D01*
X87746Y154749D01*
X87758Y154732D01*
X87773Y154719D01*
X87813Y154673D01*
X88180Y154306D01*
X88988Y152356D01*
X88988Y150244D01*
X88180Y148294D01*
X86688Y146801D01*
X84737Y145993D01*
X82626Y145993D01*
X81655Y146395D01*
X81607Y146409D01*
X81562Y146430D01*
X81455Y146450D01*
X81348Y146479D01*
X81299Y146480D01*
X81250Y146489D01*
X81140Y146483D01*
X81030Y146484D01*
X80982Y146473D01*
X80933Y146470D01*
X80828Y146436D01*
X80721Y146410D01*
X80677Y146387D01*
X80630Y146372D01*
X80537Y146313D01*
X80440Y146261D01*
X80403Y146228D01*
X80361Y146201D01*
X80286Y146121D01*
X80205Y146048D01*
X80177Y146006D01*
X80143Y145970D01*
X80090Y145874D01*
X80030Y145782D01*
X80014Y145735D01*
X79990Y145691D01*
X79962Y145585D01*
X79927Y145481D01*
X79923Y145431D01*
X79910Y145383D01*
X79900Y145223D01*
X79900Y144051D01*
X78370Y140357D01*
X75543Y137530D01*
X72309Y136190D01*
X72248Y136156D01*
X72183Y136130D01*
X72111Y136077D01*
X72032Y136033D01*
X71982Y135984D01*
X71926Y135943D01*
X71868Y135874D01*
X71804Y135811D01*
X71768Y135752D01*
X71723Y135698D01*
X71685Y135617D01*
X71638Y135540D01*
X71617Y135473D01*
X71587Y135410D01*
X71571Y135322D01*
X71544Y135236D01*
X71541Y135167D01*
X71528Y135098D01*
X71533Y135008D01*
X71529Y134919D01*
X71543Y134850D01*
X71547Y134781D01*
X71575Y134695D01*
X71593Y134607D01*
X71624Y134544D01*
X71645Y134478D01*
X71693Y134402D01*
X71733Y134321D01*
X71778Y134268D01*
X71816Y134209D01*
X71881Y134148D01*
X71939Y134079D01*
X71996Y134039D01*
X72047Y133991D01*
X72126Y133948D01*
X72199Y133896D01*
X72265Y133872D01*
X72326Y133838D01*
X72413Y133816D01*
X72497Y133784D01*
X72566Y133776D01*
X72634Y133758D01*
X72794Y133748D01*
X81417Y133748D01*
X83128Y132037D01*
X106151Y109014D01*
X106174Y108996D01*
X106194Y108974D01*
X106300Y108899D01*
X106402Y108819D01*
X106429Y108808D01*
X106454Y108791D01*
X106575Y108745D01*
X106694Y108693D01*
X106723Y108688D01*
X106751Y108678D01*
X106880Y108664D01*
X107008Y108643D01*
X107038Y108646D01*
X107067Y108643D01*
X107195Y108661D01*
X107325Y108673D01*
X107353Y108683D01*
X107382Y108687D01*
X107456Y108713D01*
X109581Y108713D01*
X111532Y107905D01*
X113024Y106412D01*
X113832Y104461D01*
X113832Y102350D01*
X113024Y100400D01*
X111532Y98907D01*
X109581Y98099D01*
X107470Y98099D01*
X105519Y98907D01*
X104027Y100400D01*
X103219Y102350D01*
X103219Y104476D01*
X103242Y104579D01*
X103276Y104704D01*
X103277Y104733D01*
X103283Y104762D01*
X103279Y104892D01*
X103281Y105022D01*
X103274Y105050D01*
X103273Y105080D01*
X103237Y105205D01*
X103207Y105331D01*
X103193Y105357D01*
X103185Y105386D01*
X103119Y105498D01*
X103058Y105612D01*
X103039Y105634D01*
X103023Y105660D01*
X102917Y105780D01*
X79894Y128803D01*
X79816Y128864D01*
X79744Y128932D01*
X79691Y128961D01*
X79643Y128998D01*
X79552Y129037D01*
X79466Y129085D01*
X79407Y129100D01*
X79351Y129124D01*
X79253Y129140D01*
X79158Y129165D01*
X79058Y129171D01*
X79037Y129174D01*
X79025Y129173D01*
X78997Y129175D01*
X78603Y129175D01*
X78465Y129157D01*
X78326Y129144D01*
X78307Y129137D01*
X78287Y129135D01*
X78158Y129084D01*
X78027Y129037D01*
X78010Y129025D01*
X77991Y129018D01*
X77879Y128936D01*
X77764Y128858D01*
X77750Y128843D01*
X77734Y128831D01*
X77645Y128724D01*
X77553Y128620D01*
X77544Y128602D01*
X77531Y128586D01*
X77472Y128460D01*
X77409Y128336D01*
X77404Y128317D01*
X77396Y128298D01*
X77370Y128162D01*
X77339Y128026D01*
X77340Y128006D01*
X77336Y127986D01*
X77345Y127848D01*
X77349Y127708D01*
X77354Y127689D01*
X77356Y127669D01*
X77398Y127537D01*
X77437Y127403D01*
X77448Y127385D01*
X77454Y127366D01*
X77528Y127249D01*
X77599Y127129D01*
X77617Y127108D01*
X77624Y127097D01*
X77639Y127083D01*
X77705Y127008D01*
X78370Y126343D01*
X79900Y122649D01*
X79900Y118651D01*
X78370Y114957D01*
X75543Y112130D01*
X71849Y110600D01*
X67851Y110600D01*
X64157Y112130D01*
X61330Y114957D01*
X59800Y118651D01*
X59800Y122649D01*
X61330Y126343D01*
X61995Y127008D01*
X62080Y127118D01*
X62169Y127225D01*
X62177Y127243D01*
X62190Y127259D01*
X62245Y127387D01*
X62304Y127513D01*
X62308Y127532D01*
X62316Y127551D01*
X62338Y127689D01*
X62364Y127825D01*
X62363Y127845D01*
X62366Y127865D01*
X62353Y128004D01*
X62344Y128142D01*
X62338Y128162D01*
X62336Y128182D01*
X62289Y128313D01*
X62246Y128445D01*
X62235Y128462D01*
X62229Y128481D01*
X62151Y128596D01*
X62076Y128714D01*
X62061Y128728D01*
X62050Y128744D01*
X61946Y128836D01*
X61844Y128932D01*
X61827Y128941D01*
X61812Y128955D01*
X61688Y129018D01*
X61566Y129085D01*
X61546Y129090D01*
X61528Y129099D01*
X61392Y129130D01*
X61258Y129165D01*
X61230Y129166D01*
X61218Y129169D01*
X61198Y129168D01*
X61097Y129175D01*
X58091Y129175D01*
X56380Y130886D01*
X50455Y136811D01*
X50432Y136829D01*
X50413Y136852D01*
X50307Y136926D01*
X50204Y137006D01*
X50177Y137018D01*
X50153Y137035D01*
X50031Y137081D01*
X49912Y137132D01*
X49883Y137137D01*
X49855Y137147D01*
X49726Y137162D01*
X49598Y137182D01*
X49568Y137179D01*
X49539Y137183D01*
X49411Y137165D01*
X49281Y137152D01*
X49253Y137142D01*
X49224Y137138D01*
X49072Y137086D01*
X46449Y136000D01*
X42451Y136000D01*
X38757Y137530D01*
X35930Y140357D01*
X34400Y144051D01*
X34400Y148049D01*
X35930Y151743D01*
X38757Y154570D01*
X42451Y156100D01*
X46449Y156100D01*
X50143Y154570D01*
X52970Y151743D01*
X54500Y148049D01*
X54500Y144051D01*
X53414Y141428D01*
X53406Y141400D01*
X53393Y141373D01*
X53364Y141247D01*
X53330Y141121D01*
X53329Y141092D01*
X53323Y141063D01*
X53327Y140933D01*
X53325Y140803D01*
X53332Y140775D01*
X53333Y140745D01*
X53369Y140621D01*
X53399Y140494D01*
X53413Y140468D01*
X53421Y140440D01*
X53487Y140328D01*
X53548Y140213D01*
X53568Y140191D01*
X53583Y140166D01*
X53689Y140045D01*
X59614Y134120D01*
X59692Y134059D01*
X59764Y133991D01*
X59817Y133962D01*
X59865Y133925D01*
X59956Y133886D01*
X60043Y133838D01*
X60101Y133823D01*
X60157Y133799D01*
X60255Y133783D01*
X60351Y133758D01*
X60451Y133752D01*
X60471Y133749D01*
X60483Y133750D01*
X60511Y133748D01*
X66906Y133748D01*
X66975Y133757D01*
X67045Y133756D01*
X67132Y133777D01*
X67221Y133788D01*
X67286Y133814D01*
X67354Y133830D01*
X67433Y133872D01*
X67517Y133905D01*
X67573Y133946D01*
X67635Y133979D01*
X67702Y134039D01*
X67774Y134092D01*
X67819Y134146D01*
X67870Y134193D01*
X67920Y134268D01*
X67977Y134337D01*
X68007Y134400D01*
X68045Y134458D01*
X68074Y134543D01*
X68113Y134625D01*
X68126Y134693D01*
X68148Y134759D01*
X68155Y134849D01*
X68172Y134937D01*
X68168Y135007D01*
X68174Y135076D01*
X68158Y135165D01*
X68153Y135254D01*
X68131Y135321D01*
X68119Y135390D01*
X68082Y135472D01*
X68055Y135557D01*
X68017Y135616D01*
X67989Y135680D01*
X67933Y135750D01*
X67884Y135826D01*
X67834Y135873D01*
X67790Y135928D01*
X67718Y135982D01*
X67653Y136044D01*
X67592Y136077D01*
X67536Y136119D01*
X67391Y136190D01*
X64157Y137530D01*
X61330Y140357D01*
X59800Y144051D01*
X59800Y148049D01*
X61330Y151743D01*
X64157Y154570D01*
X67851Y156100D01*
X71849Y156100D01*
X74472Y155014D01*
X74500Y155006D01*
X74527Y154993D01*
X74653Y154964D01*
X74779Y154930D01*
X74808Y154929D01*
X74837Y154923D01*
X74967Y154927D01*
X75097Y154925D01*
X75125Y154932D01*
X75155Y154933D01*
X75279Y154969D01*
X75406Y154999D01*
X75432Y155013D01*
X75460Y155021D01*
X75572Y155087D01*
X75687Y155148D01*
X75709Y155168D01*
X75734Y155183D01*
X75855Y155289D01*
X79892Y159325D01*
X79952Y159404D01*
X80020Y159476D01*
X80049Y159529D01*
X80086Y159577D01*
X80126Y159668D01*
X80174Y159754D01*
X80189Y159813D01*
X80213Y159869D01*
X80228Y159967D01*
X80253Y160062D01*
X80259Y160162D01*
X80263Y160183D01*
X80261Y160195D01*
X80263Y160223D01*
X80263Y164586D01*
X80246Y164723D01*
X80233Y164862D01*
X80226Y164881D01*
X80223Y164901D01*
X80172Y165030D01*
X80125Y165161D01*
X80114Y165178D01*
X80106Y165197D01*
X80025Y165310D01*
X79947Y165425D01*
X79931Y165438D01*
X79920Y165454D01*
X79812Y165543D01*
X79708Y165635D01*
X79690Y165644D01*
X79675Y165657D01*
X79549Y165716D01*
X79425Y165780D01*
X79405Y165784D01*
X79387Y165793D01*
X79251Y165819D01*
X79115Y165849D01*
X79094Y165849D01*
X79075Y165853D01*
X78936Y165844D01*
X78797Y165840D01*
X78777Y165834D01*
X78757Y165833D01*
X78625Y165790D01*
X78491Y165751D01*
X78474Y165741D01*
X78455Y165735D01*
X78337Y165660D01*
X78217Y165590D01*
X78196Y165571D01*
X78186Y165565D01*
X78172Y165550D01*
X78097Y165483D01*
X75543Y162930D01*
X71849Y161400D01*
X67851Y161400D01*
X64157Y162930D01*
X61330Y165757D01*
X59800Y169451D01*
X59800Y173449D01*
X61330Y177143D01*
X64157Y179970D01*
X66780Y181057D01*
X66805Y181071D01*
X66833Y181080D01*
X66943Y181150D01*
X67056Y181214D01*
X67077Y181235D01*
X67102Y181250D01*
X67191Y181345D01*
X67284Y181435D01*
X67300Y181461D01*
X67320Y181482D01*
X67383Y181596D01*
X67451Y181706D01*
X67459Y181735D01*
X67474Y181761D01*
X67506Y181886D01*
X67544Y182010D01*
X67546Y182040D01*
X67553Y182068D01*
X67563Y182229D01*
X67563Y185097D01*
X183203Y300737D01*
X192995Y300737D01*
X193024Y300740D01*
X193054Y300738D01*
X193182Y300760D01*
X193311Y300777D01*
X193338Y300787D01*
X193367Y300792D01*
X193486Y300846D01*
X193606Y300894D01*
X193630Y300911D01*
X193657Y300923D01*
X193759Y301004D01*
X193864Y301080D01*
X193883Y301103D01*
X193906Y301122D01*
X193984Y301225D01*
X194066Y301325D01*
X194079Y301352D01*
X194097Y301376D01*
X194168Y301520D01*
X194944Y303395D01*
X197400Y305851D01*
X200609Y307180D01*
X218491Y307180D01*
X221700Y305851D01*
X223028Y304523D01*
X223067Y304493D01*
X223100Y304456D01*
X223192Y304395D01*
X223279Y304328D01*
X223325Y304308D01*
X223366Y304281D01*
X223470Y304245D01*
X223571Y304202D01*
X223620Y304194D01*
X223667Y304178D01*
X223776Y304169D01*
X223885Y304152D01*
X223935Y304157D01*
X223984Y304153D01*
X224092Y304171D01*
X224202Y304182D01*
X224248Y304199D01*
X224297Y304207D01*
X224398Y304252D01*
X224501Y304289D01*
X224542Y304317D01*
X224587Y304338D01*
X224673Y304406D01*
X224764Y304468D01*
X224797Y304505D01*
X224836Y304536D01*
X224902Y304624D01*
X224974Y304706D01*
X224997Y304751D01*
X225027Y304790D01*
X225032Y304800D01*
X226542Y306310D01*
X228492Y307118D01*
X230604Y307118D01*
X232554Y306310D01*
X234047Y304817D01*
X234317Y304165D01*
X234332Y304140D01*
X234341Y304112D01*
X234410Y304002D01*
X234474Y303889D01*
X234495Y303868D01*
X234511Y303843D01*
X234606Y303754D01*
X234696Y303661D01*
X234721Y303645D01*
X234742Y303625D01*
X234856Y303562D01*
X234967Y303494D01*
X234995Y303486D01*
X235021Y303471D01*
X235147Y303439D01*
X235271Y303401D01*
X235300Y303399D01*
X235329Y303392D01*
X235490Y303382D01*
X239077Y303382D01*
X243971Y298488D01*
X243971Y294459D01*
X243983Y294361D01*
X243986Y294262D01*
X243993Y294238D01*
X243993Y294236D01*
X243999Y294219D01*
X244003Y294204D01*
X244011Y294143D01*
X244047Y294051D01*
X244075Y293956D01*
X244105Y293904D01*
X244128Y293848D01*
X244186Y293768D01*
X244236Y293682D01*
X244302Y293607D01*
X244314Y293590D01*
X244324Y293583D01*
X244342Y293561D01*
X267649Y270255D01*
X267758Y270170D01*
X267865Y270082D01*
X267884Y270073D01*
X267900Y270060D01*
X268028Y270005D01*
X268153Y269946D01*
X268173Y269942D01*
X268192Y269934D01*
X268330Y269912D01*
X268466Y269886D01*
X268486Y269887D01*
X268506Y269884D01*
X268645Y269897D01*
X268783Y269906D01*
X268802Y269912D01*
X268822Y269914D01*
X268954Y269961D01*
X269085Y270004D01*
X269103Y270015D01*
X269122Y270022D01*
X269237Y270100D01*
X269354Y270174D01*
X269368Y270189D01*
X269385Y270200D01*
X269477Y270304D01*
X269572Y270406D01*
X269582Y270424D01*
X269595Y270439D01*
X269659Y270563D01*
X269726Y270684D01*
X269731Y270704D01*
X269740Y270722D01*
X269770Y270858D01*
X269805Y270992D01*
X269807Y271020D01*
X269810Y271032D01*
X269809Y271053D01*
X269815Y271153D01*
X269815Y274786D01*
X271144Y277995D01*
X273600Y280451D01*
X276809Y281780D01*
X294691Y281780D01*
X297900Y280451D01*
X300356Y277995D01*
X301685Y274786D01*
X301685Y271314D01*
X300356Y268105D01*
X297900Y265649D01*
X296522Y265079D01*
X296462Y265044D01*
X296397Y265018D01*
X296324Y264966D01*
X296246Y264921D01*
X296196Y264873D01*
X296139Y264832D01*
X296082Y264762D01*
X296018Y264700D01*
X295981Y264640D01*
X295937Y264587D01*
X295898Y264505D01*
X295851Y264429D01*
X295831Y264362D01*
X295801Y264299D01*
X295784Y264211D01*
X295758Y264125D01*
X295754Y264055D01*
X295741Y263986D01*
X295747Y263897D01*
X295743Y263807D01*
X295757Y263739D01*
X295761Y263669D01*
X295789Y263584D01*
X295807Y263496D01*
X295838Y263433D01*
X295859Y263367D01*
X295907Y263291D01*
X295947Y263210D01*
X295992Y263157D01*
X296029Y263098D01*
X296095Y263036D01*
X296153Y262968D01*
X296210Y262928D01*
X296261Y262880D01*
X296339Y262837D01*
X296413Y262785D01*
X296478Y262760D01*
X296539Y262726D01*
X296626Y262704D01*
X296710Y262672D01*
X296780Y262664D01*
X296847Y262647D01*
X297008Y262637D01*
X299397Y262637D01*
X338837Y223197D01*
X338837Y182229D01*
X338840Y182200D01*
X338838Y182170D01*
X338860Y182042D01*
X338877Y181914D01*
X338887Y181886D01*
X338892Y181857D01*
X338946Y181739D01*
X338994Y181618D01*
X339011Y181594D01*
X339023Y181567D01*
X339104Y181466D01*
X339180Y181361D01*
X339203Y181342D01*
X339222Y181319D01*
X339325Y181241D01*
X339425Y181158D01*
X339452Y181145D01*
X339476Y181127D01*
X339620Y181057D01*
X342243Y179970D01*
X345070Y177143D01*
X346600Y173449D01*
X346600Y169451D01*
X345070Y165757D01*
X342243Y162930D01*
X338549Y161400D01*
X334551Y161400D01*
X330857Y162930D01*
X328030Y165757D01*
X326500Y169451D01*
X326500Y173449D01*
X328030Y177143D01*
X330857Y179970D01*
X333480Y181057D01*
X333505Y181071D01*
X333533Y181080D01*
X333643Y181150D01*
X333756Y181214D01*
X333777Y181235D01*
X333802Y181250D01*
X333891Y181345D01*
X333984Y181435D01*
X334000Y181461D01*
X334020Y181482D01*
X334083Y181596D01*
X334151Y181706D01*
X334159Y181735D01*
X334174Y181761D01*
X334206Y181886D01*
X334244Y182010D01*
X334246Y182040D01*
X334253Y182068D01*
X334263Y182229D01*
X334263Y220777D01*
X334251Y220875D01*
X334248Y220974D01*
X334231Y221032D01*
X334223Y221093D01*
X334187Y221185D01*
X334159Y221280D01*
X334129Y221332D01*
X334106Y221388D01*
X334048Y221468D01*
X333998Y221554D01*
X333932Y221629D01*
X333920Y221646D01*
X333910Y221653D01*
X333892Y221675D01*
X303018Y252548D01*
X302963Y252591D01*
X302915Y252641D01*
X302838Y252687D01*
X302767Y252743D01*
X302703Y252770D01*
X302644Y252807D01*
X302558Y252833D01*
X302475Y252869D01*
X302406Y252880D01*
X302340Y252900D01*
X302250Y252905D01*
X302161Y252919D01*
X302091Y252912D01*
X302022Y252916D01*
X301934Y252897D01*
X301845Y252889D01*
X301779Y252865D01*
X301710Y252851D01*
X301630Y252812D01*
X301545Y252781D01*
X301487Y252742D01*
X301425Y252712D01*
X301357Y252653D01*
X301282Y252603D01*
X301236Y252550D01*
X301183Y252505D01*
X301131Y252432D01*
X301072Y252364D01*
X301040Y252302D01*
X301000Y252245D01*
X300968Y252161D01*
X300927Y252081D01*
X300912Y252013D01*
X300887Y251948D01*
X300877Y251858D01*
X300857Y251771D01*
X300859Y251701D01*
X300852Y251632D01*
X300864Y251543D01*
X300867Y251453D01*
X300886Y251386D01*
X300896Y251317D01*
X300948Y251164D01*
X301685Y249386D01*
X301685Y245914D01*
X300356Y242705D01*
X297900Y240249D01*
X294691Y238920D01*
X276809Y238920D01*
X273600Y240249D01*
X271144Y242705D01*
X269815Y245914D01*
X269815Y249386D01*
X271144Y252595D01*
X273600Y255051D01*
X274978Y255621D01*
X275038Y255656D01*
X275103Y255682D01*
X275176Y255734D01*
X275254Y255779D01*
X275304Y255827D01*
X275361Y255868D01*
X275418Y255938D01*
X275482Y256000D01*
X275519Y256060D01*
X275563Y256113D01*
X275602Y256195D01*
X275649Y256271D01*
X275669Y256338D01*
X275699Y256401D01*
X275716Y256489D01*
X275742Y256575D01*
X275746Y256645D01*
X275759Y256714D01*
X275753Y256803D01*
X275757Y256893D01*
X275743Y256961D01*
X275739Y257031D01*
X275711Y257116D01*
X275693Y257204D01*
X275662Y257267D01*
X275641Y257333D01*
X275593Y257409D01*
X275553Y257490D01*
X275508Y257543D01*
X275471Y257602D01*
X275405Y257664D01*
X275347Y257732D01*
X275290Y257772D01*
X275239Y257820D01*
X275161Y257863D01*
X275087Y257915D01*
X275022Y257940D01*
X274961Y257974D01*
X274874Y257996D01*
X274790Y258028D01*
X274720Y258036D01*
X274653Y258053D01*
X274492Y258063D01*
X273373Y258063D01*
X271662Y259775D01*
X260389Y271047D01*
X260280Y271132D01*
X260173Y271220D01*
X260154Y271229D01*
X260138Y271242D01*
X260010Y271297D01*
X259885Y271356D01*
X259865Y271360D01*
X259846Y271368D01*
X259708Y271390D01*
X259572Y271416D01*
X259552Y271415D01*
X259532Y271418D01*
X259393Y271405D01*
X259255Y271396D01*
X259236Y271390D01*
X259216Y271388D01*
X259084Y271341D01*
X258953Y271298D01*
X258935Y271287D01*
X258916Y271280D01*
X258801Y271202D01*
X258684Y271128D01*
X258670Y271113D01*
X258653Y271102D01*
X258561Y270997D01*
X258466Y270896D01*
X258456Y270879D01*
X258443Y270863D01*
X258379Y270739D01*
X258312Y270618D01*
X258307Y270598D01*
X258298Y270580D01*
X258268Y270444D01*
X258233Y270310D01*
X258231Y270282D01*
X258228Y270270D01*
X258229Y270249D01*
X258223Y270149D01*
X258223Y115289D01*
X256511Y113578D01*
X221840Y78906D01*
X221767Y78812D01*
X221688Y78723D01*
X221670Y78687D01*
X221645Y78655D01*
X221597Y78545D01*
X221543Y78439D01*
X221535Y78400D01*
X221519Y78363D01*
X221500Y78245D01*
X221474Y78129D01*
X221475Y78089D01*
X221469Y78049D01*
X221480Y77930D01*
X221483Y77811D01*
X221495Y77772D01*
X221498Y77732D01*
X221539Y77620D01*
X221572Y77506D01*
X221592Y77471D01*
X221606Y77433D01*
X221673Y77334D01*
X221733Y77232D01*
X221773Y77187D01*
X221785Y77170D01*
X221800Y77156D01*
X221840Y77111D01*
X224156Y74795D01*
X225485Y71586D01*
X225485Y68114D01*
X224156Y64905D01*
X221700Y62449D01*
X218491Y61120D01*
X200609Y61120D01*
G37*
%LPD*%
%LPC*%
G36*
X511209Y167131D02*
X511209Y167131D01*
X508221Y168369D01*
X505935Y170655D01*
X504697Y173643D01*
X504697Y176877D01*
X505035Y177693D01*
X505043Y177721D01*
X505056Y177748D01*
X505085Y177874D01*
X505119Y177999D01*
X505120Y178029D01*
X505126Y178058D01*
X505122Y178188D01*
X505124Y178317D01*
X505117Y178346D01*
X505116Y178376D01*
X505080Y178500D01*
X505050Y178627D01*
X505036Y178653D01*
X505028Y178681D01*
X504962Y178793D01*
X504901Y178908D01*
X504882Y178930D01*
X504866Y178955D01*
X504760Y179076D01*
X479043Y204793D01*
X479043Y269037D01*
X479031Y269135D01*
X479028Y269234D01*
X479011Y269292D01*
X479003Y269353D01*
X478967Y269445D01*
X478939Y269540D01*
X478909Y269592D01*
X478886Y269648D01*
X478828Y269728D01*
X478778Y269814D01*
X478712Y269889D01*
X478700Y269906D01*
X478690Y269913D01*
X478672Y269935D01*
X454189Y294417D01*
X454165Y294435D01*
X454146Y294458D01*
X454040Y294533D01*
X453938Y294612D01*
X453910Y294624D01*
X453886Y294641D01*
X453765Y294687D01*
X453646Y294739D01*
X453617Y294743D01*
X453589Y294754D01*
X453460Y294768D01*
X453332Y294788D01*
X453302Y294786D01*
X453273Y294789D01*
X453144Y294771D01*
X453015Y294759D01*
X452987Y294749D01*
X452958Y294744D01*
X452806Y294692D01*
X451451Y294131D01*
X435009Y294131D01*
X432021Y295369D01*
X429735Y297655D01*
X428497Y300643D01*
X428497Y303877D01*
X429735Y306865D01*
X432021Y309151D01*
X435009Y310389D01*
X451451Y310389D01*
X454439Y309151D01*
X456725Y306865D01*
X457963Y303877D01*
X457963Y300643D01*
X457253Y298929D01*
X457245Y298901D01*
X457232Y298874D01*
X457203Y298748D01*
X457169Y298622D01*
X457168Y298593D01*
X457162Y298564D01*
X457166Y298434D01*
X457164Y298304D01*
X457171Y298276D01*
X457172Y298246D01*
X457208Y298122D01*
X457238Y297995D01*
X457252Y297969D01*
X457260Y297941D01*
X457326Y297829D01*
X457387Y297714D01*
X457407Y297692D01*
X457422Y297667D01*
X457528Y297546D01*
X483617Y271457D01*
X483617Y207213D01*
X483629Y207115D01*
X483632Y207016D01*
X483649Y206958D01*
X483657Y206897D01*
X483693Y206805D01*
X483721Y206710D01*
X483751Y206658D01*
X483774Y206602D01*
X483832Y206522D01*
X483882Y206436D01*
X483948Y206361D01*
X483960Y206344D01*
X483970Y206337D01*
X483988Y206315D01*
X507573Y182731D01*
X507597Y182713D01*
X507616Y182690D01*
X507722Y182616D01*
X507824Y182536D01*
X507852Y182524D01*
X507876Y182507D01*
X507997Y182461D01*
X508116Y182409D01*
X508145Y182405D01*
X508173Y182394D01*
X508302Y182380D01*
X508430Y182360D01*
X508460Y182362D01*
X508489Y182359D01*
X508618Y182377D01*
X508747Y182389D01*
X508775Y182399D01*
X508804Y182404D01*
X508956Y182456D01*
X511209Y183389D01*
X527651Y183389D01*
X530639Y182151D01*
X532925Y179865D01*
X534163Y176877D01*
X534163Y173643D01*
X532925Y170655D01*
X530639Y168369D01*
X527651Y167131D01*
X511209Y167131D01*
G37*
%LPD*%
%LPC*%
G36*
X42451Y59800D02*
X42451Y59800D01*
X38757Y61330D01*
X35930Y64157D01*
X34400Y67851D01*
X34400Y71849D01*
X35930Y75543D01*
X38757Y78370D01*
X42451Y79900D01*
X46449Y79900D01*
X49072Y78814D01*
X49100Y78806D01*
X49127Y78793D01*
X49253Y78764D01*
X49379Y78730D01*
X49408Y78729D01*
X49437Y78723D01*
X49567Y78727D01*
X49697Y78725D01*
X49725Y78732D01*
X49755Y78733D01*
X49879Y78769D01*
X50006Y78799D01*
X50032Y78813D01*
X50060Y78821D01*
X50172Y78887D01*
X50287Y78948D01*
X50309Y78968D01*
X50334Y78983D01*
X50455Y79089D01*
X56380Y85014D01*
X58091Y86725D01*
X61097Y86725D01*
X61235Y86743D01*
X61374Y86756D01*
X61393Y86763D01*
X61413Y86765D01*
X61542Y86816D01*
X61673Y86863D01*
X61690Y86875D01*
X61709Y86882D01*
X61821Y86964D01*
X61936Y87042D01*
X61950Y87057D01*
X61966Y87069D01*
X62055Y87176D01*
X62147Y87280D01*
X62156Y87298D01*
X62169Y87314D01*
X62228Y87440D01*
X62291Y87564D01*
X62296Y87583D01*
X62304Y87602D01*
X62330Y87738D01*
X62361Y87874D01*
X62360Y87894D01*
X62364Y87914D01*
X62355Y88052D01*
X62351Y88192D01*
X62346Y88211D01*
X62344Y88231D01*
X62302Y88363D01*
X62263Y88497D01*
X62252Y88515D01*
X62246Y88534D01*
X62172Y88651D01*
X62101Y88771D01*
X62083Y88792D01*
X62076Y88803D01*
X62061Y88817D01*
X61995Y88892D01*
X61330Y89557D01*
X59800Y93251D01*
X59800Y97249D01*
X61330Y100943D01*
X64157Y103770D01*
X67851Y105300D01*
X71849Y105300D01*
X75543Y103770D01*
X78370Y100943D01*
X79900Y97249D01*
X79900Y93251D01*
X79772Y92942D01*
X79759Y92894D01*
X79738Y92849D01*
X79717Y92741D01*
X79688Y92635D01*
X79687Y92585D01*
X79678Y92536D01*
X79685Y92427D01*
X79683Y92317D01*
X79695Y92269D01*
X79698Y92219D01*
X79732Y92115D01*
X79757Y92008D01*
X79781Y91964D01*
X79796Y91917D01*
X79855Y91824D01*
X79906Y91727D01*
X79939Y91690D01*
X79966Y91648D01*
X80046Y91573D01*
X80120Y91491D01*
X80161Y91464D01*
X80198Y91430D01*
X80294Y91377D01*
X80386Y91317D01*
X80433Y91300D01*
X80476Y91276D01*
X80582Y91249D01*
X80686Y91213D01*
X80736Y91209D01*
X80784Y91197D01*
X80945Y91187D01*
X111421Y91187D01*
X111451Y91190D01*
X111480Y91188D01*
X111608Y91210D01*
X111737Y91227D01*
X111764Y91237D01*
X111793Y91243D01*
X111912Y91296D01*
X112032Y91344D01*
X112056Y91361D01*
X112083Y91373D01*
X112185Y91454D01*
X112290Y91530D01*
X112309Y91553D01*
X112332Y91572D01*
X112410Y91675D01*
X112493Y91775D01*
X112505Y91802D01*
X112523Y91826D01*
X112558Y91896D01*
X114060Y93399D01*
X116010Y94207D01*
X118122Y94207D01*
X120072Y93399D01*
X121565Y91906D01*
X122373Y89956D01*
X122373Y87844D01*
X121565Y85894D01*
X120072Y84401D01*
X118122Y83593D01*
X116010Y83593D01*
X114060Y84401D01*
X112557Y85904D01*
X112500Y85993D01*
X112436Y86106D01*
X112416Y86127D01*
X112400Y86152D01*
X112305Y86241D01*
X112215Y86334D01*
X112190Y86350D01*
X112168Y86370D01*
X112055Y86433D01*
X111944Y86501D01*
X111916Y86509D01*
X111890Y86524D01*
X111764Y86556D01*
X111640Y86594D01*
X111610Y86596D01*
X111582Y86603D01*
X111421Y86613D01*
X80263Y86613D01*
X80165Y86601D01*
X80066Y86598D01*
X80007Y86581D01*
X79947Y86573D01*
X79855Y86537D01*
X79760Y86509D01*
X79708Y86479D01*
X79652Y86456D01*
X79572Y86398D01*
X79486Y86348D01*
X79411Y86282D01*
X79394Y86270D01*
X79386Y86260D01*
X79365Y86242D01*
X75276Y82152D01*
X72794Y82152D01*
X72725Y82143D01*
X72655Y82144D01*
X72568Y82123D01*
X72479Y82112D01*
X72414Y82086D01*
X72346Y82070D01*
X72267Y82028D01*
X72183Y81995D01*
X72127Y81954D01*
X72065Y81921D01*
X71998Y81861D01*
X71926Y81808D01*
X71881Y81754D01*
X71830Y81707D01*
X71780Y81632D01*
X71723Y81563D01*
X71693Y81500D01*
X71655Y81442D01*
X71626Y81357D01*
X71587Y81275D01*
X71574Y81207D01*
X71552Y81141D01*
X71545Y81051D01*
X71528Y80963D01*
X71532Y80893D01*
X71526Y80824D01*
X71542Y80735D01*
X71547Y80646D01*
X71569Y80579D01*
X71581Y80510D01*
X71618Y80428D01*
X71645Y80343D01*
X71683Y80284D01*
X71711Y80220D01*
X71767Y80150D01*
X71816Y80074D01*
X71866Y80027D01*
X71910Y79972D01*
X71982Y79918D01*
X72047Y79856D01*
X72108Y79823D01*
X72164Y79781D01*
X72309Y79710D01*
X75543Y78370D01*
X78370Y75543D01*
X79900Y71849D01*
X79900Y67851D01*
X78370Y64157D01*
X75543Y61330D01*
X71849Y59800D01*
X67851Y59800D01*
X64157Y61330D01*
X61330Y64157D01*
X59800Y67851D01*
X59800Y71849D01*
X61330Y75543D01*
X64157Y78370D01*
X67391Y79710D01*
X67452Y79744D01*
X67517Y79770D01*
X67589Y79823D01*
X67668Y79867D01*
X67718Y79916D01*
X67774Y79957D01*
X67832Y80026D01*
X67896Y80089D01*
X67932Y80148D01*
X67977Y80202D01*
X68015Y80283D01*
X68062Y80360D01*
X68083Y80427D01*
X68113Y80490D01*
X68129Y80578D01*
X68156Y80664D01*
X68159Y80733D01*
X68172Y80802D01*
X68167Y80892D01*
X68171Y80981D01*
X68157Y81050D01*
X68153Y81119D01*
X68125Y81205D01*
X68107Y81293D01*
X68076Y81356D01*
X68055Y81422D01*
X68007Y81498D01*
X67967Y81579D01*
X67922Y81632D01*
X67884Y81691D01*
X67819Y81752D01*
X67761Y81821D01*
X67704Y81861D01*
X67653Y81909D01*
X67574Y81952D01*
X67501Y82004D01*
X67435Y82028D01*
X67374Y82062D01*
X67287Y82084D01*
X67203Y82116D01*
X67134Y82124D01*
X67066Y82142D01*
X66906Y82152D01*
X60511Y82152D01*
X60413Y82139D01*
X60314Y82136D01*
X60256Y82120D01*
X60196Y82112D01*
X60104Y82075D01*
X60009Y82048D01*
X59957Y82017D01*
X59900Y81995D01*
X59820Y81937D01*
X59735Y81886D01*
X59659Y81820D01*
X59643Y81808D01*
X59635Y81799D01*
X59614Y81780D01*
X53689Y75855D01*
X53671Y75832D01*
X53648Y75813D01*
X53574Y75707D01*
X53494Y75604D01*
X53482Y75577D01*
X53465Y75553D01*
X53419Y75431D01*
X53368Y75312D01*
X53363Y75283D01*
X53353Y75255D01*
X53338Y75126D01*
X53318Y74998D01*
X53321Y74968D01*
X53317Y74939D01*
X53335Y74811D01*
X53348Y74681D01*
X53358Y74653D01*
X53362Y74624D01*
X53414Y74472D01*
X54500Y71849D01*
X54500Y67851D01*
X52970Y64157D01*
X50143Y61330D01*
X46449Y59800D01*
X42451Y59800D01*
G37*
%LPD*%
%LPC*%
G36*
X644333Y169671D02*
X644333Y169671D01*
X639571Y174433D01*
X639571Y179655D01*
X639559Y179753D01*
X639556Y179852D01*
X639539Y179910D01*
X639531Y179970D01*
X639495Y180062D01*
X639467Y180157D01*
X639437Y180209D01*
X639414Y180266D01*
X639356Y180346D01*
X639306Y180431D01*
X639240Y180507D01*
X639228Y180523D01*
X639218Y180531D01*
X639200Y180552D01*
X611885Y207866D01*
X611885Y231413D01*
X611882Y231442D01*
X611884Y231471D01*
X611862Y231599D01*
X611845Y231728D01*
X611835Y231756D01*
X611830Y231785D01*
X611776Y231903D01*
X611728Y232024D01*
X611711Y232048D01*
X611699Y232075D01*
X611618Y232176D01*
X611542Y232281D01*
X611519Y232300D01*
X611500Y232323D01*
X611397Y232401D01*
X611297Y232484D01*
X611270Y232497D01*
X611246Y232514D01*
X611102Y232585D01*
X610338Y232901D01*
X607551Y235688D01*
X606043Y239329D01*
X606043Y243271D01*
X607551Y246912D01*
X610338Y249699D01*
X613979Y251207D01*
X617921Y251207D01*
X621562Y249699D01*
X624349Y246912D01*
X625857Y243271D01*
X625857Y239329D01*
X624349Y235688D01*
X621562Y232901D01*
X620798Y232585D01*
X620773Y232571D01*
X620745Y232562D01*
X620635Y232492D01*
X620522Y232428D01*
X620501Y232407D01*
X620476Y232391D01*
X620387Y232297D01*
X620294Y232206D01*
X620278Y232181D01*
X620258Y232160D01*
X620195Y232046D01*
X620127Y231935D01*
X620119Y231907D01*
X620104Y231881D01*
X620072Y231755D01*
X620034Y231631D01*
X620032Y231602D01*
X620025Y231573D01*
X620015Y231413D01*
X620015Y211759D01*
X620027Y211661D01*
X620030Y211562D01*
X620047Y211504D01*
X620055Y211444D01*
X620091Y211352D01*
X620119Y211257D01*
X620149Y211205D01*
X620172Y211148D01*
X620230Y211068D01*
X620280Y210983D01*
X620346Y210907D01*
X620358Y210891D01*
X620368Y210883D01*
X620386Y210862D01*
X644948Y186300D01*
X645026Y186240D01*
X645098Y186172D01*
X645151Y186143D01*
X645199Y186106D01*
X645290Y186066D01*
X645377Y186018D01*
X645435Y186003D01*
X645491Y185979D01*
X645589Y185964D01*
X645685Y185939D01*
X645785Y185933D01*
X645805Y185929D01*
X645817Y185931D01*
X645845Y185929D01*
X651067Y185929D01*
X655829Y181167D01*
X655829Y174433D01*
X651067Y169671D01*
X644333Y169671D01*
G37*
%LPD*%
%LPC*%
G36*
X770926Y231584D02*
X770926Y231584D01*
X767355Y233063D01*
X764621Y235796D01*
X763142Y239367D01*
X763142Y243233D01*
X764621Y246804D01*
X767355Y249537D01*
X770926Y251016D01*
X791174Y251016D01*
X794745Y249537D01*
X797479Y246804D01*
X798958Y243233D01*
X798958Y239367D01*
X797479Y235796D01*
X794745Y233063D01*
X791174Y231584D01*
X770926Y231584D01*
G37*
%LPD*%
%LPC*%
G36*
X770926Y117284D02*
X770926Y117284D01*
X767355Y118763D01*
X764621Y121496D01*
X763142Y125067D01*
X763142Y128933D01*
X764621Y132504D01*
X767355Y135237D01*
X770926Y136716D01*
X791174Y136716D01*
X794745Y135237D01*
X797479Y132504D01*
X798958Y128933D01*
X798958Y125067D01*
X797479Y121496D01*
X794745Y118763D01*
X791174Y117284D01*
X770926Y117284D01*
G37*
%LPD*%
%LPC*%
G36*
X770926Y142684D02*
X770926Y142684D01*
X767355Y144163D01*
X764621Y146896D01*
X763142Y150467D01*
X763142Y154333D01*
X764621Y157904D01*
X767355Y160637D01*
X770926Y162116D01*
X791174Y162116D01*
X794745Y160637D01*
X797479Y157904D01*
X798958Y154333D01*
X798958Y150467D01*
X797479Y146896D01*
X794745Y144163D01*
X791174Y142684D01*
X770926Y142684D01*
G37*
%LPD*%
%LPC*%
G36*
X200609Y35720D02*
X200609Y35720D01*
X197400Y37049D01*
X194944Y39505D01*
X193615Y42714D01*
X193615Y46186D01*
X194944Y49395D01*
X197400Y51851D01*
X200609Y53180D01*
X218491Y53180D01*
X221700Y51851D01*
X224156Y49395D01*
X225485Y46186D01*
X225485Y42714D01*
X224156Y39505D01*
X221700Y37049D01*
X218491Y35720D01*
X200609Y35720D01*
G37*
%LPD*%
%LPC*%
G36*
X276809Y35720D02*
X276809Y35720D01*
X273600Y37049D01*
X271144Y39505D01*
X269815Y42714D01*
X269815Y46186D01*
X271144Y49395D01*
X273600Y51851D01*
X276809Y53180D01*
X294691Y53180D01*
X297900Y51851D01*
X300356Y49395D01*
X301685Y46186D01*
X301685Y42714D01*
X300356Y39505D01*
X297900Y37049D01*
X294691Y35720D01*
X276809Y35720D01*
G37*
%LPD*%
%LPC*%
G36*
X200609Y137320D02*
X200609Y137320D01*
X197400Y138649D01*
X194944Y141105D01*
X193615Y144314D01*
X193615Y147786D01*
X194944Y150995D01*
X197400Y153451D01*
X200609Y154780D01*
X218491Y154780D01*
X221700Y153451D01*
X224156Y150995D01*
X225485Y147786D01*
X225485Y144314D01*
X224156Y141105D01*
X221700Y138649D01*
X218491Y137320D01*
X200609Y137320D01*
G37*
%LPD*%
%LPC*%
G36*
X276809Y61120D02*
X276809Y61120D01*
X273600Y62449D01*
X271144Y64905D01*
X269815Y68114D01*
X269815Y71586D01*
X271144Y74795D01*
X273600Y77251D01*
X276809Y78580D01*
X294691Y78580D01*
X297900Y77251D01*
X300356Y74795D01*
X301685Y71586D01*
X301685Y68114D01*
X300356Y64905D01*
X297900Y62449D01*
X294691Y61120D01*
X276809Y61120D01*
G37*
%LPD*%
%LPC*%
G36*
X276809Y86520D02*
X276809Y86520D01*
X273600Y87849D01*
X271144Y90305D01*
X269815Y93514D01*
X269815Y96986D01*
X271144Y100195D01*
X273600Y102651D01*
X276809Y103980D01*
X294691Y103980D01*
X297900Y102651D01*
X300356Y100195D01*
X301685Y96986D01*
X301685Y93514D01*
X300356Y90305D01*
X297900Y87849D01*
X294691Y86520D01*
X276809Y86520D01*
G37*
%LPD*%
%LPC*%
G36*
X200609Y111920D02*
X200609Y111920D01*
X197400Y113249D01*
X194944Y115705D01*
X193615Y118914D01*
X193615Y122386D01*
X194944Y125595D01*
X197400Y128051D01*
X200609Y129380D01*
X218491Y129380D01*
X221700Y128051D01*
X224156Y125595D01*
X225485Y122386D01*
X225485Y118914D01*
X224156Y115705D01*
X221700Y113249D01*
X218491Y111920D01*
X200609Y111920D01*
G37*
%LPD*%
%LPC*%
G36*
X276809Y188120D02*
X276809Y188120D01*
X273600Y189449D01*
X271144Y191905D01*
X269815Y195114D01*
X269815Y198586D01*
X271144Y201795D01*
X273600Y204251D01*
X276809Y205580D01*
X294691Y205580D01*
X297900Y204251D01*
X300356Y201795D01*
X301685Y198586D01*
X301685Y195114D01*
X300356Y191905D01*
X297900Y189449D01*
X294691Y188120D01*
X276809Y188120D01*
G37*
%LPD*%
%LPC*%
G36*
X200609Y315120D02*
X200609Y315120D01*
X197400Y316449D01*
X194944Y318905D01*
X193615Y322114D01*
X193615Y325586D01*
X194944Y328795D01*
X197400Y331251D01*
X200609Y332580D01*
X218491Y332580D01*
X221700Y331251D01*
X224156Y328795D01*
X225485Y325586D01*
X225485Y322114D01*
X224156Y318905D01*
X221700Y316449D01*
X218491Y315120D01*
X200609Y315120D01*
G37*
%LPD*%
%LPC*%
G36*
X276809Y111920D02*
X276809Y111920D01*
X273600Y113249D01*
X271144Y115705D01*
X269815Y118914D01*
X269815Y122386D01*
X271144Y125595D01*
X273600Y128051D01*
X276809Y129380D01*
X294691Y129380D01*
X297900Y128051D01*
X300356Y125595D01*
X301685Y122386D01*
X301685Y118914D01*
X300356Y115705D01*
X297900Y113249D01*
X294691Y111920D01*
X276809Y111920D01*
G37*
%LPD*%
%LPC*%
G36*
X200609Y213520D02*
X200609Y213520D01*
X197400Y214849D01*
X194944Y217305D01*
X193615Y220514D01*
X193615Y223986D01*
X194944Y227195D01*
X197400Y229651D01*
X200609Y230980D01*
X218491Y230980D01*
X221700Y229651D01*
X224156Y227195D01*
X225485Y223986D01*
X225485Y220514D01*
X224156Y217305D01*
X221700Y214849D01*
X218491Y213520D01*
X200609Y213520D01*
G37*
%LPD*%
%LPC*%
G36*
X276809Y315120D02*
X276809Y315120D01*
X273600Y316449D01*
X271144Y318905D01*
X269815Y322114D01*
X269815Y325586D01*
X271144Y328795D01*
X273600Y331251D01*
X276809Y332580D01*
X294691Y332580D01*
X297900Y331251D01*
X300356Y328795D01*
X301685Y325586D01*
X301685Y322114D01*
X300356Y318905D01*
X297900Y316449D01*
X294691Y315120D01*
X276809Y315120D01*
G37*
%LPD*%
%LPC*%
G36*
X276809Y365920D02*
X276809Y365920D01*
X273600Y367249D01*
X271144Y369705D01*
X269815Y372914D01*
X269815Y376386D01*
X271144Y379595D01*
X273600Y382051D01*
X276809Y383380D01*
X294691Y383380D01*
X297900Y382051D01*
X300356Y379595D01*
X301685Y376386D01*
X301685Y372914D01*
X300356Y369705D01*
X297900Y367249D01*
X294691Y365920D01*
X276809Y365920D01*
G37*
%LPD*%
%LPC*%
G36*
X200609Y365920D02*
X200609Y365920D01*
X197400Y367249D01*
X194944Y369705D01*
X193615Y372914D01*
X193615Y376386D01*
X194944Y379595D01*
X197400Y382051D01*
X200609Y383380D01*
X218491Y383380D01*
X221700Y382051D01*
X224156Y379595D01*
X225485Y376386D01*
X225485Y372914D01*
X224156Y369705D01*
X221700Y367249D01*
X218491Y365920D01*
X200609Y365920D01*
G37*
%LPD*%
%LPC*%
G36*
X200609Y340520D02*
X200609Y340520D01*
X197400Y341849D01*
X194944Y344305D01*
X193615Y347514D01*
X193615Y350986D01*
X194944Y354195D01*
X197400Y356651D01*
X200609Y357980D01*
X218491Y357980D01*
X221700Y356651D01*
X224156Y354195D01*
X225485Y350986D01*
X225485Y347514D01*
X224156Y344305D01*
X221700Y341849D01*
X218491Y340520D01*
X200609Y340520D01*
G37*
%LPD*%
%LPC*%
G36*
X276809Y137320D02*
X276809Y137320D01*
X273600Y138649D01*
X271144Y141105D01*
X269815Y144314D01*
X269815Y147786D01*
X271144Y150995D01*
X273600Y153451D01*
X276809Y154780D01*
X294691Y154780D01*
X297900Y153451D01*
X300356Y150995D01*
X301685Y147786D01*
X301685Y144314D01*
X300356Y141105D01*
X297900Y138649D01*
X294691Y137320D01*
X276809Y137320D01*
G37*
%LPD*%
%LPC*%
G36*
X200609Y162720D02*
X200609Y162720D01*
X197400Y164049D01*
X194944Y166505D01*
X193615Y169714D01*
X193615Y173186D01*
X194944Y176395D01*
X197400Y178851D01*
X200609Y180180D01*
X218491Y180180D01*
X221700Y178851D01*
X224156Y176395D01*
X225485Y173186D01*
X225485Y169714D01*
X224156Y166505D01*
X221700Y164049D01*
X218491Y162720D01*
X200609Y162720D01*
G37*
%LPD*%
%LPC*%
G36*
X276809Y162720D02*
X276809Y162720D01*
X273600Y164049D01*
X271144Y166505D01*
X269815Y169714D01*
X269815Y173186D01*
X271144Y176395D01*
X273600Y178851D01*
X276809Y180180D01*
X294691Y180180D01*
X297900Y178851D01*
X300356Y176395D01*
X301685Y173186D01*
X301685Y169714D01*
X300356Y166505D01*
X297900Y164049D01*
X294691Y162720D01*
X276809Y162720D01*
G37*
%LPD*%
%LPC*%
G36*
X276809Y289720D02*
X276809Y289720D01*
X273600Y291049D01*
X271144Y293505D01*
X269815Y296714D01*
X269815Y300186D01*
X271144Y303395D01*
X273600Y305851D01*
X276809Y307180D01*
X294691Y307180D01*
X297900Y305851D01*
X300356Y303395D01*
X301685Y300186D01*
X301685Y296714D01*
X300356Y293505D01*
X297900Y291049D01*
X294691Y289720D01*
X276809Y289720D01*
G37*
%LPD*%
%LPC*%
G36*
X276809Y340520D02*
X276809Y340520D01*
X273600Y341849D01*
X271144Y344305D01*
X269815Y347514D01*
X269815Y350986D01*
X271144Y354195D01*
X273600Y356651D01*
X276809Y357980D01*
X294691Y357980D01*
X297900Y356651D01*
X300356Y354195D01*
X301685Y350986D01*
X301685Y347514D01*
X300356Y344305D01*
X297900Y341849D01*
X294691Y340520D01*
X276809Y340520D01*
G37*
%LPD*%
%LPC*%
G36*
X271179Y417321D02*
X271179Y417321D01*
X268191Y418559D01*
X265905Y420845D01*
X264667Y423833D01*
X264667Y427067D01*
X265905Y430055D01*
X268191Y432341D01*
X271179Y433579D01*
X287621Y433579D01*
X290609Y432341D01*
X292895Y430055D01*
X294133Y427067D01*
X294133Y423833D01*
X292895Y420845D01*
X290609Y418559D01*
X287621Y417321D01*
X271179Y417321D01*
G37*
%LPD*%
%LPC*%
G36*
X511209Y319531D02*
X511209Y319531D01*
X508221Y320769D01*
X505935Y323055D01*
X504697Y326043D01*
X504697Y329277D01*
X505935Y332265D01*
X508221Y334551D01*
X511209Y335789D01*
X527651Y335789D01*
X530639Y334551D01*
X532925Y332265D01*
X534163Y329277D01*
X534163Y326043D01*
X532925Y323055D01*
X530639Y320769D01*
X527651Y319531D01*
X511209Y319531D01*
G37*
%LPD*%
%LPC*%
G36*
X435009Y319531D02*
X435009Y319531D01*
X432021Y320769D01*
X429735Y323055D01*
X428497Y326043D01*
X428497Y329277D01*
X429735Y332265D01*
X432021Y334551D01*
X435009Y335789D01*
X451451Y335789D01*
X454439Y334551D01*
X456725Y332265D01*
X457963Y329277D01*
X457963Y326043D01*
X456725Y323055D01*
X454439Y320769D01*
X451451Y319531D01*
X435009Y319531D01*
G37*
%LPD*%
%LPC*%
G36*
X435009Y192531D02*
X435009Y192531D01*
X432021Y193769D01*
X429735Y196055D01*
X428497Y199043D01*
X428497Y202277D01*
X429735Y205265D01*
X432021Y207551D01*
X435009Y208789D01*
X451451Y208789D01*
X454439Y207551D01*
X456725Y205265D01*
X457963Y202277D01*
X457963Y199043D01*
X456725Y196055D01*
X454439Y193769D01*
X451451Y192531D01*
X435009Y192531D01*
G37*
%LPD*%
%LPC*%
G36*
X511209Y294131D02*
X511209Y294131D01*
X508221Y295369D01*
X505935Y297655D01*
X504697Y300643D01*
X504697Y303877D01*
X505935Y306865D01*
X508221Y309151D01*
X511209Y310389D01*
X527651Y310389D01*
X530639Y309151D01*
X532925Y306865D01*
X534163Y303877D01*
X534163Y300643D01*
X532925Y297655D01*
X530639Y295369D01*
X527651Y294131D01*
X511209Y294131D01*
G37*
%LPD*%
%LPC*%
G36*
X511209Y268731D02*
X511209Y268731D01*
X508221Y269969D01*
X505935Y272255D01*
X504697Y275243D01*
X504697Y278477D01*
X505935Y281465D01*
X508221Y283751D01*
X511209Y284989D01*
X527651Y284989D01*
X530639Y283751D01*
X532925Y281465D01*
X534163Y278477D01*
X534163Y275243D01*
X532925Y272255D01*
X530639Y269969D01*
X527651Y268731D01*
X511209Y268731D01*
G37*
%LPD*%
%LPC*%
G36*
X435009Y167131D02*
X435009Y167131D01*
X432021Y168369D01*
X429735Y170655D01*
X428497Y173643D01*
X428497Y176877D01*
X429735Y179865D01*
X432021Y182151D01*
X435009Y183389D01*
X451451Y183389D01*
X454439Y182151D01*
X456725Y179865D01*
X457963Y176877D01*
X457963Y173643D01*
X456725Y170655D01*
X454439Y168369D01*
X451451Y167131D01*
X435009Y167131D01*
G37*
%LPD*%
%LPC*%
G36*
X214029Y417321D02*
X214029Y417321D01*
X211041Y418559D01*
X208755Y420845D01*
X207517Y423833D01*
X207517Y427067D01*
X208755Y430055D01*
X211041Y432341D01*
X214029Y433579D01*
X230471Y433579D01*
X233459Y432341D01*
X235745Y430055D01*
X236983Y427067D01*
X236983Y423833D01*
X235745Y420845D01*
X233459Y418559D01*
X230471Y417321D01*
X214029Y417321D01*
G37*
%LPD*%
%LPC*%
G36*
X511209Y217931D02*
X511209Y217931D01*
X508221Y219169D01*
X505935Y221455D01*
X504697Y224443D01*
X504697Y227677D01*
X505935Y230665D01*
X508221Y232951D01*
X511209Y234189D01*
X527651Y234189D01*
X530639Y232951D01*
X532925Y230665D01*
X534163Y227677D01*
X534163Y224443D01*
X532925Y221455D01*
X530639Y219169D01*
X527651Y217931D01*
X511209Y217931D01*
G37*
%LPD*%
%LPC*%
G36*
X435009Y268731D02*
X435009Y268731D01*
X432021Y269969D01*
X429735Y272255D01*
X428497Y275243D01*
X428497Y278477D01*
X429735Y281465D01*
X432021Y283751D01*
X435009Y284989D01*
X451451Y284989D01*
X454439Y283751D01*
X456725Y281465D01*
X457963Y278477D01*
X457963Y275243D01*
X456725Y272255D01*
X454439Y269969D01*
X451451Y268731D01*
X435009Y268731D01*
G37*
%LPD*%
%LPC*%
G36*
X435009Y217931D02*
X435009Y217931D01*
X432021Y219169D01*
X429735Y221455D01*
X428497Y224443D01*
X428497Y227677D01*
X429735Y230665D01*
X432021Y232951D01*
X435009Y234189D01*
X451451Y234189D01*
X454439Y232951D01*
X456725Y230665D01*
X457963Y227677D01*
X457963Y224443D01*
X456725Y221455D01*
X454439Y219169D01*
X451451Y217931D01*
X435009Y217931D01*
G37*
%LPD*%
%LPC*%
G36*
X435009Y243331D02*
X435009Y243331D01*
X432021Y244569D01*
X429735Y246855D01*
X428497Y249843D01*
X428497Y253077D01*
X429735Y256065D01*
X432021Y258351D01*
X435009Y259589D01*
X451451Y259589D01*
X454439Y258351D01*
X456725Y256065D01*
X457963Y253077D01*
X457963Y249843D01*
X456725Y246855D01*
X454439Y244569D01*
X451451Y243331D01*
X435009Y243331D01*
G37*
%LPD*%
%LPC*%
G36*
X511209Y192531D02*
X511209Y192531D01*
X508221Y193769D01*
X505935Y196055D01*
X504697Y199043D01*
X504697Y202277D01*
X505935Y205265D01*
X508221Y207551D01*
X511209Y208789D01*
X527651Y208789D01*
X530639Y207551D01*
X532925Y205265D01*
X534163Y202277D01*
X534163Y199043D01*
X532925Y196055D01*
X530639Y193769D01*
X527651Y192531D01*
X511209Y192531D01*
G37*
%LPD*%
%LPC*%
G36*
X334551Y136000D02*
X334551Y136000D01*
X330857Y137530D01*
X328030Y140357D01*
X326500Y144051D01*
X326500Y148049D01*
X328030Y151743D01*
X330857Y154570D01*
X334551Y156100D01*
X338549Y156100D01*
X342243Y154570D01*
X345070Y151743D01*
X346600Y148049D01*
X346600Y144051D01*
X345070Y140357D01*
X342243Y137530D01*
X338549Y136000D01*
X334551Y136000D01*
G37*
%LPD*%
%LPC*%
G36*
X359951Y110600D02*
X359951Y110600D01*
X356257Y112130D01*
X353430Y114957D01*
X351900Y118651D01*
X351900Y122649D01*
X353430Y126343D01*
X356257Y129170D01*
X359951Y130700D01*
X363949Y130700D01*
X367643Y129170D01*
X370470Y126343D01*
X372000Y122649D01*
X372000Y118651D01*
X370470Y114957D01*
X367643Y112130D01*
X363949Y110600D01*
X359951Y110600D01*
G37*
%LPD*%
%LPC*%
G36*
X42451Y339200D02*
X42451Y339200D01*
X38757Y340730D01*
X35930Y343557D01*
X34400Y347251D01*
X34400Y351249D01*
X35930Y354943D01*
X38757Y357770D01*
X42451Y359300D01*
X46449Y359300D01*
X50143Y357770D01*
X52970Y354943D01*
X54500Y351249D01*
X54500Y347251D01*
X52970Y343557D01*
X50143Y340730D01*
X46449Y339200D01*
X42451Y339200D01*
G37*
%LPD*%
%LPC*%
G36*
X42451Y110600D02*
X42451Y110600D01*
X38757Y112130D01*
X35930Y114957D01*
X34400Y118651D01*
X34400Y122649D01*
X35930Y126343D01*
X38757Y129170D01*
X42451Y130700D01*
X46449Y130700D01*
X50143Y129170D01*
X52970Y126343D01*
X54500Y122649D01*
X54500Y118651D01*
X52970Y114957D01*
X50143Y112130D01*
X46449Y110600D01*
X42451Y110600D01*
G37*
%LPD*%
%LPC*%
G36*
X42451Y313800D02*
X42451Y313800D01*
X38757Y315330D01*
X35930Y318157D01*
X34400Y321851D01*
X34400Y325849D01*
X35930Y329543D01*
X38757Y332370D01*
X42451Y333900D01*
X46449Y333900D01*
X50143Y332370D01*
X52970Y329543D01*
X54500Y325849D01*
X54500Y321851D01*
X52970Y318157D01*
X50143Y315330D01*
X46449Y313800D01*
X42451Y313800D01*
G37*
%LPD*%
%LPC*%
G36*
X42451Y364600D02*
X42451Y364600D01*
X38757Y366130D01*
X35930Y368957D01*
X34400Y372651D01*
X34400Y376649D01*
X35930Y380343D01*
X38757Y383170D01*
X42451Y384700D01*
X46449Y384700D01*
X50143Y383170D01*
X52970Y380343D01*
X54500Y376649D01*
X54500Y372651D01*
X52970Y368957D01*
X50143Y366130D01*
X46449Y364600D01*
X42451Y364600D01*
G37*
%LPD*%
%LPC*%
G36*
X42451Y161400D02*
X42451Y161400D01*
X38757Y162930D01*
X35930Y165757D01*
X34400Y169451D01*
X34400Y173449D01*
X35930Y177143D01*
X38757Y179970D01*
X42451Y181500D01*
X46449Y181500D01*
X50143Y179970D01*
X52970Y177143D01*
X54500Y173449D01*
X54500Y169451D01*
X52970Y165757D01*
X50143Y162930D01*
X46449Y161400D01*
X42451Y161400D01*
G37*
%LPD*%
%LPC*%
G36*
X359951Y136000D02*
X359951Y136000D01*
X356257Y137530D01*
X353430Y140357D01*
X351900Y144051D01*
X351900Y148049D01*
X353430Y151743D01*
X356257Y154570D01*
X359951Y156100D01*
X363949Y156100D01*
X367643Y154570D01*
X370470Y151743D01*
X372000Y148049D01*
X372000Y144051D01*
X370470Y140357D01*
X367643Y137530D01*
X363949Y136000D01*
X359951Y136000D01*
G37*
%LPD*%
%LPC*%
G36*
X42451Y288400D02*
X42451Y288400D01*
X38757Y289930D01*
X35930Y292757D01*
X34400Y296451D01*
X34400Y300449D01*
X35930Y304143D01*
X38757Y306970D01*
X42451Y308500D01*
X46449Y308500D01*
X50143Y306970D01*
X52970Y304143D01*
X54500Y300449D01*
X54500Y296451D01*
X52970Y292757D01*
X50143Y289930D01*
X46449Y288400D01*
X42451Y288400D01*
G37*
%LPD*%
%LPC*%
G36*
X42451Y34400D02*
X42451Y34400D01*
X38757Y35930D01*
X35930Y38757D01*
X34400Y42451D01*
X34400Y46449D01*
X35930Y50143D01*
X38757Y52970D01*
X42451Y54500D01*
X46449Y54500D01*
X50143Y52970D01*
X52970Y50143D01*
X54500Y46449D01*
X54500Y42451D01*
X52970Y38757D01*
X50143Y35930D01*
X46449Y34400D01*
X42451Y34400D01*
G37*
%LPD*%
%LPC*%
G36*
X334551Y110600D02*
X334551Y110600D01*
X330857Y112130D01*
X328030Y114957D01*
X326500Y118651D01*
X326500Y122649D01*
X328030Y126343D01*
X330857Y129170D01*
X334551Y130700D01*
X338549Y130700D01*
X342243Y129170D01*
X345070Y126343D01*
X346600Y122649D01*
X346600Y118651D01*
X345070Y114957D01*
X342243Y112130D01*
X338549Y110600D01*
X334551Y110600D01*
G37*
%LPD*%
%LPC*%
G36*
X42451Y85200D02*
X42451Y85200D01*
X38757Y86730D01*
X35930Y89557D01*
X34400Y93251D01*
X34400Y97249D01*
X35930Y100943D01*
X38757Y103770D01*
X42451Y105300D01*
X46449Y105300D01*
X50143Y103770D01*
X52970Y100943D01*
X54500Y97249D01*
X54500Y93251D01*
X52970Y89557D01*
X50143Y86730D01*
X46449Y85200D01*
X42451Y85200D01*
G37*
%LPD*%
%LPC*%
G36*
X715579Y275843D02*
X715579Y275843D01*
X711938Y277351D01*
X709151Y280138D01*
X707643Y283779D01*
X707643Y287721D01*
X709151Y291362D01*
X711938Y294149D01*
X715579Y295657D01*
X719521Y295657D01*
X723162Y294149D01*
X725949Y291362D01*
X727457Y287721D01*
X727457Y283779D01*
X725949Y280138D01*
X723162Y277351D01*
X719521Y275843D01*
X715579Y275843D01*
G37*
%LPD*%
%LPC*%
G36*
X715579Y231393D02*
X715579Y231393D01*
X711938Y232901D01*
X709151Y235688D01*
X707643Y239329D01*
X707643Y243271D01*
X709151Y246912D01*
X711938Y249699D01*
X715579Y251207D01*
X719521Y251207D01*
X723162Y249699D01*
X725949Y246912D01*
X727457Y243271D01*
X727457Y239329D01*
X725949Y235688D01*
X723162Y232901D01*
X719521Y231393D01*
X715579Y231393D01*
G37*
%LPD*%
%LPC*%
G36*
X410653Y167131D02*
X410653Y167131D01*
X405891Y171893D01*
X405891Y178627D01*
X410653Y183389D01*
X417387Y183389D01*
X422149Y178627D01*
X422149Y171893D01*
X417387Y167131D01*
X410653Y167131D01*
G37*
%LPD*%
%LPC*%
G36*
X549083Y167131D02*
X549083Y167131D01*
X544321Y171893D01*
X544321Y178627D01*
X549083Y183389D01*
X555817Y183389D01*
X560579Y178627D01*
X560579Y171893D01*
X555817Y167131D01*
X549083Y167131D01*
G37*
%LPD*%
%LPC*%
G36*
X644333Y144271D02*
X644333Y144271D01*
X639571Y149033D01*
X639571Y155767D01*
X644333Y160529D01*
X651067Y160529D01*
X655829Y155767D01*
X655829Y149033D01*
X651067Y144271D01*
X644333Y144271D01*
G37*
%LPD*%
%LPC*%
G36*
X745933Y144271D02*
X745933Y144271D01*
X741171Y149033D01*
X741171Y155767D01*
X745933Y160529D01*
X752667Y160529D01*
X757429Y155767D01*
X757429Y149033D01*
X752667Y144271D01*
X745933Y144271D01*
G37*
%LPD*%
%LPC*%
G36*
X320483Y442721D02*
X320483Y442721D01*
X315721Y447483D01*
X315721Y454217D01*
X320483Y458979D01*
X327217Y458979D01*
X331979Y454217D01*
X331979Y447483D01*
X327217Y442721D01*
X320483Y442721D01*
G37*
%LPD*%
%LPC*%
G36*
X174433Y442721D02*
X174433Y442721D01*
X169671Y447483D01*
X169671Y454217D01*
X174433Y458979D01*
X181167Y458979D01*
X185929Y454217D01*
X185929Y447483D01*
X181167Y442721D01*
X174433Y442721D01*
G37*
%LPD*%
%LPC*%
G36*
X720533Y144271D02*
X720533Y144271D01*
X715771Y149033D01*
X715771Y155767D01*
X720533Y160529D01*
X727267Y160529D01*
X732029Y155767D01*
X732029Y149033D01*
X727267Y144271D01*
X720533Y144271D01*
G37*
%LPD*%
%LPC*%
G36*
X695133Y144271D02*
X695133Y144271D01*
X690371Y149033D01*
X690371Y155767D01*
X695133Y160529D01*
X701867Y160529D01*
X706629Y155767D01*
X706629Y149033D01*
X701867Y144271D01*
X695133Y144271D01*
G37*
%LPD*%
%LPC*%
G36*
X669733Y144271D02*
X669733Y144271D01*
X664971Y149033D01*
X664971Y155767D01*
X669733Y160529D01*
X676467Y160529D01*
X681229Y155767D01*
X681229Y149033D01*
X676467Y144271D01*
X669733Y144271D01*
G37*
%LPD*%
%LPC*%
G36*
X410653Y141731D02*
X410653Y141731D01*
X405891Y146493D01*
X405891Y153227D01*
X410653Y157989D01*
X417387Y157989D01*
X422149Y153227D01*
X422149Y146493D01*
X417387Y141731D01*
X410653Y141731D01*
G37*
%LPD*%
%LPC*%
G36*
X320483Y417321D02*
X320483Y417321D01*
X315721Y422083D01*
X315721Y428817D01*
X320483Y433579D01*
X327217Y433579D01*
X331979Y428817D01*
X331979Y422083D01*
X327217Y417321D01*
X320483Y417321D01*
G37*
%LPD*%
%LPC*%
G36*
X174433Y417321D02*
X174433Y417321D01*
X169671Y422083D01*
X169671Y428817D01*
X174433Y433579D01*
X181167Y433579D01*
X185929Y428817D01*
X185929Y422083D01*
X181167Y417321D01*
X174433Y417321D01*
G37*
%LPD*%
%LPC*%
G36*
X98233Y366521D02*
X98233Y366521D01*
X93471Y371283D01*
X93471Y378017D01*
X98233Y382779D01*
X104967Y382779D01*
X109729Y378017D01*
X109729Y371283D01*
X104967Y366521D01*
X98233Y366521D01*
G37*
%LPD*%
%LPC*%
G36*
X72833Y366521D02*
X72833Y366521D01*
X68071Y371283D01*
X68071Y378017D01*
X72833Y382779D01*
X79567Y382779D01*
X84329Y378017D01*
X84329Y371283D01*
X79567Y366521D01*
X72833Y366521D01*
G37*
%LPD*%
%LPC*%
G36*
X142683Y366521D02*
X142683Y366521D01*
X137921Y371283D01*
X137921Y378017D01*
X142683Y382779D01*
X149417Y382779D01*
X154179Y378017D01*
X154179Y371283D01*
X149417Y366521D01*
X142683Y366521D01*
G37*
%LPD*%
%LPC*%
G36*
X117283Y366521D02*
X117283Y366521D01*
X112521Y371283D01*
X112521Y378017D01*
X117283Y382779D01*
X124017Y382779D01*
X128779Y378017D01*
X128779Y371283D01*
X124017Y366521D01*
X117283Y366521D01*
G37*
%LPD*%
%LPC*%
G36*
X549083Y347471D02*
X549083Y347471D01*
X544321Y352233D01*
X544321Y358967D01*
X549083Y363729D01*
X555817Y363729D01*
X560579Y358967D01*
X560579Y352233D01*
X555817Y347471D01*
X549083Y347471D01*
G37*
%LPD*%
%LPC*%
G36*
X523683Y347471D02*
X523683Y347471D01*
X518921Y352233D01*
X518921Y358967D01*
X523683Y363729D01*
X530417Y363729D01*
X535179Y358967D01*
X535179Y352233D01*
X530417Y347471D01*
X523683Y347471D01*
G37*
%LPD*%
%LPC*%
G36*
X385253Y141731D02*
X385253Y141731D01*
X380491Y146493D01*
X380491Y153227D01*
X385253Y157989D01*
X391987Y157989D01*
X396749Y153227D01*
X396749Y146493D01*
X391987Y141731D01*
X385253Y141731D01*
G37*
%LPD*%
%LPC*%
G36*
X455103Y139191D02*
X455103Y139191D01*
X450341Y143953D01*
X450341Y150687D01*
X455103Y155449D01*
X461837Y155449D01*
X466599Y150687D01*
X466599Y143953D01*
X461837Y139191D01*
X455103Y139191D01*
G37*
%LPD*%
%LPC*%
G36*
X574483Y319531D02*
X574483Y319531D01*
X569721Y324293D01*
X569721Y331027D01*
X574483Y335789D01*
X581217Y335789D01*
X585979Y331027D01*
X585979Y324293D01*
X581217Y319531D01*
X574483Y319531D01*
G37*
%LPD*%
%LPC*%
G36*
X411923Y319531D02*
X411923Y319531D01*
X407161Y324293D01*
X407161Y331027D01*
X411923Y335789D01*
X418657Y335789D01*
X423419Y331027D01*
X423419Y324293D01*
X418657Y319531D01*
X411923Y319531D01*
G37*
%LPD*%
%LPC*%
G36*
X386523Y319531D02*
X386523Y319531D01*
X381761Y324293D01*
X381761Y331027D01*
X386523Y335789D01*
X393257Y335789D01*
X398019Y331027D01*
X398019Y324293D01*
X393257Y319531D01*
X386523Y319531D01*
G37*
%LPD*%
%LPC*%
G36*
X745933Y118871D02*
X745933Y118871D01*
X741171Y123633D01*
X741171Y130367D01*
X745933Y135129D01*
X752667Y135129D01*
X757429Y130367D01*
X757429Y123633D01*
X752667Y118871D01*
X745933Y118871D01*
G37*
%LPD*%
%LPC*%
G36*
X720533Y118871D02*
X720533Y118871D01*
X715771Y123633D01*
X715771Y130367D01*
X720533Y135129D01*
X727267Y135129D01*
X732029Y130367D01*
X732029Y123633D01*
X727267Y118871D01*
X720533Y118871D01*
G37*
%LPD*%
%LPC*%
G36*
X695133Y118871D02*
X695133Y118871D01*
X690371Y123633D01*
X690371Y130367D01*
X695133Y135129D01*
X701867Y135129D01*
X706629Y130367D01*
X706629Y123633D01*
X701867Y118871D01*
X695133Y118871D01*
G37*
%LPD*%
%LPC*%
G36*
X669733Y118871D02*
X669733Y118871D01*
X664971Y123633D01*
X664971Y130367D01*
X669733Y135129D01*
X676467Y135129D01*
X681229Y130367D01*
X681229Y123633D01*
X676467Y118871D01*
X669733Y118871D01*
G37*
%LPD*%
%LPC*%
G36*
X644333Y118871D02*
X644333Y118871D01*
X639571Y123633D01*
X639571Y130367D01*
X644333Y135129D01*
X651067Y135129D01*
X655829Y130367D01*
X655829Y123633D01*
X651067Y118871D01*
X644333Y118871D01*
G37*
%LPD*%
%LPC*%
G36*
X480503Y113791D02*
X480503Y113791D01*
X475741Y118553D01*
X475741Y125287D01*
X480503Y130049D01*
X487237Y130049D01*
X491999Y125287D01*
X491999Y118553D01*
X487237Y113791D01*
X480503Y113791D01*
G37*
%LPD*%
%LPC*%
G36*
X455103Y113791D02*
X455103Y113791D01*
X450341Y118553D01*
X450341Y125287D01*
X455103Y130049D01*
X461837Y130049D01*
X466599Y125287D01*
X466599Y118553D01*
X461837Y113791D01*
X455103Y113791D01*
G37*
%LPD*%
%LPC*%
G36*
X695133Y93471D02*
X695133Y93471D01*
X690371Y98233D01*
X690371Y104967D01*
X695133Y109729D01*
X701867Y109729D01*
X706629Y104967D01*
X706629Y98233D01*
X701867Y93471D01*
X695133Y93471D01*
G37*
%LPD*%
%LPC*%
G36*
X574483Y294131D02*
X574483Y294131D01*
X569721Y298893D01*
X569721Y305627D01*
X574483Y310389D01*
X581217Y310389D01*
X585979Y305627D01*
X585979Y298893D01*
X581217Y294131D01*
X574483Y294131D01*
G37*
%LPD*%
%LPC*%
G36*
X455103Y88391D02*
X455103Y88391D01*
X450341Y93153D01*
X450341Y99887D01*
X455103Y104649D01*
X461837Y104649D01*
X466599Y99887D01*
X466599Y93153D01*
X461837Y88391D01*
X455103Y88391D01*
G37*
%LPD*%
%LPC*%
G36*
X480503Y88391D02*
X480503Y88391D01*
X475741Y93153D01*
X475741Y99887D01*
X480503Y104649D01*
X487237Y104649D01*
X491999Y99887D01*
X491999Y93153D01*
X487237Y88391D01*
X480503Y88391D01*
G37*
%LPD*%
%LPC*%
G36*
X480503Y62991D02*
X480503Y62991D01*
X475741Y67753D01*
X475741Y74487D01*
X480503Y79249D01*
X487237Y79249D01*
X491999Y74487D01*
X491999Y67753D01*
X487237Y62991D01*
X480503Y62991D01*
G37*
%LPD*%
%LPC*%
G36*
X455103Y62991D02*
X455103Y62991D01*
X450341Y67753D01*
X450341Y74487D01*
X455103Y79249D01*
X461837Y79249D01*
X466599Y74487D01*
X466599Y67753D01*
X461837Y62991D01*
X455103Y62991D01*
G37*
%LPD*%
%LPC*%
G36*
X455103Y37591D02*
X455103Y37591D01*
X450341Y42353D01*
X450341Y49087D01*
X455103Y53849D01*
X461837Y53849D01*
X466599Y49087D01*
X466599Y42353D01*
X461837Y37591D01*
X455103Y37591D01*
G37*
%LPD*%
%LPC*%
G36*
X549083Y268731D02*
X549083Y268731D01*
X544321Y273493D01*
X544321Y280227D01*
X549083Y284989D01*
X555817Y284989D01*
X560579Y280227D01*
X560579Y273493D01*
X555817Y268731D01*
X549083Y268731D01*
G37*
%LPD*%
%LPC*%
G36*
X385253Y268731D02*
X385253Y268731D01*
X380491Y273493D01*
X380491Y280227D01*
X385253Y284989D01*
X391987Y284989D01*
X396749Y280227D01*
X396749Y273493D01*
X391987Y268731D01*
X385253Y268731D01*
G37*
%LPD*%
%LPC*%
G36*
X361123Y268731D02*
X361123Y268731D01*
X356361Y273493D01*
X356361Y280227D01*
X361123Y284989D01*
X367857Y284989D01*
X372619Y280227D01*
X372619Y273493D01*
X367857Y268731D01*
X361123Y268731D01*
G37*
%LPD*%
%LPC*%
G36*
X335723Y268731D02*
X335723Y268731D01*
X330961Y273493D01*
X330961Y280227D01*
X335723Y284989D01*
X342457Y284989D01*
X347219Y280227D01*
X347219Y273493D01*
X342457Y268731D01*
X335723Y268731D01*
G37*
%LPD*%
%LPC*%
G36*
X574483Y268731D02*
X574483Y268731D01*
X569721Y273493D01*
X569721Y280227D01*
X574483Y284989D01*
X581217Y284989D01*
X585979Y280227D01*
X585979Y273493D01*
X581217Y268731D01*
X574483Y268731D01*
G37*
%LPD*%
%LPC*%
G36*
X385253Y243331D02*
X385253Y243331D01*
X380491Y248093D01*
X380491Y254827D01*
X385253Y259589D01*
X391987Y259589D01*
X396749Y254827D01*
X396749Y248093D01*
X391987Y243331D01*
X385253Y243331D01*
G37*
%LPD*%
%LPC*%
G36*
X745933Y233171D02*
X745933Y233171D01*
X741171Y237933D01*
X741171Y244667D01*
X745933Y249429D01*
X752667Y249429D01*
X757429Y244667D01*
X757429Y237933D01*
X752667Y233171D01*
X745933Y233171D01*
G37*
%LPD*%
%LPC*%
G36*
X410653Y217931D02*
X410653Y217931D01*
X405891Y222693D01*
X405891Y229427D01*
X410653Y234189D01*
X417387Y234189D01*
X422149Y229427D01*
X422149Y222693D01*
X417387Y217931D01*
X410653Y217931D01*
G37*
%LPD*%
%LPC*%
G36*
X385253Y217931D02*
X385253Y217931D01*
X380491Y222693D01*
X380491Y229427D01*
X385253Y234189D01*
X391987Y234189D01*
X396749Y229427D01*
X396749Y222693D01*
X391987Y217931D01*
X385253Y217931D01*
G37*
%LPD*%
%LPC*%
G36*
X480503Y139191D02*
X480503Y139191D01*
X475741Y143953D01*
X475741Y150687D01*
X480503Y155449D01*
X487237Y155449D01*
X491999Y150687D01*
X491999Y143953D01*
X487237Y139191D01*
X480503Y139191D01*
G37*
%LPD*%
%LPC*%
G36*
X161733Y214121D02*
X161733Y214121D01*
X156971Y218883D01*
X156971Y225617D01*
X161733Y230379D01*
X168467Y230379D01*
X173229Y225617D01*
X173229Y218883D01*
X168467Y214121D01*
X161733Y214121D01*
G37*
%LPD*%
%LPC*%
G36*
X410653Y192531D02*
X410653Y192531D01*
X405891Y197293D01*
X405891Y204027D01*
X410653Y208789D01*
X417387Y208789D01*
X422149Y204027D01*
X422149Y197293D01*
X417387Y192531D01*
X410653Y192531D01*
G37*
%LPD*%
%LPC*%
G36*
X549083Y192531D02*
X549083Y192531D01*
X544321Y197293D01*
X544321Y204027D01*
X549083Y208789D01*
X555817Y208789D01*
X560579Y204027D01*
X560579Y197293D01*
X555817Y192531D01*
X549083Y192531D01*
G37*
%LPD*%
%LPC*%
G36*
X745933Y169671D02*
X745933Y169671D01*
X741171Y174433D01*
X741171Y181167D01*
X745933Y185929D01*
X752667Y185929D01*
X757429Y181167D01*
X757429Y174433D01*
X752667Y169671D01*
X745933Y169671D01*
G37*
%LPD*%
%LPC*%
G36*
X695133Y169671D02*
X695133Y169671D01*
X690371Y174433D01*
X690371Y181167D01*
X695133Y185929D01*
X701867Y185929D01*
X706629Y181167D01*
X706629Y174433D01*
X701867Y169671D01*
X695133Y169671D01*
G37*
%LPD*%
%LPC*%
G36*
X720533Y169671D02*
X720533Y169671D01*
X715771Y174433D01*
X715771Y181167D01*
X720533Y185929D01*
X727267Y185929D01*
X732029Y181167D01*
X732029Y174433D01*
X727267Y169671D01*
X720533Y169671D01*
G37*
%LPD*%
%LPC*%
G36*
X783589Y269239D02*
X783589Y269239D01*
X783589Y277432D01*
X790086Y277432D01*
X791755Y277168D01*
X793361Y276646D01*
X794867Y275879D01*
X796233Y274886D01*
X797428Y273692D01*
X798420Y272325D01*
X799187Y270820D01*
X799701Y269239D01*
X783589Y269239D01*
G37*
%LPD*%
%LPC*%
G36*
X762399Y269239D02*
X762399Y269239D01*
X762913Y270820D01*
X763680Y272325D01*
X764672Y273692D01*
X765867Y274886D01*
X767233Y275879D01*
X768739Y276646D01*
X770345Y277168D01*
X772014Y277432D01*
X778511Y277432D01*
X778511Y269239D01*
X762399Y269239D01*
G37*
%LPD*%
%LPC*%
G36*
X783589Y255968D02*
X783589Y255968D01*
X783589Y264161D01*
X799701Y264161D01*
X799187Y262580D01*
X798420Y261075D01*
X797428Y259708D01*
X796233Y258514D01*
X794867Y257521D01*
X793361Y256754D01*
X791755Y256232D01*
X790086Y255968D01*
X783589Y255968D01*
G37*
%LPD*%
%LPC*%
G36*
X772014Y255968D02*
X772014Y255968D01*
X770345Y256232D01*
X768739Y256754D01*
X767233Y257521D01*
X765867Y258514D01*
X764672Y259708D01*
X763680Y261075D01*
X762913Y262580D01*
X762399Y264161D01*
X778511Y264161D01*
X778511Y255968D01*
X772014Y255968D01*
G37*
%LPD*%
%LPC*%
G36*
X287852Y224352D02*
X287852Y224352D01*
X287852Y231996D01*
X293722Y231996D01*
X295237Y231756D01*
X296696Y231282D01*
X298063Y230585D01*
X299304Y229684D01*
X300389Y228599D01*
X301290Y227358D01*
X301987Y225991D01*
X302461Y224532D01*
X302489Y224352D01*
X287852Y224352D01*
G37*
%LPD*%
%LPC*%
G36*
X211652Y198952D02*
X211652Y198952D01*
X211652Y206596D01*
X217522Y206596D01*
X219037Y206356D01*
X220496Y205882D01*
X221863Y205185D01*
X223104Y204284D01*
X224189Y203199D01*
X225090Y201958D01*
X225787Y200591D01*
X226261Y199132D01*
X226289Y198952D01*
X211652Y198952D01*
G37*
%LPD*%
%LPC*%
G36*
X269011Y224352D02*
X269011Y224352D01*
X269039Y224532D01*
X269513Y225991D01*
X270210Y227358D01*
X271111Y228599D01*
X272196Y229684D01*
X273437Y230585D01*
X274804Y231282D01*
X276263Y231756D01*
X277778Y231996D01*
X283648Y231996D01*
X283648Y224352D01*
X269011Y224352D01*
G37*
%LPD*%
%LPC*%
G36*
X192811Y198952D02*
X192811Y198952D01*
X192839Y199132D01*
X193313Y200591D01*
X194010Y201958D01*
X194911Y203199D01*
X195996Y204284D01*
X197237Y205185D01*
X198604Y205882D01*
X200063Y206356D01*
X201578Y206596D01*
X207448Y206596D01*
X207448Y198952D01*
X192811Y198952D01*
G37*
%LPD*%
%LPC*%
G36*
X211652Y187104D02*
X211652Y187104D01*
X211652Y194748D01*
X226289Y194748D01*
X226261Y194568D01*
X225787Y193109D01*
X225090Y191742D01*
X224189Y190501D01*
X223104Y189416D01*
X221863Y188515D01*
X220496Y187818D01*
X219037Y187344D01*
X217522Y187104D01*
X211652Y187104D01*
G37*
%LPD*%
%LPC*%
G36*
X287852Y212504D02*
X287852Y212504D01*
X287852Y220148D01*
X302489Y220148D01*
X302461Y219968D01*
X301987Y218509D01*
X301290Y217142D01*
X300389Y215901D01*
X299304Y214816D01*
X298063Y213915D01*
X296696Y213218D01*
X295237Y212744D01*
X293722Y212504D01*
X287852Y212504D01*
G37*
%LPD*%
%LPC*%
G36*
X277778Y212504D02*
X277778Y212504D01*
X276263Y212744D01*
X274804Y213218D01*
X273437Y213915D01*
X272196Y214816D01*
X271111Y215901D01*
X270210Y217142D01*
X269513Y218509D01*
X269039Y219968D01*
X269011Y220148D01*
X283648Y220148D01*
X283648Y212504D01*
X277778Y212504D01*
G37*
%LPD*%
%LPC*%
G36*
X201578Y187104D02*
X201578Y187104D01*
X200063Y187344D01*
X198604Y187818D01*
X197237Y188515D01*
X195996Y189416D01*
X194911Y190501D01*
X194010Y191742D01*
X193313Y193109D01*
X192839Y194568D01*
X192811Y194748D01*
X207448Y194748D01*
X207448Y187104D01*
X201578Y187104D01*
G37*
%LPD*%
%LPC*%
G36*
X281431Y452881D02*
X281431Y452881D01*
X281431Y459995D01*
X286724Y459995D01*
X288145Y459770D01*
X289514Y459325D01*
X290797Y458671D01*
X291961Y457825D01*
X292979Y456807D01*
X293825Y455643D01*
X294479Y454360D01*
X294924Y452991D01*
X294941Y452881D01*
X281431Y452881D01*
G37*
%LPD*%
%LPC*%
G36*
X224281Y452881D02*
X224281Y452881D01*
X224281Y459995D01*
X229574Y459995D01*
X230995Y459770D01*
X232364Y459325D01*
X233647Y458671D01*
X234811Y457825D01*
X235829Y456807D01*
X236675Y455643D01*
X237329Y454360D01*
X237774Y452991D01*
X237791Y452881D01*
X224281Y452881D01*
G37*
%LPD*%
%LPC*%
G36*
X521461Y253491D02*
X521461Y253491D01*
X521461Y260605D01*
X526754Y260605D01*
X528175Y260380D01*
X529544Y259935D01*
X530827Y259281D01*
X531991Y258435D01*
X533009Y257417D01*
X533855Y256253D01*
X534509Y254970D01*
X534954Y253601D01*
X534971Y253491D01*
X521461Y253491D01*
G37*
%LPD*%
%LPC*%
G36*
X263859Y452881D02*
X263859Y452881D01*
X263876Y452991D01*
X264321Y454360D01*
X264975Y455643D01*
X265821Y456807D01*
X266839Y457825D01*
X268003Y458671D01*
X269286Y459325D01*
X270655Y459770D01*
X272076Y459995D01*
X277369Y459995D01*
X277369Y452881D01*
X263859Y452881D01*
G37*
%LPD*%
%LPC*%
G36*
X206709Y452881D02*
X206709Y452881D01*
X206726Y452991D01*
X207171Y454360D01*
X207825Y455643D01*
X208671Y456807D01*
X209689Y457825D01*
X210853Y458671D01*
X212136Y459325D01*
X213505Y459770D01*
X214926Y459995D01*
X220219Y459995D01*
X220219Y452881D01*
X206709Y452881D01*
G37*
%LPD*%
%LPC*%
G36*
X503889Y253491D02*
X503889Y253491D01*
X503906Y253601D01*
X504351Y254970D01*
X505005Y256253D01*
X505851Y257417D01*
X506869Y258435D01*
X508033Y259281D01*
X509316Y259935D01*
X510685Y260380D01*
X512106Y260605D01*
X517399Y260605D01*
X517399Y253491D01*
X503889Y253491D01*
G37*
%LPD*%
%LPC*%
G36*
X281431Y441705D02*
X281431Y441705D01*
X281431Y448819D01*
X294941Y448819D01*
X294924Y448709D01*
X294479Y447340D01*
X293825Y446057D01*
X292979Y444893D01*
X291961Y443875D01*
X290797Y443029D01*
X289514Y442375D01*
X288145Y441930D01*
X286724Y441705D01*
X281431Y441705D01*
G37*
%LPD*%
%LPC*%
G36*
X224281Y441705D02*
X224281Y441705D01*
X224281Y448819D01*
X237791Y448819D01*
X237774Y448709D01*
X237329Y447340D01*
X236675Y446057D01*
X235829Y444893D01*
X234811Y443875D01*
X233647Y443029D01*
X232364Y442375D01*
X230995Y441930D01*
X229574Y441705D01*
X224281Y441705D01*
G37*
%LPD*%
%LPC*%
G36*
X521461Y242315D02*
X521461Y242315D01*
X521461Y249429D01*
X534971Y249429D01*
X534954Y249319D01*
X534509Y247950D01*
X533855Y246667D01*
X533009Y245503D01*
X531991Y244485D01*
X530827Y243639D01*
X529544Y242985D01*
X528175Y242540D01*
X526754Y242315D01*
X521461Y242315D01*
G37*
%LPD*%
%LPC*%
G36*
X214926Y441705D02*
X214926Y441705D01*
X213505Y441930D01*
X212136Y442375D01*
X210853Y443029D01*
X209689Y443875D01*
X208671Y444893D01*
X207825Y446057D01*
X207171Y447340D01*
X206726Y448709D01*
X206709Y448819D01*
X220219Y448819D01*
X220219Y441705D01*
X214926Y441705D01*
G37*
%LPD*%
%LPC*%
G36*
X512106Y242315D02*
X512106Y242315D01*
X510685Y242540D01*
X509316Y242985D01*
X508033Y243639D01*
X506869Y244485D01*
X505851Y245503D01*
X505005Y246667D01*
X504351Y247950D01*
X503906Y249319D01*
X503889Y249429D01*
X517399Y249429D01*
X517399Y242315D01*
X512106Y242315D01*
G37*
%LPD*%
%LPC*%
G36*
X272076Y441705D02*
X272076Y441705D01*
X270655Y441930D01*
X269286Y442375D01*
X268003Y443029D01*
X266839Y443875D01*
X265821Y444893D01*
X264975Y446057D01*
X264321Y447340D01*
X263876Y448709D01*
X263859Y448819D01*
X277369Y448819D01*
X277369Y441705D01*
X272076Y441705D01*
G37*
%LPD*%
%LPC*%
G36*
X72389Y46989D02*
X72389Y46989D01*
X72389Y55252D01*
X72441Y55244D01*
X74098Y54705D01*
X75650Y53915D01*
X77059Y52891D01*
X78291Y51659D01*
X79315Y50250D01*
X80105Y48698D01*
X80644Y47041D01*
X80652Y46989D01*
X72389Y46989D01*
G37*
%LPD*%
%LPC*%
G36*
X46989Y275589D02*
X46989Y275589D01*
X46989Y283852D01*
X47041Y283844D01*
X48698Y283305D01*
X50250Y282515D01*
X51659Y281491D01*
X52891Y280259D01*
X53915Y278850D01*
X54705Y277298D01*
X55244Y275641D01*
X55252Y275589D01*
X46989Y275589D01*
G37*
%LPD*%
%LPC*%
G36*
X364489Y173989D02*
X364489Y173989D01*
X364489Y182252D01*
X364541Y182244D01*
X366198Y181705D01*
X367750Y180915D01*
X369159Y179891D01*
X370391Y178659D01*
X371415Y177250D01*
X372205Y175698D01*
X372744Y174041D01*
X372752Y173989D01*
X364489Y173989D01*
G37*
%LPD*%
%LPC*%
G36*
X72389Y41911D02*
X72389Y41911D01*
X80652Y41911D01*
X80644Y41859D01*
X80105Y40202D01*
X79315Y38650D01*
X78291Y37241D01*
X77059Y36009D01*
X75650Y34985D01*
X74098Y34195D01*
X72441Y33656D01*
X72389Y33648D01*
X72389Y41911D01*
G37*
%LPD*%
%LPC*%
G36*
X46989Y270511D02*
X46989Y270511D01*
X55252Y270511D01*
X55244Y270459D01*
X54705Y268802D01*
X53915Y267250D01*
X52891Y265841D01*
X51659Y264609D01*
X50250Y263585D01*
X48698Y262795D01*
X47041Y262256D01*
X46989Y262248D01*
X46989Y270511D01*
G37*
%LPD*%
%LPC*%
G36*
X33648Y275589D02*
X33648Y275589D01*
X33656Y275641D01*
X34195Y277298D01*
X34985Y278850D01*
X36009Y280259D01*
X37241Y281491D01*
X38650Y282515D01*
X40202Y283305D01*
X41859Y283844D01*
X41911Y283852D01*
X41911Y275589D01*
X33648Y275589D01*
G37*
%LPD*%
%LPC*%
G36*
X364489Y168911D02*
X364489Y168911D01*
X372752Y168911D01*
X372744Y168859D01*
X372205Y167202D01*
X371415Y165650D01*
X370391Y164241D01*
X369159Y163009D01*
X367750Y161985D01*
X366198Y161195D01*
X364541Y160656D01*
X364489Y160648D01*
X364489Y168911D01*
G37*
%LPD*%
%LPC*%
G36*
X59048Y46989D02*
X59048Y46989D01*
X59056Y47041D01*
X59595Y48698D01*
X60385Y50250D01*
X61409Y51659D01*
X62641Y52891D01*
X64050Y53915D01*
X65602Y54705D01*
X67259Y55244D01*
X67311Y55252D01*
X67311Y46989D01*
X59048Y46989D01*
G37*
%LPD*%
%LPC*%
G36*
X351148Y173989D02*
X351148Y173989D01*
X351156Y174041D01*
X351695Y175698D01*
X352485Y177250D01*
X353509Y178659D01*
X354741Y179891D01*
X356150Y180915D01*
X357702Y181705D01*
X359359Y182244D01*
X359411Y182252D01*
X359411Y173989D01*
X351148Y173989D01*
G37*
%LPD*%
%LPC*%
G36*
X67259Y33656D02*
X67259Y33656D01*
X65602Y34195D01*
X64050Y34985D01*
X62641Y36009D01*
X61409Y37241D01*
X60385Y38650D01*
X59595Y40202D01*
X59056Y41859D01*
X59048Y41911D01*
X67311Y41911D01*
X67311Y33648D01*
X67259Y33656D01*
G37*
%LPD*%
%LPC*%
G36*
X41859Y262256D02*
X41859Y262256D01*
X40202Y262795D01*
X38650Y263585D01*
X37241Y264609D01*
X36009Y265841D01*
X34985Y267250D01*
X34195Y268802D01*
X33656Y270459D01*
X33648Y270511D01*
X41911Y270511D01*
X41911Y262248D01*
X41859Y262256D01*
G37*
%LPD*%
%LPC*%
G36*
X359359Y160656D02*
X359359Y160656D01*
X357702Y161195D01*
X356150Y161985D01*
X354741Y163009D01*
X353509Y164241D01*
X352485Y165650D01*
X351695Y167202D01*
X351156Y168859D01*
X351148Y168911D01*
X359411Y168911D01*
X359411Y160648D01*
X359359Y160656D01*
G37*
%LPD*%
%LPC*%
G36*
X618489Y288289D02*
X618489Y288289D01*
X618489Y296407D01*
X618508Y296404D01*
X620143Y295873D01*
X621675Y295092D01*
X623066Y294081D01*
X624281Y292866D01*
X625292Y291475D01*
X626073Y289943D01*
X626604Y288308D01*
X626607Y288289D01*
X618489Y288289D01*
G37*
%LPD*%
%LPC*%
G36*
X605293Y288289D02*
X605293Y288289D01*
X605296Y288308D01*
X605827Y289943D01*
X606608Y291475D01*
X607619Y292866D01*
X608834Y294081D01*
X610225Y295092D01*
X611757Y295873D01*
X613392Y296404D01*
X613411Y296407D01*
X613411Y288289D01*
X605293Y288289D01*
G37*
%LPD*%
%LPC*%
G36*
X618489Y283211D02*
X618489Y283211D01*
X626607Y283211D01*
X626604Y283192D01*
X626073Y281557D01*
X625292Y280025D01*
X624281Y278634D01*
X623066Y277419D01*
X621675Y276408D01*
X620143Y275627D01*
X618508Y275096D01*
X618489Y275093D01*
X618489Y283211D01*
G37*
%LPD*%
%LPC*%
G36*
X613392Y275096D02*
X613392Y275096D01*
X611757Y275627D01*
X610225Y276408D01*
X610154Y276460D01*
X608834Y277419D01*
X607619Y278634D01*
X606608Y280025D01*
X605827Y281557D01*
X605296Y283192D01*
X605293Y283211D01*
X613411Y283211D01*
X613411Y275093D01*
X613392Y275096D01*
G37*
%LPD*%
%LPC*%
G36*
X554481Y329691D02*
X554481Y329691D01*
X554481Y336805D01*
X556238Y336805D01*
X561595Y331448D01*
X561595Y329691D01*
X554481Y329691D01*
G37*
%LPD*%
%LPC*%
G36*
X751331Y268731D02*
X751331Y268731D01*
X751331Y275845D01*
X753088Y275845D01*
X758445Y270488D01*
X758445Y268731D01*
X751331Y268731D01*
G37*
%LPD*%
%LPC*%
G36*
X751331Y103631D02*
X751331Y103631D01*
X751331Y110745D01*
X753088Y110745D01*
X758445Y105388D01*
X758445Y103631D01*
X751331Y103631D01*
G37*
%LPD*%
%LPC*%
G36*
X725931Y103631D02*
X725931Y103631D01*
X725931Y110745D01*
X727688Y110745D01*
X733045Y105388D01*
X733045Y103631D01*
X725931Y103631D01*
G37*
%LPD*%
%LPC*%
G36*
X390651Y202691D02*
X390651Y202691D01*
X390651Y209805D01*
X392408Y209805D01*
X397765Y204448D01*
X397765Y202691D01*
X390651Y202691D01*
G37*
%LPD*%
%LPC*%
G36*
X554481Y304291D02*
X554481Y304291D01*
X554481Y311405D01*
X556238Y311405D01*
X561595Y306048D01*
X561595Y304291D01*
X554481Y304291D01*
G37*
%LPD*%
%LPC*%
G36*
X366521Y304291D02*
X366521Y304291D01*
X366521Y311405D01*
X368278Y311405D01*
X373635Y306048D01*
X373635Y304291D01*
X366521Y304291D01*
G37*
%LPD*%
%LPC*%
G36*
X485901Y47751D02*
X485901Y47751D01*
X485901Y54865D01*
X487658Y54865D01*
X493015Y49508D01*
X493015Y47751D01*
X485901Y47751D01*
G37*
%LPD*%
%LPC*%
G36*
X341121Y304291D02*
X341121Y304291D01*
X341121Y311405D01*
X342878Y311405D01*
X348235Y306048D01*
X348235Y304291D01*
X341121Y304291D01*
G37*
%LPD*%
%LPC*%
G36*
X167131Y198881D02*
X167131Y198881D01*
X167131Y205995D01*
X168888Y205995D01*
X174245Y200638D01*
X174245Y198881D01*
X167131Y198881D01*
G37*
%LPD*%
%LPC*%
G36*
X649731Y103631D02*
X649731Y103631D01*
X649731Y110745D01*
X651488Y110745D01*
X656845Y105388D01*
X656845Y103631D01*
X649731Y103631D01*
G37*
%LPD*%
%LPC*%
G36*
X390651Y177291D02*
X390651Y177291D01*
X390651Y184405D01*
X392408Y184405D01*
X397765Y179048D01*
X397765Y177291D01*
X390651Y177291D01*
G37*
%LPD*%
%LPC*%
G36*
X543305Y329691D02*
X543305Y329691D01*
X543305Y331448D01*
X548662Y336805D01*
X550419Y336805D01*
X550419Y329691D01*
X543305Y329691D01*
G37*
%LPD*%
%LPC*%
G36*
X714755Y103631D02*
X714755Y103631D01*
X714755Y105388D01*
X720112Y110745D01*
X721869Y110745D01*
X721869Y103631D01*
X714755Y103631D01*
G37*
%LPD*%
%LPC*%
G36*
X355345Y304291D02*
X355345Y304291D01*
X355345Y306048D01*
X360702Y311405D01*
X362459Y311405D01*
X362459Y304291D01*
X355345Y304291D01*
G37*
%LPD*%
%LPC*%
G36*
X543305Y304291D02*
X543305Y304291D01*
X543305Y306048D01*
X548662Y311405D01*
X550419Y311405D01*
X550419Y304291D01*
X543305Y304291D01*
G37*
%LPD*%
%LPC*%
G36*
X638555Y103631D02*
X638555Y103631D01*
X638555Y105388D01*
X643912Y110745D01*
X645669Y110745D01*
X645669Y103631D01*
X638555Y103631D01*
G37*
%LPD*%
%LPC*%
G36*
X155955Y198881D02*
X155955Y198881D01*
X155955Y200638D01*
X161312Y205995D01*
X163069Y205995D01*
X163069Y198881D01*
X155955Y198881D01*
G37*
%LPD*%
%LPC*%
G36*
X740155Y268731D02*
X740155Y268731D01*
X740155Y270488D01*
X745512Y275845D01*
X747269Y275845D01*
X747269Y268731D01*
X740155Y268731D01*
G37*
%LPD*%
%LPC*%
G36*
X379475Y177291D02*
X379475Y177291D01*
X379475Y179048D01*
X384832Y184405D01*
X386589Y184405D01*
X386589Y177291D01*
X379475Y177291D01*
G37*
%LPD*%
%LPC*%
G36*
X379475Y202691D02*
X379475Y202691D01*
X379475Y204448D01*
X384832Y209805D01*
X386589Y209805D01*
X386589Y202691D01*
X379475Y202691D01*
G37*
%LPD*%
%LPC*%
G36*
X474725Y47751D02*
X474725Y47751D01*
X474725Y49508D01*
X480082Y54865D01*
X481839Y54865D01*
X481839Y47751D01*
X474725Y47751D01*
G37*
%LPD*%
%LPC*%
G36*
X329945Y304291D02*
X329945Y304291D01*
X329945Y306048D01*
X335302Y311405D01*
X337059Y311405D01*
X337059Y304291D01*
X329945Y304291D01*
G37*
%LPD*%
%LPC*%
G36*
X740155Y103631D02*
X740155Y103631D01*
X740155Y105388D01*
X745512Y110745D01*
X747269Y110745D01*
X747269Y103631D01*
X740155Y103631D01*
G37*
%LPD*%
%LPC*%
G36*
X554481Y318515D02*
X554481Y318515D01*
X554481Y325629D01*
X561595Y325629D01*
X561595Y323872D01*
X556238Y318515D01*
X554481Y318515D01*
G37*
%LPD*%
%LPC*%
G36*
X167131Y187705D02*
X167131Y187705D01*
X167131Y194819D01*
X174245Y194819D01*
X174245Y193062D01*
X168888Y187705D01*
X167131Y187705D01*
G37*
%LPD*%
%LPC*%
G36*
X390651Y191515D02*
X390651Y191515D01*
X390651Y198629D01*
X397765Y198629D01*
X397765Y196872D01*
X392408Y191515D01*
X390651Y191515D01*
G37*
%LPD*%
%LPC*%
G36*
X751331Y257555D02*
X751331Y257555D01*
X751331Y264669D01*
X758445Y264669D01*
X758445Y262912D01*
X753088Y257555D01*
X751331Y257555D01*
G37*
%LPD*%
%LPC*%
G36*
X751331Y92455D02*
X751331Y92455D01*
X751331Y99569D01*
X758445Y99569D01*
X758445Y97812D01*
X753088Y92455D01*
X751331Y92455D01*
G37*
%LPD*%
%LPC*%
G36*
X725931Y92455D02*
X725931Y92455D01*
X725931Y99569D01*
X733045Y99569D01*
X733045Y97812D01*
X727688Y92455D01*
X725931Y92455D01*
G37*
%LPD*%
%LPC*%
G36*
X649731Y92455D02*
X649731Y92455D01*
X649731Y99569D01*
X656845Y99569D01*
X656845Y97812D01*
X651488Y92455D01*
X649731Y92455D01*
G37*
%LPD*%
%LPC*%
G36*
X390651Y166115D02*
X390651Y166115D01*
X390651Y173229D01*
X397765Y173229D01*
X397765Y171472D01*
X392408Y166115D01*
X390651Y166115D01*
G37*
%LPD*%
%LPC*%
G36*
X341121Y293115D02*
X341121Y293115D01*
X341121Y300229D01*
X348235Y300229D01*
X348235Y298472D01*
X342878Y293115D01*
X341121Y293115D01*
G37*
%LPD*%
%LPC*%
G36*
X554481Y293115D02*
X554481Y293115D01*
X554481Y300229D01*
X561595Y300229D01*
X561595Y298472D01*
X556238Y293115D01*
X554481Y293115D01*
G37*
%LPD*%
%LPC*%
G36*
X366521Y293115D02*
X366521Y293115D01*
X366521Y300229D01*
X373635Y300229D01*
X373635Y298472D01*
X368278Y293115D01*
X366521Y293115D01*
G37*
%LPD*%
%LPC*%
G36*
X485901Y36575D02*
X485901Y36575D01*
X485901Y43689D01*
X493015Y43689D01*
X493015Y41932D01*
X487658Y36575D01*
X485901Y36575D01*
G37*
%LPD*%
%LPC*%
G36*
X161312Y187705D02*
X161312Y187705D01*
X155955Y193062D01*
X155955Y194819D01*
X163069Y194819D01*
X163069Y187705D01*
X161312Y187705D01*
G37*
%LPD*%
%LPC*%
G36*
X745512Y257555D02*
X745512Y257555D01*
X740155Y262912D01*
X740155Y264669D01*
X747269Y264669D01*
X747269Y257555D01*
X745512Y257555D01*
G37*
%LPD*%
%LPC*%
G36*
X720112Y92455D02*
X720112Y92455D01*
X714755Y97812D01*
X714755Y99569D01*
X721869Y99569D01*
X721869Y92455D01*
X720112Y92455D01*
G37*
%LPD*%
%LPC*%
G36*
X745512Y92455D02*
X745512Y92455D01*
X740155Y97812D01*
X740155Y99569D01*
X747269Y99569D01*
X747269Y92455D01*
X745512Y92455D01*
G37*
%LPD*%
%LPC*%
G36*
X643912Y92455D02*
X643912Y92455D01*
X638555Y97812D01*
X638555Y99569D01*
X645669Y99569D01*
X645669Y92455D01*
X643912Y92455D01*
G37*
%LPD*%
%LPC*%
G36*
X548662Y318515D02*
X548662Y318515D01*
X543305Y323872D01*
X543305Y325629D01*
X550419Y325629D01*
X550419Y318515D01*
X548662Y318515D01*
G37*
%LPD*%
%LPC*%
G36*
X384832Y191515D02*
X384832Y191515D01*
X379475Y196872D01*
X379475Y198629D01*
X386589Y198629D01*
X386589Y191515D01*
X384832Y191515D01*
G37*
%LPD*%
%LPC*%
G36*
X360702Y293115D02*
X360702Y293115D01*
X355345Y298472D01*
X355345Y300229D01*
X362459Y300229D01*
X362459Y293115D01*
X360702Y293115D01*
G37*
%LPD*%
%LPC*%
G36*
X335302Y293115D02*
X335302Y293115D01*
X329945Y298472D01*
X329945Y300229D01*
X337059Y300229D01*
X337059Y293115D01*
X335302Y293115D01*
G37*
%LPD*%
%LPC*%
G36*
X480082Y36575D02*
X480082Y36575D01*
X474725Y41932D01*
X474725Y43689D01*
X481839Y43689D01*
X481839Y36575D01*
X480082Y36575D01*
G37*
%LPD*%
%LPC*%
G36*
X384832Y166115D02*
X384832Y166115D01*
X379475Y171472D01*
X379475Y173229D01*
X386589Y173229D01*
X386589Y166115D01*
X384832Y166115D01*
G37*
%LPD*%
%LPC*%
G36*
X548662Y293115D02*
X548662Y293115D01*
X543305Y298472D01*
X543305Y300229D01*
X550419Y300229D01*
X550419Y293115D01*
X548662Y293115D01*
G37*
%LPD*%
%LPC*%
G36*
X781049Y266699D02*
X781049Y266699D01*
X781049Y266701D01*
X781051Y266701D01*
X781051Y266699D01*
X781049Y266699D01*
G37*
%LPD*%
%LPC*%
G36*
X615949Y285749D02*
X615949Y285749D01*
X615949Y285751D01*
X615951Y285751D01*
X615951Y285749D01*
X615949Y285749D01*
G37*
%LPD*%
%LPC*%
G36*
X44449Y273049D02*
X44449Y273049D01*
X44449Y273051D01*
X44451Y273051D01*
X44451Y273049D01*
X44449Y273049D01*
G37*
%LPD*%
%LPC*%
G36*
X361949Y171449D02*
X361949Y171449D01*
X361949Y171451D01*
X361951Y171451D01*
X361951Y171449D01*
X361949Y171449D01*
G37*
%LPD*%
%LPC*%
G36*
X69849Y44449D02*
X69849Y44449D01*
X69849Y44451D01*
X69851Y44451D01*
X69851Y44449D01*
X69849Y44449D01*
G37*
%LPD*%
D10*
X165100Y196850D03*
X165100Y222250D03*
D11*
X436626Y327660D02*
X449834Y327660D01*
X449834Y302260D02*
X436626Y302260D01*
X436626Y175260D02*
X449834Y175260D01*
X512826Y175260D02*
X526034Y175260D01*
X449834Y276860D02*
X436626Y276860D01*
X436626Y251460D02*
X449834Y251460D01*
X449834Y200660D02*
X436626Y200660D01*
X436626Y226060D02*
X449834Y226060D01*
X512826Y200660D02*
X526034Y200660D01*
X526034Y226060D02*
X512826Y226060D01*
X512826Y251460D02*
X526034Y251460D01*
X526034Y276860D02*
X512826Y276860D01*
X512826Y302260D02*
X526034Y302260D01*
X526034Y327660D02*
X512826Y327660D01*
D12*
X772859Y127000D02*
X789242Y127000D01*
X789242Y152400D02*
X772859Y152400D01*
D10*
X749300Y152400D03*
X749300Y177800D03*
X749300Y101600D03*
X749300Y127000D03*
X673100Y127000D03*
X673100Y152400D03*
X647700Y152400D03*
X647700Y177800D03*
X647700Y101600D03*
X647700Y127000D03*
X388620Y200660D03*
X388620Y226060D03*
D13*
X388620Y175260D03*
X388620Y149860D03*
D14*
X552450Y327660D03*
X577850Y327660D03*
X552450Y302260D03*
X577850Y302260D03*
D13*
X339090Y302260D03*
X339090Y276860D03*
X364490Y302260D03*
X364490Y276860D03*
D15*
X44450Y171450D03*
X44450Y146050D03*
X44450Y120650D03*
X44450Y95250D03*
X44450Y69850D03*
X44450Y44450D03*
X69850Y44450D03*
X69850Y69850D03*
X69850Y95250D03*
X69850Y120650D03*
X69850Y146050D03*
X69850Y171450D03*
D12*
X772859Y241300D02*
X789242Y241300D01*
X789242Y266700D02*
X772859Y266700D01*
D16*
X415290Y327660D03*
X389890Y327660D03*
D13*
X414020Y226060D03*
X414020Y200660D03*
D10*
X388620Y251460D03*
X388620Y276860D03*
D14*
X527050Y355600D03*
X552450Y355600D03*
X552450Y276860D03*
X577850Y276860D03*
D13*
X552450Y200660D03*
X552450Y175260D03*
X749300Y266700D03*
X749300Y241300D03*
D16*
X483870Y147320D03*
X458470Y147320D03*
X483870Y121920D03*
X458470Y121920D03*
X483870Y96520D03*
X458470Y96520D03*
X483870Y71120D03*
X458470Y71120D03*
X483870Y45720D03*
X458470Y45720D03*
D10*
X723900Y152400D03*
X723900Y177800D03*
X723900Y101600D03*
X723900Y127000D03*
D13*
X698500Y127000D03*
X698500Y101600D03*
D10*
X698500Y152400D03*
X698500Y177800D03*
D13*
X414020Y175260D03*
X414020Y149860D03*
D11*
X228854Y450850D02*
X215646Y450850D01*
X215646Y425450D02*
X228854Y425450D01*
X272796Y450850D02*
X286004Y450850D01*
X286004Y425450D02*
X272796Y425450D01*
D10*
X177800Y425450D03*
X177800Y450850D03*
D17*
X202345Y374650D02*
X216755Y374650D01*
X216755Y349250D02*
X202345Y349250D01*
X202345Y323850D02*
X216755Y323850D01*
X216755Y298450D02*
X202345Y298450D01*
X202345Y273050D02*
X216755Y273050D01*
X216755Y247650D02*
X202345Y247650D01*
X202345Y222250D02*
X216755Y222250D01*
X216755Y196850D02*
X202345Y196850D01*
X202345Y171450D02*
X216755Y171450D01*
X216755Y146050D02*
X202345Y146050D01*
X202345Y120650D02*
X216755Y120650D01*
X216755Y95250D02*
X202345Y95250D01*
X202345Y69850D02*
X216755Y69850D01*
X216755Y44450D02*
X202345Y44450D01*
X278545Y44450D02*
X292955Y44450D01*
X292955Y69850D02*
X278545Y69850D01*
X278545Y95250D02*
X292955Y95250D01*
X292955Y120650D02*
X278545Y120650D01*
X278545Y146050D02*
X292955Y146050D01*
X292955Y171450D02*
X278545Y171450D01*
X278545Y196850D02*
X292955Y196850D01*
X292955Y222250D02*
X278545Y222250D01*
X278545Y247650D02*
X292955Y247650D01*
X292955Y273050D02*
X278545Y273050D01*
X278545Y298450D02*
X292955Y298450D01*
X292955Y323850D02*
X278545Y323850D01*
X278545Y349250D02*
X292955Y349250D01*
X292955Y374650D02*
X278545Y374650D01*
D15*
X44450Y273050D03*
X44450Y298450D03*
X44450Y323850D03*
X44450Y349250D03*
X44450Y374650D03*
X361950Y120650D03*
X361950Y146050D03*
X361950Y171450D03*
X336550Y171450D03*
X336550Y146050D03*
X336550Y120650D03*
D14*
X76200Y374650D03*
X101600Y374650D03*
D16*
X146050Y374650D03*
X120650Y374650D03*
D13*
X323850Y450850D03*
X323850Y425450D03*
D18*
X615950Y285750D03*
X717550Y285750D03*
X717550Y241300D03*
X615950Y241300D03*
D19*
X184150Y298450D02*
X69850Y184150D01*
X69850Y171450D01*
X184150Y298450D02*
X209550Y298450D01*
D20*
X615950Y241300D02*
X615950Y209550D01*
X647700Y177800D01*
D19*
X481330Y270510D02*
X449580Y302260D01*
X443230Y302260D01*
X481330Y205740D02*
X511810Y175260D01*
X519430Y175260D01*
X481330Y205740D02*
X481330Y270510D01*
D21*
X83682Y151300D03*
D19*
X83682Y155571D01*
X85598Y157487D01*
X85598Y191277D01*
X153401Y259080D01*
X238452Y259080D02*
X249868Y247664D01*
D21*
X249868Y247664D03*
D19*
X238452Y259080D02*
X153401Y259080D01*
X82550Y158750D02*
X69850Y146050D01*
X82550Y158750D02*
X82550Y192539D01*
X152300Y262289D01*
X245457Y262289D02*
X249868Y266700D01*
D21*
X249868Y266700D03*
D19*
X245457Y262289D02*
X152300Y262289D01*
D21*
X117066Y88900D03*
D19*
X78790Y88900D02*
X74328Y84439D01*
X78790Y88900D02*
X117066Y88900D01*
X59039Y84439D02*
X44450Y69850D01*
X59039Y84439D02*
X74328Y84439D01*
D21*
X108526Y103406D03*
D19*
X80470Y131462D01*
X59039Y131462D02*
X44450Y146050D01*
X59039Y131462D02*
X80470Y131462D01*
X209550Y69850D02*
X255936Y116236D01*
X255936Y273437D02*
X235616Y293757D01*
X235616Y295027D01*
X255936Y273437D02*
X255936Y116236D01*
D21*
X235616Y295027D03*
X229548Y301811D03*
D19*
X238130Y301095D02*
X241684Y297541D01*
X241684Y292986D01*
X230264Y301095D02*
X229548Y301811D01*
X230264Y301095D02*
X238130Y301095D01*
X241684Y292986D02*
X274320Y260350D01*
X298450Y260350D01*
X336550Y222250D01*
X336550Y171450D01*
M02*
