M48
;GenerationSoftware,Autodesk,EAGLE,9.6.1*%
;CreationDate,2020-05-21T18:57:22Z*%
FMAT,2
ICI,OFF
METRIC,TZ,000.000
T6C0.350
T5C0.813
T4C0.841
T3C1.092
T2C1.105
T1C1.118
%
G90
M71
T1
X71755Y28575
X61595Y28575
X61595Y24130
X71755Y24130
T2
X6985Y6985
X33655Y14605
X33655Y12065
X6985Y4445
X36195Y17145
X4445Y27305
X4445Y29845
X4445Y17145
X6985Y9525
X6985Y12065
X6985Y14605
X6985Y17145
X4445Y34925
X4445Y37465
X36195Y12065
X4445Y14605
X4445Y12065
X4445Y9525
X4445Y32385
X36195Y14605
X4445Y6985
X4445Y4445
X33655Y17145
T3
X78105Y24130
X78105Y26670
X78105Y15240
X78105Y12700
T4
X20955Y22225
X20955Y24765
X20955Y27305
X20955Y29845
X20955Y32385
X20955Y34925
X20955Y37465
X20955Y19685
X20955Y17145
X28575Y27305
X28575Y29845
X28575Y32385
X28575Y34925
X20955Y4445
X28575Y4445
X28575Y6985
X28575Y9525
X28575Y12065
X28575Y14605
X28575Y17145
X28575Y37465
X28575Y19685
X28575Y22225
X28575Y24765
X20955Y9525
X20955Y12065
X20955Y14605
X20955Y6985
T5
X36449Y30226
X36449Y27686
X41529Y32766
X38989Y32766
X41402Y22606
X41402Y20066
X38862Y25146
X38862Y27686
X52705Y35560
X55245Y35560
X55245Y27686
X57785Y27686
X55245Y20066
X55245Y17526
X74930Y26670
X74930Y24130
X38862Y22606
X45847Y14732
X48387Y12192
X45847Y12192
X48387Y9652
X45847Y9652
X48387Y7112
X45847Y7112
X48387Y4572
X45847Y4572
X72390Y15240
X72390Y17780
X72390Y10160
X72390Y12700
X69850Y12700
X69850Y10160
X69850Y15240
X69850Y17780
X41402Y17526
X41402Y14986
X22225Y45085
X22225Y42545
X27940Y45085
X27940Y42545
X17780Y42545
X17780Y45085
X51943Y22606
X16510Y19685
X16510Y22225
X44323Y32766
X44323Y30226
X44323Y17526
X51943Y17526
X44323Y27686
X44323Y25146
X44323Y20066
X44323Y22606
X51943Y20066
X51943Y25146
X51943Y27686
X51943Y30226
X51943Y32766
X74930Y15240
X74930Y17780
X74930Y10160
X74930Y12700
X67310Y12700
X67310Y15240
X64770Y15240
X48387Y14732
X64770Y17780
X64770Y10160
X64770Y12700
X38862Y20066
X38862Y17526
X38862Y14986
X55245Y32766
X57785Y32766
X7620Y37465
X10160Y37465
X14605Y37465
X12065Y37465
X32385Y45085
X32385Y42545
X55245Y30226
X57785Y30226
X33909Y30226
X33909Y27686
T6
X8368Y15130
X22955Y30181
X23562Y29503
X10853Y10341
X11707Y8890
X24987Y26670
X24987Y24766
M30