G04 EAGLE Gerber RS-274X export*
G75*
%MOMM*%
%FSLAX34Y34*%
%LPD*%
%IN*%
%IPPOS*%
%AMOC8*
5,1,8,0,0,1.08239X$1,22.5*%
G01*
%ADD10C,0.000000*%
%ADD11C,0.254000*%


D10*
X0Y25400D02*
X7Y24786D01*
X30Y24173D01*
X67Y23560D01*
X119Y22949D01*
X185Y22338D01*
X267Y21730D01*
X363Y21124D01*
X473Y20520D01*
X598Y19919D01*
X738Y19321D01*
X892Y18727D01*
X1061Y18137D01*
X1243Y17551D01*
X1440Y16970D01*
X1651Y16393D01*
X1875Y15822D01*
X2113Y15256D01*
X2365Y14696D01*
X2631Y14143D01*
X2909Y13596D01*
X3201Y13056D01*
X3506Y12523D01*
X3824Y11998D01*
X4154Y11480D01*
X4496Y10971D01*
X4851Y10470D01*
X5218Y9978D01*
X5596Y9495D01*
X5986Y9021D01*
X6388Y8557D01*
X6800Y8102D01*
X7224Y7658D01*
X7658Y7224D01*
X8102Y6800D01*
X8557Y6388D01*
X9021Y5986D01*
X9495Y5596D01*
X9978Y5218D01*
X10470Y4851D01*
X10971Y4496D01*
X11480Y4154D01*
X11998Y3824D01*
X12523Y3506D01*
X13056Y3201D01*
X13596Y2909D01*
X14143Y2631D01*
X14696Y2365D01*
X15256Y2113D01*
X15822Y1875D01*
X16393Y1651D01*
X16970Y1440D01*
X17551Y1243D01*
X18137Y1061D01*
X18727Y892D01*
X19321Y738D01*
X19919Y598D01*
X20520Y473D01*
X21124Y363D01*
X21730Y267D01*
X22338Y185D01*
X22949Y119D01*
X23560Y67D01*
X24173Y30D01*
X24786Y7D01*
X25400Y0D01*
X863600Y0D01*
X864214Y7D01*
X864827Y30D01*
X865440Y67D01*
X866051Y119D01*
X866662Y185D01*
X867270Y267D01*
X867876Y363D01*
X868480Y473D01*
X869081Y598D01*
X869679Y738D01*
X870273Y892D01*
X870863Y1061D01*
X871449Y1243D01*
X872030Y1440D01*
X872607Y1651D01*
X873178Y1875D01*
X873744Y2113D01*
X874304Y2365D01*
X874857Y2631D01*
X875404Y2909D01*
X875944Y3201D01*
X876477Y3506D01*
X877002Y3824D01*
X877520Y4154D01*
X878029Y4496D01*
X878530Y4851D01*
X879022Y5218D01*
X879505Y5596D01*
X879979Y5986D01*
X880443Y6388D01*
X880898Y6800D01*
X881342Y7224D01*
X881776Y7658D01*
X882200Y8102D01*
X882612Y8557D01*
X883014Y9021D01*
X883404Y9495D01*
X883782Y9978D01*
X884149Y10470D01*
X884504Y10971D01*
X884846Y11480D01*
X885176Y11998D01*
X885494Y12523D01*
X885799Y13056D01*
X886091Y13596D01*
X886369Y14143D01*
X886635Y14696D01*
X886887Y15256D01*
X887125Y15822D01*
X887349Y16393D01*
X887560Y16970D01*
X887757Y17551D01*
X887939Y18137D01*
X888108Y18727D01*
X888262Y19321D01*
X888402Y19919D01*
X888527Y20520D01*
X888637Y21124D01*
X888733Y21730D01*
X888815Y22338D01*
X888881Y22949D01*
X888933Y23560D01*
X888970Y24173D01*
X888993Y24786D01*
X889000Y25400D01*
X889000Y469900D01*
X888993Y470514D01*
X888970Y471127D01*
X888933Y471740D01*
X888881Y472351D01*
X888815Y472962D01*
X888733Y473570D01*
X888637Y474176D01*
X888527Y474780D01*
X888402Y475381D01*
X888262Y475979D01*
X888108Y476573D01*
X887939Y477163D01*
X887757Y477749D01*
X887560Y478330D01*
X887349Y478907D01*
X887125Y479478D01*
X886887Y480044D01*
X886635Y480604D01*
X886369Y481157D01*
X886091Y481704D01*
X885799Y482244D01*
X885494Y482777D01*
X885176Y483302D01*
X884846Y483820D01*
X884504Y484329D01*
X884149Y484830D01*
X883782Y485322D01*
X883404Y485805D01*
X883014Y486279D01*
X882612Y486743D01*
X882200Y487198D01*
X881776Y487642D01*
X881342Y488076D01*
X880898Y488500D01*
X880443Y488912D01*
X879979Y489314D01*
X879505Y489704D01*
X879022Y490082D01*
X878530Y490449D01*
X878029Y490804D01*
X877520Y491146D01*
X877002Y491476D01*
X876477Y491794D01*
X875944Y492099D01*
X875404Y492391D01*
X874857Y492669D01*
X874304Y492935D01*
X873744Y493187D01*
X873178Y493425D01*
X872607Y493649D01*
X872030Y493860D01*
X871449Y494057D01*
X870863Y494239D01*
X870273Y494408D01*
X869679Y494562D01*
X869081Y494702D01*
X868480Y494827D01*
X867876Y494937D01*
X867270Y495033D01*
X866662Y495115D01*
X866051Y495181D01*
X865440Y495233D01*
X864827Y495270D01*
X864214Y495293D01*
X863600Y495300D01*
X25400Y495300D01*
X24786Y495293D01*
X24173Y495270D01*
X23560Y495233D01*
X22949Y495181D01*
X22338Y495115D01*
X21730Y495033D01*
X21124Y494937D01*
X20520Y494827D01*
X19919Y494702D01*
X19321Y494562D01*
X18727Y494408D01*
X18137Y494239D01*
X17551Y494057D01*
X16970Y493860D01*
X16393Y493649D01*
X15822Y493425D01*
X15256Y493187D01*
X14696Y492935D01*
X14143Y492669D01*
X13596Y492391D01*
X13056Y492099D01*
X12523Y491794D01*
X11998Y491476D01*
X11480Y491146D01*
X10971Y490804D01*
X10470Y490449D01*
X9978Y490082D01*
X9495Y489704D01*
X9021Y489314D01*
X8557Y488912D01*
X8102Y488500D01*
X7658Y488076D01*
X7224Y487642D01*
X6800Y487198D01*
X6388Y486743D01*
X5986Y486279D01*
X5596Y485805D01*
X5218Y485322D01*
X4851Y484830D01*
X4496Y484329D01*
X4154Y483820D01*
X3824Y483302D01*
X3506Y482777D01*
X3201Y482244D01*
X2909Y481704D01*
X2631Y481157D01*
X2365Y480604D01*
X2113Y480044D01*
X1875Y479478D01*
X1651Y478907D01*
X1440Y478330D01*
X1243Y477749D01*
X1061Y477163D01*
X892Y476573D01*
X738Y475979D01*
X598Y475381D01*
X473Y474780D01*
X363Y474176D01*
X267Y473570D01*
X185Y472962D01*
X119Y472351D01*
X67Y471740D01*
X30Y471127D01*
X7Y470514D01*
X0Y469900D01*
X0Y25400D01*
D11*
X0Y25400D02*
X97Y23186D01*
X386Y20989D01*
X865Y18826D01*
X1532Y16713D01*
X2380Y14666D01*
X3403Y12700D01*
X4594Y10831D01*
X5942Y9073D01*
X7440Y7440D01*
X9073Y5942D01*
X10831Y4594D01*
X12700Y3403D01*
X14666Y2380D01*
X16713Y1532D01*
X18826Y865D01*
X20989Y386D01*
X23186Y97D01*
X25400Y0D01*
X863600Y0D01*
X865814Y97D01*
X868011Y386D01*
X870174Y865D01*
X872287Y1532D01*
X874335Y2380D01*
X876300Y3403D01*
X878169Y4594D01*
X879927Y5942D01*
X881561Y7440D01*
X883058Y9073D01*
X884406Y10831D01*
X885597Y12700D01*
X886620Y14666D01*
X887468Y16713D01*
X888135Y18826D01*
X888614Y20989D01*
X888903Y23186D01*
X889000Y25400D01*
X889000Y469900D01*
X888903Y472114D01*
X888614Y474311D01*
X888135Y476474D01*
X887468Y478587D01*
X886620Y480635D01*
X885597Y482600D01*
X884406Y484469D01*
X883058Y486227D01*
X881561Y487861D01*
X879927Y489358D01*
X878169Y490706D01*
X876300Y491897D01*
X874335Y492920D01*
X872287Y493768D01*
X870174Y494435D01*
X868011Y494914D01*
X865814Y495203D01*
X863600Y495300D01*
X25400Y495300D01*
X23186Y495203D01*
X20989Y494914D01*
X18826Y494435D01*
X16713Y493768D01*
X14666Y492920D01*
X12700Y491897D01*
X10831Y490706D01*
X9073Y489358D01*
X7440Y487861D01*
X5942Y486227D01*
X4594Y484469D01*
X3403Y482600D01*
X2380Y480635D01*
X1532Y478587D01*
X865Y476474D01*
X386Y474311D01*
X97Y472114D01*
X0Y469900D01*
X0Y25400D01*
M02*
