G04 EAGLE Gerber RS-274X export*
G75*
%MOMM*%
%FSLAX34Y34*%
%LPD*%
%INSoldermask Top*%
%IPPOS*%
%AMOC8*
5,1,8,0,0,1.08239X$1,22.5*%
G01*
%ADD10P,1.649562X8X112.500000*%
%ADD11C,1.524000*%
%ADD12C,1.841500*%
%ADD13P,1.649562X8X292.500000*%
%ADD14P,1.649562X8X22.500000*%
%ADD15C,1.908300*%
%ADD16P,1.649562X8X202.500000*%
%ADD17C,1.644200*%
%ADD18C,1.879600*%

G36*
X641177Y358131D02*
X641177Y358131D01*
X641184Y358130D01*
X642235Y358157D01*
X642241Y358158D01*
X642249Y358158D01*
X643293Y358212D01*
X644289Y358264D01*
X644294Y358265D01*
X644301Y358265D01*
X645289Y358341D01*
X645294Y358342D01*
X645301Y358342D01*
X646283Y358442D01*
X647375Y358552D01*
X647381Y358554D01*
X647389Y358554D01*
X648473Y358695D01*
X648479Y358697D01*
X648486Y358697D01*
X649560Y358866D01*
X650733Y359050D01*
X650739Y359053D01*
X650748Y359053D01*
X651910Y359272D01*
X651916Y359275D01*
X651924Y359275D01*
X653073Y359527D01*
X653074Y359527D01*
X654269Y359789D01*
X654276Y359792D01*
X654284Y359793D01*
X655467Y360091D01*
X655474Y360094D01*
X655482Y360095D01*
X656651Y360427D01*
X657730Y360734D01*
X657736Y360737D01*
X657744Y360739D01*
X658810Y361076D01*
X658816Y361079D01*
X658823Y361080D01*
X659877Y361445D01*
X659877Y361446D01*
X660900Y361801D01*
X660905Y361804D01*
X660913Y361806D01*
X661923Y362187D01*
X661928Y362190D01*
X661936Y362192D01*
X662934Y362601D01*
X663868Y362983D01*
X663872Y362986D01*
X663880Y362988D01*
X664801Y363393D01*
X664806Y363397D01*
X664813Y363399D01*
X665722Y363828D01*
X666772Y364322D01*
X666778Y364326D01*
X666785Y364328D01*
X667820Y364851D01*
X667825Y364855D01*
X667833Y364858D01*
X668849Y365411D01*
X669853Y365956D01*
X669858Y365960D01*
X669866Y365963D01*
X670852Y366536D01*
X670856Y366541D01*
X670864Y366544D01*
X671831Y367144D01*
X672947Y367837D01*
X672953Y367842D01*
X672961Y367845D01*
X674053Y368573D01*
X674058Y368578D01*
X674066Y368582D01*
X675131Y369344D01*
X675899Y369893D01*
X675903Y369897D01*
X675909Y369900D01*
X676663Y370467D01*
X676667Y370471D01*
X676673Y370474D01*
X677413Y371059D01*
X677414Y371059D01*
X678280Y371742D01*
X678284Y371747D01*
X678291Y371751D01*
X679139Y372459D01*
X679142Y372464D01*
X679149Y372468D01*
X679976Y373198D01*
X680646Y373789D01*
X680649Y373793D01*
X680654Y373797D01*
X681311Y374402D01*
X681314Y374406D01*
X681319Y374410D01*
X681961Y375030D01*
X681962Y375030D01*
X682723Y375765D01*
X682726Y375770D01*
X682732Y375774D01*
X683474Y376530D01*
X683478Y376535D01*
X683483Y376539D01*
X684205Y377313D01*
X684764Y377912D01*
X684767Y377916D01*
X684772Y377920D01*
X685317Y378532D01*
X685320Y378535D01*
X685324Y378539D01*
X685857Y379161D01*
X686548Y379965D01*
X686551Y379970D01*
X686557Y379975D01*
X687225Y380796D01*
X687228Y380802D01*
X687234Y380807D01*
X687881Y381648D01*
X688652Y382648D01*
X688655Y382655D01*
X688661Y382661D01*
X689402Y383686D01*
X689405Y383693D01*
X689411Y383699D01*
X690118Y384748D01*
X690684Y385589D01*
X690686Y385594D01*
X690690Y385599D01*
X691236Y386454D01*
X691238Y386459D01*
X691243Y386465D01*
X691766Y387333D01*
X692323Y388257D01*
X692325Y388263D01*
X692329Y388268D01*
X692862Y389209D01*
X692864Y389214D01*
X692868Y389220D01*
X693376Y390175D01*
X693896Y391157D01*
X693898Y391163D01*
X693902Y391169D01*
X694397Y392166D01*
X694399Y392172D01*
X694403Y392179D01*
X694869Y393191D01*
X694870Y393191D01*
X695366Y394267D01*
X695368Y394274D01*
X695372Y394281D01*
X695837Y395374D01*
X695838Y395381D01*
X695842Y395388D01*
X696275Y396497D01*
X696672Y397512D01*
X696673Y397518D01*
X696676Y397525D01*
X697045Y398554D01*
X697046Y398561D01*
X697050Y398567D01*
X697391Y399609D01*
X697717Y400604D01*
X697718Y400610D01*
X697721Y400617D01*
X698022Y401623D01*
X698023Y401629D01*
X698026Y401636D01*
X698301Y402654D01*
X698546Y403565D01*
X698546Y403570D01*
X698549Y403576D01*
X698774Y404495D01*
X698774Y404501D01*
X698777Y404507D01*
X698980Y405433D01*
X699163Y406270D01*
X699163Y406275D01*
X699165Y406281D01*
X699331Y407125D01*
X699331Y407130D01*
X699333Y407135D01*
X699481Y407985D01*
X699481Y407986D01*
X699607Y408709D01*
X699606Y408713D01*
X699608Y408718D01*
X699721Y409446D01*
X699721Y409450D01*
X699722Y409455D01*
X699822Y410187D01*
X699958Y411181D01*
X699957Y411186D01*
X699959Y411193D01*
X700070Y412195D01*
X700070Y412201D01*
X700072Y412208D01*
X700157Y413216D01*
X700220Y413959D01*
X700220Y413963D01*
X700221Y413968D01*
X700271Y414715D01*
X700271Y414720D01*
X700272Y414725D01*
X700307Y415475D01*
X700353Y416435D01*
X700352Y416440D01*
X700353Y416446D01*
X700376Y417411D01*
X700375Y417417D01*
X700376Y417423D01*
X700376Y419474D01*
X700375Y419480D01*
X700376Y419487D01*
X700348Y420561D01*
X700347Y420567D01*
X700348Y420575D01*
X700291Y421642D01*
X700247Y422458D01*
X700246Y422462D01*
X700246Y422467D01*
X700187Y423279D01*
X700186Y423283D01*
X700186Y423289D01*
X700110Y424095D01*
X700024Y425018D01*
X700022Y425023D01*
X700022Y425030D01*
X699914Y425947D01*
X699913Y425952D01*
X699913Y425958D01*
X699785Y426868D01*
X699785Y426869D01*
X699593Y428229D01*
X699591Y428237D01*
X699591Y428246D01*
X699354Y429593D01*
X699351Y429600D01*
X699351Y429610D01*
X699069Y430938D01*
X699069Y430939D01*
X698862Y431918D01*
X698860Y431923D01*
X698859Y431930D01*
X698628Y432901D01*
X698626Y432907D01*
X698625Y432914D01*
X698370Y433875D01*
X698046Y435097D01*
X698043Y435104D01*
X698042Y435113D01*
X697680Y436319D01*
X697676Y436325D01*
X697675Y436334D01*
X697277Y437524D01*
X696837Y438838D01*
X696833Y438846D01*
X696831Y438855D01*
X696346Y440150D01*
X696342Y440156D01*
X696340Y440165D01*
X695814Y441437D01*
X695338Y442587D01*
X695334Y442593D01*
X695331Y442601D01*
X694821Y443733D01*
X694817Y443739D01*
X694814Y443747D01*
X694270Y444859D01*
X694270Y444860D01*
X694269Y444860D01*
X693832Y445753D01*
X693828Y445757D01*
X693826Y445764D01*
X693367Y446644D01*
X693364Y446648D01*
X693361Y446655D01*
X692881Y447522D01*
X692417Y448362D01*
X692413Y448366D01*
X692411Y448373D01*
X691927Y449201D01*
X691923Y449205D01*
X691920Y449211D01*
X691417Y450026D01*
X691416Y450026D01*
X690751Y451103D01*
X690746Y451108D01*
X690743Y451116D01*
X690045Y452169D01*
X690040Y452174D01*
X690036Y452182D01*
X689305Y453212D01*
X688442Y454429D01*
X688436Y454434D01*
X688431Y454443D01*
X687524Y455627D01*
X687518Y455632D01*
X687513Y455641D01*
X686563Y456789D01*
X686563Y456790D01*
X685873Y457623D01*
X685869Y457627D01*
X685865Y457633D01*
X685153Y458447D01*
X685148Y458451D01*
X685144Y458457D01*
X684411Y459252D01*
X683616Y460112D01*
X683610Y460116D01*
X683606Y460123D01*
X682785Y460961D01*
X682780Y460965D01*
X682775Y460971D01*
X681931Y461785D01*
X681104Y462583D01*
X681098Y462586D01*
X681093Y462592D01*
X680818Y462843D01*
X680270Y463342D01*
X680270Y463343D01*
X680269Y463343D01*
X680243Y463366D01*
X680238Y463370D01*
X680232Y463376D01*
X679360Y464125D01*
X678307Y465030D01*
X678300Y465034D01*
X678294Y465041D01*
X677207Y465911D01*
X677200Y465915D01*
X677193Y465922D01*
X676078Y466753D01*
X675271Y467353D01*
X675266Y467355D01*
X675262Y467360D01*
X674440Y467941D01*
X674434Y467944D01*
X674429Y467949D01*
X673593Y468508D01*
X672902Y468971D01*
X672897Y468973D01*
X672893Y468977D01*
X672191Y469426D01*
X672186Y469427D01*
X672182Y469431D01*
X671470Y469865D01*
X670704Y470334D01*
X670699Y470336D01*
X670694Y470340D01*
X669916Y470791D01*
X669911Y470793D01*
X669906Y470797D01*
X669117Y471230D01*
X668246Y471710D01*
X668241Y471711D01*
X668235Y471716D01*
X667350Y472174D01*
X667344Y472175D01*
X667339Y472179D01*
X666441Y472616D01*
X665720Y472967D01*
X665716Y472969D01*
X665711Y472972D01*
X664981Y473309D01*
X664976Y473310D01*
X664971Y473313D01*
X664234Y473635D01*
X664233Y473636D01*
X663432Y473985D01*
X663427Y473986D01*
X663422Y473989D01*
X662612Y474323D01*
X662608Y474324D01*
X662602Y474327D01*
X661784Y474643D01*
X660844Y475005D01*
X660839Y475006D01*
X660833Y475009D01*
X659882Y475349D01*
X659876Y475350D01*
X659869Y475353D01*
X658908Y475668D01*
X658251Y475883D01*
X658247Y475884D01*
X658243Y475886D01*
X657582Y476090D01*
X657578Y476091D01*
X657574Y476093D01*
X656908Y476286D01*
X656907Y476286D01*
X656262Y476472D01*
X656259Y476472D01*
X656255Y476474D01*
X655605Y476651D01*
X655601Y476651D01*
X655597Y476653D01*
X654943Y476819D01*
X654942Y476819D01*
X653922Y477077D01*
X653916Y477077D01*
X653909Y477080D01*
X652879Y477312D01*
X652873Y477313D01*
X652866Y477315D01*
X651826Y477520D01*
X650623Y477757D01*
X650616Y477757D01*
X650608Y477759D01*
X649393Y477960D01*
X649386Y477960D01*
X649377Y477963D01*
X648151Y478126D01*
X646986Y478281D01*
X646979Y478281D01*
X646972Y478283D01*
X645796Y478405D01*
X645789Y478404D01*
X645781Y478406D01*
X644597Y478493D01*
X643128Y478601D01*
X643120Y478600D01*
X643110Y478602D01*
X641628Y478657D01*
X641620Y478655D01*
X641609Y478657D01*
X638816Y478657D01*
X638809Y478656D01*
X638801Y478657D01*
X637514Y478616D01*
X637507Y478614D01*
X637498Y478615D01*
X636223Y478533D01*
X634948Y478453D01*
X634941Y478451D01*
X634932Y478451D01*
X633671Y478330D01*
X633664Y478328D01*
X633655Y478328D01*
X632405Y478168D01*
X631212Y478017D01*
X631205Y478014D01*
X631196Y478014D01*
X630015Y477827D01*
X630008Y477825D01*
X630000Y477824D01*
X628830Y477603D01*
X627797Y477407D01*
X627791Y477405D01*
X627783Y477404D01*
X626759Y477181D01*
X626753Y477179D01*
X626746Y477179D01*
X625732Y476931D01*
X625732Y476930D01*
X624618Y476658D01*
X624612Y476655D01*
X624604Y476654D01*
X623503Y476349D01*
X623497Y476347D01*
X623490Y476346D01*
X622402Y476012D01*
X621365Y475694D01*
X621360Y475691D01*
X621352Y475690D01*
X620328Y475344D01*
X620323Y475341D01*
X620316Y475340D01*
X619304Y474969D01*
X619304Y474968D01*
X618052Y474508D01*
X618046Y474504D01*
X618037Y474502D01*
X616805Y474001D01*
X616798Y473996D01*
X616789Y473994D01*
X615579Y473454D01*
X614602Y473018D01*
X614597Y473014D01*
X614589Y473012D01*
X613625Y472550D01*
X613621Y472547D01*
X613613Y472544D01*
X612665Y472058D01*
X611764Y471596D01*
X611759Y471593D01*
X611752Y471590D01*
X610864Y471106D01*
X610860Y471102D01*
X610853Y471100D01*
X609979Y470595D01*
X609979Y470594D01*
X608820Y469924D01*
X608815Y469919D01*
X608806Y469915D01*
X607673Y469207D01*
X607667Y469202D01*
X607659Y469198D01*
X606551Y468455D01*
X606551Y468454D01*
X605553Y467784D01*
X605548Y467779D01*
X605540Y467775D01*
X604564Y467075D01*
X604559Y467070D01*
X604552Y467067D01*
X603598Y466338D01*
X602615Y465589D01*
X602610Y465584D01*
X602602Y465580D01*
X601644Y464800D01*
X601639Y464795D01*
X601632Y464791D01*
X600698Y463982D01*
X599704Y463122D01*
X599700Y463116D01*
X599692Y463111D01*
X598728Y462220D01*
X598723Y462214D01*
X598716Y462209D01*
X597780Y461286D01*
X596940Y460456D01*
X596936Y460451D01*
X596929Y460446D01*
X596114Y459591D01*
X596110Y459585D01*
X596104Y459580D01*
X595314Y458702D01*
X594522Y457824D01*
X594518Y457818D01*
X594512Y457812D01*
X593747Y456910D01*
X593743Y456904D01*
X593737Y456898D01*
X592999Y455973D01*
X592265Y455053D01*
X592262Y455047D01*
X592256Y455042D01*
X591549Y454101D01*
X591546Y454095D01*
X591540Y454089D01*
X590861Y453128D01*
X590861Y453127D01*
X590258Y452274D01*
X590256Y452269D01*
X590251Y452264D01*
X589670Y451394D01*
X589667Y451389D01*
X589662Y451383D01*
X589104Y450498D01*
X588495Y449533D01*
X588493Y449527D01*
X588488Y449521D01*
X587906Y448537D01*
X587904Y448531D01*
X587899Y448524D01*
X587345Y447522D01*
X586753Y446453D01*
X586751Y446446D01*
X586746Y446439D01*
X586185Y445349D01*
X586183Y445342D01*
X586178Y445335D01*
X585651Y444225D01*
X585219Y443316D01*
X585218Y443310D01*
X585214Y443305D01*
X584803Y442382D01*
X584802Y442376D01*
X584798Y442370D01*
X584411Y441436D01*
X583956Y440335D01*
X583955Y440329D01*
X583951Y440322D01*
X583526Y439204D01*
X583525Y439197D01*
X583521Y439190D01*
X583131Y438058D01*
X582701Y436813D01*
X582700Y436805D01*
X582696Y436797D01*
X582306Y435533D01*
X582305Y435525D01*
X582301Y435517D01*
X581953Y434236D01*
X581655Y433139D01*
X581654Y433132D01*
X581651Y433124D01*
X581384Y432014D01*
X581383Y432008D01*
X581380Y432000D01*
X581144Y430879D01*
X580925Y429837D01*
X580925Y429831D01*
X580923Y429824D01*
X580730Y428772D01*
X580730Y428766D01*
X580728Y428759D01*
X580564Y427699D01*
X580373Y426472D01*
X580373Y426465D01*
X580371Y426456D01*
X580218Y425216D01*
X580219Y425209D01*
X580217Y425200D01*
X580102Y423950D01*
X580047Y423347D01*
X580048Y423343D01*
X580047Y423339D01*
X580001Y422734D01*
X580001Y422731D01*
X580001Y422727D01*
X579963Y422119D01*
X579964Y422113D01*
X579963Y422106D01*
X579852Y418899D01*
X579859Y418857D01*
X579856Y418815D01*
X579875Y418760D01*
X579885Y418703D01*
X579906Y418669D01*
X579876Y418616D01*
X579874Y418601D01*
X579868Y418590D01*
X579866Y418546D01*
X579852Y418451D01*
X579918Y415498D01*
X579919Y415492D01*
X579919Y415485D01*
X579977Y414253D01*
X579978Y414247D01*
X579978Y414238D01*
X580073Y413015D01*
X580075Y413008D01*
X580074Y413000D01*
X580207Y411789D01*
X580327Y410687D01*
X580329Y410681D01*
X580329Y410674D01*
X580480Y409582D01*
X580482Y409576D01*
X580482Y409569D01*
X580660Y408486D01*
X580862Y407262D01*
X580865Y407255D01*
X580865Y407247D01*
X581105Y406036D01*
X581108Y406029D01*
X581108Y406021D01*
X581384Y404822D01*
X581384Y404821D01*
X581642Y403699D01*
X581645Y403693D01*
X581646Y403686D01*
X581935Y402576D01*
X581938Y402570D01*
X581939Y402562D01*
X582260Y401465D01*
X582626Y400212D01*
X582630Y400206D01*
X582631Y400197D01*
X583036Y398962D01*
X583040Y398955D01*
X583042Y398946D01*
X583486Y397730D01*
X583884Y396639D01*
X583887Y396633D01*
X583889Y396625D01*
X584319Y395548D01*
X584323Y395543D01*
X584324Y395535D01*
X584783Y394474D01*
X585422Y393000D01*
X585427Y392993D01*
X585430Y392982D01*
X586126Y391539D01*
X586132Y391531D01*
X586135Y391521D01*
X586886Y390110D01*
X587359Y389223D01*
X587363Y389218D01*
X587365Y389212D01*
X587860Y388337D01*
X587863Y388332D01*
X587866Y388326D01*
X588381Y387466D01*
X589095Y386274D01*
X589100Y386268D01*
X589104Y386259D01*
X589858Y385095D01*
X589864Y385089D01*
X589868Y385081D01*
X590661Y383946D01*
X591355Y382951D01*
X591360Y382946D01*
X591364Y382938D01*
X592087Y381966D01*
X592092Y381961D01*
X592097Y381953D01*
X592848Y381004D01*
X592849Y381004D01*
X593098Y380690D01*
X593100Y380688D01*
X593101Y380685D01*
X593354Y380374D01*
X593355Y380373D01*
X593356Y380371D01*
X593611Y380061D01*
X593612Y380061D01*
X594033Y379552D01*
X594036Y379549D01*
X594038Y379546D01*
X594466Y379044D01*
X594469Y379041D01*
X594471Y379038D01*
X594907Y378543D01*
X595477Y377896D01*
X595481Y377893D01*
X595485Y377887D01*
X596070Y377252D01*
X596074Y377249D01*
X596077Y377245D01*
X596675Y376623D01*
X597202Y376075D01*
X597205Y376072D01*
X597208Y376068D01*
X597746Y375530D01*
X597750Y375528D01*
X597753Y375523D01*
X598301Y374996D01*
X598908Y374411D01*
X598912Y374408D01*
X598915Y374404D01*
X599535Y373831D01*
X599539Y373829D01*
X599543Y373824D01*
X600174Y373265D01*
X600174Y373264D01*
X600875Y372644D01*
X600879Y372642D01*
X600883Y372637D01*
X601598Y372033D01*
X601603Y372031D01*
X601607Y372026D01*
X602337Y371439D01*
X603173Y370765D01*
X603178Y370762D01*
X603183Y370756D01*
X604039Y370103D01*
X604045Y370101D01*
X604050Y370095D01*
X604923Y369466D01*
X605670Y368927D01*
X605675Y368925D01*
X605680Y368920D01*
X606442Y368399D01*
X606446Y368397D01*
X606451Y368392D01*
X607224Y367888D01*
X608208Y367245D01*
X608215Y367243D01*
X608221Y367237D01*
X609226Y366623D01*
X609232Y366621D01*
X609238Y366616D01*
X610262Y366031D01*
X611127Y365536D01*
X611133Y365534D01*
X611138Y365530D01*
X612017Y365056D01*
X612023Y365054D01*
X612029Y365050D01*
X612921Y364600D01*
X613825Y364141D01*
X613831Y364140D01*
X613837Y364135D01*
X614754Y363700D01*
X614760Y363698D01*
X614766Y363694D01*
X615696Y363282D01*
X616360Y362987D01*
X616365Y362986D01*
X616369Y362984D01*
X617040Y362700D01*
X617044Y362700D01*
X617048Y362697D01*
X617726Y362425D01*
X618721Y362027D01*
X618728Y362026D01*
X618734Y362022D01*
X619743Y361650D01*
X619749Y361649D01*
X619755Y361645D01*
X620776Y361299D01*
X621547Y361039D01*
X621551Y361038D01*
X621556Y361036D01*
X622333Y360790D01*
X622337Y360790D01*
X622342Y360787D01*
X623126Y360557D01*
X624151Y360256D01*
X624158Y360255D01*
X624165Y360252D01*
X625202Y359979D01*
X625208Y359978D01*
X625215Y359975D01*
X626263Y359729D01*
X627365Y359470D01*
X627371Y359469D01*
X627379Y359466D01*
X628493Y359239D01*
X628500Y359239D01*
X628507Y359236D01*
X629633Y359039D01*
X630751Y358842D01*
X630758Y358842D01*
X630766Y358840D01*
X631896Y358675D01*
X631902Y358675D01*
X631909Y358673D01*
X633049Y358539D01*
X633050Y358539D01*
X634015Y358427D01*
X634021Y358427D01*
X634028Y358425D01*
X635002Y358336D01*
X635008Y358337D01*
X635014Y358335D01*
X635994Y358268D01*
X637345Y358178D01*
X637352Y358179D01*
X637360Y358177D01*
X638722Y358130D01*
X638730Y358132D01*
X638740Y358130D01*
X641171Y358130D01*
X641177Y358131D01*
G37*
%LPC*%
G36*
X640769Y362449D02*
X640769Y362449D01*
X640402Y362452D01*
X640034Y362460D01*
X639209Y362476D01*
X638393Y362509D01*
X637578Y362560D01*
X637577Y362560D01*
X636858Y362605D01*
X636150Y362663D01*
X635437Y362735D01*
X634762Y362804D01*
X634094Y362883D01*
X633427Y362975D01*
X632602Y363089D01*
X631790Y363219D01*
X630978Y363367D01*
X630227Y363506D01*
X629488Y363657D01*
X628747Y363824D01*
X627945Y364006D01*
X627154Y364202D01*
X626366Y364418D01*
X626365Y364418D01*
X625702Y364599D01*
X625044Y364792D01*
X624391Y364998D01*
X624390Y364998D01*
X623706Y365212D01*
X623033Y365436D01*
X622362Y365676D01*
X621584Y365954D01*
X620822Y366244D01*
X620061Y366553D01*
X619348Y366844D01*
X618647Y367146D01*
X617949Y367464D01*
X617108Y367848D01*
X616282Y368249D01*
X615464Y368673D01*
X614578Y369131D01*
X613710Y369610D01*
X612853Y370114D01*
X612852Y370114D01*
X611995Y370617D01*
X611155Y371141D01*
X610327Y371688D01*
X609681Y372116D01*
X609049Y372552D01*
X608423Y373005D01*
X607381Y373758D01*
X606373Y374540D01*
X605386Y375359D01*
X604488Y376106D01*
X603620Y376876D01*
X602770Y377678D01*
X601963Y378438D01*
X601185Y379216D01*
X600425Y380022D01*
X600425Y380023D01*
X599575Y380923D01*
X598761Y381846D01*
X597972Y382802D01*
X597094Y383865D01*
X596259Y384954D01*
X595461Y386081D01*
X594723Y387123D01*
X594538Y387403D01*
X594804Y387364D01*
X594821Y387365D01*
X594842Y387360D01*
X595183Y387338D01*
X595198Y387340D01*
X595216Y387336D01*
X601759Y387336D01*
X601786Y387342D01*
X601822Y387340D01*
X602601Y387440D01*
X602630Y387450D01*
X602672Y387454D01*
X603387Y387654D01*
X603807Y387771D01*
X603825Y387781D01*
X603851Y387786D01*
X604249Y387938D01*
X604267Y387949D01*
X604293Y387957D01*
X604668Y388144D01*
X605134Y388375D01*
X605155Y388392D01*
X605188Y388406D01*
X605619Y388691D01*
X605637Y388710D01*
X605667Y388727D01*
X606065Y389066D01*
X606485Y389424D01*
X606502Y389446D01*
X606530Y389467D01*
X606912Y389885D01*
X606925Y389907D01*
X606949Y389930D01*
X607293Y390407D01*
X607627Y390869D01*
X607636Y390890D01*
X607655Y390913D01*
X607953Y391432D01*
X607959Y391452D01*
X607974Y391474D01*
X608236Y392050D01*
X608367Y392340D01*
X608369Y392349D01*
X608375Y392358D01*
X608498Y392662D01*
X608500Y392672D01*
X608505Y392682D01*
X608618Y392998D01*
X610517Y398258D01*
X610517Y398259D01*
X610517Y398260D01*
X610798Y399048D01*
X611124Y399717D01*
X611520Y400318D01*
X611520Y400319D01*
X611753Y400673D01*
X611994Y400979D01*
X612267Y401270D01*
X612557Y401577D01*
X612849Y401833D01*
X613183Y402070D01*
X613662Y402411D01*
X614157Y402663D01*
X614733Y402860D01*
X615310Y403058D01*
X615906Y403177D01*
X616584Y403231D01*
X616836Y403251D01*
X617085Y403260D01*
X671192Y403260D01*
X671213Y403265D01*
X671240Y403263D01*
X671996Y403336D01*
X672015Y403341D01*
X672040Y403342D01*
X672817Y403488D01*
X673493Y403616D01*
X673508Y403622D01*
X673528Y403623D01*
X674221Y403806D01*
X674234Y403812D01*
X674253Y403816D01*
X674960Y404054D01*
X675428Y404212D01*
X675436Y404217D01*
X675447Y404219D01*
X675922Y404401D01*
X675930Y404406D01*
X675941Y404408D01*
X676424Y404616D01*
X676647Y404711D01*
X676652Y404714D01*
X676658Y404716D01*
X676879Y404816D01*
X676883Y404819D01*
X676888Y404820D01*
X677105Y404924D01*
X677106Y404924D01*
X677536Y405131D01*
X677544Y405137D01*
X677555Y405140D01*
X677970Y405361D01*
X677978Y405367D01*
X677989Y405372D01*
X678389Y405607D01*
X678390Y405608D01*
X678391Y405608D01*
X678793Y405846D01*
X678800Y405852D01*
X678810Y405857D01*
X679198Y406108D01*
X679205Y406115D01*
X679217Y406121D01*
X679590Y406388D01*
X680050Y406717D01*
X680059Y406726D01*
X680072Y406734D01*
X680510Y407085D01*
X680519Y407095D01*
X680532Y407104D01*
X680948Y407478D01*
X680948Y407479D01*
X680949Y407479D01*
X681336Y407828D01*
X681343Y407838D01*
X681355Y407846D01*
X681724Y408216D01*
X681730Y408226D01*
X681742Y408235D01*
X682090Y408624D01*
X682354Y408918D01*
X682359Y408926D01*
X682367Y408934D01*
X682619Y409239D01*
X682623Y409246D01*
X682630Y409253D01*
X682872Y409569D01*
X682873Y409569D01*
X683101Y409868D01*
X683104Y409876D01*
X683112Y409883D01*
X683330Y410193D01*
X683333Y410200D01*
X683340Y410207D01*
X683549Y410527D01*
X683783Y410886D01*
X683786Y410895D01*
X683794Y410903D01*
X684016Y411275D01*
X684018Y411283D01*
X684025Y411292D01*
X684235Y411676D01*
X684235Y411677D01*
X684372Y411928D01*
X684374Y411934D01*
X684378Y411939D01*
X684509Y412196D01*
X684511Y412202D01*
X684515Y412208D01*
X684641Y412470D01*
X684816Y412835D01*
X684818Y412843D01*
X684823Y412851D01*
X684988Y413226D01*
X684990Y413234D01*
X684995Y413242D01*
X685149Y413626D01*
X685230Y413827D01*
X685231Y413832D01*
X685234Y413837D01*
X685311Y414041D01*
X685312Y414044D01*
X685314Y414048D01*
X685388Y414253D01*
X693131Y435509D01*
X693131Y435510D01*
X693249Y435835D01*
X693250Y435847D01*
X693257Y435860D01*
X693358Y436194D01*
X693359Y436205D01*
X693364Y436217D01*
X693450Y436558D01*
X693493Y436731D01*
X693494Y436737D01*
X693497Y436744D01*
X693536Y436919D01*
X693536Y436925D01*
X693539Y436931D01*
X693573Y437108D01*
X693641Y437446D01*
X693641Y437457D01*
X693645Y437469D01*
X693678Y437684D01*
X694014Y436714D01*
X694393Y435622D01*
X694736Y434522D01*
X695047Y433399D01*
X695362Y432265D01*
X695641Y431123D01*
X695885Y429961D01*
X696211Y428411D01*
X696471Y426850D01*
X696666Y425256D01*
X696804Y424129D01*
X696908Y422999D01*
X696978Y421853D01*
X697047Y420707D01*
X697052Y420520D01*
X697052Y420519D01*
X697082Y419558D01*
X697082Y417511D01*
X697062Y416637D01*
X697022Y415766D01*
X696972Y414684D01*
X696892Y413619D01*
X696781Y412554D01*
X696679Y411570D01*
X696553Y410602D01*
X696400Y409633D01*
X696400Y409632D01*
X696195Y408329D01*
X695947Y407051D01*
X695655Y405781D01*
X695527Y405226D01*
X695391Y404675D01*
X695247Y404128D01*
X695008Y403219D01*
X694748Y402323D01*
X694464Y401431D01*
X694053Y400135D01*
X693598Y398869D01*
X693097Y397616D01*
X692657Y396517D01*
X692188Y395445D01*
X691682Y394383D01*
X691682Y394382D01*
X691286Y393549D01*
X690872Y392732D01*
X690437Y391923D01*
X690000Y391111D01*
X689548Y390319D01*
X689074Y389534D01*
X689074Y389533D01*
X688579Y388712D01*
X688067Y387912D01*
X687532Y387119D01*
X686914Y386205D01*
X686276Y385318D01*
X685608Y384443D01*
X684719Y383282D01*
X683791Y382161D01*
X682816Y381073D01*
X682815Y381073D01*
X682227Y380417D01*
X681630Y379780D01*
X681011Y379151D01*
X680397Y378527D01*
X679774Y377923D01*
X679131Y377327D01*
X678402Y376653D01*
X677660Y376001D01*
X676897Y375367D01*
X676896Y375367D01*
X676896Y375366D01*
X676411Y374961D01*
X675923Y374570D01*
X675423Y374182D01*
X674420Y373403D01*
X673399Y372663D01*
X672344Y371953D01*
X671818Y371599D01*
X671289Y371256D01*
X670749Y370919D01*
X669965Y370428D01*
X669170Y369959D01*
X668360Y369507D01*
X667296Y368913D01*
X666217Y368356D01*
X665111Y367831D01*
X664202Y367399D01*
X663285Y366994D01*
X662349Y366610D01*
X661393Y366218D01*
X660433Y365855D01*
X659452Y365516D01*
X659451Y365516D01*
X658660Y365241D01*
X657865Y364986D01*
X657057Y364746D01*
X656126Y364470D01*
X655188Y364220D01*
X654236Y363991D01*
X653486Y363811D01*
X652734Y363647D01*
X651974Y363498D01*
X651973Y363498D01*
X651094Y363324D01*
X650215Y363174D01*
X649323Y363044D01*
X649322Y363043D01*
X648288Y362891D01*
X647250Y362769D01*
X646198Y362674D01*
X645644Y362625D01*
X645090Y362583D01*
X644531Y362550D01*
X643405Y362483D01*
X642278Y362449D01*
X640769Y362449D01*
G37*
%LPD*%
%LPC*%
G36*
X591487Y392556D02*
X591487Y392556D01*
X590909Y393695D01*
X590867Y393787D01*
X590366Y394866D01*
X589824Y396031D01*
X589326Y397210D01*
X588864Y398417D01*
X588409Y399607D01*
X587997Y400809D01*
X587622Y402037D01*
X587323Y403016D01*
X587052Y403998D01*
X586807Y404999D01*
X586806Y404999D01*
X586556Y406016D01*
X586335Y407039D01*
X586142Y408076D01*
X585935Y409187D01*
X585762Y410299D01*
X585622Y411431D01*
X585621Y411431D01*
X585495Y412452D01*
X585396Y413472D01*
X585326Y414509D01*
X585325Y414511D01*
X585325Y414514D01*
X585112Y417226D01*
X585107Y417242D01*
X585108Y417258D01*
X585080Y417337D01*
X585070Y417371D01*
X585076Y417379D01*
X585082Y417409D01*
X585093Y417430D01*
X585096Y417474D01*
X585110Y417542D01*
X585235Y420596D01*
X585270Y421481D01*
X585324Y422355D01*
X585399Y423229D01*
X585510Y424530D01*
X585666Y425812D01*
X585865Y427087D01*
X585865Y427088D01*
X586069Y428402D01*
X586319Y429694D01*
X586614Y430977D01*
X586614Y430978D01*
X587026Y432772D01*
X587521Y434521D01*
X588101Y436246D01*
X588460Y437314D01*
X588847Y438358D01*
X589268Y439396D01*
X589761Y440612D01*
X590292Y441800D01*
X590866Y442972D01*
X590867Y442972D01*
X591659Y444590D01*
X592522Y446154D01*
X593461Y447680D01*
X594144Y448789D01*
X594859Y449865D01*
X595615Y450921D01*
X596175Y451705D01*
X596753Y452469D01*
X597353Y453221D01*
X598106Y454166D01*
X598883Y455080D01*
X599695Y455974D01*
X600462Y456820D01*
X601249Y457637D01*
X602066Y458435D01*
X602734Y459086D01*
X603412Y459716D01*
X604111Y460333D01*
X604884Y461017D01*
X605671Y461675D01*
X606481Y462314D01*
X607471Y463096D01*
X608481Y463842D01*
X609524Y464556D01*
X610503Y465229D01*
X611500Y465866D01*
X612523Y466477D01*
X613293Y466936D01*
X614070Y467375D01*
X614863Y467798D01*
X615844Y468321D01*
X616838Y468813D01*
X617852Y469278D01*
X618948Y469780D01*
X620054Y470244D01*
X621187Y470676D01*
X622291Y471098D01*
X623403Y471483D01*
X624539Y471834D01*
X624539Y471835D01*
X624540Y471835D01*
X625403Y472103D01*
X626271Y472349D01*
X627151Y472576D01*
X628255Y472860D01*
X629366Y473110D01*
X630495Y473327D01*
X631638Y473548D01*
X632787Y473732D01*
X633954Y473881D01*
X635087Y474027D01*
X636219Y474137D01*
X637374Y474214D01*
X638620Y474297D01*
X639869Y474338D01*
X641264Y474338D01*
X641392Y474338D01*
X641519Y474337D01*
X642268Y474332D01*
X643009Y474312D01*
X643750Y474278D01*
X644572Y474240D01*
X645386Y474185D01*
X646198Y474112D01*
X646868Y474052D01*
X647529Y473981D01*
X648192Y473898D01*
X648785Y473823D01*
X649372Y473739D01*
X649960Y473646D01*
X650783Y473515D01*
X651591Y473369D01*
X652400Y473204D01*
X653327Y473014D01*
X654238Y472804D01*
X655148Y472569D01*
X655735Y472418D01*
X656311Y472259D01*
X656890Y472089D01*
X658151Y471719D01*
X659387Y471310D01*
X660609Y470855D01*
X660610Y470855D01*
X661386Y470567D01*
X662149Y470264D01*
X662909Y469943D01*
X663825Y469556D01*
X664723Y469148D01*
X665614Y468714D01*
X666375Y468343D01*
X667123Y467957D01*
X667863Y467554D01*
X668807Y467039D01*
X669727Y466503D01*
X670637Y465937D01*
X671299Y465525D01*
X671948Y465103D01*
X672592Y464665D01*
X673517Y464035D01*
X674417Y463382D01*
X675302Y462698D01*
X676229Y461982D01*
X677128Y461243D01*
X678007Y460472D01*
X678620Y459934D01*
X679215Y459389D01*
X679805Y458825D01*
X680471Y458188D01*
X681119Y457537D01*
X681753Y456868D01*
X682596Y455977D01*
X683404Y455067D01*
X684188Y454124D01*
X685018Y453125D01*
X685808Y452105D01*
X686567Y451050D01*
X686567Y451049D01*
X687196Y450178D01*
X687795Y449293D01*
X688372Y448386D01*
X688873Y447597D01*
X689352Y446802D01*
X689690Y446207D01*
X689654Y446220D01*
X689653Y446220D01*
X689594Y446241D01*
X689583Y446243D01*
X689570Y446249D01*
X689317Y446325D01*
X689316Y446325D01*
X689042Y446407D01*
X689031Y446408D01*
X689019Y446414D01*
X688731Y446485D01*
X688719Y446486D01*
X688705Y446491D01*
X688404Y446548D01*
X688196Y446589D01*
X688189Y446589D01*
X688181Y446592D01*
X687965Y446627D01*
X687957Y446627D01*
X687948Y446629D01*
X687725Y446658D01*
X687534Y446684D01*
X687528Y446683D01*
X687521Y446685D01*
X687324Y446706D01*
X687317Y446706D01*
X687310Y446708D01*
X687108Y446723D01*
X686850Y446744D01*
X686843Y446743D01*
X686835Y446745D01*
X686568Y446759D01*
X686562Y446758D01*
X686555Y446759D01*
X686279Y446766D01*
X686149Y446769D01*
X686147Y446769D01*
X686144Y446769D01*
X686011Y446771D01*
X686008Y446771D01*
X686004Y446771D01*
X621695Y446771D01*
X621687Y446770D01*
X621677Y446771D01*
X621209Y446754D01*
X621202Y446752D01*
X621193Y446753D01*
X620735Y446722D01*
X620734Y446722D01*
X620733Y446722D01*
X620416Y446700D01*
X620410Y446698D01*
X620403Y446699D01*
X620090Y446669D01*
X620085Y446667D01*
X620078Y446667D01*
X619770Y446630D01*
X619769Y446630D01*
X619768Y446630D01*
X619485Y446594D01*
X619480Y446593D01*
X619474Y446593D01*
X619193Y446552D01*
X619188Y446550D01*
X619182Y446550D01*
X618907Y446502D01*
X618906Y446502D01*
X618656Y446459D01*
X618651Y446457D01*
X618644Y446457D01*
X618398Y446407D01*
X618394Y446406D01*
X618389Y446406D01*
X618146Y446352D01*
X618145Y446352D01*
X618144Y446352D01*
X617771Y446269D01*
X617764Y446265D01*
X617754Y446265D01*
X617389Y446169D01*
X617381Y446165D01*
X617370Y446164D01*
X617014Y446056D01*
X616633Y445940D01*
X616625Y445936D01*
X616613Y445934D01*
X616243Y445804D01*
X616234Y445799D01*
X616223Y445797D01*
X615862Y445653D01*
X615861Y445653D01*
X615621Y445557D01*
X615615Y445553D01*
X615606Y445551D01*
X615370Y445448D01*
X615365Y445444D01*
X615357Y445442D01*
X615125Y445333D01*
X614900Y445228D01*
X614895Y445224D01*
X614887Y445222D01*
X614665Y445110D01*
X614661Y445107D01*
X614654Y445105D01*
X614436Y444988D01*
X614434Y444987D01*
X614433Y444986D01*
X614223Y444872D01*
X614219Y444869D01*
X614213Y444867D01*
X614007Y444749D01*
X614001Y444744D01*
X613992Y444740D01*
X613789Y444615D01*
X613440Y444400D01*
X613432Y444393D01*
X613420Y444387D01*
X613080Y444156D01*
X613072Y444148D01*
X613060Y444141D01*
X612730Y443892D01*
X612486Y443709D01*
X612480Y443702D01*
X612471Y443697D01*
X612232Y443502D01*
X612227Y443496D01*
X612218Y443490D01*
X611986Y443287D01*
X611708Y443045D01*
X611701Y443037D01*
X611691Y443030D01*
X611421Y442773D01*
X611416Y442765D01*
X611407Y442759D01*
X611144Y442489D01*
X611144Y442488D01*
X610900Y442238D01*
X610895Y442230D01*
X610887Y442223D01*
X610651Y441960D01*
X610647Y441954D01*
X610639Y441947D01*
X610410Y441674D01*
X610208Y441433D01*
X610204Y441426D01*
X610197Y441419D01*
X610001Y441168D01*
X609998Y441162D01*
X609992Y441156D01*
X609802Y440898D01*
X609600Y440624D01*
X609596Y440617D01*
X609590Y440610D01*
X609395Y440326D01*
X609392Y440320D01*
X609387Y440314D01*
X609198Y440020D01*
X609197Y440019D01*
X609197Y440018D01*
X609097Y439863D01*
X609096Y439860D01*
X609094Y439857D01*
X608996Y439699D01*
X608995Y439696D01*
X608992Y439692D01*
X608896Y439531D01*
X608896Y439530D01*
X608622Y439072D01*
X608619Y439063D01*
X608612Y439054D01*
X608352Y438573D01*
X608349Y438563D01*
X608342Y438554D01*
X608097Y438049D01*
X607769Y437373D01*
X607766Y437362D01*
X607758Y437349D01*
X607454Y436632D01*
X607452Y436621D01*
X607445Y436609D01*
X607168Y435851D01*
X607168Y435850D01*
X605034Y429963D01*
X605034Y429962D01*
X604910Y429623D01*
X604909Y429619D01*
X604908Y429618D01*
X604859Y429585D01*
X604837Y429549D01*
X604807Y429520D01*
X604776Y429454D01*
X604752Y429417D01*
X604749Y429395D01*
X604737Y429370D01*
X604482Y428443D01*
X591755Y393338D01*
X591755Y393336D01*
X591754Y393334D01*
X591649Y393036D01*
X591647Y393027D01*
X591642Y393016D01*
X591556Y392734D01*
X591555Y392723D01*
X591549Y392709D01*
X591503Y392527D01*
X591487Y392556D01*
G37*
%LPD*%
G36*
X773003Y295187D02*
X773003Y295187D01*
X773039Y295184D01*
X773100Y295202D01*
X773163Y295212D01*
X773194Y295231D01*
X773229Y295242D01*
X773278Y295283D01*
X773332Y295317D01*
X773353Y295346D01*
X773381Y295370D01*
X773410Y295427D01*
X773447Y295479D01*
X773455Y295515D01*
X773472Y295547D01*
X773480Y295629D01*
X773490Y295673D01*
X773487Y295693D01*
X773489Y295713D01*
X773448Y296350D01*
X773403Y297160D01*
X773402Y297165D01*
X773402Y297171D01*
X773329Y298128D01*
X773302Y298476D01*
X773302Y298478D01*
X773302Y298481D01*
X773271Y298848D01*
X773270Y298850D01*
X773270Y298851D01*
X773235Y299238D01*
X773235Y299239D01*
X773184Y299788D01*
X773183Y299791D01*
X773183Y299794D01*
X773122Y300382D01*
X773120Y300386D01*
X773121Y300390D01*
X773045Y301013D01*
X772987Y301488D01*
X772986Y301490D01*
X772986Y301493D01*
X772921Y301988D01*
X772920Y301991D01*
X772920Y301995D01*
X772844Y302508D01*
X772797Y302832D01*
X772796Y302835D01*
X772796Y302838D01*
X772744Y303169D01*
X772744Y303170D01*
X772744Y303173D01*
X772688Y303511D01*
X772636Y303825D01*
X772635Y303827D01*
X772635Y303829D01*
X772579Y304151D01*
X772578Y304152D01*
X772578Y304154D01*
X772519Y304482D01*
X772519Y304483D01*
X772452Y304849D01*
X772451Y304851D01*
X772451Y304853D01*
X772379Y305228D01*
X772378Y305230D01*
X772378Y305233D01*
X772300Y305614D01*
X772249Y305867D01*
X772248Y305869D01*
X772248Y305872D01*
X772194Y306128D01*
X772193Y306130D01*
X772193Y306131D01*
X772137Y306391D01*
X772137Y306392D01*
X772057Y306756D01*
X772057Y306758D01*
X772056Y306760D01*
X771972Y307132D01*
X771971Y307134D01*
X771971Y307137D01*
X771881Y307513D01*
X771801Y307851D01*
X771800Y307852D01*
X771800Y307855D01*
X771715Y308197D01*
X771714Y308199D01*
X771714Y308202D01*
X771624Y308548D01*
X771544Y308857D01*
X771543Y308858D01*
X771543Y308861D01*
X771460Y309174D01*
X771459Y309176D01*
X771458Y309178D01*
X771371Y309495D01*
X771282Y309817D01*
X771281Y309819D01*
X771281Y309820D01*
X771188Y310146D01*
X771187Y310148D01*
X771187Y310151D01*
X771090Y310479D01*
X770969Y310889D01*
X770968Y310891D01*
X770967Y310895D01*
X770840Y311310D01*
X770838Y311312D01*
X770838Y311315D01*
X770704Y311736D01*
X770703Y311736D01*
X770559Y312185D01*
X770558Y312188D01*
X770558Y312191D01*
X770405Y312647D01*
X770404Y312650D01*
X770403Y312653D01*
X770243Y313114D01*
X770069Y313615D01*
X770068Y313617D01*
X770067Y313621D01*
X769883Y314128D01*
X769881Y314131D01*
X769880Y314135D01*
X769686Y314647D01*
X769686Y314648D01*
X769569Y314954D01*
X769568Y314955D01*
X769568Y314957D01*
X769449Y315265D01*
X769447Y315267D01*
X769447Y315269D01*
X769323Y315580D01*
X769159Y315990D01*
X769158Y315993D01*
X769157Y315996D01*
X768986Y316410D01*
X768985Y316412D01*
X768984Y316415D01*
X768807Y316832D01*
X768807Y316833D01*
X768650Y317200D01*
X768649Y317202D01*
X768648Y317205D01*
X768486Y317574D01*
X768485Y317576D01*
X768484Y317578D01*
X768318Y317950D01*
X768317Y317950D01*
X768317Y317951D01*
X768083Y318470D01*
X768082Y318473D01*
X768081Y318476D01*
X767836Y319001D01*
X767834Y319003D01*
X767833Y319007D01*
X767577Y319535D01*
X767576Y319536D01*
X767368Y319965D01*
X767366Y319967D01*
X767365Y319970D01*
X767149Y320403D01*
X767148Y320405D01*
X767147Y320408D01*
X766922Y320844D01*
X766922Y320845D01*
X766767Y321145D01*
X766766Y321146D01*
X766766Y321148D01*
X766608Y321449D01*
X766606Y321450D01*
X766606Y321452D01*
X766444Y321754D01*
X766255Y322108D01*
X766253Y322109D01*
X766252Y322112D01*
X766058Y322467D01*
X766056Y322469D01*
X766055Y322471D01*
X765856Y322827D01*
X765640Y323211D01*
X765639Y323213D01*
X765638Y323216D01*
X765415Y323602D01*
X765413Y323604D01*
X765412Y323607D01*
X765184Y323993D01*
X765056Y324212D01*
X765055Y324214D01*
X765054Y324217D01*
X764923Y324434D01*
X764922Y324435D01*
X764922Y324436D01*
X764789Y324655D01*
X764416Y325270D01*
X764414Y325273D01*
X764413Y325276D01*
X764041Y325872D01*
X764038Y325874D01*
X764037Y325878D01*
X763664Y326455D01*
X763304Y327011D01*
X763302Y327014D01*
X763301Y327017D01*
X762941Y327557D01*
X762938Y327559D01*
X762937Y327563D01*
X762576Y328087D01*
X762576Y328088D01*
X762298Y328491D01*
X762296Y328493D01*
X762294Y328496D01*
X762015Y328890D01*
X762013Y328892D01*
X762011Y328895D01*
X761732Y329279D01*
X761413Y329717D01*
X761410Y329719D01*
X761408Y329723D01*
X761088Y330150D01*
X761086Y330152D01*
X761084Y330155D01*
X760761Y330572D01*
X760431Y330998D01*
X760428Y331001D01*
X760426Y331005D01*
X760093Y331419D01*
X760090Y331421D01*
X760088Y331425D01*
X759753Y331830D01*
X759372Y332290D01*
X759368Y332293D01*
X759365Y332298D01*
X758980Y332744D01*
X758976Y332746D01*
X758974Y332751D01*
X758584Y333184D01*
X758584Y333185D01*
X758286Y333516D01*
X758284Y333519D01*
X758281Y333522D01*
X757981Y333847D01*
X757978Y333849D01*
X757975Y333853D01*
X757672Y334170D01*
X757293Y334568D01*
X757289Y334570D01*
X757286Y334574D01*
X756902Y334961D01*
X756899Y334964D01*
X756895Y334968D01*
X756506Y335346D01*
X756120Y335720D01*
X756116Y335723D01*
X756113Y335727D01*
X755722Y336092D01*
X755718Y336094D01*
X755715Y336099D01*
X755318Y336454D01*
X754942Y336793D01*
X754938Y336795D01*
X754935Y336799D01*
X754553Y337130D01*
X754549Y337132D01*
X754546Y337136D01*
X754158Y337460D01*
X753677Y337862D01*
X753672Y337864D01*
X753668Y337868D01*
X753178Y338261D01*
X753174Y338263D01*
X753170Y338267D01*
X752668Y338652D01*
X752133Y339062D01*
X752129Y339064D01*
X752125Y339068D01*
X751577Y339469D01*
X751573Y339471D01*
X751569Y339475D01*
X751008Y339870D01*
X750508Y340221D01*
X750504Y340223D01*
X750501Y340226D01*
X749990Y340572D01*
X749987Y340573D01*
X749983Y340576D01*
X749460Y340918D01*
X748875Y341301D01*
X748872Y341302D01*
X748869Y341305D01*
X748269Y341683D01*
X748265Y341685D01*
X748262Y341688D01*
X747645Y342063D01*
X747644Y342063D01*
X747262Y342295D01*
X747260Y342296D01*
X747258Y342298D01*
X746870Y342529D01*
X746868Y342529D01*
X746866Y342531D01*
X746471Y342761D01*
X745799Y343153D01*
X745796Y343154D01*
X745793Y343157D01*
X745102Y343547D01*
X745099Y343548D01*
X745097Y343550D01*
X744384Y343942D01*
X743463Y344448D01*
X743460Y344449D01*
X743457Y344452D01*
X742500Y344959D01*
X742498Y344959D01*
X742496Y344961D01*
X741499Y345476D01*
X740538Y345972D01*
X740536Y345972D01*
X740534Y345974D01*
X739537Y346476D01*
X739536Y346477D01*
X739534Y346478D01*
X738497Y346991D01*
X738497Y346992D01*
X737622Y347424D01*
X737621Y347425D01*
X737620Y347426D01*
X736716Y347867D01*
X736715Y347867D01*
X736714Y347868D01*
X735779Y348321D01*
X734883Y348754D01*
X734882Y348754D01*
X734881Y348755D01*
X733956Y349198D01*
X733956Y349199D01*
X733002Y349655D01*
X732061Y350105D01*
X732060Y350105D01*
X731089Y350567D01*
X731089Y350568D01*
X730088Y351044D01*
X729446Y351349D01*
X729446Y351350D01*
X728791Y351660D01*
X728124Y351979D01*
X728123Y351979D01*
X727788Y352138D01*
X727450Y352299D01*
X727109Y352462D01*
X727108Y352462D01*
X727108Y352463D01*
X725797Y353088D01*
X724579Y353710D01*
X723436Y354334D01*
X723435Y354335D01*
X722783Y354690D01*
X722162Y355043D01*
X721561Y355398D01*
X720787Y355857D01*
X720059Y356311D01*
X719367Y356766D01*
X718831Y357120D01*
X718322Y357469D01*
X717834Y357820D01*
X717309Y358196D01*
X716816Y358567D01*
X716345Y358940D01*
X715852Y359330D01*
X715393Y359712D01*
X714955Y360097D01*
X714419Y360568D01*
X713930Y361028D01*
X713471Y361491D01*
X713048Y361918D01*
X712661Y362337D01*
X712298Y362756D01*
X711851Y363274D01*
X711456Y363777D01*
X711096Y364280D01*
X710670Y364876D01*
X710311Y365448D01*
X709995Y366021D01*
X709637Y366671D01*
X709353Y367289D01*
X709120Y367904D01*
X708930Y368405D01*
X708783Y368878D01*
X708664Y369354D01*
X708556Y369789D01*
X708478Y370200D01*
X708422Y370610D01*
X708421Y370611D01*
X708364Y371032D01*
X708332Y371427D01*
X708321Y371822D01*
X708314Y372082D01*
X708314Y372083D01*
X708310Y372213D01*
X708320Y372579D01*
X708346Y372942D01*
X708371Y373288D01*
X708410Y373608D01*
X708463Y373925D01*
X708463Y373926D01*
X708464Y373927D01*
X708510Y374211D01*
X708564Y374475D01*
X708627Y374736D01*
X708739Y375193D01*
X708867Y375598D01*
X709007Y375974D01*
X709116Y376265D01*
X709225Y376521D01*
X709336Y376759D01*
X709419Y376938D01*
X709498Y377096D01*
X709575Y377240D01*
X709814Y377687D01*
X710001Y377956D01*
X710002Y377958D01*
X710004Y377961D01*
X710062Y378046D01*
X710068Y378060D01*
X710078Y378071D01*
X710106Y378151D01*
X710138Y378228D01*
X710139Y378228D01*
X710172Y378244D01*
X710199Y378250D01*
X710242Y378279D01*
X710287Y378302D01*
X710555Y378497D01*
X710840Y378685D01*
X711168Y378870D01*
X711409Y379005D01*
X711656Y379129D01*
X711932Y379251D01*
X712062Y379307D01*
X712188Y379359D01*
X712325Y379413D01*
X712509Y379483D01*
X712695Y379548D01*
X712895Y379610D01*
X712896Y379610D01*
X712899Y379611D01*
X713053Y379659D01*
X713208Y379702D01*
X713376Y379746D01*
X713535Y379787D01*
X713691Y379823D01*
X713859Y379856D01*
X713860Y379857D01*
X713862Y379857D01*
X714061Y379898D01*
X714261Y379933D01*
X714470Y379965D01*
X714471Y379965D01*
X714667Y379994D01*
X714864Y380018D01*
X715073Y380038D01*
X715427Y380072D01*
X715790Y380093D01*
X716182Y380099D01*
X716382Y380102D01*
X716581Y380101D01*
X716790Y380094D01*
X716791Y380094D01*
X716952Y380090D01*
X717112Y380083D01*
X717278Y380074D01*
X717279Y380074D01*
X717517Y380062D01*
X717757Y380042D01*
X718011Y380017D01*
X718012Y380017D01*
X718190Y380000D01*
X718371Y379980D01*
X718554Y379957D01*
X718762Y379930D01*
X718968Y379902D01*
X719181Y379868D01*
X719362Y379840D01*
X719551Y379808D01*
X719738Y379774D01*
X719980Y379729D01*
X720219Y379682D01*
X720466Y379629D01*
X720467Y379629D01*
X720755Y379567D01*
X721043Y379500D01*
X721344Y379425D01*
X721345Y379425D01*
X721347Y379424D01*
X721567Y379371D01*
X721787Y379312D01*
X722018Y379250D01*
X722255Y379184D01*
X722496Y379115D01*
X722745Y379040D01*
X722953Y378977D01*
X723165Y378912D01*
X723378Y378843D01*
X723378Y378842D01*
X723379Y378842D01*
X723612Y378767D01*
X723848Y378689D01*
X724087Y378606D01*
X724089Y378606D01*
X724090Y378605D01*
X724399Y378499D01*
X724710Y378388D01*
X725031Y378268D01*
X725032Y378267D01*
X725378Y378139D01*
X725727Y378005D01*
X726086Y377860D01*
X726087Y377860D01*
X726088Y377859D01*
X726430Y377722D01*
X726774Y377580D01*
X727130Y377427D01*
X727131Y377426D01*
X727449Y377291D01*
X727772Y377148D01*
X728104Y376999D01*
X728434Y376850D01*
X728767Y376696D01*
X729107Y376534D01*
X729108Y376534D01*
X729109Y376534D01*
X729525Y376337D01*
X729949Y376130D01*
X730383Y375912D01*
X730891Y375658D01*
X731409Y375390D01*
X731941Y375107D01*
X731942Y375107D01*
X731943Y375106D01*
X732133Y375006D01*
X732322Y374903D01*
X732507Y374799D01*
X732916Y374570D01*
X733311Y374338D01*
X733701Y374096D01*
X734065Y373870D01*
X734419Y373642D01*
X734768Y373407D01*
X735142Y373154D01*
X735507Y372898D01*
X735865Y372635D01*
X736352Y372278D01*
X736819Y371915D01*
X737276Y371542D01*
X737635Y371249D01*
X737978Y370958D01*
X738317Y370660D01*
X738317Y370659D01*
X738741Y370286D01*
X739147Y369913D01*
X739541Y369534D01*
X739542Y369533D01*
X739741Y369342D01*
X739935Y369152D01*
X740128Y368959D01*
X740374Y368714D01*
X740609Y368472D01*
X740842Y368226D01*
X740842Y368225D01*
X741109Y367945D01*
X741366Y367666D01*
X741616Y367388D01*
X741838Y367141D01*
X742053Y366896D01*
X742261Y366653D01*
X742432Y366453D01*
X742601Y366253D01*
X742762Y366058D01*
X742975Y365799D01*
X743177Y365549D01*
X743374Y365299D01*
X743374Y365298D01*
X743528Y365103D01*
X743678Y364909D01*
X743825Y364717D01*
X743955Y364546D01*
X744079Y364381D01*
X744203Y364213D01*
X744203Y364212D01*
X744204Y364211D01*
X744345Y364021D01*
X744483Y363831D01*
X744614Y363647D01*
X744615Y363647D01*
X744615Y363646D01*
X744785Y363409D01*
X744944Y363180D01*
X745099Y362954D01*
X745100Y362954D01*
X745259Y362723D01*
X745409Y362498D01*
X745552Y362280D01*
X745716Y362029D01*
X745872Y361788D01*
X746015Y361561D01*
X746965Y360049D01*
X747431Y359084D01*
X747467Y359038D01*
X747493Y358987D01*
X747526Y358960D01*
X747552Y358926D01*
X747602Y358897D01*
X747647Y358860D01*
X747688Y358848D01*
X747724Y358827D01*
X747782Y358821D01*
X747838Y358804D01*
X747880Y358809D01*
X747922Y358804D01*
X747978Y358820D01*
X748035Y358827D01*
X748072Y358848D01*
X748113Y358860D01*
X748158Y358896D01*
X748208Y358925D01*
X748234Y358958D01*
X748267Y358985D01*
X748294Y359037D01*
X748329Y359083D01*
X748340Y359124D01*
X748360Y359161D01*
X748365Y359219D01*
X748379Y359275D01*
X748374Y359324D01*
X748377Y359359D01*
X748365Y359399D01*
X748360Y359440D01*
X748283Y359708D01*
X748278Y359717D01*
X748276Y359729D01*
X748116Y360204D01*
X748116Y360205D01*
X748051Y360397D01*
X748050Y360398D01*
X748050Y360401D01*
X747971Y360627D01*
X747970Y360629D01*
X747969Y360633D01*
X747877Y360888D01*
X747758Y361219D01*
X747757Y361222D01*
X747756Y361225D01*
X747614Y361604D01*
X747612Y361607D01*
X747611Y361612D01*
X747446Y362032D01*
X747446Y362033D01*
X747290Y362426D01*
X747289Y362429D01*
X747288Y362433D01*
X747111Y362862D01*
X747109Y362865D01*
X747108Y362869D01*
X746911Y363327D01*
X746911Y363328D01*
X746723Y363764D01*
X746721Y363767D01*
X746720Y363771D01*
X746513Y364232D01*
X746510Y364236D01*
X746509Y364241D01*
X746283Y364719D01*
X746283Y364720D01*
X746055Y365204D01*
X746052Y365207D01*
X746051Y365212D01*
X745803Y365714D01*
X745800Y365718D01*
X745799Y365723D01*
X745531Y366240D01*
X745530Y366241D01*
X745530Y366242D01*
X745320Y366644D01*
X745318Y366646D01*
X745317Y366650D01*
X745095Y367061D01*
X745092Y367065D01*
X745090Y367069D01*
X744856Y367485D01*
X744856Y367486D01*
X744638Y367871D01*
X744636Y367874D01*
X744634Y367878D01*
X744406Y368268D01*
X744403Y368271D01*
X744401Y368277D01*
X744162Y368667D01*
X743942Y369028D01*
X743939Y369031D01*
X743937Y369036D01*
X743708Y369397D01*
X743705Y369400D01*
X743703Y369405D01*
X743464Y369768D01*
X743254Y370085D01*
X743252Y370088D01*
X743250Y370092D01*
X743032Y370409D01*
X743029Y370412D01*
X743027Y370416D01*
X742803Y370731D01*
X742562Y371070D01*
X742559Y371072D01*
X742557Y371077D01*
X742307Y371415D01*
X742303Y371419D01*
X742300Y371425D01*
X742042Y371758D01*
X741894Y371949D01*
X741892Y371951D01*
X741891Y371954D01*
X741740Y372144D01*
X741738Y372146D01*
X741736Y372149D01*
X741583Y372337D01*
X741361Y372611D01*
X741357Y372614D01*
X741354Y372619D01*
X741126Y372889D01*
X741122Y372892D01*
X741119Y372897D01*
X740885Y373163D01*
X740708Y373364D01*
X740705Y373366D01*
X740703Y373370D01*
X740523Y373568D01*
X740520Y373570D01*
X740518Y373573D01*
X740335Y373770D01*
X740334Y373770D01*
X740334Y373771D01*
X740172Y373944D01*
X740170Y373945D01*
X740168Y373947D01*
X740004Y374119D01*
X740001Y374121D01*
X739998Y374125D01*
X739832Y374292D01*
X739624Y374503D01*
X739620Y374506D01*
X739617Y374510D01*
X739404Y374717D01*
X739400Y374720D01*
X739397Y374724D01*
X739180Y374927D01*
X739180Y374928D01*
X738961Y375132D01*
X738956Y375135D01*
X738952Y375140D01*
X738729Y375340D01*
X738726Y375342D01*
X738723Y375345D01*
X738495Y375542D01*
X738494Y375543D01*
X738199Y375796D01*
X738194Y375799D01*
X738189Y375805D01*
X737887Y376051D01*
X737881Y376055D01*
X737875Y376061D01*
X737565Y376298D01*
X737565Y376299D01*
X737564Y376299D01*
X737350Y376462D01*
X737347Y376464D01*
X737343Y376468D01*
X737125Y376628D01*
X737120Y376630D01*
X737116Y376635D01*
X736894Y376790D01*
X736683Y376939D01*
X736678Y376941D01*
X736673Y376946D01*
X736459Y377089D01*
X736454Y377091D01*
X736450Y377095D01*
X736233Y377234D01*
X735998Y377384D01*
X735993Y377386D01*
X735988Y377391D01*
X735751Y377535D01*
X735746Y377537D01*
X735741Y377541D01*
X735499Y377681D01*
X735497Y377681D01*
X735496Y377682D01*
X735333Y377775D01*
X735330Y377776D01*
X735327Y377778D01*
X735162Y377869D01*
X735160Y377869D01*
X735157Y377872D01*
X734991Y377960D01*
X734990Y377961D01*
X734661Y378136D01*
X734653Y378138D01*
X734646Y378143D01*
X734307Y378309D01*
X734299Y378311D01*
X734291Y378316D01*
X733948Y378469D01*
X733791Y378539D01*
X733790Y378540D01*
X733788Y378541D01*
X733633Y378609D01*
X733479Y378677D01*
X733478Y378677D01*
X733202Y378798D01*
X733200Y378798D01*
X733199Y378799D01*
X732926Y378917D01*
X732924Y378917D01*
X732923Y378918D01*
X732652Y379032D01*
X732229Y379210D01*
X732227Y379210D01*
X732226Y379211D01*
X731811Y379382D01*
X731808Y379383D01*
X731805Y379385D01*
X731398Y379546D01*
X731043Y379688D01*
X731041Y379688D01*
X731038Y379690D01*
X730688Y379825D01*
X730686Y379826D01*
X730684Y379827D01*
X730341Y379956D01*
X729882Y380129D01*
X729879Y380130D01*
X729876Y380132D01*
X729427Y380294D01*
X729424Y380295D01*
X729421Y380297D01*
X728982Y380449D01*
X728727Y380538D01*
X728726Y380538D01*
X728724Y380539D01*
X728473Y380624D01*
X728471Y380625D01*
X728469Y380626D01*
X728220Y380708D01*
X727873Y380823D01*
X727870Y380823D01*
X727868Y380824D01*
X727526Y380933D01*
X727524Y380933D01*
X727521Y380935D01*
X727186Y381037D01*
X727185Y381038D01*
X726664Y381196D01*
X726660Y381196D01*
X726656Y381198D01*
X726150Y381342D01*
X726145Y381343D01*
X726141Y381345D01*
X725650Y381475D01*
X725649Y381475D01*
X725220Y381588D01*
X725216Y381589D01*
X725211Y381590D01*
X724793Y381693D01*
X724790Y381693D01*
X724786Y381695D01*
X724378Y381788D01*
X724377Y381788D01*
X723997Y381874D01*
X723994Y381874D01*
X723990Y381875D01*
X723621Y381954D01*
X723616Y381954D01*
X723611Y381955D01*
X723250Y382024D01*
X722842Y382103D01*
X722837Y382103D01*
X722831Y382105D01*
X722433Y382172D01*
X722429Y382172D01*
X722424Y382173D01*
X722039Y382231D01*
X722038Y382231D01*
X721621Y382293D01*
X721616Y382293D01*
X721610Y382294D01*
X721208Y382345D01*
X721203Y382344D01*
X721197Y382346D01*
X720808Y382386D01*
X720807Y382386D01*
X720490Y382418D01*
X720486Y382418D01*
X720480Y382419D01*
X720173Y382444D01*
X720168Y382444D01*
X720162Y382445D01*
X719864Y382463D01*
X719486Y382486D01*
X719480Y382485D01*
X719473Y382486D01*
X719109Y382499D01*
X719103Y382498D01*
X719095Y382499D01*
X718745Y382502D01*
X718302Y382505D01*
X718294Y382503D01*
X718283Y382505D01*
X717861Y382492D01*
X717854Y382490D01*
X717844Y382491D01*
X717442Y382466D01*
X717441Y382466D01*
X717178Y382449D01*
X717173Y382447D01*
X717167Y382448D01*
X716913Y382426D01*
X716908Y382424D01*
X716901Y382424D01*
X716656Y382397D01*
X716655Y382397D01*
X716654Y382397D01*
X716484Y382377D01*
X716481Y382376D01*
X716478Y382376D01*
X716313Y382355D01*
X716308Y382354D01*
X716301Y382354D01*
X716139Y382329D01*
X715833Y382284D01*
X715827Y382281D01*
X715819Y382281D01*
X715527Y382229D01*
X715519Y382225D01*
X715507Y382225D01*
X715229Y382163D01*
X715002Y382115D01*
X714995Y382112D01*
X714985Y382111D01*
X714763Y382056D01*
X714757Y382053D01*
X714749Y382052D01*
X714535Y381992D01*
X714315Y381932D01*
X714307Y381928D01*
X714297Y381927D01*
X714084Y381860D01*
X714080Y381858D01*
X714074Y381857D01*
X713870Y381788D01*
X713869Y381787D01*
X713867Y381787D01*
X713573Y381686D01*
X713565Y381681D01*
X713554Y381679D01*
X713279Y381571D01*
X713272Y381566D01*
X713261Y381564D01*
X713003Y381451D01*
X713003Y381450D01*
X712831Y381375D01*
X712826Y381371D01*
X712819Y381369D01*
X712655Y381292D01*
X712650Y381288D01*
X712643Y381286D01*
X712486Y381206D01*
X712223Y381072D01*
X712214Y381066D01*
X712201Y381061D01*
X711960Y380923D01*
X711953Y380917D01*
X711943Y380913D01*
X711721Y380775D01*
X711721Y380774D01*
X711720Y380774D01*
X711535Y380658D01*
X711529Y380652D01*
X711519Y380648D01*
X711348Y380531D01*
X711343Y380526D01*
X711337Y380523D01*
X711178Y380408D01*
X711177Y380408D01*
X710973Y380261D01*
X710965Y380253D01*
X710953Y380247D01*
X710769Y380100D01*
X710765Y380095D01*
X710758Y380091D01*
X710593Y379952D01*
X710593Y379951D01*
X710591Y379951D01*
X710441Y379823D01*
X710437Y379817D01*
X710429Y379812D01*
X710294Y379690D01*
X710292Y379686D01*
X710288Y379684D01*
X710167Y379571D01*
X710167Y379570D01*
X709954Y379370D01*
X709948Y379362D01*
X709938Y379354D01*
X709776Y379187D01*
X709649Y379067D01*
X709610Y379011D01*
X709564Y378961D01*
X709554Y378931D01*
X709535Y378904D01*
X709521Y378838D01*
X709509Y378804D01*
X709502Y378803D01*
X709353Y378729D01*
X709350Y378726D01*
X709149Y378579D01*
X709130Y378557D01*
X709097Y378535D01*
X708754Y378202D01*
X708741Y378183D01*
X708717Y378163D01*
X708301Y377662D01*
X708301Y377661D01*
X708145Y377473D01*
X708142Y377468D01*
X708137Y377463D01*
X707970Y377251D01*
X707967Y377245D01*
X707961Y377238D01*
X707787Y377003D01*
X707613Y376767D01*
X707610Y376761D01*
X707605Y376756D01*
X707423Y376495D01*
X707421Y376489D01*
X707415Y376483D01*
X707230Y376199D01*
X707063Y375944D01*
X707061Y375938D01*
X707056Y375933D01*
X706887Y375659D01*
X706884Y375653D01*
X706880Y375647D01*
X706709Y375355D01*
X706521Y375031D01*
X706519Y375025D01*
X706514Y375018D01*
X706326Y374673D01*
X706324Y374666D01*
X706318Y374659D01*
X706133Y374292D01*
X705965Y373958D01*
X705963Y373952D01*
X705959Y373946D01*
X705793Y373594D01*
X705792Y373587D01*
X705787Y373580D01*
X705627Y373212D01*
X705468Y372846D01*
X705467Y372839D01*
X705463Y372833D01*
X705309Y372449D01*
X705308Y372442D01*
X705304Y372434D01*
X705159Y372036D01*
X705031Y371685D01*
X705030Y371678D01*
X705026Y371671D01*
X704905Y371307D01*
X704904Y371300D01*
X704901Y371293D01*
X704787Y370917D01*
X704700Y370628D01*
X704700Y370623D01*
X704697Y370617D01*
X704615Y370322D01*
X704615Y370316D01*
X704612Y370310D01*
X704536Y370007D01*
X704475Y369766D01*
X704475Y369761D01*
X704472Y369756D01*
X704415Y369510D01*
X704415Y369505D01*
X704413Y369500D01*
X704360Y369249D01*
X704298Y368960D01*
X704298Y368955D01*
X704296Y368950D01*
X704240Y368655D01*
X704240Y368649D01*
X704238Y368643D01*
X704188Y368342D01*
X704119Y367928D01*
X704119Y367920D01*
X704117Y367912D01*
X704059Y367487D01*
X704060Y367479D01*
X704058Y367471D01*
X704014Y367035D01*
X703981Y366707D01*
X703981Y366702D01*
X703980Y366696D01*
X703954Y366364D01*
X703955Y366358D01*
X703953Y366351D01*
X703936Y366012D01*
X703922Y365752D01*
X703923Y365747D01*
X703922Y365742D01*
X703913Y365479D01*
X703914Y365475D01*
X703913Y365469D01*
X703910Y365201D01*
X703904Y364703D01*
X703905Y364695D01*
X703904Y364685D01*
X703915Y364174D01*
X703917Y364166D01*
X703916Y364155D01*
X703948Y363634D01*
X703972Y363251D01*
X703974Y363245D01*
X703973Y363238D01*
X704008Y362849D01*
X704010Y362842D01*
X704009Y362834D01*
X704056Y362439D01*
X704101Y362056D01*
X704103Y362050D01*
X704103Y362043D01*
X704159Y361654D01*
X704161Y361649D01*
X704161Y361641D01*
X704229Y361248D01*
X704308Y360788D01*
X704311Y360782D01*
X704311Y360773D01*
X704407Y360307D01*
X704410Y360300D01*
X704411Y360291D01*
X704524Y359818D01*
X704593Y359528D01*
X704595Y359524D01*
X704596Y359519D01*
X704672Y359225D01*
X704674Y359222D01*
X704674Y359216D01*
X704757Y358921D01*
X704757Y358920D01*
X704881Y358475D01*
X704884Y358470D01*
X704886Y358462D01*
X705026Y358012D01*
X705029Y358006D01*
X705030Y357998D01*
X705187Y357543D01*
X705187Y357542D01*
X705337Y357105D01*
X705340Y357100D01*
X705342Y357092D01*
X705508Y356650D01*
X705511Y356644D01*
X705513Y356637D01*
X705695Y356190D01*
X705857Y355789D01*
X705860Y355784D01*
X705862Y355778D01*
X706039Y355372D01*
X706042Y355368D01*
X706044Y355361D01*
X706233Y354952D01*
X706428Y354532D01*
X706432Y354527D01*
X706434Y354521D01*
X706643Y354096D01*
X706646Y354092D01*
X706649Y354086D01*
X706873Y353657D01*
X707132Y353161D01*
X707136Y353156D01*
X707139Y353149D01*
X707419Y352648D01*
X707424Y352643D01*
X707426Y352636D01*
X707728Y352131D01*
X707951Y351757D01*
X707954Y351754D01*
X707955Y351749D01*
X708190Y351371D01*
X708194Y351368D01*
X708196Y351362D01*
X708443Y350983D01*
X708795Y350441D01*
X708800Y350437D01*
X708803Y350430D01*
X709180Y349884D01*
X709184Y349879D01*
X709187Y349873D01*
X709590Y349321D01*
X709591Y349320D01*
X709962Y348812D01*
X709966Y348808D01*
X709969Y348803D01*
X710363Y348290D01*
X710367Y348286D01*
X710370Y348280D01*
X710787Y347763D01*
X711137Y347328D01*
X711141Y347325D01*
X711143Y347320D01*
X711510Y346883D01*
X711514Y346880D01*
X711516Y346875D01*
X711900Y346435D01*
X711901Y346434D01*
X712316Y345958D01*
X712320Y345955D01*
X712323Y345951D01*
X712758Y345471D01*
X712762Y345469D01*
X712765Y345464D01*
X713220Y344981D01*
X713703Y344469D01*
X713707Y344466D01*
X713711Y344461D01*
X714217Y343947D01*
X714221Y343944D01*
X714224Y343939D01*
X714755Y343421D01*
X715055Y343128D01*
X715057Y343127D01*
X715058Y343125D01*
X715366Y342830D01*
X715368Y342829D01*
X715370Y342826D01*
X715686Y342531D01*
X716173Y342074D01*
X716180Y342070D01*
X716185Y342063D01*
X716685Y341624D01*
X716691Y341621D01*
X716696Y341615D01*
X717206Y341192D01*
X717461Y340981D01*
X717464Y340980D01*
X717467Y340976D01*
X717724Y340771D01*
X717726Y340770D01*
X717728Y340768D01*
X717987Y340565D01*
X717988Y340565D01*
X717988Y340564D01*
X718501Y340165D01*
X718506Y340162D01*
X718512Y340156D01*
X719034Y339773D01*
X719039Y339770D01*
X719044Y339765D01*
X719575Y339396D01*
X720078Y339044D01*
X720084Y339042D01*
X720089Y339037D01*
X720601Y338698D01*
X720606Y338696D01*
X720610Y338692D01*
X721129Y338365D01*
X721762Y337966D01*
X721768Y337964D01*
X721774Y337959D01*
X722418Y337577D01*
X722423Y337576D01*
X722427Y337572D01*
X723081Y337204D01*
X723648Y336885D01*
X723652Y336883D01*
X723656Y336880D01*
X724230Y336572D01*
X724234Y336571D01*
X724238Y336568D01*
X724818Y336269D01*
X725379Y335980D01*
X725383Y335979D01*
X725387Y335977D01*
X725954Y335697D01*
X725958Y335696D01*
X725961Y335694D01*
X726532Y335423D01*
X727090Y335156D01*
X727094Y335155D01*
X727098Y335153D01*
X727661Y334895D01*
X727663Y334895D01*
X727666Y334893D01*
X728234Y334640D01*
X728691Y334437D01*
X728693Y334436D01*
X728695Y334435D01*
X729155Y334235D01*
X729157Y334234D01*
X729159Y334233D01*
X729621Y334037D01*
X730470Y333677D01*
X730473Y333676D01*
X730477Y333674D01*
X731334Y333324D01*
X731336Y333323D01*
X731338Y333322D01*
X732201Y332978D01*
X733222Y332572D01*
X733224Y332572D01*
X733227Y332570D01*
X734254Y332175D01*
X734255Y332174D01*
X734256Y332174D01*
X735289Y331780D01*
X736361Y331371D01*
X736363Y331370D01*
X736364Y331370D01*
X737440Y330964D01*
X738518Y330552D01*
X738519Y330552D01*
X739441Y330201D01*
X740366Y329845D01*
X741283Y329483D01*
X741283Y329482D01*
X742174Y329131D01*
X743057Y328773D01*
X743941Y328402D01*
X744684Y328090D01*
X745423Y327770D01*
X746157Y327439D01*
X746908Y327100D01*
X747648Y326751D01*
X748387Y326387D01*
X748721Y326222D01*
X749052Y326055D01*
X749381Y325885D01*
X749982Y325575D01*
X750562Y325256D01*
X751134Y324925D01*
X751705Y324593D01*
X752257Y324254D01*
X752799Y323903D01*
X752800Y323902D01*
X753110Y323701D01*
X753412Y323500D01*
X753714Y323291D01*
X753715Y323291D01*
X754130Y323006D01*
X754531Y322718D01*
X754928Y322422D01*
X754929Y322422D01*
X755412Y322062D01*
X755880Y321698D01*
X756339Y321324D01*
X756662Y321060D01*
X756978Y320795D01*
X757288Y320527D01*
X757733Y320141D01*
X758162Y319753D01*
X758583Y319357D01*
X759013Y318953D01*
X759428Y318544D01*
X759834Y318130D01*
X760362Y317591D01*
X760865Y317049D01*
X761352Y316497D01*
X761353Y316497D01*
X761353Y316496D01*
X761798Y315993D01*
X762225Y315487D01*
X762639Y314977D01*
X763022Y314504D01*
X763390Y314030D01*
X763747Y313553D01*
X763747Y313552D01*
X764115Y313061D01*
X764463Y312575D01*
X764803Y312084D01*
X765180Y311538D01*
X765537Y310998D01*
X765882Y310455D01*
X766135Y310057D01*
X766378Y309661D01*
X766614Y309266D01*
X766615Y309266D01*
X766615Y309265D01*
X766871Y308838D01*
X767116Y308414D01*
X767351Y307994D01*
X767352Y307993D01*
X767574Y307598D01*
X767784Y307210D01*
X767989Y306823D01*
X768284Y306263D01*
X768561Y305717D01*
X768823Y305177D01*
X769005Y304804D01*
X769176Y304441D01*
X769343Y304079D01*
X769528Y303677D01*
X769701Y303289D01*
X769867Y302905D01*
X770087Y302398D01*
X770290Y301910D01*
X770479Y301437D01*
X770480Y301436D01*
X770623Y301079D01*
X770757Y300735D01*
X770884Y300399D01*
X771084Y299871D01*
X771263Y299377D01*
X771424Y298915D01*
X771540Y298582D01*
X771645Y298270D01*
X771742Y297978D01*
X771913Y297461D01*
X772057Y297009D01*
X772174Y296627D01*
X772324Y296143D01*
X772434Y295773D01*
X772437Y295767D01*
X772439Y295759D01*
X772517Y295524D01*
X772535Y295492D01*
X772544Y295457D01*
X772584Y295407D01*
X772615Y295351D01*
X772645Y295329D01*
X772667Y295300D01*
X772723Y295269D01*
X772774Y295231D01*
X772809Y295222D01*
X772841Y295204D01*
X772905Y295198D01*
X772966Y295182D01*
X773003Y295187D01*
G37*
G36*
X706472Y320938D02*
X706472Y320938D01*
X706499Y320938D01*
X706566Y320968D01*
X706635Y320989D01*
X706656Y321007D01*
X706681Y321018D01*
X706731Y321071D01*
X706786Y321119D01*
X706799Y321143D01*
X706817Y321163D01*
X706843Y321232D01*
X706875Y321297D01*
X706877Y321324D01*
X706886Y321350D01*
X706883Y321422D01*
X706887Y321495D01*
X706878Y321521D01*
X706877Y321549D01*
X706845Y321614D01*
X706821Y321683D01*
X706802Y321703D01*
X706790Y321728D01*
X706736Y321776D01*
X706687Y321829D01*
X706659Y321843D01*
X706641Y321859D01*
X706588Y321878D01*
X706538Y321904D01*
X705159Y322323D01*
X703891Y322749D01*
X702709Y323182D01*
X702382Y323302D01*
X702065Y323422D01*
X701751Y323543D01*
X701321Y323709D01*
X700906Y323875D01*
X700500Y324043D01*
X700500Y324044D01*
X699982Y324258D01*
X699488Y324472D01*
X699009Y324689D01*
X698502Y324918D01*
X698020Y325147D01*
X697552Y325379D01*
X697551Y325380D01*
X697157Y325575D01*
X696782Y325768D01*
X696416Y325963D01*
X695924Y326226D01*
X695458Y326488D01*
X695007Y326753D01*
X694573Y327008D01*
X694161Y327262D01*
X693762Y327518D01*
X693240Y327853D01*
X692750Y328186D01*
X692276Y328524D01*
X691801Y328862D01*
X691354Y329197D01*
X690919Y329537D01*
X690919Y329538D01*
X690323Y330002D01*
X689766Y330463D01*
X689223Y330927D01*
X688895Y331208D01*
X688581Y331482D01*
X688265Y331762D01*
X688265Y331763D01*
X688148Y331865D01*
X688033Y331968D01*
X687918Y332070D01*
X687304Y332617D01*
X686732Y333151D01*
X686195Y333673D01*
X685791Y334068D01*
X685411Y334451D01*
X685047Y334832D01*
X684650Y335247D01*
X684281Y335650D01*
X683930Y336049D01*
X683558Y336472D01*
X683215Y336881D01*
X682893Y337285D01*
X682893Y337286D01*
X682517Y337756D01*
X682178Y338208D01*
X681866Y338652D01*
X681547Y339106D01*
X681264Y339538D01*
X681005Y339964D01*
X680799Y340304D01*
X680614Y340630D01*
X680442Y340952D01*
X680235Y341342D01*
X680057Y341711D01*
X679898Y342073D01*
X679754Y342400D01*
X679633Y342706D01*
X679524Y343011D01*
X679404Y343347D01*
X679307Y343661D01*
X679225Y343971D01*
X679128Y344334D01*
X679059Y344666D01*
X679006Y344993D01*
X678953Y345326D01*
X678922Y345628D01*
X678907Y345922D01*
X678895Y346149D01*
X678893Y346355D01*
X678900Y346559D01*
X678909Y346850D01*
X678933Y347103D01*
X678970Y347348D01*
X679011Y347624D01*
X679063Y347856D01*
X679124Y348073D01*
X679197Y348332D01*
X679273Y348531D01*
X679349Y348702D01*
X679480Y348997D01*
X679540Y349077D01*
X679540Y349078D01*
X679577Y349128D01*
X679608Y349194D01*
X679661Y349307D01*
X679661Y349308D01*
X679664Y349378D01*
X679669Y349506D01*
X679636Y349592D01*
X679598Y349692D01*
X679542Y349750D01*
X679461Y349835D01*
X679460Y349836D01*
X679396Y349863D01*
X679278Y349914D01*
X679201Y349914D01*
X679079Y349915D01*
X679002Y349883D01*
X678896Y349838D01*
X678895Y349838D01*
X678843Y349788D01*
X678789Y349736D01*
X678694Y349663D01*
X678689Y349657D01*
X678680Y349652D01*
X678475Y349483D01*
X678374Y349399D01*
X678373Y349398D01*
X678371Y349397D01*
X678255Y349299D01*
X678251Y349294D01*
X678244Y349290D01*
X678117Y349177D01*
X678116Y349176D01*
X677988Y349062D01*
X677985Y349058D01*
X677980Y349055D01*
X677841Y348925D01*
X677836Y348919D01*
X677828Y348913D01*
X677682Y348767D01*
X677538Y348624D01*
X677534Y348618D01*
X677527Y348613D01*
X677376Y348453D01*
X677371Y348445D01*
X677362Y348438D01*
X677211Y348264D01*
X677146Y348189D01*
X677144Y348186D01*
X677141Y348184D01*
X677076Y348107D01*
X677074Y348103D01*
X677070Y348100D01*
X677005Y348020D01*
X676904Y347896D01*
X676901Y347890D01*
X676896Y347885D01*
X676796Y347754D01*
X676792Y347748D01*
X676786Y347742D01*
X676688Y347605D01*
X676574Y347446D01*
X676571Y347438D01*
X676564Y347431D01*
X676452Y347263D01*
X676449Y347254D01*
X676441Y347245D01*
X676334Y347068D01*
X676263Y346952D01*
X676261Y346947D01*
X676257Y346941D01*
X676188Y346821D01*
X676185Y346814D01*
X676180Y346807D01*
X676113Y346681D01*
X676049Y346560D01*
X676047Y346554D01*
X676042Y346547D01*
X675979Y346421D01*
X675977Y346414D01*
X675972Y346407D01*
X675913Y346277D01*
X675833Y346105D01*
X675831Y346096D01*
X675825Y346086D01*
X675751Y345907D01*
X675749Y345897D01*
X675744Y345887D01*
X675676Y345701D01*
X675616Y345537D01*
X675615Y345528D01*
X675610Y345519D01*
X675555Y345349D01*
X675554Y345340D01*
X675550Y345330D01*
X675501Y345155D01*
X675468Y345038D01*
X675467Y345031D01*
X675464Y345024D01*
X675434Y344904D01*
X675434Y344898D01*
X675432Y344892D01*
X675404Y344770D01*
X675369Y344610D01*
X675369Y344602D01*
X675365Y344594D01*
X675335Y344430D01*
X675335Y344422D01*
X675332Y344412D01*
X675307Y344244D01*
X675286Y344104D01*
X675286Y344097D01*
X675284Y344088D01*
X675267Y343944D01*
X675268Y343938D01*
X675266Y343930D01*
X675253Y343784D01*
X675253Y343783D01*
X675239Y343617D01*
X675239Y343610D01*
X675237Y343600D01*
X675228Y343430D01*
X675230Y343423D01*
X675228Y343414D01*
X675225Y343240D01*
X675225Y343239D01*
X675221Y343048D01*
X675223Y343039D01*
X675221Y343029D01*
X675225Y342833D01*
X675227Y342824D01*
X675226Y342813D01*
X675238Y342613D01*
X675251Y342394D01*
X675253Y342385D01*
X675252Y342374D01*
X675274Y342149D01*
X675277Y342140D01*
X675277Y342128D01*
X675309Y341898D01*
X675310Y341897D01*
X675337Y341706D01*
X675339Y341699D01*
X675339Y341689D01*
X675374Y341494D01*
X675377Y341487D01*
X675377Y341478D01*
X675419Y341280D01*
X675419Y341279D01*
X675467Y341052D01*
X675470Y341045D01*
X675471Y341035D01*
X675529Y340803D01*
X675532Y340796D01*
X675533Y340786D01*
X675602Y340549D01*
X675671Y340309D01*
X675674Y340302D01*
X675676Y340292D01*
X675756Y340047D01*
X675760Y340040D01*
X675762Y340030D01*
X675854Y339779D01*
X675961Y339485D01*
X675966Y339477D01*
X675968Y339467D01*
X676092Y339165D01*
X676097Y339158D01*
X676100Y339147D01*
X676241Y338838D01*
X676242Y338838D01*
X676354Y338592D01*
X676358Y338586D01*
X676360Y338579D01*
X676484Y338327D01*
X676488Y338322D01*
X676491Y338314D01*
X676626Y338058D01*
X676770Y337786D01*
X676774Y337781D01*
X676777Y337773D01*
X676935Y337495D01*
X676939Y337490D01*
X676942Y337482D01*
X677113Y337199D01*
X677114Y337199D01*
X677114Y337198D01*
X677300Y336893D01*
X677304Y336888D01*
X677307Y336881D01*
X677509Y336568D01*
X677514Y336564D01*
X677517Y336557D01*
X677736Y336238D01*
X677964Y335907D01*
X677969Y335903D01*
X677972Y335896D01*
X678218Y335558D01*
X678223Y335554D01*
X678227Y335547D01*
X678493Y335203D01*
X678700Y334934D01*
X678703Y334931D01*
X678706Y334927D01*
X678925Y334654D01*
X678929Y334652D01*
X678931Y334647D01*
X679163Y334370D01*
X679377Y334114D01*
X679381Y334111D01*
X679383Y334107D01*
X679608Y333848D01*
X679612Y333846D01*
X679614Y333842D01*
X679850Y333579D01*
X680095Y333307D01*
X680098Y333304D01*
X680101Y333300D01*
X680358Y333024D01*
X680361Y333022D01*
X680364Y333018D01*
X680633Y332738D01*
X680905Y332454D01*
X680908Y332452D01*
X680910Y332449D01*
X681194Y332162D01*
X681197Y332160D01*
X681200Y332156D01*
X681497Y331865D01*
X681796Y331571D01*
X681804Y331567D01*
X681810Y331559D01*
X682127Y331271D01*
X682133Y331267D01*
X682139Y331260D01*
X682471Y330977D01*
X682803Y330694D01*
X682809Y330691D01*
X682814Y330685D01*
X683161Y330407D01*
X683167Y330404D01*
X683172Y330399D01*
X683532Y330127D01*
X683532Y330126D01*
X683833Y329900D01*
X683837Y329897D01*
X683842Y329893D01*
X684151Y329670D01*
X684156Y329668D01*
X684160Y329664D01*
X684478Y329445D01*
X684831Y329201D01*
X684835Y329199D01*
X684840Y329194D01*
X685204Y328956D01*
X685208Y328954D01*
X685212Y328951D01*
X685584Y328716D01*
X685585Y328716D01*
X685585Y328715D01*
X685995Y328458D01*
X685999Y328456D01*
X686004Y328452D01*
X686425Y328200D01*
X686429Y328198D01*
X686433Y328195D01*
X686863Y327948D01*
X687219Y327744D01*
X687222Y327743D01*
X687225Y327740D01*
X687587Y327540D01*
X687590Y327539D01*
X687594Y327537D01*
X687961Y327340D01*
X688513Y327045D01*
X688518Y327043D01*
X688523Y327040D01*
X689087Y326753D01*
X689091Y326752D01*
X689095Y326749D01*
X689667Y326471D01*
X690191Y326218D01*
X690195Y326217D01*
X690198Y326214D01*
X690729Y325968D01*
X690732Y325967D01*
X690735Y325965D01*
X691269Y325727D01*
X691771Y325503D01*
X691774Y325502D01*
X691777Y325500D01*
X692281Y325283D01*
X692284Y325283D01*
X692287Y325281D01*
X692793Y325071D01*
X693309Y324857D01*
X693312Y324856D01*
X693315Y324855D01*
X693831Y324648D01*
X693834Y324647D01*
X693837Y324646D01*
X694352Y324447D01*
X694893Y324238D01*
X694896Y324238D01*
X694899Y324236D01*
X695438Y324035D01*
X695441Y324035D01*
X695444Y324033D01*
X695979Y323841D01*
X696441Y323675D01*
X696444Y323674D01*
X696446Y323673D01*
X696906Y323513D01*
X696908Y323513D01*
X696911Y323511D01*
X697366Y323358D01*
X697904Y323176D01*
X697906Y323176D01*
X697909Y323174D01*
X698440Y323001D01*
X698443Y323001D01*
X698445Y323000D01*
X698966Y322836D01*
X699567Y322646D01*
X699570Y322646D01*
X699573Y322644D01*
X700161Y322467D01*
X700164Y322467D01*
X700166Y322466D01*
X700736Y322300D01*
X701183Y322171D01*
X701185Y322170D01*
X701188Y322169D01*
X701624Y322047D01*
X701626Y322047D01*
X701628Y322046D01*
X702050Y321931D01*
X702051Y321931D01*
X702399Y321837D01*
X702401Y321837D01*
X702402Y321837D01*
X702741Y321747D01*
X702743Y321747D01*
X702744Y321746D01*
X703073Y321662D01*
X704303Y321349D01*
X704310Y321349D01*
X704318Y321345D01*
X705405Y321104D01*
X705412Y321104D01*
X705421Y321101D01*
X706301Y320935D01*
X706373Y320936D01*
X706446Y320929D01*
X706472Y320938D01*
G37*
%LPC*%
G36*
X625791Y428145D02*
X625791Y428145D01*
X625603Y428165D01*
X625418Y428212D01*
X625417Y428212D01*
X625275Y428248D01*
X625186Y428284D01*
X625082Y428344D01*
X625081Y428344D01*
X625018Y428381D01*
X624983Y428407D01*
X624931Y428457D01*
X624871Y428514D01*
X624841Y428551D01*
X624800Y428622D01*
X624799Y428622D01*
X624729Y428740D01*
X624695Y428839D01*
X624674Y428972D01*
X624674Y429237D01*
X624672Y429246D01*
X624674Y429254D01*
X624654Y429338D01*
X624674Y429435D01*
X624688Y429842D01*
X624704Y429948D01*
X624732Y430070D01*
X624763Y430178D01*
X624812Y430289D01*
X624874Y430418D01*
X624942Y430546D01*
X625029Y430708D01*
X625113Y430849D01*
X625207Y430990D01*
X625319Y431157D01*
X625428Y431298D01*
X625553Y431437D01*
X625657Y431554D01*
X625753Y431648D01*
X625864Y431744D01*
X625865Y431745D01*
X625866Y431746D01*
X625961Y431828D01*
X626050Y431895D01*
X626156Y431967D01*
X626294Y432061D01*
X626417Y432131D01*
X626563Y432196D01*
X626566Y432198D01*
X626569Y432199D01*
X626715Y432266D01*
X626848Y432314D01*
X627008Y432358D01*
X627009Y432359D01*
X627308Y432441D01*
X627597Y432479D01*
X649293Y432479D01*
X649371Y432476D01*
X649454Y432469D01*
X649455Y432469D01*
X649580Y432458D01*
X649676Y432443D01*
X649782Y432418D01*
X649783Y432418D01*
X649882Y432395D01*
X649947Y432373D01*
X650027Y432336D01*
X650028Y432336D01*
X650147Y432281D01*
X650205Y432241D01*
X650280Y432162D01*
X650281Y432162D01*
X650281Y432161D01*
X650370Y432069D01*
X650410Y432002D01*
X650457Y431863D01*
X650489Y431766D01*
X650506Y431686D01*
X650518Y431567D01*
X650518Y431565D01*
X650518Y431561D01*
X650525Y431498D01*
X650527Y431446D01*
X650527Y431374D01*
X650527Y431373D01*
X650527Y431371D01*
X650527Y431238D01*
X650519Y431121D01*
X650503Y430987D01*
X650482Y430815D01*
X650449Y430659D01*
X650409Y430516D01*
X650386Y430463D01*
X650350Y430384D01*
X650312Y430305D01*
X650311Y430304D01*
X650310Y430302D01*
X650227Y430127D01*
X650143Y429974D01*
X650049Y429818D01*
X650048Y429817D01*
X650048Y429816D01*
X649939Y429635D01*
X649833Y429482D01*
X649710Y429329D01*
X649603Y429197D01*
X649502Y429086D01*
X649387Y428976D01*
X649291Y428885D01*
X649205Y428812D01*
X649106Y428737D01*
X648877Y428565D01*
X648660Y428445D01*
X648399Y428346D01*
X648278Y428300D01*
X648170Y428267D01*
X648043Y428236D01*
X647779Y428173D01*
X647526Y428145D01*
X625791Y428145D01*
G37*
%LPD*%
G36*
X730935Y397959D02*
X730935Y397959D01*
X730967Y397956D01*
X731032Y397975D01*
X731098Y397986D01*
X731126Y398004D01*
X731158Y398013D01*
X731209Y398057D01*
X731266Y398093D01*
X731285Y398120D01*
X731310Y398141D01*
X731341Y398201D01*
X731379Y398256D01*
X731386Y398288D01*
X731401Y398318D01*
X731406Y398385D01*
X731419Y398451D01*
X731413Y398488D01*
X731415Y398516D01*
X731401Y398565D01*
X731392Y398615D01*
X731307Y398863D01*
X731305Y398867D01*
X731304Y398872D01*
X731034Y399613D01*
X731029Y399621D01*
X731026Y399632D01*
X730595Y400682D01*
X730445Y401047D01*
X730444Y401049D01*
X730444Y401051D01*
X730274Y401453D01*
X730273Y401456D01*
X730272Y401459D01*
X730084Y401890D01*
X729933Y402237D01*
X729932Y402239D01*
X729932Y402241D01*
X729769Y402607D01*
X729768Y402609D01*
X729767Y402612D01*
X729593Y402993D01*
X729428Y403355D01*
X729427Y403356D01*
X729426Y403358D01*
X729251Y403733D01*
X729250Y403735D01*
X729249Y403738D01*
X729064Y404124D01*
X728870Y404529D01*
X728868Y404531D01*
X728867Y404534D01*
X728662Y404950D01*
X728660Y404952D01*
X728659Y404955D01*
X728444Y405379D01*
X728212Y405837D01*
X728210Y405839D01*
X728209Y405843D01*
X727964Y406309D01*
X727962Y406312D01*
X727960Y406316D01*
X727704Y406787D01*
X727440Y407272D01*
X727437Y407275D01*
X727436Y407279D01*
X727159Y407768D01*
X727156Y407772D01*
X727154Y407776D01*
X726866Y408264D01*
X726866Y408265D01*
X726602Y408711D01*
X726600Y408714D01*
X726598Y408718D01*
X726325Y409163D01*
X726322Y409166D01*
X726320Y409171D01*
X726038Y409610D01*
X725797Y409987D01*
X725794Y409991D01*
X725792Y409995D01*
X725543Y410368D01*
X725540Y410372D01*
X725537Y410377D01*
X725282Y410743D01*
X724992Y411160D01*
X724989Y411164D01*
X724986Y411170D01*
X724688Y411578D01*
X724683Y411583D01*
X724680Y411589D01*
X724374Y411985D01*
X724374Y411986D01*
X724045Y412411D01*
X724040Y412415D01*
X724036Y412422D01*
X723699Y412833D01*
X723693Y412839D01*
X723687Y412847D01*
X723342Y413239D01*
X723064Y413554D01*
X723059Y413558D01*
X723054Y413565D01*
X722771Y413868D01*
X722765Y413873D01*
X722759Y413880D01*
X722471Y414168D01*
X722096Y414543D01*
X722087Y414549D01*
X722079Y414559D01*
X721816Y414799D01*
X721815Y414799D01*
X721695Y414908D01*
X721685Y414914D01*
X721674Y414926D01*
X721283Y415244D01*
X720947Y415518D01*
X720937Y415523D01*
X720928Y415533D01*
X720586Y415784D01*
X720574Y415790D01*
X720561Y415801D01*
X720214Y416025D01*
X720214Y416026D01*
X719890Y416234D01*
X719878Y416239D01*
X719866Y416249D01*
X719538Y416435D01*
X719524Y416440D01*
X719509Y416450D01*
X719177Y416611D01*
X718956Y416718D01*
X718951Y416719D01*
X718946Y416723D01*
X718728Y416822D01*
X718723Y416823D01*
X718718Y416827D01*
X718503Y416920D01*
X718298Y417008D01*
X718294Y417009D01*
X718289Y417012D01*
X718087Y417095D01*
X718082Y417096D01*
X718077Y417099D01*
X717877Y417176D01*
X717622Y417275D01*
X717616Y417276D01*
X717609Y417280D01*
X717358Y417369D01*
X717352Y417370D01*
X717346Y417373D01*
X717099Y417454D01*
X717098Y417454D01*
X716794Y417553D01*
X716787Y417554D01*
X716778Y417558D01*
X716479Y417644D01*
X716472Y417644D01*
X716464Y417648D01*
X716171Y417722D01*
X715878Y417796D01*
X715870Y417797D01*
X715862Y417800D01*
X715575Y417863D01*
X715567Y417863D01*
X715557Y417866D01*
X715276Y417917D01*
X714965Y417972D01*
X714956Y417972D01*
X714945Y417975D01*
X714642Y418017D01*
X714633Y418017D01*
X714622Y418020D01*
X714326Y418049D01*
X714013Y418079D01*
X714003Y418078D01*
X713991Y418081D01*
X713685Y418098D01*
X713676Y418096D01*
X713664Y418098D01*
X713367Y418102D01*
X712976Y418105D01*
X712963Y418103D01*
X712947Y418105D01*
X712571Y418087D01*
X712558Y418083D01*
X712542Y418084D01*
X712181Y418046D01*
X711812Y418006D01*
X711798Y418002D01*
X711781Y418002D01*
X711427Y417942D01*
X711414Y417937D01*
X711397Y417936D01*
X711060Y417857D01*
X710821Y417801D01*
X710812Y417797D01*
X710799Y417796D01*
X710568Y417731D01*
X710560Y417726D01*
X710548Y417725D01*
X710326Y417652D01*
X710050Y417562D01*
X710039Y417556D01*
X710023Y417553D01*
X709760Y417450D01*
X709750Y417444D01*
X709736Y417440D01*
X709486Y417328D01*
X709267Y417230D01*
X709258Y417224D01*
X709246Y417220D01*
X709038Y417114D01*
X709029Y417107D01*
X709017Y417103D01*
X708819Y416991D01*
X708564Y416846D01*
X708554Y416837D01*
X708539Y416830D01*
X708301Y416675D01*
X708292Y416666D01*
X708277Y416658D01*
X708058Y416496D01*
X707867Y416355D01*
X707858Y416346D01*
X707845Y416338D01*
X707668Y416191D01*
X707660Y416182D01*
X707648Y416174D01*
X707486Y416023D01*
X707485Y416023D01*
X707319Y415869D01*
X707312Y415859D01*
X707299Y415850D01*
X707148Y415693D01*
X707141Y415682D01*
X707128Y415671D01*
X706992Y415513D01*
X706992Y415512D01*
X706850Y415347D01*
X706843Y415335D01*
X706830Y415322D01*
X706705Y415156D01*
X706699Y415143D01*
X706687Y415130D01*
X706578Y414964D01*
X706374Y414652D01*
X706363Y414624D01*
X706340Y414591D01*
X706195Y414282D01*
X706187Y414250D01*
X706167Y414208D01*
X706084Y413919D01*
X706081Y413876D01*
X706068Y413836D01*
X706073Y413778D01*
X706069Y413721D01*
X706082Y413680D01*
X706086Y413638D01*
X706114Y413587D01*
X706132Y413532D01*
X706160Y413500D01*
X706180Y413463D01*
X706225Y413426D01*
X706263Y413383D01*
X706302Y413365D01*
X706335Y413338D01*
X706391Y413322D01*
X706443Y413297D01*
X706486Y413295D01*
X706527Y413284D01*
X706584Y413291D01*
X706641Y413288D01*
X706682Y413303D01*
X706724Y413309D01*
X706787Y413342D01*
X706828Y413358D01*
X706845Y413373D01*
X706871Y413387D01*
X707001Y413489D01*
X707156Y413607D01*
X707348Y413735D01*
X707457Y413806D01*
X707567Y413875D01*
X707695Y413948D01*
X707829Y414024D01*
X707965Y414096D01*
X708122Y414169D01*
X708293Y414248D01*
X708470Y414320D01*
X708671Y414390D01*
X708819Y414441D01*
X708966Y414486D01*
X709130Y414530D01*
X709282Y414570D01*
X709434Y414604D01*
X709601Y414635D01*
X709602Y414635D01*
X709766Y414666D01*
X709929Y414690D01*
X710108Y414710D01*
X710306Y414732D01*
X710501Y414745D01*
X710717Y414751D01*
X710895Y414756D01*
X711070Y414756D01*
X711259Y414749D01*
X711260Y414749D01*
X711437Y414743D01*
X711615Y414732D01*
X711803Y414714D01*
X711804Y414714D01*
X711979Y414698D01*
X712156Y414677D01*
X712341Y414650D01*
X712513Y414624D01*
X712684Y414595D01*
X712864Y414560D01*
X712971Y414539D01*
X713078Y414517D01*
X713189Y414492D01*
X713383Y414449D01*
X713576Y414401D01*
X713780Y414346D01*
X713969Y414294D01*
X714158Y414238D01*
X714358Y414175D01*
X714543Y414116D01*
X714726Y414055D01*
X714919Y413986D01*
X715085Y413926D01*
X715254Y413863D01*
X715425Y413796D01*
X715426Y413796D01*
X715631Y413716D01*
X715833Y413633D01*
X716047Y413540D01*
X716048Y413540D01*
X716048Y413539D01*
X716261Y413448D01*
X716474Y413352D01*
X716693Y413248D01*
X716694Y413248D01*
X716695Y413247D01*
X716758Y413217D01*
X716820Y413188D01*
X716883Y413156D01*
X717038Y413078D01*
X717191Y412996D01*
X717354Y412903D01*
X717355Y412903D01*
X717571Y412780D01*
X717789Y412647D01*
X718016Y412500D01*
X718207Y412375D01*
X718399Y412245D01*
X718597Y412105D01*
X718797Y411963D01*
X718996Y411817D01*
X719201Y411661D01*
X719201Y411660D01*
X719389Y411517D01*
X719575Y411371D01*
X719766Y411216D01*
X720047Y410989D01*
X720327Y410754D01*
X720614Y410504D01*
X720615Y410504D01*
X720615Y410503D01*
X720900Y410256D01*
X721185Y409999D01*
X721472Y409732D01*
X721473Y409732D01*
X721802Y409426D01*
X722131Y409110D01*
X722462Y408782D01*
X722774Y408472D01*
X723086Y408154D01*
X723397Y407829D01*
X723792Y407414D01*
X724181Y406991D01*
X724568Y406556D01*
X724883Y406202D01*
X725194Y405843D01*
X725500Y405480D01*
X725500Y405479D01*
X725797Y405127D01*
X726090Y404771D01*
X726375Y404414D01*
X726745Y403950D01*
X727103Y403485D01*
X727449Y403020D01*
X727745Y402621D01*
X728029Y402224D01*
X728304Y401826D01*
X728531Y401499D01*
X728747Y401177D01*
X728956Y400855D01*
X729160Y400539D01*
X729350Y400235D01*
X729535Y399927D01*
X729536Y399925D01*
X729537Y399923D01*
X729569Y399871D01*
X729599Y399820D01*
X729599Y399819D01*
X729632Y399766D01*
X729946Y399235D01*
X730226Y398726D01*
X730473Y398230D01*
X730515Y398177D01*
X730549Y398119D01*
X730575Y398099D01*
X730596Y398073D01*
X730655Y398040D01*
X730709Y398000D01*
X730741Y397993D01*
X730770Y397977D01*
X730837Y397969D01*
X730902Y397954D01*
X730935Y397959D01*
G37*
G36*
X665709Y329898D02*
X665709Y329898D01*
X665785Y329905D01*
X665806Y329916D01*
X665829Y329920D01*
X665892Y329963D01*
X665960Y330000D01*
X665974Y330018D01*
X665994Y330031D01*
X666036Y330095D01*
X666084Y330155D01*
X666090Y330178D01*
X666103Y330197D01*
X666117Y330273D01*
X666137Y330346D01*
X666134Y330370D01*
X666139Y330393D01*
X666122Y330468D01*
X666112Y330544D01*
X666100Y330564D01*
X666095Y330587D01*
X666050Y330649D01*
X666012Y330715D01*
X665991Y330732D01*
X665979Y330748D01*
X665929Y330781D01*
X665882Y330819D01*
X664614Y331522D01*
X662781Y332749D01*
X662517Y332926D01*
X662243Y333112D01*
X661955Y333312D01*
X661654Y333521D01*
X661348Y333738D01*
X661027Y333969D01*
X661027Y333970D01*
X660672Y334227D01*
X660309Y334495D01*
X659937Y334778D01*
X659613Y335025D01*
X659285Y335280D01*
X658954Y335544D01*
X658621Y335811D01*
X658288Y336084D01*
X657952Y336367D01*
X657559Y336698D01*
X657169Y337037D01*
X656780Y337389D01*
X656503Y337639D01*
X656233Y337890D01*
X655961Y338151D01*
X655672Y338427D01*
X655390Y338706D01*
X655110Y338992D01*
X654924Y339183D01*
X654742Y339373D01*
X654560Y339569D01*
X654559Y339569D01*
X654333Y339812D01*
X654111Y340058D01*
X653894Y340308D01*
X653893Y340308D01*
X653699Y340532D01*
X653512Y340754D01*
X653325Y340983D01*
X653206Y341129D01*
X653088Y341277D01*
X652971Y341427D01*
X652729Y341739D01*
X652506Y342039D01*
X652296Y342335D01*
X651977Y342785D01*
X651698Y343210D01*
X651447Y343625D01*
X651256Y343942D01*
X651087Y344244D01*
X650932Y344541D01*
X650766Y344860D01*
X650624Y345160D01*
X650497Y345456D01*
X650375Y345741D01*
X650274Y346007D01*
X650185Y346270D01*
X650111Y346492D01*
X650049Y346699D01*
X649995Y346907D01*
X649941Y347116D01*
X649899Y347308D01*
X649864Y347504D01*
X649818Y347757D01*
X649789Y347988D01*
X649772Y348219D01*
X649751Y348497D01*
X649749Y348744D01*
X649762Y348993D01*
X649762Y348994D01*
X649775Y349240D01*
X649800Y349457D01*
X649838Y349677D01*
X649882Y349927D01*
X649937Y350145D01*
X650005Y350364D01*
X650006Y350365D01*
X650058Y350534D01*
X650113Y350684D01*
X650175Y350837D01*
X650252Y351025D01*
X650330Y351192D01*
X650414Y351358D01*
X650497Y351522D01*
X650579Y351670D01*
X650661Y351815D01*
X650738Y351950D01*
X650811Y352075D01*
X650813Y352080D01*
X650816Y352084D01*
X650881Y352201D01*
X650894Y352240D01*
X650915Y352275D01*
X650924Y352334D01*
X650942Y352390D01*
X650938Y352431D01*
X650944Y352472D01*
X650929Y352529D01*
X650924Y352588D01*
X650904Y352624D01*
X650894Y352664D01*
X650857Y352711D01*
X650830Y352763D01*
X650797Y352789D01*
X650772Y352822D01*
X650721Y352851D01*
X650675Y352888D01*
X650635Y352899D01*
X650599Y352919D01*
X650540Y352926D01*
X650483Y352942D01*
X650442Y352937D01*
X650401Y352942D01*
X650330Y352923D01*
X650286Y352917D01*
X650267Y352906D01*
X650240Y352899D01*
X650060Y352818D01*
X650029Y352796D01*
X649980Y352773D01*
X649719Y352591D01*
X649700Y352571D01*
X649670Y352552D01*
X649372Y352284D01*
X649311Y352229D01*
X649308Y352225D01*
X649303Y352222D01*
X649241Y352164D01*
X649239Y352161D01*
X649235Y352158D01*
X649171Y352096D01*
X649054Y351983D01*
X649050Y351977D01*
X649043Y351972D01*
X648921Y351846D01*
X648918Y351841D01*
X648911Y351836D01*
X648787Y351700D01*
X648787Y351699D01*
X648786Y351699D01*
X648688Y351591D01*
X648685Y351586D01*
X648680Y351581D01*
X648580Y351466D01*
X648577Y351461D01*
X648572Y351456D01*
X648472Y351334D01*
X648471Y351334D01*
X648471Y351333D01*
X648332Y351163D01*
X648329Y351157D01*
X648322Y351150D01*
X648183Y350968D01*
X648179Y350960D01*
X648172Y350953D01*
X648035Y350759D01*
X648035Y350758D01*
X647896Y350562D01*
X647893Y350554D01*
X647886Y350547D01*
X647750Y350338D01*
X647746Y350329D01*
X647739Y350321D01*
X647608Y350101D01*
X647608Y350100D01*
X647478Y349883D01*
X647475Y349875D01*
X647469Y349866D01*
X647345Y349638D01*
X647342Y349628D01*
X647334Y349617D01*
X647219Y349379D01*
X647094Y349124D01*
X647091Y349113D01*
X647084Y349102D01*
X646969Y348834D01*
X646966Y348822D01*
X646959Y348809D01*
X646857Y348531D01*
X646756Y348257D01*
X646754Y348246D01*
X646748Y348233D01*
X646660Y347950D01*
X646658Y347936D01*
X646652Y347920D01*
X646580Y347629D01*
X646514Y347361D01*
X646514Y347349D01*
X646509Y347335D01*
X646456Y347059D01*
X646456Y347046D01*
X646451Y347029D01*
X646415Y346747D01*
X646387Y346522D01*
X646388Y346512D01*
X646384Y346499D01*
X646366Y346271D01*
X646368Y346259D01*
X646365Y346246D01*
X646358Y346014D01*
X646351Y345786D01*
X646353Y345775D01*
X646351Y345761D01*
X646356Y345529D01*
X646358Y345517D01*
X646357Y345502D01*
X646374Y345267D01*
X646384Y345127D01*
X646386Y345120D01*
X646386Y345111D01*
X646401Y344969D01*
X646403Y344962D01*
X646402Y344954D01*
X646422Y344811D01*
X646422Y344810D01*
X646445Y344643D01*
X646448Y344635D01*
X646448Y344625D01*
X646477Y344456D01*
X646480Y344449D01*
X646481Y344438D01*
X646517Y344269D01*
X646552Y344106D01*
X646555Y344099D01*
X646556Y344089D01*
X646597Y343925D01*
X646600Y343917D01*
X646602Y343908D01*
X646649Y343742D01*
X646695Y343584D01*
X646699Y343576D01*
X646701Y343566D01*
X646753Y343407D01*
X646757Y343400D01*
X646759Y343390D01*
X646818Y343231D01*
X646897Y343017D01*
X646902Y343008D01*
X646905Y342996D01*
X646995Y342781D01*
X647001Y342772D01*
X647005Y342760D01*
X647108Y342543D01*
X647182Y342387D01*
X647186Y342381D01*
X647189Y342372D01*
X647271Y342214D01*
X647275Y342208D01*
X647278Y342200D01*
X647366Y342042D01*
X647367Y342042D01*
X647451Y341891D01*
X647455Y341886D01*
X647458Y341878D01*
X647549Y341727D01*
X647553Y341722D01*
X647556Y341714D01*
X647653Y341562D01*
X647654Y341562D01*
X647654Y341561D01*
X647796Y341339D01*
X647803Y341332D01*
X647808Y341322D01*
X647965Y341098D01*
X647972Y341091D01*
X647977Y341081D01*
X648148Y340857D01*
X648149Y340857D01*
X648268Y340701D01*
X648273Y340697D01*
X648277Y340690D01*
X648403Y340534D01*
X648408Y340531D01*
X648411Y340524D01*
X648545Y340368D01*
X648758Y340120D01*
X648766Y340113D01*
X648774Y340102D01*
X649010Y339852D01*
X649017Y339847D01*
X649023Y339839D01*
X649279Y339588D01*
X649279Y339587D01*
X649411Y339458D01*
X649415Y339456D01*
X649418Y339452D01*
X649555Y339322D01*
X649558Y339320D01*
X649561Y339316D01*
X649703Y339186D01*
X649920Y338988D01*
X649925Y338985D01*
X649929Y338980D01*
X650157Y338781D01*
X650162Y338778D01*
X650166Y338773D01*
X650404Y338575D01*
X650637Y338381D01*
X650641Y338378D01*
X650644Y338374D01*
X650887Y338180D01*
X650890Y338178D01*
X650894Y338175D01*
X651144Y337981D01*
X651404Y337780D01*
X651407Y337779D01*
X651410Y337775D01*
X651679Y337574D01*
X651682Y337573D01*
X651685Y337570D01*
X651961Y337371D01*
X651961Y337370D01*
X652233Y337173D01*
X652237Y337172D01*
X652240Y337169D01*
X652519Y336973D01*
X652521Y336972D01*
X652524Y336970D01*
X652809Y336774D01*
X652810Y336774D01*
X653088Y336584D01*
X653091Y336582D01*
X653093Y336580D01*
X653377Y336391D01*
X653379Y336390D01*
X653381Y336389D01*
X653669Y336201D01*
X653948Y336019D01*
X653950Y336018D01*
X653953Y336016D01*
X654235Y335836D01*
X654237Y335836D01*
X654239Y335834D01*
X654524Y335656D01*
X654782Y335495D01*
X654783Y335494D01*
X654785Y335493D01*
X655045Y335334D01*
X655046Y335333D01*
X655048Y335332D01*
X655309Y335174D01*
X655567Y335018D01*
X655569Y335017D01*
X655571Y335016D01*
X655831Y334861D01*
X655832Y334861D01*
X655834Y334859D01*
X656095Y334707D01*
X656095Y334706D01*
X656453Y334497D01*
X656455Y334496D01*
X656457Y334495D01*
X656816Y334288D01*
X656818Y334287D01*
X656820Y334286D01*
X657177Y334085D01*
X657475Y333917D01*
X657476Y333916D01*
X657477Y333915D01*
X657774Y333750D01*
X657775Y333750D01*
X657776Y333749D01*
X658069Y333588D01*
X658070Y333588D01*
X658336Y333442D01*
X658337Y333441D01*
X658601Y333298D01*
X658602Y333298D01*
X658603Y333297D01*
X658864Y333157D01*
X659157Y333000D01*
X659158Y333000D01*
X659159Y332999D01*
X659448Y332846D01*
X659449Y332846D01*
X659450Y332845D01*
X659734Y332697D01*
X659734Y332696D01*
X660088Y332512D01*
X660089Y332512D01*
X660090Y332511D01*
X660435Y332333D01*
X660436Y332332D01*
X660438Y332331D01*
X660773Y332161D01*
X660772Y332161D01*
X660773Y332161D01*
X661156Y331965D01*
X661158Y331965D01*
X661159Y331964D01*
X661529Y331778D01*
X661530Y331778D01*
X661531Y331777D01*
X661883Y331603D01*
X662474Y331311D01*
X662476Y331310D01*
X662478Y331309D01*
X663017Y331048D01*
X663019Y331048D01*
X663020Y331047D01*
X663490Y330823D01*
X663491Y330823D01*
X664679Y330259D01*
X664686Y330257D01*
X664693Y330253D01*
X665439Y329925D01*
X665514Y329909D01*
X665587Y329886D01*
X665610Y329888D01*
X665633Y329883D01*
X665709Y329898D01*
G37*
D10*
X165100Y196850D03*
X165100Y222250D03*
D11*
X436626Y327660D02*
X449834Y327660D01*
X449834Y302260D02*
X436626Y302260D01*
X436626Y175260D02*
X449834Y175260D01*
X512826Y175260D02*
X526034Y175260D01*
X449834Y276860D02*
X436626Y276860D01*
X436626Y251460D02*
X449834Y251460D01*
X449834Y200660D02*
X436626Y200660D01*
X436626Y226060D02*
X449834Y226060D01*
X512826Y200660D02*
X526034Y200660D01*
X526034Y226060D02*
X512826Y226060D01*
X512826Y251460D02*
X526034Y251460D01*
X526034Y276860D02*
X512826Y276860D01*
X512826Y302260D02*
X526034Y302260D01*
X526034Y327660D02*
X512826Y327660D01*
D12*
X772859Y127000D02*
X789242Y127000D01*
X789242Y152400D02*
X772859Y152400D01*
D10*
X749300Y152400D03*
X749300Y177800D03*
X749300Y101600D03*
X749300Y127000D03*
X673100Y127000D03*
X673100Y152400D03*
X647700Y152400D03*
X647700Y177800D03*
X647700Y101600D03*
X647700Y127000D03*
X388620Y200660D03*
X388620Y226060D03*
D13*
X388620Y175260D03*
X388620Y149860D03*
D14*
X552450Y327660D03*
X577850Y327660D03*
X552450Y302260D03*
X577850Y302260D03*
D13*
X339090Y302260D03*
X339090Y276860D03*
X364490Y302260D03*
X364490Y276860D03*
D15*
X44450Y171450D03*
X44450Y146050D03*
X44450Y120650D03*
X44450Y95250D03*
X44450Y69850D03*
X44450Y44450D03*
X69850Y44450D03*
X69850Y69850D03*
X69850Y95250D03*
X69850Y120650D03*
X69850Y146050D03*
X69850Y171450D03*
D12*
X772859Y241300D02*
X789242Y241300D01*
X789242Y266700D02*
X772859Y266700D01*
D16*
X415290Y327660D03*
X389890Y327660D03*
D13*
X414020Y226060D03*
X414020Y200660D03*
D10*
X388620Y251460D03*
X388620Y276860D03*
D14*
X527050Y355600D03*
X552450Y355600D03*
X552450Y276860D03*
X577850Y276860D03*
D13*
X552450Y200660D03*
X552450Y175260D03*
X749300Y266700D03*
X749300Y241300D03*
D16*
X483870Y147320D03*
X458470Y147320D03*
X483870Y121920D03*
X458470Y121920D03*
X483870Y96520D03*
X458470Y96520D03*
X483870Y71120D03*
X458470Y71120D03*
X483870Y45720D03*
X458470Y45720D03*
D10*
X723900Y152400D03*
X723900Y177800D03*
X723900Y101600D03*
X723900Y127000D03*
D13*
X698500Y127000D03*
X698500Y101600D03*
D10*
X698500Y152400D03*
X698500Y177800D03*
D13*
X414020Y175260D03*
X414020Y149860D03*
D11*
X228854Y450850D02*
X215646Y450850D01*
X215646Y425450D02*
X228854Y425450D01*
X272796Y450850D02*
X286004Y450850D01*
X286004Y425450D02*
X272796Y425450D01*
D10*
X177800Y425450D03*
X177800Y450850D03*
D17*
X202345Y374650D02*
X216755Y374650D01*
X216755Y349250D02*
X202345Y349250D01*
X202345Y323850D02*
X216755Y323850D01*
X216755Y298450D02*
X202345Y298450D01*
X202345Y273050D02*
X216755Y273050D01*
X216755Y247650D02*
X202345Y247650D01*
X202345Y222250D02*
X216755Y222250D01*
X216755Y196850D02*
X202345Y196850D01*
X202345Y171450D02*
X216755Y171450D01*
X216755Y146050D02*
X202345Y146050D01*
X202345Y120650D02*
X216755Y120650D01*
X216755Y95250D02*
X202345Y95250D01*
X202345Y69850D02*
X216755Y69850D01*
X216755Y44450D02*
X202345Y44450D01*
X278545Y44450D02*
X292955Y44450D01*
X292955Y69850D02*
X278545Y69850D01*
X278545Y95250D02*
X292955Y95250D01*
X292955Y120650D02*
X278545Y120650D01*
X278545Y146050D02*
X292955Y146050D01*
X292955Y171450D02*
X278545Y171450D01*
X278545Y196850D02*
X292955Y196850D01*
X292955Y222250D02*
X278545Y222250D01*
X278545Y247650D02*
X292955Y247650D01*
X292955Y273050D02*
X278545Y273050D01*
X278545Y298450D02*
X292955Y298450D01*
X292955Y323850D02*
X278545Y323850D01*
X278545Y349250D02*
X292955Y349250D01*
X292955Y374650D02*
X278545Y374650D01*
D15*
X44450Y273050D03*
X44450Y298450D03*
X44450Y323850D03*
X44450Y349250D03*
X44450Y374650D03*
X361950Y120650D03*
X361950Y146050D03*
X361950Y171450D03*
X336550Y171450D03*
X336550Y146050D03*
X336550Y120650D03*
D14*
X76200Y374650D03*
X101600Y374650D03*
D16*
X146050Y374650D03*
X120650Y374650D03*
D13*
X323850Y450850D03*
X323850Y425450D03*
D18*
X615950Y285750D03*
X717550Y285750D03*
X717550Y241300D03*
X615950Y241300D03*
M02*
