G04 EAGLE Gerber RS-274X export*
G75*
%MOMM*%
%FSLAX34Y34*%
%LPD*%
%INSoldermask Bottom*%
%IPPOS*%
%AMOC8*
5,1,8,0,0,1.08239X$1,22.5*%
G01*
%ADD10P,1.649562X8X112.500000*%
%ADD11C,1.524000*%
%ADD12C,1.841500*%
%ADD13P,1.649562X8X292.500000*%
%ADD14P,1.649562X8X22.500000*%
%ADD15C,1.908300*%
%ADD16P,1.649562X8X202.500000*%
%ADD17C,1.644200*%
%ADD18C,1.879600*%


D10*
X165100Y196850D03*
X165100Y222250D03*
D11*
X436626Y327660D02*
X449834Y327660D01*
X449834Y302260D02*
X436626Y302260D01*
X436626Y175260D02*
X449834Y175260D01*
X512826Y175260D02*
X526034Y175260D01*
X449834Y276860D02*
X436626Y276860D01*
X436626Y251460D02*
X449834Y251460D01*
X449834Y200660D02*
X436626Y200660D01*
X436626Y226060D02*
X449834Y226060D01*
X512826Y200660D02*
X526034Y200660D01*
X526034Y226060D02*
X512826Y226060D01*
X512826Y251460D02*
X526034Y251460D01*
X526034Y276860D02*
X512826Y276860D01*
X512826Y302260D02*
X526034Y302260D01*
X526034Y327660D02*
X512826Y327660D01*
D12*
X772859Y127000D02*
X789242Y127000D01*
X789242Y152400D02*
X772859Y152400D01*
D10*
X749300Y152400D03*
X749300Y177800D03*
X749300Y101600D03*
X749300Y127000D03*
X673100Y127000D03*
X673100Y152400D03*
X647700Y152400D03*
X647700Y177800D03*
X647700Y101600D03*
X647700Y127000D03*
X388620Y200660D03*
X388620Y226060D03*
D13*
X388620Y175260D03*
X388620Y149860D03*
D14*
X552450Y327660D03*
X577850Y327660D03*
X552450Y302260D03*
X577850Y302260D03*
D13*
X339090Y302260D03*
X339090Y276860D03*
X364490Y302260D03*
X364490Y276860D03*
D15*
X44450Y171450D03*
X44450Y146050D03*
X44450Y120650D03*
X44450Y95250D03*
X44450Y69850D03*
X44450Y44450D03*
X69850Y44450D03*
X69850Y69850D03*
X69850Y95250D03*
X69850Y120650D03*
X69850Y146050D03*
X69850Y171450D03*
D12*
X772859Y241300D02*
X789242Y241300D01*
X789242Y266700D02*
X772859Y266700D01*
D16*
X415290Y327660D03*
X389890Y327660D03*
D13*
X414020Y226060D03*
X414020Y200660D03*
D10*
X388620Y251460D03*
X388620Y276860D03*
D14*
X527050Y355600D03*
X552450Y355600D03*
X552450Y276860D03*
X577850Y276860D03*
D13*
X552450Y200660D03*
X552450Y175260D03*
X749300Y266700D03*
X749300Y241300D03*
D16*
X483870Y147320D03*
X458470Y147320D03*
X483870Y121920D03*
X458470Y121920D03*
X483870Y96520D03*
X458470Y96520D03*
X483870Y71120D03*
X458470Y71120D03*
X483870Y45720D03*
X458470Y45720D03*
D10*
X723900Y152400D03*
X723900Y177800D03*
X723900Y101600D03*
X723900Y127000D03*
D13*
X698500Y127000D03*
X698500Y101600D03*
D10*
X698500Y152400D03*
X698500Y177800D03*
D13*
X414020Y175260D03*
X414020Y149860D03*
D11*
X228854Y450850D02*
X215646Y450850D01*
X215646Y425450D02*
X228854Y425450D01*
X272796Y450850D02*
X286004Y450850D01*
X286004Y425450D02*
X272796Y425450D01*
D10*
X177800Y425450D03*
X177800Y450850D03*
D17*
X202345Y374650D02*
X216755Y374650D01*
X216755Y349250D02*
X202345Y349250D01*
X202345Y323850D02*
X216755Y323850D01*
X216755Y298450D02*
X202345Y298450D01*
X202345Y273050D02*
X216755Y273050D01*
X216755Y247650D02*
X202345Y247650D01*
X202345Y222250D02*
X216755Y222250D01*
X216755Y196850D02*
X202345Y196850D01*
X202345Y171450D02*
X216755Y171450D01*
X216755Y146050D02*
X202345Y146050D01*
X202345Y120650D02*
X216755Y120650D01*
X216755Y95250D02*
X202345Y95250D01*
X202345Y69850D02*
X216755Y69850D01*
X216755Y44450D02*
X202345Y44450D01*
X278545Y44450D02*
X292955Y44450D01*
X292955Y69850D02*
X278545Y69850D01*
X278545Y95250D02*
X292955Y95250D01*
X292955Y120650D02*
X278545Y120650D01*
X278545Y146050D02*
X292955Y146050D01*
X292955Y171450D02*
X278545Y171450D01*
X278545Y196850D02*
X292955Y196850D01*
X292955Y222250D02*
X278545Y222250D01*
X278545Y247650D02*
X292955Y247650D01*
X292955Y273050D02*
X278545Y273050D01*
X278545Y298450D02*
X292955Y298450D01*
X292955Y323850D02*
X278545Y323850D01*
X278545Y349250D02*
X292955Y349250D01*
X292955Y374650D02*
X278545Y374650D01*
D15*
X44450Y273050D03*
X44450Y298450D03*
X44450Y323850D03*
X44450Y349250D03*
X44450Y374650D03*
X361950Y120650D03*
X361950Y146050D03*
X361950Y171450D03*
X336550Y171450D03*
X336550Y146050D03*
X336550Y120650D03*
D14*
X76200Y374650D03*
X101600Y374650D03*
D16*
X146050Y374650D03*
X120650Y374650D03*
D13*
X323850Y450850D03*
X323850Y425450D03*
D18*
X615950Y285750D03*
X717550Y285750D03*
X717550Y241300D03*
X615950Y241300D03*
M02*
